<svg width="332" height="266" viewBox="0 0 332 266" fill="none" xmlns="http://www.w3.org/2000/svg">
<path d="M323.66 263.688C323.66 263.788 253.07 263.861 166.007 263.861C78.943 263.861 8.33984 263.761 8.33984 263.688C8.33984 263.615 78.9164 263.516 166.007 263.516C253.097 263.516 323.66 263.595 323.66 263.688Z" fill="#263238"/>
<path d="M240.528 75.6401C239.864 75.2218 239.048 74.8699 238.344 75.2019C238.035 75.3861 237.791 75.6608 237.643 75.9886C237.496 76.3164 237.453 76.6815 237.52 77.0345C237.671 77.7401 237.969 78.4056 238.397 78.9867C237.299 77.7833 235.79 77.0367 234.167 76.8951C233.629 76.8486 232.972 76.9482 232.766 77.4462C232.717 77.6301 232.706 77.8221 232.733 78.0104C232.76 78.1988 232.826 78.3796 232.925 78.5418C233.563 79.9052 234.385 81.1743 235.369 82.3133C234.641 82.1906 233.895 82.243 233.191 82.4661C232.843 82.5866 232.546 82.8232 232.352 83.1364C232.157 83.4495 232.076 83.82 232.122 84.1858C232.247 84.5709 232.477 84.9135 232.786 85.1752C234.649 86.995 236.929 88.3329 239.426 89.0729C240.731 89.5378 242.148 89.5888 243.483 89.2189C244.778 88.7741 246.272 87.8909 246.139 86.5231V86.9082C246.299 84.6997 245.862 82.4888 244.875 80.5067C243.888 78.5245 242.387 76.8438 240.528 75.6401Z" fill="#40D259"/>
<path d="M245.847 87.628C245.847 87.628 245.807 87.628 245.747 87.555L245.488 87.3159L245.07 86.9441C244.911 86.8047 244.725 86.6387 244.512 86.4727C244.087 86.1274 243.57 85.7356 242.972 85.3306C242.331 84.8962 241.666 84.4994 240.98 84.142C240.28 83.7928 239.562 83.4825 238.829 83.2124C238.228 82.999 237.616 82.8172 236.996 82.6679C236.737 82.5949 236.491 82.5484 236.279 82.5019C236.066 82.4555 235.887 82.4223 235.734 82.4023L235.389 82.3359H235.27H235.389L235.741 82.3824C235.894 82.3824 236.08 82.4223 236.292 82.4621C236.505 82.5019 236.75 82.5418 237.016 82.6082C237.643 82.7465 238.262 82.9217 238.868 83.1327C239.61 83.3982 240.336 83.7086 241.04 84.0623C241.728 84.4218 242.393 84.8232 243.032 85.2642C243.562 85.6252 244.072 86.0153 244.559 86.4328C244.771 86.6055 244.951 86.7781 245.11 86.9242C245.269 87.0703 245.409 87.2031 245.515 87.3093L245.761 87.5616L245.847 87.628Z" fill="#263238"/>
<path d="M241.432 84.3784C241.373 84.315 241.319 84.246 241.273 84.1725C241.173 84.0397 241.04 83.8472 240.881 83.6015C240.556 83.1101 240.124 82.4196 239.679 81.6095C239.234 80.7994 238.869 80.1022 238.617 79.571C238.491 79.3054 238.391 79.0863 238.331 78.907C238.291 78.8311 238.26 78.7509 238.238 78.668C238.238 78.668 238.298 78.741 238.371 78.8871L238.696 79.5046C238.969 80.0225 239.36 80.7396 239.785 81.4966C240.21 82.2536 240.649 82.964 240.954 83.4886L241.313 84.0796C241.369 84.1715 241.41 84.2726 241.432 84.3784Z" fill="#263238"/>
<g opacity="0.3">
<path opacity="0.3" d="M235.367 82.3135C235.367 82.3135 239.026 81.7159 241.171 84.186C239.359 83.23 237.396 82.5964 235.367 82.3135Z" fill="black"/>
</g>
<path d="M235.309 105.211C237.815 104.001 239.894 102.059 241.272 99.6412C242.65 97.2235 243.261 94.4445 243.025 91.6719C240.303 92.7708 238.001 94.7056 236.449 97.1973C234.898 99.689 234.178 102.609 234.393 105.536" fill="#455A64"/>
<path d="M236.5 101.781C236.5 101.781 236.586 101.635 236.726 101.37C236.865 101.104 237.058 100.706 237.31 100.228C237.808 99.2715 238.538 97.9701 239.442 96.589C240.214 95.4144 241.045 94.2797 241.932 93.1893L242.742 92.2C242.85 92.0853 242.948 91.9608 243.034 91.8281C243.034 91.8281 242.901 91.9344 242.688 92.1535C242.476 92.3726 242.184 92.6913 241.832 93.103C240.914 94.1774 240.065 95.3084 239.289 96.4894C238.511 97.6693 237.81 98.898 237.191 100.168C236.958 100.659 236.772 101.058 236.659 101.337C236.59 101.479 236.537 101.628 236.5 101.781Z" fill="#263238"/>
<path d="M304.567 77.0889C303.84 76.6316 303.026 76.3288 302.177 76.1992C304.093 76.2938 305.974 75.6658 307.449 74.4396C307.927 74.0345 308.385 73.4104 308.113 72.8327C307.994 72.6394 307.837 72.4718 307.652 72.3395C307.468 72.2073 307.259 72.1131 307.037 72.0625C305.34 71.4654 303.572 71.0947 301.778 70.9602C302.48 70.4635 303.051 69.8053 303.445 69.0413C303.624 68.6473 303.662 68.2035 303.552 67.7849C303.442 67.3663 303.191 66.9986 302.841 66.7438C302.407 66.5292 301.922 66.4374 301.44 66.4782C298.366 66.5044 295.344 67.2768 292.635 68.7292C291.169 69.4076 289.956 70.5326 289.169 71.9429C288.505 73.3838 288.02 75.336 289.302 76.3585L288.99 76.0199C290.759 77.9775 293.008 79.44 295.515 80.2632C298.022 81.0864 300.7 81.2419 303.286 80.7144C304.175 80.5152 305.165 80.13 305.45 79.2801C305.548 78.8684 305.515 78.4366 305.357 78.0441C305.199 77.6517 304.923 77.3179 304.567 77.0889Z" fill="#40D259"/>
<path d="M302.406 76.2542C302.225 76.2467 302.045 76.2222 301.868 76.1811L300.394 75.9421C299.153 75.7495 297.433 75.5304 295.527 75.3843C293.621 75.2382 291.888 75.1718 290.633 75.1254L289.146 75.059C288.963 75.0591 288.781 75.0413 288.602 75.0058C288.783 74.9876 288.965 74.9876 289.146 75.0058C289.498 75.0058 290.003 75.0058 290.633 75.0058C291.888 75.0058 293.621 75.059 295.54 75.205C297.177 75.3274 298.806 75.5358 300.421 75.8292C301.038 75.9487 301.536 76.055 301.882 76.1413C302.061 76.1534 302.238 76.1915 302.406 76.2542Z" fill="#263238"/>
<path d="M302.022 70.7734C301.88 70.8908 301.727 70.9932 301.564 71.0789C301.259 71.2648 300.807 71.5105 300.236 71.8093C298.742 72.5729 297.187 73.2124 295.588 73.7216C293.991 74.2307 292.354 74.606 290.694 74.8438C290.03 74.9367 289.532 74.9898 289.174 75.0164C288.986 75.0382 288.797 75.0382 288.609 75.0164C288.79 74.9684 288.974 74.9351 289.161 74.9168C289.519 74.8637 290.03 74.784 290.661 74.6711C293.947 74.1199 297.138 73.1025 300.136 71.6499C300.707 71.371 301.166 71.1453 301.464 70.9859C301.642 70.8939 301.829 70.8226 302.022 70.7734Z" fill="#263238"/>
<g opacity="0.3">
<path opacity="0.3" d="M289.73 74.979C293.714 75.384 298.09 74.4279 300.753 71.5195C296.935 73.319 293.183 74.7798 289.73 74.979Z" fill="black"/>
</g>
<path d="M294.276 60.8793C294.352 60.5596 294.347 60.2262 294.262 59.9088C294.178 59.5913 294.016 59.2997 293.791 59.06C293.536 58.894 293.236 58.8107 292.932 58.8214C292.628 58.8321 292.334 58.9363 292.092 59.1197C291.613 59.4986 291.22 59.9736 290.936 60.5141C291.434 59.2328 291.434 57.8114 290.936 56.5301C290.77 56.1052 290.451 55.6404 289.993 55.6736C289.836 55.7054 289.686 55.7689 289.554 55.8602C289.421 55.9515 289.309 56.0687 289.223 56.2048C288.426 57.2014 287.769 58.3029 287.271 59.4783C287.092 58.8787 286.774 58.3302 286.341 57.878C286.122 57.6515 285.829 57.5104 285.515 57.4799C285.201 57.4495 284.887 57.5318 284.628 57.712C284.385 57.953 284.213 58.2562 284.13 58.5885C283.444 60.6843 283.283 62.9162 283.659 65.0891C283.794 66.2545 284.283 67.3506 285.06 68.2298C285.89 69.0465 287.118 69.85 288.108 69.2391L287.809 69.3652C289.548 68.6603 291.067 67.5007 292.204 66.0078C293.342 64.5149 294.058 62.7436 294.276 60.8793Z" fill="#40D259"/>
<path d="M287.158 69.4194C287.156 69.384 287.156 69.3485 287.158 69.3131L287.238 69.0276C287.271 68.9014 287.318 68.7487 287.364 68.5761C287.411 68.4034 287.464 68.1976 287.51 67.9652C287.638 67.44 287.735 66.9079 287.802 66.3716C287.892 65.7112 287.94 65.046 287.949 64.3796C287.955 63.7142 287.922 63.049 287.849 62.3876C287.776 61.7767 287.683 61.2389 287.583 60.7874C287.537 60.5616 287.477 60.3558 287.431 60.1831C287.384 60.0105 287.344 59.8511 287.311 59.725C287.278 59.5988 287.251 59.5191 287.225 59.4394V59.3398C287.225 59.3398 287.225 59.3398 287.265 59.4328L287.364 59.7117C287.421 59.8596 287.469 60.0103 287.51 60.1632C287.557 60.3425 287.623 60.5417 287.67 60.7674C287.8 61.2965 287.898 61.8331 287.962 62.3743C288.042 63.0352 288.08 63.7006 288.075 64.3663C288.064 65.0328 288.013 65.698 287.922 66.3583C287.844 66.897 287.738 67.4311 287.603 67.9586C287.557 68.1843 287.49 68.3835 287.437 68.5628C287.384 68.7421 287.338 68.8882 287.298 69.0143L287.198 69.2932C287.178 69.3862 287.165 69.4194 287.158 69.4194Z" fill="#263238"/>
<path d="M287.977 64.8469C287.998 64.7766 288.03 64.7095 288.07 64.6477C288.136 64.5282 288.236 64.3489 288.362 64.1364C288.607 63.7048 288.973 63.1205 289.398 62.4897C289.822 61.8589 290.241 61.3078 290.553 60.916C290.706 60.7235 290.832 60.5641 290.925 60.4645C291.018 60.3649 291.071 60.2985 291.077 60.3051L290.958 60.4844L290.613 60.9625C290.314 61.3675 289.915 61.9187 289.484 62.5495C289.052 63.1803 288.687 63.7513 288.421 64.1763L288.103 64.6676C288.068 64.7325 288.026 64.7927 287.977 64.8469Z" fill="#263238"/>
<g opacity="0.3">
<path opacity="0.3" d="M287.273 59.4648C287.273 59.4648 289.099 62.0212 288.03 64.571C288.074 62.8381 287.818 61.1106 287.273 59.4648Z" fill="black"/>
</g>
<path d="M302.452 98.2238C299.604 96.6132 297.313 94.1757 295.88 91.2341C294.448 88.2924 293.943 84.9852 294.431 81.75C297.544 83.2447 300.102 85.6889 301.737 88.7306C303.372 91.7723 303.999 95.2544 303.528 98.6754" fill="#455A64"/>
<path d="M301.317 94.1141C301.22 93.9549 301.14 93.7857 301.078 93.6094L300.481 92.2283C299.963 91.0663 299.206 89.4794 298.25 87.7994C297.293 86.1195 296.317 84.6521 295.594 83.6096C295.222 83.0917 294.93 82.68 294.711 82.3945C294.593 82.2494 294.488 82.0938 294.398 81.9297C294.537 82.0546 294.664 82.1925 294.777 82.3414C295.009 82.607 295.328 83.0054 295.713 83.5233C297.714 86.1792 299.368 89.08 300.633 92.1553C300.872 92.7462 301.058 93.231 301.171 93.563C301.237 93.7417 301.286 93.9262 301.317 94.1141Z" fill="#263238"/>
<path d="M247.868 44.3879C247.868 44.3879 249.601 39.4212 257.058 38.2393C264.514 37.0574 267.961 42.4623 267.961 42.4623C267.961 42.4623 277.569 56.7317 276.852 64.6134C266.633 55.0451 269.674 50.0983 258.844 51.8181C248.014 53.5379 245.783 69.5336 245.783 69.5336C245.783 69.5336 242.423 59.1819 247.868 44.3879Z" fill="#40D259"/>
<g opacity="0.3">
<path opacity="0.3" d="M247.868 44.3879C247.868 44.3879 249.601 39.4212 257.058 38.2393C264.514 37.0574 267.961 42.4623 267.961 42.4623C267.961 42.4623 277.569 56.7317 276.852 64.6134C266.633 55.0451 269.674 50.0983 258.844 51.8181C248.014 53.5379 245.783 69.5336 245.783 69.5336C245.783 69.5336 242.423 59.1819 247.868 44.3879Z" fill="black"/>
</g>
<path d="M295.83 99.9049L287.769 104.4L288.155 116.027C288.155 116.027 257.723 84.4802 252.983 79.6463C248.169 74.6928 246.21 74.1882 244.756 65.0383C243.301 55.8884 247.85 44.3945 247.85 44.3945C247.85 44.3945 245.486 51.3001 248.886 56.6586C252.285 62.0171 295.83 99.9049 295.83 99.9049Z" fill="#40D259"/>
<path d="M295.831 99.9039L287.77 104.399L288.155 116.026C288.155 116.026 275.605 103.41 265.406 92.8987C268.182 87.2281 270.665 82.0622 272.086 78.875C283.925 89.5388 295.831 99.9039 295.831 99.9039Z" fill="#40D259"/>
<path d="M239.246 112.5L248.336 114.287L251.563 125.462C251.563 125.462 271.384 86.3389 273.741 79.9911C276.098 73.6432 278.249 72.7402 277.061 63.5305C275.7 53.1455 268.429 43.0859 268.429 43.0859C268.429 43.0859 272.127 50.6954 270.554 56.8374C268.98 62.9794 239.246 112.5 239.246 112.5Z" fill="#40D259"/>
<path d="M239.246 112.501L248.336 114.287L251.563 125.463C251.563 125.463 259.598 109.6 266.045 96.4325C261.656 91.8974 257.692 87.7541 255.361 85.1445C247.36 98.9624 239.246 112.501 239.246 112.501Z" fill="#40D259"/>
<path d="M277.012 63.5291C277.012 63.5291 277.012 63.6419 277.066 63.8677C277.119 64.0935 277.139 64.4387 277.198 64.8637C277.353 66.148 277.422 67.4413 277.404 68.7348C277.377 70.797 276.925 72.8314 276.076 74.7108C275.605 75.8197 275.04 76.9817 274.516 78.2367C273.991 79.4916 273.507 80.8927 272.876 82.2207C270.406 87.785 267.199 94.3121 263.613 101.623C260.027 108.933 255.984 117.014 251.654 125.54L251.462 125.925L251.336 125.507C250.585 122.904 249.788 120.142 248.978 117.346C248.686 116.337 248.401 115.354 248.109 114.332L248.241 114.451L239.184 112.665L238.945 112.619L239.071 112.406C248.367 96.8486 256.428 83.0573 262.039 73.0973C264.835 68.1173 267.026 64.0868 268.453 61.2781C268.819 60.5743 269.117 59.9501 269.37 59.399C269.605 58.9467 269.813 58.4811 269.994 58.0046C270.147 57.6327 270.26 57.3406 270.339 57.1347C270.419 56.9289 270.465 56.8359 270.465 56.8359C270.465 56.8359 270.465 56.9422 270.366 57.1414C270.266 57.3406 270.193 57.646 270.054 58.0245C269.885 58.5061 269.685 58.9763 269.456 59.4322C269.197 59.9833 268.918 60.6274 268.566 61.3312C267.192 64.1599 265.034 68.2103 262.278 73.1903C256.721 83.1835 248.699 96.9947 239.41 112.565L239.297 112.306L248.334 114.113H248.441V114.219C248.733 115.215 249.018 116.211 249.31 117.233C250.12 120.029 250.917 122.784 251.668 125.394H251.349C255.658 116.881 259.689 108.834 263.301 101.543C266.913 94.2523 270.133 87.7252 272.63 82.1875C273.261 80.8063 273.752 79.4518 274.29 78.2035C274.828 76.9551 275.392 75.7865 275.87 74.6909C276.73 72.8318 277.198 70.8157 277.245 68.768C277.276 67.4781 277.227 66.1874 277.099 64.9035C277.059 64.4719 277.026 64.1466 276.999 63.9075C276.973 63.6685 277.012 63.5291 277.012 63.5291Z" fill="#263238"/>
<g opacity="0.3">
<path opacity="0.3" d="M266.961 94.4991L271.45 99.1006L277.538 83.6891L273.608 80.2031L266.961 94.4991Z" fill="black"/>
</g>
<path d="M268.372 43.0857C268.372 43.0857 268.272 42.9264 268.067 42.6209C267.763 42.1793 267.426 41.7619 267.057 41.3726C265.694 39.9464 263.937 38.9572 262.011 38.5307C260.69 38.2263 259.328 38.1433 257.98 38.285C256.433 38.417 254.915 38.7842 253.479 39.374C251.897 40.0362 250.5 41.0731 249.408 42.3952C248.841 43.0894 248.393 43.8723 248.08 44.7125C247.787 45.5963 247.565 46.5023 247.416 47.4217C247.104 49.2395 247.154 51.101 247.562 52.8996C247.767 53.7493 248.061 54.575 248.439 55.3631C248.611 55.7548 248.851 56.1068 249.05 56.4786C249.272 56.8254 249.518 57.1561 249.787 57.468C251.945 59.9513 254.129 62.0097 255.909 63.7627L260.185 67.8795L261.347 69.0016C261.486 69.1257 261.615 69.2612 261.732 69.4067C261.732 69.4067 261.692 69.4067 261.619 69.327L261.3 69.0548L260.092 67.9791C259.056 67.0362 257.556 65.6684 255.736 63.942C253.917 62.2156 251.752 60.1771 249.541 57.6672C249.26 57.3456 249.002 57.0038 248.771 56.6446C248.565 56.2728 248.319 55.9076 248.107 55.5092C247.715 54.7009 247.413 53.8527 247.204 52.9793C246.775 51.1387 246.72 49.2305 247.044 47.3685C247.189 46.4289 247.411 45.5028 247.708 44.5997C248.041 43.7217 248.517 42.905 249.116 42.1827C250.245 40.8208 251.69 39.7561 253.326 39.0818C254.794 38.4826 256.346 38.1174 257.927 37.9995C259.306 37.8653 260.698 37.964 262.044 38.2917C264.002 38.7512 265.776 39.7929 267.13 41.2797C267.488 41.6942 267.811 42.1384 268.093 42.6077C268.186 42.767 268.259 42.8932 268.299 42.9795C268.339 43.0658 268.379 43.0857 268.372 43.0857Z" fill="#263238"/>
<path d="M220.521 136.676C220.521 136.676 209.585 154.398 208.437 156.642C207.288 158.887 208.058 169.71 208.058 169.71L202.082 177.791L213.436 194.749L224.26 176.775C224.26 176.775 229.864 173.05 231.564 170.195C233.263 167.34 242.852 149.006 242.852 149.006L242.965 139.79C242.965 139.79 243.921 136.238 241.032 135.806C238.144 135.375 237.387 138.137 237.387 138.137C237.387 138.137 241.158 133.19 238.615 131.045C236.072 128.901 234.505 130.839 233.642 132.008C232.779 133.177 229.206 136.603 229.206 136.603C229.206 136.603 233.097 130.833 232.467 129.591C231.836 128.349 230.793 127.831 229.034 128.469C227.274 129.106 225.893 129.75 224.598 132.021C223.303 134.292 221.743 136.749 221.743 136.749L220.521 136.676Z" fill="#B56760"/>
<path d="M222.276 167.785C222.304 167.678 222.342 167.573 222.389 167.473C222.489 167.234 222.615 166.948 222.768 166.596C223.17 165.507 223.405 164.363 223.465 163.203C223.465 162.838 223.465 162.453 223.465 162.048C223.465 161.643 223.372 161.238 223.325 160.806C223.158 159.895 222.893 159.005 222.535 158.15C222.145 157.206 221.639 156.314 221.028 155.494C220.394 154.608 219.607 153.841 218.704 153.23L218.531 153.124L218.664 152.971L219.029 152.546C220.376 150.812 221.448 148.882 222.21 146.823C222.586 145.942 222.895 145.034 223.133 144.107C223.309 143.298 223.378 142.47 223.339 141.643C223.286 140.44 222.932 139.268 222.309 138.237C221.851 137.513 221.479 137.201 221.513 137.168C221.605 137.235 221.692 137.311 221.772 137.394C222.021 137.625 222.243 137.883 222.436 138.164C223.125 139.195 223.527 140.392 223.598 141.63C223.659 142.479 223.601 143.333 223.425 144.167C223.2 145.112 222.897 146.038 222.522 146.935C221.767 149.037 220.682 151.005 219.308 152.765L218.936 153.197L218.896 152.938C219.839 153.57 220.658 154.368 221.313 155.295C221.937 156.138 222.45 157.058 222.841 158.031C223.196 158.903 223.457 159.812 223.617 160.74C223.664 161.185 223.73 161.61 223.744 162.015C223.757 162.42 223.744 162.818 223.744 163.197C223.665 164.378 223.391 165.538 222.934 166.63C222.754 166.968 222.615 167.254 222.495 167.48C222.376 167.705 222.289 167.792 222.276 167.785Z" fill="#8A4A43"/>
<path d="M203.501 171.715L183.336 201.044L170.155 165.434L150.062 223.919C150.062 223.919 169.577 243.553 182.765 246.973C195.952 250.392 199.424 243.586 202.167 235.897C203.813 231.249 227.671 189.51 227.671 189.51L203.501 171.715Z" fill="#E0E0E0"/>
<path d="M184.048 199.949C184.028 200.055 183.995 200.157 183.949 200.255C183.849 200.487 183.73 200.766 183.59 201.105C183.451 201.443 183.232 201.921 183.033 202.433C182.833 202.944 182.574 203.555 182.369 204.239C181.871 205.567 181.366 207.207 180.888 209.033C180.396 211.023 180.01 213.038 179.732 215.069C179.48 217.102 179.341 219.148 179.314 221.197C179.314 223.09 179.381 224.789 179.513 226.217C179.56 226.928 179.659 227.545 179.719 228.136C179.779 228.727 179.852 229.185 179.912 229.577C179.972 229.969 180.005 230.241 180.045 230.493C180.062 230.601 180.062 230.711 180.045 230.819C180.001 230.736 179.968 230.65 179.945 230.56C179.892 230.314 179.825 230.015 179.752 229.657C179.679 229.298 179.573 228.78 179.5 228.216C179.427 227.651 179.308 227.007 179.241 226.29C179.058 224.616 178.967 222.934 178.969 221.25C178.959 217.119 179.493 213.005 180.556 209.013C180.982 207.382 181.501 205.777 182.11 204.205C182.349 203.541 182.621 202.937 182.84 202.413C183.059 201.888 183.272 201.443 183.458 201.085L183.869 200.255C183.914 200.145 183.974 200.042 184.048 199.949Z" fill="#263238"/>
<path d="M223.174 153.609L215.014 154.559L213.719 156.199L214.383 161.312L216.096 162.626L223.951 161.192L223.174 153.609Z" fill="#263238"/>
<path d="M215.09 154.5C215.11 155.821 215.241 157.138 215.482 158.438C215.61 159.753 215.85 161.054 216.199 162.329C216.038 159.694 215.667 157.076 215.09 154.5Z" fill="#455A64"/>
<path d="M217.45 162.359C217.24 159.696 216.82 157.054 216.195 154.457C216.244 155.796 216.402 157.128 216.667 158.441C216.824 159.766 217.086 161.076 217.45 162.359Z" fill="#455A64"/>
<path d="M231.071 166.424C231.071 166.889 225.845 174.352 225.845 174.352H221.071L219.232 173.024L218.422 168.376L224.126 160.973L231.071 166.424Z" fill="#263238"/>
<path d="M218.391 168.383C218.738 168.702 219.116 168.987 219.519 169.233C220.223 169.737 221.179 170.454 222.175 171.291C224.227 172.964 225.774 174.452 225.841 174.385C225.572 173.997 225.258 173.642 224.904 173.33C224.104 172.524 223.262 171.762 222.381 171.045C221.502 170.326 220.579 169.661 219.619 169.053C219.241 168.776 218.828 168.55 218.391 168.383Z" fill="#455A64"/>
<path d="M218.949 167.664C220.305 168.483 221.62 169.369 222.887 170.32C224.09 171.353 225.225 172.462 226.286 173.64C226.082 173.215 225.818 172.822 225.503 172.471C224.782 171.591 223.972 170.788 223.086 170.074C222.203 169.358 221.251 168.73 220.244 168.202C219.842 167.959 219.405 167.778 218.949 167.664Z" fill="#455A64"/>
<path d="M240.303 165.734H231.531V177.693H240.303V165.734Z" fill="#263238"/>
<path d="M231.418 176.343C234.327 176.555 237.247 176.555 240.156 176.343C237.247 176.13 234.327 176.13 231.418 176.343Z" fill="#455A64"/>
<path d="M231.359 175.269C234.268 175.481 237.189 175.481 240.098 175.269C237.189 175.056 234.268 175.056 231.359 175.269Z" fill="#455A64"/>
<path d="M244.636 162.373C243.109 164.679 240.836 166.39 238.197 167.217C235.558 168.045 232.715 167.94 230.145 166.919C227.575 165.898 225.434 164.023 224.083 161.61C222.731 159.197 222.252 156.393 222.724 153.668L227.372 156.689L244.636 162.373Z" fill="#EBEBEB"/>
<path d="M266.869 210.878H255.077V199.351H230.256C229.48 199.351 228.735 199.043 228.186 198.494C227.637 197.944 227.328 197.2 227.328 196.423C227.327 196.038 227.402 195.656 227.549 195.3C227.696 194.944 227.912 194.621 228.184 194.348C228.456 194.076 228.779 193.859 229.134 193.712C229.49 193.564 229.871 193.488 230.256 193.488H244.732V189.504H218.623C217.869 189.504 217.147 189.205 216.614 188.672C216.081 188.139 215.781 187.416 215.781 186.662C215.781 185.909 216.081 185.186 216.614 184.653C217.147 184.12 217.869 183.82 218.623 183.82H261.783V188.302H266.604L266.869 210.878Z" fill="#263238"/>
<path d="M261.822 210.878C261.914 210.878 261.981 204.816 261.968 197.346C261.954 189.876 261.881 183.82 261.795 183.82C261.709 183.82 261.642 189.876 261.649 197.346C261.656 204.816 261.735 210.878 261.822 210.878Z" fill="#455A64"/>
<path d="M255.113 184.219C255.026 184.219 254.953 187.632 254.953 191.848C254.953 196.065 255.026 199.477 255.113 199.477C255.199 199.477 255.272 196.065 255.272 191.848C255.272 187.632 255.205 184.219 255.113 184.219Z" fill="#455A64"/>
<path d="M215.801 233.814C216.609 231.135 218.161 228.74 220.277 226.908C222.393 225.077 224.985 223.884 227.753 223.469H267.002L267.865 234.498L215.801 233.814Z" fill="#EBEBEB"/>
<path d="M287.619 207.784V163.243C287.619 162.544 287.382 161.865 286.947 161.318C286.511 160.77 285.904 160.386 285.222 160.229L248.337 149.731L247.978 135.123L225.927 134.758L219.121 128.496L208.324 140.787L222.614 156.364L266.438 169.943L267.161 233.813H215.887C215.288 233.813 214.714 234.051 214.291 234.474C213.867 234.898 213.63 235.472 213.63 236.071V244.417H287.619V207.784Z" fill="#455A64"/>
<path d="M242.189 179.938H222.122C221.088 179.938 220.25 180.776 220.25 181.81V181.949C220.25 182.984 221.088 183.822 222.122 183.822H242.189C243.223 183.822 244.061 182.984 244.061 181.949V181.81C244.061 180.776 243.223 179.938 242.189 179.938Z" fill="#E0E0E0"/>
<path d="M222.129 183.821C222.129 183.821 221.943 183.821 221.611 183.715C221.374 183.636 221.155 183.509 220.966 183.344C220.778 183.179 220.625 182.978 220.515 182.752C220.362 182.43 220.298 182.072 220.33 181.717C220.35 181.296 220.52 180.896 220.808 180.588C220.97 180.414 221.165 180.274 221.381 180.176C221.598 180.078 221.832 180.024 222.069 180.017H223.769L242.208 180.063C242.62 180.065 243.018 180.214 243.329 180.483C243.641 180.752 243.846 181.124 243.908 181.531C243.97 181.951 243.893 182.38 243.689 182.752C243.506 183.104 243.209 183.383 242.846 183.543C242.466 183.674 242.064 183.724 241.664 183.689H238.032L229.738 183.722L224.148 183.768L222.627 183.802C222.452 183.798 222.276 183.809 222.102 183.835C222.276 183.86 222.452 183.871 222.627 183.868H224.148L229.738 183.921L238.032 183.954H241.697C242.147 183.999 242.6 183.942 243.025 183.788C243.456 183.605 243.809 183.276 244.021 182.859C244.231 182.438 244.303 181.962 244.227 181.497C244.156 181.018 243.916 180.58 243.551 180.261C243.186 179.942 242.72 179.764 242.235 179.758L223.796 179.804H222.109C221.845 179.817 221.587 179.883 221.348 179.997C221.11 180.111 220.897 180.271 220.721 180.468C220.417 180.812 220.241 181.251 220.223 181.71C220.198 182.09 220.278 182.469 220.456 182.806C220.578 183.036 220.746 183.239 220.951 183.402C221.156 183.564 221.392 183.682 221.644 183.748C221.8 183.803 221.964 183.827 222.129 183.821Z" fill="#263238"/>
<path d="M285.458 215.487C289.924 211.022 289.924 203.783 285.458 199.317C280.993 194.852 273.754 194.852 269.288 199.317C264.823 203.783 264.823 211.022 269.288 215.487C273.754 219.953 280.993 219.953 285.458 215.487Z" fill="#263238"/>
<path d="M271.021 207.778C271.076 207.262 271.163 206.75 271.28 206.244C271.648 204.875 272.464 203.669 273.597 202.818C274.428 202.194 275.403 201.787 276.431 201.635C277.46 201.483 278.51 201.591 279.487 201.948C280.05 202.149 280.578 202.436 281.054 202.798C281.564 203.168 282.012 203.616 282.382 204.126C283.157 205.185 283.576 206.465 283.576 207.778C283.576 209.091 283.157 210.37 282.382 211.43C282.013 211.941 281.565 212.389 281.054 212.758C280.578 213.118 280.049 213.403 279.487 213.601C278.511 213.961 277.461 214.071 276.432 213.92C275.403 213.77 274.428 213.363 273.597 212.738C272.466 211.884 271.651 210.679 271.28 209.312C271.163 208.806 271.077 208.294 271.021 207.778C270.983 208.304 271.03 208.833 271.16 209.345C271.491 210.765 272.303 212.027 273.457 212.917C274.315 213.581 275.327 214.017 276.398 214.185C277.47 214.353 278.566 214.248 279.586 213.88C280.176 213.673 280.732 213.378 281.233 213.003C281.762 212.617 282.228 212.151 282.614 211.622C283.437 210.508 283.882 209.16 283.882 207.774C283.882 206.389 283.437 205.041 282.614 203.927C282.229 203.398 281.763 202.934 281.233 202.552C280.733 202.176 280.178 201.88 279.586 201.676C278.493 201.282 277.314 201.19 276.173 201.41C274.965 201.644 273.849 202.221 272.96 203.073C272.071 203.924 271.446 205.014 271.16 206.211C271.03 206.722 270.983 207.251 271.021 207.778Z" fill="#455A64"/>
<path d="M222.58 130.149L209.472 144.405L204.891 139.717L217.905 125.84L222.58 130.149Z" fill="#263238"/>
<path d="M202.616 117.489L208.592 123.199C208.787 123.386 208.901 123.642 208.909 123.912C208.916 124.182 208.817 124.444 208.632 124.64L203.539 130.039C203.444 130.136 203.33 130.213 203.205 130.266C203.079 130.318 202.944 130.346 202.808 130.346C202.672 130.346 202.538 130.318 202.412 130.266C202.287 130.213 202.173 130.136 202.078 130.039L196.022 124.063C195.926 123.968 195.85 123.854 195.798 123.729C195.746 123.605 195.719 123.471 195.719 123.336C195.719 123.2 195.746 123.066 195.798 122.942C195.85 122.817 195.926 122.704 196.022 122.608L201.188 117.482C201.38 117.297 201.637 117.194 201.903 117.195C202.17 117.197 202.426 117.302 202.616 117.489Z" fill="#263238"/>
<path d="M208.112 124.406C208.259 124.625 214.812 130.986 214.812 130.986L209.613 136.298L203.02 129.745L208.112 124.406Z" fill="#263238"/>
<path d="M207.016 247.789H295.508V244.409H207.016V247.789Z" fill="#263238"/>
<path d="M227.754 223.469H247.973V214.126H227.754V223.469Z" fill="#455A64"/>
<path d="M245.78 223.469C245.993 220.398 245.993 217.317 245.78 214.246C245.568 217.317 245.568 220.398 245.78 223.469Z" fill="#263238"/>
<path d="M242.402 223.469C242.614 220.398 242.614 217.317 242.402 214.246C242.189 217.317 242.189 220.398 242.402 223.469Z" fill="#263238"/>
<path d="M239.042 223.469C239.263 220.399 239.263 217.316 239.042 214.246C238.83 217.317 238.83 220.398 239.042 223.469Z" fill="#263238"/>
<path d="M235.636 223.469C235.848 220.398 235.848 217.317 235.636 214.246C235.423 217.317 235.423 220.398 235.636 223.469Z" fill="#263238"/>
<path d="M232.253 223.469C232.466 220.398 232.466 217.317 232.253 214.246C232.041 217.317 232.041 220.398 232.253 223.469Z" fill="#263238"/>
<path d="M228.87 223.469C229.083 220.398 229.083 217.317 228.87 214.246C228.658 217.317 228.658 220.398 228.87 223.469Z" fill="#263238"/>
<path d="M298.708 247.797H197.621V263.693H298.708V247.797Z" fill="#263238"/>
<path d="M198.375 255.72C198.375 255.627 220.672 255.547 248.175 255.547C275.678 255.547 297.975 255.627 297.975 255.72C297.975 255.812 275.678 255.892 248.175 255.892C220.672 255.892 198.375 255.793 198.375 255.72Z" fill="#455A64"/>
<path d="M124.474 122.154L116.958 127.572C116.958 127.572 88.718 132.884 80.1524 137.805C56.7796 151.184 58.7318 231.701 58.7318 231.701L39.25 263.686H136.446L145.676 239.377L162.681 206.329L157.801 203.229L170.184 165.434L161.672 156.636L158.471 143.535L129.919 120.395L124.474 122.154Z" fill="#E0E0E0"/>
<path d="M158.921 146.091L129.128 122.997L129.413 121.43L127.727 124.975L144.028 210.299L158.921 146.091Z" fill="white"/>
<path d="M126.453 261.228C126.453 261.228 126.486 261.102 126.573 260.857L126.964 259.788C127.323 258.831 127.834 257.444 128.498 255.664L130.942 249.157C131.42 247.889 131.931 246.501 132.476 245.093C132.741 244.376 133.02 243.632 133.306 242.875C133.591 242.119 133.857 241.322 134.149 240.518C135.291 237.305 136.546 233.785 137.894 230.007C138.567 228.113 139.262 226.16 139.979 224.151C140.689 222.159 141.479 220.08 142.117 217.922C142.468 216.846 142.69 215.731 142.781 214.602C142.839 213.463 142.63 212.326 142.17 211.282C141.732 210.2 141.174 209.138 140.663 208.042L139.116 204.722C137.05 200.267 135.178 195.526 133.379 190.639C130.404 182.538 127.794 174.669 124.959 167.525L124.919 167.419L124.992 167.345C127.31 165.088 129.421 162.777 131.42 160.533L131.486 160.779C128.723 159.884 125.805 159.565 122.914 159.842H122.788V159.716C120.656 150.068 119.063 142.047 118.14 136.423C117.662 133.608 117.35 131.397 117.184 129.883C117.018 128.369 116.984 127.559 116.984 127.559C116.984 127.559 117.018 127.758 117.064 128.15C117.111 128.541 117.164 129.119 117.263 129.869C117.462 131.377 117.801 133.588 118.299 136.39C119.295 142.007 120.955 150.015 123.087 159.63L122.94 159.524C125.871 159.23 128.83 159.547 131.632 160.453L131.858 160.526L131.699 160.699C129.707 162.95 127.595 165.267 125.271 167.538L125.311 167.365C128.16 174.517 130.776 182.392 133.75 190.486C135.55 195.366 137.416 200.094 139.474 204.549C139.992 205.658 140.51 206.761 141.015 207.869C141.519 208.978 142.077 210.014 142.528 211.123C143.004 212.221 143.217 213.414 143.153 214.609C143.05 215.761 142.814 216.898 142.449 217.995C141.785 220.16 141.001 222.218 140.291 224.23L138.186 230.08C136.858 233.858 135.53 237.384 134.401 240.585C134.109 241.388 133.823 242.172 133.551 242.935C133.279 243.699 132.98 244.429 132.701 245.146L131.148 249.203C130.171 251.727 129.335 253.905 128.651 255.691C127.967 257.477 127.422 258.838 127.057 259.788L126.632 260.85C126.513 261.102 126.453 261.228 126.453 261.228Z" fill="#263238"/>
<path d="M166.823 173.23C166.823 173.23 166.823 173.284 166.823 173.39L166.703 173.835C166.584 174.253 166.424 174.824 166.212 175.554C165.774 177.068 165.136 179.226 164.353 181.909C162.732 187.314 160.495 194.81 157.965 203.276L157.892 203.084L161.876 205.614L162.659 206.112L162.792 206.198L162.719 206.337C158.277 215.003 154.28 222.818 151.378 228.482L147.925 235.122L146.969 236.921L146.717 237.386C146.657 237.492 146.624 237.545 146.617 237.539C146.633 237.481 146.655 237.426 146.684 237.373L146.909 236.895L147.806 235.062C148.609 233.455 149.758 231.171 151.166 228.349L162.414 206.152L162.473 206.377C162.228 206.218 161.962 206.045 161.69 205.879L157.706 203.343L157.593 203.276L157.633 203.15C160.209 194.698 162.487 187.214 164.127 181.816C164.957 179.16 165.621 177.002 166.119 175.495L166.663 173.788L166.809 173.35C166.812 173.31 166.817 173.27 166.823 173.23Z" fill="#263238"/>
<path d="M161.646 156.637C161.646 156.637 161.646 156.683 161.679 156.783C161.712 156.882 161.732 157.042 161.759 157.221C161.825 157.633 161.918 158.197 162.031 158.914L162.974 165.222V165.342H162.848L158.538 165.747L158.638 165.528L162.084 170.136L162.137 170.209L162.104 170.289C160.603 174.02 158.91 178.217 157.137 182.632C153.817 190.819 150.796 198.236 148.598 203.628C147.502 206.284 146.606 208.455 145.975 209.982C145.67 210.706 145.424 211.31 145.252 211.702L145.052 212.14C145.032 212.194 145.005 212.246 144.973 212.293C144.981 212.238 144.996 212.185 145.019 212.134L145.185 211.676C145.351 211.251 145.57 210.666 145.849 209.929L148.372 203.542C150.544 198.137 153.518 190.707 156.812 182.506C158.598 178.091 160.298 173.874 161.812 170.169V170.322L158.405 165.714L158.266 165.514H158.505L162.821 165.156L162.715 165.282L161.878 158.967C161.792 158.244 161.719 157.679 161.666 157.261C161.666 157.082 161.666 156.936 161.626 156.816C161.586 156.696 161.639 156.637 161.646 156.637Z" fill="#263238"/>
<path d="M149.541 164.723C149.39 164.61 149.252 164.48 149.129 164.338C148.877 164.072 148.512 163.674 148.073 163.169C146.848 161.746 145.719 160.242 144.694 158.667L144.959 158.634C144.14 161.056 143.043 163.376 141.692 165.547C141.154 166.403 140.59 167.22 140.012 167.983L139.86 168.189L139.733 167.963L135.384 160.241L134.129 157.944C133.962 157.675 133.822 157.39 133.711 157.094C133.902 157.347 134.075 157.613 134.229 157.891C134.574 158.455 135.019 159.219 135.557 160.128L140.012 167.797H139.733C140.298 167.041 140.856 166.23 141.387 165.374C142.728 163.226 143.828 160.937 144.667 158.548L144.767 158.262L144.933 158.521C145.932 160.098 147.021 161.617 148.193 163.07L149.182 164.292C149.314 164.425 149.434 164.569 149.541 164.723Z" fill="#263238"/>
<path d="M142.947 208.647C142.929 208.497 142.929 208.345 142.947 208.195C142.987 207.863 143.026 207.432 143.086 206.867C143.212 205.739 143.412 204.112 143.671 202.1C144.182 198.076 144.952 192.525 145.902 186.41C146.851 180.294 147.814 174.783 148.538 170.799C148.903 168.807 149.202 167.187 149.427 166.078L149.686 164.796C149.715 164.646 149.753 164.497 149.799 164.352C149.803 164.506 149.788 164.66 149.753 164.81C149.706 165.135 149.64 165.567 149.554 166.098C149.368 167.26 149.102 168.867 148.777 170.839C148.113 174.823 147.203 180.367 146.26 186.483C145.317 192.598 144.507 198.136 143.93 202.153C143.637 204.145 143.405 205.745 143.265 206.901C143.179 207.439 143.113 207.863 143.066 208.195C143.036 208.348 142.996 208.499 142.947 208.647Z" fill="#263238"/>
<g opacity="0.3">
<path opacity="0.3" d="M117.051 132.223L117.257 133.664L121.446 162.833L128.272 162.103L123.14 166.02L141.021 215.037L139.965 224.651C139.965 224.651 143.75 214.539 143.053 213.058C141.353 209.426 125.125 167.468 125.125 167.468L131.553 160.642L122.921 159.706L117.051 132.223Z" fill="black"/>
</g>
<g opacity="0.3">
<path opacity="0.3" d="M160.645 198.913L165.691 178.09L157.664 203.189L162.657 206.33L152.352 226.031L154.403 228.076L164.35 206.137L160.645 198.913Z" fill="black"/>
</g>
<path d="M158.82 203.681L163.555 194.385C163.652 194.194 163.789 194.027 163.956 193.893C164.124 193.76 164.318 193.664 164.525 193.612C164.733 193.56 164.949 193.552 165.159 193.591C165.37 193.629 165.57 193.712 165.746 193.834C166.04 194.04 166.249 194.346 166.336 194.695C166.422 195.044 166.38 195.412 166.217 195.733L161.35 205.327L158.82 203.681Z" fill="#40D259"/>
<path d="M121.512 199.631C121.512 199.631 122.076 198.376 124.042 198.237C124.578 198.176 125.12 198.268 125.605 198.504C126.091 198.739 126.5 199.107 126.784 199.565C126.784 199.565 128.962 203.489 128.597 205.541C126.153 202.819 127.056 201.604 124.201 201.803C121.346 202.002 120.403 206.119 120.403 206.119C120.403 206.119 119.739 203.337 121.512 199.631Z" fill="#40D259"/>
<g opacity="0.3">
<path opacity="0.3" d="M121.512 199.631C121.512 199.631 122.076 198.376 124.042 198.237C124.578 198.176 125.12 198.268 125.605 198.504C126.091 198.739 126.5 199.107 126.784 199.565C126.784 199.565 128.962 203.489 128.597 205.541C126.153 202.819 127.056 201.604 124.201 201.803C121.346 202.002 120.403 206.119 120.403 206.119C120.403 206.119 119.739 203.337 121.512 199.631Z" fill="black"/>
</g>
<path d="M132.714 215.156L130.516 216.145L130.35 219.18C130.35 219.18 123.146 210.289 122.03 208.921C120.915 207.553 120.39 207.347 120.217 204.937C120.045 202.527 121.486 199.625 121.486 199.625C121.272 200.134 121.161 200.68 121.161 201.232C121.161 201.784 121.272 202.33 121.486 202.839C122.243 204.313 132.714 215.156 132.714 215.156Z" fill="#40D259"/>
<path d="M132.716 215.155L130.519 216.144L130.353 219.179C130.353 219.179 127.378 215.613 124.961 212.645C125.811 211.237 126.574 209.949 127.013 209.152C129.855 212.187 132.716 215.155 132.716 215.155Z" fill="#40D259"/>
<path d="M117.711 217.153L120.028 217.817L120.619 220.799C120.619 220.799 126.655 211.065 127.412 209.471C128.169 207.877 128.74 207.685 128.64 205.261C128.443 203.318 127.834 201.439 126.854 199.75C126.854 199.75 127.644 201.808 127.093 203.375C126.542 204.942 117.711 217.153 117.711 217.153Z" fill="#40D259"/>
<path d="M117.711 217.155L120.028 217.819L120.619 220.801C120.619 220.801 123.063 216.856 125.035 213.576C123.999 212.295 123.043 211.126 122.512 210.402C120.128 213.815 117.711 217.155 117.711 217.155Z" fill="#40D259"/>
<path d="M128.639 205.27C128.669 205.385 128.683 205.503 128.679 205.622C128.706 205.96 128.706 206.299 128.679 206.638C128.633 207.183 128.473 207.713 128.208 208.191C128.061 208.47 127.902 208.769 127.729 209.081C127.557 209.393 127.417 209.745 127.225 210.09C125.684 212.879 123.38 216.651 120.771 220.894L120.538 221.272L120.452 220.841C120.313 220.143 120.173 219.406 120.02 218.663C119.967 218.397 119.914 218.125 119.868 217.859L119.987 217.992L117.67 217.328L117.438 217.262L117.577 217.062C120.352 213.231 122.769 209.831 124.476 207.381C125.326 206.153 125.996 205.164 126.468 204.473C126.68 204.128 126.86 203.862 126.959 203.67C127.004 203.571 127.06 203.477 127.125 203.391C127.103 203.498 127.065 203.601 127.012 203.696C126.881 203.985 126.735 204.266 126.574 204.539C126.156 205.25 125.512 206.266 124.688 207.507C123.035 209.997 120.645 213.417 117.882 217.262L117.789 217.003L120.107 217.667H120.206V217.773C120.253 218.038 120.306 218.304 120.359 218.576C120.512 219.32 120.651 220.057 120.791 220.754L120.479 220.694C123.095 216.458 125.432 212.726 127.019 209.958C127.218 209.619 127.378 209.294 127.55 208.962L128.048 208.085C128.315 207.631 128.487 207.127 128.553 206.604C128.652 205.761 128.606 205.27 128.639 205.27Z" fill="#263238"/>
<g opacity="0.3">
<path opacity="0.3" d="M125.324 213.097L126.387 214.398L128.319 210.521L127.376 209.531L125.324 213.097Z" fill="black"/>
</g>
<path d="M126.826 199.758C126.826 199.758 126.713 199.586 126.481 199.313C126.153 198.934 125.725 198.656 125.246 198.51C124.53 198.316 123.772 198.336 123.068 198.57C122.663 198.702 122.297 198.93 121.999 199.234C121.845 199.392 121.718 199.574 121.62 199.772C121.525 199.985 121.449 200.208 121.394 200.436C121.269 200.865 121.237 201.316 121.298 201.759C121.36 202.202 121.515 202.626 121.753 203.005C122.244 203.669 122.762 204.287 123.174 204.785C123.659 205.302 124.103 205.857 124.502 206.445C123.955 205.996 123.453 205.495 123.001 204.951C122.47 204.389 121.969 203.799 121.501 203.184C121.227 202.772 121.045 202.305 120.97 201.815C120.894 201.325 120.926 200.825 121.062 200.349C121.129 200.102 121.213 199.86 121.315 199.625C121.426 199.392 121.577 199.178 121.76 198.995C122.099 198.654 122.516 198.401 122.975 198.258C123.739 198.013 124.561 198.013 125.325 198.258C125.838 198.429 126.282 198.759 126.594 199.2C126.826 199.539 126.872 199.752 126.826 199.758Z" fill="#263238"/>
<path d="M39.25 263.687C39.25 263.687 39.3562 263.488 39.582 263.103L40.5913 261.416C41.4877 259.929 42.7891 257.758 44.469 254.976C47.8422 249.405 52.6894 241.403 58.6122 231.636V231.709C58.4794 223.834 58.6521 214.89 59.2231 205.222C59.7829 194.913 60.9603 184.647 62.749 174.479C63.5126 170.309 64.4222 166.232 65.5245 162.294C66.5661 158.437 67.8979 154.663 69.5085 151.006C71.0163 147.498 73.0641 144.247 75.5774 141.372C76.8013 140.015 78.212 138.839 79.7673 137.879C80.1491 137.647 80.5437 137.436 80.9492 137.248C81.3476 137.056 81.7327 136.83 82.1378 136.671C82.9478 136.339 83.738 136.007 84.5481 135.688C87.7618 134.48 90.9291 133.563 93.957 132.733C96.9848 131.903 99.8798 131.186 102.589 130.542C108.06 129.267 112.888 128.271 116.905 127.508H116.872L124.408 122.116L128.485 120.788L129.494 120.476L129.84 120.383L129.508 120.502L128.498 120.848L124.441 122.176L117.011 127.64H116.978C112.994 128.43 108.14 129.446 102.682 130.741C99.9529 131.405 97.0578 132.109 94.0499 132.952C91.042 133.796 87.8747 134.712 84.6742 135.92C83.8708 136.213 83.0873 136.584 82.2838 136.903C81.8788 137.062 81.5003 137.288 81.1086 137.474C80.7109 137.662 80.3231 137.871 79.9466 138.098C78.4173 139.045 77.0311 140.206 75.8298 141.544C73.356 144.402 71.34 147.625 69.8538 151.099C68.2427 154.756 66.9108 158.53 65.8698 162.387C64.7742 166.318 63.8778 170.355 63.1009 174.539C61.3177 184.694 60.1359 194.947 59.5618 205.242C58.9774 214.897 58.7849 223.834 58.8978 231.702V231.742V231.775C52.9218 241.516 48.0546 249.504 44.655 255.062L40.7108 261.456L39.675 263.13C39.3828 263.501 39.25 263.687 39.25 263.687Z" fill="#263238"/>
<g opacity="0.3">
<path opacity="0.3" d="M66.1172 184.035C66.1172 184.035 69.5102 245.256 76.2365 251.83C80.8845 256.398 88.9986 256.524 100.366 259.2C112.644 262.088 139.702 262.606 139.702 262.606C139.702 262.606 81.6813 238.291 81.9337 236.77C82.186 235.249 66.1172 184.035 66.1172 184.035Z" fill="black"/>
</g>
<path d="M109.144 161.423C108.739 163.243 112.65 222.073 112.65 222.073C112.65 222.073 123.128 224.663 130.425 226.157C140.02 228.115 170.146 232.69 170.146 232.69L167.33 265.532C167.33 265.532 145.033 263.586 122.776 260.558C101.282 257.63 82.3583 255.91 78.0158 252.033C68.8393 243.832 67.6109 190.347 65.8646 181.157C64.1382 172.087 65.0944 137.506 88.2148 137.997C111.335 138.489 109.144 161.423 109.144 161.423Z" fill="#E0E0E0"/>
<path d="M78.8946 139.094C78.8946 139.094 78.629 139.273 78.1044 139.592L77.6662 139.871L77.1549 140.242L76.564 140.681L75.9 141.232C73.2906 143.591 71.207 146.474 69.7845 149.691C67.5204 154.771 66.0921 160.184 65.5548 165.72C65.1482 169.168 65.0504 172.646 65.2627 176.112C65.3556 177.944 65.8204 179.797 65.9931 181.742C66.1657 183.688 66.3782 185.667 66.5508 187.718C67.2148 195.872 67.8788 204.81 68.8948 214.378C69.4127 219.159 70.0036 224.099 70.8004 229.159C71.5455 234.372 72.6819 239.521 74.2001 244.563C74.614 245.852 75.1063 247.113 75.6742 248.342C76.2203 249.59 76.9697 250.739 77.892 251.741C78.3633 252.226 78.9374 252.598 79.5719 252.83L80.5413 253.195L81.5373 253.508C82.8653 253.913 84.2332 254.251 85.6143 254.563C91.1321 255.798 96.8425 256.735 102.659 257.631C114.292 259.397 126.391 260.905 138.794 262.345C148.495 263.454 158.05 264.503 167.306 265.38L167.127 265.533C168.116 254.172 169.066 243.189 169.982 232.698L170.115 232.864C159.298 231.151 149.006 229.477 139.358 227.811C134.538 226.974 129.87 226.171 125.414 225.208L112.613 222.193H112.52V222.1C111.304 203.409 110.375 188.236 109.791 177.758C109.505 172.513 109.293 168.462 109.193 165.667C109.127 164.286 109.12 163.23 109.107 162.52C109.093 161.809 109.146 161.444 109.146 161.444C109.146 161.444 109.146 161.537 109.146 161.716V162.52C109.146 163.23 109.2 164.286 109.273 165.667C109.399 168.429 109.631 172.506 109.937 177.752C110.561 188.236 111.53 203.395 112.779 222.087L112.679 221.968L125.494 224.916C129.943 225.872 134.617 226.669 139.438 227.505C149.086 229.152 159.358 230.825 170.195 232.532H170.347V232.685C169.438 243.176 168.495 254.158 167.512 265.526V265.692H167.346C158.05 264.815 148.522 263.766 138.794 262.657C126.391 261.217 114.292 259.709 102.646 257.936C96.8292 257.033 91.1188 256.097 85.5811 254.855C84.2 254.537 82.8255 254.191 81.4842 253.793L80.4749 253.474L79.4856 253.096C78.8123 252.851 78.2037 252.456 77.706 251.941C76.76 250.912 75.9904 249.734 75.4285 248.455C74.8543 247.212 74.3576 245.934 73.9412 244.63C72.4223 239.572 71.2859 234.407 70.5415 229.179C69.7513 224.112 69.167 219.166 68.6557 214.385C67.6531 204.81 67.0156 195.866 66.3516 187.712C66.1856 185.673 66.013 183.681 65.8072 181.736C65.6013 179.79 65.1432 177.951 65.09 176.092C64.889 172.619 64.9979 169.134 65.4154 165.68C65.9752 160.129 67.4281 154.706 69.7181 149.618C71.1567 146.389 73.2689 143.505 75.9132 141.159L76.5772 140.614C76.7897 140.455 76.9956 140.316 77.1815 140.183L77.6928 139.811L78.1376 139.545C78.6157 139.246 78.8946 139.094 78.8946 139.094Z" fill="#263238"/>
<path d="M79.6406 138.504C79.7586 138.453 79.8808 138.413 80.0058 138.384C80.2515 138.318 80.6101 138.198 81.0815 138.105C82.4127 137.811 83.769 137.644 85.1319 137.607C89.6665 137.452 94.1468 138.632 98.0172 141C101.888 143.367 104.978 146.819 106.904 150.927C107.491 152.157 107.96 153.44 108.306 154.758C108.438 155.223 108.491 155.595 108.545 155.841C108.574 155.967 108.594 156.096 108.604 156.226C108.571 156.226 108.452 155.715 108.173 154.792C107.207 151.574 105.581 148.594 103.399 146.04C100.221 142.267 95.9062 139.626 91.1013 138.51C87.8352 137.736 84.4447 137.643 81.1413 138.238C80.1652 138.411 79.6805 138.537 79.6406 138.504Z" fill="#263238"/>
<path d="M112.164 222.293C111.503 222.796 110.814 223.259 110.098 223.681C108.817 224.511 107.051 225.673 105.152 227.041C103.253 228.408 101.573 229.697 100.371 230.639C99.738 231.182 99.0728 231.685 98.3789 232.147C98.5137 231.967 98.6698 231.804 98.8437 231.662C99.1558 231.37 99.6206 230.952 100.205 230.454C101.374 229.458 103.034 228.13 104.939 226.762C106.845 225.394 108.638 224.258 109.959 223.475C110.623 223.083 111.161 222.778 111.539 222.579C111.732 222.454 111.943 222.357 112.164 222.293Z" fill="#263238"/>
<path d="M170.065 235.467C170.065 235.467 179.985 236.457 183.392 235.321C186.798 234.186 187.621 232.884 191.519 232.718C195.417 232.552 212.8 232.718 212.8 232.718C212.8 232.718 227.581 232.147 228.736 234.385C228.934 234.74 229.038 235.14 229.038 235.547C229.038 235.954 228.934 236.354 228.736 236.709C228.032 237.798 224.858 238.548 223.935 238.548C223.012 238.548 203.81 239.365 203.81 239.365C203.81 239.365 203.053 239.604 203.81 239.943C204.566 240.281 226.691 238.967 227.714 240.049C227.953 240.365 228.113 240.735 228.179 241.126C228.245 241.518 228.215 241.919 228.093 242.297C227.97 242.674 227.758 243.017 227.475 243.295C227.191 243.573 226.845 243.778 226.465 243.893C224.706 244.391 206.087 246.981 205.337 246.815C204.586 246.649 218.783 247.081 220.117 246.815C221.452 246.549 227.05 245.069 227.634 246.901C228.218 248.734 226.97 250.062 223.65 251.735C220.33 253.409 215.735 253.136 215.735 253.136C215.927 253.827 215.874 254.563 215.585 255.22C215.296 255.876 214.788 256.411 214.148 256.735C211.811 258.143 199.115 260.234 195.861 259.312C192.608 258.389 168.066 257.213 168.066 257.213L170.065 235.467Z" fill="#B56760"/>
<path d="M202.102 254.392C204.352 254.05 206.62 253.828 208.894 253.728C212.653 253.462 215.707 253.323 215.714 253.416C213.463 253.757 211.195 253.979 208.921 254.08C205.176 254.345 202.108 254.465 202.102 254.392Z" fill="#8A4A43"/>
<path d="M201.299 232.617C200.622 232.851 199.93 233.037 199.227 233.175C197.945 233.494 196.179 233.958 194.26 234.563C192.341 235.167 190.622 235.791 189.387 236.263C188.74 236.55 188.075 236.792 187.395 236.986C188.004 236.609 188.649 236.291 189.32 236.037C190.907 235.349 192.53 234.746 194.181 234.231C195.83 233.713 197.506 233.281 199.2 232.936C199.888 232.762 200.591 232.656 201.299 232.617Z" fill="#8A4A43"/>
<path d="M181.636 22.4622C181.231 21.095 180.515 19.8402 179.544 18.7964C178.573 17.7526 177.373 16.9482 176.038 16.4463C174.949 16.0479 173.681 15.7823 173.07 14.7863C172.639 14.0825 172.672 13.1994 172.492 12.3893C172.333 11.7795 172.052 11.2083 171.666 10.7106C171.279 10.2129 170.795 9.79899 170.244 9.49404C169.692 9.1891 169.085 8.99949 168.457 8.93675C167.83 8.874 167.197 8.93943 166.596 9.12906C166.039 9.41302 165.437 9.59943 164.817 9.68018C162.287 9.68018 162.028 4.82634 159.505 4.85954C160.232 5.6642 160.695 6.67216 160.833 7.74795C160.885 8.28418 160.756 8.82247 160.466 9.27643C160.175 9.73039 159.741 10.0737 159.232 10.2512C156.53 10.9152 155.361 5.68291 152.592 5.96179C151.098 6.11451 149.936 7.95379 148.502 7.57531C147.962 7.35955 147.463 7.05176 147.028 6.66562C146.195 6.15361 145.198 5.9778 144.24 6.17387C143.282 6.36994 142.434 6.92321 141.869 7.72139C140.952 9.12243 140.767 11.307 139.146 11.7054C138.144 11.9577 137.154 11.3203 136.324 10.716C135.639 12.0856 135.276 13.5936 135.262 15.125C133.706 15.2523 132.26 15.9781 131.229 17.1496C130.197 18.3211 129.66 19.8471 129.731 21.4064C128.067 21.6157 126.459 22.1456 124.997 22.9668C123.595 23.8831 122.533 25.5099 122.785 27.1633C122.879 27.5322 122.923 27.9117 122.918 28.2921C122.834 28.6981 122.638 29.0727 122.354 29.3744C121.358 30.6095 120.063 31.632 119.372 33.0663C118.682 34.5005 118.928 36.5855 120.395 37.1897C120.74 37.3291 121.152 37.4088 121.338 37.7275C121.392 37.8568 121.42 37.9957 121.42 38.1359C121.42 38.2761 121.392 38.4149 121.338 38.5443C120.906 39.6025 120.31 40.5862 119.572 41.4592C118.83 42.3403 118.45 43.4698 118.509 44.6199C118.675 45.7487 119.91 46.7513 120.953 46.2865L117.314 50.3701C116.59 51.1735 115.813 52.2027 116.139 53.2386C116.564 54.5666 118.536 54.7193 119.764 54.0022C120.993 53.2851 121.856 52.0567 123.084 51.3462C123.617 51.1179 124.124 50.8354 124.598 50.5029C124.95 50.2041 125.262 49.7791 125.68 49.6862C126.583 49.487 127.101 50.8747 126.59 51.6782C126.079 52.4816 125.116 52.7339 124.273 53.0991C123.429 53.4643 122.54 54.1615 122.599 55.0911C122.599 55.536 122.872 55.9477 122.885 56.4191C122.931 57.9596 120.581 58.2119 119.671 59.4603C119.007 60.3766 119.266 61.6581 119.611 62.7404C120.036 64.0684 121.358 65.6421 122.48 64.8187C122.872 64.5399 123.044 64.0352 123.396 63.7099C123.856 63.3789 124.389 63.1647 124.95 63.0857C126.315 62.7281 127.544 61.975 128.483 60.9211C126.776 61.6647 124.804 62.7935 124.777 64.6527C124.851 65.4272 125.041 66.1861 125.342 66.9037C125.773 68.3711 125.7 69.9448 126.112 71.4123C126.524 72.8797 127.699 74.3405 129.226 74.294C128.677 74.8423 128.329 75.5606 128.24 76.3319C128.152 77.1031 128.327 77.8816 128.738 78.5404C129.148 79.1991 129.77 79.6993 130.502 79.9591C131.233 80.219 132.031 80.2233 132.765 79.9712C133.141 79.7819 133.553 79.6755 133.974 79.6591C134.42 79.7671 134.827 79.997 135.149 80.3231C136.242 81.1432 137.539 81.6465 138.899 81.7777C140.259 81.9089 141.629 81.6629 142.858 81.0668L141.869 80.011C144.405 80.934 147.061 81.8702 149.744 81.5449C152.426 81.2195 155.102 79.181 155.195 76.4786C155.235 75.3099 154.877 73.9022 155.766 73.1586C156.377 72.634 157.287 72.7137 158.084 72.8266L168.117 74.2409C169.737 74.4667 171.437 74.6791 172.957 74.0218C174.478 73.3644 175.54 71.472 174.75 70.0378C176.091 69.062 177.683 68.4885 179.338 68.3844C181.184 68.2649 183.023 68.7363 184.876 68.7031C186.729 68.6699 188.78 67.9462 189.524 66.253C190.268 64.5598 188.667 62.1096 186.915 62.7205C188.422 60.3699 192.891 62.4947 194.557 60.2371C195.885 58.4045 193.893 56.0473 193.362 53.8362C194.026 53.2851 194.929 53.2054 195.573 52.6675C196.901 51.552 196.171 49.3475 195.115 47.9465C194.059 46.5455 192.691 44.9784 193.123 43.2985C193.555 41.6186 195.825 40.4964 195.706 38.7103C195.653 38.2196 195.42 37.7659 195.052 37.4371C194.684 37.1084 194.207 36.9279 193.714 36.9307C194.059 33.4979 187.579 32.8604 187.386 29.4143C187.344 29.1588 187.395 28.8965 187.53 28.6758C187.666 28.455 187.876 28.2905 188.123 28.2124C189.146 27.7476 190.321 27.8273 191.443 27.6281C192.565 27.4289 193.734 26.745 193.86 25.6361C193.986 24.5272 192.207 23.6441 191.709 24.6467C191.553 24.3054 191.321 24.0042 191.031 23.7661C190.741 23.528 190.401 23.3593 190.035 23.2728C189.67 23.1863 189.29 23.1844 188.924 23.2672C188.558 23.3499 188.216 23.5152 187.924 23.7503C187.671 22.5618 186.317 21.8779 185.102 21.9443C183.891 22.1165 182.738 22.5714 181.735 23.2723" fill="#263238"/>
<path d="M151.834 46.9446C154.922 43.3789 159.689 41.7389 164.35 41.0417C166.342 40.7495 168.334 40.5968 170.214 41.2674C172.093 41.9381 173.7 43.6113 173.739 45.5901L171.92 48.3457C169.769 53.1398 164.105 55.0587 160.068 58.4186C158.308 59.8794 156.482 61.7917 154.205 61.5726C153.009 61.3964 151.919 60.7867 151.144 59.8594C147.976 56.3602 148.74 50.5037 151.834 46.9446Z" fill="#40D259"/>
<path d="M139.769 67.9535C139.492 65.4945 140.088 63.0163 141.454 60.9527C142.819 58.889 144.867 57.3714 147.239 56.6655C146.761 53.6111 149.231 50.6895 152.086 49.5939C154.941 48.4983 158.175 48.7174 161.263 48.9764C166.097 43.5781 175.466 43.173 180.751 48.1331C186.601 45.2513 193.819 48.3788 198.367 53.0533C199.476 54.1954 200.518 55.457 201.906 56.2339C202.961 56.7355 204.048 57.168 205.16 57.5287C211.136 59.9324 214.409 66.9575 213.639 73.3385C213.445 74.3488 213.383 75.3799 213.453 76.4062C213.646 77.7342 214.429 78.9029 214.954 80.1445C215.51 81.4965 215.769 82.9522 215.712 84.413C215.656 85.8737 215.287 87.3053 214.628 88.6105C213.493 90.815 211.514 92.7141 211.308 95.1775C211.209 96.4192 211.581 97.6742 211.355 98.8959C210.691 102.435 205.704 103.59 204.569 107.01C204.343 107.674 204.29 108.444 204.117 109.161C203.748 110.633 202.859 111.921 201.614 112.787C200.664 113.451 199.489 113.876 198.858 114.852C198.477 115.643 198.201 116.48 198.035 117.342C197.371 119.387 189.403 124.208 187.252 124.307L139.709 97.8933C138.149 96.4756 137.068 94.6078 136.616 92.5485C136.163 90.4893 136.363 88.3404 137.186 86.3994C137.555 85.8011 137.746 85.1103 137.737 84.4074C137.577 83.8319 137.299 83.2959 136.92 82.8337C134.802 79.4673 136.808 75.0782 139.085 71.818C139.432 71.38 139.702 70.886 139.882 70.3572C140.003 69.5564 139.965 68.7394 139.769 67.9535Z" fill="#263238"/>
<path d="M202.752 73.8547C200.433 70.0338 197.005 67.0093 192.925 65.1829C189.984 63.9346 185.887 61.6305 179.18 61.2321C168.556 60.6079 157.82 67.2479 153.211 75.694L129.234 123.416L150.217 161.476L156.611 149.816L161.551 140.148C161.551 140.148 174.765 145.162 186.405 130.899C192.201 123.801 199.266 110.76 204.705 99.8968C209.598 90.1028 205.01 75.9264 202.752 73.8547Z" fill="#B56760"/>
<path d="M164.279 114.846C164.823 114.086 165.626 113.553 166.537 113.345C167.372 113.142 168.251 113.22 169.037 113.567C169.824 113.914 170.474 114.51 170.886 115.264C171.29 116.111 171.46 117.05 171.378 117.984C171.296 118.918 170.966 119.813 170.421 120.576C169.818 120.889 169.154 121.069 168.475 121.105C167.796 121.14 167.117 121.03 166.484 120.782C166.284 120.704 166.088 120.613 165.9 120.51C164.951 120.015 164.222 119.184 163.854 118.179C163.665 117.628 163.605 117.041 163.679 116.463C163.753 115.885 163.958 115.332 164.279 114.846Z" fill="#8A4A43"/>
<path d="M193.826 109.147C193.525 109.675 193.029 110.064 192.445 110.231C191.861 110.399 191.234 110.331 190.699 110.043C190.43 109.916 190.189 109.736 189.991 109.514C189.793 109.291 189.642 109.032 189.547 108.75C189.451 108.468 189.414 108.169 189.436 107.873C189.458 107.576 189.54 107.287 189.676 107.022C189.977 106.493 190.472 106.103 191.056 105.933C191.639 105.763 192.267 105.827 192.804 106.112C193.072 106.243 193.312 106.425 193.509 106.648C193.706 106.872 193.856 107.133 193.952 107.415C194.047 107.698 194.085 107.996 194.063 108.294C194.042 108.591 193.961 108.881 193.826 109.147Z" fill="#263238"/>
<path d="M197.659 103.851C197.254 103.97 196.384 101.952 194.213 100.69C192.041 99.4283 189.817 99.5943 189.737 99.1893C189.691 99.01 190.222 98.6846 191.205 98.5784C192.522 98.4746 193.839 98.7808 194.976 99.4549C196.107 100.106 197.001 101.102 197.526 102.297C197.871 103.2 197.871 103.804 197.659 103.851Z" fill="#263238"/>
<path d="M174.998 113.591C175.058 113.465 176.539 114.016 178.889 115.005C179.474 115.271 180.065 115.47 180.377 115.145C180.757 114.599 180.961 113.95 180.961 113.285L181.778 108.113C183 100.809 184.228 94.8925 184.52 94.9457C184.812 94.9988 184.069 100.975 182.847 108.305C182.533 110.103 182.232 111.822 181.944 113.465C181.791 114.215 181.731 115.138 180.968 115.802C180.774 115.95 180.549 116.052 180.309 116.101C180.07 116.149 179.823 116.142 179.587 116.081C179.232 115.987 178.89 115.849 178.571 115.669C176.3 114.507 174.932 113.697 174.998 113.591Z" fill="#263238"/>
<path d="M161.554 140.13C154.087 135.935 147.931 129.749 143.772 122.262C143.772 122.262 142.684 136.923 159.27 144.605L161.554 140.13Z" fill="#8A4A43"/>
<path d="M167.739 111.377C168.104 111.556 166.736 113.913 167.778 116.762C168.821 119.61 171.477 120.806 171.304 121.144C171.251 121.31 170.481 121.277 169.405 120.686C168.013 119.905 166.943 118.656 166.384 117.16C165.846 115.725 165.886 114.137 166.497 112.731C166.982 111.702 167.586 111.264 167.739 111.377Z" fill="#263238"/>
<path d="M201.511 95.2099C200.847 95.5287 199.386 94.2073 197.348 93.218C195.309 92.2286 193.41 91.8235 193.258 91.0998C193.205 90.7545 193.716 90.3627 194.699 90.2233C196.003 90.116 197.312 90.3688 198.483 90.9542C199.654 91.5396 200.642 92.4352 201.339 93.5433C201.856 94.4397 201.817 95.044 201.511 95.2099Z" fill="#263238"/>
<path d="M165.338 92.5294C165.371 92.9477 167.569 93.0274 169.528 94.5944C171.487 96.1614 172.144 98.2929 172.549 98.2265C172.735 98.2265 172.848 97.5625 172.589 96.6329C172.208 95.3663 171.445 94.2485 170.404 93.4324C169.384 92.6229 168.133 92.158 166.832 92.1044C165.843 92.0712 165.298 92.3368 165.338 92.5294Z" fill="#263238"/>
<path d="M167.911 85.8407C168.084 86.5711 170.069 86.9629 172.134 88.0319C174.199 89.1009 175.753 90.3957 176.43 90.0837C176.742 89.9177 176.735 89.2669 176.231 88.3838C175.508 87.2369 174.477 86.3165 173.256 85.7278C172.059 85.1051 170.709 84.8379 169.365 84.9576C168.369 85.097 167.851 85.4888 167.911 85.8407Z" fill="#263238"/>
<path d="M147.141 92.0822C147.805 90.9135 148.07 87.3611 147.021 86.5112C144.213 84.2337 138.509 81.2391 133.894 89.0543C127.579 99.7248 139.604 103.862 139.804 103.563C140.003 103.264 144.797 96.1326 147.141 92.0822Z" fill="#B56760"/>
<path d="M139.162 97.9252C139.162 97.8588 138.903 97.9252 138.498 97.9252C137.946 97.8479 137.445 97.5629 137.097 97.1284C136.207 96.0461 136.32 93.6956 137.402 91.7434C137.918 90.8121 138.635 90.007 139.5 89.3862C139.796 89.1108 140.154 88.9122 140.545 88.808C140.935 88.7038 141.345 88.6971 141.738 88.7886C141.985 88.8575 142.2 89.0108 142.346 89.2219C142.491 89.4331 142.558 89.6886 142.535 89.944C142.535 90.3291 142.309 90.5017 142.355 90.5548C142.402 90.6079 142.687 90.5084 142.867 90.017C142.972 89.7206 142.972 89.397 142.867 89.1007C142.704 88.7035 142.392 88.3862 141.997 88.2176C141.14 87.7926 139.952 88.1113 139.075 88.7288C138.076 89.385 137.253 90.2765 136.678 91.3251C135.47 93.5163 135.35 96.1789 136.678 97.5335C136.915 97.787 137.205 97.9839 137.528 98.1092C137.851 98.2345 138.199 98.2851 138.544 98.2572C138.989 98.1709 139.188 97.9651 139.162 97.9252Z" fill="#8A4A43"/>
<path d="M207.069 101.451C205.687 98.8352 205.375 96.1925 206.996 93.7157C205.309 93.3107 204.924 90.6148 204.811 88.8884C204.698 87.162 204.034 85.9337 204.97 84.4729C205.182 84.2005 205.319 83.8779 205.369 83.5366C205.369 82.9988 204.957 82.5738 204.592 82.1754C203.664 81.141 203.01 79.89 202.691 78.5373C202.372 77.1846 202.398 75.7734 202.766 74.4332C199.869 74.1008 197.1 73.051 194.712 71.3788C193.682 71.866 192.546 72.083 191.409 72.0095C190.273 71.9359 189.174 71.5742 188.216 70.9584C187.258 70.3425 186.473 69.4929 185.934 68.4896C185.395 67.4862 185.121 66.3622 185.137 65.2235C184.395 65.6692 183.566 65.9488 182.706 66.0428C181.847 66.1368 180.977 66.043 180.157 65.768C178.523 65.2124 176.978 64.4253 175.568 63.4307C174.999 65.0439 173.867 66.3979 172.381 67.2443C170.894 68.0906 169.152 68.3728 167.474 68.0389C167.264 67.9501 167.038 67.9044 166.81 67.9044C166.582 67.9044 166.356 67.9501 166.146 68.0389C165.748 68.3045 165.695 68.8556 165.622 69.327C165.466 70.0625 165.165 70.7592 164.734 71.3755C164.304 71.9918 163.754 72.5152 163.117 72.9142C162.48 73.3133 161.769 73.58 161.026 73.6984C160.284 73.8167 159.525 73.7843 158.796 73.6032C159.759 75.9869 157.753 79.0214 155.184 79.0679C154.659 79.0679 153.988 79.0679 153.783 79.5526C153.733 79.7487 153.733 79.9541 153.783 80.1502C153.962 81.6708 154.088 83.2909 153.411 84.672C152.733 86.0532 150.981 87.016 149.619 86.3055C149.832 86.8017 149.942 87.336 149.942 87.8759C149.942 88.4158 149.832 88.95 149.619 89.4462C149.095 90.3891 147.627 90.7742 146.923 89.9442C146.638 89.5923 141.91 85.4356 141.864 84.9841C141.2 79.1011 147.68 76.7705 150.947 71.8369C154.214 66.9034 158.869 62.9991 163.995 60.0509C166.125 58.7684 168.416 57.7748 170.808 57.0961C173.57 56.4717 176.395 56.1643 179.227 56.1798C182.912 56.0669 186.677 56.0072 190.21 57.0762C196.783 59.0682 201.577 64.6724 205.521 70.2964C207.089 72.4086 208.364 74.7225 209.313 77.1755C210.362 80.1236 210.541 83.3042 210.495 86.4317C210.428 90.9535 209.877 95.555 207.998 99.6652" fill="#263238"/>
<path d="M211.355 98.9203C211.46 98.4319 211.489 97.9302 211.441 97.4329C211.441 96.9416 211.341 96.344 211.348 95.6335C211.366 94.8194 211.556 94.0184 211.906 93.2829C212.36 92.3553 212.891 91.4669 213.493 90.6269C214.225 89.6348 214.817 88.5467 215.252 87.3932C215.725 86.0477 215.912 84.6187 215.803 83.1968C215.743 82.4214 215.596 81.6552 215.365 80.9126C215.104 80.1401 214.783 79.3896 214.402 78.6683C214.003 77.9349 213.727 77.1408 213.586 76.3177C213.525 75.4471 213.577 74.5724 213.738 73.7148C214.284 69.7738 213.395 65.7679 211.235 62.4268C210.651 61.533 209.972 60.7049 209.21 59.9568C208.406 59.2017 207.514 58.5462 206.554 58.0046C206.062 57.7389 205.557 57.4995 205.04 57.2875C204.515 57.0816 203.984 56.909 203.46 56.7164C202.398 56.3703 201.42 55.8047 200.591 55.0564C199.741 54.3128 198.998 53.423 198.154 52.5996C197.309 51.7584 196.393 50.9899 195.419 50.3022C194.429 49.5991 193.383 48.9795 192.291 48.4496C191.175 47.9227 190.009 47.5068 188.812 47.208C186.337 46.5687 183.725 46.722 181.342 47.6462L180.638 47.9384L180.85 47.9716C178.073 45.563 174.478 44.3102 170.805 44.4708C167.132 44.6313 163.66 46.193 161.103 48.8348L161.249 48.775C159.617 48.6088 157.976 48.5444 156.336 48.5824C154.74 48.6174 153.164 48.946 151.688 49.5519C150.266 50.1764 149.042 51.1774 148.148 52.4469C147.256 53.662 146.871 55.1761 147.073 56.67L147.186 56.4973C144.879 57.1511 142.874 58.594 141.522 60.5743C140.261 62.3152 139.566 64.4013 139.53 66.5503C139.523 67.0433 139.555 67.536 139.623 68.0244C139.709 68.4834 139.771 68.9466 139.809 69.4121C139.84 69.8492 139.762 70.2872 139.583 70.687C139.392 71.07 139.17 71.4364 138.919 71.7826C138.014 73.0705 137.261 74.4586 136.675 75.9193C136.193 77.0978 135.943 78.358 135.938 79.6311C135.946 80.5734 136.173 81.5008 136.601 82.3402C136.94 83.0042 137.352 83.4491 137.505 83.8076C137.594 83.9828 137.663 84.1677 137.71 84.3588C137.698 84.1593 137.644 83.9647 137.551 83.7877C137.405 83.4159 137 82.9776 136.681 82.3004C136.28 81.4727 136.073 80.5642 136.077 79.6444C136.096 78.3915 136.355 77.154 136.841 75.999C137.437 74.5572 138.194 73.1874 139.098 71.9154C139.363 71.5613 139.599 71.186 139.802 70.7932C139.999 70.3631 140.085 69.8908 140.054 69.4188C140.023 68.9445 139.966 68.4723 139.882 68.0044C139.813 67.5296 139.784 67.0499 139.795 66.5702C139.836 64.4763 140.515 62.4447 141.741 60.7469C143.066 58.8348 145.014 57.4429 147.252 56.8094L147.385 56.7696V56.6368C147.208 55.2252 147.579 53.7995 148.421 52.6528C149.284 51.4361 150.461 50.4768 151.827 49.8772C153.273 49.2974 154.811 48.9825 156.369 48.9476C157.994 48.9146 159.619 48.9833 161.236 49.1535H161.355L161.415 49.0871C163.912 46.5169 167.298 44.9991 170.878 44.8448C174.458 44.6905 177.962 45.9113 180.671 48.2571L180.757 48.3434L180.877 48.2903L181.541 48.0048C183.85 47.1106 186.381 46.962 188.779 47.5798C189.951 47.8739 191.091 48.2808 192.185 48.7949C193.258 49.3151 194.287 49.9237 195.259 50.6143C196.217 51.2903 197.117 52.0454 197.948 52.8719C198.785 53.6753 199.529 54.5717 200.412 55.342C200.843 55.7318 201.315 56.0746 201.82 56.3645C202.324 56.6305 202.851 56.8527 203.393 57.0285C203.924 57.2211 204.456 57.3937 204.967 57.5863C205.468 57.7954 205.958 58.0303 206.434 58.2901C207.367 58.811 208.23 59.4468 209.004 60.1825C209.753 60.909 210.421 61.715 210.996 62.5862C213.118 65.8539 214.004 69.7723 213.493 73.6352C213.33 74.5105 213.283 75.4035 213.353 76.2912C213.499 77.1429 213.787 77.9642 214.203 78.7214C214.582 79.4295 214.904 80.1666 215.166 80.9259C215.398 81.6478 215.545 82.3943 215.604 83.1503C215.721 84.5405 215.549 85.9398 215.1 87.2604C214.672 88.3982 214.096 89.4743 213.386 90.4609C212.787 91.2998 212.261 92.1884 211.813 93.1169C211.466 93.8735 211.282 94.6949 211.275 95.5272C211.275 96.2444 211.375 96.8552 211.408 97.3333C211.433 97.7003 211.433 98.0686 211.408 98.4356C211.378 98.5956 211.36 98.7576 211.355 98.9203Z" fill="#455A64"/>
<path d="M187.148 48.7158C187.148 48.749 187.527 48.7158 188.198 48.7623C189.141 48.8255 190.066 49.05 190.933 49.4263C192.218 49.972 193.332 50.8526 194.16 51.976C195.163 53.3631 195.7 55.0322 195.694 56.7436C195.692 57.2552 195.634 57.765 195.521 58.2641C195.486 58.4876 195.402 58.7007 195.276 58.8887C195.15 59.0766 194.984 59.2351 194.791 59.3531L194.32 59.5656L194.818 59.6917C196.112 60.0307 197.222 60.8624 197.912 62.0091C198.456 62.9246 198.689 63.9914 198.576 65.0502C198.507 65.7473 198.301 66.4241 197.972 67.0422C197.834 67.2571 197.708 67.4787 197.593 67.7062C197.593 67.7062 197.646 67.6663 197.739 67.5667C197.864 67.417 197.979 67.2595 198.085 67.0953C198.466 66.4718 198.713 65.7751 198.808 65.0502C198.962 63.9343 198.74 62.799 198.177 61.8232C197.461 60.5867 196.284 59.6842 194.904 59.3132V59.6585C195.147 59.5188 195.357 59.3275 195.519 59.0981C195.681 58.8687 195.79 58.6067 195.84 58.3305C195.962 57.8013 196.025 57.2601 196.026 56.717C196.033 54.9294 195.462 53.1875 194.399 51.7503C193.667 50.7852 192.726 49.9987 191.646 49.45C190.566 48.9014 189.375 48.605 188.164 48.583C187.903 48.5782 187.641 48.5915 187.381 48.6228C187.299 48.6413 187.22 48.6727 187.148 48.7158Z" fill="#455A64"/>
<path d="M162.609 50.9615C162.628 51.1697 162.68 51.3736 162.762 51.5658C162.948 52.1056 163.191 52.6242 163.486 53.1129C163.933 53.861 164.538 54.5024 165.259 54.992C166.175 55.621 167.293 55.8839 168.393 55.7291L168.174 55.5564L168.233 56.1739C168.233 56.3864 168.313 56.5989 168.353 56.8379C168.653 58.0363 169.244 59.1424 170.073 60.0583C170.737 60.8079 171.543 61.4194 172.443 61.8578C173.049 62.1458 173.693 62.3448 174.356 62.4487C174.6 62.4851 174.848 62.4851 175.093 62.4487C174.216 62.2715 173.366 61.9836 172.563 61.5922C171.714 61.1389 170.957 60.5309 170.332 59.7994C169.555 58.9192 169.001 57.8646 168.718 56.725C168.678 56.5192 168.632 56.32 168.599 56.1208C168.565 55.9216 168.559 55.7291 168.546 55.5365V55.3307L168.353 55.3638C167.341 55.5043 166.313 55.268 165.465 54.6998C164.768 54.2522 164.175 53.6614 163.725 52.9668C162.921 51.7915 162.682 50.935 162.609 50.9615Z" fill="#455A64"/>
<path d="M151.181 57.6406C151.181 57.6406 151.134 57.707 151.088 57.8531C151.034 58.07 151.013 58.294 151.028 58.5171C151.103 59.3392 151.482 60.1039 152.09 60.6618C153.015 61.4475 154.147 61.948 155.351 62.1027C156.04 62.2423 156.736 62.3464 157.436 62.4148C158.223 62.523 159.023 62.3489 159.693 61.9234L159.866 61.7906L159.567 61.7176C160.062 63.0678 160.763 64.3333 161.645 65.4692C162.38 66.4064 163.362 67.1194 164.481 67.5276C165.229 67.807 166.037 67.8848 166.825 67.7533C167.037 67.7209 167.244 67.663 167.442 67.5807C167.575 67.5276 167.648 67.4944 167.641 67.4811C167.635 67.4678 167.343 67.5541 166.805 67.6139C166.043 67.6831 165.276 67.5692 164.567 67.2819C163.517 66.8557 162.6 66.1565 161.911 65.2567C161.073 64.1328 160.402 62.8938 159.919 61.5781L159.826 61.3457L159.62 61.5117L159.481 61.6246C158.884 61.988 158.182 62.1379 157.489 62.0496C156.805 61.9907 156.124 61.8954 155.45 61.7641C154.303 61.6346 153.215 61.186 152.31 60.4693C151.714 59.9597 151.323 59.2523 151.207 58.4773C151.176 58.1996 151.167 57.9198 151.181 57.6406Z" fill="#455A64"/>
<path d="M161.857 12.6602C161.857 12.6602 162.036 12.773 162.308 13.0453C162.698 13.4498 162.959 13.9603 163.059 14.5127C163.222 15.3702 163.089 16.2579 162.68 17.0293C162.123 18.028 161.417 18.9369 160.589 19.7251L160.442 19.8712L160.628 19.9708C161.976 20.7029 163.048 21.8545 163.683 23.251C164.048 24.0277 164.226 24.8795 164.202 25.7377C164.178 26.5958 163.952 27.4362 163.543 28.1911C163.182 28.8825 162.666 29.4815 162.037 29.942C161.407 30.4025 160.68 30.7122 159.911 30.8471L159.387 30.9202L159.852 31.1858C160.617 31.6285 161.282 32.2254 161.804 32.9387C162.326 33.6519 162.695 34.466 162.886 35.3291C163.183 36.7116 162.993 38.1542 162.348 39.4127C161.93 40.249 161.34 40.9868 160.615 41.5774C160.11 41.989 159.785 42.155 159.798 42.1816C159.885 42.1589 159.968 42.1231 160.044 42.0754C160.278 41.9621 160.5 41.8264 160.708 41.6703C161.482 41.1028 162.118 40.3673 162.567 39.519C163.272 38.2185 163.495 36.7115 163.198 35.2627C163.01 34.3491 162.631 33.4855 162.086 32.7281C161.542 31.9707 160.843 31.3366 160.037 30.867L159.978 31.2057C160.806 31.0657 161.589 30.7348 162.267 30.2392C162.945 29.7436 163.498 29.0969 163.882 28.3505C164.338 27.5392 164.58 26.6252 164.586 25.6945C164.587 24.8027 164.395 23.9213 164.021 23.1115C163.349 21.6486 162.212 20.4487 160.788 19.6986L160.828 19.9442C161.669 19.1276 162.377 18.1844 162.926 17.1488C163.334 16.3265 163.449 15.3893 163.251 14.4928C163.131 13.9152 162.828 13.3916 162.388 12.9988C162.276 12.8933 162.148 12.8059 162.01 12.7398C161.965 12.7023 161.913 12.6751 161.857 12.6602Z" fill="#455A64"/>
<path d="M129.242 24.832C129.27 24.9068 129.311 24.9763 129.362 25.0379C129.481 25.2313 129.612 25.4175 129.753 25.5956C130.294 26.2622 130.926 26.8481 131.633 27.3353C132.718 28.0889 133.944 28.6152 135.238 28.8824C136.895 29.2406 138.617 29.1465 140.225 28.6102L139.992 28.4442C139.997 29.6145 140.261 30.7694 140.765 31.8256C141.269 32.8819 142 33.8133 142.907 34.553C143.898 35.3244 145.107 35.764 146.362 35.8093C147.618 35.8546 148.855 35.5033 149.899 34.8053L149.627 34.6327C149.479 35.4953 149.562 36.3818 149.866 37.2024C150.137 37.9321 150.537 38.6069 151.048 39.1944C151.902 40.1474 152.947 40.9099 154.116 41.432C154.862 41.7773 155.632 42.0702 156.42 42.3085C156.697 42.4136 156.984 42.4893 157.276 42.5343C157.012 42.4054 156.739 42.2945 156.46 42.2023C155.693 41.9215 154.941 41.6001 154.209 41.2395C153.085 40.7061 152.084 39.9466 151.267 39.0084C150.744 38.4268 150.355 37.7381 150.125 36.9904C149.896 36.2427 149.832 35.4539 149.939 34.6792L150.025 34.2476L149.667 34.5065C148.681 35.1492 147.519 35.4683 146.343 35.4195C145.167 35.3707 144.036 34.9564 143.107 34.2343C142.243 33.5291 141.545 32.6423 141.063 31.637C140.581 30.6317 140.327 29.5325 140.318 28.4176V28.1786L140.092 28.2583C138.544 28.7901 136.882 28.8979 135.278 28.5704C134.013 28.3323 132.807 27.8448 131.732 27.1361C130.793 26.495 129.954 25.7186 129.242 24.832Z" fill="#455A64"/>
<path d="M131.412 47.0431C131.383 47.1315 131.383 47.2269 131.412 47.3153C131.495 47.5647 131.653 47.7826 131.864 47.9395C132.636 48.472 133.528 48.8072 134.46 48.9155C135.851 49.1107 137.267 48.8646 138.51 48.2117C140.038 47.4 141.203 46.041 141.771 44.407V44.3671L141.439 44.4136C142.405 45.8388 143.8 46.9182 145.423 47.4946C146.727 47.9662 148.122 48.1298 149.5 47.9727C150.411 47.8746 151.305 47.6512 152.156 47.3087C152.475 47.1983 152.779 47.0465 153.059 46.8571C151.894 47.2889 150.681 47.5787 149.447 47.7203C148.112 47.8335 146.769 47.6474 145.516 47.1759C143.983 46.6044 142.667 45.5692 141.751 44.2144L141.552 43.9023L141.419 44.2543V44.2875C140.934 45.6901 139.984 46.8848 138.727 47.6734C137.469 48.4621 135.98 48.7972 134.507 48.6234C133.607 48.5424 132.738 48.2587 131.963 47.7934C131.692 47.6217 131.495 47.3537 131.412 47.0431Z" fill="#455A64"/>
<path d="M185.083 26.625C184.838 27.8963 184.356 29.1102 183.663 30.204C182.818 31.5138 181.625 32.5621 180.217 33.2307C178.81 33.8994 177.243 34.1619 175.695 33.9887C174.715 33.8914 173.76 33.624 172.873 33.1986L172.667 33.099L172.64 33.3513C172.338 34.672 171.791 35.9242 171.027 37.0431C170.416 37.9337 169.68 38.732 168.842 39.4136C168.528 39.6731 168.195 39.9084 167.846 40.1175C167.727 40.1963 167.592 40.2468 167.45 40.2652C167.308 40.2836 167.165 40.2694 167.029 40.2237C166.946 40.1906 166.87 40.1395 166.808 40.0742C166.746 40.0088 166.699 39.9306 166.671 39.8452C166.638 39.7257 166.671 39.6527 166.671 39.6527C166.651 39.6813 166.637 39.7138 166.63 39.7481C166.623 39.7824 166.623 39.8177 166.631 39.8519C166.649 39.9559 166.691 40.0541 166.755 40.1384C166.818 40.2227 166.901 40.2906 166.996 40.3366C167.149 40.4033 167.315 40.4326 167.481 40.4222C167.648 40.4118 167.809 40.362 167.952 40.2768C168.324 40.0883 168.677 39.866 169.008 39.6128C171.024 38.0865 172.444 35.9051 173.025 33.4443L172.766 33.5704C174.027 34.1758 175.415 34.4718 176.813 34.4337C178.212 34.3956 179.581 34.0245 180.807 33.3513C182.065 32.6327 183.123 31.6128 183.888 30.3832C184.401 29.5675 184.767 28.6687 184.971 27.7272C185.027 27.4713 185.064 27.2117 185.083 26.9504C185.107 26.8431 185.107 26.7322 185.083 26.625Z" fill="#455A64"/>
<path d="M133.952 99.5078C133.718 99.5102 133.489 99.5744 133.288 99.6937C132.719 99.9888 132.255 100.453 131.96 101.022C131.726 101.444 131.596 101.916 131.58 102.398C131.564 102.881 131.662 103.36 131.867 103.797C132.122 104.331 132.507 104.793 132.986 105.141C133.465 105.489 134.023 105.711 134.609 105.789C135.198 105.845 135.792 105.76 136.342 105.544C136.892 105.327 137.384 104.983 137.777 104.541C138.421 103.811 138.75 102.857 138.693 101.885C138.667 101.25 138.489 100.631 138.175 100.079C138.073 99.8697 137.925 99.686 137.743 99.541C137.826 99.7514 137.924 99.9555 138.036 100.152C138.289 100.697 138.421 101.291 138.421 101.892C138.427 102.376 138.332 102.856 138.142 103.3C137.951 103.745 137.669 104.145 137.314 104.474C136.96 104.804 136.54 105.055 136.082 105.211C135.624 105.368 135.138 105.427 134.656 105.384C134.132 105.312 133.633 105.113 133.204 104.804C132.774 104.495 132.427 104.086 132.192 103.611C132 103.222 131.9 102.794 131.9 102.36C131.9 101.926 132 101.497 132.192 101.108C132.447 100.563 132.852 100.102 133.361 99.78C133.726 99.6074 133.965 99.541 133.952 99.5078Z" fill="#263238"/>
<path d="M55.0156 227.238L55.3675 258.738C55.3968 259.588 55.7543 260.392 56.3649 260.983C56.9755 261.574 57.7915 261.905 58.6411 261.906C59.0821 261.906 59.5188 261.818 59.9255 261.647C60.3323 261.477 60.701 261.227 61.0101 260.912C61.3191 260.598 61.5624 260.225 61.7257 259.815C61.889 259.405 61.969 258.967 61.9611 258.526V227.318L55.0156 227.238Z" fill="#E0E0E0"/>
<path d="M55.02 227.237H56.8194H61.9388H62.0185V227.31C62.0185 230.916 62.0185 235.736 62.0584 241.374C62.0584 244.196 62.0584 247.224 62.0584 250.404C62.0584 251.991 62.0584 253.624 62.0584 255.284V257.781C62.0679 258.213 62.0546 258.645 62.0185 259.076C61.9585 259.519 61.8118 259.945 61.5869 260.331C61.2313 260.939 60.6966 261.422 60.0559 261.715C59.4151 262.008 58.6996 262.095 58.0072 261.966C57.3147 261.837 56.6791 261.497 56.1872 260.993C55.6953 260.488 55.3711 259.844 55.259 259.149C55.2185 258.821 55.2007 258.49 55.2059 258.16C55.2059 257.841 55.2059 257.496 55.2059 257.197C55.2059 256.533 55.2059 255.922 55.2059 255.298C55.2059 254.036 55.2059 252.808 55.2059 251.613C55.1129 246.832 55.1129 242.509 55.0664 238.89C55.02 235.272 55.0266 232.37 55.0133 230.338C55.0133 229.342 55.0133 228.565 55.0133 228.021C55.0133 227.775 55.0133 227.576 55.0133 227.43C55.006 227.363 55.006 227.297 55.0133 227.23C55.0133 227.23 55.0133 227.31 55.0133 227.45C55.0133 227.589 55.0133 227.802 55.0133 228.06C55.0133 228.612 55.0133 229.388 55.0598 230.404C55.0598 232.45 55.1461 235.371 55.2059 238.983C55.2656 242.595 55.3188 246.892 55.3852 251.659C55.3852 252.848 55.4184 254.069 55.4316 255.318C55.4316 255.942 55.4316 256.573 55.4316 257.21C55.4316 257.522 55.4316 257.874 55.4316 258.166C55.4268 258.483 55.4423 258.801 55.4781 259.116C55.5496 259.904 55.9157 260.637 56.5035 261.168C57.0912 261.699 57.8574 261.988 58.6493 261.979C59.4411 261.97 60.2004 261.662 60.7756 261.118C61.3509 260.574 61.6998 259.833 61.7529 259.043C61.7765 258.627 61.7765 258.21 61.7529 257.794V255.278C61.7529 253.618 61.7529 251.991 61.7529 250.397C61.7529 247.217 61.7529 244.189 61.7529 241.367C61.7529 235.73 61.7529 230.909 61.7994 227.304L61.8791 227.383L56.8061 227.284L55.498 227.237H55.1461H55.02Z" fill="#263238"/>
<path d="M55.9062 243.387V258.386C55.9371 259.102 56.243 259.777 56.7603 260.272C57.2775 260.767 57.9659 261.043 58.6818 261.042C59.0536 261.043 59.4219 260.97 59.7647 260.826C60.1075 260.682 60.4179 260.47 60.6774 260.204C60.9369 259.938 61.1403 259.622 61.2754 259.275C61.4105 258.929 61.4746 258.559 61.4639 258.187L61.351 243.427L55.9062 243.387Z" fill="#40D259"/>
<path d="M62.5143 224.98H54.4268C53.6237 224.98 52.9727 225.632 52.9727 226.435V230.286C52.9727 231.089 53.6237 231.74 54.4268 231.74H62.5143C63.3174 231.74 63.9685 231.089 63.9685 230.286V226.435C63.9685 225.632 63.3174 224.98 62.5143 224.98Z" fill="#40D259"/>
<path d="M53.7826 231.656C53.5985 229.446 53.5985 227.225 53.7826 225.016C53.9666 227.225 53.9666 229.446 53.7826 231.656Z" fill="#263238"/>
<path d="M55.3099 231.656C55.1259 229.446 55.1259 227.225 55.3099 225.016C55.494 227.225 55.494 229.446 55.3099 231.656Z" fill="#263238"/>
<path d="M56.8568 231.656C56.6727 229.446 56.6727 227.225 56.8568 225.016C57.0408 227.225 57.0408 229.446 56.8568 231.656Z" fill="#263238"/>
<path d="M58.431 231.656C58.247 229.446 58.247 227.225 58.431 225.016C58.6151 227.225 58.6151 229.446 58.431 231.656Z" fill="#263238"/>
<path d="M59.9505 231.656C59.7665 229.446 59.7665 227.225 59.9505 225.016C60.1346 227.225 60.1346 229.446 59.9505 231.656Z" fill="#263238"/>
<path d="M61.4974 231.656C61.3134 229.446 61.3134 227.225 61.4974 225.016C61.6815 227.225 61.6815 229.446 61.4974 231.656Z" fill="#263238"/>
<path d="M63.0795 231.656C62.8954 229.446 62.8954 227.225 63.0795 225.016C63.2635 227.225 63.2635 229.446 63.0795 231.656Z" fill="#263238"/>
<path d="M40.6875 227.238L41.0394 258.738C41.0687 259.588 41.4262 260.392 42.0368 260.983C42.6474 261.574 43.4633 261.905 44.3129 261.906C44.754 261.906 45.1907 261.818 45.5974 261.647C46.0042 261.477 46.3728 261.227 46.6819 260.912C46.991 260.598 47.2343 260.225 47.3976 259.815C47.5609 259.405 47.6409 258.967 47.6329 258.526V227.318L40.6875 227.238Z" fill="#E0E0E0"/>
<path d="M40.6875 227.24H42.4936H47.613H47.6927V227.313C47.6927 230.918 47.6927 235.739 47.7325 241.376C47.7325 244.198 47.7325 247.226 47.7325 250.407V257.784C47.7477 258.216 47.7366 258.648 47.6993 259.079C47.6393 259.521 47.4927 259.948 47.2677 260.334C46.9121 260.942 46.3774 261.425 45.7367 261.718C45.0959 262.01 44.3804 262.098 43.688 261.969C42.9955 261.839 42.3599 261.499 41.868 260.995C41.3761 260.491 41.0519 259.847 40.9398 259.152C40.8993 258.823 40.8816 258.493 40.8867 258.162C40.8867 257.844 40.8867 257.498 40.8867 257.199C40.8867 256.535 40.8867 255.925 40.8867 255.3C40.8867 254.039 40.8867 252.81 40.8867 251.615C40.8469 246.828 40.8137 242.512 40.7805 238.886C40.7473 235.261 40.7473 232.366 40.734 230.334C40.734 229.338 40.734 228.561 40.734 228.017C40.734 227.771 40.734 227.572 40.734 227.426C40.7266 227.36 40.7266 227.293 40.734 227.227C40.734 227.227 40.734 227.306 40.734 227.446C40.734 227.585 40.734 227.798 40.734 228.057C40.734 228.608 40.734 229.385 40.7805 230.4C40.7805 232.446 40.8668 235.367 40.9199 238.979C40.973 242.592 41.0328 246.888 41.1058 251.655C41.1058 252.844 41.1058 254.065 41.1523 255.314V257.206C41.1523 257.518 41.1523 257.87 41.1523 258.162C41.1474 258.479 41.1629 258.797 41.1988 259.112C41.3214 259.854 41.7057 260.527 42.2821 261.011C42.8585 261.494 43.5889 261.755 44.341 261.746C45.093 261.737 45.8171 261.459 46.382 260.963C46.9469 260.466 47.3153 259.784 47.4205 259.039C47.444 258.623 47.444 258.206 47.4205 257.79V250.4C47.4205 247.22 47.4205 244.192 47.4205 241.37C47.4205 235.732 47.4205 230.912 47.4669 227.306L47.5466 227.386L42.467 227.286L41.1656 227.24H40.8137H40.6875Z" fill="#263238"/>
<path d="M41.5781 243.387L41.6113 258.386C41.6422 259.102 41.9481 259.777 42.4653 260.272C42.9825 260.767 43.671 261.043 44.3868 261.042C44.7587 261.043 45.127 260.97 45.4698 260.826C45.8126 260.682 46.123 260.47 46.3825 260.204C46.642 259.938 46.8453 259.622 46.9805 259.275C47.1156 258.929 47.1797 258.559 47.169 258.187L47.0561 243.427L41.5781 243.387Z" fill="#40D259"/>
<path d="M48.1862 224.98H40.0987C39.2956 224.98 38.6445 225.632 38.6445 226.435V230.286C38.6445 231.089 39.2956 231.74 40.0987 231.74H48.1862C48.9893 231.74 49.6404 231.089 49.6404 230.286V226.435C49.6404 225.632 48.9893 224.98 48.1862 224.98Z" fill="#40D259"/>
<path d="M39.4283 231.656C39.2531 229.446 39.2531 227.225 39.4283 225.016C39.6124 227.225 39.6124 229.446 39.4283 231.656Z" fill="#263238"/>
<path d="M40.9818 231.656C40.7977 229.446 40.7977 227.225 40.9818 225.016C41.1571 227.225 41.1571 229.446 40.9818 231.656Z" fill="#263238"/>
<path d="M42.5287 231.656C42.3446 229.446 42.3446 227.225 42.5287 225.016C42.704 227.225 42.704 229.446 42.5287 231.656Z" fill="#263238"/>
<path d="M44.0755 231.656C43.8915 229.446 43.8915 227.225 44.0755 225.016C44.2596 227.225 44.2596 229.446 44.0755 231.656Z" fill="#263238"/>
<path d="M45.6224 231.656C45.4384 229.446 45.4384 227.225 45.6224 225.016C45.8065 227.225 45.8065 229.446 45.6224 231.656Z" fill="#263238"/>
<path d="M47.1459 231.656C46.9618 229.446 46.9618 227.225 47.1459 225.016C47.3299 227.225 47.3299 229.446 47.1459 231.656Z" fill="#263238"/>
<path d="M48.7162 231.656C48.5321 229.446 48.5321 227.225 48.7162 225.016C48.9002 227.225 48.9002 229.446 48.7162 231.656Z" fill="#263238"/>
<path d="M26.3594 227.238L26.7047 258.738C26.7436 259.585 27.1051 260.385 27.715 260.974C28.3249 261.563 29.137 261.896 29.9848 261.906C30.4259 261.906 30.8625 261.818 31.2693 261.647C31.676 261.477 32.0447 261.227 32.3538 260.912C32.6629 260.598 32.9062 260.225 33.0695 259.815C33.2327 259.405 33.3128 258.967 33.3048 258.526V227.318L26.3594 227.238Z" fill="#E0E0E0"/>
<path d="M26.3594 227.24H28.1522H33.2782H33.3513V227.313C33.3513 230.918 33.3513 235.739 33.3978 241.376C33.3978 244.198 33.3978 247.226 33.3978 250.407V257.784C33.424 258.215 33.424 258.647 33.3978 259.079C33.3377 259.521 33.1911 259.948 32.9662 260.334C32.6106 260.942 32.0759 261.425 31.4351 261.718C30.7944 262.01 30.0789 262.098 29.3864 261.969C28.694 261.839 28.0583 261.499 27.5664 260.995C27.0745 260.491 26.7504 259.847 26.6383 259.152C26.5944 258.824 26.5767 258.493 26.5851 258.162C26.5851 257.844 26.5851 257.498 26.5851 257.199C26.5851 256.535 26.5851 255.925 26.5851 255.3C26.5851 254.039 26.5851 252.81 26.5851 251.615C26.5453 246.828 26.5121 242.512 26.4789 238.886C26.4457 235.261 26.4789 232.366 26.4324 230.334C26.4324 229.338 26.4324 228.561 26.4324 228.017V227.426C26.4266 227.359 26.4266 227.293 26.4324 227.227C26.4324 227.227 26.4324 227.306 26.4324 227.446C26.4324 227.585 26.4324 227.798 26.4324 228.057C26.4324 228.608 26.4324 229.385 26.4789 230.4C26.4789 232.446 26.5586 235.367 26.6183 238.979C26.6781 242.592 26.7312 246.888 26.8043 251.655C26.8043 252.844 26.8043 254.065 26.8507 255.314C26.8507 255.938 26.8507 256.569 26.8507 257.206C26.8507 257.518 26.8507 257.87 26.8507 258.162C26.8459 258.479 26.8614 258.797 26.8972 259.112C27.0015 259.751 27.3005 260.343 27.7535 260.806C28.2065 261.269 28.7915 261.581 29.4284 261.7C30.0654 261.818 30.7234 261.737 31.3126 261.468C31.9018 261.198 32.3934 260.753 32.7205 260.194C32.9245 259.837 33.0596 259.445 33.1189 259.039C33.172 258.64 33.1189 258.215 33.1189 257.79V250.4C33.1189 247.22 33.1189 244.192 33.1189 241.37C33.1189 235.732 33.1189 230.912 33.1654 227.306L33.2451 227.386L28.1655 227.286L26.8375 227.253H26.4855L26.3594 227.24Z" fill="#263238"/>
<path d="M27.2227 243.387L27.2559 258.386C27.285 259.101 27.5896 259.777 28.1057 260.272C28.6218 260.767 29.3095 261.043 30.0247 261.042C30.3966 261.043 30.7649 260.97 31.1077 260.826C31.4505 260.682 31.7609 260.47 32.0204 260.204C32.2799 259.938 32.4832 259.622 32.6183 259.275C32.7535 258.929 32.8176 258.559 32.8069 258.187L32.7007 243.427L27.2227 243.387Z" fill="#40D259"/>
<path d="M33.8542 224.98H25.7667C24.9636 224.98 24.3125 225.632 24.3125 226.435V230.286C24.3125 231.089 24.9636 231.74 25.7667 231.74H33.8542C34.6573 231.74 35.3083 231.089 35.3083 230.286V226.435C35.3083 225.632 34.6573 224.98 33.8542 224.98Z" fill="#40D259"/>
<path d="M25.099 231.656C24.9149 229.446 24.9149 227.225 25.099 225.016C25.283 227.225 25.283 229.446 25.099 231.656Z" fill="#263238"/>
<path d="M26.6459 231.656C26.4618 229.446 26.4618 227.225 26.6459 225.016C26.8299 227.225 26.8299 229.446 26.6459 231.656Z" fill="#263238"/>
<path d="M28.194 231.656C28.0187 229.446 28.0187 227.225 28.194 225.016C28.378 227.225 28.378 229.446 28.194 231.656Z" fill="#263238"/>
<path d="M29.7408 231.656C29.5656 229.446 29.5656 227.225 29.7408 225.016C29.9249 227.225 29.9249 229.446 29.7408 231.656Z" fill="#263238"/>
<path d="M31.2877 231.656C31.1124 229.446 31.1124 227.225 31.2877 225.016C31.4718 227.225 31.4718 229.446 31.2877 231.656Z" fill="#263238"/>
<path d="M32.8412 231.656C32.6571 229.446 32.6571 227.225 32.8412 225.016C33.0165 227.225 33.0165 229.446 32.8412 231.656Z" fill="#263238"/>
<path d="M34.388 231.656C34.204 229.446 34.204 227.225 34.388 225.016C34.5633 227.225 34.5633 229.446 34.388 231.656Z" fill="#263238"/>
<path d="M71.2797 234.859H18.432C17.9626 234.859 17.582 235.24 17.582 235.709V236.161C17.582 236.63 17.9626 237.011 18.432 237.011H71.2797C71.7491 237.011 72.1296 236.63 72.1296 236.161V235.709C72.1296 235.24 71.7491 234.859 71.2797 234.859Z" fill="#455A64"/>
<path d="M72.1296 261.699H17.582V263.851H72.1296V261.699Z" fill="#455A64"/>
<path d="M22.9263 235.938H20.4961V262.776H22.9263V235.938Z" fill="#455A64"/>
<path d="M69.1412 235.938H66.7109V262.776H69.1412V235.938Z" fill="#455A64"/>
</svg>
