<svg width="504" height="74" viewBox="0 0 504 74" fill="none" xmlns="http://www.w3.org/2000/svg">
<g clip-path="url(#clip0_401_5388)">
<path d="M18.1556 10.4922H8.52556V1.81641H36.0709L57.6211 57.3532H43.0192L39.0548 46.5472H18.2331L14.2067 57.3532H0L18.1556 10.4922ZM35.4392 35.838L28.6536 16.666L21.7867 35.838H35.4392Z" fill="white"/>
<path d="M64.9645 69.9744V59.3271C69.3638 62.3862 74.6025 64.0097 79.9617 63.9749C85.6429 63.9749 91.6417 61.6859 91.6417 54.4276V50.6397C89.5917 53.4787 85.4878 56.4765 79.5665 56.4765C69.1459 56.4765 61.0156 48.9045 61.0156 35.9489C61.0156 22.9933 69.1537 15.3594 79.5665 15.3594C86.1195 15.3594 90.3823 18.9885 92.1959 22.0676V16.409H104.984V54.6716C104.984 67.3716 94.8815 73.9986 82.3295 73.9986C74.672 73.9986 69.1459 72.4222 64.9645 69.9744ZM83.2751 46.2941C86.3772 46.3362 89.3753 45.1773 91.6417 43.06V28.9541C89.3766 26.8346 86.3776 25.6754 83.2751 25.72C77.9078 25.72 74.5131 29.6628 74.5131 35.9722C74.5131 42.2815 77.9078 46.2941 83.2751 46.2941Z" fill="white"/>
<path d="M118.795 25.0888H110.506V16.4091H131.583V23.5899C133.319 19.4069 137.423 16.0141 143.984 16.0141C145.171 15.9883 146.352 16.1759 147.472 16.5679V28.2415C145.793 27.827 144.07 27.615 142.341 27.6102C137.447 27.6102 134.203 29.0316 132.238 30.9256V57.3519H118.795V25.0888Z" fill="white"/>
<path d="M197.165 36.8438C197.165 49.8575 187.14 58.3784 174.351 58.3784C161.327 58.3784 151.383 49.8575 151.383 36.8438C151.383 23.9037 161.327 15.3828 174.351 15.3828C187.155 15.3828 197.165 23.9037 197.165 36.8438ZM174.351 47.6499C179.796 47.6499 183.745 43.1531 183.745 36.8438C183.745 30.6081 179.796 26.1114 174.351 26.1114C168.825 26.1114 164.88 30.6081 164.88 36.8438C164.896 43.1531 168.841 47.6499 174.367 47.6499H174.351Z" fill="white"/>
<path d="M210.202 10.8098H200.812V1.81641H225.455L240.848 24.7724L255.922 1.81641H270.761V57.3532H256.81V20.9845L240.472 45.0483L224.196 21.3796V57.3532H210.202V10.8098Z" fill="white"/>
<path d="M317.635 58.3784C313.055 58.3784 308.951 56.5658 307.529 52.9367C305.32 55.9345 301.688 58.3784 294.822 58.3784C286.218 58.3784 279.588 52.9367 279.588 45.5196C279.588 36.2241 288.745 32.4246 298.53 32.4246C301.378 32.4157 304.216 32.7605 306.978 33.451V31.7158C306.978 27.374 302.952 25.3251 297.267 25.3251C292.531 25.3251 287.245 26.7427 283.138 29.8993V19.3295C286.85 17.118 293.163 15.3828 299.875 15.3828C312.663 15.3828 320.08 21.6147 320.08 31.65V46.2943C320.08 48.1882 321.503 48.8195 323.002 48.8195C323.629 48.8391 324.252 48.7061 324.816 48.4322V56.6355C324.107 57.1971 321.344 58.3784 317.635 58.3784ZM299.162 49.1488C302.479 49.1488 304.924 47.8861 306.978 45.6629V41.1004C304.871 40.5163 302.693 40.2244 300.507 40.2328C297.112 40.2328 293.008 41.2592 293.008 44.8108C293.008 47.4136 295.453 49.1488 299.162 49.1488Z" fill="white"/>
<path d="M333.897 25.0887H325.607V16.409H346.685V23.5898C348.421 19.4068 352.525 16.014 359.086 16.014C360.272 15.9887 361.453 16.1763 362.573 16.5678V28.2414C360.894 27.8272 359.172 27.6153 357.443 27.6101C352.548 27.6101 349.305 29.0316 347.34 30.9255V57.3519H333.92L333.897 25.0887Z" fill="white"/>
<path d="M370.917 8.67968H362.469V0H384.341V30.8495H389.944L399.338 16.4104H413.467L401.004 35.5824L414.502 57.3533H399.57L389.782 41.0861H384.356V57.3533H370.936L370.917 8.67968Z" fill="white"/>
<path d="M455.377 58.3784C450.797 58.3784 446.693 56.5658 445.275 52.9367C443.062 55.9345 439.431 58.3784 432.564 58.3784C423.961 58.3784 417.33 52.9367 417.33 45.5196C417.33 36.2241 426.487 32.4246 436.276 32.4246C439.123 32.4157 441.959 32.7605 444.72 33.451V31.7158C444.72 27.374 440.694 25.3251 435.032 25.3251C430.297 25.3251 425.007 26.7427 420.903 29.8993V19.3295C424.612 17.118 430.928 15.3828 437.636 15.3828C450.425 15.3828 457.842 21.6147 457.842 31.65V46.2943C457.842 48.1882 459.264 48.8195 460.764 48.8195C461.391 48.8391 462.013 48.7061 462.578 48.4322V56.6355C461.845 57.1971 459.086 58.3784 455.377 58.3784ZM436.908 49.1488C440.221 49.1488 442.667 47.8861 444.72 45.6629V41.1004C442.613 40.5163 440.435 40.2244 438.249 40.2328C434.854 40.2328 430.75 41.2592 430.75 44.8108C430.75 47.4136 433.195 49.1488 436.908 49.1488Z" fill="white"/>
<path d="M467.453 48.4409L487.267 26.9025H467.453V16.4102H504.001V25.3184L484.345 46.7755H504.001V57.3453H467.453V48.4409Z" fill="white"/>
</g>
<defs>
<clipPath id="clip0_401_5388">
<rect width="504" height="74" fill="white"/>
</clipPath>
</defs>
</svg>
