<svg width="153" height="41" viewBox="0 0 153 41" fill="none" xmlns="http://www.w3.org/2000/svg">
<g clip-path="url(#clip0_2661_9891)">
<g filter="url(#filter0_d_2661_9891)">
<rect x="-164" y="-51" width="1440" height="107" fill="white"/>
</g>
<path d="M26.3211 30.0511L18.7092 39.8609C17.5479 41.3617 15.2593 41.3617 14.098 39.8609L6.3082 29.8163C6.21495 29.6989 6.13867 29.5815 6.07086 29.4558C6.04543 29.4138 6.02 29.3635 5.99457 29.3132C5.96914 29.2629 5.94371 29.2126 5.92676 29.1623C5.88437 29.0533 5.84199 28.9359 5.80809 28.8269C5.79113 28.7766 5.78266 28.7263 5.77418 28.676C5.7657 28.6592 5.7657 28.6425 5.7657 28.6257C5.74875 28.5586 5.74027 28.4999 5.7318 28.4329C5.7318 28.4077 5.72332 28.3742 5.72332 28.349C5.72332 28.3239 5.71484 28.3071 5.71484 28.2819C5.71484 28.2652 5.71484 28.24 5.71484 28.2232C5.71484 28.1981 5.71484 28.1813 5.71484 28.1562C5.71484 28.1226 5.71484 28.0891 5.71484 28.0639C5.71484 27.3345 5.99457 26.605 6.52858 26.0601C6.54554 26.0433 6.57097 26.0181 6.5964 25.993C6.63878 25.9511 6.68116 25.9091 6.73202 25.8756C6.79983 25.8169 6.87612 25.7582 6.94393 25.7079C7.44404 25.3558 8.02892 25.1797 8.61377 25.1797C9.16474 25.1797 9.7157 25.3306 10.1989 25.6408C10.2667 25.6828 10.326 25.7247 10.3938 25.7582C10.4701 25.8085 10.5464 25.8504 10.6312 25.9008C10.7074 25.9427 10.7753 25.9846 10.8516 26.0181C10.9278 26.0601 10.9956 26.102 11.0719 26.1355C11.1397 26.1691 11.2076 26.2026 11.2754 26.2361C11.2923 26.2445 11.3008 26.2529 11.3178 26.2529C11.3856 26.2864 11.4534 26.32 11.5297 26.3535C11.606 26.387 11.6738 26.4206 11.7501 26.4541C11.8433 26.496 11.9365 26.538 12.0383 26.5715C12.0976 26.5967 12.1484 26.6134 12.2078 26.6386C12.2163 26.647 12.2332 26.647 12.2502 26.6554C12.3265 26.6805 12.3943 26.714 12.4706 26.7392C12.5384 26.7644 12.6062 26.7895 12.6655 26.8063H12.674C12.7164 26.823 12.7503 26.8314 12.7927 26.8398C12.8266 26.8482 12.8605 26.865 12.8944 26.8733C12.9283 26.8817 12.9622 26.8901 12.9961 26.9069C13.047 26.9237 13.1063 26.9404 13.1656 26.9572C13.1826 26.9656 13.208 26.974 13.225 26.974C13.3012 26.9907 13.3775 27.0159 13.4538 27.0327C13.5132 27.0494 13.5725 27.0662 13.6403 27.0746C13.6827 27.083 13.7251 27.0997 13.7674 27.1081C13.8353 27.1249 13.8946 27.1417 13.9624 27.15C14.0472 27.1668 14.1235 27.1836 14.2167 27.2003C14.3015 27.2171 14.3862 27.2339 14.471 27.2423H14.4795C14.5642 27.259 14.6575 27.2674 14.7507 27.2842C14.8016 27.2926 14.844 27.301 14.8948 27.301C14.9965 27.3177 15.0983 27.3261 15.2084 27.3429C15.2169 27.3429 15.2169 27.3429 15.2169 27.3429C15.2169 27.3429 15.2169 27.3429 15.2254 27.3429C15.3102 27.3513 15.4034 27.3596 15.4882 27.368C15.5475 27.3764 15.6068 27.3764 15.6662 27.3848H15.6747C15.6916 27.3848 15.7086 27.3848 15.717 27.3848C15.7255 27.3848 15.734 27.3848 15.7425 27.3848C15.7679 27.3848 15.8018 27.3848 15.8272 27.3848C16.0137 27.3932 16.2171 27.4016 16.4206 27.4016C17.3784 27.4016 18.2006 27.2758 18.8448 27.1417C18.9805 27.1165 19.1246 27.083 19.2771 27.041C19.3111 27.0327 19.3534 27.0243 19.3873 27.0159C19.4212 27.0075 19.4636 26.9991 19.4975 26.9823C19.5823 26.9572 19.6586 26.932 19.7518 26.9069C19.862 26.8733 19.9722 26.8398 20.0909 26.7979C20.2011 26.756 20.3197 26.7224 20.4384 26.6721C20.4978 26.647 20.5571 26.6302 20.6164 26.605C20.6758 26.5799 20.7351 26.5547 20.8029 26.5296C20.8622 26.5044 20.9216 26.4793 20.9894 26.4541C21.1165 26.3954 21.2437 26.3451 21.3708 26.2781C21.4132 26.2613 21.4641 26.2361 21.5065 26.211C21.5234 26.2026 21.5488 26.1942 21.5658 26.1774C21.5997 26.1607 21.6421 26.1439 21.676 26.1187C21.7099 26.102 21.7353 26.0852 21.7692 26.0684C21.7947 26.0517 21.8286 26.0349 21.854 26.0181C21.8964 25.993 21.9388 25.9678 21.9811 25.9511C22.0489 25.9175 22.1168 25.8756 22.1846 25.8421C22.2354 25.8169 22.2863 25.7834 22.3371 25.7498C22.3626 25.7331 22.3795 25.7247 22.405 25.7079C22.5491 25.6241 22.7016 25.5486 22.8457 25.4899C22.9729 25.4396 23.1085 25.3977 23.2441 25.3641C23.3967 25.3306 23.5493 25.3055 23.7103 25.2971C24.3715 25.2468 25.0411 25.4228 25.6006 25.8169L25.7108 25.8924C27.0416 26.8985 27.3213 28.7599 26.3211 30.0511Z" fill="#10B25D"/>
<path d="M31.5581 21.7744C31.5496 21.7912 31.5411 21.8164 31.5327 21.8331C31.5072 21.8918 31.4733 21.9505 31.4394 22.0092C31.0326 22.7303 30.2442 23.2166 29.3288 23.2166C29.3034 23.2166 29.2779 23.2166 29.2525 23.2166C28.2692 23.183 27.4301 22.5793 27.091 21.7325C27.0401 21.6067 26.9978 21.481 26.9723 21.3468C26.9384 21.1959 26.9215 21.0366 26.9215 20.8773C26.9215 20.8018 26.9215 20.7348 26.93 20.6593C27.3792 19.6196 27.6759 18.5045 27.7946 17.3391C27.8539 16.8947 27.8793 16.4503 27.8793 15.9892C27.8793 14.656 27.6335 13.3816 27.1842 12.1994C27.091 11.9479 26.9808 11.6963 26.8706 11.4532C26.8198 11.3526 26.7689 11.2436 26.718 11.1429C26.6672 11.0507 26.6163 10.9501 26.5655 10.8579C26.4722 10.6902 26.379 10.5225 26.2773 10.3632C26.1925 10.229 26.1077 10.0949 26.023 9.96074C25.9891 9.90205 25.9467 9.85174 25.9128 9.79305C25.9128 9.78466 25.9043 9.78466 25.9043 9.77628C25.9043 9.77628 25.9043 9.76789 25.8958 9.76789C25.8704 9.73436 25.845 9.70082 25.828 9.66728C25.8195 9.6589 25.8111 9.64213 25.8026 9.62536C25.7772 9.58344 25.7433 9.5499 25.7178 9.50798C25.7009 9.49121 25.6924 9.47444 25.6754 9.44928C25.6415 9.40736 25.6161 9.36544 25.5822 9.32352C25.2855 8.94622 24.9634 8.58568 24.6244 8.24192C24.582 8.2 24.5481 8.16646 24.5057 8.12454C24.4633 8.08262 24.4294 8.04908 24.387 8.01554C24.3107 7.94008 24.226 7.86462 24.1412 7.79755C23.7343 7.43701 23.2936 7.11002 22.8358 6.80818C22.7426 6.74949 22.6493 6.6908 22.5561 6.63211C22.3866 6.53149 22.217 6.43088 22.0475 6.33865C22.039 6.33027 22.0306 6.33027 22.0221 6.32188C20.3946 5.42474 18.5213 4.91329 16.5209 4.91329C14.2237 4.91329 12.0877 5.59243 10.2991 6.74949C10.2907 6.74949 10.2907 6.75787 10.2822 6.75787C8.56148 7.85624 7.16284 9.39898 6.27282 11.2184C5.56927 12.6521 5.17088 14.262 5.17088 15.9556C5.17088 17.3055 5.4167 18.6051 5.8829 19.7957C5.94224 19.9382 5.99309 20.0808 6.06091 20.2149C6.12024 20.4162 6.15415 20.6425 6.15415 20.8605C6.15415 20.9947 6.14567 21.1288 6.12024 21.2546V21.263C5.91681 22.3613 4.93354 23.1914 3.74683 23.1914C3.61121 23.1914 3.48406 23.183 3.35692 23.1579C3.35692 23.1579 3.35692 23.1579 3.34844 23.1579C3.34844 23.1579 3.34844 23.1579 3.33996 23.1579C3.22977 23.1411 3.11958 23.1159 3.00938 23.0824C2.99243 23.074 2.967 23.0656 2.95005 23.0656C2.90766 23.0489 2.86528 23.0405 2.83138 23.0237C2.81442 23.0153 2.78899 23.007 2.76357 22.9986C2.60251 22.9315 2.44994 22.8476 2.31431 22.747C2.28888 22.7303 2.27193 22.7135 2.2465 22.6967C2.22107 22.68 2.20412 22.6548 2.17869 22.638C2.15326 22.6213 2.12783 22.5961 2.11088 22.5793C2.09392 22.5626 2.08545 22.5542 2.0685 22.5374C2.05154 22.5207 2.03459 22.5039 2.01764 22.4871C2.00916 22.4787 2.00916 22.4787 2.00068 22.4703C1.99221 22.462 1.98373 22.4536 1.97525 22.4452C1.9583 22.4284 1.94983 22.4117 1.93287 22.4033C1.90744 22.3781 1.89049 22.353 1.86506 22.3278C1.85658 22.3194 1.84811 22.311 1.83963 22.2943C1.83116 22.2859 1.83115 22.2859 1.82268 22.2775C1.80573 22.2607 1.79725 22.244 1.7803 22.2272C1.77182 22.2104 1.76334 22.202 1.75487 22.1853C1.75487 22.1769 1.74639 22.1769 1.74639 22.1685C1.72944 22.1517 1.72096 22.1266 1.70401 22.1098C1.67858 22.0763 1.66163 22.0427 1.6362 22.0008C1.61924 21.9673 1.59381 21.9337 1.57686 21.9002C1.56838 21.8834 1.55991 21.8667 1.55143 21.8499C1.54296 21.8331 1.53448 21.8164 1.526 21.7996C1.526 21.7996 1.526 21.7912 1.51753 21.7912C-3.28015 12.1491 3.80617 0.586914 15.6308 0.0251549C15.9529 0.00838597 16.2581 0 16.5802 0H16.8938C28.9134 0.22638 36.3982 11.9395 31.5581 21.7744Z" fill="#FD9738"/>
<path d="M22.7246 16.1994C22.7246 16.2498 22.7246 16.2917 22.7246 16.342C22.7246 16.3588 22.7246 16.3671 22.7246 16.3839C22.7246 16.4091 22.7246 16.4258 22.7246 16.451C22.7246 16.4761 22.7246 16.4929 22.7246 16.5181C22.7246 16.5348 22.7246 16.5516 22.7246 16.5684C22.7246 16.5851 22.7246 16.6019 22.7246 16.6187C22.7246 16.6271 22.7246 16.6438 22.7246 16.6522C22.7246 16.6522 22.7246 16.6522 22.7246 16.6606C22.7246 16.6774 22.7246 16.6941 22.7246 16.7109C22.7077 16.8954 22.6907 17.0714 22.6568 17.2475C22.6568 17.2727 22.6483 17.2894 22.6483 17.3146C22.6398 17.3565 22.6314 17.39 22.6229 17.432C22.6144 17.4655 22.6059 17.499 22.5975 17.5326C22.5975 17.5493 22.589 17.5661 22.589 17.5829C22.5805 17.608 22.5805 17.6332 22.572 17.6583C22.5636 17.6835 22.5551 17.7087 22.5551 17.7338C22.5381 17.7841 22.5296 17.8344 22.5127 17.8847C22.4957 17.935 22.4873 17.9853 22.4703 18.0273C22.4279 18.1698 22.3771 18.3123 22.3177 18.4549C22.3008 18.5052 22.2838 18.5471 22.2584 18.5974C22.2415 18.6393 22.216 18.6896 22.1991 18.7316C22.1821 18.7735 22.1567 18.8238 22.1313 18.8657C22.1228 18.8909 22.1143 18.9076 22.0974 18.9328C22.0889 18.9579 22.0719 18.9747 22.0634 18.9999C22.038 19.0418 22.0211 19.0921 21.9956 19.134C21.9532 19.2095 21.9109 19.2849 21.8685 19.3604C21.8515 19.3939 21.8261 19.4275 21.8092 19.461C21.7668 19.5197 21.7329 19.5784 21.6905 19.6455C21.6651 19.6874 21.6311 19.7293 21.6057 19.7712C21.5803 19.8132 21.5464 19.8551 21.521 19.8886C21.487 19.9305 21.4616 19.9641 21.4277 20.006C21.3938 20.0479 21.3684 20.0815 21.3345 20.1234C21.326 20.1401 21.309 20.1485 21.3006 20.1653C21.2921 20.1821 21.2751 20.1905 21.2667 20.2072C21.2497 20.224 21.2328 20.2491 21.2158 20.2659C21.1819 20.3078 21.148 20.3414 21.1141 20.3833C21.0887 20.4084 21.0717 20.4336 21.0463 20.4588C21.0124 20.4923 20.9785 20.5258 20.9446 20.5678C20.9106 20.6013 20.8767 20.6348 20.8344 20.6684C20.8089 20.6935 20.7835 20.7103 20.7581 20.7354C20.7157 20.769 20.6818 20.8025 20.6394 20.8361C20.6309 20.8444 20.6224 20.8528 20.614 20.8612C20.6055 20.8696 20.597 20.878 20.5801 20.8864C20.5631 20.8947 20.5546 20.9115 20.5377 20.9199C20.5207 20.9283 20.5123 20.9451 20.4953 20.9534C20.4529 20.987 20.419 21.0121 20.3766 21.0457C20.3003 21.1044 20.2156 21.163 20.1393 21.2217C20.0969 21.2469 20.0545 21.2804 20.0206 21.3056C19.9613 21.3475 19.9019 21.3894 19.8341 21.423C19.8002 21.4397 19.7663 21.4649 19.7324 21.4817C19.6561 21.5236 19.5798 21.5739 19.5036 21.6074C19.4612 21.6326 19.4188 21.6577 19.3679 21.6745C19.3256 21.6997 19.2747 21.7164 19.2323 21.7416C19.1391 21.7835 19.0458 21.8254 18.9611 21.8673C18.7746 21.9428 18.5796 22.0183 18.3847 22.077C18.3338 22.0937 18.2829 22.1105 18.2406 22.1189C18.1897 22.1356 18.1388 22.144 18.088 22.1608C18.0371 22.1776 17.9863 22.186 17.9354 22.1943C17.8846 22.2027 17.8337 22.2195 17.7828 22.2279C17.7405 22.2363 17.7065 22.2446 17.6642 22.253C17.6387 22.253 17.6218 22.2614 17.5964 22.2614C17.4183 22.2949 17.2319 22.3117 17.0539 22.3285C17.0369 22.3285 17.02 22.3285 17.003 22.3285C17.003 22.3285 17.003 22.3285 16.9945 22.3285C16.986 22.3285 16.9691 22.3285 16.9606 22.3285C16.9267 22.3285 16.8928 22.3369 16.8589 22.3369C16.8165 22.3369 16.7657 22.3453 16.7233 22.3453C16.7063 22.3453 16.6978 22.3453 16.6809 22.3453C16.6385 22.3453 16.5877 22.3453 16.5368 22.3453C16.4859 22.3453 16.4436 22.3453 16.3927 22.3453C16.3757 22.3453 16.3673 22.3453 16.3503 22.3453C16.3079 22.3453 16.2571 22.3453 16.2147 22.3369C16.1808 22.3369 16.1469 22.3369 16.113 22.3285C16.1045 22.3285 16.0875 22.3285 16.0791 22.3285C16.0791 22.3285 16.0791 22.3285 16.0706 22.3285C16.0536 22.3285 16.0367 22.3285 16.0197 22.3285C15.8333 22.3117 15.6552 22.2866 15.4772 22.2614C15.4518 22.2614 15.4349 22.253 15.4094 22.253C15.367 22.2446 15.3331 22.2363 15.2908 22.2279C15.2399 22.2195 15.189 22.2111 15.1382 22.1943C15.0873 22.186 15.0365 22.1692 14.9856 22.1608C14.9347 22.1524 14.8839 22.1356 14.833 22.1189C14.7822 22.1021 14.7313 22.0937 14.6889 22.077C14.494 22.0183 14.299 21.9512 14.1125 21.8673C14.0193 21.8254 13.926 21.7835 13.8413 21.7416C13.7989 21.7164 13.748 21.6997 13.7057 21.6745C13.6633 21.6493 13.6209 21.6242 13.57 21.6074C13.4937 21.5655 13.4175 21.5236 13.3412 21.4817C13.3073 21.4649 13.2734 21.4397 13.2395 21.423C13.1801 21.381 13.1208 21.3475 13.053 21.3056C13.0106 21.2804 12.9682 21.2469 12.9258 21.2217C12.8411 21.163 12.7648 21.1044 12.6885 21.0457C12.6461 21.0121 12.6122 20.987 12.5698 20.9534C12.5444 20.9283 12.5105 20.9031 12.4851 20.878C12.4681 20.8612 12.4427 20.8444 12.4257 20.8277C12.3833 20.7941 12.3494 20.7606 12.307 20.7271C12.2816 20.7019 12.2562 20.6851 12.2308 20.66C12.1969 20.6264 12.1629 20.5929 12.129 20.5594C12.129 20.5594 12.129 20.5594 12.1206 20.551C12.1121 20.5426 12.1036 20.5342 12.0951 20.5258C12.0697 20.5007 12.0443 20.4755 12.0188 20.4504C11.9934 20.4252 11.9765 20.4001 11.951 20.3749C11.9171 20.333 11.8832 20.2994 11.8493 20.2575C11.8324 20.2408 11.8154 20.2156 11.7985 20.1988C11.7815 20.1821 11.7646 20.1569 11.7476 20.1401C11.7391 20.1318 11.7306 20.1234 11.7306 20.115C11.7137 20.0982 11.6967 20.0815 11.6883 20.0563C11.6713 20.0395 11.6544 20.0144 11.6374 19.9976C11.6035 19.9557 11.5781 19.9221 11.5442 19.8802C11.5103 19.8383 11.4848 19.8048 11.4509 19.7628C11.4255 19.7209 11.3916 19.679 11.3662 19.6371C11.3238 19.5784 11.2899 19.5197 11.2475 19.4526C11.2305 19.4191 11.2051 19.3855 11.1882 19.352C11.1373 19.2765 11.0949 19.2011 11.061 19.1256C11.0356 19.0837 11.0101 19.0418 10.9932 18.9915C10.9847 18.9663 10.9678 18.9496 10.9593 18.9244C10.9508 18.8992 10.9339 18.8825 10.9254 18.8573C10.9084 18.8154 10.883 18.7651 10.866 18.7232C10.8491 18.6812 10.8237 18.6309 10.8067 18.589C10.7474 18.4465 10.6965 18.3123 10.6457 18.1698C10.6287 18.1195 10.6118 18.0776 10.5948 18.0273C10.5778 17.977 10.5609 17.9266 10.5524 17.8847C10.5355 17.8344 10.527 17.7841 10.51 17.7338C10.5016 17.7087 10.4931 17.6835 10.4931 17.6583C10.4846 17.6332 10.4846 17.608 10.4761 17.5829C10.4677 17.5326 10.4507 17.4823 10.4422 17.432C10.4337 17.39 10.4253 17.3565 10.4168 17.3146C10.4168 17.2894 10.4083 17.2727 10.4083 17.2475C10.3829 17.1134 10.3659 16.9792 10.349 16.8451C10.3405 16.8031 10.3405 16.7528 10.332 16.7109C10.332 16.6941 10.332 16.6774 10.332 16.6606C10.332 16.6606 10.332 16.6606 10.332 16.6522C10.332 16.6438 10.332 16.6271 10.332 16.6187C10.332 16.6019 10.332 16.5851 10.332 16.5684C10.332 16.5516 10.332 16.5348 10.332 16.5181C10.332 16.5013 10.332 16.4761 10.332 16.451C10.332 16.4258 10.332 16.4007 10.332 16.3755C10.332 16.3588 10.332 16.3504 10.332 16.3336C10.332 16.2833 10.332 16.2414 10.332 16.1911C10.332 15.7635 10.3744 15.3526 10.4592 14.9502C10.4677 14.925 10.4677 14.8915 10.4761 14.8663C10.4761 14.8412 10.4846 14.816 10.4931 14.7992C10.5016 14.7741 10.5016 14.7489 10.51 14.7238C10.5185 14.6986 10.5185 14.6735 10.527 14.6483C10.5439 14.598 10.5524 14.5477 10.5694 14.4974C10.5863 14.4471 10.5948 14.3968 10.6118 14.3549C10.6711 14.162 10.7389 13.9692 10.8237 13.7847C10.8406 13.7428 10.866 13.6925 10.883 13.6506C10.9 13.6087 10.9254 13.5583 10.9423 13.5164C10.9508 13.4913 10.9678 13.4745 10.9762 13.4493C10.9847 13.4242 11.0017 13.4074 11.0101 13.3823C11.0356 13.3403 11.0525 13.2984 11.078 13.2481C11.1203 13.1727 11.1627 13.0972 11.2051 13.0217C11.2221 12.9882 11.2475 12.9547 11.2644 12.9211C11.3068 12.8624 11.3407 12.8037 11.3831 12.7367C11.4085 12.6947 11.4424 12.6528 11.4679 12.6109C11.5018 12.569 11.5272 12.5271 11.5611 12.4935C11.5865 12.4516 11.6205 12.4181 11.6544 12.3761C11.6883 12.3342 11.7137 12.3007 11.7476 12.2588C11.7646 12.2336 11.79 12.2084 11.8069 12.1917C11.8239 12.1665 11.8493 12.1498 11.8663 12.1246C11.8832 12.1078 11.9002 12.0911 11.9171 12.0659C11.9341 12.0408 11.9595 12.024 11.9765 11.9988C12.0019 11.9737 12.0188 11.9485 12.0443 11.9318C12.1121 11.8563 12.1799 11.7892 12.2562 11.7221C12.2816 11.697 12.307 11.6718 12.3325 11.6551C12.3579 11.6383 12.3749 11.6132 12.4003 11.5964L12.4342 11.5628C12.4427 11.5545 12.4511 11.5461 12.4511 11.5461C12.4681 11.5293 12.4851 11.5209 12.4935 11.5042C12.5274 11.479 12.5529 11.4538 12.5868 11.4287C12.6292 11.3952 12.6631 11.37 12.7054 11.3365C12.7817 11.2778 12.8665 11.2191 12.9428 11.1604C12.9852 11.1352 13.0275 11.1017 13.0699 11.0765C13.1123 11.043 13.1632 11.0179 13.214 10.9843C13.231 10.9759 13.2395 10.9675 13.2564 10.9592L13.3073 10.9256C13.3242 10.9172 13.3412 10.9089 13.3581 10.8921C13.4344 10.8502 13.5107 10.7999 13.587 10.7579C13.6294 10.7328 13.6718 10.7076 13.7226 10.6909C13.765 10.6657 13.8159 10.6489 13.8582 10.6238C13.9515 10.5819 14.0447 10.5399 14.1295 10.498C14.316 10.4226 14.5024 10.3471 14.7059 10.2884C14.7567 10.2716 14.8076 10.2549 14.85 10.2465C14.9008 10.2297 14.9517 10.2213 15.0026 10.2046C15.0534 10.1878 15.1043 10.1794 15.1551 10.171C15.206 10.1626 15.2569 10.1459 15.3077 10.1375C15.7146 10.0536 16.1299 10.0117 16.5622 10.0117C16.9945 10.0117 17.4099 10.0536 17.8167 10.1375C17.8676 10.1459 17.9185 10.1543 17.9693 10.171C18.0117 10.1794 18.0626 10.1962 18.1049 10.2046H18.1134C18.1643 10.2129 18.2151 10.2297 18.266 10.2465C18.3169 10.2633 18.3677 10.2716 18.4101 10.2884C18.6051 10.3471 18.8 10.4142 18.9865 10.498C19.0797 10.5399 19.173 10.5819 19.2577 10.6238C19.3001 10.6489 19.351 10.6657 19.3934 10.6909C19.4357 10.716 19.4781 10.7328 19.529 10.7579C19.6053 10.7999 19.6816 10.8418 19.7578 10.8921C19.7748 10.9005 19.8002 10.9172 19.8172 10.9256C19.8341 10.934 19.8426 10.9424 19.8596 10.9508C19.8765 10.9592 19.8935 10.9759 19.9104 10.9843C19.9528 11.0095 20.0037 11.043 20.046 11.0682C20.0884 11.0933 20.1308 11.1269 20.1647 11.152C20.1817 11.1688 20.1986 11.1772 20.2156 11.1855C20.2834 11.2358 20.3427 11.2778 20.4021 11.3281C20.4444 11.3616 20.4783 11.3868 20.5207 11.4203C20.5546 11.4538 20.597 11.479 20.6309 11.5125C20.6394 11.5209 20.6479 11.5293 20.6648 11.5377C20.6733 11.5461 20.6818 11.5545 20.6903 11.5628C20.6987 11.5712 20.7072 11.5796 20.7157 11.588C20.7411 11.6048 20.7581 11.6299 20.7835 11.6467C20.8089 11.6718 20.8344 11.6886 20.8598 11.7138C20.9361 11.7808 21.0039 11.8479 21.0717 11.9234C21.0971 11.9485 21.1141 11.9737 21.1395 11.9905C21.1565 12.0156 21.1819 12.0324 21.1988 12.0575C21.1988 12.0575 21.1988 12.0575 21.2073 12.0659C21.2073 12.0659 21.2073 12.0743 21.2158 12.0743C21.2243 12.0911 21.2412 12.0994 21.2497 12.1162C21.2921 12.1581 21.326 12.2084 21.3684 12.2504C21.4023 12.2839 21.4277 12.3258 21.4616 12.3678C21.4955 12.4097 21.521 12.4432 21.5549 12.4851C21.5803 12.5271 21.6142 12.569 21.6396 12.6025C21.6651 12.6444 21.699 12.6864 21.7244 12.7283C21.7668 12.787 21.8007 12.8457 21.8431 12.9127C21.86 12.9463 21.8854 12.9798 21.9024 13.0134C21.9448 13.0888 21.9872 13.1643 22.0295 13.2397C22.055 13.2817 22.0804 13.3236 22.0974 13.3739C22.1058 13.399 22.1228 13.4158 22.1313 13.441C22.1397 13.4661 22.1567 13.4829 22.1652 13.508C22.1821 13.5332 22.1906 13.5583 22.1991 13.5835C22.233 13.6506 22.2584 13.7093 22.2838 13.7763C22.3008 13.8183 22.3262 13.8686 22.3432 13.9189C22.394 14.0614 22.4449 14.2039 22.4957 14.3465C22.5127 14.3968 22.5297 14.4387 22.5381 14.489C22.5551 14.5393 22.5636 14.5896 22.5805 14.6399C22.589 14.6651 22.5975 14.6902 22.5975 14.7154C22.6059 14.7406 22.6059 14.7657 22.6144 14.7909C22.6144 14.8076 22.6229 14.8244 22.6229 14.8328C22.6314 14.8663 22.6398 14.8999 22.6483 14.9334C22.6822 15.361 22.7246 15.7718 22.7246 16.1994Z" fill="#10B25D"/>
<path opacity="0.1" d="M2.04246 22.5896C2.03398 22.5812 2.03398 22.5728 2.02551 22.5728C2.00855 22.5561 2.00008 22.5393 1.98312 22.5225C1.97465 22.5058 1.96617 22.4974 1.9577 22.4806C1.9577 22.4722 1.94922 22.4722 1.94922 22.4638C1.94922 22.4806 1.9577 22.4974 1.9577 22.5141C1.96617 22.5225 1.96617 22.5225 1.97465 22.5309C1.9916 22.5477 2.00855 22.5644 2.02551 22.5812C2.04246 22.598 2.05094 22.6064 2.06789 22.6231C2.05941 22.6064 2.05094 22.598 2.04246 22.5896ZM21.1314 12.0923C21.1145 12.0671 21.0891 12.0503 21.0721 12.0252C21.0467 12 21.0297 11.9749 21.0043 11.9581C20.9365 11.8826 20.8687 11.8156 20.7924 11.7485C20.767 11.7233 20.7415 11.6982 20.7161 11.6814C20.6907 11.6647 20.6737 11.6395 20.6483 11.6227C20.6398 11.6143 20.6313 11.606 20.6229 11.5976C20.6144 11.5892 20.6059 11.5808 20.5974 11.5724C20.589 11.5724 20.5889 11.564 20.5805 11.564C20.572 11.5557 20.572 11.5557 20.5635 11.5473C20.5296 11.5137 20.4872 11.4886 20.4533 11.455C20.4109 11.4215 20.377 11.3963 20.3347 11.3628C20.2753 11.3125 20.2075 11.2706 20.1482 11.2203C20.1312 11.2119 20.1143 11.1951 20.0973 11.1867C20.0549 11.1616 20.0126 11.128 19.9786 11.1029C19.9363 11.0777 19.8939 11.0442 19.843 11.019C19.8261 11.0107 19.8091 10.9939 19.7922 10.9855C19.7752 10.9771 19.7667 10.9687 19.7498 10.9604C19.7328 10.952 19.7074 10.9352 19.6904 10.9268C19.6142 10.8765 19.5379 10.8346 19.4616 10.7927C19.4192 10.7675 19.3768 10.7424 19.326 10.7256C19.2836 10.7004 19.2327 10.6837 19.1903 10.6585C19.0971 10.6166 19.0039 10.5747 18.9191 10.5327C18.7326 10.4573 18.5376 10.3818 18.3427 10.3231C18.2918 10.3064 18.241 10.2896 18.1986 10.2812C18.1477 10.2644 18.0969 10.2561 18.046 10.2393H18.0375C17.9952 10.2309 17.9443 10.2141 17.9019 10.2058C17.8511 10.1974 17.8002 10.1806 17.7493 10.1722C17.3425 10.0884 16.9271 10.0465 16.4948 10.0465C16.0625 10.0465 15.6472 10.0884 15.2403 10.1722C15.1894 10.1806 15.1386 10.189 15.0877 10.2058C15.0369 10.2141 14.986 10.2309 14.9352 10.2393C14.8843 10.2477 14.8334 10.2644 14.7826 10.2812C14.7317 10.298 14.6809 10.3064 14.6385 10.3231C14.4435 10.3818 14.2486 10.4489 14.0621 10.5327C13.9688 10.5747 13.8756 10.6166 13.7908 10.6585C13.7485 10.6837 13.6976 10.7004 13.6552 10.7256C13.6128 10.7507 13.5704 10.7675 13.5196 10.7927C13.4433 10.8346 13.367 10.8765 13.2907 10.9268C13.2738 10.9352 13.2568 10.9436 13.2399 10.9604L13.189 10.9939C13.1721 11.0023 13.1636 11.0107 13.1466 11.019C13.0958 11.0442 13.0534 11.0777 13.0025 11.1113C12.9601 11.1364 12.9178 11.17 12.8754 11.1951C12.7906 11.2538 12.7143 11.3125 12.638 11.3712C12.5957 11.4047 12.5617 11.4299 12.5194 11.4634C12.4855 11.4886 12.46 11.5137 12.4261 11.5389C12.4092 11.5473 12.3922 11.564 12.3837 11.5808C12.3753 11.5892 12.3668 11.5892 12.3668 11.5976L12.3329 11.6311C12.3075 11.6479 12.2905 11.673 12.2651 11.6898C12.2396 11.715 12.2142 11.7317 12.1888 11.7569C12.1125 11.824 12.0447 11.891 11.9769 11.9665C11.9514 11.9916 11.9345 12.0168 11.9091 12.0336C11.8921 12.0587 11.8667 12.0755 11.8497 12.1006C11.8328 12.1174 11.8158 12.1342 11.7989 12.1593C11.7819 12.1845 11.7565 12.2013 11.7395 12.2264C11.7311 12.2348 11.7226 12.2516 11.7056 12.2599C11.6971 12.2683 11.6887 12.2851 11.6802 12.2935C11.6463 12.327 11.6209 12.3689 11.587 12.4109C11.5531 12.4528 11.5276 12.4863 11.4937 12.5283C11.4598 12.5702 11.4344 12.6121 11.4005 12.6456C11.375 12.6876 11.3411 12.7295 11.3157 12.7714C11.2733 12.8301 11.2394 12.8888 11.197 12.9559C11.1801 12.9894 11.1547 13.0229 11.1377 13.0565C11.0868 13.1319 11.0445 13.2074 11.0106 13.2829C10.9851 13.3248 10.9597 13.3667 10.9427 13.417C10.9343 13.4422 10.9173 13.4589 10.9088 13.4841C10.9004 13.5092 10.8834 13.526 10.8749 13.5512C10.8665 13.5679 10.858 13.5847 10.8495 13.6015C10.841 13.6266 10.8241 13.6518 10.8156 13.6853C10.7986 13.7272 10.7732 13.7775 10.7563 13.8195C10.68 14.0039 10.6037 14.1968 10.5444 14.3896C10.5274 14.4399 10.5104 14.4818 10.502 14.5321C10.485 14.5824 10.4765 14.6327 10.4596 14.6831C10.4511 14.7082 10.4426 14.7334 10.4426 14.7585C10.4342 14.7837 10.4342 14.8088 10.4257 14.834C10.4172 14.8591 10.4172 14.8759 10.4087 14.9011C10.4003 14.9262 10.4003 14.9514 10.3918 14.9849C10.307 15.3874 10.2646 15.7982 10.2646 16.2258C10.2646 16.2761 10.2646 16.318 10.2646 16.3683C10.2646 16.3851 10.2646 16.3935 10.2646 16.4103C10.2646 16.4354 10.2646 16.4606 10.2646 16.4857C10.2646 16.5109 10.2646 16.5276 10.2646 16.5528C10.2646 16.5696 10.2646 16.5863 10.2646 16.6031C10.2646 16.6199 10.2646 16.6366 10.2646 16.6534C10.2646 16.6618 10.2646 16.6786 10.2646 16.6869C10.2646 16.6869 10.2646 16.6869 10.2646 16.6953C10.2646 16.7121 10.2646 16.7289 10.2646 16.7456C10.2646 16.7876 10.2731 16.8379 10.2816 16.8798C10.2901 16.9469 10.2985 17.0139 10.307 17.081C10.3155 17.1481 10.324 17.2152 10.3409 17.2822C10.3409 17.3074 10.3494 17.3242 10.3494 17.3493C10.3579 17.3912 10.3663 17.4248 10.3748 17.4667C10.3833 17.517 10.3918 17.5673 10.4087 17.6176C10.4172 17.6428 10.4172 17.6679 10.4257 17.6931C10.4342 17.7182 10.4342 17.7434 10.4426 17.7685C10.4596 17.8188 10.4681 17.8692 10.485 17.9195C10.502 17.9698 10.5104 18.0201 10.5274 18.062C10.5444 18.1039 10.5613 18.1542 10.5783 18.2045C10.6037 18.28 10.6291 18.3471 10.6545 18.4141C10.68 18.4812 10.7054 18.5567 10.7393 18.6238C10.7563 18.6657 10.7817 18.716 10.7986 18.7579C10.8071 18.7831 10.8156 18.7998 10.8326 18.825C10.841 18.8501 10.8495 18.8669 10.8665 18.8921C10.8749 18.9172 10.8919 18.934 10.9004 18.9591C10.9088 18.9843 10.9258 19.0011 10.9343 19.0262C10.9597 19.0681 10.9767 19.1184 11.0021 19.1604C11.0445 19.2358 11.0868 19.3113 11.1292 19.3867C11.1462 19.4203 11.1716 19.4538 11.1886 19.4874C11.2309 19.546 11.2649 19.6047 11.3072 19.6718C11.3327 19.7137 11.3666 19.7557 11.392 19.7976C11.4259 19.8395 11.4513 19.8814 11.4852 19.915C11.5107 19.9569 11.5446 19.9904 11.5785 20.0323C11.5954 20.0491 11.6124 20.0743 11.6293 20.091C11.6463 20.1078 11.6632 20.133 11.6717 20.1497L11.6802 20.1581L11.6887 20.1665C11.7056 20.1833 11.7226 20.2084 11.7395 20.2252C11.7565 20.242 11.7734 20.2671 11.7904 20.2839C11.8243 20.3258 11.8582 20.3593 11.8921 20.4013C11.9175 20.4264 11.9345 20.4516 11.9599 20.4767C11.9853 20.5019 12.0108 20.527 12.0362 20.5522C12.0447 20.5606 12.0532 20.5689 12.0616 20.5773C12.0447 20.5606 12.0362 20.5522 12.0277 20.5354C12.0108 20.5186 11.9938 20.4935 11.9769 20.4767C11.9514 20.4516 11.926 20.418 11.9006 20.3929C11.8667 20.351 11.8412 20.3174 11.8073 20.2755C11.748 20.2 11.6887 20.1162 11.6293 20.0407C11.6039 19.9988 11.57 19.9569 11.5446 19.915C11.5022 19.8563 11.4598 19.7976 11.4259 19.7305C11.4089 19.697 11.3835 19.6634 11.3666 19.6299C11.3242 19.5544 11.2818 19.479 11.2394 19.4035C11.214 19.3616 11.1886 19.3197 11.1716 19.2694C11.1462 19.2274 11.1292 19.1771 11.1038 19.1352C11.0614 19.043 11.019 18.9507 10.9767 18.8669C10.9004 18.6824 10.8241 18.4896 10.7647 18.2968C10.7478 18.2465 10.7308 18.1961 10.7224 18.1542C10.7054 18.1039 10.6969 18.0536 10.68 18.0033C10.663 17.953 10.6545 17.9027 10.6461 17.8524C10.6376 17.8021 10.6206 17.7518 10.6122 17.7015C10.6037 17.6595 10.5952 17.626 10.5867 17.5841C10.5867 17.5589 10.5783 17.5422 10.5783 17.517C10.5444 17.3409 10.5274 17.1565 10.5104 16.9804C10.5104 16.9636 10.5104 16.9469 10.5104 16.9301C10.5104 16.9301 10.5104 16.9301 10.5104 16.9217C10.5104 16.9133 10.5104 16.8966 10.5104 16.8882C10.5104 16.8546 10.5104 16.8211 10.502 16.7876C10.502 16.7456 10.4935 16.6953 10.4935 16.6534C10.4935 16.6366 10.4935 16.6283 10.4935 16.6115C10.4935 16.5696 10.4935 16.5193 10.4935 16.4689C10.4935 16.0413 10.5359 15.6305 10.6206 15.228C10.6291 15.1777 10.6376 15.1274 10.6545 15.0771C10.663 15.0268 10.68 14.9765 10.6885 14.9262C10.6969 14.8759 10.7139 14.8256 10.7308 14.7753C10.7478 14.725 10.7563 14.6747 10.7732 14.6328C10.8326 14.4399 10.9004 14.2471 10.9851 14.0626C11.0275 13.9704 11.0699 13.8781 11.1123 13.7943C11.1377 13.7524 11.1547 13.7021 11.1801 13.6602C11.2055 13.6182 11.2225 13.5763 11.2479 13.526C11.2903 13.4505 11.3327 13.3751 11.375 13.2996C11.392 13.2661 11.4174 13.2325 11.4344 13.199C11.4768 13.1403 11.5107 13.0816 11.553 13.0145C11.5785 12.9726 11.6124 12.9307 11.6378 12.8888C11.6971 12.8049 11.7565 12.7295 11.8158 12.654C11.8497 12.6121 11.8752 12.5786 11.9091 12.5366C11.9514 12.4863 11.9853 12.4444 12.0277 12.4025C12.0447 12.3857 12.0616 12.3689 12.0786 12.3438C12.0955 12.3186 12.121 12.3019 12.1379 12.2767C12.1634 12.2516 12.1803 12.2264 12.2057 12.2096C12.2735 12.1342 12.3414 12.0671 12.4176 12C12.4431 11.9749 12.4685 11.9581 12.4939 11.933C12.5194 11.9162 12.5363 11.891 12.5617 11.8743C12.5787 11.8575 12.5957 11.8407 12.6126 11.824C12.655 11.782 12.7058 11.7485 12.7482 11.7066C12.7906 11.673 12.8245 11.6479 12.8669 11.6143C12.9432 11.5557 13.028 11.497 13.1042 11.4383C13.1466 11.4131 13.189 11.3796 13.2314 11.3544C13.2907 11.3125 13.3501 11.279 13.4179 11.237C13.4518 11.2203 13.4857 11.1951 13.5196 11.1784C13.5959 11.1364 13.6722 11.0861 13.7485 11.0442C13.7908 11.019 13.8332 10.9939 13.8841 10.9771C13.9265 10.952 13.9773 10.9352 14.0197 10.9101C14.1129 10.8681 14.2062 10.8262 14.2909 10.7843C14.4774 10.7088 14.6724 10.6334 14.8673 10.5747C14.9182 10.5579 14.9691 10.5411 15.0114 10.5327C15.0623 10.516 15.1132 10.5076 15.1555 10.4908C15.2064 10.4741 15.2573 10.4657 15.3081 10.4573C15.359 10.4489 15.4098 10.4321 15.4607 10.4238C15.8676 10.3399 16.2829 10.298 16.7152 10.298C17.1475 10.298 17.5629 10.3399 17.9697 10.4238C18.0206 10.4321 18.0714 10.4405 18.1223 10.4573C18.1732 10.4657 18.2155 10.4824 18.2579 10.4908H18.2664C18.3173 10.5076 18.3681 10.516 18.419 10.5327C18.4698 10.5495 18.5207 10.5579 18.5631 10.5747C18.758 10.6334 18.953 10.7004 19.1395 10.7843C19.2327 10.8262 19.326 10.8681 19.4107 10.9101C19.4531 10.9352 19.504 10.952 19.5463 10.9771C19.5887 11.0023 19.6311 11.0274 19.682 11.0442C19.7583 11.0861 19.8345 11.128 19.9108 11.1784C19.9447 11.1951 19.9786 11.2203 20.0126 11.237C20.0719 11.279 20.1397 11.3125 20.199 11.3544C20.2414 11.3796 20.2838 11.4131 20.3262 11.4383C20.4109 11.497 20.4872 11.5557 20.5635 11.6143C20.6059 11.6479 20.6398 11.673 20.6822 11.7066C20.733 11.7485 20.7754 11.782 20.8263 11.824C20.8432 11.8407 20.8602 11.8575 20.8771 11.8743C20.9026 11.891 20.9195 11.9162 20.945 11.933C20.9704 11.9581 20.9958 11.9749 21.0212 12C21.0721 12.0336 21.106 12.0671 21.1314 12.0923C21.1399 12.0923 21.1399 12.1006 21.1314 12.0923ZM25.9037 9.79492C25.9037 9.78653 25.8952 9.78653 25.8952 9.77815C25.8952 9.77815 25.8952 9.76976 25.8867 9.76976C25.5816 9.36731 25.2595 8.98163 24.9035 8.62109C26.7344 10.6166 27.8533 13.2661 27.8533 16.1671V16.2342C27.8533 16.6115 27.8363 16.972 27.7939 17.3409C27.6837 18.5148 27.3786 19.6299 26.9293 20.6612C26.1495 22.4638 24.9035 24.0233 23.3438 25.1888C23.1743 25.3146 23.0047 25.4403 22.8267 25.5493C22.6742 25.608 22.5216 25.6835 22.386 25.7673C22.3605 25.7841 22.3351 25.7925 22.3181 25.8092C22.2673 25.8428 22.2164 25.8679 22.1656 25.9015C22.0978 25.9434 22.0384 25.9769 21.9621 26.0105C21.9198 26.0356 21.8774 26.0608 21.835 26.0775C21.8011 26.0943 21.7757 26.1111 21.7502 26.1278C21.7163 26.1446 21.6909 26.1614 21.657 26.1781C21.6231 26.1949 21.5807 26.2117 21.5468 26.2368C21.5298 26.2452 21.5044 26.2536 21.4875 26.2704C21.4451 26.2955 21.3942 26.3123 21.3518 26.3375C21.2247 26.3961 21.0975 26.4548 20.9704 26.5135C20.9111 26.5387 20.8432 26.5638 20.7839 26.589C20.7246 26.6141 20.6568 26.6393 20.5974 26.6644C20.5381 26.6896 20.4788 26.7064 20.4194 26.7315C20.3008 26.7734 20.1821 26.8154 20.0719 26.8573C19.9532 26.8992 19.843 26.9328 19.7328 26.9663C19.6481 26.9914 19.5633 27.0166 19.4785 27.0417C19.4362 27.0501 19.4022 27.0585 19.3683 27.0753C19.326 27.0837 19.2921 27.0921 19.2581 27.1004C19.1056 27.1424 18.9615 27.1759 18.8258 27.2011C18.1647 27.3436 17.317 27.4694 16.3253 27.461C16.1473 27.461 15.9778 27.4526 15.8082 27.4442C15.7828 27.4442 15.7489 27.4442 15.7235 27.4442C15.715 27.4442 15.7065 27.4442 15.698 27.4442C15.6811 27.4442 15.6641 27.4442 15.6557 27.4442H15.6472C15.5878 27.4442 15.5285 27.4358 15.4692 27.4274C15.3759 27.4191 15.2912 27.4107 15.2064 27.4023C15.2064 27.4023 15.2064 27.4023 15.1979 27.4023H15.1894C15.0793 27.3939 14.9775 27.3771 14.8758 27.3604C14.825 27.352 14.7826 27.3436 14.7317 27.3436C14.6385 27.3268 14.5537 27.3184 14.4605 27.3017H14.452C14.3672 27.2849 14.274 27.2681 14.1977 27.2597C14.1129 27.243 14.0282 27.2262 13.9434 27.2094C13.8756 27.1927 13.8163 27.1843 13.7485 27.1675C13.7061 27.1591 13.6637 27.1507 13.6213 27.134C13.562 27.1172 13.4942 27.1004 13.4348 27.0921C13.3585 27.0753 13.2822 27.0501 13.206 27.0334C13.189 27.025 13.1636 27.025 13.1466 27.0166C13.0958 26.9998 13.0364 26.9831 12.9771 26.9663C12.9432 26.9579 12.9093 26.9495 12.8754 26.9327C12.8415 26.9244 12.8076 26.916 12.7737 26.8992C12.7313 26.8908 12.6974 26.8741 12.655 26.8657H12.6465C12.5787 26.8405 12.5109 26.8238 12.4516 26.7986C12.3753 26.7734 12.299 26.7483 12.2312 26.7148C12.2142 26.7148 12.2057 26.7064 12.1888 26.698C12.1294 26.6728 12.0786 26.6561 12.0193 26.6309C11.926 26.589 11.8243 26.5554 11.7311 26.5135C11.6548 26.48 11.587 26.4465 11.5107 26.4129C11.4429 26.3794 11.3666 26.3458 11.2988 26.3123C11.2818 26.3039 11.2733 26.3039 11.2564 26.2955C11.1886 26.262 11.1208 26.2285 11.0529 26.1949C10.9767 26.153 10.9088 26.1195 10.8326 26.0775C10.7563 26.0356 10.6885 25.9937 10.6122 25.9602C10.5359 25.9098 10.4511 25.8679 10.3748 25.8176C10.307 25.7757 10.2477 25.7422 10.1799 25.7002C9.69671 25.39 9.14574 25.2391 8.59477 25.2391C8.00988 25.2391 7.42501 25.4152 6.9249 25.7673C6.84861 25.8176 6.77232 25.8763 6.71299 25.935C6.6706 25.9769 6.61974 26.0105 6.57736 26.0524C6.55193 26.0692 6.53498 26.0943 6.50955 26.1195C5.97553 26.6644 5.68734 27.3939 5.69581 28.1233C5.69581 28.1569 5.69581 28.1904 5.69581 28.2156C5.69581 28.2407 5.69581 28.2575 5.69581 28.2826C5.69581 28.2994 5.69581 28.3246 5.69581 28.3413C5.69581 28.3665 5.69581 28.3833 5.70429 28.4084C5.70429 28.4336 5.71276 28.4587 5.71276 28.4923C5.72124 28.5593 5.72972 28.618 5.74667 28.6851C5.74667 28.7019 5.75515 28.7186 5.75515 28.7354C5.76362 28.7857 5.78058 28.836 5.78905 28.8863C5.82296 29.0037 5.85686 29.1127 5.90772 29.2217C5.94163 29.272 5.97553 29.3307 6.00096 29.381C5.7721 28.5426 5.83143 27.7796 6.04335 27.3184C6.22135 26.9495 6.67908 26.4297 6.73842 26.371C6.77232 26.3375 6.79775 26.3039 6.79775 26.3039C6.84013 26.262 6.88252 26.2201 6.93337 26.1865C7.00119 26.1278 7.07747 26.0692 7.14529 26.0188C7.6454 25.6667 8.23027 25.4906 8.81516 25.4906C9.36612 25.4906 9.91709 25.6415 10.4003 25.9518C10.4681 25.9937 10.5274 26.0356 10.5952 26.0692C10.6715 26.1195 10.7478 26.1614 10.8326 26.2117C10.9088 26.2536 10.9767 26.2955 11.0529 26.3375C11.1292 26.3794 11.197 26.4213 11.2733 26.4548C11.3411 26.4884 11.4089 26.5219 11.4768 26.5554C11.4937 26.5638 11.5022 26.5722 11.5191 26.5722C11.587 26.6058 11.6548 26.6393 11.7311 26.6728C11.8073 26.7064 11.8752 26.7399 11.9514 26.7734C12.0447 26.8154 12.1379 26.8573 12.2396 26.8908C12.2905 26.916 12.3498 26.9328 12.4092 26.9579C12.4176 26.9663 12.4346 26.9663 12.4516 26.9747C12.5278 26.9998 12.5957 27.0334 12.6719 27.0585C12.7398 27.0837 12.8076 27.1004 12.8669 27.1256H12.8754C12.9178 27.1424 12.9517 27.1507 12.994 27.1675C13.028 27.1759 13.0619 27.1927 13.0958 27.2011C13.1297 27.2094 13.1636 27.2178 13.1975 27.2346C13.2568 27.2514 13.3077 27.2681 13.367 27.2849C13.384 27.2933 13.4009 27.2933 13.4263 27.3017C13.5026 27.3184 13.5789 27.3436 13.6552 27.3604C13.7145 27.3771 13.7739 27.3939 13.8417 27.4023C13.8841 27.4107 13.9265 27.4274 13.9688 27.4358C14.0367 27.4526 14.096 27.4694 14.1638 27.4777C14.2486 27.4945 14.3249 27.5113 14.4181 27.528C14.5029 27.5448 14.5876 27.5616 14.6809 27.5784H14.6893C14.7741 27.5951 14.8673 27.6035 14.9606 27.6203C15.0114 27.6287 15.0538 27.637 15.1047 27.637C15.2064 27.6538 15.3081 27.6622 15.4183 27.679H15.4268C15.4268 27.679 15.4268 27.679 15.4353 27.679C15.52 27.6874 15.6133 27.6957 15.698 27.7041C15.7574 27.7125 15.8167 27.7125 15.876 27.7209H15.8845C15.9015 27.7209 15.9184 27.7209 15.9354 27.7209C15.9439 27.7209 15.9523 27.7209 15.9608 27.7209C15.9862 27.7209 16.0201 27.7209 16.0456 27.7209C16.2151 27.7293 16.3846 27.7293 16.5626 27.7293C17.5544 27.7377 18.402 27.6119 19.0632 27.4694C19.1988 27.4442 19.3429 27.4107 19.4955 27.3687C19.5294 27.3604 19.5718 27.352 19.6057 27.3436C19.6396 27.3352 19.682 27.3268 19.7159 27.3101C19.8006 27.2849 19.8769 27.2597 19.9617 27.243C20.0719 27.2094 20.1821 27.1759 20.3008 27.134C20.4109 27.1004 20.5296 27.0585 20.6483 27.0082C20.7076 26.9831 20.767 26.9663 20.8263 26.9411C20.8856 26.916 20.945 26.8908 21.0128 26.8657C21.0721 26.8405 21.1399 26.8154 21.1993 26.7902C21.3264 26.7315 21.4535 26.6812 21.5807 26.6141C21.6231 26.5974 21.6739 26.5722 21.7163 26.5471C21.7333 26.5387 21.7587 26.5303 21.7757 26.5219C21.8096 26.5051 21.8519 26.4884 21.8858 26.4632C21.9198 26.4465 21.9452 26.4297 21.9791 26.4129C22.013 26.3961 22.0384 26.3794 22.0723 26.3626C22.1147 26.3375 22.1571 26.3207 22.1995 26.2955C22.2673 26.262 22.3351 26.2201 22.3944 26.1865C22.4453 26.1614 22.4962 26.1278 22.547 26.0943C22.5724 26.0775 22.5894 26.0692 22.6148 26.0524C22.7589 25.9685 22.9115 25.8931 23.0556 25.8344C23.2336 25.717 23.4031 25.5996 23.5727 25.4655C23.6066 25.4403 23.6405 25.4152 23.6829 25.3816C25.0645 24.3168 26.1919 22.9501 26.9632 21.3739C27.0311 21.2313 27.0989 21.0804 27.1667 20.9379C27.6159 19.8982 27.9126 18.7831 28.0313 17.6176C28.0652 17.2571 28.0821 16.8882 28.0821 16.5109V16.4438C28.0906 13.9452 27.2769 11.6563 25.9037 9.79492Z" fill="black"/>
<path d="M56.0056 13.1719H47.9868V15.6704H50.7926L45.5117 29.1694H49.6567L50.8265 26.0588H56.8871L58.0314 29.1694H62.2781L56.0056 13.1719ZM51.8521 22.9565L53.8526 17.4396L55.8276 22.9565H51.8521Z" fill="black"/>
<path d="M72.34 17.3716V19.0066C71.806 18.1262 70.5684 17.0781 68.6612 17.0781C65.6267 17.0781 63.2617 19.2832 63.2617 23.0059C63.2617 26.737 65.6267 28.917 68.6612 28.917C70.3904 28.917 71.5856 28.0534 72.1789 27.2317V28.3217C72.1789 30.4094 70.4328 31.0718 68.7799 31.0718C67.1694 31.0718 65.7199 30.619 64.4145 29.7303V32.799C65.6351 33.5033 67.2372 33.956 69.4665 33.956C73.1198 33.956 76.0612 32.0444 76.0612 28.3888V17.3716H72.34ZM72.1789 25.0517C71.4669 25.689 70.6617 25.9824 69.7462 25.9824C68.1781 25.9824 67.1948 24.8254 67.1948 23.0059C67.1948 21.1865 68.1865 20.0546 69.7462 20.0546C70.6617 20.0546 71.4669 20.3481 72.1789 20.9853V25.0517Z" fill="black"/>
<path d="M80.0759 19.8732H77.6602V17.3746H83.7971V19.4456C84.3057 18.2382 85.5007 17.2656 87.3994 17.2656C87.7893 17.2656 88.2047 17.3327 88.4081 17.4249V20.7871C88.0606 20.6949 87.4927 20.6026 86.9163 20.6026C85.4922 20.6026 84.5515 21.0135 83.9751 21.5585V29.1716H80.0675L80.0759 19.8732Z" fill="black"/>
<path d="M96.2504 17.0781C92.453 17.0781 89.5625 19.5348 89.5625 23.2575C89.5625 27.0053 92.4614 29.462 96.2504 29.462C99.9716 29.462 102.887 27.0053 102.887 23.2575C102.887 19.5264 99.9716 17.0781 96.2504 17.0781ZM96.2504 26.3681C94.6399 26.3681 93.4871 25.0685 93.4956 23.2575C93.4956 21.4548 94.6399 20.1636 96.2504 20.1636C97.8355 20.1636 98.9798 21.4632 98.9798 23.2575C98.9798 25.0769 97.8355 26.3681 96.2504 26.3681Z" fill="black"/>
<path d="M105.227 17.3723V28.9681C105.227 30.2844 104.608 30.9216 103.506 30.9216C102.998 30.9216 102.659 30.8126 102.379 30.6952V33.6047C102.701 33.7388 103.557 33.9652 104.473 33.9652C107.414 33.9652 109.135 32.2128 109.135 29.4627V17.3723H105.227ZM107.16 11.9141C105.939 11.9141 104.973 12.7777 104.981 13.8928C104.981 15.0331 105.939 15.8715 107.16 15.8715C108.397 15.8715 109.363 15.0247 109.363 13.8928C109.363 12.7777 108.397 11.9141 107.16 11.9141Z" fill="black"/>
<path d="M118.137 17.0781C114.34 17.0781 111.449 19.5348 111.449 23.2575C111.449 27.0053 114.348 29.462 118.137 29.462C121.858 29.462 124.774 27.0053 124.774 23.2575C124.774 19.5264 121.858 17.0781 118.137 17.0781ZM118.137 26.3681C116.527 26.3681 115.382 25.0685 115.382 23.2575C115.382 21.4548 116.527 20.1636 118.137 20.1636C119.722 20.1636 120.867 21.4632 120.867 23.2575C120.867 25.0769 119.722 26.3681 118.137 26.3681Z" fill="black"/>
<path d="M134.591 17.0799C132.913 17.0799 131.785 17.8932 131.167 18.7149V12.6445H124.801V15.1431H127.267V29.1619H130.989V27.5521C131.54 28.466 132.735 29.4638 134.591 29.4638C137.6 29.4638 139.965 27.1413 139.965 23.2593C139.965 19.394 137.6 17.0799 134.591 17.0799ZM133.481 26.3699C132.608 26.3699 131.828 26.1184 131.158 25.5231V21.0038C131.828 20.4169 132.608 20.1654 133.481 20.1654C135.04 20.1654 136.032 21.3728 136.032 23.2593C136.032 25.1625 135.04 26.3699 133.481 26.3699Z" fill="black"/>
<path d="M146.887 26.5945C148.176 26.5945 149.049 26.3178 149.049 25.7057C149.049 25.2278 148.616 25.0434 147.464 24.8421L146.319 24.6409C143.768 24.1881 141.844 23.1149 141.844 20.8931C141.844 18.646 144.183 17.0781 147.498 17.0781C149.608 17.0781 151.261 17.5812 152.21 18.2352V21.1865C150.829 20.39 149.176 19.9372 147.659 19.9372C146.463 19.9372 145.751 20.2139 145.751 20.7589C145.751 21.2368 146.277 21.4213 147.455 21.6477L148.625 21.874C150.854 22.3016 152.965 23.1904 152.965 25.58C152.965 28.0366 150.549 29.462 147.43 29.462C145.175 29.462 143.039 28.9421 142.098 28.2798V25.2781C143.192 25.9153 145.234 26.5945 146.887 26.5945Z" fill="black"/>
</g>
<defs>
<filter id="filter0_d_2661_9891" x="-172" y="-55" width="1456" height="123" filterUnits="userSpaceOnUse" color-interpolation-filters="sRGB">
<feFlood flood-opacity="0" result="BackgroundImageFix"/>
<feColorMatrix in="SourceAlpha" type="matrix" values="0 0 0 0 0 0 0 0 0 0 0 0 0 0 0 0 0 0 127 0" result="hardAlpha"/>
<feOffset dy="4"/>
<feGaussianBlur stdDeviation="4"/>
<feColorMatrix type="matrix" values="0 0 0 0 0 0 0 0 0 0 0 0 0 0 0 0 0 0 0.06 0"/>
<feBlend mode="normal" in2="BackgroundImageFix" result="effect1_dropShadow_2661_9891"/>
<feBlend mode="normal" in="SourceGraphic" in2="effect1_dropShadow_2661_9891" result="shape"/>
</filter>
<clipPath id="clip0_2661_9891">
<rect width="153" height="41" fill="white"/>
</clipPath>
</defs>
</svg>
