<svg width="37" height="37" viewBox="0 0 37 37" fill="none" xmlns="http://www.w3.org/2000/svg">
<path d="M18.5 7C17.2144 7 15.9577 7.41054 14.8888 8.17971C13.8199 8.94888 12.9868 10.0421 12.4948 11.3212C12.0028 12.6003 11.8741 14.0078 12.1249 15.3656C12.3757 16.7235 12.9948 17.9708 13.9038 18.9497C14.8128 19.9287 15.971 20.5954 17.2319 20.8655C18.4928 21.1356 19.7997 20.997 20.9874 20.4672C22.1752 19.9373 23.1903 19.0401 23.9046 17.889C24.6188 16.7378 25 15.3845 25 14C25 12.1435 24.3152 10.363 23.0962 9.05025C21.8772 7.7375 20.2239 7 18.5 7ZM18.5 18.2C17.7287 18.2 16.9746 17.9537 16.3333 17.4922C15.6919 17.0307 15.1921 16.3747 14.8969 15.6073C14.6017 14.8398 14.5245 13.9953 14.6749 13.1806C14.8254 12.3659 15.1969 11.6175 15.7423 11.0301C16.2877 10.4428 16.9826 10.0428 17.7391 9.8807C18.4957 9.71864 19.2798 9.80182 19.9925 10.1197C20.7051 10.4376 21.3142 10.9759 21.7427 11.6666C22.1713 12.3573 22.4 13.1693 22.4 14C22.399 15.1136 21.9877 16.1812 21.2566 16.9686C20.5254 17.756 19.534 18.1989 18.5 18.2Z" fill="black"/>
<path d="M18.5 0C14.8411 0 11.2643 1.08501 8.22196 3.11781C5.17965 5.15062 2.80846 8.03992 1.40824 11.4204C0.00801574 14.8008 -0.358346 18.5205 0.355481 22.1092C1.06931 25.6978 2.83126 28.9942 5.41853 31.5815C8.0058 34.1687 11.3022 35.9307 14.8908 36.6445C18.4795 37.3583 22.1992 36.992 25.5796 35.5918C28.9601 34.1915 31.8494 31.8204 33.8822 28.778C35.915 25.7357 37 22.159 37 18.5C36.9944 13.5952 35.0435 8.89291 31.5753 5.4247C28.1071 1.95649 23.4048 0.00559588 18.5 0ZM10.5714 32.2125V30.3929C10.5725 29.3418 10.9905 28.3341 11.7337 27.5908C12.4769 26.8476 13.4846 26.4296 14.5357 26.4286H22.4643C23.5154 26.4296 24.5231 26.8476 25.2663 27.5908C26.0095 28.3341 26.4275 29.3418 26.4286 30.3929V32.2125C24.0225 33.6174 21.2863 34.3578 18.5 34.3578C15.7138 34.3578 12.9775 33.6174 10.5714 32.2125ZM29.0609 30.2951C29.0345 28.5618 28.3283 26.9082 27.0945 25.6907C25.8606 24.4731 24.1978 23.789 22.4643 23.7857H14.5357C12.8022 23.789 11.1394 24.4731 9.90555 25.6907C8.67167 26.9082 7.96549 28.5618 7.93915 30.2951C5.54282 28.1553 3.85294 25.3382 3.09325 22.2167C2.33357 19.0952 2.53992 15.8166 3.68499 12.815C4.83006 9.81342 6.85983 7.23042 9.50553 5.40803C12.1512 3.58565 15.2881 2.60985 18.5007 2.60985C21.7133 2.60985 24.8501 3.58565 27.4958 5.40803C30.1415 7.23042 32.1713 9.81342 33.3163 12.815C34.4614 15.8166 34.6678 19.0952 33.9081 22.2167C33.1484 25.3382 31.4585 28.1553 29.0622 30.2951H29.0609Z" fill="black"/>
</svg>
