<svg width="26" height="26" viewBox="0 0 26 26" fill="none" xmlns="http://www.w3.org/2000/svg">
<circle cx="13" cy="13" r="13" fill="white"/>
<path d="M11.4167 9.72H11.3333C11.3792 9.72 11.4167 9.684 11.4167 9.64V9.72H14.5833V9.64C14.5833 9.684 14.6208 9.72 14.6667 9.72H14.5833V10.44H15.3333V9.64C15.3333 9.287 15.0344 9 14.6667 9H11.3333C10.9656 9 10.6667 9.287 10.6667 9.64V10.44H11.4167V9.72ZM16.6667 10.44H9.33333C9.14896 10.44 9 10.583 9 10.76V11.08C9 11.124 9.0375 11.16 9.08333 11.16H9.7125L9.96979 16.39C9.98646 16.731 10.2802 17 10.6354 17H15.3646C15.7208 17 16.0135 16.732 16.0302 16.39L16.2875 11.16H16.9167C16.9625 11.16 17 11.124 17 11.08V10.76C17 10.583 16.851 10.44 16.6667 10.44ZM15.2844 16.28H10.7156L10.4635 11.16H15.5365L15.2844 16.28Z" fill="#3E3E3E"/>
</svg>
