<svg width="67" height="61" viewBox="0 0 67 61" fill="none" xmlns="http://www.w3.org/2000/svg">
<path d="M66 30.5C66 46.7062 51.5396 60 33.5 60C15.4604 60 1 46.7062 1 30.5C1 14.2938 15.4604 1 33.5 1C51.5396 1 66 14.2938 66 30.5Z" fill="white" stroke="#C3CAD4" stroke-width="2"/>
<path d="M33.5 37C36.1924 37 38.375 34.8174 38.375 32.125C38.375 29.4326 36.1924 27.25 33.5 27.25C30.8076 27.25 28.625 29.4326 28.625 32.125C28.625 34.8174 30.8076 37 33.5 37Z" stroke="#C3CAD4" stroke-width="2" stroke-linecap="round" stroke-linejoin="round"/>
<path d="M33.5 17.5H30.25C29.819 17.5 29.4057 17.6712 29.101 17.976C28.7962 18.2807 28.625 18.694 28.625 19.125C28.625 19.987 28.2826 20.8136 27.6731 21.4231C27.0636 22.0326 26.237 22.375 25.375 22.375H22.125C21.263 22.375 20.4364 22.7174 19.8269 23.3269C19.2174 23.9364 18.875 24.763 18.875 25.625V40.25C18.875 41.112 19.2174 41.9386 19.8269 42.5481C20.4364 43.1576 21.263 43.5 22.125 43.5H44.875C45.737 43.5 46.5636 43.1576 47.1731 42.5481C47.7826 41.9386 48.125 41.112 48.125 40.25V28.875" stroke="#C3CAD4" stroke-width="2" stroke-linecap="round" stroke-linejoin="round"/>
<path d="M38.375 20.75H48.125" stroke="#C3CAD4" stroke-width="2" stroke-linecap="round" stroke-linejoin="round"/>
<path d="M43.25 15.875V25.625" stroke="#C3CAD4" stroke-width="2" stroke-linecap="round" stroke-linejoin="round"/>
</svg>
