<svg width="28" height="26" viewBox="0 0 28 26" fill="none" xmlns="http://www.w3.org/2000/svg">
<path d="M25.5652 6.19048H21.7061L19.4783 3.71429H12.1739V6.19048H18.407L20.6348 8.66667H25.5652V23.5238H6.08696V12.381H3.65217V23.5238C3.65217 24.8857 4.74783 26 6.08696 26H25.5652C26.9043 26 28 24.8857 28 23.5238V8.66667C28 7.30476 26.9043 6.19048 25.5652 6.19048ZM9.73913 16.0952C9.73913 19.5124 12.4661 22.2857 15.8261 22.2857C19.1861 22.2857 21.913 19.5124 21.913 16.0952C21.913 12.6781 19.1861 9.90476 15.8261 9.90476C12.4661 9.90476 9.73913 12.6781 9.73913 16.0952ZM15.8261 12.381C17.8348 12.381 19.4783 14.0524 19.4783 16.0952C19.4783 18.1381 17.8348 19.8095 15.8261 19.8095C13.8174 19.8095 12.1739 18.1381 12.1739 16.0952C12.1739 14.0524 13.8174 12.381 15.8261 12.381ZM6.08696 6.19048H9.73913V3.71429H6.08696V0H3.65217V3.71429H0V6.19048H3.65217V9.90476H6.08696V6.19048Z" fill="white"/>
</svg>
