<svg width="205" height="46" viewBox="0 0 205 46" fill="none" xmlns="http://www.w3.org/2000/svg">
<path fill-rule="evenodd" clip-rule="evenodd" d="M0 45.6308H59.758V16.4277L29.879 45.6307L3.5825e-05 16.4277L0 45.6308Z" fill="#00CD69"/>
<path d="M82.4502 0.847924H96.0448V5.18922H87.4304V8.37284H95.2641V12.7141H87.4304V19.2656H82.4502V0.847924ZM97.4049 12.9509C97.4049 11.7757 97.6202 10.7364 98.0509 9.83312C98.4816 8.92978 99.047 8.22813 99.7469 7.72823C100.447 7.22832 101.174 6.8556 101.927 6.61004C102.681 6.36448 103.435 6.24169 104.189 6.24169C105.265 6.24169 106.226 6.39957 107.069 6.71526C107.913 7.03098 108.581 7.452 109.075 7.97819C109.568 8.50439 109.967 9.11396 110.273 9.80679C110.578 10.4997 110.726 11.2276 110.717 11.9906C110.708 12.7536 110.631 13.521 110.488 14.2928H102.035C102.52 15.5908 103.893 16.2398 106.154 16.2398C107.536 16.2398 108.774 16.0381 109.869 15.6347V18.9499C108.505 19.4234 106.908 19.6602 105.077 19.6602C102.87 19.6602 101.039 19.0682 99.5853 17.8843C98.1317 16.7003 97.4049 15.0558 97.4049 12.9509ZM106.315 11.6091C106.405 11.1881 106.293 10.7277 105.979 10.2278C105.665 9.72786 105.104 9.4779 104.296 9.4779C103.65 9.4779 103.103 9.67086 102.654 10.0568C102.206 10.4426 101.981 10.9601 101.981 11.6091H106.315ZM116.885 8.34655C117.98 6.78543 119.667 6.12765 121.946 6.3732V10.7145C121.031 10.5216 120.147 10.5523 119.295 10.8066C118.442 11.0609 117.818 11.4863 117.424 12.0827V19.2656H112.847V6.63634H116.885V8.34655ZM128.132 19.2656H123.556V6.63634H127.594V7.97819C127.989 7.52213 128.541 7.11866 129.25 6.76788C129.959 6.41708 130.735 6.24169 131.578 6.24169C133.301 6.24169 134.575 6.82051 135.401 7.97819C136.675 6.82051 138.048 6.24169 139.52 6.24169C140.435 6.24169 141.225 6.40394 141.889 6.72842C142.553 7.0529 143.046 7.48267 143.369 8.01765C143.692 8.5526 143.926 9.07884 144.069 9.59632C144.213 10.1137 144.284 10.6356 144.284 11.1618V19.2656H139.708V11.5565C139.708 11.0829 139.569 10.7145 139.291 10.4514C139.013 10.1883 138.658 10.0568 138.227 10.0568C137.528 10.0568 136.899 10.3286 136.343 10.8724V11.1618V19.2656H131.767V11.5565C131.767 11.0829 131.628 10.7145 131.349 10.4514C131.071 10.1883 130.717 10.0568 130.286 10.0568C129.443 10.0568 128.725 10.4251 128.132 11.1618V19.2656ZM146.416 12.9509C146.416 11.7757 146.632 10.7364 147.062 9.83312C147.493 8.92978 148.059 8.22813 148.758 7.72823C149.458 7.22832 150.185 6.8556 150.939 6.61004C151.693 6.36448 152.447 6.24169 153.2 6.24169C154.277 6.24169 155.237 6.39957 156.081 6.71526C156.924 7.03098 157.593 7.452 158.086 7.97819C158.58 8.50439 158.979 9.11396 159.284 9.80679C159.589 10.4997 159.737 11.2276 159.728 11.9906C159.719 12.7536 159.643 13.521 159.5 14.2928H151.047C151.531 15.5908 152.904 16.2398 155.165 16.2398C156.547 16.2398 157.786 16.0381 158.88 15.6347V18.9499C157.516 19.4234 155.919 19.6602 154.089 19.6602C151.881 19.6602 150.051 19.0682 148.597 17.8843C147.143 16.7003 146.416 15.0558 146.416 12.9509ZM155.327 11.6091C155.417 11.1881 155.304 10.7277 154.99 10.2278C154.676 9.72786 154.116 9.4779 153.308 9.4779C152.662 9.4779 152.114 9.67086 151.666 10.0568C151.217 10.4426 150.993 10.9601 150.993 11.6091H155.327ZM165.924 8.34655C167.019 6.78543 168.706 6.12765 170.985 6.3732V10.7145C170.07 10.5216 169.186 10.5523 168.333 10.8066C167.481 11.0609 166.857 11.4863 166.462 12.0827V19.2656H161.886V6.63634H165.924V8.34655ZM172.717 0.0585938H177.294V19.2656H172.717V0.0585938ZM192.324 15.661C192.324 16.1872 192.62 16.4503 193.212 16.4503C193.392 16.4503 193.562 16.424 193.724 16.3714V19.134C193.042 19.3971 192.27 19.5287 191.409 19.5287C189.973 19.5287 188.95 19.0639 188.34 18.1342C187.012 19.1516 185.513 19.6602 183.844 19.6602C182.57 19.6602 181.502 19.3094 180.641 18.6078C179.779 17.9062 179.349 16.959 179.349 15.7662C179.349 15.012 179.519 14.3498 179.86 13.7797C180.201 13.2097 180.654 12.7756 181.219 12.4774C181.785 12.1792 182.377 11.9599 182.996 11.8196C183.615 11.6793 184.266 11.6091 184.948 11.6091C185.917 11.6091 186.85 11.7056 187.748 11.8985V11.4512C187.748 10.9776 187.519 10.5961 187.061 10.3067C186.603 10.0173 185.935 9.87258 185.056 9.87258C183.692 9.87258 182.184 10.1971 180.533 10.8461V7.08364C182.292 6.52233 183.97 6.24169 185.567 6.24169C187.775 6.24169 189.453 6.689 190.601 7.58355C191.75 8.47809 192.324 9.99537 192.324 12.1353V15.661ZM184.06 15.3979C184.06 15.7487 184.203 16.0425 184.49 16.2793C184.777 16.5161 185.154 16.6345 185.621 16.6345C186.428 16.6345 187.137 16.4152 187.748 15.9767V14.2665C187.263 14.1086 186.716 14.0297 186.105 14.0297C184.742 14.0297 184.06 14.4857 184.06 15.3979ZM199.678 8.34655C200.773 6.78543 202.46 6.12765 204.739 6.3732V10.7145C203.823 10.5216 202.94 10.5523 202.087 10.8066C201.235 11.0609 200.611 11.4863 200.216 12.0827V19.2656H195.64V6.63634H199.678V8.34655Z" fill="black"/>
<path d="M99.9799 27.1582H101.918V45.5759H99.6568V31.3416L92.8999 41.2345H91.5001L84.7432 31.3416V45.5759H82.4819V27.1582H84.4202L92.2 38.5245L99.9799 27.1582ZM116.922 42.9448C116.922 43.5936 117.254 43.9183 117.918 43.9183C118.205 43.9183 118.537 43.8569 118.914 43.7341V45.4443C118.376 45.6372 117.837 45.7337 117.299 45.7337C116.061 45.7337 115.271 45.225 114.93 44.2077C113.548 45.3303 111.87 45.8916 109.896 45.8916C108.64 45.8916 107.567 45.5627 106.679 44.9049C105.791 44.2471 105.347 43.2955 105.347 42.0502C105.347 40.5592 105.916 39.4761 107.056 38.8008C108.196 38.1255 109.573 37.7878 111.188 37.7878C112.373 37.7878 113.566 37.9194 114.769 38.1825V37.7352C114.769 36.7705 114.445 36.0031 113.799 35.433C113.153 34.8629 112.247 34.5779 111.08 34.5779C109.447 34.5779 107.877 34.8936 106.37 35.5251V33.4728C108.056 32.9115 109.699 32.6309 111.296 32.6309C113.055 32.6309 114.432 33.0913 115.428 34.0122C116.424 34.9331 116.922 36.2618 116.922 37.9983V42.9448ZM107.554 41.9449C107.554 42.6466 107.828 43.1772 108.375 43.5368C108.922 43.8964 109.582 44.0761 110.354 44.0761C112.13 44.0761 113.602 43.4622 114.769 42.2344V39.919C113.548 39.6734 112.453 39.5507 111.484 39.5507C110.39 39.5507 109.461 39.7392 108.698 40.1163C107.935 40.4934 107.554 41.103 107.554 41.9449ZM132.983 45.5759H130.452L125.714 40.1558H123.184V45.5759H121.03V27.1582H123.184V38.2088H125.795L129.887 32.9466H132.391L127.491 39.2349L132.983 45.5759ZM136.489 29.0263L138.616 28.5001V32.9466H143.784V34.8936H138.616V41.4187C138.616 42.3484 138.836 42.9974 139.275 43.3657C139.715 43.7341 140.419 43.9183 141.389 43.9183C142.322 43.9183 143.273 43.7253 144.242 43.3394V45.2864C143.147 45.6723 141.99 45.8653 140.769 45.8653C139.459 45.8653 138.418 45.5188 137.647 44.826C136.875 44.1331 136.489 43.1202 136.489 41.7871V34.8936H134.066V32.9466H136.489V29.0263ZM157.491 42.9448C157.491 43.5937 157.823 43.9183 158.487 43.9183C158.774 43.9183 159.106 43.8569 159.483 43.7341V45.4443C158.944 45.6372 158.406 45.7337 157.868 45.7337C156.629 45.7337 155.84 45.225 155.499 44.2077C154.117 45.3303 152.439 45.8916 150.465 45.8916C149.208 45.8916 148.136 45.5627 147.248 44.9049C146.359 44.2471 145.915 43.2955 145.915 42.0502C145.915 40.5592 146.485 39.4761 147.625 38.8008C148.764 38.1255 150.142 37.7878 151.757 37.7878C152.941 37.7878 154.135 37.9194 155.337 38.1825V37.7352C155.337 36.7705 155.014 36.0031 154.368 35.433C153.722 34.8629 152.816 34.5779 151.649 34.5779C150.016 34.5779 148.446 34.8936 146.938 35.5251V33.4728C148.625 32.9115 150.267 32.6309 151.865 32.6309C153.623 32.6309 155.001 33.0913 155.997 34.0122C156.993 34.9331 157.491 36.2618 157.491 37.9983V42.9448ZM148.123 41.9449C148.123 42.6466 148.396 43.1772 148.944 43.5368C149.491 43.8964 150.151 44.0761 150.922 44.0761C152.699 44.0761 154.171 43.4622 155.337 42.2344V39.919C154.117 39.6734 153.022 39.5507 152.053 39.5507C150.958 39.5507 150.029 39.7392 149.267 40.1163C148.504 40.4934 148.123 41.103 148.123 41.9449ZM161.734 27.1582H163.887V34.841C165.179 33.3676 166.848 32.6309 168.894 32.6309C170.743 32.6309 172.282 33.2623 173.511 34.5252C174.74 35.7881 175.355 37.3668 175.355 39.2612C175.355 41.1556 174.74 42.7343 173.511 43.9972C172.282 45.2601 170.743 45.8916 168.894 45.8916C166.866 45.8916 165.125 45.0847 163.672 43.471V45.5759H161.734V27.1582ZM171.896 42.6553C172.766 41.7958 173.201 40.6645 173.201 39.2612C173.201 37.858 172.766 36.7266 171.896 35.8671C171.025 35.0076 169.944 34.5779 168.652 34.5779C167.557 34.5779 166.588 34.8761 165.745 35.4724C164.901 36.0688 164.282 36.8056 163.887 37.6826V40.8399C164.282 41.7169 164.901 42.4536 165.745 43.05C166.588 43.6464 167.557 43.9446 168.652 43.9446C169.944 43.9446 171.025 43.5148 171.896 42.6553ZM180.377 45.5759H178.223V32.9466H180.377V45.5759ZM180.296 27.9344C180.565 28.1711 180.7 28.5001 180.7 28.921C180.7 29.342 180.565 29.6709 180.296 29.9077C180.027 30.1445 179.695 30.2629 179.3 30.2629C178.905 30.2629 178.573 30.1445 178.304 29.9077C178.035 29.6709 177.9 29.342 177.9 28.921C177.9 28.5001 178.035 28.1712 178.304 27.9344C178.573 27.6976 178.905 27.5792 179.3 27.5792C179.695 27.5792 180.027 27.6976 180.296 27.9344Z" fill="black"/>
<path fill-rule="evenodd" clip-rule="evenodd" d="M29.8793 32.8534C39.1615 32.8534 46.6862 25.4989 46.6862 16.4267C46.6862 7.3545 39.1615 0 29.8793 0C20.597 0 13.0723 7.3545 13.0723 16.4267C13.0723 25.4989 20.597 32.8534 29.8793 32.8534Z" fill="#FFAA46"/>
</svg>
