<svg width="67" height="67" viewBox="0 0 67 67" fill="none" xmlns="http://www.w3.org/2000/svg">
<path d="M67 21.9844C67 18.8431 64.6322 16.2459 61.5881 15.8799C61.1663 11.8789 57.8719 8.72139 53.8109 8.51646C51.9082 2.93897 45.3002 0.493078 40.2148 3.56212C38.689 1.38135 36.199 0 33.5 0C30.8006 0 28.3108 1.38148 26.7856 3.56225C21.6882 0.486928 15.088 2.95022 13.1892 8.51646C9.12823 8.72139 5.83371 11.8789 5.41195 15.8799C2.36777 16.2459 0 18.8431 0 21.9844C0 24.3366 1.32783 26.3837 3.27292 27.4179C3.33364 54.6269 5.37767 61.0747 5.466 61.3395C5.49295 61.42 5.52488 61.4988 5.56192 61.5751C6.3527 63.2063 10.6581 67 33.5 67C56.3419 67 60.6473 63.2063 61.4381 61.5751C61.4751 61.4988 61.5072 61.42 61.534 61.3395C61.6222 61.0747 63.6662 54.6269 63.7271 27.4179C65.6722 26.3837 67 24.3366 67 21.9844ZM14.3736 12.4994C15.4729 12.6952 16.5206 11.9336 16.6644 10.8181C17.0079 8.15699 19.295 6.15039 21.9844 6.15039C23.5154 6.15039 24.9773 6.80704 25.9951 7.95193C27.0226 9.10755 28.9255 8.6731 29.3497 7.18614C29.8885 5.29693 31.6341 3.92578 33.5 3.92578C35.3658 3.92578 37.112 5.29732 37.6518 7.18693C38.0765 8.67401 39.9799 9.10729 41.0067 7.95128C42.0233 6.80678 43.4844 6.15039 45.0156 6.15039C47.705 6.15039 49.9921 8.15712 50.3356 10.8181C50.4787 11.9276 51.5216 12.6965 52.6264 12.4994C54.9711 12.0821 57.1315 13.6217 57.6112 15.834H9.38877C9.86837 13.6222 12.0282 12.082 14.3736 12.4994ZM6.15039 19.7598H60.8496C62.0763 19.7598 63.0742 20.7577 63.0742 21.9844C63.0742 23.2111 62.0763 24.209 60.8496 24.209H6.15039C4.92372 24.209 3.92578 23.2111 3.92578 21.9844C3.92578 20.7577 4.92372 19.7598 6.15039 19.7598ZM57.8985 59.7415C57.022 60.3856 52.2353 63.0742 33.5 63.0742C14.7647 63.0742 9.97803 60.3856 9.10153 59.7415C8.7151 58.0661 7.28088 50.3637 7.2008 28.1348H59.7992C59.7191 50.3637 58.2849 58.0661 57.8985 59.7415Z" fill="#00CD69"/>
<path d="M23.3723 58.966L25.938 56.4004H34.2851C41.8615 56.4004 48.0254 50.2365 48.0254 42.6602V33.5C48.0254 32.416 47.1465 31.5371 46.0625 31.5371H36.9023C29.326 31.5371 23.1621 37.701 23.1621 45.2773V53.6245L20.5965 56.1901C19.8299 56.9567 19.8299 58.1994 20.5965 58.966C21.3628 59.7326 22.6058 59.7327 23.3723 58.966ZM27.0879 45.2773C27.0879 39.8657 31.4906 35.4629 36.9023 35.4629H44.0996V42.6602C44.0996 48.0718 39.6968 52.4746 34.2851 52.4746H29.8638L34.313 48.0254H37.6875C38.7715 48.0254 39.6504 47.1465 39.6504 46.0625C39.6504 45.1471 39.0229 44.3804 38.1752 44.1632L39.0754 43.263C39.842 42.4964 39.842 41.2537 39.0754 40.4871C38.3089 39.7205 37.066 39.7205 36.2995 40.4871L33.3055 43.481C33.0883 42.6333 32.3216 42.0059 31.4062 42.0059C30.3222 42.0059 29.4434 42.8847 29.4434 43.9687V47.3432L27.0879 49.6987V45.2773Z" fill="#00CD69"/>
</svg>
