<svg width="59" height="74" viewBox="0 0 59 74" fill="none" xmlns="http://www.w3.org/2000/svg">
<path d="M18.1424 8.52038V29.5862M18.1424 8.52038H17.6206C15.82 8.52038 14.3604 7.06074 14.3604 5.26019V5.26019C14.3604 3.45964 15.82 2 17.6206 2H39.1091C40.9097 2 42.3693 3.45964 42.3693 5.26019V5.26019C42.3693 7.06074 40.9097 8.52038 39.1091 8.52038H39.0601M18.1424 8.52038H21.4516H39.0601M39.0601 8.52038V27.8303C39.0601 28.9871 39.3109 30.1302 39.7954 31.1807L50.7688 54.9745C54.4357 62.9256 48.6278 72 39.8718 72H17.025C8.72749 72 2.93399 63.7805 5.72344 55.9659L7.80835 50.125" stroke="#00CD69" stroke-width="4" stroke-linecap="round" stroke-linejoin="round"/>
<path d="M32.7443 72.0001C31.1659 65.0802 26.2032 50.0993 17.8691 44.4375M26.8149 55.8126C30.5566 48.8125 31.4316 42.1955 23.5566 34.8126C16.5566 28.25 7.01222 29.6168 2.11914 30.875C2.11914 39.625 5.61914 55.8126 26.8149 55.8126Z" stroke="#00CD69" stroke-width="4" stroke-linecap="round" stroke-linejoin="round"/>
</svg>
