<svg width="78" height="78" viewBox="0 0 78 78" fill="none" xmlns="http://www.w3.org/2000/svg">
<path d="M30.03 37.8144C30.03 37.0964 29.448 36.5144 28.73 36.5144C23.4546 36.5144 19.1997 37.6597 16.0823 39.9178C6.9823 46.5114 6.4623 63.3958 6.5247 68.4125C6.53324 69.1244 7.11277 69.697 7.8247 69.6969H7.8403C8.18554 69.6931 8.5151 69.5522 8.7563 69.3051C8.99749 69.0581 9.1305 68.7252 9.126 68.38C9.0857 65.0325 9.308 48.0324 17.6085 42.0199C20.2735 40.0907 24.0162 39.1118 28.7313 39.1118C29.4477 39.1111 30.0286 38.5309 30.03 37.8144Z" fill="#00CD69"/>
<path d="M35.9112 67.2919C33.2475 69.2211 29.51 70.2 24.7897 70.2C24.0717 70.2 23.4897 70.7821 23.4897 71.5C23.4897 72.218 24.0717 72.8 24.7897 72.8C30.0651 72.8 34.32 71.6547 37.4361 69.3966C37.8263 69.1296 38.0408 68.6719 37.9962 68.2012C37.9517 67.7304 37.6551 67.3211 37.2217 67.1321C36.7883 66.9431 36.2864 67.0043 35.9112 67.2919Z" fill="#00CD69"/>
<path d="M35.9112 67.2919C33.2475 69.2211 29.51 70.2 24.7897 70.2C24.0717 70.2 23.4897 70.7821 23.4897 71.5C23.4897 72.218 24.0717 72.8 24.7897 72.8C30.0651 72.8 34.32 71.6547 37.4361 69.3966C37.8263 69.1296 38.0408 68.6719 37.9962 68.2012C37.9517 67.7304 37.6551 67.3211 37.2217 67.1321C36.7883 66.9431 36.2864 67.0043 35.9112 67.2919Z" stroke="#00CD69"/>
<path d="M40.1509 3.08535C40.0504 5.01604 40.0405 8.38117 40.7858 11.9752C41.5311 15.5689 43.0351 19.4094 45.9768 22.2681C50.6692 26.8288 57.7603 27.669 62.3662 27.669C62.7294 27.669 63.0719 27.6628 63.4016 27.6532C64.2132 29.2076 64.8953 30.8263 65.4411 32.4928C65.5717 32.9181 65.6673 33.3532 65.7269 33.7938L40.3507 3.09396M40.1509 3.08535C40.1509 3.08475 40.1509 3.08415 40.151 3.08355L40.3507 3.09396M40.1509 3.08535C40.1508 3.08601 40.1508 3.08668 40.1508 3.08734L40.3507 3.09396M40.1509 3.08535C40.2079 1.39373 41.541 0.0223211 43.2303 -0.0825469M40.3507 3.09396C40.4033 1.50389 41.6566 0.214643 43.2445 0.116961M43.2303 -0.0825469C43.2297 -0.0824987 43.2291 -0.0824506 43.2285 -0.0824025L43.2445 0.116961M43.2303 -0.0825469C45.1577 -0.236635 48.5206 -0.340566 52.1336 0.304549C55.7463 0.949598 59.6271 2.3468 62.5681 5.21006M43.2303 -0.0825469C43.231 -0.0825854 43.2316 -0.0826238 43.2322 -0.0826621L43.2445 0.116961M43.2445 0.116961L62.5681 5.21006M62.5681 5.21006C62.568 5.20999 62.568 5.20993 62.5679 5.20987L62.4286 5.35336L62.5681 5.21006ZM62.5681 5.21006C65.2654 7.82909 66.7534 11.2709 67.5562 14.5903C68.3432 17.8445 68.475 20.9945 68.4356 23.1665M68.4356 23.1665C68.3959 23.148 68.356 23.1296 68.3161 23.1114L68.2331 23.2934L68.433 23.2977C68.434 23.2544 68.4348 23.2107 68.4356 23.1665Z" fill="#00CD69" stroke="#00CD69" stroke-width="0.4"/>
</svg>
