<svg xmlns="http://www.w3.org/2000/svg" viewBox="0 0 897.75 817.78"><defs><style>.cls-1{fill:#00cd69;}</style></defs><g id="Слой_2" data-name="Слой 2"><g id="Слой_1-2" data-name="Слой 1"><path class="cls-1" d="M325.55,594.24c0-60.07-47.85-108.94-106.67-108.94S112.22,534.17,112.22,594.24s47.85,108.94,106.66,108.94S325.55,654.31,325.55,594.24Zm-160.73,0c0-30.45,24.25-55.22,54.06-55.22S273,563.79,273,594.24s-24.25,55.21-54.07,55.21S164.82,624.68,164.82,594.24Z"/><path class="cls-1" d="M830.53,533.49V428c0-71.66-57.07-129.95-127.23-129.95H643.5V251.36l44.4-30.23-29.18-44.7L590.9,222.6v75.45H507.78l-16.7-110.62h40.2v-80C531.28,48.2,484.09,0,426.08,0H153.71c-58,0-105.2,48.2-105.2,107.45v80H85.92V416.79A225,225,0,0,0,0,594.24C0,717.5,98.19,817.78,218.88,817.78c96.5,0,178.61-64.1,207.65-152.81h166.9c1.37,84.5,69.09,152.81,152.14,152.81,83.91,0,152.18-69.72,152.18-155.41A156.29,156.29,0,0,0,830.53,533.49Zm-85,230.57c-54.9,0-99.57-45.62-99.57-101.69s44.67-101.7,99.57-101.7,99.58,45.62,99.58,101.7S800.48,764.06,745.57,764.06ZM52.6,594.24c0-93.65,74.6-169.83,166.28-169.83S385.17,500.6,385.17,594.24s-74.6,169.82-166.29,169.82S52.6,687.88,52.6,594.24Zm48.51-486.79c0-29.63,23.6-53.73,52.61-53.73H426.08c29,0,52.6,24.1,52.6,53.73v26.26H101.11ZM460,334V439.34H376.55a218.72,218.72,0,0,0-89.15-57.42V187.43H437.85ZM234.8,187.43V371.28c-5.26-.38-10.56-.59-15.92-.59a213.77,213.77,0,0,0-80.36,15.61V187.43ZM414,493.06h98.55V351.77H590.9V611.25H437.14q.63-8.43.63-17A226,226,0,0,0,414,493.06Zm363.9,17.44A149.5,149.5,0,0,0,643.5,547.19V351.77h59.8c41.15,0,74.63,34.2,74.63,76.23Z"/><path class="cls-1" d="M719.27,635.51h52.6v53.72h-52.6Z"/></g></g></svg>