<svg width="67" height="67" viewBox="0 0 67 67" fill="none" xmlns="http://www.w3.org/2000/svg">
<g clip-path="url(#clip0)">
<path d="M24.2963 47.0441C24.2963 42.6545 20.7251 39.0835 16.3356 39.0835C11.946 39.0835 8.375 42.6545 8.375 47.0441C8.375 51.4336 11.946 55.0046 16.3356 55.0046C20.7251 55.0046 24.2963 51.4335 24.2963 47.0441ZM12.3008 47.0441C12.3008 44.8193 14.1108 43.0093 16.3356 43.0093C18.5604 43.0093 20.3705 44.8193 20.3705 47.0441C20.3705 49.2688 18.5604 51.0788 16.3356 51.0788C14.1108 51.0788 12.3008 49.2688 12.3008 47.0441Z" fill="#00CD69"/>
<path d="M61.9838 42.6047V34.896C61.9838 29.6601 57.724 25.4002 52.488 25.4002H48.0254V21.9882L51.3388 19.7791L49.1611 16.5127L44.0996 19.8871V25.4001H37.896L36.6497 17.3171H39.6504V11.472C39.6504 7.14269 36.1282 3.62048 31.7988 3.62048H11.4719C7.14257 3.62048 3.62036 7.14269 3.62036 11.472V17.3171H6.41211V34.0775C2.51669 37.0659 0 41.7663 0 47.0441C0 56.0515 7.32812 63.3796 16.3356 63.3796C23.5373 63.3796 29.6649 58.6949 31.8326 52.213H44.2882C44.3904 58.3877 49.4443 63.3796 55.643 63.3796C61.9053 63.3796 67.0001 58.2848 67.0001 52.0225C67 48.1067 65.0078 44.6473 61.9838 42.6047ZM55.6428 59.4539C51.5452 59.4539 48.2115 56.1201 48.2115 52.0225C48.2115 47.9249 51.5452 44.5911 55.6428 44.5911C59.7404 44.5911 63.0742 47.9249 63.0742 52.0225C63.0742 56.1202 59.7404 59.4539 55.6428 59.4539ZM3.92578 47.0441C3.92578 40.2012 9.4928 34.6343 16.3356 34.6343C23.1783 34.6343 28.7455 40.2013 28.7455 47.0441C28.7455 53.8868 23.1785 59.4539 16.3356 59.4539C9.4928 59.4539 3.92578 53.887 3.92578 47.0441ZM7.54627 11.472C7.54627 9.30737 9.30737 7.54626 11.472 7.54626H31.7988C33.9635 7.54626 35.7246 9.30737 35.7246 11.472V13.3914H7.54627V11.472ZM34.3287 28.0264V35.7247H28.1022C26.2781 33.8294 24.002 32.3725 21.4489 31.529V17.3171H32.6774L34.3287 28.0264ZM17.5231 17.3171V30.7518C17.1308 30.7236 16.735 30.7084 16.3356 30.7084C14.2192 30.7084 12.1956 31.1131 10.3379 31.8489V17.3171H17.5231ZM30.8998 39.6505H38.2545V29.326H44.0996V48.2872H32.6243C32.6553 47.8769 32.6713 47.4623 32.6713 47.0441C32.6713 44.3846 32.032 41.8719 30.8998 39.6505ZM58.058 40.9247C57.2794 40.7554 56.4714 40.6653 55.6428 40.6653C52.7145 40.6653 50.0415 41.7795 48.0254 43.606V29.326H52.488C55.5592 29.326 58.058 31.8247 58.058 34.896V40.9247Z" fill="#00CD69"/>
<path d="M53.6799 50.0596H57.6057V53.9854H53.6799V50.0596Z" fill="#00CD69"/>
</g>
<defs>
<clipPath id="clip0">
<rect width="67" height="67" fill="white"/>
</clipPath>
</defs>
</svg>
