<svg width="101" height="101" viewBox="0 0 101 101" fill="none" xmlns="http://www.w3.org/2000/svg">
<g clip-path="url(#clip0)">
<path d="M83.2603 28.4878H17.7416C17.0327 28.4276 16.3304 28.6618 15.7992 29.1352C15.2771 29.6368 15.0352 30.363 15.1519 31.0775L21.885 89.7335C22.6746 96.2004 28.189 101.047 34.7037 100.999H67.3336C74.0317 101.094 79.6738 96.016 80.282 89.3452L85.8497 30.8185C85.8842 30.1907 85.6487 29.5781 85.2024 29.1352C84.6715 28.6618 83.9691 28.4276 83.2603 28.4878ZM75.1029 89.0862C74.6959 93.0291 71.2946 95.9769 67.3339 95.8192H34.704C30.8144 95.9771 27.471 93.0871 27.0643 89.2155L20.5902 33.6672H80.4116L75.1029 89.0862Z" fill="#00CD69"/>
<path d="M92.7124 11.655H66.0386V7.51131C66.1823 3.50919 63.0546 0.148484 59.0525 0.0047368C58.9211 2.78354e-05 58.7895 -0.00121136 58.6582 0.00126704H42.3431C38.339 -0.0728371 35.0333 3.1129 34.9592 7.117C34.9567 7.24836 34.958 7.37996 34.9627 7.51131V11.6547H8.2889C6.85861 11.6547 5.69922 12.8141 5.69922 14.2444C5.69922 15.6747 6.85861 16.8341 8.2889 16.8341H92.7124C94.1427 16.8341 95.3021 15.6747 95.3021 14.2444C95.3021 12.8141 94.1424 11.655 92.7124 11.655ZM60.8592 7.51131V11.6547H40.1418V7.51131C39.9958 6.37646 40.7976 5.33825 41.9324 5.19228C42.0685 5.17468 42.2061 5.17096 42.3429 5.18063H58.6579C59.7992 5.09983 60.7901 5.95934 60.8709 7.10089C60.8808 7.2377 60.8768 7.37525 60.8592 7.51131Z" fill="#00CD69"/>
</g>
<defs>
<clipPath id="clip0">
<rect width="101" height="101" fill="white"/>
</clipPath>
</defs>
</svg>
