<svg width="218" height="221" viewBox="0 0 218 221" fill="none" xmlns="http://www.w3.org/2000/svg">
<path fill-rule="evenodd" clip-rule="evenodd" d="M31.5259 146.937L31.5319 146.943H31.5321C36.6343 152.038 44.9007 152.036 50.0002 146.937L40.7692 137.706L40.763 137.699L31.5319 128.468C26.4322 133.568 26.4306 141.834 31.5261 146.936L31.5259 146.937Z" fill="white"/>
<path fill-rule="evenodd" clip-rule="evenodd" d="M40.7631 137.712C35.6617 132.61 35.6613 124.339 40.7631 119.237C45.8643 114.136 54.1358 114.136 59.2375 119.237L50.0002 128.474L40.7631 137.712Z" fill="white"/>
<path fill-rule="evenodd" clip-rule="evenodd" d="M68.4685 128.469L68.4746 128.475V128.475C73.57 133.577 73.5679 141.843 68.4683 146.943L59.2374 137.712L59.2314 137.706L50.0001 128.474C55.0995 123.375 63.3662 123.373 68.4683 128.469L68.4685 128.469Z" fill="white"/>
<path fill-rule="evenodd" clip-rule="evenodd" d="M40.7632 156.174C45.8625 161.273 54.1291 161.275 59.2312 156.18V156.18L59.2374 156.174V156.174C64.3326 151.072 64.3308 142.805 59.2314 137.706L50.0003 146.937L50.0001 146.936L40.7632 156.174Z" fill="white"/>
<path fill-rule="evenodd" clip-rule="evenodd" d="M86.9364 91.526L86.9424 91.532L86.9422 91.5323C92.0378 96.6344 92.036 104.901 86.9364 110L77.7054 100.769L77.6993 100.763L68.4679 91.532C73.5675 86.4322 81.8341 86.4306 86.9362 91.526H86.9364Z" fill="white"/>
<path fill-rule="evenodd" clip-rule="evenodd" d="M77.7116 100.763C72.61 95.6617 64.3388 95.6615 59.2371 100.763C54.1355 105.864 54.1355 114.136 59.2371 119.237L68.4743 110L77.7116 100.763Z" fill="white"/>
<path fill-rule="evenodd" clip-rule="evenodd" d="M68.4683 128.469L68.4745 128.475V128.475C73.5766 133.57 81.843 133.568 86.9426 128.469L77.7117 119.238L77.7054 119.231L68.4743 110C63.375 115.1 63.373 123.366 68.4685 128.469L68.4683 128.469Z" fill="white"/>
<path fill-rule="evenodd" clip-rule="evenodd" d="M96.1738 100.763C101.273 105.863 101.275 114.129 96.1796 119.231L96.1798 119.231L96.1736 119.237L96.1734 119.237C91.0715 124.333 82.805 124.331 77.7054 119.231L86.9366 110H86.9365L96.1738 100.763Z" fill="white"/>
<path fill-rule="evenodd" clip-rule="evenodd" d="M68.4739 73.0635L68.4679 73.0575H68.4678C63.3657 67.9619 55.0992 67.9636 49.9996 73.0635L59.2307 82.2945L59.2368 82.3006L68.4682 91.5318C73.5678 86.4323 73.5694 78.1656 68.4739 73.0635Z" fill="white"/>
<path fill-rule="evenodd" clip-rule="evenodd" d="M59.2369 82.2883C64.3385 87.3898 64.3386 95.6612 59.2371 100.763C54.1358 105.864 45.8642 105.864 40.7627 100.763L49.9999 91.5257L59.2369 82.2883Z" fill="white"/>
<path fill-rule="evenodd" clip-rule="evenodd" d="M31.5314 91.5314L31.5254 91.5255L31.5255 91.5254C26.4301 86.4233 26.4322 78.1567 31.5315 73.0574L40.7625 82.2883L40.7685 82.2943L49.9999 91.5257C44.9005 96.625 36.6337 96.627 31.5315 91.5314L31.5314 91.5314Z" fill="white"/>
<path fill-rule="evenodd" clip-rule="evenodd" d="M59.2368 63.8262C54.1373 58.7265 45.8709 58.7247 40.7689 63.8203L40.7686 63.8202L40.7625 63.8263H40.7626C35.6674 68.9284 35.6692 77.1949 40.7685 82.2943L49.9996 73.0634V73.0635L59.2368 63.8262Z" fill="white"/>
<path fill-rule="evenodd" clip-rule="evenodd" d="M13.0634 128.474L13.0575 128.468L13.0576 128.468C7.96197 123.366 7.96383 115.099 13.0634 110L22.2944 119.231L22.3006 119.237L31.5319 128.468C26.4322 133.568 18.1657 133.57 13.0636 128.474L13.0634 128.474Z" fill="white"/>
<path fill-rule="evenodd" clip-rule="evenodd" d="M22.2882 119.237C27.3898 124.338 35.6611 124.339 40.7626 119.237C45.8641 114.136 45.8641 105.864 40.7626 100.763L31.5254 110L22.2882 119.237Z" fill="white"/>
<path fill-rule="evenodd" clip-rule="evenodd" d="M31.5314 91.5314L31.5254 91.5254V91.5256C26.4233 86.4299 18.1567 86.4322 13.0573 91.5316L22.2883 100.763L22.2943 100.769L31.5255 110C36.6249 104.9 36.6268 96.6337 31.5314 91.5316V91.5314Z" fill="white"/>
<path fill-rule="evenodd" clip-rule="evenodd" d="M3.82603 119.237C-1.2735 114.137 -1.27526 105.871 3.82025 100.769L3.82006 100.769L3.82627 100.763L3.82637 100.763C8.92838 95.6674 17.1947 95.6692 22.2942 100.769L13.0632 110L13.0634 110L3.82603 119.237Z" fill="white"/>
<path fill-rule="evenodd" clip-rule="evenodd" d="M90.5262 86.9366L90.5321 86.9426H90.5323C95.6345 92.0382 103.901 92.0364 109 86.9366L99.7695 77.7057L99.7633 77.6994L90.5321 68.4683C85.4325 73.5678 85.4308 81.8344 90.5263 86.9364L90.5262 86.9366Z" fill="white"/>
<path fill-rule="evenodd" clip-rule="evenodd" d="M99.7633 77.7117C94.6619 72.6103 94.6616 64.3389 99.7633 59.2372C104.865 54.1358 113.136 54.1358 118.238 59.2372L109 68.4745L99.7633 77.7117Z" fill="white"/>
<path fill-rule="evenodd" clip-rule="evenodd" d="M127.469 68.4686L127.475 68.4745V68.4747C132.57 73.5768 132.568 81.8433 127.469 86.9427L118.238 77.7117L118.232 77.7057L109 68.4744C114.1 63.375 122.366 63.3731 127.469 68.4687L127.469 68.4686Z" fill="white"/>
<path fill-rule="evenodd" clip-rule="evenodd" d="M99.7634 96.1738C104.863 101.273 113.129 101.275 118.231 96.1796V96.1798L118.238 96.1736V96.1735C123.333 91.0716 123.331 82.8052 118.232 77.7057L109.001 86.9367L109 86.9365L99.7634 96.1738Z" fill="white"/>
<path fill-rule="evenodd" clip-rule="evenodd" d="M145.937 31.526L145.943 31.532L145.942 31.5323C151.038 36.6344 151.036 44.9009 145.937 50.0004L136.706 40.7694L136.7 40.7632L127.468 31.532C132.568 26.4322 140.834 26.4306 145.936 31.526H145.937Z" fill="white"/>
<path fill-rule="evenodd" clip-rule="evenodd" d="M136.712 40.7633C131.61 35.6617 123.339 35.6615 118.237 40.7632C113.136 45.8645 113.136 54.1361 118.237 59.2375L127.474 50.0003L136.712 40.7633Z" fill="white"/>
<path fill-rule="evenodd" clip-rule="evenodd" d="M127.469 68.4687L127.475 68.4747V68.4745C132.577 73.57 140.843 73.5679 145.943 68.4686L136.712 59.2375L136.706 59.2314L127.475 50.0002C122.375 55.0995 122.373 63.3665 127.469 68.4686L127.469 68.4687Z" fill="white"/>
<path fill-rule="evenodd" clip-rule="evenodd" d="M155.174 40.7632C160.273 45.8627 160.275 54.1291 155.18 59.2311L155.18 59.2314L155.174 59.2375L155.174 59.2374C150.072 64.3327 141.805 64.3309 136.706 59.2314L145.937 50.0003H145.937L155.174 40.7632Z" fill="white"/>
<path fill-rule="evenodd" clip-rule="evenodd" d="M127.474 13.0635L127.468 13.0575H127.468C122.366 7.96186 114.099 7.96363 109 13.0635L118.231 22.2945L118.237 22.3006L127.468 31.5318C132.568 26.4323 132.57 18.1656 127.474 13.0635Z" fill="white"/>
<path fill-rule="evenodd" clip-rule="evenodd" d="M118.237 22.2883C123.339 27.3898 123.339 35.6612 118.237 40.7628C113.136 45.8643 104.864 45.8643 99.7629 40.7628L109 31.5257L118.237 22.2883Z" fill="white"/>
<path fill-rule="evenodd" clip-rule="evenodd" d="M90.5316 31.5314L90.5256 31.5255L90.5257 31.5254C85.4303 26.4233 85.4324 18.1567 90.5317 13.0574L99.7628 22.2883L99.7687 22.2943L109 31.5257C103.901 36.625 95.6339 36.627 90.5317 31.5314L90.5316 31.5314Z" fill="white"/>
<path fill-rule="evenodd" clip-rule="evenodd" d="M118.237 3.82623C113.138 -1.27355 104.871 -1.2753 99.7691 3.82032L99.7689 3.82023L99.7628 3.82635H99.7629C94.6677 8.92839 94.6694 17.1949 99.7687 22.2943L109 13.0634V13.0635L118.237 3.82623Z" fill="white"/>
<path fill-rule="evenodd" clip-rule="evenodd" d="M72.0637 68.4742L72.0577 68.4681L72.0578 68.4679C66.9622 63.3656 66.9641 55.0993 72.0637 49.9998L81.2946 59.2308L81.3008 59.237L90.5321 68.4683C85.4325 73.5678 77.1659 73.5696 72.0638 68.4739L72.0637 68.4742Z" fill="white"/>
<path fill-rule="evenodd" clip-rule="evenodd" d="M81.2885 59.237C86.3901 64.3384 94.6613 64.3387 99.7628 59.2371C104.864 54.1358 104.864 45.8642 99.7628 40.7628L90.5257 50L81.2885 59.237Z" fill="white"/>
<path fill-rule="evenodd" clip-rule="evenodd" d="M90.5316 31.5314L90.5256 31.5254V31.5256C85.4236 26.4299 77.1569 26.4322 72.0575 31.5316L81.2885 40.7625L81.2945 40.7685L90.5258 49.9999C95.6252 44.9004 95.6271 36.6337 90.5316 31.5316V31.5314Z" fill="white"/>
<path fill-rule="evenodd" clip-rule="evenodd" d="M62.8263 59.2368C57.7267 54.1375 57.725 45.8711 62.8205 40.7689L62.8203 40.7688L62.8265 40.7626L62.8266 40.7628C67.9286 35.6674 76.1949 35.6692 81.2945 40.7686L72.0634 49.9996L72.0636 49.9997L62.8263 59.2368Z" fill="white"/>
<path fill-rule="evenodd" clip-rule="evenodd" d="M90.5262 207.937L90.5321 207.943H90.5323C95.6345 213.038 103.901 213.036 109 207.937L99.7695 198.706L99.7633 198.699L90.5321 189.468C85.4325 194.568 85.4308 202.834 90.5263 207.936L90.5262 207.937Z" fill="white"/>
<path fill-rule="evenodd" clip-rule="evenodd" d="M99.7633 198.712C94.6619 193.61 94.6616 185.339 99.7633 180.237C104.865 175.136 113.136 175.136 118.238 180.237L109 189.474L99.7633 198.712Z" fill="white"/>
<path fill-rule="evenodd" clip-rule="evenodd" d="M127.469 189.469L127.475 189.475V189.475C132.57 194.577 132.568 202.843 127.469 207.943L118.238 198.712L118.232 198.706L109 189.474C114.1 184.375 122.366 184.373 127.469 189.469L127.469 189.469Z" fill="white"/>
<path fill-rule="evenodd" clip-rule="evenodd" d="M99.7634 217.174C104.863 222.273 113.129 222.275 118.231 217.18V217.18L118.238 217.174V217.174C123.333 212.072 123.331 203.805 118.232 198.706L109.001 207.937L109 207.936L99.7634 217.174Z" fill="white"/>
<path fill-rule="evenodd" clip-rule="evenodd" d="M145.937 152.526L145.943 152.532L145.942 152.532C151.038 157.634 151.036 165.901 145.937 171L136.706 161.769L136.7 161.763L127.468 152.532C132.568 147.432 140.834 147.431 145.936 152.526H145.937Z" fill="white"/>
<path fill-rule="evenodd" clip-rule="evenodd" d="M136.712 161.763C131.61 156.662 123.339 156.662 118.237 161.763C113.136 166.864 113.136 175.136 118.237 180.237L127.474 171L136.712 161.763Z" fill="white"/>
<path fill-rule="evenodd" clip-rule="evenodd" d="M127.469 189.469L127.475 189.475V189.475C132.577 194.57 140.843 194.568 145.943 189.469L136.712 180.238L136.706 180.231L127.475 171C122.375 176.1 122.373 184.366 127.469 189.469L127.469 189.469Z" fill="white"/>
<path fill-rule="evenodd" clip-rule="evenodd" d="M155.174 161.763C160.273 166.863 160.275 175.129 155.18 180.231L155.18 180.231L155.174 180.237L155.174 180.237C150.072 185.333 141.805 185.331 136.706 180.231L145.937 171H145.937L155.174 161.763Z" fill="white"/>
<path fill-rule="evenodd" clip-rule="evenodd" d="M127.474 134.063L127.468 134.057H127.468C122.366 128.962 114.099 128.964 109 134.063L118.231 143.295L118.237 143.301L127.468 152.532C132.568 147.432 132.57 139.166 127.474 134.063Z" fill="white"/>
<path fill-rule="evenodd" clip-rule="evenodd" d="M118.237 143.288C123.339 148.39 123.339 156.661 118.237 161.763C113.136 166.864 104.864 166.864 99.7629 161.763L109 152.526L118.237 143.288Z" fill="white"/>
<path fill-rule="evenodd" clip-rule="evenodd" d="M90.5316 152.531L90.5256 152.525L90.5257 152.525C85.4303 147.423 85.4324 139.157 90.5317 134.057L99.7628 143.288L99.7687 143.294L109 152.526C103.901 157.625 95.6339 157.627 90.5317 152.531L90.5316 152.531Z" fill="white"/>
<path fill-rule="evenodd" clip-rule="evenodd" d="M118.237 124.826C113.138 119.726 104.871 119.725 99.7691 124.82L99.7689 124.82L99.7628 124.826H99.7629C94.6677 129.928 94.6694 138.195 99.7687 143.294L109 134.063V134.063L118.237 124.826Z" fill="white"/>
<path fill-rule="evenodd" clip-rule="evenodd" d="M72.0637 189.474L72.0577 189.468L72.0578 189.468C66.9622 184.366 66.9641 176.099 72.0637 171L81.2946 180.231L81.3008 180.237L90.5321 189.468C85.4325 194.568 77.1659 194.57 72.0638 189.474L72.0637 189.474Z" fill="white"/>
<path fill-rule="evenodd" clip-rule="evenodd" d="M81.2885 180.237C86.3901 185.338 94.6613 185.339 99.7628 180.237C104.864 175.136 104.864 166.864 99.7628 161.763L90.5257 171L81.2885 180.237Z" fill="white"/>
<path fill-rule="evenodd" clip-rule="evenodd" d="M90.5316 152.531L90.5256 152.525V152.526C85.4236 147.43 77.1569 147.432 72.0575 152.532L81.2885 161.763L81.2945 161.769L90.5258 171C95.6252 165.9 95.6271 157.634 90.5316 152.532V152.531Z" fill="white"/>
<path fill-rule="evenodd" clip-rule="evenodd" d="M62.8263 180.237C57.7267 175.137 57.725 166.871 62.8205 161.769L62.8203 161.769L62.8265 161.763L62.8266 161.763C67.9286 156.667 76.1949 156.669 81.2945 161.769L72.0634 171L72.0636 171L62.8263 180.237Z" fill="white"/>
<path fill-rule="evenodd" clip-rule="evenodd" d="M186.474 74.0634L186.468 74.0574H186.468C181.366 68.9618 173.099 68.9636 168 74.0634L177.231 83.2943L177.237 83.3006L186.468 92.5317C191.568 87.4322 191.57 79.1656 186.474 74.0636L186.474 74.0634Z" fill="white"/>
<path fill-rule="evenodd" clip-rule="evenodd" d="M177.237 83.2883C182.338 88.3897 182.339 96.6612 177.237 101.763C172.136 106.864 163.864 106.864 158.763 101.763L168 92.5255L177.237 83.2883Z" fill="white"/>
<path fill-rule="evenodd" clip-rule="evenodd" d="M149.532 92.5314L149.526 92.5255V92.5253C144.43 87.4232 144.432 79.1567 149.532 74.0573L158.763 83.2883L158.769 83.2943L168 92.5256C162.901 97.625 154.634 97.6269 149.532 92.5313L149.532 92.5314Z" fill="white"/>
<path fill-rule="evenodd" clip-rule="evenodd" d="M177.237 64.8262C172.138 59.7265 163.871 59.7247 158.769 64.8204V64.8202L158.763 64.8264V64.8265C153.668 69.9284 153.669 78.1948 158.769 83.2943L168 74.0633L168 74.0635L177.237 64.8262Z" fill="white"/>
<path fill-rule="evenodd" clip-rule="evenodd" d="M131.064 129.474L131.058 129.468L131.058 129.468C125.962 124.366 125.964 116.099 131.064 111L140.295 120.231L140.301 120.237L149.532 129.468C144.432 134.568 136.166 134.569 131.064 129.474H131.064Z" fill="white"/>
<path fill-rule="evenodd" clip-rule="evenodd" d="M140.288 120.237C145.39 125.338 153.661 125.339 158.763 120.237C163.865 115.136 163.865 106.864 158.763 101.763L149.526 111L140.288 120.237Z" fill="white"/>
<path fill-rule="evenodd" clip-rule="evenodd" d="M149.532 92.5313L149.525 92.5253V92.5255C144.423 87.43 136.157 87.4322 131.057 92.5315L140.288 101.762L140.295 101.769L149.526 111C154.625 105.9 154.627 97.6335 149.531 92.5315L149.532 92.5313Z" fill="white"/>
<path fill-rule="evenodd" clip-rule="evenodd" d="M121.826 120.237C116.727 115.137 116.725 106.871 121.82 101.769L121.82 101.769L121.826 101.763L121.827 101.763C126.928 96.6673 135.195 96.6691 140.295 101.769L131.063 111H131.064L121.826 120.237Z" fill="white"/>
<path fill-rule="evenodd" clip-rule="evenodd" d="M149.526 147.937L149.532 147.943H149.532C154.634 153.038 162.901 153.036 168 147.937L158.769 138.705L158.763 138.699L149.532 129.468C144.432 134.568 144.431 142.834 149.526 147.937Z" fill="white"/>
<path fill-rule="evenodd" clip-rule="evenodd" d="M158.763 138.712C153.661 133.61 153.661 125.339 158.763 120.237C163.864 115.136 172.136 115.136 177.237 120.237L168 129.474L158.763 138.712Z" fill="white"/>
<path fill-rule="evenodd" clip-rule="evenodd" d="M186.469 129.469L186.475 129.475L186.475 129.475C191.57 134.577 191.568 142.843 186.469 147.943L177.237 138.712L177.232 138.706L168 129.474C173.1 124.375 181.366 124.373 186.469 129.469L186.469 129.469Z" fill="white"/>
<path fill-rule="evenodd" clip-rule="evenodd" d="M158.763 157.174C163.863 162.274 172.129 162.275 177.231 157.18L177.231 157.18L177.237 157.174H177.237C182.333 152.072 182.331 143.805 177.232 138.706L168 147.937V147.937L158.763 157.174Z" fill="white"/>
<path fill-rule="evenodd" clip-rule="evenodd" d="M204.937 92.526L204.943 92.532L204.942 92.5322C210.038 97.6345 210.036 105.901 204.937 111L195.706 101.769L195.699 101.763L186.468 92.5319C191.568 87.4323 199.834 87.4306 204.936 92.5262L204.937 92.526Z" fill="white"/>
<path fill-rule="evenodd" clip-rule="evenodd" d="M195.712 101.763C190.61 96.6616 182.339 96.6613 177.237 101.763C172.136 106.864 172.136 115.136 177.237 120.237L186.475 111L195.712 101.763Z" fill="white"/>
<path fill-rule="evenodd" clip-rule="evenodd" d="M186.469 129.469L186.475 129.475V129.474C191.577 134.57 199.843 134.568 204.943 129.468L195.712 120.237L195.706 120.231L186.474 111C181.375 116.1 181.373 124.366 186.469 129.468V129.469Z" fill="white"/>
<path fill-rule="evenodd" clip-rule="evenodd" d="M214.174 101.763C219.274 106.863 219.275 115.129 214.18 120.231L214.18 120.231L214.174 120.237L214.174 120.237C209.072 125.333 200.805 125.331 195.706 120.231L204.937 111L204.937 111L214.174 101.763Z" fill="white"/>
<path fill-rule="evenodd" clip-rule="evenodd" d="M127.474 134.063L127.468 134.057H127.468C122.366 128.962 114.099 128.964 109 134.063L118.231 143.294L118.237 143.301L127.468 152.532C132.568 147.432 132.569 139.166 127.474 134.064L127.474 134.063Z" fill="white"/>
<path fill-rule="evenodd" clip-rule="evenodd" d="M118.237 143.288C123.338 148.39 123.339 156.661 118.237 161.763C113.136 166.864 104.864 166.864 99.7624 161.763L109 152.526L118.237 143.288Z" fill="white"/>
<path fill-rule="evenodd" clip-rule="evenodd" d="M90.5313 152.531L90.5253 152.525V152.525C85.4299 147.423 85.432 139.157 90.5316 134.057L99.7625 143.288L99.7685 143.294L109 152.526C103.9 157.625 95.6337 157.627 90.5316 152.531L90.5313 152.531Z" fill="white"/>
<path fill-rule="evenodd" clip-rule="evenodd" d="M118.237 124.826C113.137 119.727 104.871 119.725 99.7687 124.82V124.82L99.7625 124.826V124.826C94.6673 129.928 94.6691 138.195 99.7685 143.294L109 134.063L109 134.064L118.237 124.826Z" fill="white"/>
<path fill-rule="evenodd" clip-rule="evenodd" d="M72.0634 189.474L72.0574 189.468L72.0576 189.468C66.9619 184.366 66.9637 176.099 72.0634 171L81.2944 180.231L81.3005 180.237L90.5319 189.468C85.4322 194.568 77.1657 194.569 72.0636 189.474H72.0634Z" fill="white"/>
<path fill-rule="evenodd" clip-rule="evenodd" d="M81.2881 180.237C86.3898 185.338 94.661 185.339 99.7627 180.237C104.864 175.136 104.864 166.864 99.7627 161.763L90.5255 171L81.2881 180.237Z" fill="white"/>
<path fill-rule="evenodd" clip-rule="evenodd" d="M90.5315 152.531L90.5253 152.525V152.525C85.4232 147.43 77.1567 147.432 72.0572 152.531L81.2881 161.762L81.2943 161.769L90.5255 171C95.6248 165.9 95.6268 157.634 90.5313 152.531L90.5315 152.531Z" fill="white"/>
<path fill-rule="evenodd" clip-rule="evenodd" d="M62.826 180.237C57.7265 175.137 57.7247 166.871 62.8201 161.769L62.82 161.769L62.8261 161.763L62.8264 161.763C67.9282 156.667 76.1948 156.669 81.2943 161.769L72.0632 171H72.0633L62.826 180.237Z" fill="white"/>
<path fill-rule="evenodd" clip-rule="evenodd" d="M90.5258 207.937L90.5318 207.943H90.5319C95.634 213.038 103.901 213.036 109 207.937L99.7691 198.705L99.763 198.699L90.5316 189.468C85.4319 194.568 85.4303 202.834 90.5258 207.937Z" fill="white"/>
<path fill-rule="evenodd" clip-rule="evenodd" d="M99.7629 198.712C94.6612 193.61 94.6612 185.339 99.7627 180.237C104.864 175.136 113.136 175.136 118.237 180.237L109 189.474L99.7629 198.712Z" fill="white"/>
<path fill-rule="evenodd" clip-rule="evenodd" d="M127.468 189.469L127.474 189.475L127.474 189.475C132.57 194.577 132.568 202.843 127.468 207.943L118.237 198.712L118.231 198.706L109 189.474C114.099 184.375 122.366 184.373 127.468 189.469L127.468 189.469Z" fill="white"/>
<path fill-rule="evenodd" clip-rule="evenodd" d="M99.763 217.174C104.862 222.274 113.129 222.275 118.231 217.18L118.231 217.18L118.237 217.174H118.237C123.332 212.072 123.331 203.805 118.231 198.706L109 207.937V207.937L99.763 217.174Z" fill="white"/>
<path fill-rule="evenodd" clip-rule="evenodd" d="M145.936 152.526L145.942 152.532L145.942 152.532C151.038 157.635 151.036 165.901 145.936 171L136.705 161.769L136.699 161.763L127.468 152.532C132.568 147.432 140.834 147.431 145.936 152.526L145.936 152.526Z" fill="white"/>
<path fill-rule="evenodd" clip-rule="evenodd" d="M136.712 161.763C131.61 156.662 123.339 156.661 118.237 161.763C113.136 166.864 113.136 175.136 118.237 180.237L127.474 171L136.712 161.763Z" fill="white"/>
<path fill-rule="evenodd" clip-rule="evenodd" d="M127.468 189.469L127.474 189.475V189.474C132.576 194.57 140.843 194.568 145.943 189.468L136.711 180.237L136.705 180.231L127.474 171C122.375 176.1 122.373 184.366 127.468 189.468V189.469Z" fill="white"/>
<path fill-rule="evenodd" clip-rule="evenodd" d="M155.174 161.763C160.273 166.863 160.275 175.129 155.18 180.231L155.18 180.231L155.173 180.237L155.173 180.237C150.071 185.333 141.805 185.331 136.706 180.231L145.937 171L145.936 171L155.174 161.763Z" fill="white"/>
<path fill-rule="evenodd" clip-rule="evenodd" d="M127.474 13.0634L127.468 13.0574H127.468C122.366 7.96181 114.099 7.96358 109 13.0634L118.231 22.2943L118.237 22.3006L127.468 31.5317C132.568 26.4322 132.569 18.1656 127.474 13.0636L127.474 13.0634Z" fill="white"/>
<path fill-rule="evenodd" clip-rule="evenodd" d="M118.237 22.2883C123.338 27.3897 123.339 35.6612 118.237 40.7628C113.136 45.8642 104.864 45.8642 99.7624 40.7628L109 31.5255L118.237 22.2883Z" fill="white"/>
<path fill-rule="evenodd" clip-rule="evenodd" d="M90.5313 31.5314L90.5253 31.5255V31.5253C85.4299 26.4232 85.432 18.1567 90.5316 13.0573L99.7625 22.2883L99.7685 22.2943L109 31.5256C103.9 36.625 95.6337 36.6269 90.5316 31.5313L90.5313 31.5314Z" fill="white"/>
<path fill-rule="evenodd" clip-rule="evenodd" d="M118.237 3.82616C113.137 -1.27349 104.871 -1.27525 99.7687 3.82036V3.82017L99.7625 3.82635V3.82647C94.6673 8.92844 94.6691 17.1948 99.7685 22.2943L109 13.0633L109 13.0635L118.237 3.82616Z" fill="white"/>
<path fill-rule="evenodd" clip-rule="evenodd" d="M72.0634 68.474L72.0574 68.468L72.0576 68.4677C66.9619 63.3656 66.9637 55.0991 72.0634 49.9996L81.2944 59.2306L81.3005 59.2368L90.5319 68.468C85.4322 73.5678 77.1657 73.5694 72.0636 68.474H72.0634Z" fill="white"/>
<path fill-rule="evenodd" clip-rule="evenodd" d="M81.2881 59.2368C86.3898 64.3385 94.661 64.3386 99.7627 59.237C104.864 54.1357 104.864 45.8641 99.7627 40.7627L90.5255 49.9998L81.2881 59.2368Z" fill="white"/>
<path fill-rule="evenodd" clip-rule="evenodd" d="M90.5315 31.5313L90.5253 31.5253V31.5255C85.4232 26.43 77.1567 26.4322 72.0572 31.5315L81.2881 40.7625L81.2943 40.7686L90.5255 49.9998C95.6248 44.9005 95.6268 36.6335 90.5313 31.5315L90.5315 31.5313Z" fill="white"/>
<path fill-rule="evenodd" clip-rule="evenodd" d="M62.826 59.2368C57.7265 54.1373 57.7247 45.8709 62.8201 40.7689L62.82 40.7686L62.8261 40.7625L62.8264 40.7626C67.9282 35.6673 76.1948 35.6691 81.2943 40.7686L72.0632 49.9997H72.0633L62.826 59.2368Z" fill="white"/>
<path fill-rule="evenodd" clip-rule="evenodd" d="M90.5258 86.9365L90.5318 86.9425H90.5319C95.634 92.0381 103.901 92.0364 109 86.9365L99.7691 77.7055L99.763 77.6994L90.5316 68.4682C85.4319 73.5677 85.4303 81.8344 90.5258 86.9365Z" fill="white"/>
<path fill-rule="evenodd" clip-rule="evenodd" d="M99.7629 77.7117C94.6612 72.6102 94.6612 64.3388 99.7627 59.2372C104.864 54.1358 113.136 54.1358 118.237 59.2372L109 68.4743L99.7629 77.7117Z" fill="white"/>
<path fill-rule="evenodd" clip-rule="evenodd" d="M127.468 68.4686L127.474 68.4745L127.474 68.4746C132.57 73.5767 132.568 81.8433 127.468 86.9426L118.237 77.7117L118.231 77.7057L109 68.4743C114.099 63.375 122.366 63.373 127.468 68.4686L127.468 68.4686Z" fill="white"/>
<path fill-rule="evenodd" clip-rule="evenodd" d="M99.763 96.1738C104.862 101.274 113.129 101.275 118.231 96.1797L118.231 96.1798L118.237 96.1737H118.237C123.332 91.0716 123.331 82.8051 118.231 77.7057L109 86.9366V86.9365L99.763 96.1738Z" fill="white"/>
<path fill-rule="evenodd" clip-rule="evenodd" d="M145.936 31.526L145.942 31.532L145.942 31.5322C151.038 36.6345 151.036 44.9008 145.936 50.0004L136.705 40.7693L136.699 40.7631L127.468 31.5319C132.568 26.4323 140.834 26.4306 145.936 31.5262L145.936 31.526Z" fill="white"/>
<path fill-rule="evenodd" clip-rule="evenodd" d="M136.712 40.763C131.61 35.6616 123.339 35.6613 118.237 40.7629C113.136 45.8642 113.136 54.1358 118.237 59.2372L127.474 50L136.712 40.763Z" fill="white"/>
<path fill-rule="evenodd" clip-rule="evenodd" d="M127.468 68.4686L127.474 68.4746V68.4744C132.576 73.5701 140.843 73.5678 145.943 68.4684L136.711 59.2375L136.705 59.2315L127.474 50.0001C122.375 55.0996 122.373 63.3663 127.468 68.4684V68.4686Z" fill="white"/>
<path fill-rule="evenodd" clip-rule="evenodd" d="M155.174 40.7632C160.273 45.8625 160.275 54.1289 155.18 59.2311L155.18 59.2312L155.173 59.2374L155.173 59.2372C150.071 64.3326 141.805 64.3308 136.706 59.2314L145.937 50.0004L145.936 50.0003L155.174 40.7632Z" fill="white"/>
</svg>
