<svg width="41" height="47" viewBox="0 0 41 47" fill="none" xmlns="http://www.w3.org/2000/svg">
<path d="M24.6 0V12.4412C24.6 13.541 25.032 14.5959 25.8009 15.3736C26.5698 16.1513 27.6126 16.5882 28.7 16.5882H41V40.0882C41 41.1881 40.568 42.2429 39.7991 43.0206C39.0302 43.7984 37.9874 44.2353 36.9 44.2353H23.8975C25.939 41.7348 27.1366 38.6396 27.3156 35.4018C27.4945 32.164 26.6454 28.9531 24.8922 26.238C23.1391 23.5229 20.5736 21.4459 17.5706 20.3102C14.5676 19.1745 11.2842 19.0396 8.2 19.9252V4.14706C8.2 3.04719 8.63196 1.99237 9.40086 1.21465C10.1698 0.436921 11.2126 0 12.3 0H24.6ZM27.3333 0.691176V12.4412C27.3333 12.8078 27.4773 13.1594 27.7336 13.4186C27.9899 13.6779 28.3375 13.8235 28.7 13.8235H40.3167L27.3333 0.691176ZM12.3 47C15.5622 47 18.6907 45.6892 20.9974 43.3561C23.3041 41.0229 24.6 37.8584 24.6 34.5588C24.6 31.2592 23.3041 28.0948 20.9974 25.7616C18.6907 23.4284 15.5622 22.1176 12.3 22.1176C9.03784 22.1176 5.90928 23.4284 3.60259 25.7616C1.29589 28.0948 0 31.2592 0 34.5588C0 37.8584 1.29589 41.0229 3.60259 43.3561C5.90928 45.6892 9.03784 47 12.3 47ZM5.86573 35.5375C5.60911 35.278 5.46494 34.9259 5.46494 34.5588C5.46494 34.1917 5.60911 33.8397 5.86573 33.5801C6.12236 33.3205 6.47041 33.1747 6.83333 33.1747C7.19625 33.1747 7.54431 33.3205 7.80093 33.5801L10.9333 36.7512V29.0294C10.9333 28.6628 11.0773 28.3112 11.3336 28.0519C11.5899 27.7927 11.9375 27.6471 12.3 27.6471C12.6625 27.6471 13.0101 27.7927 13.2664 28.0519C13.5227 28.3112 13.6667 28.6628 13.6667 29.0294V36.7512L16.7991 33.5801C17.0557 33.3205 17.4037 33.1747 17.7667 33.1747C18.1296 33.1747 18.4776 33.3205 18.7343 33.5801C18.9909 33.8397 19.1351 34.1917 19.1351 34.5588C19.1351 34.9259 18.9909 35.278 18.7343 35.5375L13.2676 41.0669C13.0128 41.324 12.6681 41.4691 12.3082 41.4706H12.2918C11.9356 41.4684 11.5942 41.3255 11.3406 41.0725L11.3324 41.0642L5.86573 35.5348V35.5375Z" fill="#AEC0DB"/>
</svg>
