<svg width="62" height="80" viewBox="0 0 62 80" fill="none" xmlns="http://www.w3.org/2000/svg">
<path d="M33.6551 0V19.9621C33.6551 22.2311 34.5416 24.4072 36.1195 26.0116C37.6974 27.616 39.8375 28.5173 42.0689 28.5173H61.7011V71.2933C61.7011 73.5623 60.8147 75.7383 59.2368 77.3427C57.6589 78.9471 55.5188 79.8485 53.2873 79.8485H8.41379C6.18231 79.8485 4.04223 78.9471 2.46434 77.3427C0.88645 75.7383 0 73.5623 0 71.2933V8.55519C0 6.28622 0.88645 4.11017 2.46434 2.50576C4.04223 0.901349 6.18231 0 8.41379 0H33.6551ZM39.2643 0.333653V19.9621C39.2643 20.7184 39.5598 21.4438 40.0858 21.9786C40.6117 22.5134 41.3251 22.8139 42.0689 22.8139H61.373C60.9793 21.4205 60.244 20.1517 59.2359 19.1266L42.8907 2.50952C41.8828 1.48344 40.6349 0.734701 39.2643 0.333653Z" fill="#A6ABB3"/>
<path d="M52.6274 70.7852H9.07373V63.5263L22.1398 45.3789L40.0361 63.5263L52.6274 56.2673V70.7852Z" fill="white"/>
<path d="M52.6273 41.7497C52.6266 43.6748 51.8612 45.5209 50.4995 46.8818C49.1377 48.2427 47.2911 49.0068 45.3659 49.0062C43.4407 49.0055 41.5946 48.2402 40.2338 46.8784C38.8729 45.5166 38.1087 43.67 38.1094 41.7448C38.11 39.8196 38.8754 37.9735 40.2372 36.6127C41.599 35.2518 43.4456 34.4876 45.3707 34.4883C47.2959 34.4889 49.142 35.2543 50.5029 36.6161C51.8638 37.9779 52.6279 39.8245 52.6273 41.7497Z" fill="white"/>
</svg>
