<svg width="208" height="39" viewBox="0 0 208 39" fill="none" xmlns="http://www.w3.org/2000/svg">
<path d="M59.1232 29.2284H53.8203L61.4957 9.71329H67.0777L74.7529 29.2284H69.4499L68.3335 26.162H60.2394L59.1232 29.2284ZM63.7842 16.3484L61.7748 21.9799H66.7986L64.7892 16.3484C64.566 15.7164 64.3985 15.0568 64.2868 14.3691C64.1751 15.0568 64.0074 15.7164 63.7842 16.3484ZM76.2662 25.1166C76.0057 24.2893 75.8756 23.4296 75.8756 22.5378C75.8756 21.6454 76.0057 20.7859 76.2662 19.959C76.5267 19.1319 76.9079 18.3746 77.4105 17.687C77.9131 16.9993 78.5921 16.451 79.4478 16.0419C80.3039 15.6331 81.2713 15.4288 82.3504 15.4288C83.4671 15.4288 84.4113 15.6425 85.1834 16.07C85.9555 16.4975 86.5275 17.0271 86.8997 17.6591V15.847H91.0864V28.6716C91.0864 29.9538 90.8675 31.0737 90.4306 32.031C89.9932 32.9883 89.393 33.727 88.6302 34.2472C87.8673 34.7676 87.0301 35.1533 86.1182 35.4044C85.2065 35.6551 84.2205 35.7806 83.1598 35.7806C81.0385 35.7806 79.1129 35.3624 77.3824 34.526V30.4834C78.8895 31.4129 80.6013 31.8774 82.5181 31.8774C85.0672 31.8774 86.3416 30.9017 86.3416 28.9502V28.1417C85.374 29.1453 84.0438 29.6471 82.3504 29.6471C81.2713 29.6471 80.3039 29.4428 79.4478 29.034C78.5919 28.6251 77.9128 28.0764 77.4105 27.3889C76.9081 26.7015 76.5269 25.9435 76.2662 25.1166ZM86.3418 21.0042C86.1186 20.5396 85.7651 20.1447 85.2814 19.8194C84.7977 19.4943 84.2486 19.3315 83.6347 19.3315C82.7042 19.3315 81.9926 19.6474 81.4995 20.2794C81.0065 20.9112 80.76 21.6642 80.76 22.5378C80.76 23.4114 81.0065 24.164 81.4995 24.796C81.9926 25.428 82.7042 25.7439 83.6347 25.7439C84.2486 25.7439 84.7977 25.5811 85.2814 25.256C85.7649 24.9309 86.1186 24.5358 86.3418 24.0715V21.0042ZM98.8879 17.6587C100.023 16.0047 101.772 15.3075 104.135 15.5678V20.1678C103.186 19.9633 102.269 19.9959 101.386 20.2653C100.502 20.5349 99.8555 20.9858 99.4462 21.6175V29.2282H94.7014V15.8466H98.8881V17.6587H98.8879ZM108.157 27.7926C106.715 26.5567 105.994 24.805 105.994 22.5376C105.994 20.2702 106.715 18.5183 108.157 17.2824C109.599 16.0464 111.39 15.4286 113.53 15.4286C115.669 15.4286 117.46 16.0464 118.902 17.2824C120.344 18.5183 121.065 20.2702 121.065 22.5376C121.065 24.805 120.344 26.5567 118.902 27.7926C117.46 29.0288 115.669 29.6467 113.53 29.6467C111.39 29.6467 109.599 29.0288 108.157 27.7926ZM115.539 24.6285C115.967 24.0713 116.181 23.3739 116.181 22.5376C116.181 21.7011 115.967 21.0042 115.539 20.4467C115.112 19.8892 114.442 19.6102 113.53 19.6102C112.618 19.6102 111.948 19.889 111.52 20.4467C111.092 21.0042 110.879 21.7013 110.879 22.5376C110.879 23.3739 111.092 24.071 111.52 24.6285C111.948 25.1862 112.618 25.4651 113.53 25.4651C114.442 25.4651 115.112 25.1862 115.539 24.6285ZM138.987 29.2284H123.274V25.7437L131.758 14.3134H123.776V9.71329H138.736V13.1982L130.223 24.6285H138.987V29.2284ZM164.851 29.2284H160.106V15.8466H164.293V17.2685C164.702 16.7853 165.274 16.3576 166.009 15.986C166.744 15.6145 167.549 15.4286 168.424 15.4286C170.21 15.4286 171.531 16.0417 172.387 17.2685C173.708 16.0417 175.131 15.4286 176.657 15.4286C177.606 15.4286 178.425 15.6005 179.113 15.9443C179.802 16.288 180.313 16.7433 180.648 17.3102C180.983 17.8771 181.225 18.4348 181.374 18.9831C181.523 19.5313 181.597 20.0843 181.597 20.6418V29.2284H176.853V21.0598C176.853 20.5583 176.708 20.1678 176.42 19.889C176.131 19.6102 175.764 19.4707 175.318 19.4707C174.592 19.4707 173.941 19.7588 173.364 20.3349V20.6416V29.2282H168.619V21.0598C168.619 20.5583 168.475 20.1678 168.187 19.889C167.898 19.6102 167.531 19.4707 167.084 19.4707C166.21 19.4707 165.465 19.8609 164.851 20.6416V29.2284H164.851ZM189.761 29.2284H185.016V15.8466H189.761V29.2284ZM190.096 11.3303C190.096 12.2038 189.84 12.8592 189.328 13.2957C188.817 13.7326 188.17 13.9508 187.388 13.9508C186.607 13.9508 185.96 13.7323 185.449 13.2957C184.937 12.8592 184.681 12.2038 184.681 11.3303C184.681 10.4753 184.942 9.82937 185.463 9.39268C185.984 8.956 186.626 8.73755 187.388 8.73755C188.17 8.73755 188.817 8.956 189.328 9.39268C189.84 9.82937 190.096 10.4753 190.096 11.3303ZM197.516 17.38C198.725 16.0792 200.149 15.4286 201.786 15.4286C203.535 15.4286 204.866 15.9443 205.777 16.9759C206.689 18.0076 207.145 19.3225 207.145 20.9206V29.2286H202.4V21.5619C202.4 20.8742 202.214 20.3535 201.842 20.0006C201.47 19.6476 200.977 19.471 200.363 19.471C199.451 19.471 198.688 19.8612 198.074 20.6418V29.2284H193.329V15.8466H197.516L197.516 17.38ZM152.37 27.4165C151.997 28.0483 151.425 28.5782 150.653 29.0057C149.881 29.4329 148.937 29.6467 147.82 29.6467C146.741 29.6467 145.773 29.4423 144.917 29.0335C144.061 28.6247 143.382 28.0759 142.88 27.3885C142.378 26.701 141.996 25.9435 141.736 25.1166C141.475 24.2893 141.345 23.4296 141.345 22.5378C141.345 21.6454 141.475 20.7859 141.736 19.959C141.996 19.1319 142.377 18.3746 142.88 17.687C143.383 16.9993 144.062 16.451 144.917 16.0419C145.773 15.6331 146.741 15.4288 147.82 15.4288C148.937 15.4288 149.881 15.6425 150.653 16.07C151.425 16.4975 151.997 17.0271 152.37 17.6591V15.847H156.556V29.2288H152.37V27.4165ZM146.969 20.2794C146.476 20.9112 146.229 21.6642 146.229 22.5378C146.229 23.4114 146.476 24.164 146.969 24.796C147.462 25.428 148.174 25.7439 149.104 25.7439C149.718 25.7439 150.267 25.5811 150.751 25.256C151.234 24.9309 151.588 24.5358 151.811 24.0715V21.0046C151.588 20.5401 151.235 20.1452 150.751 19.8198C150.267 19.4948 149.718 19.332 149.104 19.332C148.174 19.3315 147.462 19.6474 146.969 20.2794Z" fill="black"/>
<path d="M19.436 9.70776H19.5996C19.5996 15.0467 23.9729 19.4149 29.3177 19.4149V19.5784C23.9727 19.5784 19.5996 23.9465 19.5996 29.2857H19.436C19.436 23.9465 15.0627 19.5784 9.71777 19.5784V19.4149C15.0627 19.4149 19.436 15.0467 19.436 9.70776Z" fill="#00CD69"/>
<path d="M29.3176 0C34.6846 0 39.0354 4.34617 39.0354 9.70714C39.0354 15.0683 34.6846 19.4143 29.3176 19.4143V9.70737H19.5996C19.5996 4.34617 23.9504 0 29.3176 0Z" fill="#00CD69"/>
<path d="M9.71802 0.0012207C15.085 0.0012207 19.4358 4.34739 19.4358 9.70836H9.7178V19.4155C4.35059 19.4155 0 15.0696 0 9.70836C0 4.34739 4.35081 0.0012207 9.71802 0.0012207Z" fill="#00CD69"/>
<path d="M29.3176 19.5779C34.6846 19.5779 39.0354 23.924 39.0354 29.2848C39.0354 34.646 34.6846 38.9919 29.3176 38.9919C23.9506 38.9919 19.5998 34.6462 19.5996 29.2853H29.3174L29.3176 19.5779Z" fill="#00CD69"/>
<path d="M19.436 29.2853C19.4358 34.6462 15.085 38.9919 9.71824 38.9919C4.35081 38.9919 0 34.646 0 29.2848C0 23.924 4.35059 19.5781 9.7178 19.5779V29.2853H19.436Z" fill="#00CD69"/>
</svg>
