<svg width="89" height="89" viewBox="0 0 89 89" fill="none" xmlns="http://www.w3.org/2000/svg">
<g clip-path="url(#clip0)">
<path d="M88.8014 61.1508C88.1841 58.9009 86.2976 57.2267 83.9902 56.8806V23.0611H86.9372C87.7509 23.0611 88.4107 22.4013 88.4107 21.5875V6.85242C88.4107 6.03796 87.7509 5.37891 86.9372 5.37891H22.1027C21.2889 5.37891 20.6292 6.03796 20.6292 6.85242V21.5875C20.6292 22.4013 21.2889 23.0611 22.1027 23.0611H25.0497V52.5313H23.5762C19.919 52.5227 16.3367 53.5709 13.2616 55.5503V48.1108C13.2616 47.2963 12.6018 46.6372 11.7881 46.6372H1.47351C0.659771 46.6372 0 47.2963 0 48.1108V82.0015C0 82.8153 0.659771 83.475 1.47351 83.475H11.7881C12.6018 83.475 13.2616 82.8153 13.2616 82.0015V74.5627C16.3374 76.5406 19.919 77.5889 23.5762 77.581H47.7711C49.4475 77.5781 51.116 77.3579 52.7356 76.9263L84.6384 68.3802C87.7775 67.5247 89.6374 64.2956 88.8014 61.1508ZM23.5762 8.32593H85.4637V20.114H23.5762V8.32593ZM27.9967 23.0611H81.0431V57.1339L63.9416 61.7199C63.2373 60.0406 61.8004 58.7793 60.0442 58.298L40.1899 52.9731C39.0718 52.6788 37.9206 52.5299 36.7644 52.5313H27.9967V23.0611ZM10.3146 80.528H2.94702V49.5843H10.3146V80.528ZM83.8736 65.5332L51.9765 74.0792C50.6045 74.4455 49.1914 74.6318 47.7711 74.634H23.5762C20.068 74.6419 16.6526 73.5037 13.8509 71.392L13.2616 70.9502V59.1621L13.8509 58.7196C16.6526 56.6079 20.068 55.469 23.5762 55.4783H36.7644C37.6645 55.4776 38.5617 55.5942 39.433 55.8244L59.2808 61.145C60.4536 61.4681 61.3119 62.4732 61.4457 63.6826C61.4616 63.7431 61.481 63.8028 61.5047 63.8611C61.4875 63.9244 61.4745 63.9884 61.4659 64.0539C61.4673 64.2935 61.4349 64.5324 61.3687 64.7626C61.0219 66.0469 59.8585 66.9398 58.5282 66.9419C58.2685 66.9441 58.0109 66.911 57.7605 66.8448L45.2357 63.4862C44.7219 63.3337 44.1658 63.4718 43.783 63.8474C43.401 64.223 43.252 64.7763 43.3952 65.2929C43.5384 65.8087 43.9507 66.2073 44.4723 66.3318L56.9971 69.6918C57.4972 69.8235 58.013 69.8897 58.5311 69.8889C61.1802 69.8875 63.502 68.1154 64.2021 65.5598C64.2841 65.2641 64.3395 64.9619 64.369 64.6568L82.3325 59.8399C82.4605 59.8075 82.5994 59.7744 82.7303 59.7528C84.1974 59.5636 85.5766 60.491 85.9558 61.9199C86.022 62.1688 86.0551 62.4257 86.0529 62.6833C86.0551 64.0172 85.1615 65.1856 83.8736 65.5332Z" fill="#00CD69"/>
<path d="M47.1532 28.9548H61.8883C62.7021 28.9548 63.3618 28.2951 63.3618 27.4813C63.3618 26.6669 62.7021 26.0078 61.8883 26.0078H47.1532C46.3395 26.0078 45.6797 26.6669 45.6797 27.4813C45.6797 28.2951 46.3395 28.9548 47.1532 28.9548Z" fill="#00CD69"/>
</g>
<defs>
<clipPath id="clip0">
<rect width="89" height="89" fill="white"/>
</clipPath>
</defs>
</svg>
