<svg width="37" height="296" viewBox="0 0 37 296" fill="none" xmlns="http://www.w3.org/2000/svg">
<g opacity="0.5">
<circle cx="27.75" cy="27.75" r="9.25" fill="white"/>
<circle cx="27.75" cy="9.25" r="9.25" fill="white"/>
<circle cx="9.25" cy="9.25" r="9.25" fill="white"/>
<circle cx="9.25" cy="27.75" r="9.25" fill="white"/>
</g>
<g opacity="0.5">
<circle cx="27.75" cy="64.75" r="9.25" fill="white"/>
<circle cx="27.75" cy="46.25" r="9.25" fill="white"/>
<circle cx="9.25" cy="46.25" r="9.25" fill="white"/>
<circle cx="9.25" cy="64.75" r="9.25" fill="white"/>
</g>
<g opacity="0.5">
<circle cx="27.75" cy="138.75" r="9.25" fill="white"/>
<circle cx="27.75" cy="120.25" r="9.25" fill="white"/>
<circle cx="9.25" cy="120.25" r="9.25" fill="white"/>
<circle cx="9.25" cy="138.75" r="9.25" fill="white"/>
</g>
<g opacity="0.5">
<circle cx="27.75" cy="175.75" r="9.25" fill="white"/>
<circle cx="27.75" cy="157.25" r="9.25" fill="white"/>
<circle cx="9.25" cy="157.25" r="9.25" fill="white"/>
<circle cx="9.25" cy="175.75" r="9.25" fill="white"/>
</g>
<g opacity="0.5">
<circle cx="27.75" cy="212.75" r="9.25" fill="white"/>
<circle cx="27.75" cy="194.25" r="9.25" fill="white"/>
<circle cx="9.25" cy="194.25" r="9.25" fill="white"/>
<circle cx="9.25" cy="212.75" r="9.25" fill="white"/>
</g>
<g opacity="0.5">
<circle cx="27.75" cy="249.75" r="9.25" fill="white"/>
<circle cx="27.75" cy="231.25" r="9.25" fill="white"/>
<circle cx="9.25" cy="231.25" r="9.25" fill="white"/>
<circle cx="9.25" cy="249.75" r="9.25" fill="white"/>
</g>
<g opacity="0.5">
<circle cx="27.75" cy="286.75" r="9.25" fill="white"/>
<circle cx="27.75" cy="268.25" r="9.25" fill="white"/>
<circle cx="9.25" cy="268.25" r="9.25" fill="white"/>
<circle cx="9.25" cy="286.75" r="9.25" fill="white"/>
</g>
<g opacity="0.5">
<circle cx="27.75" cy="101.75" r="9.25" fill="white"/>
<circle cx="27.75" cy="83.25" r="9.25" fill="white"/>
<circle cx="9.25" cy="83.25" r="9.25" fill="white"/>
<circle cx="9.25" cy="101.75" r="9.25" fill="white"/>
</g>
</svg>
