<svg width="94" height="94" viewBox="0 0 94 94" fill="none" xmlns="http://www.w3.org/2000/svg">
<path d="M52.875 55.8125V73.4375C52.875 74.2166 53.1845 74.9637 53.7354 75.5146C54.2863 76.0655 55.0334 76.375 55.8125 76.375H73.4375C74.2166 76.375 74.9637 76.0655 75.5146 75.5146C76.0655 74.9637 76.375 74.2166 76.375 73.4375V55.8125C76.375 55.0334 76.0655 54.2863 75.5146 53.7354C74.9637 53.1845 74.2166 52.875 73.4375 52.875H55.8125C55.0334 52.875 54.2863 53.1845 53.7354 53.7354C53.1845 54.2863 52.875 55.0334 52.875 55.8125ZM58.75 70.5V58.75H70.5V70.5H58.75Z" fill="#00CD69"/>
<path d="M17.625 0C17.1944 0.000161446 16.7692 0.0949704 16.3793 0.277714C15.9895 0.460458 15.6446 0.726669 15.369 1.0575L0.6815 18.6825C0.241457 19.2102 0.000309162 19.8754 0 20.5625V29.375C0 34.592 2.26775 39.2861 5.875 42.5115V91.0625C5.875 91.8416 6.18449 92.5887 6.73537 93.1396C7.28626 93.6905 8.03343 94 8.8125 94H85.1875C85.9666 94 86.7137 93.6905 87.2646 93.1396C87.8155 92.5887 88.125 91.8416 88.125 91.0625V42.5115C91.7322 39.2803 94 34.592 94 29.375V20.5625V20.4567C94 19.928 94 19.505 93.3185 18.6825L78.631 1.0575C78.3554 0.726669 78.0105 0.460458 77.6207 0.277714C77.2308 0.0949704 76.8056 0.000161446 76.375 0H17.625ZM17.625 41.125C14.5087 41.125 11.52 39.8871 9.31649 37.6835C7.11294 35.4799 5.875 32.4913 5.875 29.375V23.5H29.375V29.375C29.375 32.4913 28.1371 35.4799 25.9335 37.6835C23.73 39.8871 20.7413 41.125 17.625 41.125ZM47 41.125C43.8837 41.125 40.8951 39.8871 38.6915 37.6835C36.4879 35.4799 35.25 32.4913 35.25 29.375V23.5H58.75V29.375C58.75 32.4913 57.5121 35.4799 55.3085 37.6835C53.1049 39.8871 50.1163 41.125 47 41.125ZM76.375 41.125C73.2587 41.125 70.2701 39.8871 68.0665 37.6835C65.8629 35.4799 64.625 32.4913 64.625 29.375V23.5H88.125V29.375C88.125 32.4913 86.8871 35.4799 84.6835 37.6835C82.4799 39.8871 79.4913 41.125 76.375 41.125ZM17.625 88.125H11.75V46.0013C15.453 47.3138 19.4886 47.3502 23.2147 46.1046C26.9408 44.859 30.1432 42.4031 32.3125 39.1275C33.9202 41.5505 36.103 43.5376 38.6659 44.9113C41.2289 46.2851 44.0921 47.0026 47 47C49.9084 47.002 52.772 46.2835 55.335 44.9087C57.8979 43.534 60.0805 41.5457 61.6875 39.1216C63.8568 42.3972 67.0592 44.8532 70.7853 46.0987C74.5114 47.3443 78.547 47.3079 82.25 45.9954V88.125H47V55.8125C47 55.0334 46.6905 54.2863 46.1396 53.7354C45.5887 53.1845 44.8416 52.875 44.0625 52.875H20.5625C19.7834 52.875 19.0363 53.1845 18.4854 53.7354C17.9345 54.2863 17.625 55.0334 17.625 55.8125V88.125ZM30.1975 17.625H9.212L18.9998 5.875H34.1103L30.1975 17.625ZM57.6102 17.625H36.3898L40.3025 5.875H53.6975L57.6102 17.625ZM63.8025 17.625L59.8898 5.875H75.0003L84.7939 17.625H63.8025ZM23.5 88.125V58.75H41.125V88.125H23.5Z" fill="#00CD69"/>
</svg>
