<svg width="61" height="59" viewBox="0 0 61 59" fill="none" xmlns="http://www.w3.org/2000/svg">
<path d="M13.0961 33.7386H47.8396V56.0109C47.8396 56.8363 47.1705 57.5054 46.3451 57.5054H14.5906C13.7652 57.5054 13.0961 56.8363 13.0961 56.0109V33.7386Z" stroke="#00CD69" stroke-width="2.98901"/>
<path d="M15.7201 21.6104L7.34793 16.7026C6.53341 16.2251 5.48572 16.6132 5.17879 17.5061L2.42982 25.5031C2.18406 26.218 2.51089 27.0039 3.19114 27.3337L13.319 32.2441L15.7201 21.6104ZM15.7201 21.6104H21.8945" stroke="#00CD69" stroke-width="2.98901" stroke-linecap="round" stroke-linejoin="round"/>
<path d="M45.9068 21.6104L54.279 16.7026C55.0935 16.2251 56.1412 16.6132 56.4482 17.5061L59.1971 25.5031C59.4429 26.218 59.1161 27.0039 58.4358 27.3337L48.308 32.2441L45.9068 21.6104ZM45.9068 21.6104H39.7324" stroke="#00CD69" stroke-width="2.98901" stroke-linecap="round" stroke-linejoin="round"/>
<path d="M35.2734 10.1683H33.7789V11.6628V23.828C33.7789 24.2407 33.4444 24.5752 33.0317 24.5752H28.5966C28.1839 24.5752 27.8493 24.2407 27.8493 23.828V11.6628V10.1683H26.3548L23.8352 10.1683L30.8141 2.25885L37.793 10.1683H35.2734Z" stroke="#00CD69" stroke-width="2.98901"/>
</svg>
