<svg width="67" height="42" viewBox="0 0 67 42" fill="none" xmlns="http://www.w3.org/2000/svg">
<path d="M52.877 28.4861C51.5832 25.7887 46.9547 22.0446 42.4828 18.427C39.9886 16.4107 37.6318 14.5044 36.1293 13.0019C35.7529 12.6228 35.1899 12.5019 34.6927 12.6805C33.7671 13.0157 33.1956 13.2739 32.7452 13.4743C32.0586 13.7819 31.8278 13.8864 30.902 13.9797C30.4927 14.0209 30.1247 14.2407 29.8967 14.5813C27.9546 17.4847 25.9439 17.2375 24.6006 16.7871C24.1721 16.6443 24.0953 16.4602 24.0541 16.2844C23.7656 15.0786 25.2133 12.2712 27.0893 10.395C31.553 5.92862 33.8549 4.81059 38.7169 6.98342C44.2326 9.45007 49.7593 11.3812 49.8143 11.4004C50.5368 11.6503 51.3141 11.2713 51.564 10.5543C51.8112 9.83738 51.4349 9.05452 50.7179 8.8046C50.663 8.78541 45.2462 6.89277 39.8403 4.47273C33.5417 1.65713 30.0861 3.51128 25.1499 8.45025C23.2711 10.3291 20.7192 14.1308 21.3784 16.9189C21.6613 18.1056 22.4965 18.9846 23.738 19.3938C26.8502 20.4212 29.6904 19.4377 31.8055 16.6305C32.679 16.4959 33.1543 16.2982 33.8684 15.9768C34.1266 15.8614 34.4288 15.7269 34.8299 15.5648C36.4011 17.0398 38.5217 18.7566 40.7549 20.5613C44.7928 23.8273 49.3719 27.5302 50.402 29.6727C50.9102 30.7302 50.3635 31.4197 49.9926 31.7356C49.4488 32.2026 48.7044 32.3509 48.3006 32.0679C47.8556 31.763 47.2761 31.7438 46.8173 32.0185C46.3558 32.2931 46.0976 32.8123 46.1553 33.3452C46.2487 34.2187 45.4493 34.7187 45.1032 34.8918C44.2242 35.3368 43.3068 35.2599 42.9634 34.9412C42.5788 34.5841 42.0266 34.4797 41.5377 34.661C41.0488 34.845 40.7081 35.2955 40.6587 35.8174C40.5763 36.7183 39.9088 37.5836 39.038 37.9215C38.6177 38.0808 38.0079 38.1769 37.4613 37.677C37.1208 37.3694 36.6482 37.2512 36.206 37.3583C35.7583 37.4681 35.3985 37.7923 35.2419 38.2236C35.1897 38.3609 35.0715 38.6906 33.786 38.6906C32.8713 38.6906 31.2259 38.0725 30.4211 37.5396C29.457 36.905 23.411 32.3947 18.1893 28.0216C17.4559 27.4036 16.1868 26.0795 15.0661 24.9094C14.0717 23.8711 13.1625 22.9289 12.6955 22.5334C12.1104 22.0389 11.2451 22.1131 10.7589 22.6955C10.27 23.275 10.3414 24.1431 10.9211 24.632C11.3469 24.9919 12.1709 25.8626 13.0801 26.8103C14.3053 28.0903 15.5715 29.4143 16.4231 30.1285C21.5378 34.411 27.6854 39.034 28.9104 39.8387C29.9213 40.5035 32.0995 41.4374 33.7861 41.4374C35.1403 41.4374 36.1815 41.127 36.9038 40.52C37.8707 40.8964 38.9695 40.8991 40.027 40.487C41.2769 40.0035 42.3041 39.0284 42.8865 37.8473C43.9687 38.0781 45.2077 37.9159 46.3338 37.3502C47.4353 36.7953 48.2318 35.9466 48.6274 34.9548C49.7207 35.0125 50.8468 34.6252 51.778 33.8259C53.3549 32.4773 53.7889 30.3787 52.877 28.4861Z" fill="#00CD69"/>
<path d="M28.2923 5.72803H15.9313C15.1732 5.72803 14.5578 6.34337 14.5578 7.10151C14.5578 7.85965 15.1732 8.47499 15.9313 8.47499H28.2923C29.0504 8.47499 29.6658 7.85965 29.6658 7.10151C29.6658 6.34337 29.0504 5.72803 28.2923 5.72803Z" fill="#00CD69"/>
<path d="M56.9011 25.5632C56.4752 24.9343 55.6238 24.7612 54.9948 25.1897L50.9789 27.8871C50.3499 28.3101 50.1822 29.1644 50.6053 29.7934C50.8717 30.1862 51.3058 30.4005 51.7481 30.4005C52.0091 30.4005 52.2755 30.3263 52.5118 30.1671L56.5277 27.4697C57.1565 27.0466 57.324 26.1924 56.9011 25.5632Z" fill="#00CD69"/>
<path d="M48.3748 32.1174C47.3914 31.3428 42.9936 26.8407 40.2742 24.0059C39.7495 23.4565 38.8788 23.4373 38.3321 23.9647C37.7827 24.4894 37.7662 25.3601 38.2909 25.9068C38.9969 26.6429 45.224 33.1338 46.6717 34.2766C46.9216 34.4744 47.2238 34.5705 47.5204 34.5705C47.9242 34.5705 48.328 34.3892 48.6027 34.0458C49.0725 33.4524 48.9709 32.5871 48.3748 32.1174Z" fill="#00CD69"/>
<path d="M42.8865 34.8725C41.2411 33.5567 37.1071 29.1644 36.1731 28.1481C35.6566 27.5877 34.7913 27.5548 34.231 28.0657C33.6733 28.5793 33.635 29.4501 34.1486 30.0078C34.198 30.0599 39.1315 35.3862 41.1696 37.0178C41.4224 37.2183 41.7273 37.3172 42.0266 37.3172C42.4277 37.3172 42.8287 37.1386 43.1006 36.8036C43.5733 36.2101 43.4771 35.3449 42.8865 34.8725Z" fill="#00CD69"/>
<path d="M37.4202 37.6387C35.4616 35.9878 31.454 31.7219 30.6711 30.884C30.152 30.3292 29.2812 30.2989 28.729 30.8181C28.1742 31.3373 28.1467 32.2052 28.6631 32.7602C29.7894 33.966 33.624 38.0315 35.6485 39.74C35.9066 39.957 36.2198 40.0641 36.5329 40.0641C36.9229 40.0641 37.3131 39.8966 37.585 39.5752C38.0739 38.9928 37.9998 38.1276 37.4202 37.6387Z" fill="#00CD69"/>
<path d="M16.8763 3.3576C14.5222 1.12709 5.10868 0.404613 2.27944 0.237097C1.88942 0.217911 1.52954 0.34693 1.25489 0.607926C0.980119 0.86609 0.823547 1.22868 0.823547 1.60775V26.3297C0.823547 27.0878 1.43889 27.7032 2.19703 27.7032H10.4377C11.031 27.7032 11.5584 27.3214 11.7424 26.7555C11.9429 26.1401 16.6758 11.6147 17.2993 4.47279C17.3351 4.05522 17.1812 3.64319 16.8763 3.3576ZM9.43502 24.9563H3.57038V3.08012C7.98466 3.42893 12.7478 4.18707 14.4783 5.02762C13.7504 11.0433 10.4569 21.7314 9.43502 24.9563Z" fill="#00CD69"/>
<path d="M65.3751 2.9812C54.5909 2.9812 48.6082 5.74182 48.3582 5.85719C48.0012 6.0247 47.7346 6.33514 47.6248 6.71151C47.515 7.08787 47.5698 7.49167 47.7759 7.8267C49.4734 10.5599 54.7886 25.7392 55.8105 29.4419C55.9753 30.0379 56.5165 30.45 57.1345 30.45H65.3751C66.1333 30.45 66.7486 29.8346 66.7486 29.0765V4.35456C66.7486 3.59371 66.1333 2.9812 65.3751 2.9812ZM64.0018 27.7031H58.1619C56.8599 23.4619 53.0142 12.403 50.8689 7.83224C52.9647 7.12084 57.467 5.89839 64.0018 5.74465V27.7031Z" fill="#00CD69"/>
</svg>
