<svg width="110" height="110" viewBox="0 0 110 110" fill="none" xmlns="http://www.w3.org/2000/svg">
<circle cx="55.0392" cy="55.3137" r="51.8791" stroke="#E0E0E0" stroke-width="5"/>
<path d="M88.7448 76.6511L88.3368 75.1427L87.8011 73.1625C89.1055 64.0073 89.1055 54.7267 87.8011 45.5714L88.7448 42.0828C88.9478 41.3322 88.7379 40.556 88.1832 40.0066C87.6285 39.457 86.8449 39.2492 86.0871 39.4502L82.6066 40.374C76.7787 39.0517 70.875 39.0517 65.047 40.374L61.5665 39.4502C60.8089 39.2491 60.0252 39.457 59.4703 40.0065C58.9157 40.556 58.7057 41.3321 58.9087 42.0827L59.8525 45.5713C58.5481 54.7266 58.5481 64.0072 59.8525 73.1625L58.9088 76.6511C58.7057 77.4017 58.9157 78.1779 59.4703 78.7273C60.0251 79.2768 60.8086 79.4847 61.5664 79.2836L65.0469 78.3598C70.8749 79.6821 76.7786 79.6821 82.6066 78.3598L86.0871 79.2836C86.2773 79.3342 86.4692 79.3588 86.6586 79.3588C87.2238 79.3588 87.7676 79.1389 88.1832 78.7273C88.7379 78.1779 88.9478 77.4017 88.7448 76.6511ZM85.4542 73.5376L86.0524 75.749L86.373 76.9343L82.9327 76.0212C82.7436 75.9709 82.5448 75.968 82.3541 76.0128C76.6959 77.3401 70.9577 77.3401 65.2994 76.0128C65.2096 75.9918 65.1182 75.9813 65.0268 75.9813C64.9239 75.9813 64.821 75.9946 64.7208 76.0212L61.2805 76.9343L62.1993 73.5376C62.2406 73.3846 62.2502 73.2248 62.2275 73.0679C60.9094 63.9766 60.9094 54.7572 62.2275 45.666C62.2502 45.5092 62.2406 45.3493 62.1993 45.1963L61.2806 41.7997L64.7209 42.7128C64.9098 42.763 65.1087 42.7659 65.2994 42.7211C70.9577 41.3938 76.6959 41.3938 82.3542 42.7211C82.5449 42.7659 82.7437 42.763 82.9328 42.7128L86.3731 41.7997L85.4543 45.1964C85.413 45.3494 85.4033 45.5092 85.426 45.6661C86.7441 54.7573 86.7441 63.9767 85.426 73.068C85.4032 73.2247 85.4128 73.3846 85.4542 73.5376Z" fill="#00CD69"/>
<path d="M51.4872 76.6511L51.0791 75.1427L50.5435 73.1625C51.8478 64.0073 51.8478 54.7267 50.5435 45.5714L51.4871 42.0828C51.6902 41.3322 51.4802 40.556 50.9256 40.0066C50.3708 39.457 49.5872 39.2492 48.8295 39.4502L45.349 40.374C39.521 39.0517 33.6173 39.0517 27.7893 40.374L24.3088 39.4502C23.5512 39.2491 22.7675 39.457 22.2127 40.0065C21.658 40.556 21.4481 41.3321 21.6511 42.0827L22.5948 45.5713C21.2904 54.7266 21.2904 64.0072 22.5948 73.1625L21.6511 76.6511C21.4481 77.4017 21.658 78.1779 22.2127 78.7273C22.7674 79.2768 23.5509 79.4847 24.3088 79.2836L27.7893 78.3598C33.6172 79.6821 39.5209 79.6821 45.3489 78.3598L48.8294 79.2836C49.0196 79.3342 49.2115 79.3588 49.4009 79.3588C49.9661 79.3588 50.5099 79.1389 50.9255 78.7273C51.4802 78.1779 51.6902 77.4017 51.4872 76.6511ZM48.1965 73.5376L48.7947 75.749L49.1153 76.9343L45.675 76.0212C45.4859 75.9709 45.2872 75.968 45.0965 76.0128C39.4382 77.3401 33.7 77.3401 28.0417 76.0128C27.952 75.9918 27.8605 75.9813 27.7692 75.9813C27.6662 75.9813 27.5633 75.9946 27.4631 76.0212L24.0228 76.9343L24.9416 73.5376C24.9829 73.3846 24.9926 73.2248 24.9699 73.0679C23.6518 63.9766 23.6518 54.7572 24.9699 45.666C24.9926 45.5092 24.9829 45.3493 24.9416 45.1963L24.0229 41.7997L27.4632 42.7128C27.6522 42.763 27.851 42.7659 28.0418 42.7211C33.7 41.3938 39.4382 41.3938 45.0965 42.7211C45.2872 42.7659 45.486 42.763 45.6751 42.7128L49.1154 41.7997L48.1966 45.1964C48.1553 45.3494 48.1456 45.5092 48.1684 45.6661C49.4865 54.7573 49.4865 63.9767 48.1684 73.068C48.1455 73.2247 48.1551 73.3846 48.1965 73.5376Z" fill="#00CD69"/>
<path d="M71.555 32.5594H38.8409V78.9044H72.0093L71.555 32.5594Z" fill="white"/>
<path d="M74.6772 78.5156L74.1444 76.5272L73.445 73.917C75.1482 61.8487 75.1482 49.6153 73.445 37.547L74.6771 32.9484C74.9423 31.959 74.6682 30.9358 73.9439 30.2115C73.2195 29.4871 72.1964 29.2132 71.2069 29.4781L66.6623 30.6959C59.0524 28.9528 51.3436 28.9528 43.7337 30.6959L39.1891 29.4781C38.1997 29.2131 37.1765 29.4872 36.452 30.2114C35.7277 30.9358 35.4536 31.9589 35.7187 32.9482L36.9509 37.5469C35.2477 49.6152 35.2477 61.8486 36.9509 73.9169L35.7188 78.5155C35.4536 79.505 35.7277 80.5282 36.452 81.2524C37.1763 81.9768 38.1994 82.2508 39.189 81.9857L43.7336 80.768C51.3435 82.511 59.0523 82.511 66.6622 80.768L71.2068 81.9857C71.4552 82.0523 71.7058 82.0849 71.9531 82.0849C72.6911 82.0849 73.4012 81.7949 73.9438 81.2524C74.6682 80.5282 74.9423 79.505 74.6772 78.5156ZM70.3804 74.4114L71.1615 77.3264L71.5802 78.8889L67.088 77.6852C66.8411 77.619 66.5816 77.6151 66.3326 77.6742C58.9443 79.4238 51.4516 79.4238 44.0632 77.6742C43.9461 77.6464 43.8267 77.6326 43.7074 77.6326C43.5729 77.6326 43.4386 77.6501 43.3078 77.6852L38.8156 78.8889L40.0153 74.4114C40.0693 74.2097 40.0818 73.9991 40.0522 73.7923C38.3311 61.8084 38.3311 49.6556 40.0522 37.6717C40.0818 37.465 40.0693 37.2543 40.0153 37.0525L38.8157 32.5752L43.3079 33.7788C43.5546 33.845 43.8142 33.8488 44.0633 33.7898C51.4516 32.0402 58.9443 32.0402 66.3327 33.7898C66.5817 33.8488 66.8412 33.845 67.0881 33.7788L71.5803 32.5752L70.3806 37.0526C70.3266 37.2544 70.3139 37.465 70.3437 37.6718C72.0648 49.6557 72.0648 61.8085 70.3437 73.7924C70.3138 73.999 70.3264 74.2097 70.3804 74.4114Z" fill="#00CD69"/>
<path d="M64.9017 45.726H61.099C58.6982 45.726 56.5604 46.8695 55.198 48.6392C53.8356 46.8694 51.6978 45.726 49.2969 45.726H45.4943C44.6415 45.726 43.9502 46.4173 43.9502 47.27V50.0691C43.9502 54.1743 47.2901 57.5142 51.3953 57.5142H53.6539V64.1939C53.6539 65.0467 54.3453 65.738 55.198 65.738C56.0507 65.738 56.742 65.0467 56.742 64.1939V57.5142H59.0007C63.1059 57.5142 66.4458 54.1743 66.4458 50.0691V47.27C66.4458 46.4173 65.7545 45.726 64.9017 45.726ZM47.0382 50.0691V48.8141H49.2968C51.6993 48.8141 53.6538 50.7686 53.6538 53.1711V54.4261H51.3952C48.9928 54.4261 47.0382 52.4716 47.0382 50.0691ZM63.3577 50.0691C63.3577 52.4715 61.4031 54.4261 59.0007 54.4261H56.742V53.1711C56.742 50.7686 58.6966 48.8141 61.099 48.8141H63.3577V50.0691Z" fill="#00CD69"/>
</svg>
