<svg width="43" height="57" viewBox="0 0 43 57" fill="none" xmlns="http://www.w3.org/2000/svg">
<path d="M13.3929 54.934V25.8276H4.15658C2.84073 25.8276 2.07908 24.3363 2.85046 23.2703L15.7705 5.41506C17.7014 2.74672 21.6764 2.74673 23.6072 5.41507L36.5273 23.2703C37.2987 24.3364 36.537 25.8276 35.2212 25.8276H25.9848V33.6966" stroke="#00CD69" stroke-width="3.22438" stroke-linecap="round" stroke-linejoin="round"/>
<path d="M24.9068 48.8418C28.0709 48.8418 29.5167 47.3959 29.5167 44.2528C29.5167 41.0887 28.0709 39.6429 24.9068 39.6429C21.7427 39.6429 20.2969 41.0887 20.2969 44.2528C20.2969 47.3959 21.7218 48.8418 24.9068 48.8418ZM27.1081 53.5463C26.8512 54.1014 27.0237 54.7854 27.6171 54.9338C28.519 55.1592 28.8835 54.7502 28.9945 54.5742C29.0249 54.5261 29.0467 54.4735 29.0705 54.4218L35.2741 40.9324C35.5647 40.3003 35.3769 39.5889 34.7176 39.3669C34.7105 39.3645 34.7034 39.3621 34.6962 39.3597C33.9988 39.1273 33.4406 39.9471 33.3096 40.16C33.2895 40.1926 33.2724 40.2267 33.2563 40.2614L27.1081 53.5463ZM24.9068 46.8092C23.4819 46.8092 23.0419 46.1596 23.0419 44.2528C23.0419 42.346 23.4819 41.6754 24.9068 41.6754C26.3107 41.6754 26.7717 42.346 26.7717 44.2528C26.7717 46.1387 26.3107 46.8092 24.9068 46.8092ZM37.5422 54.7299C40.7063 54.7299 42.1521 53.2631 42.1521 50.12C42.1521 46.9559 40.7063 45.531 37.5422 45.531C34.3781 45.531 32.9323 46.9559 32.9323 50.12C32.9323 53.2631 34.3571 54.7299 37.5422 54.7299ZM37.5422 52.6764C36.1173 52.6764 35.6773 52.0268 35.6773 50.12C35.6773 48.2131 36.1173 47.5426 37.5422 47.5426C38.9461 47.5426 39.4071 48.2131 39.4071 50.12C39.4071 52.0058 38.9461 52.6764 37.5422 52.6764Z" fill="#00CD69"/>
</svg>
