<svg width="68" height="54" viewBox="0 0 68 54" fill="none" xmlns="http://www.w3.org/2000/svg">
<path d="M67.7448 47.6511L67.3368 46.1427L66.8011 44.1625C68.1055 35.0073 68.1055 25.7267 66.8011 16.5714L67.7448 13.0828C67.9478 12.3322 67.7379 11.556 67.1832 11.0066C66.6285 10.457 65.8449 10.2492 65.0871 10.4502L61.6066 11.374C55.7787 10.0517 49.875 10.0517 44.047 11.374L40.5665 10.4502C39.8089 10.2491 39.0252 10.457 38.4703 11.0065C37.9157 11.556 37.7057 12.3321 37.9087 13.0827L38.8525 16.5713C37.5481 25.7266 37.5481 35.0072 38.8525 44.1625L37.9088 47.6511C37.7057 48.4017 37.9157 49.1779 38.4703 49.7273C39.0251 50.2768 39.8086 50.4847 40.5664 50.2836L44.0469 49.3598C49.8749 50.6821 55.7786 50.6821 61.6066 49.3598L65.0871 50.2836C65.2773 50.3342 65.4692 50.3588 65.6586 50.3588C66.2238 50.3588 66.7676 50.1389 67.1832 49.7273C67.7379 49.1779 67.9478 48.4017 67.7448 47.6511ZM64.4542 44.5376L65.0524 46.749L65.373 47.9343L61.9327 47.0212C61.7436 46.9709 61.5448 46.968 61.3541 47.0128C55.6959 48.3401 49.9577 48.3401 44.2994 47.0128C44.2096 46.9918 44.1182 46.9813 44.0268 46.9813C43.9239 46.9813 43.821 46.9946 43.7208 47.0212L40.2805 47.9343L41.1993 44.5376C41.2406 44.3846 41.2502 44.2248 41.2275 44.0679C39.9094 34.9766 39.9094 25.7572 41.2275 16.666C41.2502 16.5092 41.2406 16.3493 41.1993 16.1963L40.2806 12.7997L43.7209 13.7128C43.9098 13.763 44.1087 13.7659 44.2994 13.7211C49.9577 12.3938 55.6959 12.3938 61.3542 13.7211C61.5449 13.7659 61.7437 13.763 61.9328 13.7128L65.3731 12.7997L64.4543 16.1964C64.413 16.3494 64.4033 16.5092 64.426 16.6661C65.7441 25.7573 65.7441 34.9767 64.426 44.068C64.4032 44.2247 64.4128 44.3846 64.4542 44.5376Z" fill="#00CD69"/>
<path d="M30.4872 47.6511L30.0791 46.1427L29.5435 44.1625C30.8478 35.0073 30.8478 25.7267 29.5435 16.5714L30.4871 13.0828C30.6902 12.3322 30.4802 11.556 29.9256 11.0066C29.3708 10.457 28.5872 10.2492 27.8295 10.4502L24.349 11.374C18.521 10.0517 12.6173 10.0517 6.78933 11.374L3.30885 10.4502C2.55118 10.2491 1.7675 10.457 1.21267 11.0065C0.657999 11.556 0.448066 12.3321 0.651062 13.0827L1.59477 16.5713C0.2904 25.7266 0.2904 35.0072 1.59477 44.1625L0.65114 47.6511C0.448066 48.4017 0.657999 49.1779 1.21267 49.7273C1.76742 50.2768 2.55094 50.4847 3.30877 50.2836L6.78926 49.3598C12.6172 50.6821 18.5209 50.6821 24.3489 49.3598L27.8294 50.2836C28.0196 50.3342 28.2115 50.3588 28.4009 50.3588C28.9661 50.3588 29.5099 50.1389 29.9255 49.7273C30.4802 49.1779 30.6902 48.4017 30.4872 47.6511ZM27.1965 44.5376L27.7947 46.749L28.1153 47.9343L24.675 47.0212C24.4859 46.9709 24.2872 46.968 24.0965 47.0128C18.4382 48.3401 12.7 48.3401 7.04168 47.0128C6.95197 46.9918 6.86052 46.9813 6.76915 46.9813C6.6662 46.9813 6.56332 46.9946 6.46312 47.0212L3.02284 47.9343L3.94164 44.5376C3.98295 44.3846 3.99257 44.2248 3.96986 44.0679C2.65177 34.9766 2.65177 25.7572 3.96986 16.666C3.99257 16.5092 3.98295 16.3493 3.94164 16.1963L3.02292 12.7997L6.4632 13.7128C6.65217 13.763 6.85098 13.7659 7.04176 13.7211C12.7 12.3938 18.4382 12.3938 24.0965 13.7211C24.2872 13.7659 24.486 13.763 24.6751 13.7128L28.1154 12.7997L27.1966 16.1964C27.1553 16.3494 27.1456 16.5092 27.1684 16.6661C28.4865 25.7573 28.4865 34.9767 27.1684 44.068C27.1455 44.2247 27.1551 44.3846 27.1965 44.5376Z" fill="#00CD69"/>
<path d="M50.555 3.55945H17.8409V49.9044H51.0093L50.555 3.55945Z" fill="white"/>
<path d="M53.6772 49.5156L53.1444 47.5272L52.445 44.917C54.1482 32.8487 54.1482 20.6153 52.445 8.54702L53.6771 3.94843C53.9423 2.959 53.6682 1.93581 52.9439 1.21155C52.2195 0.487076 51.1964 0.213162 50.2069 0.478121L45.6623 1.69586C38.0524 -0.0471652 30.3436 -0.0471652 22.7337 1.69586L18.1891 0.478121C17.1997 0.213059 16.1765 0.487179 15.452 1.21144C14.7277 1.93581 14.4536 2.9589 14.7187 3.94822L15.9509 8.54692C14.2477 20.6152 14.2477 32.8486 15.9509 44.9169L14.7188 49.5155C14.4536 50.505 14.7277 51.5282 15.452 52.2524C16.1763 52.9768 17.1994 53.2508 18.189 52.9857L22.7336 51.768C30.3435 53.511 38.0523 53.511 45.6622 51.768L50.2068 52.9857C50.4552 53.0523 50.7058 53.0849 50.9531 53.0849C51.6911 53.0849 52.4012 52.7949 52.9438 52.2524C53.6682 51.5282 53.9423 50.505 53.6772 49.5156ZM49.3804 45.4114L50.1615 48.3264L50.5802 49.8889L46.088 48.6852C45.8411 48.619 45.5816 48.6151 45.3326 48.6742C37.9443 50.4238 30.4516 50.4238 23.0632 48.6742C22.9461 48.6464 22.8267 48.6326 22.7074 48.6326C22.5729 48.6326 22.4386 48.6501 22.3078 48.6852L17.8156 49.8889L19.0153 45.4114C19.0693 45.2097 19.0818 44.9991 19.0522 44.7923C17.3311 32.8084 17.3311 20.6556 19.0522 8.67168C19.0818 8.46498 19.0693 8.25427 19.0153 8.05251L17.8157 3.57518L22.3079 4.77882C22.5546 4.84501 22.8142 4.84881 23.0633 4.78983C30.4516 3.04022 37.9443 3.04022 45.3327 4.78983C45.5817 4.84881 45.8412 4.84501 46.0881 4.77882L50.5803 3.57518L49.3806 8.05262C49.3266 8.25437 49.3139 8.46498 49.3437 8.67178C51.0648 20.6557 51.0648 32.8085 49.3437 44.7924C49.3138 44.999 49.3264 45.2097 49.3804 45.4114Z" fill="#00CD69"/>
<path d="M43.9017 16.726H40.099C37.6982 16.726 35.5604 17.8695 34.198 19.6392C32.8356 17.8694 30.6978 16.726 28.2969 16.726H24.4943C23.6415 16.726 22.9502 17.4173 22.9502 18.27V21.0691C22.9502 25.1743 26.2901 28.5142 30.3953 28.5142H32.6539V35.1939C32.6539 36.0467 33.3453 36.738 34.198 36.738C35.0507 36.738 35.742 36.0467 35.742 35.1939V28.5142H38.0007C42.1059 28.5142 45.4458 25.1743 45.4458 21.0691V18.27C45.4458 17.4173 44.7545 16.726 43.9017 16.726ZM26.0382 21.0691V19.8141H28.2968C30.6993 19.8141 32.6538 21.7686 32.6538 24.1711V25.4261H30.3952C27.9928 25.4261 26.0382 23.4716 26.0382 21.0691ZM42.3577 21.0691C42.3577 23.4715 40.4031 25.4261 38.0007 25.4261H35.742V24.1711C35.742 21.7686 37.6966 19.8141 40.099 19.8141H42.3577V21.0691Z" fill="#00CD69"/>
</svg>
