<svg width="64" height="60" viewBox="0 0 64 60" fill="none" xmlns="http://www.w3.org/2000/svg">
<path d="M35.3721 47.6438V43.041L52.5301 19.6438M35.3721 47.6438L33.8379 49.5616M35.3721 47.6438L39.9749 46.8767L61.0708 17.3424L56.468 14.2739L52.5301 19.6438M52.5301 19.6438L61.4543 25.7808L54.1667 35.7534" stroke="#00CD69" stroke-width="3.45205" stroke-linecap="round" stroke-linejoin="round"/>
<path d="M41.1233 28.4659V13.8905C41.1233 11.984 39.5777 10.4385 37.6712 10.4385H5.45205C3.54554 10.4385 2 11.984 2 13.8905V54.5481C2 56.4546 3.54554 58.0001 5.45205 58.0001H37.6712C39.5777 58.0001 41.1233 56.4546 41.1233 54.5481V51.096" stroke="#00CD69" stroke-width="3.45205" stroke-linecap="round" stroke-linejoin="round"/>
<path d="M9.66992 21.9452L12.7384 26.548L16.9576 18.4932M18.1083 25.0137H33.4507" stroke="#00CD69" stroke-width="3.45205" stroke-linecap="round" stroke-linejoin="round"/>
<path d="M9.66992 36.1369L12.7384 40.7396L16.9576 32.6848M18.1083 39.2054H30.7658" stroke="#00CD69" stroke-width="3.45205" stroke-linecap="round" stroke-linejoin="round"/>
<path d="M28.8503 10.4384V9.67123C28.8503 5.43453 25.4157 2 21.179 2V2C16.9423 2 13.5078 5.43453 13.5078 9.67123V10.4384" stroke="#00CD69" stroke-width="3.45205"/>
</svg>
