<svg width="50" height="50" viewBox="0 0 50 50" fill="none" xmlns="http://www.w3.org/2000/svg">
<g clip-path="url(#clip0)">
<path d="M48.0298 24.8052H46.7843L47.9382 20.7945C48.44 19.0504 48.1134 17.2095 47.0422 15.7439C46.7357 15.3246 46.38 14.9566 45.9876 14.6419L48.2403 12.483C48.2477 12.476 48.2549 12.4688 48.2623 12.4615C49.8809 10.8429 49.8824 8.21063 48.2656 6.59386C47.485 5.81319 46.4444 5.38352 45.335 5.38352C45.3337 5.38352 45.3325 5.38352 45.3312 5.38352C45.0745 5.38371 44.8214 5.40695 44.5744 5.45216L44.5752 4.4301C44.5762 3.32426 44.1444 2.28301 43.3594 1.49791C42.5752 0.713674 41.5354 0.282079 40.431 0.282079C40.4297 0.282079 40.4285 0.282079 40.4272 0.282079C38.1408 0.2842 36.2792 2.14583 36.2771 4.43231L36.2762 5.41659C35.0653 5.28297 33.8063 5.67986 32.8809 6.60533C32.0993 7.38696 31.6683 8.42869 31.6673 9.53858C31.6666 10.2709 31.8543 10.9728 32.2071 11.5921C32.0845 11.5856 31.9612 11.5819 31.8371 11.5819C31.0653 11.5819 30.2951 11.7132 29.5684 11.9644C29.3823 11.7869 29.1869 11.6191 28.982 11.4631C29.0944 10.382 29.2992 9.28822 29.4659 8.58554C29.7384 7.4369 29.4753 6.24767 28.7441 5.32269C28.0146 4.40002 26.9214 3.87067 25.7447 3.87067C24.0782 3.87067 22.6149 4.93631 22.1039 6.5204L20.4653 11.5786C20.3133 11.7009 20.1669 11.8298 20.0259 11.9643C19.8008 11.8864 19.5717 11.82 19.3396 11.7657C19.4289 11.3792 19.4754 10.9815 19.4754 10.5797C19.4754 8.07836 17.7255 5.97794 15.3854 5.43857C15.322 2.58447 12.9805 0.281982 10.1113 0.281982C7.2422 0.281982 4.90048 2.58466 4.83704 5.43886C2.49706 5.97823 0.747059 8.07865 0.747059 10.58C0.747059 11.619 1.05738 12.6248 1.61565 13.4754C0.674371 14.4454 0.117934 15.7612 0.117934 17.1535C0.117934 18.9264 0.999827 20.5406 2.41145 21.5064C2.34638 21.839 2.31312 22.178 2.31312 22.5171C2.31312 23.3002 2.51441 24.085 2.86975 24.8051H1.56369C0.765086 24.8051 0.117645 25.4526 0.117645 26.2512V48.1943C0.117645 48.9929 0.765086 49.6403 1.56369 49.6403H48.0298C48.8284 49.6403 49.4759 48.9929 49.4759 48.1943V26.2512C49.4759 25.4527 48.8284 24.8052 48.0298 24.8052ZM38.7584 24.8052V18.5035C38.7584 17.7378 38.6315 17.0017 38.401 16.3127C38.4541 16.305 38.5051 16.2994 38.5531 16.2966C38.6117 16.2932 42.4856 16.2885 42.5153 16.2894C43.3871 16.3141 44.1861 16.7373 44.7074 17.4506C45.2472 18.1891 45.4117 19.1165 45.159 19.995L45.1321 20.0887L42.6629 20.0917C41.8643 20.0927 41.2177 20.7409 41.2186 21.5395C41.2196 22.3374 41.8668 22.9838 42.6646 22.9838H42.6665L44.2996 22.9818L43.7749 24.8053H38.7584V24.8052ZM34.9258 8.65042C35.4152 8.16088 36.2115 8.15828 36.7008 8.64463C37.1147 9.05618 37.7357 9.17842 38.275 8.95457C38.8142 8.73053 39.1658 8.20427 39.1663 7.62035L39.169 4.43492C39.1696 3.74043 39.7351 3.17493 40.4296 3.17426H40.4308C40.7625 3.17426 41.0763 3.30517 41.3141 3.5431C41.5523 3.78121 41.6832 4.09539 41.683 4.42769L41.68 7.91265C41.6795 8.49762 42.0315 9.02542 42.572 9.24956C43.1119 9.47351 43.7346 9.35011 44.1484 8.93654L44.4429 8.64213C44.679 8.40613 44.9953 8.27589 45.3336 8.2756H45.3348C45.6717 8.2756 45.9862 8.40459 46.2205 8.63885C46.7068 9.12511 46.7082 9.9159 46.226 10.4076L43.0691 13.4333C42.9131 13.4161 42.7559 13.4029 42.597 13.3984C42.5401 13.3967 42.483 13.396 42.4245 13.396L38.727 13.3992C38.6127 13.3993 38.497 13.4028 38.3823 13.4095C38.2492 13.4174 38.1155 13.432 37.9822 13.4514L34.9227 10.4281C34.4334 9.93894 34.4349 9.14149 34.9258 8.65042ZM35.8663 18.5035V24.8052H31.7185V16.9713C31.7185 16.1066 31.5577 15.2791 31.2667 14.5152C31.454 14.4889 31.6441 14.474 31.8371 14.474C34.0588 14.4741 35.8663 16.2817 35.8663 18.5035ZM17.7571 14.4741C17.9484 14.4741 18.1388 14.4891 18.3272 14.516C18.0364 15.2797 17.8757 16.107 17.8757 16.9714V24.8053H13.7278V18.5035C13.7278 16.2817 15.5353 14.4741 17.7571 14.4741ZM20.7677 16.9714C20.7677 14.7496 22.5753 12.9421 24.797 12.9421C27.0188 12.9421 28.8264 14.7496 28.8264 16.9714V24.8053H20.7677V16.9714ZM24.8557 7.4102C24.9805 7.02304 25.3377 6.76295 25.7445 6.76295C26.137 6.76295 26.3707 6.98439 26.4751 7.11646C26.5805 7.24978 26.7436 7.53118 26.6518 7.91814C26.5083 8.52326 26.3494 9.33285 26.2252 10.1988C25.7641 10.1018 25.2866 10.0499 24.797 10.0499C24.522 10.0499 24.2512 10.0678 23.9845 10.0992L24.8557 7.4102ZM5.20521 22.5172C5.20521 22.1383 5.29197 21.7758 5.46318 21.4394C5.65386 21.0647 5.67199 20.6256 5.51292 20.2363C5.35376 19.8471 5.03313 19.5465 4.6346 19.4126C3.66295 19.0865 3.01011 18.1786 3.01011 17.1534C3.01011 16.231 3.55132 15.3826 4.38887 14.9922C4.85334 14.7757 5.16857 14.3295 5.21745 13.8194C5.26632 13.3094 5.04161 12.8115 4.62669 12.5108C3.99921 12.0558 3.63933 11.3521 3.63933 10.5799C3.63933 9.26576 4.70854 8.19655 6.0227 8.19655C6.11419 8.19655 6.20818 8.20243 6.30989 8.21468C6.80221 8.27339 7.29088 8.07615 7.6039 7.69131C7.91692 7.30647 8.01082 6.78801 7.85272 6.31786C7.77 6.07184 7.72797 5.81608 7.72797 5.55743C7.72797 4.24327 8.79717 3.17407 10.1113 3.17407C11.4255 3.17407 12.4947 4.24327 12.4947 5.55743C12.4947 5.81608 12.4527 6.07184 12.37 6.31786C12.2119 6.78801 12.3058 7.30647 12.6188 7.69131C12.9318 8.07615 13.4203 8.27329 13.9128 8.21468C14.0146 8.20243 14.1085 8.19655 14.2001 8.19655C15.5142 8.19655 16.5834 9.26576 16.5834 10.5799C16.5834 10.9898 16.476 11.3896 16.2783 11.7427C13.1704 12.4222 10.836 15.1945 10.836 18.5034V24.8052H6.67448C5.84677 24.3595 5.20521 23.3835 5.20521 22.5172ZM46.5838 46.7484H3.00973V27.6973H46.5838V46.7484Z" fill="#00CD69"/>
<path d="M29.3522 30.5995H20.2413C17.8493 30.5995 15.9032 32.5457 15.9032 34.9377C15.9032 37.3296 17.8493 39.2757 20.2413 39.2757H29.3522C31.7443 39.2757 33.6903 37.3296 33.6903 34.9376C33.6903 32.5455 31.7442 30.5995 29.3522 30.5995ZM29.3522 36.3836H20.2413C19.444 36.3836 18.7953 35.735 18.7953 34.9376C18.7953 34.1403 19.444 33.4916 20.2413 33.4916H29.3522C30.1495 33.4916 30.7982 34.1403 30.7982 34.9377C30.7982 35.735 30.1495 36.3836 29.3522 36.3836Z" fill="#00CD69"/>
</g>
<defs>
<clipPath id="clip0">
<rect width="49.3595" height="49.3595" fill="white" transform="translate(0.117645 0.281006)"/>
</clipPath>
</defs>
</svg>
