<svg width="109" height="109" viewBox="0 0 109 109" fill="none" xmlns="http://www.w3.org/2000/svg">
<circle cx="54.3791" cy="54.3791" r="51.8791" stroke="#E0E0E0" stroke-width="5"/>
<g clip-path="url(#clip0)">
<path d="M78.0298 53.8052H76.7843L77.9382 49.7945C78.44 48.0504 78.1134 46.2095 77.0422 44.7439C76.7357 44.3246 76.38 43.9566 75.9876 43.6419L78.2403 41.483C78.2477 41.476 78.2549 41.4688 78.2623 41.4615C79.8809 39.8429 79.8824 37.2106 78.2656 35.5939C77.485 34.8132 76.4444 34.3835 75.335 34.3835C75.3337 34.3835 75.3325 34.3835 75.3312 34.3835C75.0745 34.3837 74.8214 34.4069 74.5744 34.4522L74.5752 33.4301C74.5762 32.3243 74.1444 31.283 73.3594 30.4979C72.5752 29.7137 71.5354 29.2821 70.431 29.2821C70.4297 29.2821 70.4285 29.2821 70.4272 29.2821C68.1408 29.2842 66.2792 31.1458 66.2771 33.4323L66.2762 34.4166C65.0653 34.283 63.8063 34.6799 62.8809 35.6053C62.0993 36.387 61.6683 37.4287 61.6673 38.5386C61.6666 39.2709 61.8543 39.9728 62.2071 40.5921C62.0845 40.5856 61.9612 40.5819 61.8371 40.5819C61.0653 40.5819 60.2951 40.7132 59.5684 40.9644C59.3823 40.7869 59.1869 40.6191 58.982 40.4631C59.0944 39.382 59.2992 38.2882 59.4659 37.5855C59.7384 36.4369 59.4753 35.2477 58.7441 34.3227C58.0146 33.4 56.9214 32.8707 55.7447 32.8707C54.0782 32.8707 52.6149 33.9363 52.1039 35.5204L50.4653 40.5786C50.3133 40.7009 50.1669 40.8298 50.0259 40.9643C49.8008 40.8864 49.5717 40.82 49.3396 40.7657C49.4289 40.3792 49.4754 39.9815 49.4754 39.5797C49.4754 37.0784 47.7255 34.9779 45.3854 34.4386C45.322 31.5845 42.9805 29.282 40.1113 29.282C37.2422 29.282 34.9005 31.5847 34.837 34.4389C32.4971 34.9782 30.7471 37.0787 30.7471 39.58C30.7471 40.619 31.0574 41.6248 31.6156 42.4754C30.6744 43.4454 30.1179 44.7612 30.1179 46.1535C30.1179 47.9264 30.9998 49.5406 32.4115 50.5064C32.3464 50.839 32.3131 51.178 32.3131 51.5171C32.3131 52.3002 32.5144 53.085 32.8698 53.8051H31.5637C30.7651 53.8051 30.1176 54.4526 30.1176 55.2512V77.1943C30.1176 77.9929 30.7651 78.6403 31.5637 78.6403H78.0298C78.8284 78.6403 79.4759 77.9929 79.4759 77.1943V55.2512C79.4759 54.4527 78.8284 53.8052 78.0298 53.8052ZM68.7584 53.8052V47.5035C68.7584 46.7378 68.6315 46.0017 68.401 45.3127C68.4541 45.305 68.5051 45.2994 68.5531 45.2966C68.6117 45.2932 72.4856 45.2885 72.5153 45.2894C73.3871 45.3141 74.1861 45.7373 74.7074 46.4506C75.2472 47.1891 75.4117 48.1165 75.159 48.995L75.1321 49.0887L72.6629 49.0917C71.8643 49.0927 71.2177 49.7409 71.2186 50.5395C71.2196 51.3374 71.8668 51.9838 72.6646 51.9838H72.6665L74.2996 51.9818L73.7749 53.8053H68.7584V53.8052ZM64.9258 37.6504C65.4152 37.1609 66.2115 37.1583 66.7008 37.6446C67.1147 38.0562 67.7357 38.1784 68.275 37.9546C68.8142 37.7305 69.1658 37.2043 69.1663 36.6204L69.169 33.4349C69.1696 32.7404 69.7351 32.1749 70.4296 32.1743H70.4308C70.7625 32.1743 71.0763 32.3052 71.3141 32.5431C71.5523 32.7812 71.6832 33.0954 71.683 33.4277L71.68 36.9126C71.6795 37.4976 72.0315 38.0254 72.572 38.2496C73.1119 38.4735 73.7346 38.3501 74.1484 37.9365L74.4429 37.6421C74.679 37.4061 74.9953 37.2759 75.3336 37.2756H75.3348C75.6717 37.2756 75.9862 37.4046 76.2205 37.6389C76.7068 38.1251 76.7082 38.9159 76.226 39.4076L73.0691 42.4333C72.9131 42.4161 72.7559 42.4029 72.597 42.3984C72.5401 42.3967 72.483 42.396 72.4245 42.396L68.727 42.3992C68.6127 42.3993 68.497 42.4028 68.3823 42.4095C68.2492 42.4174 68.1155 42.432 67.9822 42.4514L64.9227 39.4281C64.4334 38.9389 64.4349 38.1415 64.9258 37.6504ZM65.8663 47.5035V53.8052H61.7185V45.9713C61.7185 45.1066 61.5577 44.2791 61.2667 43.5152C61.454 43.4889 61.6441 43.474 61.8371 43.474C64.0588 43.4741 65.8663 45.2817 65.8663 47.5035ZM47.7571 43.4741C47.9484 43.4741 48.1388 43.4891 48.3272 43.516C48.0364 44.2797 47.8757 45.107 47.8757 45.9714V53.8053H43.7278V47.5035C43.7278 45.2817 45.5353 43.4741 47.7571 43.4741ZM50.7677 45.9714C50.7677 43.7496 52.5753 41.9421 54.797 41.9421C57.0188 41.9421 58.8264 43.7496 58.8264 45.9714V53.8053H50.7677V45.9714ZM54.8557 36.4102C54.9805 36.023 55.3377 35.7629 55.7445 35.7629C56.137 35.7629 56.3707 35.9844 56.4751 36.1165C56.5805 36.2498 56.7436 36.5312 56.6518 36.9181C56.5083 37.5233 56.3494 38.3329 56.2252 39.1988C55.7641 39.1018 55.2866 39.0499 54.797 39.0499C54.522 39.0499 54.2512 39.0678 53.9845 39.0992L54.8557 36.4102ZM35.2052 51.5172C35.2052 51.1383 35.292 50.7758 35.4632 50.4394C35.6539 50.0647 35.672 49.6256 35.5129 49.2363C35.3538 48.8471 35.0331 48.5465 34.6346 48.4126C33.663 48.0865 33.0101 47.1786 33.0101 46.1534C33.0101 45.231 33.5513 44.3826 34.3889 43.9922C34.8533 43.7757 35.1686 43.3295 35.2174 42.8194C35.2663 42.3094 35.0416 41.8115 34.6267 41.5108C33.9992 41.0558 33.6393 40.3521 33.6393 39.5799C33.6393 38.2658 34.7085 37.1966 36.0227 37.1966C36.1142 37.1966 36.2082 37.2024 36.3099 37.2147C36.8022 37.2734 37.2909 37.0761 37.6039 36.6913C37.9169 36.3065 38.0108 35.788 37.8527 35.3179C37.77 35.0718 37.728 34.8161 37.728 34.5574C37.728 33.2433 38.7972 32.1741 40.1113 32.1741C41.4255 32.1741 42.4947 33.2433 42.4947 34.5574C42.4947 34.8161 42.4527 35.0718 42.37 35.3179C42.2119 35.788 42.3058 36.3065 42.6188 36.6913C42.9318 37.0761 43.4203 37.2733 43.9128 37.2147C44.0146 37.2024 44.1085 37.1966 44.2001 37.1966C45.5142 37.1966 46.5834 38.2658 46.5834 39.5799C46.5834 39.9898 46.476 40.3896 46.2783 40.7427C43.1704 41.4222 40.836 44.1945 40.836 47.5034V53.8052H36.6745C35.8468 53.3595 35.2052 52.3835 35.2052 51.5172ZM76.5838 75.7484H33.0097V56.6973H76.5838V75.7484Z" fill="#00CD69"/>
<path d="M59.3522 59.5995H50.2413C47.8493 59.5995 45.9032 61.5457 45.9032 63.9377C45.9032 66.3296 47.8493 68.2757 50.2413 68.2757H59.3522C61.7443 68.2757 63.6903 66.3296 63.6903 63.9376C63.6903 61.5455 61.7442 59.5995 59.3522 59.5995ZM59.3522 65.3836H50.2413C49.444 65.3836 48.7953 64.735 48.7953 63.9376C48.7953 63.1403 49.444 62.4916 50.2413 62.4916H59.3522C60.1495 62.4916 60.7982 63.1403 60.7982 63.9377C60.7982 64.735 60.1495 65.3836 59.3522 65.3836Z" fill="#00CD69"/>
</g>
<defs>
<clipPath id="clip0">
<rect width="49.3595" height="49.3595" fill="white" transform="translate(30.1176 29.281)"/>
</clipPath>
</defs>
</svg>
