<svg width="109" height="109" viewBox="0 0 109 109" fill="none" xmlns="http://www.w3.org/2000/svg">
<circle cx="54.451" cy="54.4771" r="51.8791" stroke="#E0E0E0" stroke-width="5"/>
<path d="M73.877 63.4861C72.5832 60.7887 67.9547 57.0446 63.4828 53.427C60.9886 51.4107 58.6318 49.5044 57.1293 48.0019C56.7529 47.6228 56.1899 47.5019 55.6927 47.6805C54.7671 48.0157 54.1956 48.2739 53.7452 48.4743C53.0586 48.7819 52.8278 48.8864 51.902 48.9797C51.4927 49.0209 51.1247 49.2407 50.8967 49.5813C48.9546 52.4847 46.9439 52.2375 45.6006 51.7871C45.1721 51.6443 45.0953 51.4602 45.0541 51.2844C44.7656 50.0786 46.2133 47.2712 48.0893 45.395C52.553 40.9286 54.8549 39.8106 59.7169 41.9834C65.2326 44.4501 70.7593 46.3812 70.8143 46.4004C71.5368 46.6503 72.3141 46.2713 72.564 45.5543C72.8112 44.8374 72.4349 44.0545 71.7179 43.8046C71.663 43.7854 66.2462 41.8928 60.8403 39.4727C54.5417 36.6571 51.0861 38.5113 46.1499 43.4503C44.2711 45.3291 41.7192 49.1308 42.3784 51.9189C42.6613 53.1056 43.4965 53.9846 44.738 54.3938C47.8502 55.4212 50.6904 54.4377 52.8055 51.6305C53.679 51.4959 54.1543 51.2982 54.8684 50.9768C55.1266 50.8614 55.4288 50.7269 55.8299 50.5648C57.4011 52.0398 59.5217 53.7566 61.7549 55.5613C65.7928 58.8273 70.3719 62.5302 71.402 64.6727C71.9102 65.7302 71.3635 66.4197 70.9926 66.7356C70.4488 67.2026 69.7044 67.3509 69.3006 67.0679C68.8556 66.763 68.2761 66.7438 67.8173 67.0185C67.3558 67.2931 67.0976 67.8123 67.1553 68.3452C67.2487 69.2187 66.4493 69.7187 66.1032 69.8918C65.2242 70.3368 64.3068 70.2599 63.9634 69.9412C63.5788 69.5841 63.0266 69.4797 62.5377 69.661C62.0488 69.845 61.7081 70.2955 61.6587 70.8174C61.5763 71.7183 60.9088 72.5836 60.038 72.9215C59.6177 73.0808 59.0079 73.1769 58.4613 72.677C58.1208 72.3694 57.6482 72.2512 57.206 72.3583C56.7583 72.4681 56.3985 72.7923 56.2419 73.2236C56.1897 73.3609 56.0715 73.6906 54.786 73.6906C53.8713 73.6906 52.2259 73.0725 51.4211 72.5396C50.457 71.905 44.411 67.3947 39.1893 63.0216C38.4559 62.4036 37.1868 61.0795 36.0661 59.9094C35.0717 58.8711 34.1625 57.9289 33.6955 57.5334C33.1104 57.0389 32.2451 57.1131 31.7589 57.6955C31.27 58.275 31.3414 59.1431 31.9211 59.632C32.3469 59.9919 33.1709 60.8626 34.0801 61.8103C35.3053 63.0903 36.5715 64.4143 37.4231 65.1285C42.5378 69.411 48.6854 74.034 49.9104 74.8387C50.9213 75.5035 53.0995 76.4374 54.7861 76.4374C56.1403 76.4374 57.1815 76.127 57.9038 75.52C58.8707 75.8964 59.9695 75.8991 61.027 75.487C62.2769 75.0035 63.3041 74.0284 63.8865 72.8473C64.9687 73.0781 66.2077 72.9159 67.3338 72.3502C68.4353 71.7953 69.2318 70.9466 69.6274 69.9548C70.7207 70.0125 71.8468 69.6252 72.778 68.8259C74.3549 67.4773 74.7889 65.3787 73.877 63.4861Z" fill="#00CD69"/>
<path d="M49.2923 40.728H36.9313C36.1732 40.728 35.5578 41.3434 35.5578 42.1015C35.5578 42.8596 36.1732 43.475 36.9313 43.475H49.2923C50.0504 43.475 50.6658 42.8596 50.6658 42.1015C50.6658 41.3434 50.0504 40.728 49.2923 40.728Z" fill="#00CD69"/>
<path d="M77.9011 60.5632C77.4752 59.9343 76.6238 59.7612 75.9948 60.1897L71.9789 62.8871C71.3499 63.3101 71.1822 64.1644 71.6053 64.7934C71.8717 65.1862 72.3058 65.4005 72.7481 65.4005C73.0091 65.4005 73.2755 65.3263 73.5118 65.1671L77.5277 62.4697C78.1565 62.0466 78.324 61.1924 77.9011 60.5632Z" fill="#00CD69"/>
<path d="M69.3748 67.1174C68.3914 66.3428 63.9936 61.8407 61.2742 59.0059C60.7495 58.4565 59.8788 58.4373 59.3321 58.9647C58.7827 59.4894 58.7662 60.3601 59.2909 60.9068C59.9969 61.6429 66.224 68.1338 67.6717 69.2766C67.9216 69.4744 68.2238 69.5705 68.5204 69.5705C68.9242 69.5705 69.328 69.3892 69.6027 69.0458C70.0725 68.4524 69.9709 67.5871 69.3748 67.1174Z" fill="#00CD69"/>
<path d="M63.8865 69.8725C62.2411 68.5567 58.1071 64.1644 57.1731 63.1481C56.6566 62.5877 55.7913 62.5548 55.231 63.0657C54.6733 63.5793 54.635 64.4501 55.1486 65.0078C55.198 65.0599 60.1315 70.3862 62.1696 72.0178C62.4224 72.2183 62.7273 72.3172 63.0266 72.3172C63.4277 72.3172 63.8287 72.1386 64.1006 71.8036C64.5733 71.2101 64.4771 70.3449 63.8865 69.8725Z" fill="#00CD69"/>
<path d="M58.4202 72.6387C56.4616 70.9878 52.454 66.7219 51.6711 65.884C51.152 65.3292 50.2812 65.2989 49.729 65.8181C49.1742 66.3373 49.1467 67.2052 49.6631 67.7602C50.7894 68.966 54.624 73.0315 56.6485 74.74C56.9066 74.957 57.2198 75.0641 57.5329 75.0641C57.9229 75.0641 58.3131 74.8966 58.585 74.5752C59.0739 73.9928 58.9998 73.1276 58.4202 72.6387Z" fill="#00CD69"/>
<path d="M37.8763 38.3576C35.5222 36.1271 26.1087 35.4046 23.2794 35.2371C22.8894 35.2179 22.5295 35.3469 22.2549 35.6079C21.9801 35.8661 21.8235 36.2287 21.8235 36.6077V61.3297C21.8235 62.0878 22.4389 62.7032 23.197 62.7032H31.4377C32.031 62.7032 32.5584 62.3214 32.7424 61.7555C32.9429 61.1401 37.6758 46.6147 38.2993 39.4728C38.3351 39.0552 38.1812 38.6432 37.8763 38.3576ZM30.435 59.9563H24.5704V38.0801C28.9847 38.4289 33.7478 39.1871 35.4783 40.0276C34.7504 46.0433 31.4569 56.7314 30.435 59.9563Z" fill="#00CD69"/>
<path d="M86.3751 37.9812C75.5909 37.9812 69.6082 40.7418 69.3582 40.8572C69.0012 41.0247 68.7346 41.3351 68.6248 41.7115C68.515 42.0879 68.5698 42.4917 68.7759 42.8267C70.4734 45.5599 75.7886 60.7392 76.8105 64.4419C76.9753 65.0379 77.5165 65.45 78.1345 65.45H86.3751C87.1333 65.45 87.7486 64.8346 87.7486 64.0765V39.3546C87.7486 38.5937 87.1333 37.9812 86.3751 37.9812ZM85.0018 62.7031H79.1619C77.8599 58.4619 74.0142 47.403 71.8689 42.8322C73.9647 42.1208 78.467 40.8984 85.0018 40.7446V62.7031Z" fill="#00CD69"/>
</svg>
