<svg width="38" height="48" viewBox="0 0 38 48" fill="none" xmlns="http://www.w3.org/2000/svg">
<path d="M20.1931 0V11.9773C20.1931 13.3387 20.725 14.6443 21.6717 15.6069C22.6184 16.5696 23.9025 17.1104 25.2414 17.1104H37.0207V42.776C37.0207 44.1374 36.4888 45.443 35.5421 46.4056C34.5953 47.3683 33.3113 47.9091 31.9724 47.9091H5.04827C3.70939 47.9091 2.42534 47.3683 1.4786 46.4056C0.53187 45.443 0 44.1374 0 42.776V5.13312C0 3.77173 0.53187 2.4661 1.4786 1.50346C2.42534 0.540809 3.70939 0 5.04827 0H20.1931ZM23.5586 0.200192V11.9773C23.5586 12.4311 23.7359 12.8663 24.0515 13.1872C24.367 13.508 24.7951 13.6883 25.2414 13.6883H36.8238C36.5876 12.8523 36.1464 12.091 35.5415 11.4759L25.7344 1.50571C25.1297 0.890062 24.381 0.440821 23.5586 0.200192Z" fill="#A6ABB3"/>
<path d="M31.5765 42.4704H5.44427V38.115L13.2839 27.2266L24.0217 38.115L31.5765 33.7596V42.4704Z" fill="white"/>
<path d="M31.5765 25.0482C31.5761 26.2033 31.1169 27.311 30.2998 28.1275C29.4828 28.944 28.3748 29.4025 27.2197 29.4021C26.0646 29.4018 24.9569 28.9425 24.1404 28.1255C23.3239 27.3084 22.8654 26.2004 22.8658 25.0453C22.8662 23.8902 23.3254 22.7826 24.1425 21.966C24.9595 21.1495 26.0675 20.691 27.2226 20.6914C28.3777 20.6918 29.4854 21.151 30.3019 21.9681C31.1184 22.7852 31.5769 23.8931 31.5765 25.0482Z" fill="white"/>
</svg>
