<svg width="45" height="51" viewBox="0 0 45 51" fill="none" xmlns="http://www.w3.org/2000/svg">
<path d="M26.462 0V13.5C26.462 14.6935 26.9256 15.8381 27.7507 16.682C28.5759 17.5259 29.6951 18 30.862 18H44.062V43.5C44.062 44.6935 43.5984 45.8381 42.7733 46.682C41.9481 47.5259 40.829 48 39.662 48H25.7081C27.899 45.2867 29.1843 41.9281 29.3763 38.4147C29.5684 34.9013 28.6571 31.4172 26.7756 28.471C24.8942 25.5249 22.141 23.2711 18.9183 22.0387C15.6955 20.8063 12.1719 20.66 8.86201 21.621V4.5C8.86201 3.30653 9.32558 2.16193 10.1507 1.31802C10.9759 0.474106 12.0951 0 13.262 0H26.462ZM29.3953 0.75V13.5C29.3953 13.8978 29.5499 14.2794 29.8249 14.5607C30.1 14.842 30.473 15 30.862 15H43.3287L29.3953 0.75ZM13.262 51C16.7629 51 20.1203 49.5777 22.5958 47.0459C25.0713 44.5142 26.462 41.0804 26.462 37.5C26.462 33.9196 25.0713 30.4858 22.5958 27.9541C20.1203 25.4223 16.7629 24 13.262 24C9.76115 24 6.40368 25.4223 3.9282 27.9541C1.45272 30.4858 0.0620117 33.9196 0.0620117 37.5C0.0620117 41.0804 1.45272 44.5142 3.9282 47.0459C6.40368 49.5777 9.76115 51 13.262 51ZM6.35695 38.562C6.08154 38.2803 5.92683 37.8983 5.92683 37.5C5.92683 37.1017 6.08154 36.7197 6.35695 36.438C6.63235 36.1563 7.00587 35.9981 7.39535 35.9981C7.78482 35.9981 8.15834 36.1563 8.43375 36.438L11.7953 39.879V31.5C11.7953 31.1022 11.9499 30.7206 12.2249 30.4393C12.5 30.158 12.873 30 13.262 30C13.651 30 14.024 30.158 14.2991 30.4393C14.5742 30.7206 14.7287 31.1022 14.7287 31.5V39.879L18.0903 36.438C18.3657 36.1563 18.7392 35.9981 19.1287 35.9981C19.5182 35.9981 19.8917 36.1563 20.1671 36.438C20.4425 36.7197 20.5972 37.1017 20.5972 37.5C20.5972 37.8983 20.4425 38.2803 20.1671 38.562L14.3004 44.562C14.027 44.8409 13.657 44.9983 13.2708 45H13.2532C12.8709 44.9976 12.5046 44.8426 12.2324 44.568L12.2236 44.559L6.35695 38.559V38.562Z" fill="#A6ABB3"/>
</svg>
