<svg width="18" height="22" viewBox="0 0 18 22" fill="none" xmlns="http://www.w3.org/2000/svg">
<path d="M9.00106 12.572C8.19196 12.572 7.40102 12.3416 6.72828 11.9099C6.05553 11.4782 5.53119 10.8647 5.22156 10.1468C4.91193 9.42896 4.83092 8.63906 4.98876 7.87699C5.14661 7.11492 5.53623 6.41492 6.10836 5.8655C6.68048 5.31608 7.40941 4.94192 8.20297 4.79033C8.99653 4.63875 9.81907 4.71655 10.5666 5.01389C11.3141 5.31123 11.953 5.81477 12.4025 6.46082C12.852 7.10687 13.092 7.86642 13.092 8.64342C13.0907 9.68496 12.6592 10.6835 11.8923 11.42C11.1254 12.1564 10.0856 12.5707 9.00106 12.572ZM9.00106 6.28627C8.5156 6.28627 8.04104 6.42452 7.63739 6.68352C7.23374 6.94253 6.91914 7.31067 6.73336 7.74138C6.54758 8.17209 6.49897 8.64603 6.59368 9.10327C6.68839 9.56051 6.92216 9.98052 7.26544 10.3102C7.60871 10.6398 8.04607 10.8643 8.52221 10.9553C8.99834 11.0462 9.49187 10.9995 9.94038 10.8211C10.3889 10.6427 10.7722 10.3406 11.0419 9.95298C11.3117 9.56535 11.4556 9.10962 11.4556 8.64342C11.455 8.01846 11.1961 7.41927 10.736 6.97735C10.2758 6.53544 9.65185 6.2869 9.00106 6.28627Z" fill="#999999"/>
<path d="M9 22L2.09783 14.1829C2.00192 14.0656 1.90701 13.9474 1.8131 13.8286C0.634084 12.3371 -0.00284824 10.5154 9.57508e-06 8.64286C9.57508e-06 6.35063 0.94822 4.15228 2.63605 2.53143C4.32387 0.910584 6.61305 0 9 0C11.3869 0 13.6761 0.910584 15.364 2.53143C17.0518 4.15228 18 6.35063 18 8.64286C18.0028 10.5145 17.3662 12.3354 16.1877 13.8262L16.1869 13.8286C16.1869 13.8286 15.9414 14.1381 15.9046 14.1798L9 22ZM3.11892 12.8818C3.12055 12.8818 3.31037 13.1238 3.35373 13.1756L9 19.5706L14.6536 13.167C14.6896 13.1238 14.8811 12.8802 14.8819 12.8794C15.845 11.6609 16.3655 10.1727 16.3636 8.64286C16.3636 6.7674 15.5878 4.96875 14.2069 3.6426C12.8259 2.31645 10.953 1.57143 9 1.57143C7.04704 1.57143 5.17408 2.31645 3.79313 3.6426C2.41218 4.96875 1.63637 6.7674 1.63637 8.64286C1.63465 10.1736 2.15573 11.6627 3.11973 12.8818H3.11892Z" fill="#999999"/>
</svg>
