<svg width="65" height="87" viewBox="0 0 65 87" fill="none" xmlns="http://www.w3.org/2000/svg">
<path d="M52.8789 27.9814C53.1272 28.2339 53.3243 28.5339 53.4587 28.8642C53.5931 29.1945 53.6623 29.5486 53.6623 29.9062C53.6623 30.2639 53.5931 30.618 53.4587 30.9483C53.3243 31.2786 53.1272 31.5786 52.8789 31.8311L43.5456 41.3468C43.0597 41.8415 42.4054 42.1261 41.7189 42.1413C41.0324 42.1565 40.3666 41.9011 39.8602 41.4283L35.8602 37.7036C35.3648 37.2109 35.0767 36.5412 35.0567 35.8359C35.0367 35.1306 35.2865 34.445 35.7532 33.924C36.2199 33.403 36.867 33.0874 37.5578 33.0439C38.2485 33.0003 38.9288 33.2323 39.4549 33.6908L41.5722 35.6591L49.1029 27.9814C49.3506 27.7282 49.6449 27.5273 49.9688 27.3902C50.2928 27.2532 50.6401 27.1826 50.9909 27.1826C51.3416 27.1826 51.689 27.2532 52.0129 27.3902C52.3369 27.5273 52.6312 27.7282 52.8789 27.9814ZM52.8789 59.0186C53.3796 58.5088 53.6612 57.8171 53.6617 57.0957C53.6622 56.3742 53.3816 55.6821 52.8816 55.1716C52.3815 54.6611 51.7031 54.374 50.9954 54.3735C50.2878 54.373 49.609 54.6591 49.1082 55.1689L41.5722 62.8466L39.4549 60.8783C38.9288 60.4198 38.2485 60.1878 37.5578 60.2314C36.867 60.2749 36.2199 60.5905 35.7532 61.1115C35.2865 61.6325 35.0367 62.3181 35.0567 63.0234C35.0767 63.7287 35.3648 64.3984 35.8602 64.8911L39.8602 68.6158C40.3664 69.087 41.031 69.3414 41.7162 69.3262C42.4015 69.311 43.0546 69.0274 43.5402 68.5342L52.8736 59.0186H52.8789ZM13.6576 32.625C12.9503 32.625 12.272 32.9114 11.7719 33.4213C11.2718 33.9312 10.9909 34.6227 10.9909 35.3438C10.9909 36.0648 11.2718 36.7563 11.7719 37.2662C12.272 37.7761 12.9503 38.0625 13.6576 38.0625H26.9909C27.6981 38.0625 28.3764 37.7761 28.8765 37.2662C29.3766 36.7563 29.6576 36.0648 29.6576 35.3438C29.6576 34.6227 29.3766 33.9312 28.8765 33.4213C28.3764 32.9114 27.6981 32.625 26.9909 32.625H13.6576ZM10.9909 62.5312C10.9909 61.8102 11.2718 61.1187 11.7719 60.6088C12.272 60.0989 12.9503 59.8125 13.6576 59.8125H26.9909C27.6981 59.8125 28.3764 60.0989 28.8765 60.6088C29.3766 61.1187 29.6576 61.8102 29.6576 62.5312C29.6576 63.2523 29.3766 63.9438 28.8765 64.4537C28.3764 64.9636 27.6981 65.25 26.9909 65.25H13.6576C12.9503 65.25 12.272 64.9636 11.7719 64.4537C11.2718 63.9438 10.9909 63.2523 10.9909 62.5312ZM16.7776 5.4375C17.3292 3.84661 18.3513 2.46932 19.7029 1.49547C21.0545 0.521607 22.6691 -0.000883485 24.3242 1.12141e-06H40.3242C41.9793 -0.000883485 43.5939 0.521607 44.9455 1.49547C46.2971 2.46932 47.3192 3.84661 47.8709 5.4375H56.3242C58.446 5.4375 60.4808 6.29682 61.9811 7.82641C63.4814 9.35601 64.3242 11.4306 64.3242 13.5938V78.8438C64.3242 81.0069 63.4814 83.0815 61.9811 84.6111C60.4808 86.1407 58.446 87 56.3242 87H8.32422C6.20249 87 4.16765 86.1407 2.66736 84.6111C1.16707 83.0815 0.324219 81.0069 0.324219 78.8438V13.5938C0.324219 11.4306 1.16707 9.35601 2.66736 7.82641C4.16765 6.29682 6.20249 5.4375 8.32422 5.4375H16.7776ZM24.3242 5.4375C23.617 5.4375 22.9387 5.72394 22.4386 6.23381C21.9385 6.74367 21.6576 7.43519 21.6576 8.15625C21.6576 8.87731 21.9385 9.56883 22.4386 10.0787C22.9387 10.5886 23.617 10.875 24.3242 10.875H40.3242C41.0315 10.875 41.7097 10.5886 42.2098 10.0787C42.7099 9.56883 42.9909 8.87731 42.9909 8.15625C42.9909 7.43519 42.7099 6.74367 42.2098 6.23381C41.7097 5.72394 41.0315 5.4375 40.3242 5.4375H24.3242ZM16.7776 10.875H8.32422C7.61697 10.875 6.9387 11.1614 6.4386 11.6713C5.9385 12.1812 5.65755 12.8727 5.65755 13.5938V78.8438C5.65755 79.5648 5.9385 80.2563 6.4386 80.7662C6.9387 81.2761 7.61697 81.5625 8.32422 81.5625H56.3242C57.0315 81.5625 57.7097 81.2761 58.2098 80.7662C58.7099 80.2563 58.9909 79.5648 58.9909 78.8438V13.5938C58.9909 12.8727 58.7099 12.1812 58.2098 11.6713C57.7097 11.1614 57.0315 10.875 56.3242 10.875H47.8709C47.3192 12.4659 46.2971 13.8432 44.9455 14.817C43.5939 15.7909 41.9793 16.3134 40.3242 16.3125H24.3242C22.6691 16.3134 21.0545 15.7909 19.7029 14.817C18.3513 13.8432 17.3292 12.4659 16.7776 10.875Z" fill="#00CD69"/>
</svg>
