<svg width="425" height="94" viewBox="0 0 425 94" fill="none" xmlns="http://www.w3.org/2000/svg">
<path fill-rule="evenodd" clip-rule="evenodd" d="M0.324219 92.9152H124.002V33.4531L62.1633 92.9151L0.324293 33.4531L0.324219 92.9152Z" fill="#00CD69"/>
<path d="M170.969 1.7322H199.105V10.5718H181.276V17.0541H197.489V25.8937H181.276V39.2335H170.969V1.7322ZM201.92 26.3759C201.92 23.983 202.365 21.8668 203.257 20.0275C204.148 18.1882 205.318 16.7595 206.767 15.7416C208.215 14.7237 209.72 13.9648 211.28 13.4648C212.84 12.9648 214.4 12.7148 215.96 12.7148C218.188 12.7148 220.176 13.0362 221.921 13.679C223.667 14.3219 225.051 15.1792 226.072 16.2506C227.093 17.322 227.92 18.5632 228.551 19.9739C229.183 21.3847 229.489 22.867 229.471 24.4205C229.452 25.9741 229.294 27.5367 228.997 29.1081H211.503C212.505 31.7511 215.347 33.0726 220.027 33.0726C222.887 33.0726 225.45 32.6618 227.716 31.8404V38.5907C224.893 39.5549 221.587 40.0371 217.798 40.0371C213.23 40.0371 209.441 38.8317 206.433 36.4209C203.424 34.0102 201.92 30.6617 201.92 26.3759ZM220.361 23.6437C220.547 22.7865 220.315 21.849 219.665 20.8311C219.015 19.8132 217.854 19.3042 216.183 19.3042C214.846 19.3042 213.713 19.6971 212.784 20.4829C211.856 21.2686 211.391 22.3222 211.391 23.6437H220.361ZM242.237 17.0006C244.503 13.8219 247.995 12.4826 252.712 12.9826V21.8221C250.817 21.4293 248.988 21.4918 247.224 22.0097C245.459 22.5275 244.169 23.3936 243.352 24.608V39.2335H233.88V13.5183H242.237V17.0006ZM265.515 39.2335H256.044V13.5183H264.401V16.2506C265.218 15.322 266.36 14.5004 267.827 13.7862C269.294 13.0719 270.901 12.7148 272.647 12.7148C276.212 12.7148 278.85 13.8934 280.558 16.2506C283.195 13.8934 286.037 12.7148 289.083 12.7148C290.977 12.7148 292.611 13.0452 293.985 13.7058C295.36 14.3665 296.381 15.2416 297.05 16.3309C297.718 17.4202 298.201 18.4917 298.498 19.5453C298.795 20.5989 298.944 21.6615 298.944 22.7329V39.2335H289.473V23.5365C289.473 22.5722 289.185 21.8221 288.609 21.2865C288.033 20.7508 287.3 20.4829 286.408 20.4829C284.96 20.4829 283.66 21.0364 282.508 22.1436V22.7329V39.2335H273.037V23.5365C273.037 22.5722 272.749 21.8221 272.173 21.2865C271.597 20.7508 270.864 20.4829 269.972 20.4829C268.227 20.4829 266.741 21.2329 265.515 22.7329V39.2335ZM303.357 26.3759C303.357 23.983 303.802 21.8668 304.694 20.0275C305.585 18.1882 306.755 16.7595 308.204 15.7416C309.652 14.7237 311.157 13.9648 312.717 13.4648C314.277 12.9648 315.837 12.7148 317.397 12.7148C319.625 12.7148 321.612 13.0362 323.358 13.679C325.104 14.3219 326.488 15.1792 327.509 16.2506C328.53 17.322 329.357 18.5632 329.988 19.9739C330.62 21.3847 330.926 22.867 330.908 24.4205C330.889 25.9741 330.731 27.5367 330.434 29.1081H312.939C313.942 31.7511 316.784 33.0726 321.464 33.0726C324.324 33.0726 326.887 32.6618 329.152 31.8404V38.5907C326.33 39.5549 323.024 40.0371 319.235 40.0371C314.667 40.0371 310.878 38.8317 307.869 36.4209C304.861 34.0102 303.357 30.6617 303.357 26.3759ZM321.798 23.6437C321.984 22.7865 321.752 21.849 321.102 20.8311C320.452 19.8132 319.291 19.3042 317.62 19.3042C316.282 19.3042 315.15 19.6971 314.221 20.4829C313.292 21.2686 312.828 22.3222 312.828 23.6437H321.798ZM343.731 17.0006C345.996 13.8219 349.488 12.4826 354.205 12.9826V21.8221C352.311 21.4293 350.481 21.4918 348.717 22.0097C346.953 22.5275 345.662 23.3936 344.845 24.608V39.2335H335.373V13.5183H343.731V17.0006ZM357.79 0.125H367.262V39.2335H357.79V0.125ZM398.369 31.894C398.369 32.9654 398.982 33.5012 400.208 33.5012C400.579 33.5012 400.932 33.4476 401.266 33.3404V38.9657C399.855 39.5014 398.258 39.7692 396.475 39.7692C393.503 39.7692 391.386 38.8228 390.123 36.9299C387.375 39.0014 384.273 40.0371 380.819 40.0371C378.182 40.0371 375.972 39.3228 374.189 37.8942C372.406 36.4657 371.515 34.5369 371.515 32.1083C371.515 30.5725 371.867 29.2242 372.573 28.0635C373.279 26.9027 374.217 26.0188 375.387 25.4116C376.557 24.8045 377.783 24.358 379.064 24.0723C380.345 23.7866 381.692 23.6437 383.103 23.6437C385.109 23.6437 387.04 23.8402 388.898 24.233V23.3223C388.898 22.3579 388.424 21.5811 387.477 20.9918C386.53 20.4025 385.146 20.1079 383.326 20.1079C380.503 20.1079 377.383 20.7686 373.966 22.0901V14.4291C377.606 13.2862 381.079 12.7148 384.385 12.7148C388.953 12.7148 392.426 13.6256 394.803 15.447C397.18 17.2685 398.369 20.3579 398.369 24.7152V31.894ZM381.265 31.3582C381.265 32.0726 381.562 32.6708 382.156 33.1529C382.75 33.6351 383.53 33.8762 384.496 33.8762C386.168 33.8762 387.635 33.4297 388.898 32.5369V29.0546C387.895 28.7331 386.762 28.5724 385.499 28.5724C382.676 28.5724 381.265 29.501 381.265 31.3582ZM413.589 17.0006C415.855 13.8219 419.346 12.4826 424.063 12.9826V21.8221C422.169 21.4293 420.34 21.4918 418.575 22.0097C416.811 22.5275 415.52 23.3936 414.703 24.608V39.2335H405.232V13.5183H413.589V17.0006Z" fill="white"/>
<path d="M207.252 55.3008H211.263V92.8021H206.583V63.8189L192.599 83.9625H189.702L175.717 63.8189V92.8021H171.037V55.3008H175.049L191.15 78.4444L207.252 55.3008ZM242.316 87.4448C242.316 88.7659 243.003 89.427 244.378 89.427C244.972 89.427 245.659 89.302 246.439 89.0519V92.5343C245.325 92.9271 244.211 93.1235 243.096 93.1235C240.533 93.1235 238.899 92.0877 238.193 90.0163C235.333 92.302 231.86 93.4449 227.775 93.4449C225.175 93.4449 222.955 92.7753 221.117 91.436C219.278 90.0966 218.359 88.159 218.359 85.6232C218.359 82.5875 219.538 80.3819 221.897 79.007C224.255 77.632 227.106 76.9444 230.449 76.9444C232.9 76.9444 235.37 77.2123 237.859 77.748V76.8372C237.859 74.8729 237.191 73.3103 235.853 72.1496C234.516 70.9888 232.64 70.4085 230.226 70.4085C226.846 70.4085 223.596 71.0514 220.476 72.3371V68.1583C223.967 67.0155 227.366 66.444 230.672 66.444C234.312 66.444 237.163 67.3816 239.224 69.2566C241.285 71.1316 242.316 73.8373 242.316 77.3729V87.4448ZM222.928 85.409C222.928 86.8376 223.494 87.918 224.627 88.6502C225.76 89.3824 227.125 89.7484 228.722 89.7484C232.399 89.7484 235.445 88.4984 237.859 85.9983V81.2838C235.333 80.7838 233.068 80.5338 231.062 80.5338C228.796 80.5338 226.874 80.9178 225.295 81.6856C223.717 82.4534 222.928 83.6947 222.928 85.409ZM275.556 92.8021H270.319L260.513 81.766H255.276V92.8021H250.819V55.3008H255.276V77.8016H260.681L269.149 67.0869H274.331L264.191 79.8909L275.556 92.8021ZM282.813 59.1044L287.214 58.033V67.0869H297.912V71.0514H287.214V84.3375C287.214 86.2304 287.67 87.5519 288.579 88.3019C289.489 89.0519 290.947 89.427 292.953 89.427C294.885 89.427 296.853 89.0341 298.859 88.2484V92.2128C296.593 92.9985 294.197 93.3914 291.672 93.3914C288.96 93.3914 286.806 92.6859 285.209 91.2753C283.612 89.8645 282.813 87.8019 282.813 85.0876V71.0514H277.799V67.0869H282.813V59.1044ZM326.279 87.4448C326.279 88.7661 326.966 89.427 328.341 89.427C328.935 89.427 329.622 89.302 330.402 89.0519V92.5343C329.288 92.9271 328.174 93.1235 327.059 93.1235C324.496 93.1235 322.862 92.0877 322.156 90.0163C319.296 92.302 315.823 93.4449 311.738 93.4449C309.138 93.4449 306.918 92.7753 305.08 91.436C303.241 90.0966 302.322 88.159 302.322 85.6232C302.322 82.5875 303.501 80.382 305.86 79.007C308.218 77.632 311.069 76.9444 314.412 76.9444C316.864 76.9444 319.334 77.2123 321.822 77.748V76.8372C321.822 74.8729 321.154 73.3103 319.816 72.1496C318.479 70.9888 316.603 70.4085 314.189 70.4085C310.809 70.4085 307.559 71.0514 304.439 72.3371V68.1583C307.931 67.0155 311.329 66.444 314.635 66.444C318.275 66.444 321.126 67.3815 323.187 69.2566C325.249 71.1316 326.279 73.8372 326.279 77.3729V87.4448ZM306.891 85.409C306.891 86.8376 307.457 87.918 308.59 88.6502C309.723 89.3824 311.088 89.7484 312.685 89.7484C316.362 89.7484 319.408 88.4984 321.822 85.9983V81.2838C319.296 80.7838 317.031 80.5338 315.025 80.5338C312.759 80.5338 310.837 80.9177 309.258 81.6856C307.68 82.4534 306.891 83.6947 306.891 85.409ZM335.06 55.3008H339.517V70.9442C342.192 67.944 345.646 66.444 349.88 66.444C353.706 66.444 356.891 67.7298 359.436 70.3013C361.98 72.8727 363.252 76.0872 363.252 79.9445C363.252 83.8018 361.98 87.0162 359.436 89.5877C356.891 92.1592 353.706 93.4449 349.88 93.4449C345.683 93.4449 342.08 91.8021 339.072 88.5162V92.8021H335.06V55.3008ZM356.093 86.8555C357.894 85.1054 358.795 82.8017 358.795 79.9445C358.795 77.0873 357.894 74.7836 356.093 73.0335C354.291 71.2835 352.053 70.4085 349.379 70.4085C347.113 70.4085 345.108 71.0156 343.362 72.2299C341.616 73.4442 340.335 74.9443 339.517 76.7301V83.1589C340.335 84.9447 341.616 86.4447 343.362 87.659C345.108 88.8733 347.113 89.4805 349.379 89.4805C352.053 89.4805 354.291 88.6055 356.093 86.8555ZM373.646 92.8021H369.188V67.0869H373.646V92.8021ZM373.478 56.8812C374.036 57.3633 374.314 58.033 374.314 58.8902C374.314 59.7474 374.036 60.4171 373.478 60.8992C372.921 61.3813 372.234 61.6224 371.417 61.6224C370.6 61.6224 369.913 61.3813 369.356 60.8992C368.799 60.4171 368.52 59.7474 368.52 58.8902C368.52 58.033 368.799 57.3633 369.356 56.8812C369.913 56.3992 370.6 56.158 371.417 56.158C372.234 56.158 372.921 56.3992 373.478 56.8812Z" fill="white"/>
<path fill-rule="evenodd" clip-rule="evenodd" d="M62.1596 66.8949C81.3705 66.8949 96.9441 51.92 96.9441 33.4475C96.9441 14.975 81.3705 0 62.1596 0C42.9486 0 27.375 14.975 27.375 33.4475C27.375 51.92 42.9486 66.8949 62.1596 66.8949Z" fill="#FFAA46"/>
</svg>
