<svg width="101" height="18" viewBox="0 0 101 18" fill="none" xmlns="http://www.w3.org/2000/svg">
<path d="M3.49322 13.6388H0L5.056 0.649459H8.73311L13.789 13.6388H10.2958L9.56033 11.5978H4.22849L3.49322 13.6388ZM6.56357 5.06581L5.2399 8.81417H8.54922L7.22555 5.06581C7.07853 4.64514 6.96822 4.20609 6.89463 3.74836C6.82104 4.20609 6.71059 4.64514 6.56357 5.06581ZM14.7859 10.902C14.6143 10.3513 14.5285 9.7791 14.5285 9.18553C14.5285 8.59151 14.6143 8.01946 14.7859 7.46908C14.9575 6.91855 15.2086 6.41449 15.5396 5.95676C15.8707 5.49903 16.318 5.13411 16.8817 4.86183C17.4456 4.5897 18.0829 4.45371 18.7937 4.45371C19.5293 4.45371 20.1513 4.59598 20.6599 4.88051C21.1685 5.16504 21.5453 5.51756 21.7905 5.93823V4.73212H24.5484V13.2682C24.5484 14.1216 24.4042 14.867 24.1164 15.5042C23.8283 16.1414 23.433 16.6331 22.9304 16.9793C22.4279 17.3257 21.8764 17.5825 21.2757 17.7495C20.6752 17.9165 20.0256 18 19.3269 18C17.9295 18 16.6611 17.7216 15.5211 17.1649V14.4742C16.5139 15.0928 17.6415 15.402 18.9042 15.402C20.5834 15.402 21.4229 14.7526 21.4229 13.4536V12.9155C20.7855 13.5835 19.9092 13.9175 18.7937 13.9175C18.0829 13.9175 17.4456 13.7815 16.8817 13.5094C16.3179 13.2373 15.8706 12.872 15.5396 12.4144C15.2087 11.9569 14.9576 11.4524 14.7859 10.902ZM21.423 8.16471C21.276 7.85553 21.0431 7.59266 20.7245 7.37613C20.4058 7.15974 20.0441 7.0514 19.6398 7.0514C19.0268 7.0514 18.558 7.26166 18.2332 7.68233C17.9085 8.10285 17.7461 8.60406 17.7461 9.18553C17.7461 9.76699 17.9085 10.2679 18.2332 10.6886C18.558 11.1092 19.0268 11.3195 19.6398 11.3195C20.0441 11.3195 20.4058 11.2112 20.7245 10.9948C21.0429 10.7784 21.276 10.5154 21.423 10.2063V8.16471ZM29.6875 5.93793C30.4351 4.83702 31.5873 4.37302 33.144 4.54621V7.60806C32.5187 7.47192 31.9151 7.49359 31.3331 7.67291C30.7507 7.85239 30.3249 8.15246 30.0553 8.57298V13.6386H26.9297V4.73182H29.6877V5.93793H29.6875ZM35.7934 12.6831C34.8435 11.8605 34.3685 10.6946 34.3685 9.18538C34.3685 7.6762 34.8435 6.51013 35.7934 5.68748C36.7432 4.86482 37.923 4.45356 39.3325 4.45356C40.7421 4.45356 41.9218 4.86482 42.8717 5.68748C43.8216 6.51013 44.2966 7.6762 44.2966 9.18538C44.2966 10.6946 43.8216 11.8605 42.8717 12.6831C41.9218 13.5059 40.7421 13.9172 39.3325 13.9172C37.923 13.9172 36.7432 13.5059 35.7934 12.6831ZM40.6564 10.5771C40.9383 10.2062 41.0792 9.74204 41.0792 9.18538C41.0792 8.62857 40.9383 8.16471 40.6564 7.79366C40.3746 7.4226 39.9332 7.23685 39.3327 7.23685C38.7321 7.23685 38.2908 7.42245 38.009 7.79366C37.7271 8.16471 37.5862 8.62872 37.5862 9.18538C37.5862 9.74204 37.7271 10.206 38.009 10.5771C38.2908 10.9483 38.7321 11.1339 39.3327 11.1339C39.9332 11.1339 40.3746 10.9483 40.6564 10.5771ZM56.1021 13.6388H45.7513V11.3194L51.3403 3.7113H46.0821V0.649459H55.9367V2.96904L50.3292 10.5771H56.1021V13.6388ZM73.1396 13.6388H70.0141V4.73182H72.7719V5.67821C73.0415 5.35662 73.4185 5.07194 73.9027 4.82462C74.3868 4.5773 74.9171 4.45356 75.493 4.45356C76.6697 4.45356 77.5398 4.86168 78.1038 5.67821C78.9739 4.86168 79.9116 4.45356 80.9166 4.45356C81.5418 4.45356 82.0811 4.56803 82.5347 4.79682C82.9882 5.02561 83.3252 5.32867 83.5458 5.70601C83.7664 6.08334 83.9257 6.45454 84.0239 6.81947C84.122 7.1844 84.1709 7.55247 84.1709 7.92352V13.6388H81.0455V8.20178C81.0455 7.86793 80.9504 7.60806 80.7604 7.42245C80.5705 7.23685 80.3284 7.14405 80.0344 7.14405C79.5563 7.14405 79.1273 7.33578 78.7474 7.71924V7.92337V13.6386H75.622V8.20178C75.622 7.86793 75.5269 7.60806 75.337 7.42245C75.147 7.23685 74.9049 7.14405 74.6107 7.14405C74.0346 7.14405 73.5444 7.40378 73.1399 7.92337V13.6388H73.1396ZM89.5486 13.6388H86.4232V4.73182H89.5486V13.6388ZM89.7692 1.72571C89.7692 2.30718 89.6006 2.74339 89.2636 3.0339C88.9266 3.3247 88.5008 3.46996 87.9858 3.46996C87.471 3.46996 87.0451 3.32456 86.7081 3.0339C86.3711 2.74339 86.2024 2.30718 86.2024 1.72571C86.2024 1.15665 86.374 0.726719 86.7173 0.436061C87.0605 0.145403 87.4835 0 87.9858 0C88.5008 0 88.9266 0.145403 89.2636 0.436061C89.6006 0.726719 89.7692 1.15665 89.7692 1.72571ZM94.6571 5.75248C95.4538 4.88663 96.3914 4.45356 97.4701 4.45356C98.6221 4.45356 99.4987 4.79682 100.099 5.48349C100.7 6.17016 101 7.04542 101 8.10912V13.6389H97.8744V8.53592C97.8744 8.07819 97.752 7.73164 97.5068 7.49673C97.2617 7.26181 96.9369 7.1442 96.5324 7.1442C95.9317 7.1442 95.4293 7.40392 95.0248 7.92352V13.6388H91.8993V4.73182H94.6572L94.6571 5.75248ZM64.9177 12.4328C64.6725 12.8533 64.2956 13.206 63.7868 13.4905C63.2782 13.7749 62.6562 13.9172 61.9208 13.9172C61.2098 13.9172 60.5726 13.7812 60.0087 13.5091C59.4448 13.237 58.9975 12.8717 58.6666 12.4141C58.3356 11.9566 58.0842 11.4524 57.9128 10.902C57.7412 10.3513 57.6554 9.7791 57.6554 9.18553C57.6554 8.59151 57.7412 8.01946 57.9128 7.46908C58.0842 6.91855 58.3355 6.41449 58.6666 5.95676C58.9976 5.49903 59.4449 5.13411 60.0087 4.86183C60.5724 4.5897 61.2098 4.45371 61.9208 4.45371C62.6562 4.45371 63.2782 4.59598 63.7868 4.88051C64.2956 5.16504 64.6724 5.51756 64.9177 5.93823V4.73212H67.6754V13.6391H64.9177V12.4328ZM61.3601 7.68233C61.0354 8.10285 60.8728 8.60406 60.8728 9.18553C60.8728 9.76699 61.0352 10.2679 61.3601 10.6886C61.6848 11.1092 62.1537 11.3195 62.7665 11.3195C63.171 11.3195 63.5326 11.2112 63.8512 10.9948C64.1699 10.7784 64.4029 10.5154 64.5499 10.2063V8.16501C64.4029 7.85583 64.17 7.59296 63.8512 7.37643C63.5327 7.16004 63.171 7.0517 62.7665 7.0517C62.1537 7.0514 61.6848 7.26166 61.3601 7.68233Z" fill="black"/>
</svg>
