<svg width="162" height="30" viewBox="0 0 162 30" fill="none" xmlns="http://www.w3.org/2000/svg">
<g clip-path="url(#clip0)">
<path d="M46.2382 22.4958H42.091L48.0936 7.48107H52.4591L58.4615 22.4958H54.3143L53.4412 20.1365H47.1111L46.2382 22.4958ZM49.8834 12.586L48.3119 16.9189H52.2408L50.6693 12.586C50.4948 12.0998 50.3638 11.5923 50.2764 11.0632C50.1891 11.5923 50.0579 12.0998 49.8834 12.586ZM59.645 19.3322C59.4413 18.6957 59.3395 18.0342 59.3395 17.3481C59.3395 16.6615 59.4413 16.0002 59.645 15.364C59.8488 14.7277 60.1469 14.145 60.5399 13.6159C60.933 13.0868 61.464 12.665 62.1332 12.3503C62.8028 12.0357 63.5593 11.8785 64.4033 11.8785C65.2766 11.8785 66.015 12.0429 66.6188 12.3718C67.2226 12.7007 67.67 13.1082 67.9611 13.5945V12.2003H71.2354V22.0674C71.2354 23.0539 71.0641 23.9155 70.7224 24.6521C70.3804 25.3886 69.911 25.9569 69.3144 26.3572C68.7178 26.7576 68.063 27.0543 67.3499 27.2475C66.6369 27.4404 65.8658 27.537 65.0363 27.537C63.3772 27.537 61.8713 27.2152 60.518 26.5717V23.4614C61.6966 24.1765 63.0353 24.5339 64.5344 24.5339C66.5279 24.5339 67.5246 23.7832 67.5246 22.2817V21.6597C66.7679 22.4318 65.7276 22.8179 64.4033 22.8179C63.5593 22.8179 62.8028 22.6607 62.1332 22.3462C61.4639 22.0316 60.9328 21.6094 60.5399 21.0805C60.1471 20.5516 59.849 19.9684 59.645 19.3322ZM67.5248 16.1681C67.3502 15.8107 67.0737 15.5069 66.6955 15.2566C66.3172 15.0065 65.8877 14.8812 65.4077 14.8812C64.6799 14.8812 64.1234 15.1243 63.7378 15.6105C63.3523 16.0966 63.1594 16.676 63.1594 17.3481C63.1594 18.0202 63.3523 18.5993 63.7378 19.0855C64.1234 19.5718 64.6799 19.8148 65.4077 19.8148C65.8877 19.8148 66.3172 19.6896 66.6955 19.4395C67.0736 19.1894 67.3502 18.8853 67.5248 18.5281V16.1681ZM77.3366 13.5941C78.2241 12.3216 79.592 11.7852 81.4402 11.9854V15.5247C80.6978 15.3673 79.9812 15.3924 79.2902 15.5997C78.5988 15.8071 78.0933 16.154 77.7732 16.6401V22.4956H74.0625V12.2H77.3367V13.5941H77.3366ZM84.5856 21.3911C83.4578 20.4402 82.8939 19.0924 82.8939 17.3479C82.8939 15.6035 83.4578 14.2556 84.5856 13.3046C85.7132 12.3537 87.1139 11.8783 88.7873 11.8783C90.4607 11.8783 91.8614 12.3537 92.989 13.3046C94.1168 14.2556 94.6807 15.6035 94.6807 17.3479C94.6807 19.0924 94.1168 20.4402 92.989 21.3911C91.8614 22.3422 90.4607 22.8176 88.7873 22.8176C87.1139 22.8176 85.7132 22.3422 84.5856 21.3911ZM90.359 18.9567C90.6936 18.5279 90.861 17.9914 90.861 17.3479C90.861 16.7043 90.6936 16.1681 90.359 15.7392C90.0244 15.3103 89.5004 15.0956 88.7875 15.0956C88.0745 15.0956 87.5505 15.3101 87.216 15.7392C86.8813 16.1681 86.714 16.7045 86.714 17.3479C86.714 17.9914 86.8813 18.5278 87.216 18.9567C87.5505 19.3858 88.0745 19.6003 88.7875 19.6003C89.5004 19.6003 90.0244 19.3858 90.359 18.9567ZM108.696 22.4958H96.4078V19.8147L103.043 11.0203H96.8005V7.48107H108.5V10.1623L101.843 18.9567H108.696V22.4958ZM128.924 22.4958H125.213V12.2H128.487V13.2939C128.807 12.9222 129.255 12.5931 129.83 12.3072C130.404 12.0214 131.034 11.8783 131.718 11.8783C133.115 11.8783 134.148 12.3501 134.817 13.2939C135.85 12.3501 136.963 11.8783 138.157 11.8783C138.899 11.8783 139.539 12.0106 140.078 12.2751C140.616 12.5396 141.016 12.8899 141.278 13.3261C141.54 13.7622 141.729 14.1913 141.846 14.6131C141.962 15.035 142.02 15.4604 142.02 15.8893V22.4958H138.31V16.211C138.31 15.8251 138.197 15.5247 137.971 15.3101C137.746 15.0956 137.458 14.9883 137.109 14.9883C136.542 14.9883 136.032 15.21 135.581 15.6532V15.8892V22.4956H131.871V16.211C131.871 15.8251 131.758 15.5247 131.532 15.3101C131.307 15.0956 131.019 14.9883 130.67 14.9883C129.986 14.9883 129.404 15.2885 128.924 15.8892V22.4958H128.924ZM148.405 22.4958H144.694V12.2H148.405V22.4958ZM148.667 8.72514C148.667 9.39727 148.466 9.9015 148.066 10.2373C147.666 10.5735 147.161 10.7414 146.549 10.7414C145.938 10.7414 145.432 10.5733 145.032 10.2373C144.632 9.9015 144.432 9.39727 144.432 8.72514C144.432 8.06735 144.636 7.57038 145.043 7.2344C145.451 6.89842 145.953 6.73035 146.549 6.73035C147.161 6.73035 147.666 6.89842 148.066 7.2344C148.466 7.57038 148.667 8.06735 148.667 8.72514ZM154.47 13.3798C155.415 12.3789 156.529 11.8783 157.809 11.8783C159.177 11.8783 160.218 12.2751 160.931 13.0688C161.644 13.8626 162 14.8743 162 16.1039V22.4959H158.289V16.5972C158.289 16.0681 158.144 15.6675 157.853 15.396C157.562 15.1244 157.176 14.9885 156.696 14.9885C155.983 14.9885 155.386 15.2887 154.906 15.8893V22.4958H151.195V12.2H154.47L154.47 13.3798ZM119.162 21.1017C118.871 21.5878 118.424 21.9955 117.82 22.3244C117.216 22.6531 116.478 22.8176 115.604 22.8176C114.76 22.8176 114.004 22.6604 113.334 22.3458C112.665 22.0313 112.134 21.6091 111.741 21.0802C111.348 20.5512 111.05 19.9684 110.846 19.3322C110.642 18.6957 110.541 18.0342 110.541 17.3481C110.541 16.6615 110.642 16.0002 110.846 15.364C111.05 14.7277 111.348 14.145 111.741 13.6159C112.134 13.0868 112.665 12.665 113.334 12.3503C114.004 12.0357 114.76 11.8785 115.604 11.8785C116.478 11.8785 117.216 12.0429 117.82 12.3718C118.424 12.7007 118.871 13.1082 119.162 13.5945V12.2003H122.436V22.4961H119.162V21.1017ZM114.939 15.6105C114.553 16.0966 114.36 16.676 114.36 17.3481C114.36 18.0202 114.553 18.5993 114.939 19.0855C115.324 19.5718 115.881 19.8148 116.609 19.8148C117.089 19.8148 117.518 19.6896 117.896 19.4395C118.275 19.1894 118.551 18.8853 118.726 18.5281V16.1685C118.551 15.8111 118.275 15.5072 117.896 15.2569C117.518 15.0068 117.089 14.8816 116.609 14.8816C115.881 14.8812 115.324 15.1243 114.939 15.6105Z" fill="black"/>
<path d="M15.2002 7.4762H15.3281C15.3281 11.5839 18.7483 14.9448 22.9282 14.9448V15.0705C18.7481 15.0705 15.3281 18.4313 15.3281 22.5392H15.2002C15.2002 18.4313 11.78 15.0705 7.59991 15.0705V14.9448C11.78 14.9448 15.2002 11.5839 15.2002 7.4762Z" fill="#00CD69"/>
<path d="M22.9282 0.00744629C27.1255 0.00744629 30.5281 3.35134 30.5281 7.47601C30.5281 11.6009 27.1255 14.9446 22.9282 14.9446V7.47618H15.3281C15.3281 3.35134 18.7307 0.00744629 22.9282 0.00744629Z" fill="#00CD69"/>
<path d="M7.60008 0.00805664C11.7974 0.00805664 15.2 3.35195 15.2 7.47662H7.5999V14.9452C3.40242 14.9452 0 11.6015 0 7.47662C0 3.35195 3.4026 0.00805664 7.60008 0.00805664Z" fill="#00CD69"/>
<path d="M22.9282 15.0706C27.1255 15.0706 30.5281 18.4144 30.5281 22.5389C30.5281 26.6638 27.1255 30.0075 22.9282 30.0075C18.7309 30.0075 15.3283 26.664 15.3281 22.5393H22.928L22.9282 15.0706Z" fill="#00CD69"/>
<path d="M15.2002 22.5393C15.2 26.664 11.7974 30.0075 7.60025 30.0075C3.4026 30.0075 0 26.6638 0 22.5389C0 18.4144 3.40242 15.0707 7.5999 15.0706V22.5393H15.2002Z" fill="#00CD69"/>
</g>
<defs>
<clipPath id="clip0">
<rect width="162" height="30" fill="white"/>
</clipPath>
</defs>
</svg>
