<svg width="31" height="31" viewBox="0 0 31 31" fill="none" xmlns="http://www.w3.org/2000/svg">
<path d="M15.2002 7.47607H15.3281C15.3281 11.5838 18.7483 14.9446 22.9282 14.9446V15.0704C18.7481 15.0704 15.3281 18.4312 15.3281 22.5391H15.2002C15.2002 18.4312 11.78 15.0704 7.59991 15.0704V14.9446C11.78 14.9446 15.2002 11.5838 15.2002 7.47607Z" fill="#00CD69"/>
<path d="M22.9282 0.00732422C27.1255 0.00732422 30.5281 3.35121 30.5281 7.47589C30.5281 11.6007 27.1255 14.9444 22.9282 14.9444V7.47606H15.3281C15.3281 3.35121 18.7307 0.00732422 22.9282 0.00732422Z" fill="#00CD69"/>
<path d="M7.60008 0.0078125C11.7974 0.0078125 15.2 3.3517 15.2 7.47637H7.5999V14.9449C3.40242 14.9449 0 11.6012 0 7.47637C0 3.3517 3.4026 0.0078125 7.60008 0.0078125Z" fill="#00CD69"/>
<path d="M22.9282 15.0703C27.1255 15.0703 30.5281 18.4142 30.5281 22.5387C30.5281 26.6635 27.1255 30.0073 22.9282 30.0073C18.7309 30.0073 15.3283 26.6637 15.3281 22.539H22.928L22.9282 15.0703Z" fill="#00CD69"/>
<path d="M15.2002 22.539C15.2 26.6637 11.7974 30.0073 7.60025 30.0073C3.4026 30.0073 0 26.6635 0 22.5387C0 18.4142 3.40242 15.0705 7.5999 15.0703V22.539H15.2002Z" fill="#00CD69"/>
</svg>
