<svg width="25" height="25" viewBox="0 0 25 25" fill="none" xmlns="http://www.w3.org/2000/svg">
<circle cx="12.5" cy="12.5" r="12.5" fill="#3550AF"/>
<path d="M12.5001 5C11.1974 5.00033 9.91728 5.33985 8.78567 5.98513C7.65405 6.63042 6.70998 7.55923 6.04637 8.68014C5.38276 9.80106 5.02249 11.0755 5.00102 12.3779C4.97955 13.6803 5.29762 14.9659 5.92392 16.1081L5.30747 18.2652C5.25094 18.4631 5.24835 18.6724 5.29997 18.8716C5.35158 19.0708 5.45553 19.2526 5.60103 19.398C5.74653 19.5435 5.9283 19.6475 6.1275 19.6991C6.32669 19.7507 6.53606 19.7481 6.73392 19.6916L8.89133 19.0752C9.89389 19.6253 11.009 19.9388 12.1513 19.9919C13.2937 20.045 14.433 19.8362 15.4823 19.3814C16.5315 18.9267 17.4629 18.2381 18.2052 17.3682C18.9475 16.4983 19.481 15.4703 19.765 14.3626C20.049 13.2549 20.076 12.097 19.8438 10.9773C19.6116 9.85761 19.1265 8.80584 18.4254 7.9024C17.7244 6.99895 16.8261 6.26776 15.7991 5.76471C14.7721 5.26167 13.6437 5.0001 12.5001 5ZM12.5001 18.8452C11.3604 18.846 10.2416 18.5395 9.2615 17.9579C9.19394 17.9177 9.11887 17.8918 9.04092 17.8816C8.96296 17.8715 8.88376 17.8775 8.80818 17.8991L6.41704 18.5822L7.10019 16.1913C7.12179 16.1157 7.1277 16.0365 7.11756 15.9585C7.10743 15.8805 7.08147 15.8055 7.04128 15.7379C6.32652 14.5337 6.03011 13.1269 6.19825 11.7368C6.36638 10.3466 6.9896 9.051 7.97083 8.05189C8.95206 7.05278 10.2362 6.40622 11.6232 6.21293C13.0102 6.01964 14.4222 6.29048 15.6393 6.98324C16.8563 7.67601 17.81 8.75181 18.3519 10.0431C18.8938 11.3343 18.9933 12.7685 18.6351 14.1222C18.2768 15.476 17.4809 16.6732 16.3712 17.5275C15.2616 18.3817 13.9005 18.845 12.5001 18.8452ZM15.3848 11.3457C15.3848 11.4987 15.324 11.6455 15.2158 11.7536C15.1076 11.8618 14.9608 11.9226 14.8078 11.9226H10.1924C10.0394 11.9226 9.89268 11.8618 9.78449 11.7536C9.67629 11.6455 9.61551 11.4987 9.61551 11.3457C9.61551 11.1927 9.67629 11.046 9.78449 10.9378C9.89268 10.8296 10.0394 10.7688 10.1924 10.7688H14.8078C14.9608 10.7688 15.1076 10.8296 15.2158 10.9378C15.324 11.046 15.3848 11.1927 15.3848 11.3457ZM15.3848 13.6533C15.3848 13.8063 15.324 13.953 15.2158 14.0612C15.1076 14.1694 14.9608 14.2301 14.8078 14.2301H10.1924C10.0394 14.2301 9.89268 14.1694 9.78449 14.0612C9.67629 13.953 9.61551 13.8063 9.61551 13.6533C9.61551 13.5003 9.67629 13.3535 9.78449 13.2453C9.89268 13.1372 10.0394 13.0764 10.1924 13.0764H14.8078C14.9608 13.0764 15.1076 13.1372 15.2158 13.2453C15.324 13.3535 15.3848 13.5003 15.3848 13.6533Z" fill="white"/>
</svg>
