<svg width="34" height="33" viewBox="0 0 34 33" fill="none" xmlns="http://www.w3.org/2000/svg">
<path fill-rule="evenodd" clip-rule="evenodd" d="M17.1758 0C8.06328 0 0.675781 7.3875 0.675781 16.5C0.675781 25.6125 8.06328 33 17.1758 33C26.2883 33 33.6758 25.6125 33.6758 16.5C33.6758 7.3875 26.2883 0 17.1758 0ZM24.3278 13.71C24.4595 13.5595 24.5597 13.3841 24.6227 13.1943C24.6856 13.0044 24.7099 12.8039 24.6942 12.6045C24.6785 12.4051 24.623 12.2108 24.5311 12.0332C24.4393 11.8555 24.3128 11.6981 24.1591 11.57C24.0054 11.442 23.8277 11.3459 23.6364 11.2876C23.4451 11.2292 23.2441 11.2097 23.0451 11.2302C22.8461 11.2507 22.6533 11.3108 22.4779 11.4069C22.3025 11.5031 22.1481 11.6333 22.0238 11.79L15.5738 19.5285L12.2363 16.1895C11.9534 15.9163 11.5745 15.7651 11.1812 15.7685C10.7879 15.7719 10.4117 15.9297 10.1336 16.2078C9.85544 16.4859 9.69769 16.8621 9.69427 17.2554C9.69085 17.6487 9.84204 18.0276 10.1153 18.3105L14.6153 22.8105C14.7627 22.9578 14.9391 23.0728 15.1334 23.1481C15.3277 23.2234 15.5355 23.2574 15.7437 23.248C15.9518 23.2385 16.1557 23.1858 16.3424 23.0932C16.5291 23.0005 16.6944 22.8701 16.8278 22.71L24.3278 13.71Z" fill="#377BE1"/>
</svg>
