<svg width="20" height="16" viewBox="0 0 20 16" fill="none" xmlns="http://www.w3.org/2000/svg">
<path d="M17.4602 2.56655H14.5784L13.8919 0.609318C13.8445 0.47539 13.7575 0.359624 13.643 0.277834C13.5285 0.196044 13.3919 0.152218 13.252 0.152344H6.75104C6.46498 0.152344 6.20859 0.335565 6.11324 0.609318L5.42458 2.56655H2.54281C1.60624 2.56655 0.847656 3.33823 0.847656 4.29098V14.1202C0.847656 15.073 1.60624 15.8447 2.54281 15.8447H17.4602C18.3968 15.8447 19.1553 15.073 19.1553 14.1202V4.29098C19.1553 3.33823 18.3968 2.56655 17.4602 2.56655ZM17.6297 14.1202C17.6297 14.2151 17.5534 14.2927 17.4602 14.2927H2.54281C2.44958 14.2927 2.3733 14.2151 2.3733 14.1202V4.29098C2.3733 4.19613 2.44958 4.11853 2.54281 4.11853H6.49889L6.86122 3.08819L7.34646 1.70433H12.6544L13.1397 3.08819L13.502 4.11853H17.4602C17.5534 4.11853 17.6297 4.19613 17.6297 4.29098V14.1202ZM10.0015 5.49808C8.12835 5.49808 6.61119 7.04144 6.61119 8.94693C6.61119 10.8524 8.12835 12.3958 10.0015 12.3958C11.8747 12.3958 13.3918 10.8524 13.3918 8.94693C13.3918 7.04144 11.8747 5.49808 10.0015 5.49808ZM10.0015 11.0162C8.87846 11.0162 7.96731 10.0894 7.96731 8.94693C7.96731 7.8045 8.87846 6.87762 10.0015 6.87762C11.1245 6.87762 12.0357 7.8045 12.0357 8.94693C12.0357 10.0894 11.1245 11.0162 10.0015 11.0162Z" fill="white"/>
</svg>
