<svg width="29" height="39" viewBox="0 0 29 39" fill="none" xmlns="http://www.w3.org/2000/svg">
<path d="M8.44948 37.454V17.6093H3.15657C1.84073 17.6093 1.07908 16.118 1.85046 15.052L8.82373 5.41506C10.7545 2.74672 14.7296 2.74672 16.6604 5.41507L23.6337 15.052C24.4051 16.118 23.6434 17.6093 22.3276 17.6093H17.0347V22.9743" stroke="#00CD69" stroke-width="2" stroke-linecap="round" stroke-linejoin="round"/>
<path d="M16.3003 33.3003C18.4575 33.3003 19.4433 32.3145 19.4433 30.1715C19.4433 28.0142 18.4575 27.0285 16.3003 27.0285C14.143 27.0285 13.1572 28.0142 13.1572 30.1715C13.1572 32.3145 14.1287 33.3003 16.3003 33.3003ZM17.8011 36.5078C17.6259 36.8862 17.7436 37.3526 18.1482 37.4538C18.7268 37.5984 18.981 37.3601 19.072 37.2314C19.1049 37.185 19.1266 37.1318 19.1504 37.08L23.3623 27.9214C23.5643 27.4822 23.4333 26.9882 22.9747 26.8354C22.5149 26.6821 22.1438 27.1999 22.0391 27.3654C22.0186 27.3978 22.0014 27.432 21.9853 27.4668L17.8011 36.5078ZM16.3003 31.9145C15.3288 31.9145 15.0288 31.4716 15.0288 30.1715C15.0288 28.8714 15.3288 28.4143 16.3003 28.4143C17.2575 28.4143 17.5718 28.8714 17.5718 30.1715C17.5718 31.4573 17.2575 31.9145 16.3003 31.9145ZM24.9151 37.3148C27.0723 37.3148 28.0581 36.3147 28.0581 34.1717C28.0581 32.0145 27.0723 31.043 24.9151 31.043C22.7578 31.043 21.772 32.0145 21.772 34.1717C21.772 36.3147 22.7435 37.3148 24.9151 37.3148ZM24.9151 35.9147C23.9436 35.9147 23.6436 35.4718 23.6436 34.1717C23.6436 32.8717 23.9436 32.4145 24.9151 32.4145C25.8723 32.4145 26.1866 32.8717 26.1866 34.1717C26.1866 35.4575 25.8723 35.9147 24.9151 35.9147Z" fill="#00CD69"/>
</svg>
