<?xml version="1.0" encoding="utf-8"?>
<!-- Generator: Adobe Illustrator 25.0.0, SVG Export Plug-In . SVG Version: 6.00 Build 0)  -->
<svg version="1.1" id="Слой_1" xmlns="http://www.w3.org/2000/svg" xmlns:xlink="http://www.w3.org/1999/xlink" x="0px" y="0px"
	 viewBox="0 0 44.7 39" style="enable-background:new 0 0 44.7 39;" xml:space="preserve">
<style type="text/css">
	.st0{fill:none;stroke:#00CD69;stroke-width:2;stroke-linecap:round;stroke-linejoin:round;}
	.st1{fill:none;stroke:#00CD69;stroke-width:2;}
</style>
<path class="st0" d="M26.8,30.5v-3l11.1-15.1 M26.8,30.5l-1,1.2 M26.8,30.5l3-0.5l13.7-19.1l-3-2l-2.5,3.5 M37.9,12.4l5.8,4L39,22.8
	"/>
<path class="st0" d="M30.6,18.1V9.9c0-1.9-1.5-3.5-3.5-3.5H8.7C6.8,6.5,5.2,8,5.2,9.9v23.9c0,1.9,1.5,3.5,3.5,3.5h18.4
	c1.9,0,3.5-1.5,3.5-3.5v-1"/>
<path class="st0" d="M10.2,13.9l2,3l2.7-5.2 M15.7,15.9h9.9"/>
<path class="st0" d="M10.2,23.1l2,3l2.7-5.2 M15.7,25.1h8.2"/>
<path class="st1" d="M22.6,6.5V6c0-2.7-2.2-5-5-5l0,0c-2.7,0-5,2.2-5,5v0.5"/>
</svg>
