<svg width="8" height="16" viewBox="0 0 8 16" fill="none" xmlns="http://www.w3.org/2000/svg">
<path d="M1.13557 15.9979C0.870775 15.9985 0.614163 15.9057 0.410275 15.7357C0.295522 15.6399 0.200666 15.5224 0.131138 15.3897C0.0616098 15.257 0.0187766 15.1118 0.00509144 14.9625C-0.00859373 14.8131 0.00713829 14.6625 0.0513861 14.5193C0.0956338 14.3761 0.167527 14.243 0.26295 14.1278L5.33998 8.01564L0.444274 1.89208C0.350138 1.77543 0.279839 1.64122 0.237419 1.49715C0.194999 1.35309 0.181294 1.202 0.197091 1.05259C0.212887 0.90317 0.257874 0.75837 0.329467 0.626506C0.40106 0.494642 0.497846 0.378315 0.614263 0.284212C0.731517 0.180401 0.868831 0.102097 1.01759 0.0542161C1.16634 0.00633482 1.32333 -0.0100901 1.47869 0.00597127C1.63405 0.0220327 1.78444 0.0702341 1.92041 0.14755C2.05638 0.224867 2.175 0.329629 2.26883 0.455262L7.7425 7.29723C7.90918 7.50128 8.00031 7.75721 8.00031 8.02134C8.00031 8.28547 7.90918 8.54141 7.7425 8.74545L2.07618 15.5874C1.96249 15.7254 1.81807 15.8345 1.65465 15.9058C1.49122 15.9772 1.31338 16.0087 1.13557 15.9979Z" fill="#3E3E3E"/>
</svg>
