<svg width="92" height="92" viewBox="0 0 92 92" fill="none" xmlns="http://www.w3.org/2000/svg">
<path d="M69.5354 22.0559C69.2932 22.0563 69.0561 21.9859 68.8534 21.8534C68.6506 21.7208 68.491 21.532 68.3941 21.31C67.9174 20.2013 67.3537 19.1321 66.7083 18.1123C66.5307 17.8344 66.4709 17.4973 66.5419 17.1752C66.6128 16.8531 66.8089 16.5724 67.0868 16.3948C67.3648 16.2172 67.7019 16.1574 68.024 16.2284C68.3461 16.2994 68.6268 16.4954 68.8044 16.7734C69.5182 17.9031 70.1418 19.0875 70.6693 20.3154C70.7518 20.5045 70.786 20.7112 70.7687 20.9169C70.7514 21.1226 70.6832 21.3207 70.5702 21.4934C70.4572 21.6661 70.303 21.8079 70.1214 21.9061C69.9399 22.0043 69.7368 22.0558 69.5304 22.0559H69.5354Z" fill="#00CD69"/>
<path d="M45.9996 57.7738C41.7213 57.7698 37.5057 56.7446 33.7034 54.7833C29.901 52.822 26.6218 49.9814 24.1384 46.4976C20.882 41.9616 19.1352 36.516 19.1456 30.9322C19.1538 23.8126 21.9857 16.9869 27.02 11.9526C32.0543 6.91825 38.88 4.08635 45.9996 4.07813C47.2512 4.07761 48.5012 4.16944 49.7393 4.35288C49.9008 4.37737 50.0558 4.43343 50.1956 4.51784C50.3354 4.60226 50.4572 4.71339 50.5541 4.84488C50.651 4.97637 50.721 5.12566 50.7601 5.28421C50.7993 5.44276 50.8069 5.60747 50.7824 5.76894C50.7579 5.93041 50.7018 6.08547 50.6174 6.22528C50.533 6.36508 50.4219 6.48689 50.2904 6.58375C50.1589 6.68061 50.0096 6.75062 49.851 6.78979C49.6925 6.82895 49.5278 6.83651 49.3663 6.81202C48.2516 6.64731 47.1264 6.56461 45.9996 6.56461C39.5392 6.57185 33.3454 9.14147 28.7771 13.7097C24.2089 18.2779 21.6393 24.4717 21.632 30.9322C21.6226 35.9979 23.2076 40.9382 26.1624 45.0529C28.413 48.2171 31.3879 50.7969 34.8387 52.5771C38.2895 54.3573 42.1161 55.2861 45.999 55.2861C49.8819 55.2861 53.7085 54.3573 57.1593 52.5771C60.6101 50.7969 63.5849 48.2171 65.8356 45.0529C68.7905 40.9382 70.3759 35.998 70.3672 30.9322C70.3574 30.8622 70.3533 30.7915 70.3547 30.7208C70.3471 30.5576 70.3716 30.3944 70.427 30.2406C70.4824 30.0868 70.5675 29.9455 70.6776 29.8246C70.7876 29.7037 70.9203 29.6057 71.0682 29.5361C71.2161 29.4666 71.3763 29.4268 71.5396 29.4192C71.7028 29.4115 71.866 29.436 72.0198 29.4914C72.1735 29.5468 72.3149 29.632 72.4358 29.742C72.5567 29.852 72.6547 29.9847 72.7242 30.1326C72.7938 30.2805 72.8336 30.4407 72.8412 30.604C72.8546 30.7128 72.8605 30.8225 72.8586 30.9322C72.8672 36.5167 71.1182 41.9624 67.8596 46.4976C65.3763 49.9813 62.0974 52.8219 58.2952 54.7832C54.4931 56.7444 50.2778 57.7697 45.9996 57.7738Z" fill="#00CD69"/>
<path d="M61.9746 12.1712C61.6878 12.1711 61.4097 12.0718 61.1877 11.8902C60.281 11.1516 59.3169 10.4864 58.3046 9.90099C58.1557 9.82326 58.0241 9.71618 57.9178 9.5862C57.8114 9.45621 57.7325 9.30603 57.6858 9.14471C57.6391 8.98339 57.6255 8.81428 57.646 8.64758C57.6664 8.48088 57.7204 8.32005 57.8047 8.1748C57.889 8.02954 58.0019 7.90288 58.1365 7.80245C58.2711 7.70202 58.4247 7.6299 58.5879 7.59045C58.7512 7.551 58.9207 7.54503 59.0864 7.57291C59.252 7.6008 59.4102 7.66194 59.5516 7.75267C60.6773 8.40478 61.7498 9.14474 62.7591 9.96564C62.9577 10.1281 63.1012 10.348 63.1698 10.5952C63.2385 10.8424 63.229 11.1047 63.1427 11.3463C63.0563 11.5879 62.8974 11.7968 62.6876 11.9445C62.4778 12.0922 62.2275 12.1714 61.9709 12.1712H61.9746Z" fill="#00CD69"/>
<path d="M66.8493 47.0235C66.6494 47.0239 66.4524 46.9761 66.2749 46.8841C66.0974 46.7921 65.9448 46.6587 65.8298 46.4951C63.5897 43.3185 60.6191 40.7265 57.1683 38.9374C53.7174 37.1483 49.8872 36.2144 46.0001 36.2144C42.113 36.2144 38.2828 37.1483 34.8319 38.9374C31.3811 40.7265 28.4105 43.3185 26.1704 46.4951C25.9808 46.765 25.6917 46.9485 25.3668 47.0053C25.0419 47.0621 24.7078 46.9875 24.4379 46.7979C24.168 46.6083 23.9845 46.3192 23.9277 45.9943C23.871 45.6695 23.9456 45.3353 24.1352 45.0654C26.605 41.5624 29.8804 38.7042 33.6855 36.7313C37.4906 34.7583 41.714 33.7285 46.0001 33.7285C50.2862 33.7285 54.5097 34.7583 58.3147 36.7313C62.1198 38.7042 65.3952 41.5624 67.865 45.0654C67.9958 45.2516 68.0731 45.47 68.0883 45.697C68.1035 45.924 68.0562 46.1508 67.9515 46.3528C67.8467 46.5547 67.6885 46.724 67.4942 46.8423C67.2999 46.9606 67.0768 47.0233 66.8493 47.0235Z" fill="#00CD69"/>
<path d="M46 36.2192C44.0211 36.2195 42.0865 35.6329 40.4409 34.5336C38.7953 33.4343 37.5127 31.8717 36.7552 30.0435C35.9977 28.2152 35.7993 26.2034 36.1853 24.2624C36.5712 22.3214 37.524 20.5385 38.9233 19.139C40.3226 17.7396 42.1054 16.7865 44.0463 16.4004C45.9873 16.0142 47.9991 16.2123 49.8275 16.9695C51.6559 17.7268 53.2186 19.0092 54.3181 20.6547C55.4176 22.3001 56.0044 24.2347 56.0044 26.2136C56.0018 28.8663 54.947 31.4095 53.0714 33.2853C51.1958 35.1611 48.6527 36.2163 46 36.2192ZM46 18.6957C44.5128 18.6955 43.0589 19.1363 41.8222 19.9624C40.5855 20.7885 39.6215 21.9629 39.0523 23.3369C38.483 24.7108 38.334 26.2228 38.6241 27.6815C38.9142 29.1402 39.6303 30.4801 40.682 31.5317C41.7336 32.5833 43.0735 33.2995 44.5322 33.5896C45.9909 33.8797 47.5028 33.7307 48.8768 33.1614C50.2508 32.5921 51.4251 31.6282 52.2513 30.3915C53.0774 29.1548 53.5182 27.7009 53.5179 26.2136C53.5156 24.2205 52.7228 22.3096 51.3134 20.9002C49.9041 19.4908 47.9932 18.698 46 18.6957Z" fill="#00CD69"/>
<path d="M84.3142 87.9181C84.1129 87.918 83.9146 87.8694 83.7361 87.7764L77.9165 84.7155L72.0943 87.7727C71.889 87.8804 71.6575 87.9285 71.4262 87.9116C71.1949 87.8947 70.973 87.8134 70.7855 87.677C70.5979 87.5405 70.4523 87.3543 70.365 87.1395C70.2778 86.9246 70.2524 86.6896 70.2916 86.461L71.4043 79.98L66.6937 75.3899C66.5275 75.2281 66.4099 75.0229 66.3542 74.7976C66.2985 74.5724 66.307 74.336 66.3787 74.1153C66.4503 73.8946 66.5823 73.6984 66.7597 73.5488C66.9371 73.3993 67.1528 73.3023 67.3825 73.269L73.8908 72.3229L76.8013 66.4262C76.9041 66.2174 77.0635 66.0417 77.2614 65.919C77.4592 65.7964 77.6874 65.7317 77.9202 65.7324C78.1529 65.7317 78.3812 65.7964 78.579 65.919C78.7768 66.0417 78.9362 66.2174 79.0391 66.4262L81.9495 72.3229L88.4579 73.269C88.6875 73.3023 88.9033 73.3993 89.0806 73.5488C89.258 73.6984 89.39 73.8946 89.4617 74.1153C89.5334 74.336 89.5419 74.5724 89.4862 74.7976C89.4305 75.0229 89.3129 75.2281 89.1467 75.3899L84.4286 79.9837L85.54 86.4648C85.5706 86.6432 85.5619 86.8263 85.5144 87.001C85.4669 87.1758 85.3818 87.338 85.265 87.4764C85.1482 87.6149 85.0027 87.7261 84.8384 87.8024C84.6742 87.8787 84.4953 87.9182 84.3142 87.9181ZM70.2332 75.3713L73.6074 78.6597C73.7516 78.8004 73.8594 78.9741 73.9215 79.1658C73.9837 79.3575 73.9983 79.5614 73.9642 79.7599L73.1685 84.4022L77.3383 82.2104C77.5168 82.1165 77.7154 82.0675 77.9171 82.0675C78.1187 82.0675 78.3173 82.1165 78.4958 82.2104L82.6632 84.4022L81.8687 79.7599C81.8346 79.5614 81.8492 79.3575 81.9114 79.1658C81.9735 78.9741 82.0814 78.8004 82.2255 78.6597L85.5997 75.3713L80.935 74.6937C80.7356 74.6648 80.5461 74.5877 80.383 74.4692C80.2199 74.3508 80.0881 74.1944 79.9989 74.0137L77.914 69.7866L75.8278 74.0137C75.7386 74.1944 75.6067 74.3508 75.4437 74.4692C75.2806 74.5877 75.0911 74.6648 74.8916 74.6937L70.2332 75.3713Z" fill="#00CD69"/>
<path d="M52.3987 87.9187C52.1977 87.9188 51.9998 87.8701 51.8218 87.777L45.9997 84.7161L40.1776 87.7733C39.9722 87.881 39.7408 87.9291 39.5095 87.9122C39.2782 87.8953 39.0562 87.814 38.8687 87.6775C38.6812 87.5411 38.5355 87.3549 38.4483 87.1401C38.361 86.9252 38.3356 86.6902 38.3749 86.4616L39.4876 79.9806L34.7782 75.3905C34.6119 75.2286 34.4943 75.0235 34.4387 74.7982C34.383 74.573 34.3915 74.3366 34.4631 74.1159C34.5348 73.8952 34.6668 73.699 34.8442 73.5494C35.0216 73.3999 35.2373 73.3029 35.4669 73.2696L41.9753 72.3235L44.8808 66.4305C44.995 66.2366 45.1578 66.0759 45.3532 65.9643C45.5486 65.8527 45.7697 65.7939 45.9947 65.7939C46.2197 65.7939 46.4408 65.8527 46.6362 65.9643C46.8316 66.0759 46.9944 66.2366 47.1087 66.4305L50.0191 72.3272L56.5275 73.2733C56.7571 73.3066 56.9728 73.4036 57.1502 73.5532C57.3276 73.7027 57.4596 73.899 57.5313 74.1196C57.6029 74.3403 57.6114 74.5767 57.5557 74.8019C57.5001 75.0272 57.3824 75.2324 57.2162 75.3943L52.5068 79.9843L53.6257 86.4654C53.6563 86.6438 53.6476 86.8269 53.6001 87.0016C53.5526 87.1763 53.4675 87.3386 53.3507 87.477C53.234 87.6155 53.0884 87.7267 52.9241 87.803C52.7599 87.8793 52.581 87.9188 52.3999 87.9187H52.3987ZM45.9997 82.068C46.2012 82.0678 46.3996 82.1169 46.5778 82.211L50.7476 84.4028L49.952 79.7605C49.9178 79.562 49.9324 79.3581 49.9946 79.1664C50.0568 78.9747 50.1646 78.801 50.3088 78.6603L53.6829 75.3719L49.0208 74.6943C48.8213 74.6654 48.6318 74.5883 48.4687 74.4698C48.3057 74.3514 48.1738 74.195 48.0846 74.0143L45.9997 69.7897L43.9148 74.0168C43.8255 74.1975 43.6937 74.3539 43.5306 74.4723C43.3675 74.5908 43.1781 74.6678 42.9786 74.6968L38.3164 75.3744L41.6906 78.6628C41.8348 78.8035 41.9426 78.9772 42.0048 79.1689C42.0669 79.3605 42.0815 79.5644 42.0474 79.763L41.2517 84.4053L45.4216 82.2135C45.5995 82.1185 45.798 82.0686 45.9997 82.068Z" fill="#00CD69"/>
<path d="M7.68598 87.9186C7.50531 87.9179 7.32695 87.8779 7.16333 87.8013C6.9997 87.7247 6.85474 87.6133 6.73853 87.475C6.62232 87.3367 6.53766 87.1746 6.49044 87.0003C6.44322 86.8259 6.43458 86.6433 6.46511 86.4652L7.57657 79.9842L2.85971 75.3941C2.69348 75.2322 2.57588 75.0271 2.5202 74.8018C2.46453 74.5765 2.47301 74.3402 2.54467 74.1195C2.61634 73.8988 2.74833 73.7026 2.92573 73.553C3.10312 73.4034 3.31884 73.3065 3.54846 73.2732L10.0568 72.327L12.9673 66.4303C13.0817 66.2365 13.2447 66.0759 13.4401 65.9642C13.6356 65.8526 13.8568 65.7939 14.0818 65.7939C14.3069 65.7939 14.5281 65.8526 14.7236 65.9642C14.919 66.0759 15.082 66.2365 15.1964 66.4303L18.1068 72.327L24.6152 73.2732C24.8448 73.3065 25.0606 73.4034 25.238 73.553C25.4153 73.7026 25.5473 73.8988 25.619 74.1195C25.6907 74.3402 25.6992 74.5765 25.6435 74.8018C25.5878 75.0271 25.4702 75.2322 25.304 75.3941L20.5933 79.9842L21.706 86.4652C21.7453 86.6938 21.7199 86.9288 21.6326 87.1436C21.5454 87.3585 21.3997 87.5447 21.2122 87.6811C21.0247 87.8176 20.8027 87.8988 20.5714 87.9158C20.3401 87.9327 20.1087 87.8845 19.9033 87.7768L14.0812 84.716L8.26408 87.7731C8.08589 87.8674 7.88757 87.9173 7.68598 87.9186ZM14.0837 82.0679C14.2852 82.0677 14.4836 82.1168 14.6618 82.2108L18.8317 84.4027L18.036 79.7604C18.0018 79.5618 18.0165 79.3579 18.0786 79.1662C18.1408 78.9746 18.2486 78.8009 18.3928 78.6601L21.7669 75.3717L17.106 74.6942C16.9065 74.6652 16.7171 74.5882 16.554 74.4697C16.3909 74.3512 16.2591 74.1949 16.1699 74.0141L14.0837 69.7871L11.9988 74.0141C11.9096 74.1949 11.7777 74.3512 11.6146 74.4697C11.4516 74.5882 11.2621 74.6652 11.0626 74.6942L6.40046 75.3717L9.77463 78.6601C9.91881 78.8009 10.0266 78.9746 10.0888 79.1662C10.1509 79.3579 10.1656 79.5618 10.1314 79.7604L9.337 84.4027L13.5044 82.2108C13.683 82.1168 13.8818 82.0678 14.0837 82.0679Z" fill="#00CD69"/>
</svg>
