<svg width="14" height="15" viewBox="0 0 14 15" fill="none" xmlns="http://www.w3.org/2000/svg">
<path d="M3.66545 2.91107L2.52 1.69643L1.62273 2.65321L2.76182 3.86786L3.66545 2.91107ZM1.90909 6.75179H0V8.10893H1.90909V6.75179ZM7.63636 0H6.36364V2.00179H7.63636V0ZM12.3773 2.65321L11.48 1.69643L10.3409 2.91107L11.2382 3.86786L12.3773 2.65321ZM10.3345 11.9496L11.4736 13.1711L12.3709 12.2143L11.2255 10.9996L10.3345 11.9496ZM12.0909 6.75179V8.10893H14V6.75179H12.0909ZM7 3.35893C4.89364 3.35893 3.18182 5.18429 3.18182 7.43036C3.18182 9.67643 4.89364 11.5018 7 11.5018C9.10636 11.5018 10.8182 9.67643 10.8182 7.43036C10.8182 5.18429 9.10636 3.35893 7 3.35893ZM6.36364 14.8607H7.63636V12.8589H6.36364V14.8607ZM1.62273 12.2075L2.52 13.1643L3.65909 11.9429L2.76182 10.9861L1.62273 12.2075Z" fill="#E7D217"/>
</svg>
