<svg width="13" height="13" viewBox="0 0 13 13" fill="none" xmlns="http://www.w3.org/2000/svg">
<path d="M6.5 13C7.78558 13 9.04229 12.6188 10.1112 11.9046C11.1801 11.1903 12.0132 10.1752 12.5052 8.98744C12.9972 7.79972 13.1259 6.49279 12.8751 5.23192C12.6243 3.97104 12.0052 2.81285 11.0962 1.90381C10.1872 0.994767 9.02896 0.375702 7.76809 0.124899C6.50721 -0.125905 5.20028 0.00281636 4.01256 0.494786C2.82484 0.986755 1.80968 1.81988 1.09545 2.8888C0.381218 3.95772 0 5.21442 0 6.5C0 8.22391 0.68482 9.87721 1.90381 11.0962C3.12279 12.3152 4.77609 13 6.5 13ZM6.5 3.03334C7.18655 3.02904 7.85891 3.22871 8.43184 3.60701C9.00478 3.98532 9.45248 4.52523 9.71819 5.15829C9.9839 5.79135 10.0556 6.48905 9.92434 7.16294C9.79304 7.83682 9.46459 8.45655 8.98064 8.94354C8.49669 9.43053 7.87904 9.76286 7.20599 9.89839C6.53294 10.0339 5.8348 9.96654 5.20008 9.70481C4.56537 9.44307 4.02266 8.99876 3.64078 8.42821C3.25889 7.85766 3.05501 7.18656 3.055 6.5C3.06068 5.58809 3.42546 4.71513 4.0703 4.0703C4.71513 3.42546 5.58808 3.06068 6.5 3.055V3.03334Z" fill="#CED4DA"/>
</svg>
