<svg width="111" height="111" viewBox="0 0 111 111" fill="none" xmlns="http://www.w3.org/2000/svg">
<circle cx="55.5" cy="55.5" r="54" stroke="#00CD69" stroke-width="3"/>
<path d="M46.6201 81.1694C46.6201 80.0215 46.8355 78.8848 47.2538 77.8243C47.6722 76.7638 48.2854 75.8002 49.0585 74.9885C49.8315 74.1768 50.7492 73.5329 51.7593 73.0936C52.7693 72.6544 53.8519 72.4283 54.9451 72.4283C56.0384 72.4283 57.1209 72.6544 58.131 73.0936C59.141 73.5329 60.0587 74.1768 60.8318 74.9885C61.6048 75.8002 62.218 76.7638 62.6364 77.8243C63.0548 78.8848 63.2701 80.0215 63.2701 81.1694C63.2701 83.4877 62.393 85.711 60.8318 87.3503C59.2705 88.9895 57.153 89.9105 54.9451 89.9105C52.7372 89.9105 50.6197 88.9895 49.0585 87.3503C47.4972 85.711 46.6201 83.4877 46.6201 81.1694ZM47.4318 28.6791C47.327 27.5793 47.4428 26.4686 47.7718 25.4187C48.1008 24.3688 48.6357 23.4029 49.342 22.5833C50.0483 21.7638 50.9104 21.1087 51.8726 20.6604C52.8348 20.2121 53.8758 19.9805 54.9285 19.9805C55.9811 19.9805 57.0221 20.2121 57.9843 20.6604C58.9465 21.1087 59.8086 21.7638 60.5149 22.5833C61.2212 23.4029 61.7561 24.3688 62.0851 25.4187C62.4142 26.4686 62.53 27.5793 62.4251 28.6791L59.5072 59.3385C59.3985 60.5344 58.8691 61.6449 58.0225 62.4531C57.1758 63.2612 56.0727 63.709 54.9285 63.709C53.7843 63.709 52.6811 63.2612 51.8345 62.4531C50.9878 61.6449 50.4584 60.5344 50.3497 59.3385L47.436 28.6791H47.4318Z" fill="#00CD69"/>
</svg>
