<?xml version="1.0" encoding="utf-8"?><svg xmlns="http://www.w3.org/2000/svg" xmlns:xlink="http://www.w3.org/1999/xlink"><symbol viewBox="0 0 15 18" id="bang" xmlns="http://www.w3.org/2000/svg"><path d="M10.657 17.308c0 .183-.067.36-.185.49a.604.604 0 01-.447.202H4.973a.605.605 0 01-.447-.203.727.727 0 01-.185-.49.73.73 0 01.185-.489.605.605 0 01.447-.203h5.052c.168 0 .329.073.447.203s.185.306.185.49zm4.172-2.77c-.11.212-.268.387-.46.51-.192.12-.41.184-.632.183H1.261a1.18 1.18 0 01-.632-.187 1.332 1.332 0 01-.462-.51A1.49 1.49 0 010 13.842c0-.244.06-.482.172-.693.469-.884 1.028-2.561 1.028-5.533v-.692c-.002-1.834.66-3.594 1.84-4.893C4.223.733 5.826.002 7.5 0h.048C10.995.028 13.8 3.17 13.8 7.001v.614c0 2.972.559 4.65 1.027 5.534a1.477 1.477 0 01.003 1.39zm-1.092-.692c-.55-1.033-1.2-2.95-1.2-6.23V7c0-3.074-2.243-5.594-5-5.616H7.5c-1.338.002-2.62.587-3.564 1.625C2.99 4.05 2.46 5.457 2.463 6.923v.692c0 3.28-.652 5.198-1.199 6.23l12.473.001z"/></symbol><symbol viewBox="0 0 15 18" id="basket" xmlns="http://www.w3.org/2000/svg"><path d="M7.5 0C5.64 0 4.11 1.56 4.11 3.462v.692H.764l-.042.65-.678 12.46L0 18h15l-.042-.736-.678-12.461-.043-.65H10.89v-.691C10.89 1.56 9.362 0 7.5 0zm0 1.385c.54 0 1.057.218 1.439.608a2.1 2.1 0 01.595 1.469v.692H5.466v-.692c0-.551.215-1.08.596-1.47A2.015 2.015 0 017.5 1.385zM2.034 5.538H4.11v2.077h1.355V5.538h4.068v2.077h1.356V5.538h2.077l.593 11.077H1.441l.593-11.077z"/></symbol><symbol viewBox="0 0 344.96 344.96" id="check" xmlns="http://www.w3.org/2000/svg"><g data-name="Слой 2"><path d="M321.85 86.24l-40-23.11-23.1-40H212.5L172.48 0l-40 23.11H86.24l-23.11 40-40 23.1v46.21L0 172.48l23.11 40v46.21l40 23.11 23.11 40h46.21l40 23.1 40-23.11h46.21l23.11-40 40-23.11V212.5l23.11-40-23.11-40V86.24zM156.91 243.07a16.79 16.79 0 01-23.34 0l-50.45-50.44a16.19 16.19 0 010-22.89l13.35-13.35a16.19 16.19 0 0122.89 0l25.87 25.87 80.34-80.35a16.19 16.19 0 0122.89 0l13.35 13.35a16.19 16.19 0 010 22.89z" data-name="Capa 1"/></g></symbol><symbol viewBox="0 0 6 12" id="chevron-right" xmlns="http://www.w3.org/2000/svg"><path d="M.851 11.998a.847.847 0 01-.847-.776.86.86 0 01.193-.626l3.808-4.584L.333 1.419A.857.857 0 01.46.213a.849.849 0 011.241.128l4.106 5.132a.859.859 0 010 1.086l-4.25 5.132a.85.85 0 01-.706.307z"/></symbol><symbol viewBox="0 0 20 20" id="fb" xmlns="http://www.w3.org/2000/svg"><path d="M20 10.062C20 4.503 15.52 0 10 0 4.476 0 0 4.503 0 10.062c0 5.02 3.656 9.184 8.438 9.938v-7.029h-2.54v-2.908h2.54V7.845c0-2.522 1.49-3.914 3.775-3.914 1.095 0 2.24.196 2.24.196v2.476H13.19c-1.24 0-1.627.777-1.627 1.572v1.887h2.773l-.446 2.909h-2.328v7.028C16.341 19.245 20 15.082 20 10.061z"/></symbol><symbol viewBox="0 0 21 20" id="instagram" xmlns="http://www.w3.org/2000/svg"><path d="M10.333.313C4.81.313.333 4.647.333 10c0 5.352 4.476 9.688 10 9.688s10-4.336 10-9.688-4.475-9.688-10-9.688zm4.912 6.636l-1.641 7.492c-.121.532-.448.66-.904.41l-2.5-1.785-1.205 1.125c-.133.13-.246.239-.504.239l.177-2.465 4.633-4.055c.202-.172-.044-.27-.31-.098l-5.726 3.493-2.468-.746c-.536-.164-.548-.52.113-.77l9.641-3.601c.448-.157.839.105.694.761z"/></symbol><symbol viewBox="0 0 14 14" id="search" xmlns="http://www.w3.org/2000/svg"><path d="M5.987 11.973a5.952 5.952 0 003.665-1.263l3.29 3.29L14 12.942l-3.29-3.29a5.95 5.95 0 001.264-3.665A5.994 5.994 0 005.987 0 5.994 5.994 0 000 5.987c0 3.3 2.686 5.986 5.987 5.986zm0-10.476a4.495 4.495 0 014.49 4.49 4.495 4.495 0 01-4.49 4.49 4.495 4.495 0 01-4.49-4.49 4.495 4.495 0 014.49-4.49z"/></symbol><symbol viewBox="0 0 4 8" id="shevron-right-sm" xmlns="http://www.w3.org/2000/svg"><path d="M.625 7.613a.472.472 0 01-.473-.433.48.48 0 01.108-.349l2.124-2.557L.336 1.713a.478.478 0 01.071-.673.473.473 0 01.692.072l2.29 2.862a.479.479 0 010 .606l-2.37 2.862a.474.474 0 01-.394.171z"/></symbol><symbol viewBox="0 0 16 16" id="telegram" xmlns="http://www.w3.org/2000/svg"><path d="M14.629 3.698l-2.012 9.618c-.152.679-.548.848-1.11.528l-3.066-2.29-1.48 1.442c-.163.166-.3.305-.616.305l.22-3.165 5.683-5.204c.247-.223-.054-.347-.384-.123L4.839 9.29l-3.024-.959c-.658-.208-.67-.667.137-.986L13.78 2.727c.548-.208 1.027.124.849.971z"/></symbol><symbol viewBox="0 0 18 18" id="user" xmlns="http://www.w3.org/2000/svg"><path d="M9 3.857a3.214 3.214 0 100 6.429 3.214 3.214 0 000-6.429zM9 9a1.929 1.929 0 110-3.857A1.929 1.929 0 019 9z"/><path d="M9 0a9 9 0 109 9 9.01 9.01 0 00-9-9zM5.143 15.67v-.884a1.93 1.93 0 011.928-1.929h3.858a1.93 1.93 0 011.928 1.929v.885a7.649 7.649 0 01-7.714 0zm8.995-.932a3.215 3.215 0 00-3.21-3.167H7.072a3.215 3.215 0 00-3.209 3.167 7.714 7.714 0 1110.276 0z"/></symbol><symbol viewBox="0 0 16 16" id="viber" xmlns="http://www.w3.org/2000/svg"><path d="M8 1.335c-1.071.013-3.374.19-4.662 1.37-.958.948-1.292 2.35-1.331 4.084-.033 1.728-.072 4.973 3.058 5.856v1.346s-.02.538.337.648c.438.14.688-.275 1.105-.72l.778-.879c2.142.178 3.782-.232 3.97-.293.435-.139 2.883-.451 3.283-3.696.41-3.351-.2-5.463-1.301-6.418h-.007c-.332-.306-1.668-1.279-4.652-1.29 0 0-.222-.014-.578-.008zm.037.942a7.02 7.02 0 01.488.011c2.527.007 3.732.767 4.017 1.023.927.794 1.405 2.697 1.055 5.495-.332 2.713-2.317 2.885-2.685 3.002-.156.05-1.6.406-3.42.289 0 0-1.356 1.634-1.78 2.055-.067.074-.146.095-.196.085-.071-.018-.093-.107-.089-.229l.013-2.233c-2.655-.733-2.498-3.5-2.47-4.946.033-1.446.304-2.628 1.113-3.43 1.088-.982 3.043-1.115 3.953-1.122zm.2 1.446a.166.166 0 100 .332 3.136 3.136 0 012.242.883c.606.588.9 1.378.912 2.411 0 .092.074.167.167.167V7.51a.167.167 0 00.168-.165 3.588 3.588 0 00-1.009-2.646c-.66-.645-1.496-.977-2.48-.977zm-2.198.382a.523.523 0 00-.342.067H5.69a2.61 2.61 0 00-.637.523 1.003 1.003 0 00-.256.525.71.71 0 00.026.302l.01.006c.172.504.396.988.67 1.444a8.48 8.48 0 001.29 1.762l.015.022.024.017.015.018.017.015c.532.505 1.127.94 1.769 1.295.734.4 1.18.588 1.447.667v.004c.078.024.15.034.221.034.228-.016.444-.109.613-.262a2.53 2.53 0 00.517-.638v-.004c.128-.241.085-.469-.1-.623-.37-.323-.77-.61-1.195-.857-.285-.155-.574-.061-.69.095l-.25.315c-.129.156-.361.134-.361.134l-.007.004C7.093 8.527 6.63 6.772 6.63 6.772s-.022-.239.139-.36l.312-.252c.15-.122.254-.41.094-.695a7.498 7.498 0 00-.856-1.194.475.475 0 00-.28-.167zm2.486.495c-.221 0-.221.334.003.334A2.098 2.098 0 0110 5.572 1.94 1.94 0 0110.5 7a.168.168 0 00.167.165l.007.009a.169.169 0 00.167-.167c.015-.662-.191-1.218-.595-1.663C9.84 4.9 9.273 4.65 8.549 4.6h-.024zm.274.898c-.228-.006-.236.335-.01.341.55.029.816.306.851.877a.166.166 0 00.165.163h.007a.168.168 0 00.16-.178c-.039-.744-.445-1.164-1.166-1.202H8.8z"/></symbol><symbol viewBox="0 0 24 24" id="vk" xmlns="http://www.w3.org/2000/svg"><path d="M21.579 6.855c.14-.465 0-.806-.662-.806h-2.193c-.558 0-.813.295-.953.619 0 0-1.115 2.719-2.695 4.482-.51.513-.743.675-1.021.675-.139 0-.341-.162-.341-.627V6.855c0-.558-.161-.806-.626-.806H9.642c-.348 0-.558.258-.558.504 0 .528.79.65.871 2.138v3.228c0 .707-.127.836-.407.836-.743 0-2.551-2.73-3.624-5.853-.209-.607-.42-.852-.98-.852H2.752c-.627 0-.752.295-.752.619 0 .582.743 3.462 3.461 7.27 1.812 2.602 4.363 4.012 6.687 4.012 1.393 0 1.565-.313 1.565-.853v-1.966c0-.626.133-.752.574-.752.324 0 .882.164 2.183 1.417 1.486 1.486 1.732 2.153 2.567 2.153h2.192c.626 0 .939-.313.759-.931-.197-.615-.907-1.51-1.849-2.57-.512-.603-1.277-1.253-1.51-1.578-.325-.42-.231-.604 0-.976.001 0 2.672-3.761 2.95-5.04z"/></symbol><symbol viewBox="0 0 16 16" id="whatsapp" xmlns="http://www.w3.org/2000/svg"><path fill-rule="evenodd" clip-rule="evenodd" d="M12.269 3.755A5.947 5.947 0 008.035 2 5.994 5.994 0 002.05 7.985a5.98 5.98 0 00.799 2.992L2 14.077l3.173-.832c.877.477 1.86.728 2.86.728h.002a5.993 5.993 0 005.533-8.276 5.953 5.953 0 00-1.3-1.942zm-4.234 9.208h-.002c-.89 0-1.765-.24-2.532-.694l-.181-.108-1.883.494.502-1.835-.118-.188a4.965 4.965 0 01-.76-2.647 4.982 4.982 0 016.88-4.597c.604.25 1.152.618 1.613 1.081a4.946 4.946 0 011.455 3.52 4.982 4.982 0 01-4.974 4.974zm2.729-3.726c-.15-.075-.885-.436-1.022-.486-.137-.05-.236-.075-.336.074-.1.15-.387.486-.474.586-.087.1-.175.112-.324.038-.15-.075-.631-.233-1.203-.742a4.505 4.505 0 01-.832-1.036c-.087-.15-.009-.231.066-.306.068-.066.15-.174.224-.262.075-.087.1-.149.15-.249.05-.1.025-.187-.013-.262-.037-.075-.337-.811-.461-1.11-.121-.29-.244-.252-.336-.256a6.418 6.418 0 00-.286-.005.55.55 0 00-.4.186c-.137.15-.523.512-.523 1.248s.536 1.447.61 1.547c.075.1 1.055 1.61 2.555 2.258.358.154.636.246.853.315.358.114.684.098.942.06.287-.043.885-.362 1.01-.711.124-.35.124-.649.087-.711-.038-.063-.138-.101-.287-.176z"/></symbol></svg>