<?xml version="1.0" encoding="utf-8"?><svg xmlns="http://www.w3.org/2000/svg" xmlns:xlink="http://www.w3.org/1999/xlink"><symbol viewBox="0 0 50 49" id="accordeon" xmlns="http://www.w3.org/2000/svg"><path d="M28.362 18.84a1.214 1.214 0 011.741 1.694l-3.386 3.482 3.482 3.386a1.214 1.214 0 11-1.694 1.74l-3.481-3.386-3.387 3.482a1.215 1.215 0 01-1.74-1.693l3.386-3.482-3.482-3.386a1.214 1.214 0 111.693-1.741l3.482 3.386 3.386-3.482zm8.824 17.052c-6.546 6.73-17.309 6.88-24.039.334s-6.88-17.309-.334-24.04c6.546-6.73 17.31-6.88 24.04-.333 6.73 6.546 6.88 17.309.333 24.04zm-1.74-1.693c5.61-5.769 5.482-14.995-.287-20.605-5.768-5.61-14.994-5.483-20.605.286-5.61 5.768-5.482 14.994.286 20.605 5.769 5.61 14.995 5.482 20.605-.286z"/></symbol><symbol viewBox="0 0 25 22" id="alert" xmlns="http://www.w3.org/2000/svg"><path d="M22.81 9.937a.668.668 0 00-.47.207l-1.2 1.223 2.461 2.444 1.2-1.222a.658.658 0 000-.941l-1.488-1.504a.663.663 0 00-.456-.207h-.048zm-2.354 2.139l-7.25 7.406V22h2.472l7.275-7.419-2.497-2.505zM21.61 0H2.4A2.38 2.38 0 00.703.716 2.467 2.467 0 000 2.444v14.667c0 .648.253 1.27.703 1.729a2.38 2.38 0 001.698.716h8.403v-1.088L20.696 8.42a2.96 2.96 0 012.161-.929c.408 0 .817.074 1.2.232v-5.28A2.44 2.44 0 0021.61 0zm0 4.889L12.005 11 2.4 4.889V2.444l9.604 6.112 9.604-6.112"/></symbol><symbol viewBox="0 0 24 25" id="arrow-left" xmlns="http://www.w3.org/2000/svg"><path d="M10.41 16.795L9 18.205l-6-6 6-6 1.41 1.41-4.58 4.59 4.58 4.59z"/><path d="M6 11h16.5v2.25H6l-.75-1.125L6 11z"/></symbol><symbol viewBox="0 0 15 18" id="bang" xmlns="http://www.w3.org/2000/svg"><path d="M10.657 17.308c0 .183-.067.36-.185.49a.604.604 0 01-.447.202H4.973a.605.605 0 01-.447-.203.727.727 0 01-.185-.49.73.73 0 01.185-.489.605.605 0 01.447-.203h5.052c.168 0 .329.073.447.203s.185.306.185.49zm4.172-2.77c-.11.212-.268.387-.46.51-.192.12-.41.184-.632.183H1.261a1.18 1.18 0 01-.632-.187 1.332 1.332 0 01-.462-.51A1.49 1.49 0 010 13.842c0-.244.06-.482.172-.693.469-.884 1.028-2.561 1.028-5.533v-.692c-.002-1.834.66-3.594 1.84-4.893C4.223.733 5.826.002 7.5 0h.048C10.995.028 13.8 3.17 13.8 7.001v.614c0 2.972.559 4.65 1.027 5.534a1.477 1.477 0 01.003 1.39zm-1.092-.692c-.55-1.033-1.2-2.95-1.2-6.23V7c0-3.074-2.243-5.594-5-5.616H7.5c-1.338.002-2.62.587-3.564 1.625C2.99 4.05 2.46 5.457 2.463 6.923v.692c0 3.28-.652 5.198-1.199 6.23l12.473.001z"/></symbol><symbol viewBox="0 0 15 18" id="basket" xmlns="http://www.w3.org/2000/svg"><path d="M7.5 0C5.64 0 4.11 1.56 4.11 3.462v.692H.764l-.042.65-.678 12.46L0 18h15l-.042-.736-.678-12.461-.043-.65H10.89v-.691C10.89 1.56 9.362 0 7.5 0zm0 1.385c.54 0 1.057.218 1.439.608a2.1 2.1 0 01.595 1.469v.692H5.466v-.692c0-.551.215-1.08.596-1.47A2.015 2.015 0 017.5 1.385zM2.034 5.538H4.11v2.077h1.355V5.538h4.068v2.077h1.356V5.538h2.077l.593 11.077H1.441l.593-11.077z"/></symbol><symbol viewBox="0 0 20 20" id="chat-arrow" xmlns="http://www.w3.org/2000/svg"><path d="M10.837 10.202L3.113 11.49a.512.512 0 00-.395.326L.054 18.949c-.254.656.432 1.282 1.062.967l18.459-9.228a.77.77 0 000-1.376L1.114.084C.487-.231-.2.396.056 1.05L2.72 8.183a.513.513 0 00.395.327l7.724 1.287a.205.205 0 010 .404z"/></symbol><symbol viewBox="0 0 344.96 344.96" id="check" xmlns="http://www.w3.org/2000/svg"><g data-name="Слой 2"><path d="M321.85 86.24l-40-23.11-23.1-40H212.5L172.48 0l-40 23.11H86.24l-23.11 40-40 23.1v46.21L0 172.48l23.11 40v46.21l40 23.11 23.11 40h46.21l40 23.1 40-23.11h46.21l23.11-40 40-23.11V212.5l23.11-40-23.11-40V86.24zM156.91 243.07a16.79 16.79 0 01-23.34 0l-50.45-50.44a16.19 16.19 0 010-22.89l13.35-13.35a16.19 16.19 0 0122.89 0l25.87 25.87 80.34-80.35a16.19 16.19 0 0122.89 0l13.35 13.35a16.19 16.19 0 010 22.89z" data-name="Capa 1"/></g></symbol><symbol viewBox="0 0 384 512" class="ahsvg-inline--fa ahfa-chevron-double-left ahfa-w-12 ahfa-2x" id="chevron-double-left" xmlns="http://www.w3.org/2000/svg"><path d="M349.5 475.5l-211.1-211c-4.7-4.7-4.7-12.3 0-17l211.1-211c4.7-4.7 12.3-4.7 17 0l7.1 7.1c4.7 4.7 4.7 12.3 0 17L178.1 256l195.5 195.5c4.7 4.7 4.7 12.3 0 17l-7.1 7.1c-4.7 4.6-12.3 4.6-17-.1zm-111 0l7.1-7.1c4.7-4.7 4.7-12.3 0-17L50.1 256 245.5 60.5c4.7-4.7 4.7-12.3 0-17l-7.1-7.1c-4.7-4.7-12.3-4.7-17 0l-211.1 211c-4.7 4.7-4.7 12.3 0 17l211.1 211c4.8 4.8 12.4 4.8 17.1.1z"/></symbol><symbol viewBox="0 0 384 512" class="aisvg-inline--fa aifa-chevron-double-right aifa-w-12 aifa-2x" id="chevron-double-right" xmlns="http://www.w3.org/2000/svg"><path d="M34.5 36.5l211.1 211c4.7 4.7 4.7 12.3 0 17l-211.1 211c-4.7 4.7-12.3 4.7-17 0l-7.1-7.1c-4.7-4.7-4.7-12.3 0-17L205.9 256 10.5 60.5c-4.7-4.7-4.7-12.3 0-17l7.1-7.1c4.6-4.6 12.2-4.6 16.9.1zm111 0l-7.1 7.1c-4.7 4.7-4.7 12.3 0 17L333.9 256 138.5 451.5c-4.7 4.7-4.7 12.3 0 17l7.1 7.1c4.7 4.7 12.3 4.7 17 0l211.1-211c4.7-4.7 4.7-12.3 0-17l-211.1-211c-4.8-4.8-12.4-4.8-17.1-.1z"/></symbol><symbol viewBox="0 0 9 17" id="chevron-left" xmlns="http://www.w3.org/2000/svg"><path d="M8.997 3.138L3.374 8.761l5.623 5.623-1.125 2.249L0 8.76 7.872.889l1.125 2.25z"/></symbol><symbol viewBox="0 0 11 22" id="chevron-left-slider" xmlns="http://www.w3.org/2000/svg"><path d="M9.2 22c-.2 0-.5-.1-.7-.2-.2-.1-.4-.2-.5-.4L.4 12c-.3-.3-.4-.6-.4-1s.1-.7.4-1L8.3.6c.2-.4.6-.6 1-.6s.8.1 1.2.4c.3.2.5.6.5 1s-.1.8-.4 1.2l-7 8.4 6.8 8.4c.2.2.3.5.4.8 0 .3 0 .6-.1.9-.1.3-.3.5-.6.7-.3.1-.6.2-.9.2z"/></symbol><symbol viewBox="0 0 6 12" id="chevron-right" xmlns="http://www.w3.org/2000/svg"><path d="M.851 11.998a.847.847 0 01-.847-.776.86.86 0 01.193-.626l3.808-4.584L.333 1.419A.857.857 0 01.46.213a.849.849 0 011.241.128l4.106 5.132a.859.859 0 010 1.086l-4.25 5.132a.85.85 0 01-.706.307z"/></symbol><symbol viewBox="0 0 11 22" id="chevron-right-slider" xmlns="http://www.w3.org/2000/svg"><path d="M1.8 0c.2 0 .5.1.7.2.2.1.4.2.5.4l7.6 9.4c.2.3.4.6.4 1s-.1.7-.4 1l-7.9 9.4c-.2.4-.6.6-1 .6s-.8-.1-1.2-.4c-.3-.2-.5-.6-.5-1s.1-.8.4-1.2l7-8.4L.6 2.6c-.2-.3-.3-.5-.4-.8 0-.3 0-.6.1-.9C.5.6.7.4 1 .2c.2-.1.5-.2.8-.2z"/></symbol><symbol viewBox="0 0 10 17" id="chevron-right2" xmlns="http://www.w3.org/2000/svg"><path d="M.655 14.383l5.623-5.622L.655 3.138 1.779.888l7.872 7.873-7.872 7.871-1.124-2.249z"/></symbol><symbol viewBox="0 0 17 18" id="delete" xmlns="http://www.w3.org/2000/svg"><path d="M5.135 1.62h-.177a.18.18 0 00.177-.18v.18h6.73v-.18c0 .099.08.18.177.18h-.177v1.62h1.593v-1.8A1.43 1.43 0 0012.042 0H4.958a1.43 1.43 0 00-1.416 1.44v1.8h1.593V1.62zm11.157 1.62H.708A.713.713 0 000 3.96v.72c0 .099.08.18.177.18h1.337l.547 11.768c.035.767.66 1.372 1.414 1.372h10.05c.757 0 1.379-.603 1.414-1.372l.547-11.768h1.337A.18.18 0 0017 4.68v-.72a.713.713 0 00-.708-.72zm-2.938 13.14H3.646L3.11 4.86h10.78l-.536 11.52z"/></symbol><symbol viewBox="0 0 58 58" id="duty-1" xmlns="http://www.w3.org/2000/svg"><path d="M30.133 45.992a1.133 1.133 0 11-2.266 0 1.133 1.133 0 012.266 0zm24.129-10.195A6.804 6.804 0 0047.465 29a6.804 6.804 0 00-6.797 6.797 6.804 6.804 0 006.797 6.797 6.804 6.804 0 006.797-6.797zm-6.797 4.531a4.537 4.537 0 01-4.531-4.531 4.537 4.537 0 014.53-4.531 4.537 4.537 0 014.532 4.53 4.537 4.537 0 01-4.531 4.532z"/><path d="M47.465 42.594c-2.855 0-5.701 1.185-7.64 3.106-2.553-3.354-6.489-5.372-10.825-5.372A13.57 13.57 0 0018.176 45.7c-1.94-1.92-4.786-3.106-7.64-3.106C4.824 42.594 0 47.263 0 52.789v2.266c0 .625.507 1.133 1.133 1.133h55.734c.626 0 1.133-.508 1.133-1.133v-2.266c0-5.526-4.825-10.195-10.535-10.195zm-45.2 10.195c0-4.298 3.788-7.93 8.27-7.93 2.453 0 4.885 1.087 6.391 2.815a13.593 13.593 0 00-1.52 6.248H2.266v-1.133zM29 42.594c6.303 0 11.328 5.114 11.328 11.328H17.672c0-6.296 5.127-11.328 11.328-11.328zm26.734 11.328h-13.14a13.6 13.6 0 00-1.52-6.248c1.506-1.728 3.938-2.815 6.39-2.815 4.483 0 8.27 3.632 8.27 7.93v1.133z"/><path d="M17.332 35.797A6.804 6.804 0 0010.535 29a6.804 6.804 0 00-6.797 6.797 6.804 6.804 0 006.797 6.797 6.804 6.804 0 006.797-6.797zm-6.797 4.531a4.537 4.537 0 01-4.531-4.531 4.537 4.537 0 014.531-4.531 4.537 4.537 0 014.531 4.53 4.537 4.537 0 01-4.53 4.532zm27.528-9.062c0-4.998-4.066-9.063-9.063-9.063-4.997 0-9.063 4.065-9.063 9.063 0 4.997 4.066 9.062 9.063 9.062 4.997 0 9.063-4.065 9.063-9.062zM29 38.063a6.804 6.804 0 01-6.797-6.797A6.804 6.804 0 0129 24.469a6.804 6.804 0 016.797 6.797A6.804 6.804 0 0129 38.063zM37.965 8.4a1.132 1.132 0 00-.915-.77l-4.886-.71-2.187-4.472a1.132 1.132 0 00-2.035 0L25.754 6.92l-4.886.709a1.133 1.133 0 00-.628 1.932l3.538 3.449-.835 4.87a1.132 1.132 0 001.644 1.193l4.372-2.299 4.374 2.3a1.132 1.132 0 001.644-1.195l-.836-4.87 3.537-3.448c.31-.3.42-.75.287-1.161zm-5.833 3.404c-.267.26-.389.635-.326 1.002l.549 3.195-2.869-1.508a1.134 1.134 0 00-1.054 0L25.564 16l.548-3.195a1.134 1.134 0 00-.326-1.002l-2.32-2.262 3.206-.465c.37-.054.69-.288.854-.624l1.433-2.93 1.433 2.93c.164.337.484.57.855.624l3.206.465-2.321 2.262zm22.766 5.087a1.132 1.132 0 00-.915-.77l-3.31-.481-1.48-3a1.132 1.132 0 00-2.032 0l-1.481 3-3.311.48a1.132 1.132 0 00-.628 1.932l2.395 2.336-.565 3.297a1.133 1.133 0 001.643 1.194l2.962-1.556 2.962 1.556a1.133 1.133 0 001.643-1.194l-.566-3.297 2.396-2.336c.31-.3.42-.75.287-1.16zm-4.69 2.291a1.13 1.13 0 00-.326 1.002l.278 1.622-1.456-.765a1.132 1.132 0 00-1.054 0l-1.458.765.278-1.622a1.133 1.133 0 00-.325-1.002l-1.18-1.15 1.63-.236a1.13 1.13 0 00.853-.62l.728-1.475.728 1.475c.165.335.484.567.853.62l1.63.236-1.18 1.15zm-33.826-2.291a1.132 1.132 0 00-.915-.77l-3.31-.482-1.48-3a1.132 1.132 0 00-2.032 0l-1.48 3-3.312.482a1.132 1.132 0 00-.628 1.931l2.396 2.336-.565 3.297a1.132 1.132 0 001.643 1.194l2.962-1.556 2.96 1.556a1.132 1.132 0 001.644-1.194l-.565-3.297 2.396-2.336c.308-.3.42-.75.286-1.16zm-4.69 2.291c-.267.26-.389.635-.326 1.002l.278 1.622-1.456-.765a1.131 1.131 0 00-1.054 0l-1.458.765.278-1.622a1.132 1.132 0 00-.325-1.002l-1.18-1.15 1.63-.236a1.13 1.13 0 00.853-.62l.728-1.475.728 1.475c.165.335.484.567.853.62l1.63.236-1.18 1.15zm22.272 27.161a1.132 1.132 0 10-1.244 1.893 6.837 6.837 0 012.421 2.774 1.132 1.132 0 102.046-.973 9.098 9.098 0 00-3.223-3.694z"/></symbol><symbol viewBox="0 0 58 58" id="duty-2" xmlns="http://www.w3.org/2000/svg"><g clip-path="url(#aqa)"><path d="M41.194 29.71c-.1-.342-.357-.62-.698-.746a8.063 8.063 0 00-1.495-.35c3.705-3.942 2.482-8.548 2.193-9.448-.1-.341-.357-.62-.698-.745-.16-.058-2.933-1.036-6.092.063.178-.732.282-1.536.282-2.419 0-5.649-4.277-8.132-5.136-8.573a1.132 1.132 0 00-1.02-.033c-.213.098-5.204 2.487-5.204 8.606 0 .885.105 1.691.284 2.424-3.165-1.107-5.946-.126-6.105-.068a1.133 1.133 0 00-.698.745c-.29.9-1.513 5.506 2.193 9.449a8.062 8.062 0 00-1.495.35 1.133 1.133 0 00-.698.745c-.295.918-1.565 5.7 2.43 9.694 2.311 2.311 4.877 2.863 6.799 2.863.712 0 1.334-.076 1.823-.166v7.412a1.133 1.133 0 002.266 0v-7.415c.492.091 1.12.169 1.84.169 1.921 0 4.488-.552 6.799-2.863 3.994-3.995 2.725-8.776 2.43-9.694zm-13.335 8.86a7.557 7.557 0 01-.166 1.257c-1.21.269-4.24.589-6.854-2.025-2.575-2.575-2.305-5.554-2.02-6.854.762-.166 2.247-.35 3.892.184.108.04.216.079.324.114.87.33 1.775.87 2.632 1.727 1.634 1.633 2.122 3.429 2.192 4.841v.756zm0-10.543a7.554 7.554 0 01-.166 1.257 7.529 7.529 0 01-3.814-.152 9.12 9.12 0 00-.488-.173 7.48 7.48 0 01-2.552-1.7c-2.575-2.575-2.305-5.554-2.02-6.854 1.21-.263 4.248-.576 6.848 2.025.017.016.032.033.048.05.1.11.2.217.299.32 1.356 1.53 1.78 3.165 1.845 4.47v.757zm1.15-5.684a7.702 7.702 0 01-1.549-1.32c-.946-1.051-1.868-2.664-1.868-4.958 0-3.693 2.363-5.609 3.409-6.276 1.12.717 3.42 2.633 3.42 6.276 0 2.165-.813 3.718-1.695 4.768-.184.184-.356.37-.517.556a7.67 7.67 0 01-1.2.954zm1.123 5.316a7.172 7.172 0 011.751-4.742 9.9 9.9 0 00.501-.536c2.6-2.557 5.594-2.245 6.797-1.979.285 1.3.557 4.28-2.02 6.856a7.48 7.48 0 01-2.547 1.7 9.11 9.11 0 00-.496.175 7.525 7.525 0 01-3.81.15 7.6 7.6 0 01-.176-1.595v-.029zm7.03 10.143c-2.615 2.614-5.644 2.294-6.852 2.026-.264-1.205-.582-4.25 2.023-6.855a7.48 7.48 0 012.555-1.702c.161-.052.323-.109.487-.172a7.53 7.53 0 013.806-.153c.285 1.299.557 4.28-2.02 6.856z"/><path d="M35.044.631A29.195 29.195 0 0029 0C21.254 0 13.971 3.016 8.494 8.494 3.017 13.97 0 21.254 0 29a29.055 29.055 0 006.128 17.828 4.274 4.274 0 00-.685 2.33c0 1.15.448 2.231 1.261 3.044a4.277 4.277 0 003.044 1.261c1.15 0 2.23-.448 3.044-1.26a4.276 4.276 0 001.26-3.045c0-1.15-.447-2.23-1.26-3.044a4.276 4.276 0 00-3.044-1.26c-.681 0-1.338.158-1.93.455A26.784 26.784 0 012.266 29C2.266 14.259 14.259 2.266 29 2.266c1.878 0 3.754.195 5.574.581a1.133 1.133 0 10.47-2.216zM8.306 47.716c.398-.397.92-.596 1.442-.596a2.036 2.036 0 012.039 2.038 2.041 2.041 0 01-4.078 0c0-.544.212-1.056.597-1.442zm43.566-36.544c.445-.689.685-1.49.685-2.33 0-1.15-.448-2.231-1.261-3.044a4.276 4.276 0 00-3.044-1.26c-1.15 0-2.23.447-3.044 1.26a4.277 4.277 0 00-1.26 3.044c0 1.15.447 2.23 1.26 3.044a4.276 4.276 0 003.044 1.26 4.28 4.28 0 001.93-.456A26.785 26.785 0 0155.734 29c0 14.742-11.993 26.734-26.734 26.734-1.586 0-3.175-.14-4.723-.415a1.133 1.133 0 00-.397 2.23c1.679.3 3.401.451 5.12.451 7.746 0 15.029-3.017 20.506-8.494C54.984 44.03 58 36.746 58 29a29.055 29.055 0 00-6.128-17.828zm-2.178-.888a2.026 2.026 0 01-1.442.597 2.041 2.041 0 010-4.078c.545 0 1.057.212 1.442.597s.597.897.597 1.442c0 .544-.212 1.056-.597 1.442zM19.046 53.82l-.427 1.05.424-1.051a1.133 1.133 0 00-.85 2.1l.036.014a1.135 1.135 0 001.466-.651 1.13 1.13 0 00-.649-1.462zM39.855 2.1l-.02-.007a1.133 1.133 0 00-.841 2.103l.013.005a1.13 1.13 0 001.474-.626 1.133 1.133 0 00-.626-1.474z"/></g><defs><clipPath id="aqa"><path d="M0 0h58v58H0z"/></clipPath></defs></symbol><symbol viewBox="0 0 58 58" id="duty-3" xmlns="http://www.w3.org/2000/svg"><g clip-path="url(#ara)"><path d="M57.555 53.535l-7.274-7.274a5.817 5.817 0 00-3.015-1.604V29.984a8.524 8.524 0 006.754-2.482 8.534 8.534 0 002.298-7.954 1.133 1.133 0 00-.856-.856 8.534 8.534 0 00-8.196 2.552v-5.929a7.01 7.01 0 002.76-5.593 7.015 7.015 0 00-3.288-5.96 1.133 1.133 0 00-1.21 0 7.017 7.017 0 00-3.289 5.96A7.01 7.01 0 0045 15.315v1.487a7.61 7.61 0 00-7.065-2.023c-.427.097-.76.43-.856.856a7.612 7.612 0 002.05 7.093A7.602 7.602 0 0045 24.952v4.55a9.278 9.278 0 00-9.014-3.016 3.634 3.634 0 00-3.591-3.113h-7.28l-3.391-4.661a6.436 6.436 0 00-1.75-1.641 5.48 5.48 0 003.369-5.05v-2.71h1.747a1.133 1.133 0 100-2.266h-1.435V5.232A3.235 3.235 0 0020.423 2h-5.356a3.235 3.235 0 00-3.231 3.232v1.814H10.4a1.133 1.133 0 100 2.266h2v2.708c0 1.764.84 3.335 2.14 4.336a6.471 6.471 0 00-4.502 6.156v12.335a7.166 7.166 0 003.594 6.207v7.278H3.455A3.573 3.573 0 00-.113 51.9a3.573 3.573 0 003.568 3.569h1.459a1.133 1.133 0 100-2.266H3.455A1.304 1.304 0 012.152 51.9c0-.718.585-1.302 1.303-1.302h11.311c.626 0 1.133-.507 1.133-1.133V41.89c.423.078.858.12 1.304.12h2.244v7.328a3.87 3.87 0 01-3.865 3.865h-1.606a1.133 1.133 0 100 2.266h1.605a6.137 6.137 0 006.131-6.131V42.01h4.144v9.89a3.573 3.573 0 003.568 3.568 3.572 3.572 0 003.568-3.569V39.61a6.138 6.138 0 00-6.13-6.132h-5.457v-2.902c.11.036.227.055.346.055h10.644a3.61 3.61 0 002.411-.92 9.27 9.27 0 002.727 6.298A9.267 9.267 0 0045 38.696v5.965c-1.1.217-2.147.75-2.997 1.6l-7.24 7.24a1.132 1.132 0 101.601 1.602l7.24-7.24a3.591 3.591 0 015.075 0l7.274 7.274a1.129 1.129 0 001.602 0 1.132 1.132 0 000-1.602zM44.982 22.682a5.353 5.353 0 01-4.252-1.556 5.35 5.35 0 01-1.555-4.251 5.351 5.351 0 014.251 1.556 5.35 5.35 0 011.556 4.251zm4.128-.09a6.272 6.272 0 015.12-1.811 6.273 6.273 0 01-1.812 5.119 6.27 6.27 0 01-5.12 1.811 6.417 6.417 0 01-.032-.574v-.22a6.27 6.27 0 011.844-4.325zM46.133 6.128a4.756 4.756 0 011.628 3.594 4.756 4.756 0 01-1.628 3.594 4.755 4.755 0 01-1.628-3.594c0-1.396.597-2.693 1.628-3.594zM21.077 12.02a3.21 3.21 0 01-3.205 3.206 3.209 3.209 0 01-3.206-3.206V9.312h6.411v2.708zm-6.976-6.788c0-.533.433-.966.966-.966h5.356c.533 0 .966.433.966.966v1.814H14.1V5.232zm12.76 30.512a3.87 3.87 0 013.866 3.865V51.9c0 .719-.584 1.303-1.303 1.303A1.304 1.304 0 0128.12 51.9V40.878c0-.625-.507-1.133-1.133-1.133h-9.786a4.906 4.906 0 01-4.814-4h14.474zm5.534-7.379H22.259l-2.2-2.474a1.133 1.133 0 00-1.694 1.506l.774.87v5.211h-6.835V22.512a4.2 4.2 0 014.195-4.195 4.21 4.21 0 013.393 1.727l3.73 5.129c.214.293.554.466.917.466h7.856c.752 0 1.363.612 1.363 1.363 0 .752-.612 1.363-1.363 1.363zm12.557 8.058a7.018 7.018 0 01-5.817-2.016 7.018 7.018 0 01-2.016-5.817 7.016 7.016 0 015.817 2.016A7.012 7.012 0 0145 35.525v.16a7.141 7.141 0 01-.048.738z"/><path d="M9.444 53.469c-.298 0-.589.121-.8.332-.211.21-.332.503-.332.8 0 .298.12.59.331.802.212.21.503.331.801.331.298 0 .59-.12.802-.331.21-.211.332-.504.332-.801 0-.298-.121-.59-.332-.801a1.146 1.146 0 00-.802-.332z"/></g><defs><clipPath id="ara"><path d="M0 0h58v58H0z"/></clipPath></defs></symbol><symbol viewBox="0 0 58 58" id="duty-4" xmlns="http://www.w3.org/2000/svg"><path d="M51.812 11.094h1.792a1.132 1.132 0 000-2.264h-4.302c-.625 0-1.132.507-1.132 1.132v4.302a1.132 1.132 0 002.264 0V13.02A26.65 26.65 0 0155.736 29c0 14.742-11.994 26.736-26.736 26.736S2.264 43.742 2.264 29 14.258 2.264 29 2.264c1.09 0 2.188.066 3.262.197a1.133 1.133 0 00.273-2.248A29.411 29.411 0 0029 0C21.254 0 13.971 3.017 8.494 8.494S0 21.254 0 29s3.017 15.029 8.494 20.506S21.254 58 29 58s15.029-3.017 20.506-8.494S58 36.746 58 29a28.905 28.905 0 00-6.188-17.906z"/><path d="M12.28 17.096a1.132 1.132 0 00-1.562.35A21.705 21.705 0 007.496 31.27a21.673 21.673 0 006.215 13.02c4.215 4.216 9.752 6.323 15.29 6.323 5.537 0 11.073-2.107 15.289-6.323 8.43-8.43 8.43-22.148 0-30.578a21.674 21.674 0 00-13-6.213 21.706 21.706 0 00-13.806 3.196 1.132 1.132 0 101.207 1.916c7.691-4.848 17.56-3.737 23.998 2.702 7.548 7.547 7.548 19.829 0 27.376-7.548 7.548-19.83 7.548-27.377 0-6.35-6.35-7.477-16.456-2.681-24.03a1.133 1.133 0 00-.351-1.562z"/><path d="M43.717 30.15h1.396a1.132 1.132 0 000-2.264h-1.396a1.132 1.132 0 000 2.264zm-31.962-1.168c0 .625.507 1.132 1.132 1.132h1.396a1.132 1.132 0 000-2.264h-1.396c-.625 0-1.132.506-1.132 1.132zM30.15 14.283v-1.396a1.132 1.132 0 00-2.264 0v1.396a1.132 1.132 0 002.264 0zm-2.3 29.434v1.396a1.132 1.132 0 002.264 0v-1.396a1.132 1.132 0 00-2.264 0zm-4.524-21.993a1.132 1.132 0 00-1.601 1.602l3.836 3.836a3.875 3.875 0 00-.46 1.838c0 2.15 1.749 3.9 3.9 3.9 2.15 0 3.9-1.75 3.9-3.9 0-.664-.168-1.29-.462-1.838l7.741-7.741a1.132 1.132 0 10-1.6-1.601l-7.742 7.741A3.875 3.875 0 0029 25.1c-.664 0-1.29.167-1.838.461l-3.836-3.837zM30.636 29c0 .902-.734 1.636-1.636 1.636A1.638 1.638 0 0127.364 29c0-.902.734-1.636 1.636-1.636.902 0 1.636.734 1.636 1.636zM15.31 15.31a1.13 1.13 0 00.001-1.6 1.14 1.14 0 00-.8-.332 1.137 1.137 0 00-1.133 1.132 1.133 1.133 0 001.932.801zM36.842 3.382a1.136 1.136 0 001.133-1.132c0-.298-.12-.59-.331-.8a1.141 1.141 0 00-.802-.332c-.298 0-.59.121-.8.332a1.14 1.14 0 00-.332.8 1.136 1.136 0 001.132 1.132z"/></symbol><symbol viewBox="0 0 58 58" id="duty-5" xmlns="http://www.w3.org/2000/svg"><g clip-path="url(#ata)"><path d="M55.425 24.63h-1.648a25.186 25.186 0 00-.506-2.243 1.147 1.147 0 00-2.213.603c.228.834.41 1.677.538 2.506a1.67 1.67 0 001.658 1.421h2.17a.34.34 0 01.341.34v3.52a.34.34 0 01-.34.34h-2.171a1.67 1.67 0 00-1.658 1.421 22.768 22.768 0 01-4.123 9.925 1.663 1.663 0 00.165 2.173l1.536 1.532a.34.34 0 010 .48l-2.496 2.49a.341.341 0 01-.482 0l-1.536-1.532a1.674 1.674 0 00-2.179-.165 22.9 22.9 0 01-9.95 4.113 1.668 1.668 0 00-1.426 1.653v2.165a.34.34 0 01-.34.34h-3.53a.34.34 0 01-.34-.34v-2.165c0-.83-.6-1.525-1.425-1.653a22.9 22.9 0 01-9.95-4.112 1.675 1.675 0 00-2.18.164l-1.537 1.532a.341.341 0 01-.481 0l-2.496-2.49a.34.34 0 010-.48l1.536-1.531a1.663 1.663 0 00.165-2.174 22.772 22.772 0 01-4.124-9.925 1.67 1.67 0 00-1.657-1.42H2.575a.34.34 0 01-.34-.34v-3.52a.34.34 0 01.34-.34h2.17a1.67 1.67 0 001.658-1.422c.555-3.568 1.98-7 4.124-9.924a1.663 1.663 0 00-.165-2.174l-1.536-1.532a.333.333 0 01-.1-.24.33.33 0 01.1-.24l2.496-2.49a.334.334 0 01.24-.099c.065 0 .159.017.241.1l1.536 1.532a1.675 1.675 0 002.18.164 22.9 22.9 0 019.95-4.113 1.668 1.668 0 001.425-1.653V2.662a.34.34 0 01.34-.34h3.53a.34.34 0 01.341.34v2.165c0 .83.6 1.526 1.425 1.653a22.901 22.901 0 019.95 4.113 1.675 1.675 0 002.18-.165l1.536-1.531a.341.341 0 01.482 0l2.495 2.489a.33.33 0 01.1.24.333.333 0 01-.1.24l-1.535 1.532a1.663 1.663 0 00-.166 2.174 22.848 22.848 0 011.902 3.084c.288.562.979.786 1.543.498.564-.287.788-.976.5-1.539a25.214 25.214 0 00-1.788-2.968l1.166-1.163a2.607 2.607 0 00.772-1.858c0-.702-.274-1.362-.772-1.858L48.3 7.278a2.642 2.642 0 00-3.726 0l-1.166 1.164a25.229 25.229 0 00-10.009-4.137V2.662A2.634 2.634 0 0030.765.035h-3.53A2.634 2.634 0 0024.6 2.662v1.643a25.224 25.224 0 00-10.009 4.137l-1.166-1.163a2.62 2.62 0 00-1.863-.77 2.62 2.62 0 00-1.863.77L7.204 9.768a2.607 2.607 0 00-.772 1.858c0 .702.274 1.362.771 1.858l1.167 1.163a25.087 25.087 0 00-4.148 9.983H2.575A2.634 2.634 0 00-.06 27.257v3.52a2.634 2.634 0 002.635 2.628h1.647a25.087 25.087 0 004.148 9.983L7.204 44.55a2.626 2.626 0 000 3.716l2.496 2.49a2.642 2.642 0 003.725 0l1.166-1.163a25.227 25.227 0 0010.01 4.137v1.643A2.634 2.634 0 0027.234 58h3.53a2.634 2.634 0 002.634-2.627V53.73a25.228 25.228 0 0010.009-4.137l1.166 1.163a2.643 2.643 0 003.726 0l2.495-2.49a2.625 2.625 0 000-3.715l-1.166-1.163a25.087 25.087 0 004.148-9.983h1.647a2.634 2.634 0 002.635-2.627v-3.52a2.634 2.634 0 00-2.634-2.629z"/><path d="M20.1 33.895l-5.286 4.426a16.818 16.818 0 01-2.677-7.42 1.145 1.145 0 00-1.265-1.012c-.63.07-1.084.635-1.014 1.262 1.08 9.735 9.309 17.076 19.142 17.076 10.62 0 19.26-8.617 19.26-19.21 0-10.592-8.64-19.21-19.26-19.21-4.61 0-9.07 1.65-12.56 4.646a19.205 19.205 0 00-6.46 11.518 1.146 1.146 0 002.266.36 16.915 16.915 0 015.69-10.144A16.988 16.988 0 0129 12.095c9.355 0 16.967 7.591 16.967 16.922 0 3.43-1.03 6.624-2.795 9.293L37.9 33.894a13.828 13.828 0 00-7.842-3.197v-3.174h2.267c3.686 0 6.685-2.99 6.685-6.668v-1.821a2.168 2.168 0 00-2.168-2.163h-2.457a6.693 6.693 0 00-5.937 3.61 4.325 4.325 0 00-2.793-1.019h-1.654a2.09 2.09 0 00-2.09 2.084v1.65a4.338 4.338 0 004.338 4.327h1.515v3.188a13.831 13.831 0 00-7.665 3.184zm21.682 6.238A16.95 16.95 0 0129 45.94c-5.08 0-9.674-2.225-12.797-5.794l5.372-4.5a11.551 11.551 0 0114.85 0l5.357 4.487zM29.994 23.54a4.39 4.39 0 014.391-4.38h2.331v1.697a4.39 4.39 0 01-4.392 4.38h-2.33V23.54zm-5.79-.343V21.75h1.451c1.127 0 2.045.915 2.045 2.04v1.446h-1.45a2.044 2.044 0 01-2.045-2.04z"/></g><defs><clipPath id="ata"><path d="M0 0h58v58H0z"/></clipPath></defs></symbol><symbol viewBox="0 0 53 53" id="duty-6" xmlns="http://www.w3.org/2000/svg"><g clip-path="url(#aua)"><path d="M52.784 22.604l-8.87-11.524a1.04 1.04 0 00-1.382-.242l-5.727 3.642h-7.47a.997.997 0 00-.286.048l-5.791 1.667-6.01-1.644-5.84-3.713a1.039 1.039 0 00-1.366.224L.231 23.215a1.039 1.039 0 00.13 1.44l5.143 4.426 4.614 6.217a3.677 3.677 0 00.08 5.11 3.656 3.656 0 002.228 1.054 3.649 3.649 0 001.033 3.158 3.649 3.649 0 002.597 1.077l.04-.001-.002.075c0 .98.382 1.903 1.075 2.597a3.65 3.65 0 003.171 1.03c.08.817.432 1.612 1.056 2.236a3.66 3.66 0 002.597 1.074c.94 0 1.881-.357 2.597-1.073l.562-.562.236.19a3.66 3.66 0 002.554 1.031 3.66 3.66 0 002.596-1.074 3.662 3.662 0 001.074-2.654 3.665 3.665 0 003.728-3.726 3.65 3.65 0 002.654-1.076 3.662 3.662 0 001.074-2.654 3.663 3.663 0 002.654-1.074 3.679 3.679 0 00.483-4.597l3.369-7.055 5.065-4.359c.418-.36.482-.984.145-1.421zm-41.708-9.515l4.2 2.67L6.14 26.887l-3.66-3.15 8.595-10.648zm.593 23.594l1.267-1.267a1.59 1.59 0 01.986-.46l.027-.002a1.546 1.546 0 011.273.494c.587.62.556 1.635-.07 2.26l-1.23 1.23a1.596 1.596 0 01-2.253 0 1.596 1.596 0 010-2.255zm3.26 6.468a1.582 1.582 0 01-.467-1.127c0-.426.166-.826.467-1.127l2.457-2.457a1.61 1.61 0 011.813-.313c.62.295.969.968.878 1.646a1.682 1.682 0 01-.475.96l-2.418 2.418a1.584 1.584 0 01-1.128.467c-.426 0-.826-.166-1.127-.467zm3.71 3.746a1.582 1.582 0 01-.467-1.127c0-.425.166-.826.467-1.127l2.457-2.457a1.612 1.612 0 011.927-.253c.563.328.858.97.761 1.611-.053.352-.22.683-.472.935l-2.418 2.418a1.583 1.583 0 01-1.127.467c-.426 0-.826-.165-1.128-.467zm4.227 3.268a1.596 1.596 0 010-2.255l1.267-1.267a1.69 1.69 0 01.12-.108l.003-.003a1.59 1.59 0 01.706-.328l.018-.002c.045-.009.09-.015.136-.02.018 0 .036 0 .055-.002.037-.002.073-.004.111-.004a1.584 1.584 0 011.24.62c.478.625.414 1.553-.18 2.147l-1.222 1.222a1.596 1.596 0 01-2.254 0zm19.387-11.599a1.595 1.595 0 01-2.255 0 .979.979 0 00-.07-.063l-6.683-6.753a1.04 1.04 0 00-1.477 1.462l6.754 6.825.003.003a1.596 1.596 0 01-1.127 2.722c-.427 0-.827-.166-1.128-.467l-4.519-4.566a1.04 1.04 0 10-1.477 1.462l4.45 4.496a.979.979 0 00.073.081 1.596 1.596 0 010 2.255 1.597 1.597 0 01-2.255 0l-2.467-2.493a1.04 1.04 0 10-1.477 1.462l2.397 2.422a.937.937 0 00.073.082 1.596 1.596 0 010 2.255 1.595 1.595 0 01-2.254 0c-.071-.072-.155-.127-.236-.188-.067-.052-.085-.088-.051-.17.034-.084.085-.16.12-.244a3.58 3.58 0 00.099-.288 3.742 3.742 0 00.134-1.598 3.657 3.657 0 00-1.552-2.53 3.65 3.65 0 00-1.546-.599c.268-1.18-.054-2.46-.89-3.344a3.646 3.646 0 00-2.727-1.15 3.669 3.669 0 00-.983-2.597 3.647 3.647 0 00-2.618-1.149 3.74 3.74 0 00-.887.095 3.645 3.645 0 00-1.214-2.228 3.643 3.643 0 00-2.35-.89 3.682 3.682 0 00-2.508.943l-4.018-5.413 9.611-11.709 3.063.838-4 7.059a3.648 3.648 0 00-.344 2.79 3.648 3.648 0 002.344 2.493 3.64 3.64 0 002.175.067 3.65 3.65 0 002.216-1.729l2.6-4.587 4.641.33 12.36 12.359a1.597 1.597 0 010 2.254zm.43-4.763L31.088 22.208a1.04 1.04 0 00-.661-.302l-5.683-.403a1.056 1.056 0 00-.978.525l-2.922 5.158c-.21.37-.552.637-.963.75-.41.114-.84.06-1.21-.15a1.584 1.584 0 01-.751-.961c-.114-.41-.06-.841.15-1.211l3.901-6.886 1.581-.455.031-.01 5.901-1.705h7.13l8.9 11.315-2.83 5.93zm4.193-7.561l-8.231-10.47 4.2-2.67 7.692 9.99-3.66 3.15z"/><path d="M32.108 12.528c.267 0 .533-.1.736-.304l7.099-7.099a1.04 1.04 0 10-1.47-1.47l-7.1 7.1a1.04 1.04 0 00.735 1.773zm-11.952-.304a1.036 1.036 0 001.47 0 1.04 1.04 0 000-1.47l-7.099-7.099a1.04 1.04 0 10-1.47 1.47l7.1 7.1zm6.344.305a1.04 1.04 0 001.04-1.04V5.616a1.04 1.04 0 00-2.08 0v5.875a1.04 1.04 0 001.04 1.039zm-.96-10.681c.166.4.577.662 1.01.64a1.05 1.05 0 00.939-.72 1.047 1.047 0 00-.357-1.142 1.05 1.05 0 00-1.209-.04c-.41.271-.569.81-.382 1.262z"/></g><defs><clipPath id="aua"><path d="M0 0h53v53H0z"/></clipPath></defs></symbol><symbol viewBox="0 0 23 19" id="email" xmlns="http://www.w3.org/2000/svg"><path d="M11.502 9.5L.011 3.092V1.583c0-.445.143-.82.427-1.125C.723.153 1.059 0 1.449 0h20.105c.39 0 .726.153 1.01.458.284.305.426.68.426 1.125v1.51L11.502 9.5zm-.719 1.583h1.437l10.77-6.16v12.494c0 .428-.142.8-.426 1.113-.284.313-.62.47-1.01.47H1.45c-.39 0-.726-.157-1.01-.47a1.602 1.602 0 01-.426-1.113V4.923l10.77 6.16z"/></symbol><symbol viewBox="0 0 24 24" id="eye" xmlns="http://www.w3.org/2000/svg"><path d="M1 12s4-8 11-8 11 8 11 8-4 8-11 8-11-8-11-8z"/><path d="M12 15a3 3 0 100-6 3 3 0 000 6z"/></symbol><symbol viewBox="0 0 18 13" id="eye-2" xmlns="http://www.w3.org/2000/svg"><path d="M6.605 6.5c0 .592.244 1.16.678 1.58a2.354 2.354 0 001.634.653c.614 0 1.202-.235 1.635-.654.434-.419.678-.987.678-1.579s-.244-1.16-.678-1.58a2.354 2.354 0 00-1.635-.653c-.613 0-1.2.235-1.634.654A2.195 2.195 0 006.605 6.5zm11.276-.514C15.924 2.004 12.966 0 9 0 5.032 0 2.076 2.004.12 5.988a1.168 1.168 0 000 1.026C2.075 10.996 5.033 13 9 13c3.968 0 6.924-2.004 8.88-5.988a1.166 1.166 0 000-1.026zm-8.964 4.023c-2.006 0-3.633-1.571-3.633-3.509s1.627-3.51 3.633-3.51c2.007 0 3.634 1.572 3.634 3.51 0 1.938-1.627 3.51-3.634 3.51z"/></symbol><symbol viewBox="0 0 24 24" id="facebook" xmlns="http://www.w3.org/2000/svg"><path d="M24 12.073C24 5.405 18.628 0 12.002 0 5.372.001 0 5.405 0 12.075 0 18.1 4.388 23.095 10.124 24v-8.436H7.079v-3.489h3.048V9.413c0-3.025 1.792-4.696 4.532-4.696 1.314 0 2.686.235 2.686.235v2.97h-1.513c-1.49 0-1.954.931-1.954 1.887v2.264h3.326l-.53 3.49h-2.798v8.435C19.612 23.093 24 18.099 24 12.073z"/></symbol><symbol viewBox="0 0 20 20" id="fb" xmlns="http://www.w3.org/2000/svg"><path d="M20 10.062C20 4.503 15.52 0 10 0 4.476 0 0 4.503 0 10.062c0 5.02 3.656 9.184 8.438 9.938v-7.029h-2.54v-2.908h2.54V7.845c0-2.522 1.49-3.914 3.775-3.914 1.095 0 2.24.196 2.24.196v2.476H13.19c-1.24 0-1.627.777-1.627 1.572v1.887h2.773l-.446 2.909h-2.328v7.028C16.341 19.245 20 15.082 20 10.061z"/></symbol><symbol viewBox="0 0 16 16" id="filter-icon" xmlns="http://www.w3.org/2000/svg"><g clip-path="url(#baa)"><path d="M4.249 3.5h7.5L7.99 8.225 4.25 3.5zm-2.063-.292C3.701 5.15 6.5 8.75 6.5 8.75v4.5c0 .412.337.75.75.75h1.5c.412 0 .75-.338.75-.75v-4.5s2.79-3.6 4.305-5.543A.748.748 0 0013.21 2H2.78a.748.748 0 00-.593 1.208z"/></g><defs><clipPath id="baa"><path d="M0 0h16v16H0z"/></clipPath></defs></symbol><symbol viewBox="0 0 23 19" id="horizontal" xmlns="http://www.w3.org/2000/svg"><path d="M6.765 0v5.429H23V0H6.765zm0 19H23v-5.429H6.765V19zm0-6.786H23V6.786H6.765v5.428zM0 5.43h5.412V0H0v5.429zM0 19h5.412v-5.429H0V19zm0-6.786h5.412V6.786H0v5.428z"/></symbol><symbol viewBox="0 0 28 27" id="instagram" xmlns="http://www.w3.org/2000/svg"><path d="M13.897 8.998A4.511 4.511 0 009.395 13.5a4.511 4.511 0 004.502 4.502 4.511 4.511 0 004.502-4.502 4.511 4.511 0 00-4.502-4.502zM27.399 13.5c0-1.864.017-3.712-.088-5.573-.105-2.161-.598-4.08-2.178-5.66C23.549.683 21.634.194 19.473.09 17.608-.016 15.76 0 13.9 0c-1.864 0-3.711-.017-5.572.088-2.162.105-4.08.598-5.66 2.178C1.084 3.851.594 5.766.489 7.927.385 9.792.401 11.64.401 13.5c0 1.86-.016 3.712.088 5.573.105 2.161.598 4.08 2.179 5.66 1.583 1.584 3.498 2.073 5.66 2.178 1.864.105 3.711.088 5.572.088 1.864 0 3.712.017 5.572-.088 2.162-.105 4.08-.598 5.66-2.178 1.585-1.584 2.074-3.499 2.18-5.66.107-1.861.087-3.709.087-5.573zm-13.502 6.927A6.917 6.917 0 016.97 13.5a6.917 6.917 0 016.927-6.927 6.917 6.917 0 016.926 6.927 6.917 6.917 0 01-6.926 6.927zm7.21-12.52A1.616 1.616 0 0119.49 6.29c0-.895.723-1.618 1.618-1.618a1.616 1.616 0 011.495 2.237 1.615 1.615 0 01-1.495.998z"/></symbol><symbol viewBox="0 0 24 24" id="instagram2" xmlns="http://www.w3.org/2000/svg"><path d="M23.923 7.084a8.675 8.675 0 00-.559-2.949A6.133 6.133 0 0019.855.632a8.817 8.817 0 00-2.913-.559C15.66.016 15.253 0 11.999 0 8.744 0 8.327 0 7.054.073c-.995.02-1.98.21-2.912.559A6.14 6.14 0 00.633 4.135c-.35.93-.54 1.914-.558 2.907C.017 8.324 0 8.73 0 11.98c0 3.249 0 3.664.075 4.936.02.995.208 1.977.558 2.91a6.132 6.132 0 003.51 3.502c.93.363 1.915.566 2.913.598C8.339 23.983 8.746 24 12 24c3.255 0 3.672 0 4.945-.075a8.796 8.796 0 002.913-.557 6.153 6.153 0 003.509-3.503c.35-.932.538-1.914.558-2.91.058-1.28.075-1.686.075-4.936-.003-3.25-.003-3.662-.077-4.935zM11.99 18.124a6.155 6.155 0 01-6.162-6.152 6.155 6.155 0 016.162-6.151c1.634 0 3.2.648 4.356 1.802a6.146 6.146 0 010 8.698 6.166 6.166 0 01-4.356 1.802zm6.406-11.096a1.437 1.437 0 01-1.436-1.434 1.43 1.43 0 01.886-1.325 1.439 1.439 0 011.876.776 1.434 1.434 0 01-1.326 1.983z"/></symbol><symbol viewBox="0 0 12 14" id="mark" xmlns="http://www.w3.org/2000/svg"><path d="M5.381 12.898l1.236.001c2.933-2.488 4.433-4.775 4.433-6.885 0-2.756-2.261-4.989-5.05-4.989-2.789 0-5.05 2.233-5.05 4.989 0 2.063 1.434 4.295 4.237 6.718l.194.166zm.67-.651a.079.079 0 01-.102 0l-.191-.164C3.11 9.795 1.819 7.764 1.819 6.013c0-1.094.44-2.144 1.225-2.918A4.226 4.226 0 017.6 2.2c.506.207.967.511 1.355.895a4.084 4.084 0 011.224 2.92c0 1.79-1.353 3.877-4.129 6.232zm1.344-7.612A1.985 1.985 0 006 4.065c-.523 0-1.025.205-1.395.57-.37.366-.578.862-.578 1.379s.208 1.013.578 1.379c.37.365.872.57 1.395.57s1.025-.205 1.395-.57a1.938 1.938 0 000-2.757zm-2.176.609a1.111 1.111 0 011.562 0 1.083 1.083 0 010 1.54 1.111 1.111 0 01-1.562 0 1.083 1.083 0 010-1.54z"/></symbol><symbol viewBox="0 0 12 10" id="pay" xmlns="http://www.w3.org/2000/svg"><path d="M0 1.575a1.5 1.5 0 011.5-1.5h9a1.5 1.5 0 011.5 1.5v6a1.5 1.5 0 01-1.5 1.5h-9a1.5 1.5 0 01-1.5-1.5v-6zm1.5-.75a.75.75 0 00-.75.75v.75h10.5v-.75a.75.75 0 00-.75-.75h-9zm9.75 3H.75v3.75a.75.75 0 00.75.75h9a.75.75 0 00.75-.75v-3.75z"/></symbol><symbol viewBox="0 0 26 20" id="phone" xmlns="http://www.w3.org/2000/svg"><path d="M22.477 12.816c-.125-.834-.798-1.484-1.664-1.677-3.366-.755-4.21-2.61-4.352-4.668-.597-.106-1.658-.221-3.461-.221s-2.864.115-3.461.221c-.143 2.058-.986 3.913-4.352 4.668-.866.195-1.539.844-1.664 1.677l-.65 4.303C2.646 18.634 3.808 20 5.425 20h15.152c1.615 0 2.78-1.366 2.55-2.881l-.649-4.303zM13 16.865c-1.822 0-3.3-1.4-3.3-3.125s1.478-3.125 3.3-3.125c1.822 0 3.3 1.4 3.3 3.125s-1.48 3.125-3.3 3.125zM25.996 5C25.965 3.125 20.978.001 13 0 5.02.001.034 3.125.004 5c-.03 1.875.027 4.315 3.311 3.909 3.841-.477 3.605-1.76 3.605-3.595 0-1.28 3.124-1.589 6.08-1.589s6.079.309 6.08 1.589c0 1.835-.236 3.118 3.605 3.595 3.282.406 3.341-2.034 3.311-3.909z"/></symbol><symbol class="bhbi bhbi-plus-circle" viewBox="0 0 16 16" id="plus-circle" xmlns="http://www.w3.org/2000/svg"><path d="M8 15A7 7 0 118 1a7 7 0 010 14zm0 1A8 8 0 108 0a8 8 0 000 16z"/><path d="M8 4a.5.5 0 01.5.5v3h3a.5.5 0 010 1h-3v3a.5.5 0 01-1 0v-3h-3a.5.5 0 010-1h3v-3A.5.5 0 018 4z"/></symbol><symbol viewBox="0 0 18 18" id="search" xmlns="http://www.w3.org/2000/svg"><path d="M7.698 15.395a7.652 7.652 0 004.712-1.625L16.64 18 18 16.64l-4.23-4.23a7.65 7.65 0 001.625-4.713C15.395 3.453 11.942 0 7.698 0 3.453 0 0 3.453 0 7.697s3.453 7.698 7.698 7.698zm0-13.47a5.779 5.779 0 015.773 5.772 5.779 5.779 0 01-5.773 5.773 5.779 5.779 0 01-5.774-5.773 5.779 5.779 0 015.774-5.773z"/></symbol><symbol viewBox="0 0 26 26" id="share" xmlns="http://www.w3.org/2000/svg"><path d="M17.875 4.063a4.063 4.063 0 11.98 2.645L7.94 11.778a4.061 4.061 0 010 2.444l10.916 5.07a4.063 4.063 0 11-.793 1.424l-10.916-5.07a4.062 4.062 0 110-5.291l10.916-5.07a4.062 4.062 0 01-.187-1.222z"/></symbol><symbol viewBox="0 0 4 8" id="shevron-right-sm" xmlns="http://www.w3.org/2000/svg"><path d="M.625 7.613a.472.472 0 01-.473-.433.48.48 0 01.108-.349l2.124-2.557L.336 1.713a.478.478 0 01.071-.673.473.473 0 01.692.072l2.29 2.862a.479.479 0 010 .606l-2.37 2.862a.474.474 0 01-.394.171z"/></symbol><symbol viewBox="0 0 15 15" id="shipping" xmlns="http://www.w3.org/2000/svg"><path d="M1.875 7.075H7.5v.875H1.875v-.875zM.937 4.888h4.688v.875H.937v-.875z"/><path d="M14.024 7.34l-1.406-3.062a.446.446 0 00-.173-.193.493.493 0 00-.258-.072h-1.406v-.875a.423.423 0 00-.137-.31.486.486 0 00-.332-.128h-7.5v.875h7.032v5.493c-.214.116-.4.27-.55.454-.15.183-.259.393-.321.616H6.027a1.757 1.757 0 00-.763-1.011 1.98 1.98 0 00-1.289-.288 1.92 1.92 0 00-1.17.58 1.68 1.68 0 00-.468 1.156c0 .426.166.838.468 1.157.301.32.718.526 1.17.58a1.98 1.98 0 001.289-.288 1.76 1.76 0 00.763-1.011h2.946c.102.375.335.708.662.946.328.238.731.367 1.146.367.415 0 .818-.129 1.146-.367.327-.238.56-.57.663-.946h1.004a.486.486 0 00.331-.128.424.424 0 00.137-.31V7.513a.411.411 0 00-.038-.173zM4.22 11.45a.985.985 0 01-.521-.147.89.89 0 01-.345-.393.82.82 0 01-.054-.505.859.859 0 01.257-.449.96.96 0 01.48-.239 1 1 0 01.541.05.927.927 0 01.421.322.834.834 0 01.158.486.847.847 0 01-.275.619.973.973 0 01-.662.256zm6.562-6.562h1.097l1.005 2.187h-2.102V4.888zm0 6.562a.985.985 0 01-.52-.147.89.89 0 01-.346-.393.82.82 0 01-.053-.505.858.858 0 01.256-.449.96.96 0 01.48-.239 1 1 0 01.542.05.927.927 0 01.42.322.834.834 0 01.159.486.85.85 0 01-.275.619.974.974 0 01-.663.256zm2.344-1.312h-.535a1.744 1.744 0 00-.665-.945 1.96 1.96 0 00-1.144-.368V7.95h2.344v2.188z"/></symbol><symbol viewBox="0 0 15 15" id="star" xmlns="http://www.w3.org/2000/svg"><path d="M9.02 4.568l.122.269.295.023 4.037.321c.041.004.08.019.112.044l.307-.395-.307.395a.212.212 0 01.07.097l.473-.16-.474.16a.21.21 0 01-.058.223l-3.212 2.89-.232.21.085.3 1.296 4.532a.208.208 0 01-.197.265.209.209 0 01-.12-.034L7.36 11.137l-.278-.185-.277.185-3.857 2.571a.208.208 0 01-.32-.22l1.056-4.57.064-.274-.202-.197L.563 5.538a.208.208 0 01.129-.357l4.038-.32.295-.024.121-.27L6.894.7V.698a.207.207 0 01.378 0L7.273.7 9.02 4.568z"/></symbol><symbol viewBox="0 0 28 27" id="telegram" xmlns="http://www.w3.org/2000/svg"><g clip-path="url(#bna)"><path d="M14.3.422C6.844.422.8 6.275.8 13.5s6.043 13.078 13.5 13.078c7.458 0 13.5-5.853 13.5-13.078S21.759.422 14.3.422zm6.631 8.96l-2.216 10.114c-.163.717-.604.891-1.219.554l-3.375-2.41-1.628 1.518c-.18.174-.332.322-.68.322l.24-3.328 6.254-5.473c.272-.232-.06-.364-.419-.132l-7.73 4.714-3.331-1.007c-.724-.221-.74-.701.152-1.039l13.016-4.862c.604-.21 1.132.143.936 1.028z"/></g><defs><clipPath id="bna"><path transform="translate(.8)" d="M0 0h27v27H0z"/></clipPath></defs></symbol><symbol viewBox="0 0 26 21" id="telegram2" xmlns="http://www.w3.org/2000/svg"><path d="M24.245.138L1.214 8.691c-1.572.608-1.563 1.453-.288 1.83l5.913 1.776 13.68-8.313c.647-.38 1.239-.175.753.24l-11.085 9.634h-.002l.002.001-.407 5.87c.597 0 .86-.264 1.196-.576l2.872-2.69 5.974 4.25c1.102.585 1.893.284 2.167-.982L25.91 1.932c.402-1.55-.614-2.252-1.665-1.794z"/></symbol><symbol viewBox="0 0 24 24" id="telegram3" xmlns="http://www.w3.org/2000/svg"><path d="M24 12a12 12 0 11-24 0 12 12 0 0124 0zM12.43 8.859a583.248 583.248 0 00-6.998 3.015c-.568.225-.866.447-.893.663-.045.364.413.508 1.035.705l.263.082c.612.2 1.437.433 1.864.441.39.01.824-.15 1.302-.48 3.268-2.206 4.956-3.32 5.061-3.345.075-.018.18-.038.249.024.07.062.063.18.055.212-.045.194-1.84 1.861-2.768 2.726-.29.27-.495.46-.537.504-.093.094-.187.187-.283.278-.57.55-.995.96.023 1.633.49.323.883.589 1.275.856.426.291.852.58 1.404.944.14.09.275.187.405.28.496.354.945.672 1.495.621.322-.03.653-.33.821-1.23.398-2.126 1.179-6.729 1.359-8.627a2.14 2.14 0 00-.02-.472.506.506 0 00-.17-.325.789.789 0 00-.465-.14c-.45.007-1.145.249-4.476 1.635z"/></symbol><symbol viewBox="0 0 18 18" id="user" xmlns="http://www.w3.org/2000/svg"><path d="M9 3.857a3.214 3.214 0 100 6.429 3.214 3.214 0 000-6.429zM9 9a1.929 1.929 0 110-3.857A1.929 1.929 0 019 9z"/><path d="M9 0a9 9 0 109 9 9.01 9.01 0 00-9-9zM5.143 15.67v-.884a1.93 1.93 0 011.928-1.929h3.858a1.93 1.93 0 011.928 1.929v.885a7.649 7.649 0 01-7.714 0zm8.995-.932a3.215 3.215 0 00-3.21-3.167H7.072a3.215 3.215 0 00-3.209 3.167 7.714 7.714 0 1110.276 0z"/></symbol><symbol viewBox="0 0 18 18" id="vertical" xmlns="http://www.w3.org/2000/svg"><path d="M0 0h8v8H0zm0 10h8v8H0zm10 0h8v8h-8zm0-10h8v8h-8z"/></symbol><symbol viewBox="0 0 16 16" id="viber" xmlns="http://www.w3.org/2000/svg"><path d="M8 1.335c-1.071.013-3.374.19-4.662 1.37-.958.948-1.292 2.35-1.331 4.084-.033 1.728-.072 4.973 3.058 5.856v1.346s-.02.538.337.648c.438.14.688-.275 1.105-.72l.778-.879c2.142.178 3.782-.232 3.97-.293.435-.139 2.883-.451 3.283-3.696.41-3.351-.2-5.463-1.301-6.418h-.007c-.332-.306-1.668-1.279-4.652-1.29 0 0-.222-.014-.578-.008zm.037.942a7.02 7.02 0 01.488.011c2.527.007 3.732.767 4.017 1.023.927.794 1.405 2.697 1.055 5.495-.332 2.713-2.317 2.885-2.685 3.002-.156.05-1.6.406-3.42.289 0 0-1.356 1.634-1.78 2.055-.067.074-.146.095-.196.085-.071-.018-.093-.107-.089-.229l.013-2.233c-2.655-.733-2.498-3.5-2.47-4.946.033-1.446.304-2.628 1.113-3.43 1.088-.982 3.043-1.115 3.953-1.122zm.2 1.446a.166.166 0 100 .332 3.136 3.136 0 012.242.883c.606.588.9 1.378.912 2.411 0 .092.074.167.167.167V7.51a.167.167 0 00.168-.165 3.588 3.588 0 00-1.009-2.646c-.66-.645-1.496-.977-2.48-.977zm-2.198.382a.523.523 0 00-.342.067H5.69a2.61 2.61 0 00-.637.523 1.003 1.003 0 00-.256.525.71.71 0 00.026.302l.01.006c.172.504.396.988.67 1.444a8.48 8.48 0 001.29 1.762l.015.022.024.017.015.018.017.015c.532.505 1.127.94 1.769 1.295.734.4 1.18.588 1.447.667v.004c.078.024.15.034.221.034.228-.016.444-.109.613-.262a2.53 2.53 0 00.517-.638v-.004c.128-.241.085-.469-.1-.623-.37-.323-.77-.61-1.195-.857-.285-.155-.574-.061-.69.095l-.25.315c-.129.156-.361.134-.361.134l-.007.004C7.093 8.527 6.63 6.772 6.63 6.772s-.022-.239.139-.36l.312-.252c.15-.122.254-.41.094-.695a7.498 7.498 0 00-.856-1.194.475.475 0 00-.28-.167zm2.486.495c-.221 0-.221.334.003.334A2.098 2.098 0 0110 5.572 1.94 1.94 0 0110.5 7a.168.168 0 00.167.165l.007.009a.169.169 0 00.167-.167c.015-.662-.191-1.218-.595-1.663C9.84 4.9 9.273 4.65 8.549 4.6h-.024zm.274.898c-.228-.006-.236.335-.01.341.55.029.816.306.851.877a.166.166 0 00.165.163h.007a.168.168 0 00.16-.178c-.039-.744-.445-1.164-1.166-1.202H8.8z"/></symbol><symbol viewBox="0 0 24 24" id="vk" xmlns="http://www.w3.org/2000/svg"><path d="M21.579 6.855c.14-.465 0-.806-.662-.806h-2.193c-.558 0-.813.295-.953.619 0 0-1.115 2.719-2.695 4.482-.51.513-.743.675-1.021.675-.139 0-.341-.162-.341-.627V6.855c0-.558-.161-.806-.626-.806H9.642c-.348 0-.558.258-.558.504 0 .528.79.65.871 2.138v3.228c0 .707-.127.836-.407.836-.743 0-2.551-2.73-3.624-5.853-.209-.607-.42-.852-.98-.852H2.752c-.627 0-.752.295-.752.619 0 .582.743 3.462 3.461 7.27 1.812 2.602 4.363 4.012 6.687 4.012 1.393 0 1.565-.313 1.565-.853v-1.966c0-.626.133-.752.574-.752.324 0 .882.164 2.183 1.417 1.486 1.486 1.732 2.153 2.567 2.153h2.192c.626 0 .939-.313.759-.931-.197-.615-.907-1.51-1.849-2.57-.512-.603-1.277-1.253-1.51-1.578-.325-.42-.231-.604 0-.976.001 0 2.672-3.761 2.95-5.04z"/></symbol><symbol viewBox="0 0 16 16" id="whatsapp" xmlns="http://www.w3.org/2000/svg"><path fill-rule="evenodd" clip-rule="evenodd" d="M12.269 3.755A5.947 5.947 0 008.035 2 5.994 5.994 0 002.05 7.985a5.98 5.98 0 00.799 2.992L2 14.077l3.173-.832c.877.477 1.86.728 2.86.728h.002a5.993 5.993 0 005.533-8.276 5.953 5.953 0 00-1.3-1.942zm-4.234 9.208h-.002c-.89 0-1.765-.24-2.532-.694l-.181-.108-1.883.494.502-1.835-.118-.188a4.965 4.965 0 01-.76-2.647 4.982 4.982 0 016.88-4.597c.604.25 1.152.618 1.613 1.081a4.946 4.946 0 011.455 3.52 4.982 4.982 0 01-4.974 4.974zm2.729-3.726c-.15-.075-.885-.436-1.022-.486-.137-.05-.236-.075-.336.074-.1.15-.387.486-.474.586-.087.1-.175.112-.324.038-.15-.075-.631-.233-1.203-.742a4.505 4.505 0 01-.832-1.036c-.087-.15-.009-.231.066-.306.068-.066.15-.174.224-.262.075-.087.1-.149.15-.249.05-.1.025-.187-.013-.262-.037-.075-.337-.811-.461-1.11-.121-.29-.244-.252-.336-.256a6.418 6.418 0 00-.286-.005.55.55 0 00-.4.186c-.137.15-.523.512-.523 1.248s.536 1.447.61 1.547c.075.1 1.055 1.61 2.555 2.258.358.154.636.246.853.315.358.114.684.098.942.06.287-.043.885-.362 1.01-.711.124-.35.124-.649.087-.711-.038-.063-.138-.101-.287-.176z"/></symbol></svg>