<svg width="50" height="49" viewBox="0 0 50 49" fill="none" xmlns="http://www.w3.org/2000/svg">
<path d="M28.3624 18.8404C28.587 18.6095 28.894 18.4773 29.216 18.4728C29.538 18.4683 29.8487 18.592 30.0795 18.8165C30.3104 19.0411 30.4426 19.3481 30.4471 19.6701C30.4515 19.9921 30.3279 20.3028 30.1034 20.5336L26.7168 24.0155L30.1987 27.402C30.4296 27.6265 30.5618 27.9336 30.5662 28.2556C30.5707 28.5776 30.4471 28.8882 30.2225 29.1191C29.998 29.3499 29.691 29.4822 29.3689 29.4866C29.0469 29.4911 28.7363 29.3675 28.5054 29.1429L25.0236 25.7564L21.6371 29.2383C21.4125 29.4691 21.1055 29.6013 20.7835 29.6058C20.4614 29.6103 20.1508 29.4867 19.92 29.2621C19.6891 29.0376 19.5569 28.7305 19.5524 28.4085C19.548 28.0865 19.6716 27.7759 19.8961 27.545L23.2827 24.0632L19.8008 20.6766C19.5699 20.4521 19.4377 20.145 19.4332 19.823C19.4288 19.501 19.5524 19.1904 19.777 18.9595C20.0015 18.7287 20.3085 18.5965 20.6306 18.592C20.9526 18.5875 21.2632 18.7112 21.494 18.9357L24.9759 22.3222L28.3624 18.8404ZM37.1863 35.8921C30.6401 42.6225 19.8774 42.772 13.147 36.2258C6.41651 29.6797 6.2671 18.917 12.8132 12.1865C19.3594 5.45608 30.1221 5.30666 36.8525 11.8528C43.583 18.3989 43.7324 29.1617 37.1863 35.8921ZM35.4453 34.1988C41.0559 28.4303 40.9279 19.2043 35.1593 13.5937C29.3907 7.98312 20.1648 8.1112 14.5542 13.8798C8.94355 19.6484 9.07164 28.8743 14.8402 34.4849C20.6088 40.0955 29.8347 39.9674 35.4453 34.1988Z" fill="#00CD69"/>
</svg>
