<svg width="25" height="22" viewBox="0 0 25 22" fill="none" xmlns="http://www.w3.org/2000/svg">
<path d="M22.8091 9.93667C22.629 9.94889 22.461 10.01 22.3409 10.1444L21.1405 11.3667L23.6014 13.8111L24.8019 12.5889C25.066 12.3322 25.066 11.9044 24.8019 11.6478L23.3133 10.1444C23.1934 10.0178 23.0299 9.9433 22.8571 9.93667H22.8091ZM20.4562 12.0756L13.2053 19.4822V22H15.6783L22.9532 14.5811L20.4562 12.0756ZM21.6086 0H2.40096C1.76419 0 1.15349 0.257539 0.703225 0.715961C0.252957 1.17438 0 1.79614 0 2.44444V17.1111C0 17.7594 0.252957 18.3812 0.703225 18.8396C1.15349 19.298 1.76419 19.5556 2.40096 19.5556H10.8043V18.4678L20.6963 8.42111C21.2605 7.82222 22.0408 7.49222 22.8571 7.49222C23.2653 7.49222 23.6735 7.56556 24.0576 7.72444V2.44444C24.0576 1.07556 22.9532 0 21.6086 0ZM21.6086 4.88889L12.0048 11L2.40096 4.88889V2.44444L12.0048 8.55556L21.6086 2.44444" fill="#00CD69"/>
</svg>
