<svg width="27" height="61" viewBox="0 0 27 61" fill="none" xmlns="http://www.w3.org/2000/svg">
<path d="M24.513 10.51L18.136 6.03703V2.74855C18.136 1.23302 16.9432 0 15.477 0H10.6658C9.19966 0 8.00681 1.23302 8.00681 2.74855V6.03716L1.62985 10.51C0.609332 11.2258 0 12.4144 0 13.6892V57.1579C0 59.2764 1.66737 61 3.71692 61H22.4259C24.4754 61 26.1429 59.2765 26.1429 57.1579V13.6892C26.1429 12.4144 25.5336 11.2258 24.513 10.51ZM10.5506 2.74855C10.5506 2.68282 10.6024 2.62931 10.6659 2.62931H15.4772C15.5407 2.62931 15.5925 2.68282 15.5925 2.74855V5.51761H10.5507V2.74855H10.5506ZM3.05812 12.6858L9.52881 8.14705H16.6138L23.0845 12.6858C23.4066 12.9118 23.5989 13.2868 23.5989 13.6892V16.553H2.54366V13.6892C2.54366 13.2868 2.73596 12.9116 3.05812 12.6858ZM2.54366 27.8786V24.845H23.5991V27.8786H2.54366ZM23.5991 30.5079V51.1106H2.54366V30.5079H23.5991ZM2.54366 22.2157V19.1823H23.5991V22.2157H2.54366ZM22.4259 58.3707H3.7168C3.06994 58.3707 2.54353 57.8267 2.54353 57.1579V53.7398H23.5989V57.1579C23.5991 57.8267 23.0728 58.3707 22.4259 58.3707Z" fill="#00CD69"/>
<path d="M19.9092 40.6341C19.7443 40.4692 19.6035 40.2805 19.4906 40.073C19.166 39.4764 18.5428 39.1058 17.8642 39.1058H17.5409L17.7695 38.8771C18.2493 38.3974 18.4279 37.6946 18.2356 37.0431C18.1697 36.8198 18.1349 36.5803 18.1349 36.3504C18.1349 36.0982 17.9304 35.8937 17.6782 35.8937C17.445 35.8937 17.212 35.8598 16.9855 35.793C16.3625 35.609 15.6538 35.7567 15.1515 36.2591L14.9228 36.4877V36.1643C14.9228 35.4858 14.5522 34.8626 13.9556 34.538C13.7482 34.4251 13.5594 34.2842 13.3944 34.1193C13.2161 33.941 12.927 33.941 12.7487 34.1193C12.5861 34.2819 12.3921 34.4267 12.1875 34.5379C11.5909 34.8626 11.2203 35.4858 11.2203 36.1643V36.4877L10.9916 36.2591C10.4961 35.7635 9.79008 35.6062 9.15759 35.7929C8.93112 35.8598 8.69804 35.8937 8.46485 35.8937C8.21266 35.8937 8.0082 36.0982 8.0082 36.3504C8.0082 36.5803 7.97334 36.8198 7.90744 37.0431C7.71513 37.6945 7.89372 38.3973 8.37352 38.8771L8.60219 39.1058H8.27883C7.60032 39.1058 6.97714 39.4764 6.65242 40.073C6.53954 40.2804 6.39875 40.4692 6.23383 40.6341C6.14822 40.7198 6.1001 40.8359 6.1001 40.957C6.1001 41.0781 6.14822 41.1943 6.23386 41.2799C6.39644 41.4425 6.54118 41.6365 6.65245 41.841C6.97711 42.4377 7.60032 42.8083 8.27883 42.8083H8.60221L8.37355 43.037C7.89374 43.5167 7.71515 44.2195 7.90747 44.871C7.97432 45.0974 8.00823 45.3305 8.00823 45.5637C8.00823 45.8159 8.21269 46.0204 8.46488 46.0204C8.69478 46.0204 8.93431 46.0552 9.15764 46.1211C9.7806 46.305 10.4893 46.1574 10.9916 45.655L11.2203 45.4263V45.7497C11.2203 46.4282 11.5909 47.0514 12.1875 47.3761C12.392 47.4874 12.586 47.6322 12.7486 47.7947C12.8343 47.8804 12.9504 47.9285 13.0715 47.9285C13.1926 47.9285 13.3088 47.8803 13.3944 47.7947C13.5593 47.6298 13.7481 47.489 13.9555 47.3761C14.5522 47.0514 14.9228 46.4282 14.9228 45.7497V45.4263L15.1515 45.655C15.6468 46.1503 16.3527 46.3079 16.9854 46.1211C17.2087 46.0552 17.4483 46.0204 17.6782 46.0204C17.9304 46.0204 18.1349 45.8159 18.1349 45.5637C18.1349 45.3305 18.1688 45.0974 18.2356 44.8709C18.4279 44.2195 18.2493 43.5167 17.7695 43.0369L17.5409 42.8083H17.8642C18.5428 42.8083 19.1659 42.4377 19.4907 41.841C19.6019 41.6366 19.7467 41.4426 19.9092 41.2799C19.9949 41.1943 20.043 41.0781 20.043 40.957C20.043 40.8359 19.9948 40.7198 19.9092 40.6341ZM15.7972 36.9049C16.0513 36.6508 16.4103 36.5754 16.7269 36.6689C16.8986 36.7196 17.0732 36.7564 17.2493 36.7793C17.2721 36.9554 17.309 37.13 17.3597 37.3017C17.4572 37.632 17.3668 37.9883 17.1237 38.2313C16.0275 39.3275 16.0844 39.2618 16.0418 39.3366C15.7304 38.768 15.2606 38.2981 14.692 37.9867C14.7669 37.9441 14.7015 38.0007 15.7972 36.9049ZM12.1336 36.1643C12.1336 35.8206 12.3215 35.5048 12.624 35.3402C12.7813 35.2546 12.9309 35.1572 13.0715 35.0488C13.2122 35.1572 13.3617 35.2546 13.519 35.3402C13.8215 35.5048 14.0095 35.8206 14.0095 36.1644C14.0095 37.7108 14.0031 37.6267 14.0258 37.7101C13.4214 37.5321 12.7558 37.5221 12.1173 37.7101C12.1398 37.6273 12.1336 37.7136 12.1336 36.1643ZM8.78339 37.3017C8.83407 37.13 8.87094 36.9554 8.89379 36.7793C9.06987 36.7565 9.24451 36.7196 9.41618 36.6689C9.73145 36.5758 10.0908 36.6498 10.3458 36.9049C11.4415 38.0005 11.3762 37.9441 11.4511 37.9867C10.8825 38.2981 10.4126 38.768 10.1012 39.3366C10.0586 39.2617 10.1151 39.3271 9.01936 38.2313C8.77631 37.9883 8.6859 37.6321 8.78339 37.3017ZM8.27883 41.895C7.93511 41.895 7.6193 41.707 7.45465 41.4045C7.36909 41.2472 7.27165 41.0977 7.16332 40.957C7.27168 40.8164 7.36909 40.6668 7.45465 40.5096C7.61932 40.207 7.93514 40.0191 8.27886 40.0191C9.82532 40.0191 9.74123 40.0255 9.82456 40.0028C9.64662 40.6072 9.6366 41.2728 9.82456 41.9113C9.74182 41.8888 9.8281 41.895 8.27883 41.895ZM10.3458 45.0092C10.0917 45.2634 9.73267 45.3386 9.41621 45.2452C9.24448 45.1945 9.0699 45.1576 8.89382 45.1348C8.871 44.9587 8.83412 44.784 8.78344 44.6124C8.68593 44.282 8.77636 43.9258 9.01938 43.6827C10.1151 42.5871 10.0586 42.6524 10.1013 42.5775C10.4127 43.1461 10.8827 43.616 11.4513 43.9274C11.3756 43.9705 11.4418 43.9132 10.3458 45.0092ZM14.0095 45.7497C14.0095 46.0934 13.8215 46.4093 13.519 46.5739C13.3617 46.6595 13.2122 46.7569 13.0715 46.8652C12.9309 46.7569 12.7813 46.6595 12.6241 46.5739C12.3215 46.4092 12.1336 46.0934 12.1336 45.7497C12.1336 44.2032 12.14 44.2873 12.1173 44.204C12.7217 44.3819 13.3873 44.392 14.0258 44.204C14.0033 44.2867 14.0095 44.2005 14.0095 45.7497ZM13.0715 43.4279C11.7091 43.4279 10.6006 42.3195 10.6006 40.957C10.6006 39.5946 11.709 38.4861 13.0715 38.4861C14.434 38.4861 15.5424 39.5946 15.5424 40.957C15.5424 42.3195 14.434 43.4279 13.0715 43.4279ZM17.3597 44.6123C17.309 44.784 17.2721 44.9587 17.2493 45.1348C17.0732 45.1576 16.8986 45.1945 16.7269 45.2452C16.4116 45.3383 16.0522 45.2642 15.7972 45.0092C14.7016 43.9135 14.7669 43.97 14.692 43.9273C15.2605 43.6159 15.7304 43.146 16.0418 42.5775C16.0845 42.6524 16.0279 42.587 17.1237 43.6827C17.3667 43.9258 17.4572 44.282 17.3597 44.6123ZM18.6884 41.4045C18.5237 41.707 18.2079 41.895 17.8642 41.895C16.3177 41.895 16.4018 41.8886 16.3185 41.9113C16.4964 41.3069 16.5065 40.6413 16.3185 40.0028C16.4012 40.0253 16.3149 40.0191 17.8642 40.0191C18.2079 40.0191 18.5237 40.2071 18.6884 40.5096C18.7739 40.6668 18.8714 40.8164 18.9797 40.9571C18.8714 41.0977 18.774 41.2472 18.6884 41.4045Z" fill="#00CD69"/>
</svg>
