<svg width="15" height="18" viewBox="0 0 15 18" fill="none" xmlns="http://www.w3.org/2000/svg">
<path d="M10.6569 17.3077C10.6569 17.4913 10.5904 17.6674 10.4719 17.7972C10.3535 17.9271 10.1929 18 10.0254 18H4.973C4.8055 18 4.64486 17.9271 4.52643 17.7972C4.40799 17.6674 4.34145 17.4913 4.34145 17.3077C4.34145 17.1241 4.40799 16.948 4.52643 16.8182C4.64486 16.6883 4.8055 16.6154 4.973 16.6154H10.0254C10.1929 16.6154 10.3535 16.6883 10.4719 16.8182C10.5904 16.948 10.6569 17.1241 10.6569 17.3077ZM14.8294 14.5382C14.7199 14.7497 14.561 14.9253 14.369 15.0471C14.177 15.1688 13.9589 15.2322 13.7371 15.2308H1.26132C1.03925 15.2304 0.821184 15.1659 0.629111 15.0438C0.437038 14.9216 0.277747 14.746 0.167297 14.5349C0.0568483 14.3237 -0.000853689 14.0843 9.54521e-06 13.8409C0.00087278 13.5974 0.0602706 13.3585 0.172214 13.1483C0.640901 12.2643 1.19974 10.5868 1.19974 7.61539V6.92308C1.19762 5.08933 1.8601 3.32975 3.04144 2.03143C4.22278 0.733111 5.82622 0.00238543 7.49903 0L7.54718 0.000173147C10.9946 0.0282116 13.7993 3.16887 13.7993 7.00131V7.61539C13.7993 10.5869 14.3578 12.2646 14.8263 13.1487C14.9395 13.359 14.9995 13.5987 15 13.843C15.0005 14.0872 14.9416 14.3272 14.8294 14.5382ZM13.7371 13.8462C13.1876 12.8129 12.5362 10.8952 12.5362 7.61539V7.00131C12.5362 3.92677 10.2939 1.4072 7.53779 1.38479C7.52497 1.38469 7.51216 1.38463 7.49934 1.38462C6.16148 1.38693 4.87924 1.97175 3.93472 3.01041C2.99019 4.04907 2.46074 5.4565 2.46284 6.92308V7.61539C2.46284 10.8952 1.811 12.8129 1.26416 13.8442L13.7371 13.8462Z" fill="black"/>
</svg>
