<svg width="15" height="18" viewBox="0 0 15 18" fill="none" xmlns="http://www.w3.org/2000/svg">
<path d="M7.50034 0C5.63864 0 4.11051 1.56046 4.11051 3.46154V4.15385H0.762712L0.720678 4.80323L0.042712 17.2648L0 18H15L14.958 17.2641L14.28 4.80254L14.2373 4.15385H10.8902V3.46154C10.8902 1.56046 9.36203 0 7.50034 0ZM7.50034 1.38462C8.03976 1.38462 8.55709 1.60343 8.93852 1.99293C9.31995 2.38243 9.53424 2.9107 9.53424 3.46154V4.15385H5.46644V3.46154C5.46644 2.9107 5.68073 2.38243 6.06216 1.99293C6.44359 1.60343 6.96092 1.38462 7.50034 1.38462ZM2.0339 5.53846H4.11051V7.61539H5.46644V5.53846H9.53424V7.61539H10.8902V5.53846H12.9668L13.56 16.6154H1.44136L2.0339 5.53846Z" fill="black"/>
</svg>
