<svg width="20" height="22" viewBox="0 0 20 22" fill="none" xmlns="http://www.w3.org/2000/svg">
<path fill-rule="evenodd" clip-rule="evenodd" d="M14.664 21.1073C14.664 21.4453 14.5444 21.6837 14.2785 21.8657L14.0835 22H5.64172L5.4423 21.8657C4.81748 21.441 4.95042 20.4443 5.66387 20.2362C5.73478 20.2146 7.64471 20.2016 9.90915 20.2059L14.0259 20.2146L14.2475 20.3489C14.54 20.5223 14.664 20.7519 14.664 21.1073Z" fill="#999999"/>
<path fill-rule="evenodd" clip-rule="evenodd" d="M19.6982 17.198C19.6938 16.821 19.6761 16.7213 19.5254 16.327C19.4324 16.08 19.264 15.5773 19.1532 15.2089C18.617 13.4234 18.5106 12.4917 18.5904 10.4202C18.648 8.94245 18.6037 8.08439 18.4176 7.22633C17.6288 3.5514 14.775 0.734532 11.2254 0.110487C10.5518 -0.00652156 9.37309 -0.0368571 8.73497 0.0498158C7.79995 0.175492 7.03775 0.400841 6.17363 0.808204C3.99781 1.83528 2.39365 3.58174 1.54725 5.8439C1.00219 7.30867 0.798343 8.69544 0.900265 10.2252C0.971168 11.235 0.971168 11.2393 0.878108 12.3704C0.776186 13.6401 0.585636 14.6195 0.15136 16.171C0.0450061 16.5567 0.00512353 16.7864 0.000692132 17.0897C-0.00373926 17.4624 0.00955492 17.5187 0.146928 17.7918C0.306458 18.1081 0.585636 18.3855 0.909128 18.5588L1.09082 18.6542L9.77635 18.6672C19.4501 18.6802 18.7012 18.7018 19.1488 18.3725C19.295 18.2641 19.4279 18.1081 19.5343 17.9174C19.6982 17.6357 19.7027 17.6011 19.6982 17.198ZM17.6864 16.7994C17.6465 16.86 1.94164 16.847 1.94164 16.7864C1.94164 16.7603 2.02141 16.431 2.12333 16.0583C2.46455 14.7712 2.68169 13.5491 2.74373 12.5654C2.75702 12.3184 2.79247 11.937 2.81906 11.716C2.85451 11.4126 2.84565 11.0833 2.79247 10.3856C2.68612 8.99012 2.77475 8.11906 3.15585 6.88831C3.49706 5.79189 4.19279 4.63481 4.96829 3.87642C6.54143 2.33798 8.43807 1.6446 10.4809 1.85695C11.9211 2.00862 13.3126 2.65867 14.416 3.70308C15.6169 4.83849 16.3969 6.35527 16.6849 8.11906C16.7514 8.51776 16.7558 8.75177 16.7248 9.79185C16.6539 12.054 16.7026 12.9727 16.9774 14.2642C17.1059 14.8795 17.4515 16.0973 17.6243 16.535C17.6731 16.665 17.6997 16.782 17.6864 16.7994Z" fill="#999999"/>
</svg>
