<svg width="18" height="12" viewBox="0 0 18 12" fill="none" xmlns="http://www.w3.org/2000/svg">
<path d="M17.05 9.73104V9.731V2.269C17.0499 2.09399 17.0061 1.9218 16.9226 1.76805C16.839 1.6143 16.7183 1.48387 16.5716 1.38862C16.4248 1.29337 16.2565 1.23631 16.082 1.22264C15.9076 1.20897 15.7325 1.23911 15.5726 1.31033L12.5228 2.66561C12.4455 2.19832 12.2087 1.77141 11.8514 1.45833C11.4775 1.1306 10.9972 0.949942 10.5 0.95H3C2.45631 0.95 1.93488 1.16598 1.55043 1.55043C1.16598 1.93488 0.95 2.45631 0.95 3V9C0.95 9.54369 1.16598 10.0651 1.55043 10.4496C1.93488 10.834 2.45631 11.05 3 11.05H10.5C10.9972 11.0501 11.4775 10.8694 11.8514 10.5417C12.2087 10.2286 12.4455 9.80167 12.5228 9.33438L15.5737 10.6897C15.7335 10.7607 15.9085 10.7906 16.0828 10.7769C16.2571 10.7631 16.4252 10.706 16.5718 10.6108C16.7185 10.5155 16.839 10.3852 16.9225 10.2316C17.006 10.0779 17.0498 9.90589 17.05 9.73104ZM15.95 2.34595V9.65405L12.55 8.14251V3.85749L15.95 2.34595ZM2.32825 2.32825C2.50641 2.15009 2.74804 2.05 3 2.05H10.5C10.752 2.05 10.9936 2.15009 11.1718 2.32825C11.3499 2.50641 11.45 2.74804 11.45 3V9C11.45 9.25196 11.3499 9.49359 11.1718 9.67175C10.9936 9.84991 10.752 9.95 10.5 9.95H3C2.74804 9.95 2.50641 9.84991 2.32825 9.67175C2.15009 9.49359 2.05 9.25196 2.05 9V3C2.05 2.74804 2.15009 2.50641 2.32825 2.32825Z" fill="white" stroke="white" stroke-width="0.1"/>
</svg>
