<svg width="20" height="20" viewBox="0 0 20 20" fill="none" xmlns="http://www.w3.org/2000/svg">
<path d="M10.8373 10.202L3.11338 11.4898C3.02458 11.5046 2.94125 11.5425 2.87176 11.5998C2.80228 11.657 2.74909 11.7315 2.71755 11.8158L0.0543605 18.9492C-0.19996 19.6054 0.48609 20.2309 1.11574 19.9161L19.5745 10.688C19.7023 10.6241 19.8099 10.5259 19.885 10.4044C19.9602 10.2829 20 10.1428 20 9.99996C20 9.85707 19.9602 9.71702 19.885 9.59549C19.8099 9.47397 19.7023 9.37578 19.5745 9.31195L1.11574 0.0838418C0.48609 -0.230939 -0.19996 0.395547 0.0543605 1.05074L2.71857 8.18407C2.74997 8.26857 2.80309 8.34331 2.87259 8.40073C2.94208 8.45816 3.02549 8.49625 3.11441 8.51116L10.8384 9.79797C10.8859 9.80629 10.929 9.83111 10.96 9.86805C10.9911 9.905 11.0081 9.95171 11.0081 9.99996C11.0081 10.0482 10.9911 10.0949 10.96 10.1319C10.929 10.1688 10.8859 10.1936 10.8384 10.202H10.8373Z" fill="#3E3E3E"/>
</svg>
