<?xml version="1.0" encoding="utf-8"?>
<!-- Generator: Adobe Illustrator 25.0.0, SVG Export Plug-In . SVG Version: 6.00 Build 0)  -->
<svg version="1.1" id="Слой_1" xmlns="http://www.w3.org/2000/svg" xmlns:xlink="http://www.w3.org/1999/xlink" x="0px" y="0px"
	 viewBox="0 0 11 22" style="enable-background:new 0 0 11 22;" xml:space="preserve">
<style type="text/css">
	.st0{fill:#AFAFAF;}
</style>
<path class="st0" d="M1.8,0c0.2,0,0.5,0.1,0.7,0.2c0.2,0.1,0.4,0.2,0.5,0.4l7.6,9.4c0.2,0.3,0.4,0.6,0.4,1c0,0.4-0.1,0.7-0.4,1
	l-7.9,9.4C2.5,21.8,2.1,22,1.7,22c-0.4,0-0.8-0.1-1.2-0.4C0.2,21.4,0,21,0,20.6c0-0.4,0.1-0.8,0.4-1.2l7-8.4L0.6,2.6
	C0.4,2.3,0.3,2.1,0.2,1.8c0-0.3,0-0.6,0.1-0.9C0.5,0.6,0.7,0.4,1,0.2C1.2,0.1,1.5,0,1.8,0z"/>
</svg>
