<?xml version="1.0" encoding="utf-8"?>
<!-- Generator: Adobe Illustrator 25.0.0, SVG Export Plug-In . SVG Version: 6.00 Build 0)  -->
<svg version="1.1" id="Слой_1" xmlns="http://www.w3.org/2000/svg" xmlns:xlink="http://www.w3.org/1999/xlink" x="0px" y="0px"
	 viewBox="0 0 11 22" style="enable-background:new 0 0 11 22;" xml:space="preserve">
<style type="text/css">
	.st0{fill:#AFAFAF;}
</style>
<path class="st0" d="M9.2,22c-0.2,0-0.5-0.1-0.7-0.2c-0.2-0.1-0.4-0.2-0.5-0.4L0.4,12C0.1,11.7,0,11.4,0,11c0-0.4,0.1-0.7,0.4-1
	l7.9-9.4C8.5,0.2,8.9,0,9.3,0c0.4,0,0.8,0.1,1.2,0.4C10.8,0.6,11,1,11,1.4c0,0.4-0.1,0.8-0.4,1.2l-7,8.4l6.8,8.4
	c0.2,0.2,0.3,0.5,0.4,0.8c0,0.3,0,0.6-0.1,0.9c-0.1,0.3-0.3,0.5-0.6,0.7C9.8,21.9,9.5,22,9.2,22z"/>
</svg>
