<svg width="34" height="34" viewBox="0 0 34 34" fill="none" xmlns="http://www.w3.org/2000/svg">
<path fill-rule="evenodd" clip-rule="evenodd" d="M3.49113 6.68026L0.907311 4.09659C0.833016 4.02211 0.738278 3.97137 0.635108 3.95079C0.531938 3.93022 0.424981 3.94074 0.327798 3.98102C0.230614 4.02131 0.14758 4.08953 0.089223 4.17706C0.0308656 4.26459 -0.000187374 4.36747 8.50631e-07 4.47267V12.2194C8.50631e-07 12.5127 0.237984 12.7506 0.531213 12.7506H8.27841C8.38361 12.7508 8.4865 12.7198 8.57403 12.6614C8.66156 12.6031 8.7298 12.52 8.77008 12.4228C8.81037 12.3257 8.82089 12.2187 8.80031 12.1156C8.77974 12.0124 8.72899 11.9177 8.65451 11.8434L5.76896 8.95798C7.64995 6.33106 10.3924 4.44671 13.5193 3.63278C16.6461 2.81884 19.9593 3.12685 22.8825 4.50321C25.8057 5.87957 28.1538 8.23717 29.5182 11.1658C30.8827 14.0944 31.1772 17.4087 30.3504 20.532C29.5237 23.6553 27.628 26.3899 24.9933 28.26C22.3585 30.1301 19.1515 31.0174 15.9302 30.7675C12.7088 30.5175 9.67706 29.1461 7.36239 26.8919C5.04772 24.6378 3.59664 21.6435 3.26164 18.43C3.21825 18.0094 3.00952 17.6232 2.68136 17.3564C2.35321 17.0896 1.93252 16.9641 1.51183 17.0075C1.09114 17.0509 0.704926 17.2596 0.438139 17.5878C0.171353 17.9159 0.0458515 18.3366 0.0892444 18.7572C0.49804 22.6906 2.26541 26.3585 5.08711 29.1293C7.9088 31.9001 11.6083 33.6006 15.5486 33.938C19.489 34.2754 23.4237 33.2286 26.6754 30.9778C29.9271 28.7269 32.2924 25.413 33.364 21.6063C34.4356 17.7997 34.1465 13.7386 32.5464 10.1221C30.9464 6.50567 28.1356 3.56013 24.5978 1.7926C21.06 0.0250641 17.0167 -0.453871 13.1638 0.438241C9.311 1.33035 5.88973 3.53769 3.489 6.68026H3.49113ZM16.4676 8.50116C16.8902 8.50116 17.2956 8.66905 17.5944 8.9679C17.8933 9.26675 18.0612 9.67207 18.0612 10.0947V16.4519L22.3704 18.1772C22.7501 18.3427 23.0505 18.6496 23.2078 19.0328C23.3651 19.416 23.367 19.8454 23.2131 20.23C23.0592 20.6146 22.7616 20.9241 22.3834 21.093C22.0051 21.2619 21.576 21.2769 21.1869 21.1348L15.8747 19.0101C15.5793 18.8917 15.3261 18.6876 15.1477 18.424C14.9694 18.1604 14.874 17.8495 14.8739 17.5313V10.0947C14.8739 9.67207 15.0418 9.26675 15.3407 8.9679C15.6396 8.66905 16.0449 8.50116 16.4676 8.50116Z" fill="#00CD69"/>
</svg>
