<svg width="15" height="15" viewBox="0 0 15 15" fill="none" xmlns="http://www.w3.org/2000/svg">
<path d="M7.5 0C3.35826 0 0 3.35826 0 7.5C0 11.6417 3.35826 15 7.5 15C11.6417 15 15 11.6417 15 7.5C15 3.35826 11.6417 0 7.5 0ZM7.5 13.7277C4.06138 13.7277 1.27232 10.9386 1.27232 7.5C1.27232 4.06138 4.06138 1.27232 7.5 1.27232C10.9386 1.27232 13.7277 4.06138 13.7277 7.5C13.7277 10.9386 10.9386 13.7277 7.5 13.7277Z" fill="#107644"/>
<path d="M10.4247 9.62053L8.03746 7.89453V3.75112C8.03746 3.67746 7.97719 3.61719 7.90353 3.61719H7.09828C7.02462 3.61719 6.96436 3.67746 6.96436 3.75112V8.36161C6.96436 8.40513 6.98444 8.44531 7.0196 8.47042L9.78857 10.4894C9.84884 10.5329 9.93255 10.5195 9.97607 10.4609L10.4549 9.80804C10.4984 9.74609 10.485 9.66239 10.4247 9.62053Z" fill="#107644"/>
</svg>
