<svg width="15" height="14" viewBox="0 0 15 14" fill="none" xmlns="http://www.w3.org/2000/svg">
<path d="M7.5 13.3772H4.01163C1.46512 13.3772 0 11.943 0 9.45011V4.66929C0 2.17643 1.46512 0.742188 4.01163 0.742188H10.9884C13.5349 0.742188 15 2.17643 15 4.66929V6.71821C15 6.99823 14.7628 7.23044 14.4767 7.23044C14.1907 7.23044 13.9535 6.99823 13.9535 6.71821V4.66929C13.9535 2.71598 12.9837 1.76665 10.9884 1.76665H4.01163C2.01628 1.76665 1.04651 2.71598 1.04651 4.66929V9.45011C1.04651 11.4034 2.01628 12.3527 4.01163 12.3527H7.5C7.78605 12.3527 8.02326 12.585 8.02326 12.865C8.02326 13.145 7.78605 13.3772 7.5 13.3772Z" fill="#999999"/>
<path d="M7.49789 7.65541C6.91184 7.65541 6.31882 7.47783 5.86534 7.11586L3.68161 5.40842C3.45836 5.23085 3.4165 4.90986 3.59789 4.69131C3.77929 4.47276 4.10719 4.43861 4.33044 4.60935L6.51417 6.31679C7.0444 6.7334 7.9444 6.7334 8.47463 6.31679L10.6584 4.60935C10.8816 4.43178 11.2095 4.46593 11.3909 4.69131C11.5723 4.90986 11.5374 5.23768 11.3072 5.40842L9.12346 7.11586C8.67695 7.47783 8.08394 7.65541 7.49789 7.65541Z" fill="#999999"/>
<path d="M10.1587 13.7428C9.89361 13.7428 9.64245 13.6472 9.46105 13.4696C9.24478 13.2579 9.1471 12.9505 9.19594 12.6295L9.32849 11.7075C9.36338 11.4685 9.5099 11.1816 9.68432 11.0109L12.1541 8.59317C12.489 8.26534 12.8169 8.0946 13.1727 8.06045C13.6052 8.01947 14.0378 8.19704 14.4424 8.59317C14.8471 8.98929 15.0285 9.40591 14.9866 9.83619C14.9517 10.1777 14.7703 10.5055 14.4424 10.8333L11.9727 13.2511C11.7983 13.4218 11.5052 13.5652 11.261 13.5994L10.3192 13.7291C10.2634 13.736 10.2145 13.7428 10.1587 13.7428ZM13.2913 9.0781C13.2843 9.0781 13.2773 9.0781 13.2704 9.0781C13.1727 9.08493 13.0401 9.1737 12.8936 9.31712L10.4238 11.7349C10.4029 11.7553 10.368 11.8236 10.368 11.851L10.2424 12.7047L11.1145 12.5817C11.1424 12.5749 11.2122 12.5408 11.2331 12.5203L13.7029 10.1026C13.8494 9.9523 13.9401 9.82936 13.9471 9.73375C13.961 9.59715 13.8215 9.43323 13.7029 9.31712C13.5913 9.20784 13.4308 9.0781 13.2913 9.0781Z" fill="#999999"/>
<path d="M13.7188 11.327C13.6699 11.327 13.6211 11.3202 13.5792 11.3065C12.6583 11.0538 11.9257 10.3367 11.6676 9.43518C11.5909 9.16199 11.7513 8.88196 12.0304 8.8C12.3094 8.72488 12.5955 8.88197 12.6722 9.15516C12.8327 9.7152 13.2862 10.1591 13.8583 10.3162C14.1374 10.3913 14.2978 10.6782 14.2211 10.9514C14.1583 11.1768 13.949 11.327 13.7188 11.327Z" fill="#999999"/>
</svg>
