<svg width="91" height="101" viewBox="0 0 91 101" fill="none" xmlns="http://www.w3.org/2000/svg">
<path d="M78.2593 28.4878H12.7406C12.0318 28.4276 11.3294 28.6618 10.7983 29.1352C10.2761 29.6368 10.0342 30.363 10.1509 31.0775L16.884 89.7335C17.6736 96.2004 23.188 101.047 29.7028 100.999H62.3326C69.0308 101.094 74.6728 96.016 75.281 89.3452L80.8488 30.8185C80.8832 30.1907 80.6478 29.5781 80.2014 29.1352C79.6705 28.6618 78.9681 28.4276 78.2593 28.4878ZM70.1019 89.0862C69.695 93.0291 66.2936 95.9769 62.3329 95.8192H29.703C25.8134 95.9771 22.47 93.0871 22.0633 89.2155L15.5893 33.6672H75.4107L70.1019 89.0862Z" fill="#00CD69"/>
<path d="M87.7122 11.6548H61.0385V7.51119C61.1822 3.50907 58.0545 0.148362 54.0524 0.00461473C53.921 -9.42349e-05 53.7894 -0.00133343 53.658 0.00114497H37.343C33.3389 -0.0729592 30.0332 3.11278 29.9591 7.11688C29.9566 7.24823 29.9578 7.37984 29.9626 7.51119V11.6546H3.28878C1.85849 11.6546 0.699097 12.814 0.699097 14.2443C0.699097 15.6745 1.85849 16.8339 3.28878 16.8339H87.7122C89.1425 16.8339 90.3019 15.6745 90.3019 14.2443C90.3019 12.814 89.1423 11.6548 87.7122 11.6548ZM55.8591 7.51119V11.6546H35.1417V7.51119C34.9957 6.37633 35.7975 5.33813 36.9323 5.19215C37.0684 5.17456 37.2059 5.17084 37.3427 5.18051H53.6578C54.7991 5.09971 55.79 5.95922 55.8708 7.10077C55.8807 7.23758 55.8767 7.37513 55.8591 7.51119Z" fill="#00CD69"/>
</svg>
