<svg width="23" height="17" viewBox="0 0 23 17" fill="none" xmlns="http://www.w3.org/2000/svg">
<path d="M6.30109 16.0006C7.48457 16.0006 8.44398 15.0412 8.44398 13.8577C8.44398 12.6742 7.48457 11.7148 6.30109 11.7148C5.11761 11.7148 4.1582 12.6742 4.1582 13.8577C4.1582 15.0412 5.11761 16.0006 6.30109 16.0006Z" stroke="#00CD69" stroke-width="1.8" stroke-linecap="round" stroke-linejoin="round"/>
<path d="M17.0164 16.0006C18.1999 16.0006 19.1593 15.0412 19.1593 13.8577C19.1593 12.6742 18.1999 11.7148 17.0164 11.7148C15.8329 11.7148 14.8735 12.6742 14.8735 13.8577C14.8735 15.0412 15.8329 16.0006 17.0164 16.0006Z" stroke="#00CD69" stroke-width="1.8" stroke-linecap="round" stroke-linejoin="round"/>
<path d="M4.15867 13.8573H2.01578V9.57155M0.944336 1H12.7302V13.8573M8.44444 13.8573H14.8731M19.1589 13.8573H21.3018V7.42866M21.3018 7.42866H12.7302M21.3018 7.42866L18.0874 2.07144H12.7302M2.01578 5.28577H6.30155" stroke="#00CD69" stroke-width="1.8" stroke-linecap="round" stroke-linejoin="round"/>
</svg>
