<svg width="129" height="96" viewBox="0 0 129 96" fill="none" xmlns="http://www.w3.org/2000/svg">
<path fill-rule="evenodd" clip-rule="evenodd" d="M3.51932 0.266002C2.05372 0.834551 1.52947 1.24767 0.764604 2.4364C0.151461 3.3893 0 3.91186 0 5.07619C0 5.87467 0.180398 6.88434 0.400941 7.32007C0.858192 8.22337 2.33552 9.57885 3.35274 10.0282C3.86499 10.2545 12.2282 10.365 36.1056 10.4606L68.1705 10.589L68.2419 41.5471C68.2813 58.574 68.2497 72.7651 68.1718 73.0832L68.0302 73.6612H61.0179C57.161 73.6612 53.8114 73.5877 53.5744 73.4981C53.3372 73.4084 52.8727 72.7438 52.5418 72.0208C51.7048 70.1916 50.71 68.8228 48.7832 66.8476C46.1761 64.1755 43.8043 62.8305 40.1463 61.9498C36.987 61.1891 32.2779 61.725 29.3589 63.1771C25.8547 64.9203 22.6146 68.0407 20.9472 71.2783C20.4131 72.3152 19.8307 73.2828 19.6529 73.4282C19.4751 73.5736 18.8224 73.6566 18.2024 73.6127L17.0752 73.5328L16.9449 63.1278C16.8004 51.5888 16.8515 51.9276 15.0074 50.332C12.4135 48.0873 8.45757 48.9356 6.83608 52.0841L6.24275 53.2366L6.3147 66.853L6.38691 80.4694L7.08712 81.5302C7.47242 82.1137 8.23494 82.8651 8.78161 83.2001C9.7128 83.7705 10.0908 83.8175 14.729 83.9377L19.6821 84.0662L20.6584 85.9568C22.4978 89.5194 24.7293 91.9221 27.9165 93.7714C33.2961 96.8934 40.939 96.7048 46.0298 93.3246C48.6396 91.5917 51.5014 88.182 52.7809 85.2811C53.0739 84.6173 53.4801 84.1322 53.8096 84.0539C54.1089 83.9824 60.5119 83.956 68.0383 83.995L81.723 84.0662L82.8187 86.0801C85.0361 90.1556 87.5465 92.6612 91.0984 94.345C95.557 96.4584 101.447 96.5563 105.806 94.5894C109.358 92.987 112.734 89.6615 114.47 86.0565C114.928 85.1031 115.433 84.2381 115.59 84.1343C115.748 84.0305 117.871 83.9413 120.309 83.9359C124.049 83.928 124.906 83.8524 125.802 83.4514C127.259 82.7991 128.442 81.3093 128.781 79.6989C128.966 78.8205 129.034 72.1133 128.985 59.4991L128.911 40.6147L127.992 38.8328C127.182 37.2651 121.296 27.4127 112.499 12.9012C110.958 10.3578 109.327 7.89119 108.876 7.42001C107.167 5.6342 107.926 5.72104 92.8354 5.57922L79.1786 5.45077L78.8272 4.09683C78.4088 2.48522 77.6531 1.40772 76.3942 0.627993L75.4698 0.0555903L39.8856 0.00908902C13.0421 -0.0261081 4.10926 0.0370926 3.51932 0.266002ZM101.994 16.4338C102.227 16.6106 104.956 20.9747 108.059 26.1323C111.162 31.2898 113.92 35.7408 114.187 36.0234C114.672 36.537 114.663 36.5373 96.8959 36.4088L79.1195 36.2804L79.0512 26.5184C79.0134 21.1494 79.0392 16.6116 79.108 16.4346C79.2902 15.967 101.376 15.9662 101.994 16.4338ZM10.3809 24.6877C8.04698 25.3158 6.66246 26.8149 6.35146 29.0503C6.04723 31.2384 7.13692 33.201 9.22556 34.2268L10.5301 34.8673H24.0429C38.9341 34.8673 38.6272 34.8976 40.3525 33.2524C42.8168 30.9016 42.0415 26.585 38.8788 25.0494C37.6731 24.4639 37.6345 24.4621 24.6352 24.411C14.7295 24.3717 11.308 24.4382 10.3809 24.6877ZM117.941 47.0982C118.31 47.2374 118.353 48.641 118.353 60.3017C118.353 74.8315 118.515 73.6612 116.51 73.6612C115.501 73.6612 115.482 73.6419 114.469 71.6701C112.651 68.1301 109.378 64.8792 105.884 63.1432C104.081 62.2471 101.019 61.5863 98.6712 61.5863C94.9452 61.5863 90.9673 62.958 88.0142 65.2609C86.3289 66.5756 83.809 69.6911 82.8786 71.6113C81.9461 73.5351 81.613 73.7676 80.0027 73.616L79.1195 73.5328L79.0517 60.5586C79.0144 53.4229 79.04 47.4401 79.1085 47.2634C79.2068 47.0106 83.3033 46.9422 98.3811 46.9422C108.912 46.9422 117.714 47.0124 117.941 47.0982ZM38.6843 72.5354C40.2519 73.0618 42.2795 75.0213 42.8919 76.6018C43.2282 77.4694 43.31 78.2132 43.2076 79.4721C42.7342 85.2835 35.3381 87.6162 31.4781 83.1719C28.6509 79.9171 29.3068 76.0397 33.1705 73.1687C34.5581 72.1375 36.7498 71.8857 38.6843 72.5354ZM102.031 73.2232C103.648 74.2809 104.886 75.9922 105.318 77.7662C105.936 80.3065 104.252 83.5203 101.627 84.8092C97.5315 86.8208 92.6157 84.209 91.8722 79.6262C91.4723 77.1619 93.3075 74.1126 96.002 72.7638C97.1715 72.1786 97.6037 72.0976 99.0088 72.1999C100.331 72.2962 100.918 72.4948 102.031 73.2232Z" fill="#00CD69"/>
</svg>
