<svg width="95" height="110" viewBox="0 0 95 110" fill="none" xmlns="http://www.w3.org/2000/svg">
<path d="M84.8216 102.5H10.1788V68.5714H3.39307V102.5C3.39307 104.3 4.10799 106.026 5.38056 107.298C6.65312 108.571 8.3791 109.286 10.1788 109.286H84.8216C86.6213 109.286 88.3473 108.571 89.6199 107.298C90.8924 106.026 91.6074 104.3 91.6074 102.5V68.5714H84.8216V102.5Z" fill="#00CD69"/>
<path d="M33.9287 75.3571C33.9287 76.2569 34.2862 77.1199 34.9225 77.7562C35.5587 78.3925 36.4217 78.7499 37.3216 78.7499H57.6787C58.5786 78.7499 59.4415 78.3925 60.0778 77.7562C60.7141 77.1199 61.0716 76.2569 61.0716 75.3571C61.0716 74.4572 60.7141 73.5943 60.0778 72.958C59.4415 72.3217 58.5786 71.9642 57.6787 71.9642H37.3216C36.4217 71.9642 35.5587 72.3217 34.9225 72.958C34.2862 73.5943 33.9287 74.4572 33.9287 75.3571Z" fill="#00CD69"/>
<path d="M33.9286 55H6.78571V41.4285H20.3571C18.8887 39.6377 18.0749 37.3997 18.05 35.0839C18.05 35.0839 18.05 34.7785 18.05 34.6428H5.08929C3.73952 34.6428 2.44504 35.179 1.49062 36.1334C0.53619 37.0879 0 38.3823 0 39.7321V61.7857H40.7143L33.9286 55Z" fill="#00CD69"/>
<path d="M89.9106 34.6428H76.8821V35.0839C76.8764 37.3915 76.0868 39.6286 74.6428 41.4285H88.2142V55H61.0714L54.2856 61.7857H94.9999V39.7321C94.9999 38.3823 94.4637 37.0879 93.5093 36.1334C92.5549 35.179 91.2604 34.6428 89.9106 34.6428Z" fill="#00CD69"/>
<path d="M47.5005 59.0035L69.147 37.4589C69.5396 37.1726 69.8662 36.8054 70.1046 36.382C70.343 35.9586 70.4877 35.489 70.5289 35.0048C70.5701 34.5207 70.5068 34.0333 70.3433 33.5758C70.1799 33.1182 69.92 32.7011 69.5814 32.3526C69.2428 32.0042 68.8332 31.7325 68.3805 31.556C67.9278 31.3796 67.4424 31.3024 66.9573 31.3297C66.4722 31.3571 65.9986 31.4883 65.5686 31.7145C65.1386 31.9408 64.7621 32.2567 64.4648 32.641L50.8934 46.0428V4.10709C50.8934 3.20725 50.5359 2.34426 49.8996 1.70798C49.2634 1.07169 48.4004 0.714233 47.5005 0.714233C46.6007 0.714233 45.7377 1.07169 45.1014 1.70798C44.4651 2.34426 44.1077 3.20725 44.1077 4.10709V46.1785L30.5362 32.7767C29.8974 32.1423 29.0326 31.7877 28.1323 31.7909C27.2319 31.7941 26.3697 32.1548 25.7353 32.7937C25.101 33.4326 24.7464 34.2973 24.7495 35.1977C24.7527 36.098 25.1134 36.9602 25.7523 37.5946L47.5005 59.0035Z" fill="#00CD69"/>
</svg>
