<svg width="14" height="14" viewBox="0 0 14 14" fill="none" xmlns="http://www.w3.org/2000/svg">
<path d="M5.93404 2.42705H2.40973C2.03584 2.42705 1.67727 2.57557 1.4129 2.83995C1.14852 3.10432 1 3.46289 1 3.83678V11.5903C1 11.9642 1.14852 12.3227 1.4129 12.5871C1.67727 12.8515 2.03584 13 2.40973 13H10.1632C10.5371 13 10.8957 12.8515 11.1601 12.5871C11.4244 12.3227 11.5729 11.9642 11.5729 11.5903V8.06596M10.5763 1.43037C10.7063 1.29573 10.8619 1.18833 11.0339 1.11445C11.2059 1.04057 11.3908 1.00168 11.578 1.00005C11.7652 0.998427 11.9508 1.0341 12.1241 1.10498C12.2973 1.17586 12.4547 1.28054 12.5871 1.4129C12.7195 1.54526 12.8241 1.70266 12.895 1.87591C12.9659 2.04916 13.0016 2.23479 12.9999 2.42198C12.9983 2.60916 12.9594 2.79414 12.8855 2.96614C12.8117 3.13813 12.7043 3.29368 12.5696 3.42373L6.51767 9.47568H4.52432V7.48233L10.5763 1.43037Z" stroke="#00CD69" stroke-width="1.3" stroke-linecap="round" stroke-linejoin="round"/>
</svg>
