<svg width="18" height="16" viewBox="0 0 18 16" fill="none" xmlns="http://www.w3.org/2000/svg">
<path d="M15.4769 2.30063L15.3928 2.36117C15.4195 2.38245 15.4456 2.4047 15.4712 2.42792L15.5541 2.36827C15.5289 2.34483 15.5032 2.32228 15.4769 2.30063ZM2.60724 2.36118L2.52312 2.30064C2.49677 2.32236 2.47102 2.34491 2.44589 2.36827L2.52878 2.42792C2.5543 2.40478 2.58046 2.38252 2.60724 2.36118ZM9.05842 7.00417L9 6.96213L8.94159 7.00417L9 7.08533L9.05842 7.00417ZM8.94159 8.27903L9 8.32107L9.05841 8.27903L15.9909 3.2902C16.0346 3.45117 16.0579 3.62238 16.0579 3.8V12.2C16.0579 12.6717 15.8887 13.1222 15.5904 13.4529C15.2923 13.7833 14.8903 13.9667 14.4737 13.9667H3.52632C3.10967 13.9667 2.70772 13.7833 2.40965 13.4529C2.11126 13.1222 1.94211 12.6717 1.94211 12.2L1.94211 3.8L1.94211 3.79995C1.94201 3.627 1.96477 3.45533 2.00938 3.29037L8.94159 8.27903ZM14.4737 0.9H3.52632C2.82626 0.9 2.15724 1.20831 1.66569 1.75311C1.17445 2.29757 0.9 3.034 0.9 3.8V12.2C0.9 12.966 1.17445 13.7024 1.66569 14.2469C2.15724 14.7917 2.82626 15.1 3.52632 15.1H14.4737C15.1737 15.1 15.8428 14.7917 16.3343 14.2469C16.8255 13.7024 17.1 12.966 17.1 12.2V3.8C17.1 3.034 16.8255 2.29757 16.3343 1.75311C15.8428 1.20831 15.1737 0.9 14.4737 0.9Z" fill="#AAAAAA" stroke="#AAAAAA" stroke-width="0.2"/>
</svg>
