<svg id="Слой_1" data-name="Слой 1" xmlns="http://www.w3.org/2000/svg" viewBox="0 0 45.4 39.4"><defs><style>.cls-1{fill:#aaa;stroke:#aaa;stroke-width:0.2px;}</style></defs><path class="cls-1" d="M38.89,3.7h0a4.37,4.37,0,0,1,2.88,1.1l-18.27,13L5.23,4.8A4.36,4.36,0,0,1,8.11,3.7ZM23.44,21.13l.06,0,.06,0,19.7-14a5.33,5.33,0,0,1,.27,1.71V32.2a5.37,5.37,0,0,1-1.36,3.61,4.42,4.42,0,0,1-3.28,1.49H8.11a4.42,4.42,0,0,1-3.28-1.49A5.37,5.37,0,0,1,3.47,32.2V8.8h0a5.51,5.51,0,0,1,.27-1.71ZM38.89.9H8.11A6.87,6.87,0,0,0,3,3.22,8.3,8.3,0,0,0,.9,8.8V32.2A8.3,8.3,0,0,0,3,37.78a6.87,6.87,0,0,0,5.1,2.32H38.89A6.87,6.87,0,0,0,44,37.78,8.3,8.3,0,0,0,46.1,32.2V8.8A8.3,8.3,0,0,0,44,3.22,6.87,6.87,0,0,0,38.89.9Z" transform="translate(-0.8 -0.8)"/></svg>