<svg width="18" height="15" viewBox="0 0 18 15" fill="none" xmlns="http://www.w3.org/2000/svg">
<path d="M16.7143 0H1.28571C0.944722 0 0.617695 0.158035 0.376577 0.43934C0.135459 0.720644 0 1.10218 0 1.5V13.5C0 13.8978 0.135459 14.2794 0.376577 14.5607C0.617695 14.842 0.944722 15 1.28571 15H16.7143C17.0553 15 17.3823 14.842 17.6234 14.5607C17.8645 14.2794 18 13.8978 18 13.5V1.5C18 1.10218 17.8645 0.720644 17.6234 0.43934C17.3823 0.158035 17.0553 0 16.7143 0ZM15.3 1.5L9 6.585L2.7 1.5H15.3ZM1.28571 13.5V2.1825L8.63357 8.115C8.74118 8.2021 8.86903 8.24877 9 8.24877C9.13097 8.24877 9.25882 8.2021 9.36643 8.115L16.7143 2.1825V13.5H1.28571Z" fill="white"/>
</svg>
