<svg width="15" height="12" viewBox="0 0 15 12" fill="none" xmlns="http://www.w3.org/2000/svg">
<path d="M14.9577 6.02219C14.9389 5.96719 14.4076 4.67469 13.2323 3.37531C11.6633 1.65656 9.68167 0.742188 7.5 0.742188C5.31833 0.742188 3.33671 1.65656 1.76766 3.37531C0.592433 4.67469 0.0610816 5.96719 0.042328 6.02219C0.0144183 6.09147 0 6.16641 0 6.24219C0 6.31797 0.0144183 6.3929 0.042328 6.46219C0.0610816 6.51719 0.592433 7.80969 1.76766 9.10906C3.33671 10.8278 5.31833 11.7422 7.5 11.7422C9.68167 11.7422 11.6633 10.8278 13.2323 9.10906C14.4076 7.80969 14.9389 6.51719 14.9577 6.46219C14.9856 6.3929 15 6.31797 15 6.24219C15 6.16641 14.9856 6.09147 14.9577 6.02219ZM7.5 10.6422C5.57463 10.6422 3.89306 9.87219 2.5053 8.35281C1.93177 7.73161 1.44514 7.02034 1.06127 6.24219C1.44462 5.46161 1.93127 4.74799 2.5053 4.12469C3.89306 2.61219 5.57463 1.84219 7.5 1.84219C9.42537 1.84219 11.1069 2.61219 12.4947 4.12469C13.0687 4.74799 13.5554 5.46161 13.9387 6.24219C13.4886 7.17031 11.5258 10.6422 7.5 10.6422ZM7.5 2.94219C6.90654 2.94219 6.32641 3.13573 5.83297 3.49834C5.33953 3.86095 4.95494 4.37634 4.72783 4.97933C4.50073 5.58233 4.44131 6.24585 4.55708 6.88599C4.67286 7.52612 4.95864 8.11413 5.37827 8.57564C5.79791 9.03715 6.33256 9.35145 6.91462 9.47878C7.49667 9.60611 8.09999 9.54076 8.64827 9.29099C9.19655 9.04122 9.66518 8.61825 9.99488 8.07557C10.3246 7.53289 10.5006 6.89487 10.5006 6.24219C10.5006 5.36697 10.1844 4.52761 9.62172 3.90874C9.05901 3.28987 8.2958 2.94219 7.5 2.94219ZM7.5 8.44219C7.10436 8.44219 6.71761 8.31316 6.38865 8.07142C6.05969 7.82968 5.80329 7.48609 5.65189 7.08409C5.50048 6.68209 5.46087 6.23975 5.53805 5.81299C5.61524 5.38623 5.80576 4.99423 6.08552 4.68655C6.36527 4.37888 6.72171 4.16935 7.10974 4.08446C7.49778 3.99957 7.89999 4.04314 8.26551 4.20965C8.63103 4.37617 8.94345 4.65815 9.16325 5.01993C9.38306 5.38172 9.50038 5.80707 9.50038 6.24219C9.49873 6.82511 9.28745 7.38363 8.91266 7.79582C8.53787 8.20801 8.03003 8.44037 7.5 8.44219Z" fill="#999999"/>
</svg>
