<svg width="15" height="10" viewBox="0 0 15 10" fill="none" xmlns="http://www.w3.org/2000/svg">
<path d="M1.42197 5.96826C1.35632 6.1475 1.22336 6.29408 1.05134 6.37685C0.879333 6.45963 0.681826 6.47207 0.500789 6.41153C0.319752 6.35099 0.169453 6.22225 0.0818286 6.05266C-0.00579604 5.88307 -0.0238407 5.68599 0.0315287 5.50331C0.0168616 5.54731 0.0315287 5.50184 0.0315287 5.50184C0.0576816 5.42111 0.0880351 5.3418 0.122465 5.26424C0.181133 5.1249 0.267669 4.93276 0.386473 4.70542C0.627013 4.25074 1.00542 3.64499 1.55984 3.03924C2.68481 1.81453 4.5226 0.601562 7.32695 0.601562C10.1328 0.601562 11.9706 1.81453 13.0926 3.03924C13.6916 3.69619 14.1774 4.44809 14.53 5.26424C14.5593 5.33317 14.5813 5.38891 14.596 5.42998C14.6018 5.44171 14.6165 5.51798 14.6312 5.59131C14.6444 5.65878 14.6561 5.72332 14.6605 5.73505C14.6605 5.73505 14.7837 6.22347 14.1589 6.43027C13.9749 6.49172 13.774 6.47776 13.6003 6.39144C13.4266 6.30512 13.2941 6.15349 13.2319 5.96972V5.96532L13.2217 5.94186C13.148 5.75344 13.0638 5.56932 12.9694 5.39037C12.709 4.8984 12.3872 4.44152 12.0116 4.03073C11.1169 3.05537 9.65462 2.06827 7.32695 2.06827C4.99928 2.06827 3.53697 3.05537 2.64227 4.03073C2.15788 4.56178 1.76396 5.16876 1.47624 5.82745C1.46084 5.8653 1.44617 5.90345 1.43224 5.94186L1.42197 5.96826Z" fill="#AAAAAA"/>
<path d="M4.39453 6.46858C4.39453 5.69059 4.70359 4.94446 5.25371 4.39434C5.80383 3.84421 6.54996 3.53516 7.32795 3.53516C8.10595 3.53516 8.85207 3.84421 9.4022 4.39434C9.95232 4.94446 10.2614 5.69059 10.2614 6.46858C10.2614 7.24657 9.95232 7.9927 9.4022 8.54282C8.85207 9.09294 8.10595 9.402 7.32795 9.402C6.54996 9.402 5.80383 9.09294 5.25371 8.54282C4.70359 7.9927 4.39453 7.24657 4.39453 6.46858Z" fill="#AAAAAA"/>
</svg>
