<svg width="18" height="13" viewBox="0 0 18 13" fill="none" xmlns="http://www.w3.org/2000/svg">
<path d="M6.60536 6.5C6.60536 7.09226 6.84895 7.66027 7.28255 8.07906C7.71614 8.49785 8.30422 8.73313 8.91742 8.73313C9.53062 8.73313 10.1187 8.49785 10.5523 8.07906C10.9859 7.66027 11.2295 7.09226 11.2295 6.5C11.2295 5.90774 10.9859 5.33973 10.5523 4.92094C10.1187 4.50215 9.53062 4.26687 8.91742 4.26687C8.30422 4.26687 7.71614 4.50215 7.28255 4.92094C6.84895 5.33973 6.60536 5.90774 6.60536 6.5ZM17.8808 5.98558C15.9238 2.00383 12.9656 0 8.99999 0C5.03233 0 2.0762 2.00383 0.119206 5.98758C0.0407101 6.14812 0 6.32345 0 6.501C0 6.67854 0.0407101 6.85388 0.119206 7.01442C2.0762 10.9962 5.0344 13 8.99999 13C12.9677 13 15.9238 10.9962 17.8808 7.01242C18.0397 6.68942 18.0397 6.31457 17.8808 5.98558ZM8.91742 10.0092C6.91088 10.0092 5.28418 8.43804 5.28418 6.5C5.28418 4.56196 6.91088 2.9908 8.91742 2.9908C10.924 2.9908 12.5507 4.56196 12.5507 6.5C12.5507 8.43804 10.924 10.0092 8.91742 10.0092Z" fill="#999999"/>
</svg>
