<svg width="22" height="20" viewBox="0 0 22 20" fill="none" xmlns="http://www.w3.org/2000/svg">
<path d="M21.8543 9.22605C20.9673 7.35746 19.9118 5.83352 18.6878 4.65423L17.4041 5.93798C18.4509 6.93838 19.3627 8.2471 20.1512 9.87701C18.052 14.2218 15.0722 16.2856 11 16.2856C9.77764 16.2856 8.65176 16.0974 7.62234 15.721L6.23136 17.1119C7.66111 17.7721 9.25065 18.1022 11 18.1022C15.8493 18.1022 19.4674 15.5766 21.8543 10.5254C21.9502 10.3223 22 10.1004 22 9.87575C22 9.65108 21.9502 9.4292 21.8543 9.22605ZM20.2504 1.13605L19.1748 0.0591988C19.156 0.0404318 19.1338 0.025544 19.1093 0.0153862C19.0848 0.00522841 19.0585 0 19.032 0C19.0054 0 18.9792 0.00522841 18.9547 0.0153862C18.9302 0.025544 18.9079 0.0404318 18.8892 0.0591988L16.1297 2.81743C14.6082 2.04032 12.8984 1.65177 11 1.65177C6.15063 1.65177 2.53253 4.17737 0.145696 9.22858C0.0497568 9.43173 0 9.6536 0 9.87827C0 10.1029 0.0497568 10.3248 0.145696 10.528C1.09925 12.5363 2.24725 14.1461 3.5897 15.3574L0.919777 18.0266C0.881952 18.0644 0.860704 18.1157 0.860704 18.1692C0.860704 18.2227 0.881952 18.2741 0.919777 18.3119L1.99688 19.389C2.03473 19.4268 2.08605 19.4481 2.13956 19.4481C2.19307 19.4481 2.24439 19.4268 2.28224 19.389L20.2504 1.42166C20.2691 1.40292 20.284 1.38065 20.2942 1.35615C20.3043 1.33165 20.3096 1.30538 20.3096 1.27886C20.3096 1.25233 20.3043 1.22606 20.2942 1.20156C20.284 1.17706 20.2691 1.1548 20.2504 1.13605ZM1.84878 9.87701C3.9505 5.53226 6.93026 3.46838 11 3.46838C12.3761 3.46838 13.6273 3.70455 14.7624 4.18469L12.9887 5.95841C12.1487 5.51022 11.1868 5.34388 10.2451 5.48394C9.30335 5.62399 8.43155 6.06302 7.75831 6.73626C7.08507 7.4095 6.64605 8.28129 6.50599 9.22304C6.36594 10.1648 6.53228 11.1266 6.98047 11.9666L4.87571 14.0714C3.71081 13.0432 2.70662 11.6502 1.84878 9.87701ZM8.07321 9.87701C8.07366 9.4321 8.17904 8.99357 8.3808 8.59704C8.58257 8.20051 8.87502 7.85717 9.23441 7.59491C9.5938 7.33264 10.01 7.15885 10.4492 7.08765C10.8883 7.01645 11.3381 7.04985 11.762 7.18513L8.20719 10.7399C8.11809 10.4609 8.07289 10.1698 8.07321 9.87701Z" fill="#3E3E3E"/>
</svg>
