<svg width="15" height="10" viewBox="0 0 15 10" fill="none" xmlns="http://www.w3.org/2000/svg">
<path d="M1.42197 5.9663C1.35632 6.14555 1.22336 6.29213 1.05134 6.3749C0.879333 6.45767 0.681826 6.47011 0.500789 6.40958C0.319752 6.34904 0.169453 6.2203 0.0818286 6.05071C-0.00579604 5.88112 -0.0238407 5.68404 0.0315287 5.50136C0.0168616 5.54536 0.0315287 5.49989 0.0315287 5.49989C0.0576816 5.41916 0.0880351 5.33985 0.122465 5.26228C0.181133 5.12295 0.267669 4.93081 0.386473 4.70347C0.627013 4.24879 1.00542 3.64303 1.55984 3.03728C2.68481 1.81258 4.5226 0.599609 7.32695 0.599609C10.1328 0.599609 11.9706 1.81258 13.0926 3.03728C13.6916 3.69423 14.1774 4.44614 14.53 5.26228C14.5593 5.33122 14.5813 5.38695 14.596 5.42802C14.6018 5.43976 14.6165 5.51602 14.6312 5.58936C14.6444 5.65683 14.6561 5.72136 14.6605 5.7331C14.6605 5.7331 14.7837 6.22151 14.1589 6.42832C13.9749 6.48977 13.774 6.4758 13.6003 6.38949C13.4266 6.30317 13.2941 6.15153 13.2319 5.96777V5.96337L13.2217 5.9399C13.148 5.75149 13.0638 5.56737 12.9694 5.38842C12.709 4.89645 12.3872 4.43957 12.0116 4.02878C11.1169 3.05342 9.65462 2.06632 7.32695 2.06632C4.99928 2.06632 3.53697 3.05342 2.64227 4.02878C2.15788 4.55983 1.76396 5.16681 1.47624 5.8255C1.46084 5.86335 1.44617 5.90149 1.43224 5.9399L1.42197 5.9663Z" fill="#AAAAAA"/>
<path d="M4.39355 6.46663C4.39355 5.68863 4.70261 4.94251 5.25273 4.39238C5.80286 3.84226 6.54898 3.5332 7.32698 3.5332C8.10497 3.5332 8.8511 3.84226 9.40122 4.39238C9.95134 4.94251 10.2604 5.68863 10.2604 6.46663C10.2604 7.24462 9.95134 7.99074 9.40122 8.54087C8.8511 9.09099 8.10497 9.40005 7.32698 9.40005C6.54898 9.40005 5.80286 9.09099 5.25273 8.54087C4.70261 7.99074 4.39355 7.24462 4.39355 6.46663Z" fill="#AAAAAA"/>
</svg>
