<svg width="51" height="60" viewBox="0 0 51 60" fill="none" xmlns="http://www.w3.org/2000/svg">
<path d="M43.8304 5.10037e-08C45.6471 -0.000210097 47.3961 0.648984 48.7241 1.81638C50.052 2.98378 50.8597 4.58232 50.9841 6.28894L51 6.74801V53.249C51.0002 54.9596 50.3108 56.6066 49.071 57.8569C47.8312 59.1073 46.1336 59.8679 44.3211 59.985L43.8304 60H7.18572C5.36902 60.0002 3.61997 59.351 2.29206 58.1836C0.964141 57.0162 0.156389 55.4177 0.0320462 53.7111L0.0161133 53.255V6.75101C0.0158902 5.04038 0.705337 3.39345 1.94512 2.14306C3.1849 0.892677 4.88256 0.132086 6.695 0.0150026L7.18572 5.10037e-08H43.8304ZM43.8304 4.50068H7.18572C6.60821 4.5007 6.05024 4.69763 5.615 5.05506C5.17976 5.41249 4.8967 5.90623 4.81816 6.44497L4.79585 6.75101V53.252C4.79585 54.3922 5.69444 55.3343 6.8607 55.4813L7.18572 55.5023H43.8304C44.4079 55.5023 44.9659 55.3054 45.4011 54.9479C45.8364 54.5905 46.1194 54.0968 46.198 53.558L46.2203 53.252V6.75101C46.2202 6.20722 46.0111 5.68183 45.6315 5.272C45.2519 4.86217 44.7276 4.59563 44.1554 4.52168L43.8304 4.49767V4.50068Z" fill="#00CD69"/>
<path d="M9.57568 41.2542C9.57568 40.6574 9.82747 40.085 10.2757 39.663C10.7238 39.241 11.3317 39.0039 11.9656 39.0039H39.0507C39.6846 39.0039 40.2925 39.241 40.7406 39.663C41.1888 40.085 41.4406 40.6574 41.4406 41.2542C41.4406 41.8511 41.1888 42.4235 40.7406 42.8455C40.2925 43.2675 39.6846 43.5046 39.0507 43.5046H11.9656C11.3317 43.5046 10.7238 43.2675 10.2757 42.8455C9.82747 42.4235 9.57568 41.8511 9.57568 41.2542Z" fill="#00CD69"/>
<path d="M9.57568 17.2503C9.57568 16.6535 9.82747 16.0811 10.2757 15.6591C10.7238 15.2371 11.3317 15 11.9656 15H39.0507C39.6846 15 40.2925 15.2371 40.7406 15.6591C41.1888 16.0811 41.4406 16.6535 41.4406 17.2503C41.4406 17.8472 41.1888 18.4195 40.7406 18.8416C40.2925 19.2636 39.6846 19.5007 39.0507 19.5007H11.9656C11.3317 19.5007 10.7238 19.2636 10.2757 18.8416C9.82747 18.4195 9.57568 17.8472 9.57568 17.2503Z" fill="#00CD69"/>
<path d="M9.57568 29.2503C9.57568 28.6535 9.82747 28.0811 10.2757 27.6591C10.7238 27.2371 11.3317 27 11.9656 27H39.0507C39.3646 27 39.6754 27.0582 39.9653 27.1713C40.2553 27.2844 40.5187 27.4501 40.7406 27.6591C40.9626 27.8681 41.1386 28.1161 41.2587 28.3892C41.3788 28.6622 41.4406 28.9548 41.4406 29.2503C41.4406 29.5459 41.3788 29.8385 41.2587 30.1115C41.1386 30.3845 40.9626 30.6326 40.7406 30.8416C40.5187 31.0505 40.2553 31.2163 39.9653 31.3294C39.6754 31.4425 39.3646 31.5007 39.0507 31.5007H11.9656C11.3317 31.5007 10.7238 31.2636 10.2757 30.8416C9.82747 30.4195 9.57568 29.8472 9.57568 29.2503Z" fill="#00CD69"/>
</svg>
