<svg width="18" height="18" viewBox="0 0 18 18" fill="none" xmlns="http://www.w3.org/2000/svg">
<path d="M8.74119 13.0407L5.20548 16.7075C5.02468 16.8948 4.77959 17 4.52405 17C4.26852 17 4.02343 16.8948 3.84262 16.7075L0.306911 13.0407C0.212171 12.9491 0.136182 12.8387 0.0834782 12.716C0.0307742 12.5934 0.00243451 12.4609 0.00015007 12.3267C-0.00213437 12.1924 0.021683 12.059 0.0701815 11.9345C0.11868 11.8099 0.190866 11.6968 0.282433 11.6019C0.374 11.5069 0.483072 11.432 0.603142 11.3817C0.723213 11.3314 0.851822 11.3067 0.981297 11.3091C1.11077 11.3115 1.23846 11.3409 1.35675 11.3955C1.47503 11.4502 1.58149 11.529 1.66977 11.6273L3.55977 13.5874L3.55977 2.00006C3.55977 1.73482 3.66136 1.48046 3.8422 1.29291C4.02304 1.10536 4.26831 1 4.52405 1C4.7798 1 5.02507 1.10536 5.20591 1.29291C5.38674 1.48046 5.48834 1.73482 5.48834 2.00006L5.48834 13.5874L7.37834 11.6273C7.56113 11.4506 7.80291 11.3544 8.05272 11.359C8.30254 11.3636 8.54089 11.4685 8.71757 11.6518C8.89424 11.835 8.99544 12.0822 8.99985 12.3413C9.00426 12.6003 8.91153 12.8511 8.74119 13.0407Z" fill="#3E3E3E"/>
<path d="M15.312 6.912H12.944L12.504 8H10.888L13.36 2.4H14.92L17.4 8H15.752L15.312 6.912ZM14.848 5.744L14.128 3.952L13.408 5.744H14.848Z" fill="#3E3E3E"/>
<path d="M16.296 15.744V17H11.28V16.008L14.104 12.656H11.352V11.4H16.176V12.392L13.352 15.744H16.296Z" fill="#3E3E3E"/>
</svg>
