<svg width="25" height="25" viewBox="0 0 25 25" fill="none" xmlns="http://www.w3.org/2000/svg">
<path d="M15.73 1.35973C15.3094 0.92931 14.807 0.587297 14.2523 0.353792C13.6976 0.120287 13.1018 0 12.5 0C11.8982 0 11.3024 0.120287 10.7477 0.353792C10.193 0.587297 9.69061 0.92931 9.26999 1.35973L8.29801 2.35664L6.90725 2.33946C6.30524 2.33233 5.70788 2.44564 5.15029 2.67273C4.59271 2.89982 4.08617 3.2361 3.66045 3.66179C3.23474 4.08748 2.89844 4.59399 2.67134 5.15154C2.44424 5.70908 2.33092 6.30641 2.33804 6.90838L2.35367 8.29906L1.35982 9.27097C0.929368 9.69157 0.587334 10.1939 0.353814 10.7486C0.120294 11.3033 0 11.899 0 12.5008C0 13.1026 0.120294 13.6983 0.353814 14.253C0.587334 14.8076 0.929368 15.31 1.35982 15.7306L2.35523 16.7025L2.33804 18.0932C2.33092 18.6952 2.44424 19.2925 2.67134 19.85C2.89844 20.4076 3.23474 20.9141 3.66045 21.3398C4.08617 21.7655 4.59271 22.1017 5.15029 22.3288C5.70788 22.5559 6.30524 22.6692 6.90725 22.6621L8.29801 22.6465L9.26999 23.6403C9.69061 24.0707 10.193 24.4127 10.7477 24.6462C11.3024 24.8797 11.8982 25 12.5 25C13.1018 25 13.6976 24.8797 14.2523 24.6462C14.807 24.4127 15.3094 24.0707 15.73 23.6403L16.702 22.6449L18.0928 22.6621C18.6948 22.6692 19.2921 22.5559 19.8497 22.3288C20.4073 22.1017 20.9138 21.7655 21.3395 21.3398C21.7653 20.9141 22.1016 20.4076 22.3287 19.85C22.5558 19.2925 22.6691 18.6952 22.662 18.0932L22.6463 16.7025L23.6402 15.7306C24.0706 15.31 24.4127 14.8076 24.6462 14.253C24.8797 13.6983 25 13.1026 25 12.5008C25 11.899 24.8797 11.3033 24.6462 10.7486C24.4127 10.1939 24.0706 9.69157 23.6402 9.27097L22.6448 8.29906L22.662 6.90838C22.6691 6.30641 22.5558 5.70908 22.3287 5.15154C22.1016 4.59399 21.7653 4.08748 21.3395 3.66179C20.9138 3.2361 20.4073 2.89982 19.8497 2.67273C19.2921 2.44564 18.6948 2.33233 18.0928 2.33946L16.702 2.35508L15.73 1.36129V1.35973ZM16.1785 10.7101L11.4905 15.3978C11.4179 15.4705 11.3317 15.5282 11.2368 15.5676C11.1419 15.607 11.0401 15.6273 10.9373 15.6273C10.8346 15.6273 10.7328 15.607 10.6379 15.5676C10.543 15.5282 10.4567 15.4705 10.3842 15.3978L8.04018 13.0539C7.96753 12.9813 7.90991 12.8951 7.87059 12.8001C7.83128 12.7052 7.81104 12.6035 7.81104 12.5008C7.81104 12.3981 7.83128 12.2963 7.87059 12.2014C7.90991 12.1065 7.96753 12.0203 8.04018 11.9476C8.11282 11.875 8.19906 11.8174 8.29398 11.7781C8.38889 11.7387 8.49062 11.7185 8.59336 11.7185C8.69609 11.7185 8.79782 11.7387 8.89274 11.7781C8.98765 11.8174 9.07389 11.875 9.14654 11.9476L10.9373 13.7399L15.0721 9.6038C15.2188 9.45709 15.4178 9.37467 15.6253 9.37467C15.8328 9.37467 16.0318 9.45709 16.1785 9.6038C16.3252 9.7505 16.4076 9.94947 16.4076 10.1569C16.4076 10.3644 16.3252 10.5634 16.1785 10.7101Z" fill="#419FD9"/>
</svg>
