<svg width="20" height="18" viewBox="0 0 20 18" fill="none" xmlns="http://www.w3.org/2000/svg">
<path d="M10.2019 16.073C10.0383 16.2351 9.74742 16.2621 9.55655 16.073C9.4714 15.988 9.42362 15.8731 9.42362 15.7534C9.42362 15.6336 9.4714 15.5187 9.55655 15.4337L12.6378 12.3811L11.3562 11.1115L8.27496 14.1641C8.10226 14.3441 7.8114 14.3351 7.62962 14.1641C7.54447 14.079 7.49669 13.9641 7.49669 13.8444C7.49669 13.7246 7.54447 13.6097 7.62962 13.5247L10.7109 10.4722L9.4293 9.20253L6.34803 12.2551C6.18442 12.4172 5.89356 12.4442 5.70269 12.2551C5.61947 12.1691 5.57301 12.0546 5.57301 11.9354C5.57301 11.8163 5.61947 11.7018 5.70269 11.6158L8.78396 8.56321L7.49328 7.29356L4.41201 10.3461C4.2484 10.5082 3.95754 10.5352 3.76667 10.3461C3.68345 10.2601 3.63699 10.1456 3.63699 10.0264C3.63699 9.90732 3.68345 9.79279 3.76667 9.70679L7.74778 5.76278L9.44748 7.43763C10.311 8.29307 11.8016 8.28406 12.6651 7.43763C13.5558 6.55519 13.5558 5.13246 12.6651 4.25001L10.9745 2.57516L11.229 2.32303C11.9379 1.62068 13.0923 1.62068 13.8012 2.32303L17.6551 6.14097C18.3641 6.84333 18.3641 7.98691 17.6551 8.68927L10.2019 16.073ZM18.9367 9.96792C19.6176 9.2914 20 8.375 20 7.41962C20 6.46425 19.6176 5.54785 18.9367 4.87133L15.0828 1.05339C14.4 0.378811 13.4749 0 12.5106 0C11.5462 0 10.6212 0.378811 9.9383 1.05339L9.6838 1.30552L9.4293 1.05339C8.74641 0.378811 7.82139 0 6.85703 0C5.89266 0 4.96765 0.378811 4.28476 1.05339L1.06715 4.24101C0.452255 4.84809 0.0774418 5.65345 0.0107338 6.51092C-0.0559742 7.36839 0.189845 8.22113 0.703575 8.91438L2.02152 7.60872C1.84582 7.26885 1.78371 6.88245 1.84416 6.50533C1.90461 6.12821 2.08449 5.77988 2.35783 5.51065L5.57544 2.32303C6.2844 1.62068 7.43874 1.62068 8.14771 2.32303L11.3835 5.52866C11.5471 5.69075 11.5744 5.97889 11.3835 6.16799C11.1926 6.35708 10.9018 6.33007 10.7382 6.16799L7.74778 3.21449L2.47599 8.42814C1.58524 9.30158 1.58524 10.7333 2.47599 11.6158C2.83047 11.9669 3.28493 12.183 3.76667 12.2461C3.83032 12.7303 4.05381 13.18 4.40233 13.5253C4.75085 13.8706 5.20484 14.092 5.6936 14.155C5.75725 14.6392 5.98074 15.089 6.32926 15.4343C6.67778 15.7796 7.13177 16.001 7.62053 16.064C7.68415 16.5503 7.9023 16.9915 8.25678 17.3427C8.68398 17.7659 9.2566 18 9.86558 18C10.4746 18 11.0472 17.7659 11.4744 17.3427L18.9367 9.96792Z" fill="#00CD69"/>
</svg>
