<svg width="38" height="24" viewBox="0 0 38 24" fill="none" xmlns="http://www.w3.org/2000/svg">
<path d="M30.0034 16.4581C29.2577 14.9033 26.5897 12.7452 24.0121 10.6599C22.5744 9.49775 21.2159 8.39894 20.3498 7.53288C20.1329 7.31438 19.8083 7.24469 19.5218 7.34763C18.9882 7.54082 18.6588 7.68963 18.3992 7.80519C18.0034 7.9825 17.8704 8.04269 17.3368 8.0965C17.1008 8.12025 16.8887 8.24694 16.7573 8.44325C15.6378 10.1168 14.4788 9.97431 13.7046 9.71469C13.4576 9.63238 13.4133 9.52625 13.3895 9.42494C13.2233 8.72988 14.0577 7.11169 15.1391 6.03025C17.712 3.45575 19.0388 2.8113 21.8413 4.06375C25.0207 5.48555 28.2064 6.59869 28.238 6.60975C28.6545 6.75381 29.1025 6.53531 29.2466 6.12206C29.3891 5.70881 29.1722 5.25755 28.7589 5.1135C28.7272 5.10244 25.6049 4.01149 22.4889 2.61655C18.8583 0.99361 16.8665 2.06236 14.0212 4.90925C12.9382 5.99225 11.4673 8.18356 11.8473 9.79069C12.0103 10.4747 12.4917 10.9814 13.2073 11.2172C15.0013 11.8094 16.6384 11.2426 17.8576 9.62444C18.3611 9.54688 18.635 9.43288 19.0466 9.24763C19.1954 9.18113 19.3696 9.10357 19.6008 9.01013C20.5065 9.86038 21.7288 10.8499 23.0161 11.8902C25.3436 13.7727 27.983 15.9071 28.5768 17.1421C28.8697 17.7517 28.5546 18.1491 28.3408 18.3312C28.0273 18.6004 27.5983 18.6859 27.3655 18.5228C27.109 18.347 26.775 18.3359 26.5105 18.4943C26.2445 18.6526 26.0957 18.9518 26.129 19.259C26.1828 19.7625 25.722 20.0507 25.5225 20.1504C25.0158 20.4069 24.487 20.3626 24.2891 20.1789C24.0674 19.9731 23.7491 19.9129 23.4673 20.0174C23.1855 20.1235 22.9891 20.3832 22.9606 20.684C22.9131 21.2033 22.5284 21.7021 22.0264 21.8968C21.7842 21.9886 21.4327 22.0441 21.1176 21.7559C20.9213 21.5786 20.6489 21.5104 20.3941 21.5722C20.136 21.6355 19.9286 21.8224 19.8383 22.0709C19.8083 22.1501 19.7401 22.3401 18.9991 22.3401C18.4719 22.3401 17.5234 21.9839 17.0596 21.6767C16.5038 21.3109 13.0189 18.7111 10.009 16.1904C9.58627 15.8342 8.85476 15.071 8.20876 14.3965C7.63557 13.798 7.11151 13.2549 6.84232 13.0269C6.50507 12.7419 6.00632 12.7847 5.72607 13.1204C5.44426 13.4544 5.48538 13.9548 5.81951 14.2366C6.06495 14.4441 6.53995 14.9459 7.06401 15.4922C7.77021 16.23 8.50007 16.9932 8.99096 17.4049C11.9391 19.8733 15.4827 22.5381 16.1888 23.0019C16.7715 23.3851 18.027 23.9234 18.9992 23.9234C19.7798 23.9234 20.3799 23.7445 20.7963 23.3946C21.3536 23.6116 21.987 23.6131 22.5965 23.3756C23.317 23.0969 23.9091 22.5349 24.2448 21.8541C24.8686 21.9871 25.5827 21.8936 26.2318 21.5675C26.8668 21.2477 27.3259 20.7584 27.5539 20.1868C28.1841 20.2201 28.8332 19.9968 29.37 19.5361C30.2789 18.7587 30.529 17.5491 30.0034 16.4581Z" fill="#00CD69"/>
<path d="M15.8327 3.34375H8.70771C8.27071 3.34375 7.91602 3.69844 7.91602 4.13544C7.91602 4.57244 8.27071 4.92713 8.70771 4.92713H15.8327C16.2697 4.92713 16.6244 4.57244 16.6244 4.13544C16.6244 3.69844 16.2697 3.34375 15.8327 3.34375Z" fill="#00CD69"/>
<path d="M32.3241 14.7732C32.0787 14.4106 31.5879 14.3109 31.2253 14.5579L28.9105 16.1127C28.5479 16.3565 28.4513 16.849 28.6952 17.2115C28.8488 17.438 29.0989 17.5615 29.3539 17.5615C29.5043 17.5615 29.6579 17.5187 29.7941 17.4269L32.1089 15.8721C32.4714 15.6282 32.5679 15.1358 32.3241 14.7732Z" fill="#00CD69"/>
<path d="M27.4079 18.5532C26.8411 18.1067 24.3062 15.5116 22.7387 13.8776C22.4362 13.5609 21.9344 13.5499 21.6192 13.8539C21.3025 14.1563 21.293 14.6582 21.5955 14.9733C22.0024 15.3976 25.5918 19.1391 26.4262 19.7978C26.5703 19.9118 26.7445 19.9672 26.9155 19.9672C27.1482 19.9672 27.381 19.8627 27.5393 19.6648C27.8101 19.3227 27.7515 18.8239 27.4079 18.5532Z" fill="#00CD69"/>
<path d="M24.2452 20.1398C23.2967 19.3814 20.9139 16.8496 20.3755 16.2638C20.0778 15.9408 19.579 15.9218 19.256 16.2163C18.9346 16.5124 18.9125 17.0143 19.2085 17.3357C19.237 17.3658 22.0807 20.4359 23.2556 21.3764C23.4012 21.492 23.577 21.549 23.7496 21.549C23.9807 21.549 24.2119 21.4461 24.3686 21.2529C24.6411 20.9109 24.5856 20.4121 24.2452 20.1398Z" fill="#00CD69"/>
<path d="M21.0947 21.7349C19.9657 20.7833 17.6557 18.3244 17.2044 17.8415C16.9052 17.5216 16.4032 17.5042 16.085 17.8035C15.7652 18.1027 15.7493 18.603 16.047 18.9229C16.6962 19.618 18.9065 21.9613 20.0734 22.9462C20.2222 23.0712 20.4027 23.133 20.5832 23.133C20.8081 23.133 21.0329 23.0364 21.1897 22.8512C21.4715 22.5155 21.4287 22.0167 21.0947 21.7349Z" fill="#00CD69"/>
<path d="M9.25301 1.97555C7.89606 0.689858 2.47 0.273416 0.839192 0.176857C0.614383 0.165799 0.406942 0.240167 0.248633 0.390608C0.09025 0.539417 0 0.748417 0 0.966917V15.2169C0 15.6539 0.354692 16.0086 0.791692 16.0086H5.54169C5.8837 16.0086 6.1877 15.7886 6.29375 15.4624C6.40931 15.1077 9.13745 6.73506 9.49681 2.61836C9.51745 2.37767 9.42876 2.14017 9.25301 1.97555ZM4.96375 14.4253H1.58331V1.81561C4.12775 2.01667 6.87325 2.45367 7.87075 2.93817C7.4512 6.40567 5.55275 12.5664 4.96375 14.4253Z" fill="#00CD69"/>
<path d="M37.2088 1.75781C30.9926 1.75781 27.5441 3.34906 27.4 3.41556C27.1942 3.51212 27.0406 3.69106 26.9773 3.90801C26.914 4.12495 26.9456 4.3577 27.0643 4.55082C28.0428 6.12626 31.1066 14.8758 31.6956 17.0101C31.7906 17.3536 32.1025 17.5911 32.4588 17.5911H37.2088C37.6458 17.5911 38.0005 17.2364 38.0005 16.7994V2.54943C38.0005 2.11087 37.6458 1.75781 37.2088 1.75781ZM36.4172 16.0078H33.051C32.3005 13.5631 30.0838 7.18863 28.8472 4.55401C30.0553 4.14395 32.6504 3.43931 36.4172 3.3507V16.0078Z" fill="#00CD69"/>
</svg>
