<svg width="27" height="25" viewBox="0 0 27 25" fill="none" xmlns="http://www.w3.org/2000/svg">
<path d="M26.3468 5.37535C25.9278 4.4129 25.3238 3.54073 24.5684 2.80767C23.8125 2.07242 22.9213 1.48813 21.9431 1.08657C20.9289 0.668525 19.841 0.454545 18.7428 0.457053C17.202 0.457053 15.6987 0.875698 14.3923 1.66647C14.0797 1.85564 13.7828 2.06341 13.5015 2.28979C13.2203 2.06341 12.9234 1.85564 12.6108 1.66647C11.3044 0.875698 9.80112 0.457053 8.26032 0.457053C7.15082 0.457053 6.0757 0.667926 5.05995 1.08657C4.07859 1.48971 3.19412 2.06961 2.43465 2.80767C1.67831 3.5399 1.07412 4.41228 0.656325 5.37535C0.2219 6.377 0 7.44067 0 8.53535C0 9.56801 0.212524 10.6441 0.634448 11.7388C0.987613 12.6536 1.49392 13.6025 2.14087 14.5607C3.16599 16.0772 4.57552 17.6587 6.32572 19.262C9.22606 21.9196 12.0983 23.7554 12.2201 23.8298L12.9609 24.3012C13.289 24.509 13.7109 24.509 14.0391 24.3012L14.7798 23.8298C14.9017 23.7523 17.7708 21.9196 20.6742 19.262C22.4244 17.6587 23.834 16.0772 24.8591 14.5607C25.506 13.6025 26.0155 12.6536 26.3655 11.7388C26.7874 10.6441 27 9.56801 27 8.53535C27.0031 7.44067 26.7812 6.377 26.3468 5.37535ZM13.5015 21.8483C13.5015 21.8483 2.37527 14.7747 2.37527 8.53535C2.37527 5.37535 5.00995 2.81387 8.26032 2.81387C10.545 2.81387 12.5264 4.07911 13.5015 5.92735C14.4767 4.07911 16.4581 2.81387 18.7428 2.81387C21.9931 2.81387 24.6278 5.37535 24.6278 8.53535C24.6278 14.7747 13.5015 21.8483 13.5015 21.8483Z" fill="white"/>
</svg>
