<svg width="16" height="17" viewBox="0 0 16 17" fill="none" xmlns="http://www.w3.org/2000/svg">
    <path d="M8 0C7.12097 0 6.26168 0.262377 5.5308 0.753952C4.79991 1.24553 4.23026 1.94422 3.89387 2.76168C3.55748 3.57914 3.46946 4.47865 3.64095 5.34646C3.81244 6.21427 4.23574 7.0114 4.8573 7.63706C5.47887 8.26271 6.27079 8.68879 7.13293 8.86141C7.99507 9.03403 8.8887 8.94543 9.70082 8.60683C10.5129 8.26823 11.2071 7.69482 11.6954 6.95913C12.1838 6.22344 12.4444 5.3585 12.4444 4.47368C12.4444 3.28719 11.9762 2.14929 11.1427 1.31031C10.3092 0.471333 9.17874 0 8 0ZM8 7.15789C7.47258 7.15789 6.95701 7.00047 6.51848 6.70552C6.07995 6.41058 5.73815 5.99136 5.53632 5.50089C5.33449 5.01041 5.28168 4.47071 5.38457 3.95002C5.48747 3.42933 5.74144 2.95105 6.11438 2.57566C6.48732 2.20027 6.96248 1.94462 7.47976 1.84105C7.99704 1.73748 8.53322 1.79064 9.02049 1.9938C9.50776 2.19696 9.92424 2.541 10.2173 2.98242C10.5103 3.42383 10.6667 3.9428 10.6667 4.47368C10.6667 5.18558 10.3857 5.86832 9.88562 6.37171C9.38552 6.8751 8.70724 7.15789 8 7.15789ZM16 17V16.1053C16 14.4442 15.3444 12.8511 14.1776 11.6765C13.0107 10.502 11.428 9.84211 9.77778 9.84211H6.22222C4.57199 9.84211 2.98934 10.502 1.82245 11.6765C0.655554 12.8511 0 14.4442 0 16.1053V17H1.77778V16.1053C1.77778 14.9188 2.24603 13.7809 3.07953 12.9419C3.91302 12.1029 5.04348 11.6316 6.22222 11.6316H9.77778C10.9565 11.6316 12.087 12.1029 12.9205 12.9419C13.754 13.7809 14.2222 14.9188 14.2222 16.1053V17H16Z" fill="#CCCCCC"/>
</svg>