<svg width="17" height="16" viewBox="0 0 17 16" fill="none" xmlns="http://www.w3.org/2000/svg">
<path d="M15.3812 2.88H12.7145V1.28C12.7145 0.574 12.1166 0 11.3812 0H4.71452C3.9791 0 3.38119 0.574 3.38119 1.28V2.88H0.714518C0.345768 2.88 0.0478516 3.166 0.0478516 3.52V4.16C0.0478516 4.248 0.122852 4.32 0.214518 4.32H1.47285L1.98744 14.78C2.02077 15.462 2.60827 16 3.31869 16H12.777C13.4895 16 14.0749 15.464 14.1083 14.78L14.6229 4.32H15.8812C15.9729 4.32 16.0479 4.248 16.0479 4.16V3.52C16.0479 3.166 15.7499 2.88 15.3812 2.88ZM11.2145 2.88H4.88119V1.44H11.2145V2.88Z" fill="#B4B4B4"/>
</svg>
