<svg width="17" height="17" viewBox="0 0 17 17" fill="none" xmlns="http://www.w3.org/2000/svg">
    <path d="M16.9292 3.22292L15.5125 0.389583C15.4515 0.272969 15.36 0.17512 15.2477 0.1065C15.1354 0.0378792 15.0066 0.00106724 14.875 0H2.125C1.99341 0.00106724 1.86458 0.0378792 1.75229 0.1065C1.64001 0.17512 1.54848 0.272969 1.4875 0.389583L0.0708333 3.22292C0.0254735 3.32314 0.00135627 3.43167 0 3.54167V15.5833C0 15.9591 0.149255 16.3194 0.414932 16.5851C0.680609 16.8507 1.04094 17 1.41667 17H15.5833C15.9591 17 16.3194 16.8507 16.5851 16.5851C16.8507 16.3194 17 15.9591 17 15.5833V3.54167C16.9986 3.43167 16.9745 3.32314 16.9292 3.22292V3.22292ZM2.55885 1.41667H14.4411L15.1495 2.83333H1.85052L2.55885 1.41667ZM15.5833 15.5833H1.41667V4.25H15.5833V15.5833ZM12.0063 9.95208C12.1387 10.0849 12.2131 10.2648 12.2131 10.4523C12.2131 10.6399 12.1387 10.8198 12.0063 10.9526L9.00469 13.963C8.8693 14.0939 8.68833 14.1671 8.5 14.1671C8.31167 14.1671 8.1307 14.0939 7.99531 13.963L4.99375 10.9526C4.87166 10.8179 4.80606 10.6413 4.81054 10.4596C4.81502 10.2778 4.88922 10.1047 5.01779 9.97613C5.14636 9.84755 5.31945 9.77335 5.50122 9.76887C5.683 9.7644 5.85953 9.82999 5.99427 9.95208L7.79167 11.7495V6.375C7.79167 6.18714 7.86629 6.00697 7.99913 5.87413C8.13197 5.74129 8.31214 5.66667 8.5 5.66667C8.68786 5.66667 8.86803 5.74129 9.00087 5.87413C9.13371 6.00697 9.20833 6.18714 9.20833 6.375V11.7495L11.0057 9.95208C11.1385 9.81962 11.3184 9.74522 11.506 9.74522C11.6936 9.74522 11.8735 9.81962 12.0063 9.95208V9.95208Z" fill="#00CD69"/>
</svg>