<svg width="30" height="36" viewBox="0 0 30 36" fill="none" xmlns="http://www.w3.org/2000/svg">
<path d="M15 0V10.8C15 11.7548 15.3951 12.6705 16.0984 13.3456C16.8016 14.0207 17.7554 14.4 18.75 14.4H30V32.4C30 33.3548 29.6049 34.2705 28.9016 34.9456C28.1984 35.6207 27.2446 36 26.25 36H3.75C2.75544 36 1.80161 35.6207 1.09835 34.9456C0.395088 34.2705 0 33.3548 0 32.4V3.6C0 2.64522 0.395088 1.72955 1.09835 1.05442C1.80161 0.379284 2.75544 0 3.75 0H15ZM17.8125 0.9V10.8C17.8125 11.0387 17.9113 11.2676 18.0871 11.4364C18.2629 11.6052 18.5014 11.7 18.75 11.7H29.0625L17.8125 0.9Z" fill="#419FD9"/>
</svg>
