<svg width="18" height="19" viewBox="0 0 18 19" fill="none" xmlns="http://www.w3.org/2000/svg">
    <path d="M0.765217 0C0.562269 0 0.367633 0.0834077 0.224127 0.231874C0.080621 0.38034 0 0.581704 0 0.791667C0 1.00163 0.080621 1.20299 0.224127 1.35146C0.367633 1.49993 0.562269 1.58333 0.765217 1.58333H1.1417C1.30787 1.58363 1.46942 1.63987 1.60195 1.74356C1.73448 1.84726 1.83078 1.99276 1.87631 2.15808L4.30358 10.9456C4.44087 11.4415 4.73048 11.8777 5.12864 12.1882C5.5268 12.4987 6.01186 12.6667 6.51047 12.6667H13.503C13.9619 12.6667 14.4103 12.5245 14.7903 12.2584C15.1703 11.9923 15.4645 11.6144 15.6349 11.1736L17.8908 5.33742C17.9835 5.09727 18.018 4.83727 17.9912 4.58016C17.9644 4.32304 17.8771 4.07664 17.737 3.86248C17.5968 3.64832 17.4082 3.47292 17.1874 3.35163C16.9666 3.23033 16.7205 3.16683 16.4705 3.16667H3.7465L3.34706 1.72267C3.21012 1.22672 2.92086 0.790378 2.52298 0.479586C2.12511 0.168794 1.64025 0.000450249 1.1417 0H0.765217ZM6.88695 19C7.18842 19 7.48694 18.9386 7.76546 18.8192C8.04398 18.6999 8.29705 18.5249 8.51023 18.3044C8.7234 18.0838 8.89249 17.822 9.00786 17.5339C9.12323 17.2457 9.18261 16.9369 9.18261 16.625C9.18261 16.3131 9.12323 16.0043 9.00786 15.7161C8.89249 15.428 8.7234 15.1662 8.51023 14.9456C8.29705 14.7251 8.04398 14.5501 7.76546 14.4308C7.48694 14.3114 7.18842 14.25 6.88695 14.25C6.27811 14.25 5.6942 14.5002 5.26368 14.9456C4.83317 15.391 4.5913 15.9951 4.5913 16.625C4.5913 17.2549 4.83317 17.859 5.26368 18.3044C5.6942 18.7498 6.27811 19 6.88695 19ZM13.0087 19C13.3102 19 13.6087 18.9386 13.8872 18.8192C14.1657 18.6999 14.4188 18.5249 14.632 18.3044C14.8451 18.0838 15.0142 17.822 15.1296 17.5339C15.245 17.2457 15.3043 16.9369 15.3043 16.625C15.3043 16.3131 15.245 16.0043 15.1296 15.7161C15.0142 15.428 14.8451 15.1662 14.632 14.9456C14.4188 14.7251 14.1657 14.5501 13.8872 14.4308C13.6087 14.3114 13.3102 14.25 13.0087 14.25C12.3998 14.25 11.8159 14.5002 11.3854 14.9456C10.9549 15.391 10.713 15.9951 10.713 16.625C10.713 17.2549 10.9549 17.859 11.3854 18.3044C11.8159 18.7498 12.3998 19 13.0087 19Z" fill="white"/>
</svg>