<svg width="38" height="38" viewBox="0 0 38 38" fill="none" xmlns="http://www.w3.org/2000/svg">
<rect x="1.64648" y="1.64844" width="34.7059" height="34.7059" rx="1" stroke="#419FD9" stroke-width="2"/>
<path d="M35.7503 36.0629H1.5752V30.2654L11.8277 15.7715L25.8703 30.2654L35.7503 24.4678V36.0629Z" fill="#419FD9"/>
<path d="M31.1002 12.1024C31.0997 13.6602 30.4804 15.154 29.3784 16.2552C28.2765 17.3564 26.7823 17.9748 25.2244 17.9742C23.6666 17.9737 22.1728 17.3544 21.0716 16.2525C19.9704 15.1505 19.352 13.6563 19.3525 12.0984C19.3531 10.5406 19.9724 9.04678 21.0743 7.94559C22.1763 6.8444 23.6705 6.22604 25.2283 6.22656C26.7862 6.22708 28.28 6.84643 29.3812 7.94836C30.4824 9.05028 31.1007 10.5445 31.1002 12.1024Z" fill="#419FD9"/>
</svg>
