<svg width="18" height="18" viewBox="0 0 18 18" fill="none" xmlns="http://www.w3.org/2000/svg">
<path d="M9 0C4.02991 0 0 4.02991 0 9C0 13.9701 4.02991 18 9 18C13.9701 18 18 13.9701 18 9C18 4.02991 13.9701 0 9 0ZM9 16.4732C4.87366 16.4732 1.52679 13.1263 1.52679 9C1.52679 4.87366 4.87366 1.52679 9 1.52679C13.1263 1.52679 16.4732 4.87366 16.4732 9C16.4732 13.1263 13.1263 16.4732 9 16.4732Z" fill="#00CD69"/>
<path d="M12.5079 11.5419L9.64319 9.4707V4.4986C9.64319 4.41021 9.57087 4.33789 9.48248 4.33789H8.51618C8.42779 4.33789 8.35547 4.41021 8.35547 4.4986V10.0312C8.35547 10.0834 8.37958 10.1316 8.42176 10.1618L11.7445 12.5845C11.8169 12.6368 11.9173 12.6207 11.9695 12.5504L12.5441 11.7669C12.5963 11.6926 12.5802 11.5921 12.5079 11.5419Z" fill="#00CD69"/>
</svg>
