<svg width="19" height="19" viewBox="0 0 19 19" fill="none" xmlns="http://www.w3.org/2000/svg">
<path d="M9.50028 4.07031C8.82924 4.07031 8.17326 4.2693 7.61531 4.64211C7.05736 5.01492 6.62249 5.54482 6.36569 6.16478C6.10889 6.78474 6.0417 7.46693 6.17262 8.12508C6.30353 8.78323 6.62667 9.38778 7.10117 9.86228C7.57567 10.3368 8.18022 10.6599 8.83837 10.7908C9.49652 10.9217 10.1787 10.8546 10.7987 10.5978C11.4186 10.341 11.9485 9.90609 12.3213 9.34814C12.6941 8.79019 12.8931 8.13421 12.8931 7.46317C12.8931 6.56333 12.5357 5.70034 11.8994 5.06406C11.2631 4.42777 10.4001 4.07031 9.50028 4.07031ZM9.50028 9.49888C9.09765 9.49888 8.70407 9.37949 8.3693 9.1558C8.03453 8.93212 7.7736 8.61418 7.61953 8.2422C7.46545 7.87022 7.42513 7.46091 7.50368 7.06602C7.58223 6.67113 7.77611 6.3084 8.06081 6.0237C8.34551 5.739 8.70824 5.54512 9.10313 5.46657C9.49802 5.38802 9.90734 5.42834 10.2793 5.58241C10.6513 5.73649 10.9692 5.99742 11.1929 6.33219C11.4166 6.66696 11.536 7.06054 11.536 7.46317C11.5355 8.00291 11.3208 8.52039 10.9392 8.90204C10.5575 9.28369 10.04 9.49834 9.50028 9.49888Z" fill="white"/>
<path d="M9.5 0C7.62108 0 5.78435 0.557165 4.22209 1.60104C2.65982 2.64491 1.44218 4.12861 0.723149 5.86451C0.00411619 7.6004 -0.184015 9.51054 0.182544 11.3534C0.549104 13.1962 1.45389 14.8889 2.78249 16.2175C4.11109 17.5461 5.80383 18.4509 7.64665 18.8175C9.48946 19.184 11.3996 18.9959 13.1355 18.2769C14.8714 17.5578 16.3551 16.3402 17.399 14.7779C18.4428 13.2156 19 11.3789 19 9.5C18.9971 6.98132 17.9953 4.56663 16.2143 2.78566C14.4334 1.00469 12.0187 0.00287356 9.5 0V0ZM5.42857 16.5415V15.6071C5.42911 15.0674 5.64376 14.5499 6.02542 14.1683C6.40707 13.7866 6.92455 13.572 7.46429 13.5714H11.5357C12.0755 13.572 12.5929 13.7866 12.9746 14.1683C13.3562 14.5499 13.5709 15.0674 13.5714 15.6071V16.5415C12.3359 17.263 10.9308 17.6432 9.5 17.6432C8.06922 17.6432 6.66414 17.263 5.42857 16.5415V16.5415ZM14.9231 15.5569C14.9096 14.6669 14.547 13.8177 13.9134 13.1925C13.2798 12.5673 12.4259 12.216 11.5357 12.2143H7.46429C6.57413 12.216 5.72025 12.5673 5.08663 13.1925C4.45302 13.8177 4.09038 14.6669 4.07686 15.5569C2.84631 14.4581 1.97853 13.0115 1.58843 11.4086C1.19832 9.80566 1.30429 8.12205 1.89229 6.58069C2.4803 5.03932 3.52262 3.71292 4.88122 2.7771C6.23982 1.84128 7.85063 1.3402 9.50034 1.3402C11.1501 1.3402 12.7609 1.84128 14.1195 2.7771C15.4781 3.71292 16.5204 5.03932 17.1084 6.58069C17.6964 8.12205 17.8024 9.80566 17.4123 11.4086C17.0221 13.0115 16.1544 14.4581 14.9238 15.5569H14.9231Z" fill="white"/>
</svg>
