<svg width="417" height="343" viewBox="0 0 417 343" fill="none" xmlns="http://www.w3.org/2000/svg">
<g opacity="0.5">
<g opacity="0.5">
<g opacity="0.5">
<g opacity="0.5">
<path opacity="0.5" d="M225.384 130.851C207.607 128.26 190.723 121.024 176.162 110.036C154.455 93.5994 108.985 65.7279 65.5699 79.6637C5.71773 98.87 5.44973 154.256 21.0828 184.45C36.6265 214.554 147.13 302.814 290.418 288.789C418.608 276.193 443.621 132.459 375.193 106.463C315.966 83.7729 295.777 141.213 225.384 130.851Z" fill="#9AB8DE"/>
</g>
</g>
</g>
<g opacity="0.5">
<g opacity="0.5">
<g opacity="0.5">
<path opacity="0.5" d="M397.432 125.693C397.432 85.9408 364.29 42.2577 323.019 39.6671C322.305 39.5777 321.59 39.5777 320.786 39.5777C261.648 36.8085 257.182 108.899 203.672 117.028C150.163 125.157 109.338 84.0649 45.3765 110.864C-12.0637 134.984 -27.6074 270.143 141.229 275.592C276.388 279.88 397.432 244.415 397.432 125.693Z" fill="#9AB8DE"/>
</g>
</g>
</g>
<g opacity="0.5">
<g opacity="0.5">
<g opacity="0.5">
<path opacity="0.5" d="M371.708 271.107C372.691 275.395 369.475 279.593 364.562 280.487C359.559 281.38 354.735 278.611 353.663 274.323C352.68 270.035 355.896 265.836 360.81 264.943C365.812 264.05 370.636 266.819 371.708 271.107Z" fill="#9AB8DE"/>
</g>
</g>
</g>
<g opacity="0.5">
<g opacity="0.5">
<g opacity="0.5">
<path opacity="0.5" d="M415.483 109.602C415.483 112.908 412.982 115.588 409.945 115.588C406.908 115.588 404.406 112.908 404.406 109.602C404.406 106.297 406.908 103.617 409.945 103.617C412.982 103.617 415.483 106.297 415.483 109.602Z" fill="#9AB8DE"/>
</g>
</g>
</g>
<g opacity="0.5">
<g opacity="0.5">
<g opacity="0.5">
<path opacity="0.5" d="M53.7791 63.4024C56.1018 62.9557 58.4244 64.2063 59.2284 66.4396C60.5683 70.1916 56.9951 74.3901 52.1712 72.5142C47.9726 69.3876 49.7592 64.2063 53.7791 63.4024Z" fill="#9AB8DE"/>
</g>
</g>
</g>
<g opacity="0.5">
<g opacity="0.5">
<g opacity="0.5">
<path opacity="0.5" d="M384.843 264.036C385.468 266.627 383.771 269.128 381.18 269.575C378.59 270.021 375.91 268.324 375.284 265.733C374.659 263.143 376.356 260.642 378.947 260.195C381.627 259.659 384.307 261.445 384.843 264.036Z" fill="#9AB8DE"/>
</g>
</g>
</g>
<g opacity="0.5">
<path opacity="0.5" d="M59.2145 271.383C60.4671 266.102 57.2018 260.806 51.9213 259.554C46.6408 258.301 41.3447 261.567 40.0922 266.847C38.8396 272.128 42.1049 277.424 47.3854 278.676C52.6659 279.929 57.9619 276.663 59.2145 271.383Z" fill="#9AB8DE"/>
</g>
<g opacity="0.5">
<path opacity="0.5" d="M83.2084 61.3033C84.7865 56.1108 81.8565 50.622 76.6639 49.0438C71.4714 47.4657 65.9826 50.3957 64.4044 55.5883C62.8262 60.7808 65.7563 66.2696 70.9488 67.8478C76.1414 69.426 81.6302 66.4959 83.2084 61.3033Z" fill="#9AB8DE"/>
</g>
<g opacity="0.5">
<path opacity="0.5" d="M37.1608 254.137C37.1608 257.442 34.4809 260.212 31.0863 260.212C27.781 260.212 25.0117 257.532 25.0117 254.137C25.0117 250.832 27.6917 248.062 31.0863 248.062C34.4809 248.062 37.1608 250.742 37.1608 254.137Z" fill="#9AB8DE"/>
</g>
</g>
<g opacity="0.8">
<path opacity="0.8" d="M208.5 342.927C323.651 342.927 417 335.288 417 325.865C417 316.442 323.651 308.803 208.5 308.803C93.3486 308.803 0 316.442 0 325.865C0 335.288 93.3486 342.927 208.5 342.927Z" fill="#81A7CB"/>
</g>
<path d="M376.712 106.912V289.505C376.712 296.563 370.994 302.191 364.027 302.191H53.9566C46.8994 302.191 41.2715 296.473 41.2715 289.505V106.912C41.2715 99.8545 46.9887 94.2266 53.9566 94.2266H364.027C371.084 94.2266 376.712 99.8545 376.712 106.912Z" fill="black"/>
<path d="M361.793 116.379V268.69C361.793 273.156 357.952 276.819 353.128 276.819H64.8546C62.264 276.819 60.0307 275.747 58.4227 274.139C57.0828 272.71 56.1895 270.834 56.1895 268.69V116.379C56.1895 111.913 60.0307 108.25 64.8546 108.25H353.217C354.825 108.25 356.344 108.697 357.594 109.322C360.096 110.751 361.793 113.342 361.793 116.379Z" fill="#0592F5"/>
<g opacity="0.5">
<path opacity="0.5" d="M249.056 240.908C293.632 219.111 297.205 177.929 277.82 158.902C256.47 137.998 189.382 132.995 189.382 132.995C189.382 132.995 140.875 128.44 136.23 158.902C136.23 158.902 131.942 169.621 150.791 184.093C169.64 198.565 157.491 211.518 149.63 219.379C141.768 227.24 130.513 248.233 149.183 261.186C168.389 274.318 249.056 240.908 249.056 240.908Z" fill="#0051B6"/>
</g>
<path d="M408.067 294.959V296.12C408.067 301.838 406.191 307.197 403.064 311.575C398.241 318.185 390.469 322.473 381.714 322.473H36.2688C27.5143 322.473 19.7425 318.185 14.9186 311.575C11.792 307.287 9.91602 301.927 9.91602 296.12V294.959H408.067Z" fill="#434C56"/>
<path d="M211.985 308.71C211.985 310.854 210.288 312.552 208.144 312.552C206 312.552 204.303 310.854 204.303 308.71C204.303 306.566 206 304.869 208.144 304.869C210.288 304.869 211.985 306.566 211.985 308.71Z" fill="black"/>
<path d="M198.495 308.71C198.495 310.854 196.798 312.552 194.654 312.552C192.51 312.552 190.812 310.854 190.812 308.71C190.812 306.566 192.51 304.869 194.654 304.869C196.798 304.869 198.495 306.566 198.495 308.71Z" fill="black"/>
<path d="M225.386 308.71C225.386 310.854 223.688 312.552 221.544 312.552C219.4 312.552 217.703 310.854 217.703 308.71C217.703 306.566 219.4 304.869 221.544 304.869C223.688 304.869 225.386 306.566 225.386 308.71Z" fill="black"/>
<path d="M164.371 294.959V295.227C164.371 297.282 165.8 298.979 167.498 298.979H248.789C250.487 298.979 251.916 297.282 251.916 295.227V294.959H164.371Z" fill="#CEDCEC"/>
<path d="M361.793 116.914V126.472H56.1895V116.914C56.1895 115.038 56.7254 113.34 57.7081 112C59.2267 109.767 61.9067 108.338 64.7653 108.338H353.128C356.076 108.338 358.666 109.767 360.185 112C361.257 113.34 361.793 115.038 361.793 116.914Z" fill="white"/>
<path d="M337.229 117.813C337.229 119.064 336.247 120.135 334.907 120.135C333.656 120.135 332.584 119.153 332.584 117.813C332.584 116.562 333.567 115.49 334.907 115.49C336.247 115.58 337.229 116.562 337.229 117.813Z" fill="#FD615B"/>
<path d="M344.641 117.813C344.641 119.064 343.659 120.135 342.319 120.135C341.068 120.135 339.996 119.153 339.996 117.813C339.996 116.562 340.979 115.49 342.319 115.49C343.659 115.58 344.641 116.562 344.641 117.813Z" fill="#0592F5"/>
<path d="M351.702 117.813C351.702 119.064 350.719 120.135 349.379 120.135C348.129 120.135 347.057 119.153 347.057 117.813C347.057 116.562 348.039 115.49 349.379 115.49C350.719 115.58 351.702 116.562 351.702 117.813Z" fill="black"/>
<path d="M321.056 120.228H88.2582C87.0075 120.228 85.9355 119.156 85.9355 117.906V117.727C85.9355 116.476 87.0075 115.404 88.2582 115.404H321.056C322.307 115.404 323.379 116.476 323.379 117.727V117.906C323.379 119.246 322.396 120.228 321.056 120.228Z" fill="#CEDCEC"/>
<path d="M70.6612 117.812V120.045C70.6612 120.403 70.3039 120.581 70.0359 120.403L68.0706 119.241L66.1053 118.08C65.8373 117.901 65.8373 117.544 66.1053 117.365L68.0706 116.204L70.0359 115.043C70.3039 114.864 70.6612 115.043 70.6612 115.4V117.812Z" fill="black"/>
<path d="M74.0547 117.812V120.045C74.0547 120.403 74.412 120.581 74.68 120.403L76.6453 119.241L78.6106 118.08C78.8786 117.901 78.8786 117.544 78.6106 117.365L76.6453 116.204L74.68 115.043C74.412 114.864 74.0547 115.043 74.0547 115.4V117.812Z" fill="black"/>
<path d="M268.042 154.912C268.042 154.912 267.327 161.165 259.109 164.381C250.89 167.597 241.868 168.58 239.902 165.989C239.902 165.989 243.029 153.394 268.042 154.912Z" fill="#CEDCEC"/>
<path d="M245.169 83.3519C246.33 88.8904 247.581 94.5183 248.831 100.057C250.082 105.595 251.333 111.223 252.673 116.762L254.638 125.07C255.353 127.839 255.978 130.608 256.693 133.378C258.033 138.916 259.462 144.365 260.98 149.636C261.784 152.316 262.499 154.906 263.392 157.318L264.018 159.105L264.375 159.998C264.464 160.266 264.643 160.624 264.732 160.892L265.447 162.678C265.715 163.304 265.894 163.929 266.251 164.465C268.395 169.378 270.896 174.291 273.487 179.205C276.078 184.118 278.847 189.031 281.705 193.855C283.135 196.267 284.564 198.679 286.083 201.091C286.797 202.342 287.512 203.503 288.316 204.664L290.549 208.148L290.639 208.237C293.587 212.972 292.157 219.136 287.512 222.084C282.956 224.942 276.971 223.692 273.934 219.315C273.04 218.064 272.236 216.813 271.432 215.652C270.628 214.401 269.824 213.24 269.02 211.989C267.412 209.577 265.804 207.076 264.196 204.575C261.07 199.662 257.943 194.57 254.995 189.478C252.047 184.297 249.099 179.115 246.419 173.577C246.062 172.862 245.794 172.147 245.437 171.433L244.454 169.289C244.275 168.932 244.097 168.574 244.007 168.217L243.561 167.056L242.667 164.822C241.506 161.874 240.524 158.926 239.63 156.157C237.754 150.44 236.057 144.901 234.449 139.273C233.645 136.504 232.841 133.646 232.037 130.876L229.714 122.479C228.196 116.851 226.677 111.313 225.248 105.685C223.729 100.057 222.3 94.5183 220.871 88.8904C219.173 82.1905 223.193 75.312 229.982 73.6147C236.682 71.9174 243.561 75.9373 245.258 82.7265C245.169 82.9945 245.169 83.0839 245.169 83.3519Z" fill="#FFA87F"/>
<path d="M258.741 230.477L321.719 195.548C322.881 194.923 323.327 193.404 322.702 192.153L298.225 148.024C297.6 146.862 296.081 146.416 294.831 147.041L231.852 181.97C230.69 182.595 230.244 184.114 230.869 185.364L255.346 229.494C255.971 230.745 257.49 231.191 258.741 230.477Z" fill="black"/>
<path d="M316.1 190.464L296.179 154.552C295.643 153.659 294.571 153.302 293.678 153.838L244.992 180.816C244.099 181.352 243.741 182.424 244.277 183.317L264.198 219.229C264.734 220.122 265.806 220.479 266.699 219.943L315.385 192.965C316.279 192.518 316.636 191.357 316.1 190.464Z" fill="#434C56"/>
<path d="M297.87 217.355C297.87 217.355 301.443 213.425 304.569 209.226C307.16 205.742 307.249 203.598 307.249 203.598C304.659 204.938 301.621 206.635 298.674 208.422C298.674 208.422 298.495 206.457 296.708 204.938C294.922 203.419 288.668 198.149 287.15 199.221C283.666 201.633 291.438 208.333 291.438 208.333C291.438 208.333 283.219 201.097 281.075 203.151C279.289 204.759 284.916 212.71 284.916 212.71C284.916 212.71 279.11 205.385 277.145 208.333C275.09 211.459 282.236 216.908 282.236 216.908C282.236 216.908 275.983 213.871 275.358 215.122C274.465 216.908 276.341 220.124 281.165 223.966C286.078 227.807 297.87 217.355 297.87 217.355Z" fill="#FFA87F"/>
<path d="M246.058 205.817C246.862 207.246 248.649 207.782 250.078 206.978C251.508 206.174 252.044 204.387 251.24 202.958C250.436 201.529 248.649 200.993 247.22 201.797C245.79 202.601 245.254 204.387 246.058 205.817Z" fill="#2C5383"/>
<path d="M236.056 72.0973C236.056 72.0973 244.274 74.1519 246.329 83.3531C248.383 92.6436 262.676 146.332 267.947 154.818C255.083 154.282 246.239 158.66 239.808 165.896C239.808 165.896 218.547 94.8769 219.797 84.7824C221.227 74.7773 230.428 71.1147 236.056 72.0973Z" fill="white"/>
<path d="M170.664 56.2192C180.312 61.2218 191.747 61.7578 204.521 59.3458L208.63 1.45895C208.63 1.45895 194.248 -2.82896 182.546 6.72952C174.327 13.4294 166.645 27.3651 170.218 51.574C170.396 53.182 170.575 54.7006 170.664 56.2192Z" fill="black"/>
<path d="M226.945 56.2022C225.338 46.5544 229.804 31.1 228.464 17.8789C226.856 1.53125 208.543 1.53125 208.543 1.53125L192.91 42.4451C192.91 42.4451 195.858 50.3956 196.126 56.2915C196.662 67.9046 226.945 56.2022 226.945 56.2022Z" fill="black"/>
<path d="M281.795 276.506C278.311 264.178 274.47 251.314 270.807 238.897C270.718 238.45 270.539 238.004 270.45 237.557C268.396 230.589 266.341 223.8 264.376 217.368C264.286 216.921 264.108 216.475 264.018 216.028C263.661 214.956 263.393 213.973 263.036 212.901C262.857 212.455 262.768 212.008 262.678 211.561C254.906 186.281 248.921 167.521 248.921 167.521L175.848 159.928C175.223 172.345 171.739 195.124 167.451 219.959C167.361 220.405 167.272 220.852 167.183 221.299C167.004 222.371 166.825 223.443 166.647 224.515C166.557 224.961 166.468 225.408 166.379 225.854C165.575 230.232 164.771 234.698 163.967 239.165C163.788 239.969 163.699 240.684 163.52 241.488C161.287 253.547 158.964 265.518 156.82 276.506H281.795Z" fill="white"/>
<path d="M180.227 175.258L185.408 197.144C198.45 196.072 213.815 194.196 225.428 188.211C225.428 188.211 240.883 193.392 248.744 190.98L243.027 175.258H180.227Z" fill="white"/>
<path d="M172.444 197.157C175.66 182.149 176.196 165.355 176.196 165.355C175.571 160.888 175.571 155.975 174.32 151.24C170.569 140.431 166.191 132.659 162.261 121.493C161.993 120.778 161.725 120.064 161.457 119.349C161.278 118.902 161.099 118.366 160.921 117.92C159.67 114.436 158.241 110.952 156.811 107.557C150.558 92.9069 149.486 76.3806 164.583 71.378C165.655 71.0207 166.727 70.6633 167.799 70.306C174.946 68.0727 180.931 66.5541 182.539 66.1968C182.807 66.1074 182.986 66.1074 182.986 66.1074L214.698 68.698L217.736 68.966C222.202 69.502 226.847 69.3234 229.795 69.9487C232.386 70.4847 233.994 70.3954 236.674 71.1993C242.927 73.0753 242.748 81.4725 244.714 91.9243C244.714 92.1029 244.803 92.2816 244.803 92.4602C244.803 92.5496 244.803 92.5496 244.803 92.6389C245.16 94.4256 245.518 96.2122 246.054 97.9095C246.59 99.8748 247.126 101.751 247.751 103.627C251.414 115.061 255.791 120.332 255.076 127.568C254.362 134.089 247.751 143.022 245.964 144.898C245.518 145.345 245.339 145.613 245.339 145.613V145.702C245.339 145.97 245.428 146.238 245.428 146.506C245.518 147.578 245.786 148.918 245.964 150.436C250.252 172.769 255.523 191.618 255.523 191.618C255.523 191.618 208.177 199.301 172.444 197.157Z" fill="white"/>
<path d="M248.733 141.482C248.912 141.482 249.18 141.392 249.358 141.214C249.716 140.767 258.917 131.03 255.701 122.097C254.808 119.595 253.825 117.094 252.664 114.503C249.358 106.464 245.606 97.3517 244.624 85.4706C244.624 85.024 244.177 84.6666 243.73 84.756C243.284 84.756 242.926 85.2026 243.016 85.6493C243.998 97.7091 247.84 107 251.145 115.129C252.217 117.719 253.289 120.221 254.093 122.722C256.951 130.672 248.197 140.052 248.108 140.142C247.84 140.499 247.84 140.946 248.108 141.303C248.376 141.392 248.554 141.482 248.733 141.482Z" fill="#CEDCEC"/>
<path d="M218.724 114.967C215.687 113.627 208.272 111.126 204.431 102.014C204.163 101.299 203.806 100.584 203.538 99.8698C196.57 83.9688 187.994 67.6211 187.994 67.6211L211.22 68.4251C211.22 68.4251 218.546 82.5395 222.655 94.5099C223.012 95.4925 223.459 96.3859 223.637 97.3685C224.709 105.944 218.724 114.967 218.724 114.967Z" fill="#1EB8FF"/>
<path d="M211.128 83.8732C211.039 84.5878 210.503 85.0345 209.788 85.0345C209.074 84.9452 208.627 84.4092 208.627 83.6945C208.716 82.9799 209.252 82.5332 209.967 82.5332C210.682 82.6225 211.218 83.1585 211.128 83.8732Z" fill="#0592F5"/>
<path d="M212.915 88.965C212.826 89.6796 212.29 90.1263 211.575 90.1263C210.861 90.037 210.414 89.501 210.414 88.7863C210.503 88.0717 211.039 87.625 211.754 87.625C212.469 87.7143 212.915 88.2503 212.915 88.965Z" fill="#0592F5"/>
<path d="M214.792 93.6954C214.703 94.4101 214.167 94.8568 213.452 94.8568C212.738 94.7674 212.291 94.2314 212.291 93.5168C212.38 92.8021 212.916 92.3555 213.631 92.3555C214.346 92.3555 214.882 92.9808 214.792 93.6954Z" fill="#0592F5"/>
<path d="M223.636 95.748C223.725 95.9267 223.636 96.1054 223.546 96.284C222.028 98.964 218.99 102.627 213.452 102.269C210.861 102.091 207.556 100.751 204.072 98.8746C203.893 98.7853 203.804 98.696 203.804 98.5173C203.536 97.892 204.161 97.356 204.787 97.624C208.003 99.4106 211.218 100.661 213.63 100.84C218.454 101.197 221.134 97.9813 222.474 95.5694C222.653 95.1227 223.457 95.1227 223.636 95.748Z" fill="#0592F5"/>
<path d="M218.725 35.661C218.725 35.661 222.298 31.4624 224.352 35.661C226.407 39.8595 224.799 48.4354 219.35 47.0954L218.725 35.661Z" fill="#EF6A3F"/>
<path d="M219.434 54.9284C216.129 54.9284 213.359 52.2485 213.359 48.8538C213.359 45.5486 216.039 42.7793 219.434 42.7793C222.739 42.7793 225.508 45.4592 225.508 48.8538C225.508 52.2485 222.739 54.9284 219.434 54.9284ZM219.434 43.7619C216.575 43.7619 214.253 46.0846 214.253 48.9432C214.253 51.8018 216.575 54.1244 219.434 54.1244C222.293 54.1244 224.615 51.8018 224.615 48.9432C224.615 46.0846 222.293 43.7619 219.434 43.7619Z" fill="white"/>
<path d="M210.051 57.6614L210.497 69.1852C210.497 69.1852 203.887 79.4583 185.484 67.2199C188.968 63.2893 189.058 55.9641 187.718 51.4082C187.718 51.4082 189.058 51.8549 191.291 53.1948C191.738 53.4628 192.274 53.6415 192.72 53.8202C197.276 55.7854 204.244 58.1081 210.051 57.6614Z" fill="#FFA87F"/>
<path d="M204.697 72.8895C204.697 72.8895 210.057 67.7083 210.236 63.1523C210.236 63.1523 213.362 66.7256 215.685 71.9068C218.812 78.964 213.898 83.0733 213.898 83.0733L204.697 72.8895Z" fill="#0592F5"/>
<path d="M186.74 62.4355C186.74 62.4355 197.996 72.8873 204.696 72.8873L205.857 85.4831L194.959 83.9645C194.869 83.9645 188.438 70.6541 186.74 62.4355Z" fill="#0592F5"/>
<path d="M210.057 57.701L210.325 63.1502C205.322 62.0782 196.299 59.3089 191.297 53.2344C191.744 53.413 192.28 53.681 192.726 53.8597C197.282 55.825 204.25 58.1476 210.057 57.701Z" fill="black"/>
<path d="M222.654 35.6106C222.654 36.8612 222.654 37.9332 222.654 39.0052C222.564 47.313 222.028 51.7796 220.063 53.8342C210.237 64.018 188.44 51.8689 187.725 51.5116C187.546 50.6183 187.368 49.725 187.189 48.8316C185.76 41.2385 185.67 34.2706 186.474 27.5707C186.117 20.5135 190.316 13.9923 196.926 11.5804C203.805 9.07907 209.879 12.1163 213.631 13.1883C219.17 14.8856 222.743 22.1215 222.743 32.3946C222.654 33.5559 222.654 34.6279 222.654 35.6106Z" fill="#FFA87F"/>
<path d="M216.223 23.1543C216.223 23.1543 214.169 23.333 214.883 25.2089C215.598 27.0849 219.707 25.0303 222.655 28.4249C222.566 28.4249 223.817 23.9583 216.223 23.1543Z" fill="black"/>
<path d="M219.624 40.5347C215.783 39.5521 213.549 35.6215 214.532 31.7802C215.515 27.939 219.445 25.7057 223.287 26.6883C227.128 27.671 229.361 31.6015 228.378 35.4428C227.396 39.2841 223.465 41.6067 219.624 40.5347ZM223.019 27.671C219.713 26.7776 216.408 28.7429 215.515 32.0482C214.621 35.3535 216.587 38.6587 219.892 39.5521C223.197 40.4454 226.502 38.4801 227.396 35.1748C228.2 31.9589 226.235 28.5643 223.019 27.671Z" fill="white"/>
<path d="M228.01 32.5296C226.045 31.8149 224.169 31.9042 222.65 32.0829V33.1549C223.99 32.9762 225.777 32.8869 227.653 33.5122C227.742 33.5122 227.742 33.5122 227.832 33.5122C228.01 33.5122 228.189 33.3336 228.278 33.1549C228.457 32.8869 228.278 32.6189 228.01 32.5296Z" fill="white"/>
<path d="M212.648 38.6658C212.47 38.6658 212.202 38.5764 212.112 38.3084C212.023 38.0404 212.112 37.6831 212.38 37.5938L214.881 36.5218L212.916 34.7352C212.827 34.6458 212.738 34.5565 212.738 34.3778L211.934 29.3753C211.844 29.1073 212.112 28.8393 212.38 28.7499C212.648 28.6606 212.916 28.9286 213.006 29.1966L213.72 34.0205L216.132 36.2538C216.311 36.3431 216.311 36.5218 216.311 36.7898C216.311 36.9685 216.132 37.1471 215.953 37.2364L212.648 38.6658C212.648 38.6658 212.738 38.6658 212.648 38.6658Z" fill="black"/>
<path d="M206.922 23.1543C206.922 23.1543 208.977 23.333 208.262 25.2089C207.547 27.0849 203.438 25.0303 200.49 28.4249C200.579 28.4249 199.329 23.9583 206.922 23.1543Z" fill="black"/>
<path d="M206.294 37.3262C206.294 38.3088 204.328 39.0235 201.916 39.0235C199.504 39.0235 197.539 38.2195 197.539 37.3262C197.539 36.3436 199.504 35.6289 201.916 35.6289C204.328 35.6289 206.294 36.3436 206.294 37.3262Z" fill="#EF6A3F"/>
<path d="M203.27 40.4664C199.429 39.4837 197.196 35.5531 198.179 31.7119C199.161 27.8706 203.092 25.6373 206.933 26.62C210.774 27.6026 213.008 31.5332 212.025 35.3745C211.042 39.2157 207.112 41.449 203.27 40.4664ZM206.665 27.6026C203.36 26.7093 200.055 28.6746 199.161 31.9798C198.268 35.2851 200.233 38.5904 203.538 39.4837C206.844 40.377 210.149 38.4117 211.042 35.1065C211.846 31.8012 209.97 28.4959 206.665 27.6026Z" fill="white"/>
<path d="M211.395 32.418C211.306 32.418 211.216 32.3287 211.216 32.2394C211.038 31.9714 211.038 31.7034 211.306 31.5247C211.395 31.4354 213.003 30.1848 214.968 31.4354C215.236 31.6141 215.326 31.8821 215.147 32.1501C214.968 32.4181 214.7 32.5074 214.432 32.3287C213.092 31.5247 212.02 32.3287 212.02 32.3287C211.752 32.4181 211.574 32.418 211.395 32.418Z" fill="white"/>
<path d="M198.45 32.6144C198.36 32.6144 198.36 32.6144 198.271 32.6144C194.251 31.2744 190.767 32.9717 190.678 32.9717C190.41 33.061 190.142 32.9717 189.963 32.7037C189.874 32.4357 189.963 32.1677 190.231 31.989C190.41 31.8997 194.162 30.0237 198.628 31.5424C198.896 31.6317 199.075 31.8997 198.986 32.1677C198.896 32.525 198.718 32.6144 198.45 32.6144Z" fill="white"/>
<g opacity="0.8">
<g opacity="0.8">
<g opacity="0.8">
<g opacity="0.8">
<g opacity="0.8">
<g opacity="0.8">
<g opacity="0.8">
<g opacity="0.8">
<g opacity="0.8">
<path opacity="0.8" d="M222.645 35.6289C222.645 36.8795 222.645 37.9515 222.645 39.0235C220.412 38.9342 218.715 38.2195 218.715 37.3262C218.715 36.4329 220.412 35.7182 222.645 35.6289Z" fill="#EF6A3F"/>
</g>
</g>
</g>
</g>
</g>
</g>
</g>
</g>
</g>
<path d="M205.401 32.3968C205.401 33.7368 204.775 34.7195 204.061 34.7195C203.346 34.7195 202.721 33.6475 202.721 32.3968C202.721 31.0569 203.346 30.0742 204.061 30.0742C204.775 30.0742 205.401 31.1462 205.401 32.3968Z" fill="black"/>
<path d="M218.264 32.3968C218.264 33.7368 217.639 34.7195 216.924 34.7195C216.209 34.7195 215.584 33.6475 215.584 32.3968C215.584 31.0569 216.209 30.0742 216.924 30.0742C217.728 30.0742 218.264 31.1462 218.264 32.3968Z" fill="black"/>
<path d="M213.725 44.9186C215.244 44.9186 216.851 44.4719 218.281 43.0426C218.459 42.864 218.459 42.5066 218.281 42.2386C218.102 42.06 217.745 42.06 217.477 42.2386C213.546 46.0799 208.276 41.8813 208.097 41.7026C207.829 41.524 207.561 41.524 207.382 41.792C207.204 42.06 207.204 42.328 207.472 42.5066C207.472 42.5066 210.42 44.9186 213.725 44.9186Z" fill="black"/>
<path d="M191.922 46.2832C191.832 46.4619 190.135 50.3925 187.634 51.5538C187.455 50.6605 187.276 49.7671 187.098 48.8738C187.276 48.8738 189.778 48.4272 191.922 46.2832Z" fill="black"/>
<path d="M189.59 37.1382C189.59 37.1382 184.409 30.1703 180.568 35.6195C177.441 40.1754 183.337 51.9672 189.59 47.9473V37.1382Z" fill="#FFA87F"/>
<path d="M191.116 51.3598C191.116 54.6651 188.436 57.4343 185.041 57.4343C181.736 57.4343 178.967 54.7544 178.967 51.3598C178.967 49.0372 180.217 47.0719 182.183 46.0892C182.361 46.3572 182.54 46.5359 182.808 46.8039C181.111 47.6079 179.86 49.3945 179.86 51.4491C179.86 54.3077 182.183 56.6304 185.041 56.6304C187.9 56.6304 190.223 54.3077 190.223 51.4491C190.223 50.2878 189.865 49.2158 189.151 48.3225C188.525 47.5185 187.721 46.8932 186.739 46.6252C186.739 46.6252 186.739 46.5359 186.739 46.4466V46.3572C186.739 46.0892 186.828 45.9106 186.828 45.6426C187.9 45.9999 188.793 46.6252 189.597 47.4292C190.491 48.4119 191.116 49.8412 191.116 51.3598Z" fill="white"/>
<path d="M188.878 45.872C189.235 45.872 189.414 45.604 189.414 45.2467C188.788 39.2614 183.786 37.2068 183.518 37.1175C183.25 37.0282 182.892 37.1175 182.803 37.3855C182.714 37.6535 182.803 38.0108 183.071 38.1001C183.25 38.1895 187.716 40.0654 188.252 45.336C188.342 45.604 188.61 45.872 188.878 45.872Z" fill="black"/>
<path d="M183.878 42.6145C183.967 42.6145 184.146 42.6145 184.235 42.5252C184.682 42.1678 186.111 41.1852 187.004 41.4532C187.272 41.5425 187.54 41.3638 187.63 41.0958C187.719 40.8278 187.54 40.5599 187.272 40.4705C185.664 40.0239 183.699 41.5425 183.52 41.7212C183.252 41.8998 183.252 42.2572 183.431 42.4358C183.52 42.6145 183.699 42.6145 183.878 42.6145Z" fill="black"/>
<path d="M278.132 276.508C268.574 238.364 259.015 200.219 255.71 191.732L226.23 194.591L235.074 276.508H278.132Z" fill="white"/>
<path d="M270.364 237.564C269.739 237.743 269.114 237.921 268.399 238.01C268.22 238.01 268.042 238.1 267.774 238.1C265.004 238.457 262.503 237.743 260.27 235.956C255.625 232.204 253.302 224.7 252.23 219.608C252.141 219.162 252.051 218.715 251.962 218.268C251.694 216.839 251.515 215.767 251.426 215.142L261.878 213.087L262.86 212.908C262.771 212.462 262.592 212.015 262.503 211.568L261.61 211.747L250.622 213.891C250.265 213.98 250.086 214.248 250.086 214.606C250.175 215.231 251.783 230.775 259.466 236.939C261.431 238.547 263.664 239.35 266.166 239.44C266.791 239.44 267.327 239.44 267.952 239.35C268.22 239.35 268.488 239.261 268.756 239.261C269.471 239.172 270.096 238.993 270.722 238.725C270.632 238.368 270.454 237.921 270.364 237.564Z" fill="#CEDCEC"/>
<path d="M264.196 217.299L263.124 217.478L252.315 219.533L251.601 219.711C251.511 219.711 251.511 219.711 251.422 219.711C251.065 219.711 250.797 219.443 250.797 219.175C250.707 218.818 250.975 218.461 251.333 218.371L252.047 218.282L262.767 216.227L263.839 216.049C264.018 216.495 264.107 216.853 264.196 217.299Z" fill="#CEDCEC"/>
<path d="M235.255 276.518L218.729 115.096L173.437 197.191C171.204 204.963 166.023 240.071 160.484 276.518H235.255Z" fill="white"/>
<path d="M224.176 183.794C227.392 209.342 230.876 242.663 232.216 276.43H233.913C232.573 242.574 229.089 209.164 225.784 183.525C220.513 142.076 214.707 111.703 214.617 111.346C214.528 110.899 214.081 110.631 213.635 110.72C213.188 110.81 212.92 111.256 213.009 111.703C213.099 112.06 218.905 142.433 224.176 183.794Z" fill="#CEDCEC"/>
<path d="M219.8 118.582C219.711 118.582 219.621 118.582 219.532 118.582C219.443 118.582 219.353 118.492 219.264 118.492C219.175 118.492 219.085 118.403 218.996 118.314C218.907 118.224 218.817 118.224 218.728 118.135C218.46 117.867 218.281 117.51 218.281 117.063C218.281 116.706 218.46 116.259 218.728 115.991C218.817 115.902 218.907 115.902 218.996 115.812C219.085 115.723 219.175 115.723 219.264 115.634C219.353 115.634 219.443 115.544 219.532 115.544C220.068 115.455 220.515 115.634 220.872 115.991C221.14 116.259 221.319 116.616 221.319 117.063C221.319 117.42 221.14 117.867 220.872 118.135C220.604 118.403 220.247 118.582 219.8 118.582Z" fill="#CEDCEC"/>
<path d="M234.001 236.763C234.09 237.567 234.715 238.103 235.519 238.103C235.609 238.103 235.609 238.103 235.698 238.103C236.502 238.014 237.127 237.299 237.038 236.495C236.949 235.691 236.234 235.066 235.43 235.155C234.537 235.244 233.911 235.959 234.001 236.763Z" fill="#CEDCEC"/>
<path d="M232.305 219.696C232.395 220.5 233.02 221.036 233.824 221.036C233.913 221.036 233.913 221.036 234.003 221.036C234.807 220.947 235.432 220.232 235.343 219.339C235.253 218.535 234.539 217.909 233.645 217.999C232.841 218.088 232.216 218.803 232.305 219.696Z" fill="#CEDCEC"/>
<path d="M235.518 253.922C235.608 254.726 236.233 255.351 237.037 255.351H237.126C237.93 255.262 238.556 254.547 238.466 253.743C238.377 252.939 237.662 252.314 236.858 252.403C236.054 252.403 235.429 253.118 235.518 253.922Z" fill="#CEDCEC"/>
<path d="M238.111 269.455C237.307 269.544 236.682 270.259 236.682 271.063C236.771 271.867 237.396 272.492 238.2 272.492H238.29C239.094 272.403 239.719 271.688 239.719 270.884C239.719 270.08 238.915 269.455 238.111 269.455Z" fill="#CEDCEC"/>
<path d="M222.568 135.549C222.657 135.549 222.747 135.549 222.836 135.549C223.64 135.46 224.265 134.656 224.087 133.852C223.997 133.048 223.193 132.512 222.389 132.602C221.585 132.691 221.049 133.495 221.139 134.299C221.228 135.013 221.853 135.549 222.568 135.549Z" fill="#CEDCEC"/>
<path d="M230.43 202.546C230.519 203.35 231.144 203.886 231.948 203.886C232.038 203.886 232.038 203.886 232.127 203.886C232.931 203.796 233.556 203.082 233.467 202.188C233.378 201.384 232.663 200.759 231.77 200.848C230.876 200.938 230.34 201.742 230.43 202.546Z" fill="#CEDCEC"/>
<path d="M226.142 168.33C226.231 169.045 226.857 169.67 227.661 169.67C227.75 169.67 227.839 169.67 227.839 169.67C228.643 169.581 229.269 168.777 229.09 167.973C229.001 167.169 228.197 166.543 227.393 166.722C226.589 166.811 225.963 167.526 226.142 168.33Z" fill="#CEDCEC"/>
<path d="M223.728 151.361C223.817 152.075 224.443 152.611 225.247 152.611C225.336 152.611 225.425 152.611 225.425 152.611C226.229 152.522 226.855 151.718 226.676 150.914C226.587 150.11 225.783 149.485 224.979 149.664C224.175 149.753 223.549 150.468 223.728 151.361Z" fill="#CEDCEC"/>
<path d="M228.373 185.479C228.462 186.283 229.088 186.819 229.892 186.819C229.981 186.819 229.981 186.819 230.07 186.819C230.874 186.73 231.5 185.926 231.41 185.122C231.321 184.318 230.517 183.693 229.713 183.782C228.82 183.871 228.284 184.586 228.373 185.479Z" fill="#CEDCEC"/>
<path d="M242.4 276.511H244.097C238.112 185.035 224.087 110.712 223.908 109.818C223.819 109.372 223.372 109.104 222.926 109.193C222.479 109.282 222.211 109.729 222.3 110.176C222.479 111.069 236.415 185.125 242.4 276.511Z" fill="#CEDCEC"/>
<path d="M163.338 241.392C163.874 242.464 164.589 243.447 165.303 244.429C165.482 244.608 165.571 244.787 165.75 244.965C168.251 247.735 171.467 249.164 175.219 249.253C175.844 249.253 176.47 249.253 177.006 249.164C179.418 248.896 181.562 247.824 183.438 246.037C190.584 239.159 190.673 223.526 190.673 222.901C190.673 222.543 190.405 222.275 190.048 222.186L169.055 220.042L167.179 219.863C167.09 220.31 167 220.757 166.911 221.203L168.787 221.382L189.155 223.437C189.155 224.062 189.065 225.223 188.976 226.652C188.976 227.099 188.887 227.546 188.797 227.992C188.172 233.174 186.564 240.856 182.366 245.055C180.4 247.02 177.899 248.003 175.13 247.913C171.735 247.824 168.876 246.573 166.643 244.072C166.196 243.625 165.839 243.089 165.482 242.554C164.767 241.482 164.142 240.32 163.606 239.159C163.606 239.874 163.427 240.678 163.338 241.392Z" fill="#CEDCEC"/>
<path d="M166.377 224.498C166.288 224.945 166.199 225.391 166.109 225.838L168.075 226.017L188.889 227.982L189.604 228.071C189.693 228.071 189.693 228.071 189.782 228.071C190.05 228.071 190.318 227.803 190.408 227.446C190.408 227.089 190.14 226.731 189.782 226.731L189.068 226.642L168.343 224.677L166.377 224.498Z" fill="#CEDCEC"/>
<path d="M186.748 62.4688C186.748 62.4688 180.405 63.9874 178.887 67.2927L183.889 86.4096L192.822 87.3029C192.644 87.7496 190.321 93.3775 190.321 93.3775L205.776 113.12C210.867 113.656 214.441 114.638 218.639 114.996C215.959 107.135 195.234 80.5137 186.748 62.4688Z" fill="#CEDCEC"/>
<path d="M212.474 65.4018C212.474 65.4018 216.762 65.7592 220.157 69.1538L226.588 83.0002L224.266 87.1987L228.643 88.5387C228.643 88.5387 230.608 102.564 229.268 109.264L218.727 114.892C221.318 97.4719 216.673 79.0696 212.027 65.3125H212.474V65.4018Z" fill="#CEDCEC"/>
<path d="M144.851 156.348C144.851 156.348 146.548 160.546 143.779 169.479C141.099 178.413 137.079 183.862 137.079 183.862C137.079 183.862 128.593 169.301 144.851 156.348Z" fill="#CEDCEC"/>
<path d="M104.478 145.496C104.478 145.943 104.478 146.39 104.478 146.836C104.478 147.283 104.568 147.73 104.568 148.176C104.568 148.355 104.657 148.623 104.657 148.802L104.746 149.427C105.014 151.214 105.55 152.732 106.176 154.161C106.444 154.876 106.801 155.591 107.158 156.216C107.337 156.484 107.516 156.841 107.694 157.109L108.23 158.003C109.749 160.236 111.357 162.023 112.876 163.452C114.484 164.971 116.002 166.132 117.61 167.293C118.414 167.829 119.129 168.365 119.933 168.901C120.737 169.437 121.451 169.884 122.255 170.33C123.774 171.224 125.293 172.117 126.811 172.921C129.849 174.529 132.797 175.869 135.834 177.12C138.871 178.37 141.819 179.532 144.856 180.604C147.894 181.676 150.842 182.658 153.879 183.552C156.916 184.445 159.953 185.338 162.991 186.142C164.063 186.41 165.581 186.678 167.189 186.857C169.601 187.214 172.281 187.482 173.978 187.839C174.514 185.338 172.549 183.194 173.085 180.693C173.71 177.745 174.425 174.797 175.14 171.849L174.068 169.169C172.192 168.633 170.405 168.008 168.529 167.383C168.44 167.383 168.44 167.383 168.351 167.293C165.671 166.4 162.991 165.417 160.4 164.435C157.72 163.363 155.04 162.291 152.45 161.129C149.859 159.968 147.358 158.717 144.856 157.467C142.444 156.216 140.032 154.876 137.799 153.447C136.727 152.732 135.655 152.018 134.673 151.303C134.226 150.946 133.69 150.588 133.243 150.231C132.797 149.874 132.35 149.516 131.993 149.07C131.367 148.534 130.831 147.908 130.385 147.372C130.295 147.194 130.117 147.015 130.027 146.926L130.474 146.39L131.278 145.318C131.725 144.782 132.171 144.246 132.618 143.71C133.511 142.638 134.494 141.566 135.387 140.494L138.246 137.188C140.211 135.044 142.176 132.811 144.142 130.667L145.66 129.059L147.179 127.451L149.323 125.129L150.216 124.146L151.288 122.985L153.253 120.93L156.291 117.714C158.345 115.57 160.4 113.426 162.455 111.193L174.693 98.2399L174.782 98.1505C179.964 92.7013 179.696 84.1255 174.246 78.9442C168.887 73.8523 160.311 74.031 155.129 79.3016L151.914 82.6068L148.787 85.9121C147.715 86.9841 146.732 88.1454 145.66 89.2174C144.588 90.2893 143.606 91.4507 142.534 92.5226C140.479 94.7559 138.424 96.9892 136.37 99.2225L133.333 102.617L132.886 103.064L130.206 106.012C129.223 107.173 128.151 108.334 127.169 109.496L125.65 111.193L124.935 111.997L124.131 112.98C122.166 115.302 120.111 117.714 118.146 120.037L115.198 123.699C114.216 124.95 113.233 126.201 112.25 127.451C111.804 128.077 111.268 128.702 110.821 129.327L109.392 131.293L109.034 131.739L108.945 131.829L108.856 131.918L108.766 132.007L108.498 132.454C108.32 132.722 108.141 133.079 107.873 133.347C107.784 133.526 107.694 133.615 107.605 133.794L107.337 134.241C107.158 134.598 106.98 134.866 106.801 135.223C106.622 135.58 106.444 135.938 106.265 136.295L105.997 136.831C105.908 137.01 105.818 137.188 105.729 137.456C105.55 137.814 105.461 138.26 105.282 138.618C105.104 139.064 105.014 139.422 104.925 139.868C104.836 140.315 104.657 140.672 104.657 141.119C104.568 141.566 104.478 142.012 104.389 142.459C104.3 142.906 104.3 143.352 104.21 143.799L104.121 144.514C104.478 145.05 104.478 145.228 104.478 145.496Z" fill="#FFA87F"/>
<path d="M162.982 165.471C162.982 165.471 160.927 163.238 158.158 163.595C158.158 163.595 151.19 174.047 153.959 183.516C153.959 183.516 155.388 184.946 158.515 184.856C158.426 184.946 156.014 173.601 162.982 165.471Z" fill="black"/>
<path d="M150.023 174.217C150.023 177.79 152.882 180.649 156.455 180.649C160.029 180.649 162.887 177.79 162.887 174.217C162.887 170.644 160.029 167.785 156.455 167.785C152.882 167.785 150.023 170.644 150.023 174.217Z" fill="black"/>
<path d="M156.463 179.038C159.143 179.038 161.286 176.894 161.286 174.215C161.286 171.535 159.143 169.391 156.463 169.391C153.783 169.391 151.639 171.535 151.639 174.215C151.639 176.894 153.783 179.038 156.463 179.038Z" fill="white"/>
<path d="M167.186 186.54C169.598 186.898 172.278 187.166 173.976 187.523C174.512 185.022 172.546 182.878 173.082 180.376C173.708 177.428 174.422 174.48 175.137 171.532L174.065 168.853C172.189 168.317 170.402 167.691 168.526 167.066C168.437 167.066 168.437 167.066 168.348 166.977C167.454 171.264 165.757 180.019 167.186 186.54Z" fill="#EF6A3F"/>
<path d="M178.883 85.9727C179.955 90.2606 178.704 94.8165 175.577 98.0325C169.771 104.018 158.694 115.541 152.53 122.867C143.865 133.05 132.966 145.825 132.966 145.825C132.966 145.825 139.934 152.703 144.847 156.366C144.847 156.366 131.716 166.282 137.076 183.88C137.076 183.88 115.189 170.212 104.47 157.617C96.6083 148.415 99.5563 137.696 107.775 127.78C111.884 122.777 143.507 90.6179 154.674 79.3622C158.783 75.2529 165.036 73.8236 170.486 76.0569C173.88 77.4862 177.453 80.3448 178.883 85.9727Z" fill="white"/>
<path d="M168.618 170.272C168.618 170.272 169.779 165.18 171.387 160.267C172.727 156.157 175.05 154.996 175.05 154.996C175.407 157.855 175.943 159.552 175.764 164.733C175.764 164.733 177.104 163.661 179.337 164.197C181.571 164.823 189.343 166.877 189.343 168.753C189.343 172.952 179.605 170.361 179.605 170.361C179.605 170.361 190.057 172.952 189.611 175.81C189.253 178.133 179.695 178.044 179.695 178.044C179.695 178.044 188.896 178.669 187.645 181.885C186.305 185.369 177.819 182.6 177.819 182.6C177.819 182.6 183.804 185.905 183.179 187.066C182.196 188.763 178.534 189.121 172.727 187.334C166.831 185.726 168.618 170.272 168.618 170.272Z" fill="#FFA87F"/>
<path d="M160.835 115.625C160.567 115.625 160.388 115.536 160.209 115.446C159.852 115.178 159.852 114.642 160.209 114.285L174.77 98.8305C175.038 98.4732 175.574 98.4732 175.932 98.8305C176.289 99.0985 176.289 99.6345 175.932 99.9918L161.371 115.446C161.192 115.536 161.013 115.625 160.835 115.625Z" fill="#CEDCEC"/>
<path d="M176.291 104.456L171.11 104.992C170.663 104.992 170.306 104.724 170.217 104.277C170.217 103.83 170.485 103.473 170.931 103.384L176.113 102.848C176.559 102.848 176.917 103.116 177.006 103.562C177.095 104.098 176.738 104.456 176.291 104.456Z" fill="#CEDCEC"/>
<path d="M118.134 148.468C118.223 148.558 118.312 148.647 118.491 148.647C118.669 148.647 118.759 148.647 118.937 148.558C122.957 145.878 129.925 145.967 133.32 146.235C133.231 146.056 133.052 145.878 132.963 145.788L133.409 145.252C133.141 145.252 132.784 145.252 132.427 145.163C130.372 143.019 124.744 140.697 124.476 140.518C124.208 140.429 123.851 140.518 123.761 140.786C123.672 141.054 123.761 141.322 124.029 141.501C124.119 141.501 128.407 143.287 130.729 145.074C126.977 144.984 121.796 145.431 118.312 147.754C118.044 147.932 118.044 148.2 118.134 148.468Z" fill="#CEDCEC"/>
<path d="M194.161 20.6637C194.161 20.6637 188.891 28.6142 192.464 36.0288C196.037 43.4433 194.608 50.4112 194.608 50.4112C194.608 50.4112 193.089 42.3713 189.694 39.066C185.943 35.4928 183.263 31.5622 185.049 25.4876C186.925 19.5918 191.838 17.4478 194.161 20.6637Z" fill="black"/>
<path d="M212.209 12.2562C212.209 12.2562 210.601 24.1374 198.363 26.192C186.124 28.2466 184.963 20.7428 184.963 20.7428C184.963 20.7428 195.683 0.732469 212.209 12.2562Z" fill="black"/>
<path d="M89.5987 215.281V215.37H89.5098L89.5987 215.281Z" fill="#FD615B"/>
<path d="M89.5069 215.37H89.418V215.281L89.5069 215.37Z" fill="#FD615B"/>
<g opacity="0.5">
<path opacity="0.5" d="M73.7873 135.062H56.1889C56.1889 135.062 56.1889 135.062 56.0996 135.062V193.664C56.0996 193.664 56.0996 193.664 56.1889 193.664H73.7873C74.8592 193.664 75.7526 192.771 75.7526 191.699V136.938C75.7526 135.956 74.8592 135.062 73.7873 135.062Z" fill="#0051B6"/>
</g>
<path d="M75.1278 190.004H58.6907C57.2614 190.004 56.1895 188.843 56.1895 187.503V133.904C56.1895 132.474 57.3508 131.402 58.6907 131.402H75.0384C76.4677 131.402 77.5397 132.564 77.5397 133.904V187.503C77.629 188.843 76.4677 190.004 75.1278 190.004Z" fill="white"/>
<path d="M70.3947 164.37H61.2829C60.7469 164.37 60.2109 163.923 60.2109 163.298V156.687C60.2109 156.151 60.6576 155.615 61.2829 155.615H70.3947C70.9307 155.615 71.4667 156.062 71.4667 156.687V163.298C71.3774 163.923 70.9307 164.37 70.3947 164.37Z" fill="black"/>
<path d="M74.6812 155.791V164.367L71.1973 161.508V158.739L74.6812 155.791Z" fill="black"/>
<path d="M78.2542 168.388H77.6289V149.807H78.2542C79.1475 149.807 79.9515 150.611 79.9515 151.504V166.69C79.9515 167.584 79.2369 168.388 78.2542 168.388Z" fill="#CEDCEC"/>
<path d="M72.1427 183.703C74.8542 180.835 74.7275 176.312 71.8597 173.601C68.9918 170.889 64.4689 171.016 61.7573 173.884C59.0458 176.751 59.1725 181.274 62.0403 183.986C64.9082 186.697 69.4311 186.571 72.1427 183.703Z" fill="#FD615B"/>
<path d="M70.3055 183.046C70.1268 183.046 69.9482 182.956 69.7695 182.867L62.9803 176.078C62.7123 175.81 62.7123 175.274 62.9803 175.006C63.2483 174.738 63.7843 174.738 64.0523 175.006L70.8415 181.795C71.1095 182.063 71.1095 182.599 70.8415 182.867C70.7521 182.956 70.5735 183.046 70.3055 183.046Z" fill="white"/>
<path d="M63.6042 183.046C63.4255 183.046 63.2468 182.956 63.0682 182.867C62.8002 182.599 62.8002 182.063 63.0682 181.795L69.8574 175.006C70.1254 174.738 70.6614 174.738 70.9294 175.006C71.1974 175.274 71.1974 175.81 70.9294 176.078L64.1402 182.867C63.9615 182.956 63.7828 183.046 63.6042 183.046Z" fill="white"/>
<path d="M66.5516 145.595H66.105C65.1223 145.595 64.3184 144.791 64.3184 143.808V137.019C64.3184 136.036 65.1223 135.232 66.105 135.232H66.5516C67.5343 135.232 68.3383 136.036 68.3383 137.019V143.808C68.3383 144.791 67.5343 145.595 66.5516 145.595Z" fill="black"/>
<path d="M66.3705 148.009H66.2811C66.1025 148.009 65.9238 147.831 65.9238 147.652V143.543C65.9238 143.364 66.1025 143.186 66.2811 143.186H66.3705C66.5491 143.186 66.7278 143.364 66.7278 143.543V147.652C66.7278 147.831 66.5491 148.009 66.3705 148.009Z" fill="black"/>
<path d="M69.5879 148.366H63.1561C62.7094 148.366 62.4414 148.008 62.4414 147.651V147.472C62.4414 147.026 62.7987 146.758 63.1561 146.758H69.5879C70.0346 146.758 70.3026 147.115 70.3026 147.472V147.651C70.3026 148.008 69.9453 148.366 69.5879 148.366Z" fill="black"/>
<path d="M338.207 240.019C336.778 237.786 334.813 235.91 333.294 234.57C331.865 233.319 329.542 233.944 329.006 235.82C328.917 236.178 328.827 236.446 328.649 236.803C328.559 236.714 328.47 236.714 328.381 236.714C326.951 236.535 326.415 233.23 326.326 230.103C326.326 229.567 326.326 229.12 326.326 228.674C326.326 228.138 326.326 227.602 326.415 227.155C326.415 226.887 326.237 226.619 325.969 226.619H325.88H325.79C325.522 226.619 325.344 226.887 325.344 227.155C325.344 227.602 325.433 228.138 325.433 228.674C325.433 229.12 325.433 229.567 325.433 230.103C325.344 233.23 324.808 236.535 323.378 236.714H323.289C323.2 236.356 323.11 236.088 323.021 235.82C322.396 234.034 320.162 233.408 318.733 234.57C317.125 235.91 315.249 237.786 313.82 240.019C310.782 244.664 307.745 254.044 311.586 256.188C315.428 258.421 321.681 257.707 323.914 252.347C325.165 249.309 325.165 245.557 324.629 242.163C325.344 241.448 325.701 240.466 326.058 239.304C326.326 240.466 326.773 241.448 327.487 242.163C326.951 245.557 326.862 249.309 328.202 252.347C330.525 257.707 336.689 258.421 340.53 256.188C344.282 254.044 341.245 244.664 338.207 240.019ZM323.557 237.607C324.45 237.428 325.076 236.714 325.522 235.731C325.433 237.428 325.165 239.572 324.361 240.912C324.093 239.751 323.825 238.59 323.557 237.607ZM326.505 236.178C326.951 236.982 327.487 237.607 328.291 237.696C328.291 237.696 328.291 237.696 328.381 237.696C328.381 237.696 328.381 237.696 328.47 237.696C328.202 238.679 327.934 239.84 327.666 241.002C326.862 239.751 326.594 237.786 326.505 236.178Z" fill="#0051B6"/>
<path d="M257.002 57.1504C251.82 57.1504 246.818 55.7211 242.798 53.1305L231.185 55.9891C230.827 56.0784 230.381 55.8998 230.202 55.6318C229.934 55.3638 229.934 54.9171 230.113 54.5598L235.651 44.7333C234.847 42.8574 234.49 40.8921 234.49 38.9268C234.49 34.0135 236.902 29.4576 241.19 25.9737C245.478 22.5791 251.106 20.7031 257.091 20.7031C263.076 20.7031 268.704 22.5791 272.992 25.9737C277.28 29.3683 279.692 34.0135 279.692 38.9268C279.692 43.84 277.28 48.3959 272.992 51.8799C268.615 55.3638 262.987 57.1504 257.002 57.1504ZM242.977 51.1652C243.155 51.1652 243.334 51.2545 243.513 51.3439C247.264 53.8451 251.999 55.2745 256.912 55.2745C268.257 55.2745 277.548 48.0386 277.548 39.0161C277.548 30.0829 268.257 22.7577 256.912 22.7577C245.567 22.7577 236.277 29.9936 236.277 39.0161C236.277 40.8921 236.634 42.6787 237.438 44.4653C237.527 44.7333 237.527 45.0907 237.438 45.3586L232.793 53.6665L242.709 51.1652C242.887 51.1652 242.977 51.1652 242.977 51.1652Z" fill="#81A7CB"/>
<path d="M266.916 43.5603C264.683 43.5603 262.807 41.7737 262.807 39.451C262.807 37.1284 264.593 35.3418 266.916 35.3418C269.149 35.3418 271.025 37.1284 271.025 39.451C271.025 41.7737 269.149 43.5603 266.916 43.5603ZM266.916 37.3071C265.755 37.3071 264.772 38.2897 264.772 39.451C264.772 40.6124 265.755 41.595 266.916 41.595C268.077 41.595 269.06 40.6124 269.06 39.451C269.06 38.2897 268.077 37.3071 266.916 37.3071Z" fill="#81A7CB"/>
<path d="M257.004 43.5603C254.771 43.5603 252.895 41.7737 252.895 39.451C252.895 37.1284 254.681 35.3418 257.004 35.3418C259.326 35.3418 261.113 37.1284 261.113 39.451C261.113 41.7737 259.237 43.5603 257.004 43.5603ZM257.004 37.3071C255.842 37.3071 254.86 38.2897 254.86 39.451C254.86 40.6124 255.842 41.595 257.004 41.595C258.165 41.595 259.148 40.6124 259.148 39.451C259.148 38.2897 258.254 37.3071 257.004 37.3071Z" fill="#81A7CB"/>
<path d="M247.086 43.5603C244.853 43.5603 242.977 41.7737 242.977 39.451C242.977 37.1284 244.763 35.3418 247.086 35.3418C249.408 35.3418 251.195 37.1284 251.195 39.451C251.195 41.7737 249.408 43.5603 247.086 43.5603ZM247.086 37.3071C245.925 37.3071 244.942 38.2897 244.942 39.451C244.942 40.6124 245.925 41.595 247.086 41.595C248.247 41.595 249.23 40.6124 249.23 39.451C249.319 38.2897 248.336 37.3071 247.086 37.3071Z" fill="#81A7CB"/>
</svg>
