<svg width="22" height="20" viewBox="0 0 22 20" fill="none" xmlns="http://www.w3.org/2000/svg">
<path d="M19.0402 4.82165L13.2802 0.791647C11.7102 -0.308353 9.30023 -0.248353 7.79023 0.921647L2.78023 4.83165C1.78023 5.61165 0.990234 7.21165 0.990234 8.47165V15.3716C0.990234 17.9216 3.06023 20.0016 5.61023 20.0016H16.3902C18.9402 20.0016 21.0102 17.9316 21.0102 15.3816V8.60165C21.0102 7.25165 20.1402 5.59165 19.0402 4.82165ZM11.7502 16.0016C11.7502 16.4116 11.4102 16.7516 11.0002 16.7516C10.5902 16.7516 10.2502 16.4116 10.2502 16.0016V13.0016C10.2502 12.5916 10.5902 12.2516 11.0002 12.2516C11.4102 12.2516 11.7502 12.5916 11.7502 13.0016V16.0016Z" fill="#00CD69"/>
</svg>
