<svg width="28" height="27" viewBox="0 0 28 27" fill="none" xmlns="http://www.w3.org/2000/svg">
<path d="M13.8968 8.99808C11.4179 8.99808 9.39493 11.0211 9.39493 13.5C9.39493 15.9789 11.4179 18.0019 13.8968 18.0019C16.3756 18.0019 18.3986 15.9789 18.3986 13.5C18.3986 11.0211 16.3756 8.99808 13.8968 8.99808ZM27.3989 13.5C27.3989 11.6357 27.4158 9.78837 27.3111 7.92748C27.2064 5.76602 26.7133 3.84773 25.1328 2.26716C23.5489 0.683215 21.634 0.19351 19.4725 0.0888138C17.6083 -0.0158819 15.761 0.00100455 13.9001 0.00100455C12.0359 0.00100455 10.1886 -0.0158819 8.32773 0.0888138C6.16631 0.19351 4.24805 0.686593 2.66751 2.26716C1.08359 3.85111 0.593897 5.76602 0.489203 7.92748C0.384509 9.79174 0.401395 11.6391 0.401395 13.5C0.401395 15.3609 0.384509 17.2116 0.489203 19.0725C0.593897 21.234 1.08697 23.1523 2.66751 24.7328C4.25142 26.3168 6.16631 26.8065 8.32773 26.9112C10.192 27.0159 12.0393 26.999 13.9001 26.999C15.7644 26.999 17.6117 27.0159 19.4725 26.9112C21.634 26.8065 23.5522 26.3134 25.1328 24.7328C26.7167 23.1489 27.2064 21.234 27.3111 19.0725C27.4191 17.2116 27.3989 15.3643 27.3989 13.5ZM13.8968 20.4268C10.0636 20.4268 6.97009 17.3332 6.97009 13.5C6.97009 9.66679 10.0636 6.57319 13.8968 6.57319C17.7299 6.57319 20.8234 9.66679 20.8234 13.5C20.8234 17.3332 17.7299 20.4268 13.8968 20.4268ZM21.1071 7.90722C20.2122 7.90722 19.4894 7.18448 19.4894 6.2895C19.4894 5.39452 20.2122 4.67179 21.1071 4.67179C22.0021 4.67179 22.7248 5.39452 22.7248 6.2895C22.7251 6.50202 22.6834 6.7125 22.6022 6.90889C22.521 7.10528 22.4019 7.28373 22.2516 7.434C22.1013 7.58427 21.9229 7.70342 21.7265 7.78462C21.5301 7.86583 21.3196 7.90749 21.1071 7.90722Z" fill="black"/>
</svg>
