<svg width="21" height="20" viewBox="0 0 21 20" fill="none" xmlns="http://www.w3.org/2000/svg">
<path d="M10.3333 0.3125C4.80912 0.3125 0.333313 4.64844 0.333313 10C0.333313 15.3516 4.80912 19.6875 10.3333 19.6875C15.8575 19.6875 20.3333 15.3516 20.3333 10C20.3333 4.64844 15.8575 0.3125 10.3333 0.3125ZM15.2446 6.94922L13.6035 14.4414C13.4825 14.9727 13.1559 15.1016 12.7002 14.8516L10.2002 13.0664L8.9946 14.1914C8.86154 14.3203 8.74864 14.4297 8.49057 14.4297L8.66799 11.9648L13.3011 7.91016C13.5027 7.73828 13.2567 7.64062 12.9906 7.8125L7.26476 11.3047L4.79702 10.5586C4.26073 10.3945 4.24864 10.0391 4.90993 9.78906L14.5511 6.1875C14.9986 6.03125 15.3898 6.29297 15.2446 6.94922Z" fill="black"/>
</svg>
