<svg width="17" height="14" viewBox="0 0 17 14" fill="none" xmlns="http://www.w3.org/2000/svg">
<path d="M16.1129 2.86901C15.8647 2.30758 15.5067 1.79881 15.0591 1.37119C14.6111 0.942298 14.083 0.601462 13.5034 0.367219C12.9023 0.123359 12.2577 -0.00146311 11.6068 0C10.6938 0 9.80294 0.244209 9.02877 0.705494C8.84357 0.815841 8.66762 0.937041 8.50093 1.06909C8.33425 0.937041 8.1583 0.815841 7.9731 0.705494C7.19893 0.244209 6.30809 0 5.39502 0C4.73754 0 4.10043 0.123009 3.49851 0.367219C2.91696 0.602383 2.39283 0.940659 1.94278 1.37119C1.49457 1.79833 1.13653 2.30721 0.888952 2.86901C0.631515 3.4533 0.500018 4.07378 0.500018 4.71234C0.500018 5.31472 0.625959 5.94243 0.875987 6.58099C1.08527 7.11464 1.3853 7.66818 1.76868 8.22715C2.37616 9.11173 3.21144 10.0343 4.2486 10.9695C5.96731 12.5198 7.66936 13.5907 7.74159 13.6341L8.18053 13.9091C8.37499 14.0303 8.62502 14.0303 8.81949 13.9091L9.25843 13.6341C9.33066 13.5889 11.0309 12.5198 12.7514 10.9695C13.7886 10.0343 14.6239 9.11173 15.2313 8.22715C15.6147 7.66818 15.9166 7.11464 16.124 6.58099C16.3741 5.94243 16.5 5.31472 16.5 4.71234C16.5019 4.07378 16.3704 3.4533 16.1129 2.86901Z" fill="#00CD69"/>
</svg>
