<svg width="12" height="14" viewBox="0 0 12 14" fill="none" xmlns="http://www.w3.org/2000/svg">
<path d="M5.38131 12.8981L5.38143 12.8982L6.61696 12.8993C6.61696 12.8993 6.61696 12.8993 6.61697 12.8993C9.54989 10.4114 11.05 8.12419 11.05 6.01387C11.05 3.25801 8.78857 1.0252 6 1.0252C3.21143 1.0252 0.95 3.25801 0.95 6.01387C0.95 8.07715 2.38392 10.3086 5.1873 12.7318L5.18746 12.732L5.38131 12.8981ZM6.05124 12.2466L6.05122 12.2466C6.03705 12.2587 6.01888 12.2653 6 12.2653C5.98112 12.2653 5.96295 12.2587 5.94878 12.2466L5.75782 12.0833C5.75779 12.0833 5.75775 12.0832 5.75772 12.0832C3.11032 9.79524 1.81923 7.76432 1.81923 6.01387C1.81923 4.91903 2.25955 3.8689 3.04353 3.09453C3.82753 2.32015 4.89099 1.88499 6 1.88499C6.54911 1.88499 7.09283 1.99182 7.60011 2.19937C8.10739 2.40691 8.56828 2.7111 8.95647 3.09453C9.34466 3.47796 9.65256 3.93313 9.86261 4.43402C10.0727 4.93492 10.1808 5.47175 10.1808 6.01387C10.1808 7.80595 8.82715 9.89151 6.05124 12.2466ZM7.39496 4.63516C7.02489 4.26963 6.5231 4.06438 6 4.06438C5.47691 4.06438 4.97511 4.26963 4.60504 4.63516C4.23495 5.00071 4.02692 5.49664 4.02692 6.01387C4.02692 6.53111 4.23495 7.02704 4.60504 7.39259C4.97511 7.75812 5.47691 7.96337 6 7.96337C6.5231 7.96337 7.02489 7.75812 7.39496 7.39259C7.76505 7.02704 7.97308 6.53111 7.97308 6.01387C7.97308 5.49664 7.76505 5.00071 7.39496 4.63516ZM5.21924 5.24356C5.42621 5.03913 5.70704 4.92418 6 4.92418C6.29296 4.92418 6.57379 5.03913 6.78076 5.24356C6.9877 5.44797 7.10385 5.72507 7.10385 6.01387C7.10385 6.30268 6.9877 6.57978 6.78076 6.78419C6.57379 6.98861 6.29296 7.10357 6 7.10357C5.70704 7.10357 5.42621 6.98861 5.21924 6.78419C5.0123 6.57978 4.89615 6.30268 4.89615 6.01387C4.89615 5.72507 5.0123 5.44797 5.21924 5.24356Z" fill="#3E3E3E" stroke="#3E3E3E" stroke-width="0.1"/>
</svg>
