<svg width="22" height="17" viewBox="0 0 22 17" fill="none" xmlns="http://www.w3.org/2000/svg">
<path d="M5.28 1.7C5.28 1.36185 5.41907 1.03755 5.66662 0.798439C5.91417 0.55933 6.24992 0.425 6.6 0.425H20.68C21.0301 0.425 21.3658 0.55933 21.6134 0.798439C21.8609 1.03755 22 1.36185 22 1.7C22 2.03815 21.8609 2.36245 21.6134 2.60156C21.3658 2.84067 21.0301 2.975 20.68 2.975H6.6C6.24992 2.975 5.91417 2.84067 5.66662 2.60156C5.41907 2.36245 5.28 2.03815 5.28 1.7ZM20.68 7.225H6.60066C6.25057 7.225 5.91483 7.35933 5.66728 7.59844C5.41973 7.83755 5.28066 8.16185 5.28066 8.5C5.28066 8.83815 5.41973 9.16245 5.66728 9.40156C5.91483 9.64067 6.25057 9.775 6.60066 9.775H20.68C21.0301 9.775 21.3658 9.64067 21.6134 9.40156C21.8609 9.16245 22 8.83815 22 8.5C22 8.16185 21.8609 7.83755 21.6134 7.59844C21.3658 7.35933 21.0301 7.225 20.68 7.225ZM20.68 14.025H6.60066C6.25057 14.025 5.91483 14.1593 5.66728 14.3984C5.41973 14.6375 5.28066 14.9618 5.28066 15.3C5.28066 15.6381 5.41973 15.9625 5.66728 16.2016C5.91483 16.4407 6.25057 16.575 6.60066 16.575H20.68C21.0301 16.575 21.3658 16.4407 21.6134 16.2016C21.8609 15.9625 22 15.6381 22 15.3C22 14.9618 21.8609 14.6375 21.6134 14.3984C21.3658 14.1593 21.0301 14.025 20.68 14.025ZM1.76 6.8C1.41191 6.8 1.07163 6.8997 0.782197 7.0865C0.492767 7.2733 0.267183 7.5388 0.133973 7.84944C0.000762575 8.16007 -0.0340913 8.50188 0.0338187 8.83165C0.101729 9.16142 0.269352 9.46433 0.515493 9.70208C0.761633 9.93983 1.07524 10.1017 1.41664 10.1673C1.75805 10.2329 2.11193 10.1993 2.43352 10.0706C2.75512 9.94193 3.03 9.72403 3.22339 9.44447C3.41678 9.16491 3.52 8.83623 3.52 8.5C3.52 8.04913 3.33457 7.61673 3.00451 7.29792C2.67444 6.97911 2.22678 6.8 1.76 6.8ZM1.76 0C1.41191 0 1.07163 0.0997034 0.782197 0.286502C0.492767 0.4733 0.267183 0.738804 0.133973 1.04944C0.000762575 1.36007 -0.0340913 1.70189 0.0338187 2.03165C0.101729 2.36142 0.269352 2.66433 0.515493 2.90208C0.761633 3.13983 1.07524 3.30174 1.41664 3.36733C1.75805 3.43293 2.11193 3.39926 2.43352 3.2706C2.75512 3.14193 3.03 2.92403 3.22339 2.64447C3.41678 2.36491 3.52 2.03623 3.52 1.7C3.52 1.24913 3.33457 0.81673 3.00451 0.497918C2.67444 0.179107 2.22678 0 1.76 0ZM1.76 13.6C1.41191 13.6 1.07163 13.6997 0.782197 13.8865C0.492767 14.0733 0.267183 14.3388 0.133973 14.6494C0.000762575 14.9601 -0.0340913 15.3019 0.0338187 15.6317C0.101729 15.9614 0.269352 16.2643 0.515493 16.5021C0.761633 16.7398 1.07524 16.9017 1.41664 16.9673C1.75805 17.0329 2.11193 16.9993 2.43352 16.8706C2.75512 16.7419 3.03 16.524 3.22339 16.2445C3.41678 15.9649 3.52 15.6362 3.52 15.3C3.52 14.8491 3.33457 14.4167 3.00451 14.0979C2.67444 13.7791 2.22678 13.6 1.76 13.6Z" fill="#393939"/>
</svg>
