<svg width="12" height="12" viewBox="0 0 12 12" fill="none" xmlns="http://www.w3.org/2000/svg">
<path d="M3 1.45946C3 1.84653 2.84196 2.21775 2.56066 2.49145C2.27936 2.76516 1.89782 2.91892 1.5 2.91892C1.10218 2.91892 0.720644 2.76516 0.43934 2.49145C0.158035 2.21775 0 1.84653 0 1.45946C0 1.07239 0.158035 0.701167 0.43934 0.427466C0.720644 0.153764 1.10218 0 1.5 0C1.89782 0 2.27936 0.153764 2.56066 0.427466C2.84196 0.701167 3 1.07239 3 1.45946Z" fill="#3E3E3E"/>
<path d="M3 5.83837C3 6.22544 2.84196 6.59666 2.56066 6.87036C2.27936 7.14406 1.89782 7.29783 1.5 7.29783C1.10218 7.29783 0.720644 7.14406 0.43934 6.87036C0.158035 6.59666 0 6.22544 0 5.83837C0 5.45129 0.158035 5.08007 0.43934 4.80637C0.720644 4.53267 1.10218 4.37891 1.5 4.37891C1.89782 4.37891 2.27936 4.53267 2.56066 4.80637C2.84196 5.08007 3 5.45129 3 5.83837Z" fill="#3E3E3E"/>
<path d="M1.5 11.6748C1.89782 11.6748 2.27936 11.521 2.56066 11.2473C2.84196 10.9736 3 10.6024 3 10.2153C3 9.82825 2.84196 9.45703 2.56066 9.18333C2.27936 8.90962 1.89782 8.75586 1.5 8.75586C1.10218 8.75586 0.720644 8.90962 0.43934 9.18333C0.158035 9.45703 0 9.82825 0 10.2153C0 10.6024 0.158035 10.9736 0.43934 11.2473C0.720644 11.521 1.10218 11.6748 1.5 11.6748Z" fill="#3E3E3E"/>
<path d="M7.5 1.45946C7.5 1.84653 7.34196 2.21775 7.06066 2.49145C6.77936 2.76516 6.39782 2.91892 6 2.91892C5.60218 2.91892 5.22064 2.76516 4.93934 2.49145C4.65804 2.21775 4.5 1.84653 4.5 1.45946C4.5 1.07239 4.65804 0.701167 4.93934 0.427466C5.22064 0.153764 5.60218 0 6 0C6.39782 0 6.77936 0.153764 7.06066 0.427466C7.34196 0.701167 7.5 1.07239 7.5 1.45946Z" fill="#3E3E3E"/>
<path d="M6 7.29783C6.39782 7.29783 6.77936 7.14406 7.06066 6.87036C7.34196 6.59666 7.5 6.22544 7.5 5.83837C7.5 5.45129 7.34196 5.08007 7.06066 4.80637C6.77936 4.53267 6.39782 4.37891 6 4.37891C5.60218 4.37891 5.22064 4.53267 4.93934 4.80637C4.65804 5.08007 4.5 5.45129 4.5 5.83837C4.5 6.22544 4.65804 6.59666 4.93934 6.87036C5.22064 7.14406 5.60218 7.29783 6 7.29783Z" fill="#3E3E3E"/>
<path d="M7.5 10.2153C7.5 10.6024 7.34196 10.9736 7.06066 11.2473C6.77936 11.521 6.39782 11.6748 6 11.6748C5.60218 11.6748 5.22064 11.521 4.93934 11.2473C4.65804 10.9736 4.5 10.6024 4.5 10.2153C4.5 9.82825 4.65804 9.45703 4.93934 9.18333C5.22064 8.90962 5.60218 8.75586 6 8.75586C6.39782 8.75586 6.77936 8.90962 7.06066 9.18333C7.34196 9.45703 7.5 9.82825 7.5 10.2153Z" fill="#3E3E3E"/>
<path d="M10.5 2.91892C10.8978 2.91892 11.2794 2.76516 11.5607 2.49145C11.842 2.21775 12 1.84653 12 1.45946C12 1.07239 11.842 0.701167 11.5607 0.427466C11.2794 0.153764 10.8978 0 10.5 0C10.1022 0 9.72064 0.153764 9.43934 0.427466C9.15804 0.701167 9 1.07239 9 1.45946C9 1.84653 9.15804 2.21775 9.43934 2.49145C9.72064 2.76516 10.1022 2.91892 10.5 2.91892Z" fill="#3E3E3E"/>
<path d="M12 5.83837C12 6.22544 11.842 6.59666 11.5607 6.87036C11.2794 7.14406 10.8978 7.29783 10.5 7.29783C10.1022 7.29783 9.72064 7.14406 9.43934 6.87036C9.15804 6.59666 9 6.22544 9 5.83837C9 5.45129 9.15804 5.08007 9.43934 4.80637C9.72064 4.53267 10.1022 4.37891 10.5 4.37891C10.8978 4.37891 11.2794 4.53267 11.5607 4.80637C11.842 5.08007 12 5.45129 12 5.83837Z" fill="#3E3E3E"/>
<path d="M10.5 11.6748C10.8978 11.6748 11.2794 11.521 11.5607 11.2473C11.842 10.9736 12 10.6024 12 10.2153C12 9.82825 11.842 9.45703 11.5607 9.18333C11.2794 8.90962 10.8978 8.75586 10.5 8.75586C10.1022 8.75586 9.72064 8.90962 9.43934 9.18333C9.15804 9.45703 9 9.82825 9 10.2153C9 10.6024 9.15804 10.9736 9.43934 11.2473C9.72064 11.521 10.1022 11.6748 10.5 11.6748Z" fill="#3E3E3E"/>
</svg>
