<svg width="85" height="85" viewBox="0 0 85 85" fill="none" xmlns="http://www.w3.org/2000/svg">
    <path d="M42.5 23C35.7555 23 30.25 28.434 30.25 35.0909C30.25 39.2536 32.4025 42.9535 35.6645 45.1315C29.4222 47.7743 25 53.8836 25 61H28.5C28.5 53.3482 34.7475 47.1818 42.5 47.1818C50.2525 47.1818 56.5 53.3482 56.5 61H60C60 53.8836 55.5777 47.7725 49.3355 45.1298C51.0008 44.021 52.3652 42.526 53.3092 40.7758C54.2531 39.0256 54.7478 37.0736 54.75 35.0909C54.75 28.434 49.2445 23 42.5 23ZM42.5 26.4545C47.3528 26.4545 51.25 30.3012 51.25 35.0909C51.25 39.8806 47.3528 43.7273 42.5 43.7273C37.6473 43.7273 33.75 39.8806 33.75 35.0909C33.75 30.3012 37.6473 26.4545 42.5 26.4545Z" fill="#00CD69"/>
</svg>