<svg width="20" height="20" viewBox="0 0 20 20" fill="none" xmlns="http://www.w3.org/2000/svg">
<path d="M10 20C15.5228 20 20 15.5228 20 10C20 4.47715 15.5228 0 10 0C4.47715 0 0 4.47715 0 10C0 15.5228 4.47715 20 10 20Z" fill="#7C7E80"/>
<path d="M9.34417 12.4265C8.31159 12.3292 7.38025 12.0983 6.58304 11.5327C6.48394 11.4622 6.38141 11.3941 6.2917 11.3157C5.94239 11.0119 5.90728 10.6631 6.18379 10.3046C6.41989 9.99714 6.81641 9.91516 7.22849 10.092C7.30809 10.1254 7.38361 10.1685 7.45713 10.2141C8.94285 11.1401 10.9843 11.1656 12.4755 10.256C12.6239 10.1527 12.7816 10.0689 12.9644 10.0263C13.3205 9.9437 13.6524 10.0622 13.8432 10.3447C14.0617 10.6668 14.059 10.9827 13.7899 11.2325C13.3779 11.6171 12.8814 11.8948 12.3305 12.0886C11.8092 12.2721 11.2379 12.3645 10.6734 12.4252C10.7584 12.5097 10.7989 12.5511 10.8522 12.5996C11.6189 13.2984 12.3898 13.9954 13.1546 14.6966C13.415 14.9359 13.4696 15.2319 13.3259 15.5102C13.1688 15.814 12.8181 16.0139 12.4735 15.9926C12.2556 15.9787 12.0857 15.8802 11.9339 15.7423C11.3552 15.2137 10.7658 14.6947 10.1986 14.1564C10.0334 13.9996 9.95379 14.0294 9.80812 14.1655C9.22609 14.7093 8.63467 15.2447 8.03845 15.7775C7.7714 16.0163 7.45304 16.0595 7.14286 15.9233C6.81369 15.7775 6.60332 15.4731 6.62015 15.1663C6.63097 14.9584 6.74361 14.8005 6.90075 14.6583C7.66012 13.9705 8.41684 13.2808 9.17421 12.5924C9.22408 12.5462 9.2713 12.4975 9.34417 12.4265Z" fill="white"/>
<path d="M9.97805 9.99998C8.33676 9.99402 6.99103 8.63538 7.00005 6.99312C7.00964 5.333 8.35654 3.99584 10.0141 4.00001C11.6747 4.00419 13.0077 5.36161 13 7.03904C12.991 8.67773 11.6362 10.0053 9.97805 9.99998ZM11.4698 6.99669C11.4709 6.80484 11.4337 6.61461 11.3605 6.43696C11.2872 6.25938 11.1793 6.09785 11.0429 5.96174C10.9066 5.82563 10.7443 5.7176 10.5657 5.64385C10.3871 5.57011 10.1956 5.5321 10.0021 5.53203C9.80676 5.53184 9.61342 5.57025 9.43325 5.64502C9.25307 5.71979 9.08976 5.82941 8.95278 5.96749C8.8158 6.10557 8.70794 6.26931 8.6355 6.44922C8.56305 6.62907 8.52744 6.82151 8.53082 7.01517C8.53101 7.20715 8.56954 7.39718 8.64412 7.57437C8.71871 7.7515 8.82786 7.91228 8.96536 8.04745C9.1028 8.18254 9.26585 8.28936 9.44518 8.36175C9.62445 8.43413 9.81636 8.47064 10.0099 8.46915C10.2034 8.46844 10.395 8.42972 10.5733 8.35519C10.7517 8.28074 10.9134 8.17191 11.0491 8.03506C11.1849 7.89821 11.2919 7.73606 11.3641 7.5579C11.4363 7.3798 11.4722 7.18925 11.4698 6.99733V6.99669Z" fill="white"/>
</svg>
