<svg width="12" height="10" viewBox="0 0 12 10" fill="none" xmlns="http://www.w3.org/2000/svg">
<path d="M0 1.5752C0 1.17737 0.158035 0.79584 0.43934 0.514535C0.720644 0.233231 1.10218 0.0751953 1.5 0.0751953H10.5C10.8978 0.0751953 11.2794 0.233231 11.5607 0.514535C11.842 0.79584 12 1.17737 12 1.5752V7.5752C12 7.97302 11.842 8.35455 11.5607 8.63585C11.2794 8.91716 10.8978 9.0752 10.5 9.0752H1.5C1.10218 9.0752 0.720644 8.91716 0.43934 8.63585C0.158035 8.35455 0 7.97302 0 7.5752V1.5752ZM1.5 0.825195C1.30109 0.825195 1.11032 0.904213 0.96967 1.04487C0.829018 1.18552 0.75 1.37628 0.75 1.5752V2.3252H11.25V1.5752C11.25 1.37628 11.171 1.18552 11.0303 1.04487C10.8897 0.904213 10.6989 0.825195 10.5 0.825195H1.5ZM11.25 3.8252H0.75V7.5752C0.75 7.77411 0.829018 7.96487 0.96967 8.10553C1.11032 8.24618 1.30109 8.3252 1.5 8.3252H10.5C10.6989 8.3252 10.8897 8.24618 11.0303 8.10553C11.171 7.96487 11.25 7.77411 11.25 7.5752V3.8252Z" fill="#3E3E3E"/>
</svg>
