<svg id="Слой_1" data-name="Слой 1" xmlns="http://www.w3.org/2000/svg" viewBox="0 0 41.2 39.2"><defs><style>.cls-1{fill:#aaa;stroke:#aaa;stroke-width:0.1px;}</style></defs><path class="cls-1" d="M41.06,29.3l-6.39-6.08,0-.09h0a3.75,3.75,0,0,0-5,0l0,0-3.1,2.95a25.45,25.45,0,0,1-6.4-4.19,19.06,19.06,0,0,1-4.35-6l3.12-3,.12-.12a3.14,3.14,0,0,0-.13-4.51l.05,0,0,0L18.73,8,12.44,1.86l0-.05h0l-.1,0a3.77,3.77,0,0,0-4.67,0l-.1,0h0l0,.05L2.53,6.68l0,0,0,0h0A4.84,4.84,0,0,0,1.1,9.09a4.5,4.5,0,0,0,.14,2.74h0v.05a47,47,0,0,0,11.42,17A52.62,52.62,0,0,0,30.53,39.78h.06a6,6,0,0,0,2.89.17,5.81,5.81,0,0,0,2.61-1.21l5-4.73A3.3,3.3,0,0,0,41.06,29.3ZM16.66,10.41s0,0,0,0h0ZM38.89,31.65s0,0,0,0,0,0,0,0l-.12.1-4.81,4.59a2.47,2.47,0,0,1-1.11.53,2.75,2.75,0,0,1-1.25-.12A48.94,48.94,0,0,1,14.87,26.71a44.7,44.7,0,0,1-7.21-8.95,40.1,40.1,0,0,1-3.44-7,1.72,1.72,0,0,1-.06-1,1.63,1.63,0,0,1,.53-.9l.1-.1L9.56,4.17A.53.53,0,0,1,9.87,4a.49.49,0,0,1,.31.13l6.3,6.13.13.13h0a.35.35,0,0,1,0,.06.3.3,0,0,1-.1.2l-3.94,3.74-.74.66,0,0v0l.35.94h0l0,0a1.16,1.16,0,0,0,.06.16l.26.57c.23.48.57,1.17,1,2a22.53,22.53,0,0,0,4.24,5.33h0l.34.28a30.42,30.42,0,0,0,5.36,3.65c.77.42,1.43.74,1.89.95l.54.24.14.06,0,0h0l1,.42,0,0,0,0,4.67-4.45,0,0c.13-.13,7,6.25,7,6.27s0,0,0,0l0,0Z" transform="translate(-0.9 -0.9)"/></svg>