<svg width="14" height="15" viewBox="0 0 14 15" fill="none" xmlns="http://www.w3.org/2000/svg">
<path d="M10.5487 14.2422C9.81287 14.2422 9.038 14.0664 8.23708 13.7278C7.4557 13.3957 6.6678 12.9399 5.89944 12.3864C5.13759 11.8264 4.40179 11.2013 3.70506 10.5175C3.01484 9.82079 2.38973 9.08498 1.83625 8.32963C1.27626 7.54823 0.826964 6.76684 0.507899 6.01149C0.1693 5.20405 0 4.42265 0 3.68684C0 3.17893 0.0911613 2.69707 0.266972 2.24777C0.449295 1.78544 0.742314 1.35568 1.13952 0.984513C1.6409 0.489629 2.21392 0.242188 2.826 0.242188C3.07995 0.242188 3.34041 0.300792 3.5618 0.404978C3.81575 0.522188 4.03063 0.698001 4.18691 0.93242L5.69758 3.06172C5.83433 3.25056 5.93851 3.43289 6.01014 3.61521C6.09479 3.81056 6.14037 4.00591 6.14037 4.19475C6.14037 4.44219 6.06874 4.68312 5.932 4.91103C5.83433 5.08684 5.68456 5.27568 5.49573 5.46451L5.05294 5.92684C5.05945 5.94637 5.06597 5.9594 5.07248 5.97242C5.15062 6.10916 5.30689 6.34358 5.60642 6.69521C5.92549 7.05986 6.22502 7.39195 6.52455 7.698C6.90873 8.07568 7.22779 8.37521 7.52732 8.62265C7.89848 8.93521 8.13941 9.09149 8.28266 9.16312L8.26964 9.19568L8.74498 8.72684C8.94683 8.52498 9.14218 8.37521 9.33101 8.27754C9.68915 8.05614 10.145 8.01707 10.6008 8.20591C10.7701 8.27754 10.9524 8.37521 11.1477 8.51196L13.3096 10.0487C13.5505 10.2115 13.7263 10.4199 13.8305 10.6673C13.9282 10.9147 13.9737 11.1427 13.9737 11.3706C13.9737 11.6831 13.9021 11.9957 13.7654 12.2887C13.6286 12.5817 13.4593 12.8357 13.2444 13.0701C12.8733 13.4803 12.4696 13.7734 12.0007 13.9622C11.5514 14.1445 11.0631 14.2422 10.5487 14.2422ZM2.826 1.21893C2.46787 1.21893 2.13578 1.37521 1.81672 1.68777C1.51719 1.96777 1.30882 2.27382 1.17859 2.60591C1.04184 2.94451 0.976729 3.30265 0.976729 3.68684C0.976729 4.29242 1.11998 4.95009 1.40649 5.6273C1.69951 6.31754 2.10973 7.03382 2.63066 7.75009C3.15158 8.46637 3.74413 9.16312 4.39528 9.82079C5.04643 10.4654 5.74968 11.0645 6.47246 11.592C7.1757 12.1064 7.89848 12.5231 8.61475 12.8227C9.72822 13.298 10.7701 13.4087 11.6296 13.0506C11.9617 12.9138 12.2547 12.7054 12.5217 12.4059C12.6714 12.2431 12.7886 12.0673 12.8863 11.8589C12.9644 11.6961 13.0035 11.5268 13.0035 11.3575C13.0035 11.2534 12.984 11.1492 12.9319 11.032C12.9124 10.9929 12.8733 10.9213 12.7496 10.8366L10.5877 9.29986C10.4575 9.2087 10.3403 9.14358 10.2296 9.098C10.0864 9.0394 10.0277 8.98079 9.80636 9.11754C9.67612 9.18265 9.55892 9.28033 9.42869 9.41056L8.93381 9.89893C8.67986 10.1464 8.28917 10.205 7.98964 10.0943L7.81383 10.0161C7.54686 9.87289 7.2343 9.65149 6.88919 9.35847C6.57664 9.09149 6.23804 8.77893 5.82781 8.37521C5.50875 8.04963 5.18968 7.70451 4.8576 7.32033C4.55156 6.96219 4.33016 6.65614 4.19342 6.40219L4.11528 6.20684C4.07621 6.05707 4.06319 5.97242 4.06319 5.88126C4.06319 5.64684 4.14784 5.43847 4.31063 5.27568L4.79899 4.76777C4.92922 4.63754 5.0269 4.51382 5.09201 4.40312C5.1441 4.31847 5.16364 4.24684 5.16364 4.18172C5.16364 4.12963 5.1441 4.05149 5.11155 3.97335C5.06597 3.86916 4.99434 3.75195 4.90318 3.62823L3.3925 1.49242C3.32739 1.40126 3.24925 1.33614 3.15158 1.29056C3.04739 1.24498 2.9367 1.21893 2.826 1.21893ZM8.26964 9.20219L8.16545 9.64498L8.34126 9.18916C8.30871 9.18265 8.28266 9.18916 8.26964 9.20219Z" fill="#999999"/>
<path d="M11.2322 5.77534C10.9653 5.77534 10.7439 5.55395 10.7439 5.28697C10.7439 5.05255 10.5095 4.56418 10.1188 4.14744C9.73459 3.73721 9.31134 3.49628 8.95321 3.49628C8.68624 3.49628 8.46484 3.27488 8.46484 3.0079C8.46484 2.74093 8.68624 2.51953 8.95321 2.51953C9.58483 2.51953 10.249 2.85814 10.8285 3.47674C11.369 4.05628 11.7206 4.76604 11.7206 5.28697C11.7206 5.55395 11.4992 5.77534 11.2322 5.77534Z" fill="#999999"/>
<path d="M13.5113 5.77707C13.2443 5.77707 13.0229 5.55568 13.0229 5.2887C13.0229 3.04219 11.1997 1.21893 8.95321 1.21893C8.68624 1.21893 8.46484 0.997536 8.46484 0.73056C8.46484 0.463583 8.68624 0.242188 8.95321 0.242188C11.7336 0.242188 13.9996 2.50823 13.9996 5.2887C13.9996 5.55568 13.7782 5.77707 13.5113 5.77707Z" fill="#999999"/>
</svg>
