<svg width="16" height="16" viewBox="0 0 16 16" fill="none" xmlns="http://www.w3.org/2000/svg">
<path d="M4.05427 0.95V0.950002C4.35175 0.952672 4.63948 1.05616 4.87059 1.2435L4.89969 1.25829L4.90678 1.26189L4.9124 1.26752L4.92906 1.2842L4.9296 1.28474L4.9296 1.28475L7.07842 3.50319L7.07896 3.50373L7.1284 3.55321L7.16314 3.58799L7.147 3.60467C7.60802 4.07186 7.5875 4.82919 7.12893 5.28826L6.0784 6.33996C6.25332 6.73584 6.69848 7.66644 7.54763 8.47816C8.18624 9.08102 8.91282 9.58291 9.70231 9.96662L10.7519 8.9159L10.7519 8.91588C11.2169 8.45096 12.0373 8.45093 12.5018 8.9159L12.5074 8.92152L12.511 8.92861L12.5246 8.95541L14.7017 11.1349C15.1661 11.5998 15.1661 12.405 14.7017 12.8699L13.0058 14.5677L13.0032 14.5703L13.0031 14.5702C12.7442 14.7934 12.432 14.9456 12.0969 15.0121C11.7644 15.0782 11.4206 15.0576 11.0984 14.9524H11.0898H11.0803L11.0715 14.949C9.80725 14.4541 7.24961 13.3311 4.95879 11.0377C2.67784 8.75425 1.50948 6.22838 1.05172 4.9179C1.05155 4.91744 1.05139 4.91698 1.05123 4.91652L1.09844 4.90004C1.09736 4.89789 1.0979 4.89479 1.09844 4.8917C1.09898 4.88861 1.09951 4.88551 1.09844 4.88336L4.05427 0.95ZM4.05427 0.95H4.05382C3.76238 0.95 3.4759 1.05426 3.23742 1.24327L3.20877 1.25761L3.20114 1.26142L3.19522 1.26755L3.17859 1.28473L3.17856 1.28476L1.4994 3.01634L1.46458 3.05225L1.47949 3.0667M4.05427 0.95L1.47949 3.0667M1.47949 3.0667C1.24626 3.29216 1.08057 3.57885 1.00177 3.89441C0.919452 4.22404 0.935598 4.57055 1.04809 4.89098L1.47949 3.0667ZM6.32648 4.40459L6.28549 4.36355L6.28508 4.36314L4.13654 2.16221C4.11377 2.14117 4.08461 2.12842 4.05377 2.12598C4.02312 2.1287 3.99422 2.1416 3.9717 2.16268L2.34318 3.82579L2.34311 3.82587L2.3098 3.85976L2.30681 3.86279L2.30669 3.86266C2.2212 3.93598 2.16314 4.04715 2.13659 4.16801C2.11002 4.28891 2.11613 4.41445 2.1533 4.51344L2.15374 4.51462L2.15373 4.51462C2.55875 5.68174 3.66548 8.08881 5.78505 10.2113C7.8868 12.3148 10.2444 13.3521 11.4599 13.8307C11.6095 13.8807 11.7441 13.8942 11.8694 13.8716C11.9943 13.8491 12.1133 13.79 12.2309 13.6893L13.8754 12.0429L13.8755 12.0428C13.8876 12.0308 13.8982 12.0208 13.9071 12.0126C13.911 12.0089 13.9144 12.0058 13.9174 12.0029C13.9164 12.002 13.9153 12.001 13.9141 11.9999C13.912 11.9979 13.9096 11.9957 13.9071 11.9933C13.8982 11.9851 13.8876 11.9751 13.8755 11.9631L13.8754 11.963L11.6757 9.75969C11.6757 9.75968 11.6756 9.75967 11.6756 9.75966L11.6755 9.75958L11.7109 9.72425C11.6647 9.67826 11.6459 9.65526 11.6271 9.65526C11.6083 9.65526 11.5895 9.67826 11.5433 9.72425L6.32648 4.40459ZM6.32648 4.40459C6.32688 4.40672 6.32719 4.40925 6.32722 4.41212C6.32729 4.42061 6.32514 4.43822 6.30214 4.46125L4.95939 5.80549L4.708 6.04052L4.68414 6.06283L4.69499 6.09365L4.81321 6.42932L4.8132 6.42933L4.81352 6.43019L4.86037 6.41271L4.81353 6.43022L4.81356 6.4303L4.81366 6.43057L4.81403 6.43155L4.81545 6.4353L4.82102 6.44974C4.82594 6.46238 4.8333 6.48099 4.8431 6.50506C4.8627 6.5532 4.89209 6.62318 4.93139 6.71095C5.00998 6.88647 5.12826 7.13324 5.28726 7.41884C5.60506 7.98969 6.08642 8.71729 6.73986 9.34083L6.73981 9.34089L6.74189 9.34267L6.85893 9.44272C7.48651 10.0162 8.16961 10.4594 8.6954 10.759C8.95849 10.909 9.18247 11.0232 9.3408 11.0999C9.41997 11.1383 9.48274 11.1673 9.52581 11.1867C9.54734 11.1965 9.56394 11.2038 9.5752 11.2087L9.58804 11.2143L9.59136 11.2157L9.59149 11.2158L9.59223 11.2161L9.59246 11.2162L9.59253 11.2162L9.92733 11.3675L9.95886 11.3817L9.9833 11.3573L11.5786 9.75969L6.32648 4.40459ZM11.0898 14.9024H11.1064C11.4226 15.0071 11.7605 15.028 12.0871 14.9631C12.4138 14.8982 12.7181 14.7498 12.9705 14.5323L11.0898 14.9024ZM6.37589 4.42832C6.36843 4.42904 6.3622 4.42794 6.35814 4.42685C6.34839 4.42424 6.34201 4.41926 6.34062 4.41818L6.34053 4.41811C6.33825 4.41634 6.33666 4.41477 6.336 4.41411L6.37108 4.37907C6.37118 4.37946 6.37139 4.38007 6.37167 4.38087C6.37378 4.38696 6.37989 4.40456 6.37589 4.42832ZM11.602 9.7361C11.6125 9.7255 11.6202 9.71762 11.6271 9.71132L11.5787 9.75958C11.5878 9.75049 11.5954 9.74275 11.602 9.7361Z" fill="#AAAAAA" stroke="#AAAAAA" stroke-width="0.1"/>
</svg>
