<svg width="10" height="10" viewBox="0 0 10 10" fill="none" xmlns="http://www.w3.org/2000/svg">
<path d="M9 6.36161C8.375 6.36161 7.775 6.25982 7.215 6.07152C7.04 6.01554 6.845 6.05625 6.705 6.19366L5.605 7.3133C4.19 6.58045 3.03 5.40482 2.31 3.96455L3.41 2.83982C3.55 2.70241 3.59 2.50393 3.535 2.3258C3.35 1.7558 3.25 1.14509 3.25 0.508929C3.25 0.229018 3.025 0 2.75 0H1C0.725 0 0.5 0.229018 0.5 0.508929C0.5 5.28777 4.305 9.16071 9 9.16071C9.275 9.16071 9.5 8.9317 9.5 8.65178V6.87054C9.5 6.59062 9.275 6.36161 9 6.36161ZM5 0V5.08929L6.5 3.5625H9.5V0H5Z" fill="#22A33F"/>
</svg>
