<svg width="14" height="15" viewBox="0 0 14 15" fill="none" xmlns="http://www.w3.org/2000/svg">
<path d="M7.91304 1.78804C7.91304 1.54589 7.81685 1.31365 7.64562 1.14242C7.47439 0.971195 7.24215 0.875 7 0.875C6.75785 0.875 6.52561 0.971195 6.35438 1.14242C6.18315 1.31365 6.08696 1.54589 6.08696 1.78804V6.96196H0.913043C0.670889 6.96196 0.438653 7.05815 0.267424 7.22938C0.0961953 7.40061 0 7.63285 0 7.875C0 8.11715 0.0961953 8.34939 0.267424 8.52062C0.438653 8.69185 0.670889 8.78804 0.913043 8.78804H6.08696V13.962C6.08696 14.2041 6.18315 14.4363 6.35438 14.6076C6.52561 14.7788 6.75785 14.875 7 14.875C7.24215 14.875 7.47439 14.7788 7.64562 14.6076C7.81685 14.4363 7.91304 14.2041 7.91304 13.962V8.78804H13.087C13.3291 8.78804 13.5613 8.69185 13.7326 8.52062C13.9038 8.34939 14 8.11715 14 7.875C14 7.63285 13.9038 7.40061 13.7326 7.22938C13.5613 7.05815 13.3291 6.96196 13.087 6.96196H7.91304V1.78804Z" fill="#00CD69"/>
</svg>
