<svg width="17" height="16" viewBox="0 0 17 16" fill="none" xmlns="http://www.w3.org/2000/svg">
<path d="M11.8223 8H13.5112V11.5556H11.8223V8Z" fill="#00CD69"/>
<path d="M15.2 3.55556V1.77778C15.2 0.797333 14.4425 0 13.5111 0H2.53333C1.13662 0 0 1.19644 0 2.66667V13.3333C0 15.2898 1.51493 16 2.53333 16H15.2C16.1314 16 16.8889 15.2027 16.8889 14.2222V5.33333C16.8889 4.35289 16.1314 3.55556 15.2 3.55556ZM2.53333 1.77778H13.5111V3.55556H2.53333C2.31591 3.54532 2.11061 3.44719 1.96019 3.28162C1.80977 3.11604 1.72582 2.89577 1.72582 2.66667C1.72582 2.43757 1.80977 2.2173 1.96019 2.05172C2.11061 1.88614 2.31591 1.78802 2.53333 1.77778ZM15.2 14.2222H2.54347C2.15333 14.2116 1.68889 14.0489 1.68889 13.3333V5.16889C1.95404 5.26933 2.23524 5.33333 2.53333 5.33333H15.2V14.2222Z" fill="#00CD69"/>
</svg>
