<svg width="60" height="69" viewBox="0 0 60 69" fill="none" xmlns="http://www.w3.org/2000/svg">
<path d="M37.95 17.25C38.586 17.25 39.1 16.7348 39.1 16.1V1.14995C39.1 0.515208 38.586 0 37.95 0C37.314 0 36.8 0.515208 36.8 1.14995V16.0999C36.8 16.7348 37.314 17.25 37.95 17.25Z" fill="#00CD69"/>
<path d="M51.7498 17.25C52.3858 17.25 52.8998 16.7348 52.8998 16.1V1.14995C52.8998 0.515208 52.3858 0 51.7498 0C51.1138 0 50.5999 0.515208 50.5999 1.14995V16.0999C50.5999 16.7348 51.1138 17.25 51.7498 17.25Z" fill="#00CD69"/>
<path d="M44.8499 18.3999C45.4859 18.3999 45.9999 17.8847 45.9999 17.25V1.14995C45.9999 0.515208 45.4859 0 44.8499 0C44.2139 0 43.7 0.515208 43.7 1.14995V17.25C43.7 17.8847 44.2139 18.3999 44.8499 18.3999Z" fill="#00CD69"/>
<path d="M21.85 41.3999H16.1V2.30004C16.1 1.03149 15.0685 0 13.8 0H11.4999C10.2315 0 9.20003 1.03149 9.20003 2.30004V37.9499C9.20003 38.5847 9.71402 39.0999 10.35 39.0999C10.9859 39.0999 11.4999 38.5847 11.4999 37.9499V2.30004H13.8V41.3999H3.44999C1.54792 41.3999 0 42.9478 0 44.8499V54.0499C0 62.4472 3.58341 66.769 12.3717 68.9654C12.4626 68.9884 12.5569 68.9999 12.65 68.9999C12.7731 68.9999 12.8961 68.9803 13.0135 68.9412C20.937 66.2997 25.3 61.0121 25.3 54.0499V44.8499C25.3 42.9478 23.7521 41.3999 21.85 41.3999ZM23 54.0499C23 60.8338 18.2988 64.3654 13.8 66.1962V51.7499C13.8 51.1152 13.286 50.6 12.65 50.6C12.0141 50.6 11.5001 51.1152 11.5001 51.7499V66.3319C3.89741 64.0227 2.30004 59.8884 2.30004 54.0499V44.8499C2.30004 44.2162 2.81525 43.7 3.44999 43.7H21.8499C22.4847 43.7 22.9999 44.2162 22.9999 44.8499V54.0499H23Z" fill="#00CD69"/>
<path d="M58.6498 0C58.0138 0 57.4998 0.515208 57.4998 1.14995V12.6499C57.4998 17.7663 54.5651 20.6998 49.4499 20.6998H40.2499C35.1347 20.6998 32.1999 17.7661 32.1999 12.6499V1.14995C32.1999 0.515208 31.6859 0 31.05 0C30.414 0 29.8999 0.515208 29.8999 1.14995V12.6499C29.8999 19.0336 33.8651 22.9999 40.2499 22.9999H45.9999V66.6998H43.6999V26.45C43.6999 25.8153 43.1859 25.3 42.5499 25.3C41.914 25.3 41.4 25.8153 41.4 26.45V66.7C41.4 67.9684 42.4315 69 43.7 69H46.0001C47.2674 69 48.3001 67.9685 48.3001 66.7V23H49.45C55.8348 23 59.8 19.0337 59.8 12.65V1.14995C59.7999 0.515208 59.2858 0 58.6498 0Z" fill="#00CD69"/>
</svg>
