<svg width="32" height="33" viewBox="0 0 32 33" fill="none" xmlns="http://www.w3.org/2000/svg">
<path d="M31.0617 16.3989H30.2542L31.0023 13.7987C31.3276 12.668 31.1158 11.4745 30.4214 10.5243C30.2227 10.2524 29.9921 10.0139 29.7377 9.80986L31.1981 8.41017C31.2029 8.40561 31.2076 8.40099 31.2123 8.39624C32.2617 7.34686 32.2627 5.6403 31.2145 4.59212C30.7084 4.08599 30.0338 3.80743 29.3146 3.80743C29.3138 3.80743 29.313 3.80743 29.3121 3.80743C29.1457 3.80756 28.9817 3.82262 28.8215 3.85193L28.822 3.18931C28.8227 2.47237 28.5427 1.79731 28.0338 1.28831C27.5254 0.779874 26.8513 0.500062 26.1353 0.500062C26.1345 0.500062 26.1337 0.500062 26.1329 0.500062C24.6506 0.501437 23.4437 1.70837 23.4423 3.19074L23.4417 3.82887C22.6567 3.74224 21.8405 3.99956 21.2405 4.59955C20.7338 5.1063 20.4544 5.78168 20.4538 6.50124C20.4533 6.97599 20.575 7.43105 20.8037 7.83255C20.7242 7.82836 20.6443 7.82599 20.5638 7.82599C20.0635 7.82599 19.5642 7.91111 19.093 8.07392C18.9724 7.95886 18.8457 7.85011 18.7129 7.74892C18.7857 7.04805 18.9185 6.33893 19.0266 5.88336C19.2032 5.13868 19.0327 4.36768 18.5586 3.76799C18.0857 3.16981 17.377 2.82662 16.6141 2.82662C15.5337 2.82662 14.585 3.51749 14.2538 4.54449L13.1915 7.8238C13.0929 7.90311 12.998 7.98667 12.9066 8.07386C12.7607 8.02336 12.6122 7.98036 12.4617 7.94511C12.5195 7.69455 12.5497 7.43674 12.5497 7.17624C12.5497 5.55455 11.4153 4.19281 9.89817 3.84312C9.85704 1.99275 8.33902 0.5 6.47895 0.5C4.61887 0.5 3.10073 1.99287 3.0596 3.84331C1.54258 4.19299 0.408051 5.55474 0.408051 7.17643C0.408051 7.85005 0.609233 8.50211 0.971161 9.05355C0.360928 9.68242 0.000187495 10.5355 0.000187495 11.4382C0.000187495 12.5875 0.571922 13.6341 1.48708 14.2602C1.4449 14.4758 1.42334 14.6957 1.42334 14.9155C1.42334 15.4232 1.55383 15.932 1.7842 16.3988H0.937475C0.419739 16.3988 0 16.8186 0 17.3363V31.5625C0 32.0803 0.419739 32.5 0.937475 32.5H31.0617C31.5794 32.5 31.9991 32.0803 31.9991 31.5625V17.3364C31.9991 16.8187 31.5794 16.3989 31.0617 16.3989V16.3989ZM25.0509 16.3989V12.3134C25.0509 11.817 24.9687 11.3397 24.8193 10.893C24.8537 10.888 24.8868 10.8844 24.9178 10.8826C24.9558 10.8804 27.4673 10.8774 27.4866 10.8779C28.0517 10.8939 28.5697 11.1683 28.9077 11.6308C29.2576 12.1095 29.3643 12.7108 29.2005 13.2804L29.183 13.3411L27.5823 13.343C27.0645 13.3437 26.6453 13.7639 26.6459 14.2817C26.6465 14.799 27.0661 15.218 27.5834 15.218H27.5846L28.6433 15.2167L28.3032 16.399H25.0509V16.3989ZM22.5663 5.92543C22.8836 5.60805 23.3998 5.60637 23.717 5.92168C23.9853 6.18849 24.388 6.26774 24.7376 6.12261C25.0871 5.97736 25.3151 5.63618 25.3154 5.25762L25.3171 3.19243C25.3176 2.74218 25.6842 2.37556 26.1344 2.37512H26.1352C26.3502 2.37512 26.5537 2.46 26.7078 2.61425C26.8623 2.76862 26.9471 2.97231 26.947 3.18774L26.945 5.44712C26.9447 5.82636 27.1729 6.16855 27.5233 6.31386C27.8734 6.45905 28.277 6.37905 28.5453 6.11093L28.7362 5.92005C28.8893 5.76705 29.0943 5.68262 29.3137 5.68243H29.3145C29.5329 5.68243 29.7368 5.76605 29.8887 5.91793C30.2039 6.23318 30.2049 6.74586 29.8923 7.06468L27.8456 9.0263C27.7444 9.01511 27.6426 9.00655 27.5396 9.00361C27.5026 9.00255 27.4656 9.00211 27.4277 9.00211L25.0306 9.00417C24.9565 9.00423 24.8815 9.00648 24.8071 9.01086C24.7208 9.01598 24.6341 9.02542 24.5477 9.03798L22.5643 7.07793C22.247 6.7608 22.248 6.2438 22.5663 5.92543V5.92543ZM23.176 12.3134V16.3989H20.4869V11.32C20.4869 10.7594 20.3827 10.2229 20.1941 9.72767C20.3155 9.71061 20.4387 9.70098 20.5638 9.70098C22.0042 9.70105 23.176 10.8729 23.176 12.3134ZM11.4358 9.70104C11.5597 9.70104 11.6832 9.7108 11.8053 9.72823C11.6168 10.2233 11.5126 10.7597 11.5126 11.3201V16.399H8.82351V12.3134C8.82351 10.8729 9.99535 9.70104 11.4358 9.70104V9.70104ZM13.3875 11.3201C13.3875 9.87967 14.5594 8.7078 15.9998 8.7078C17.4402 8.7078 18.612 9.87967 18.612 11.3201V16.399H13.3875V11.3201ZM16.0378 5.12137C16.1187 4.87037 16.3502 4.70174 16.614 4.70174C16.8685 4.70174 17.02 4.8453 17.0877 4.93093C17.156 5.01737 17.2617 5.1998 17.2022 5.45068C17.1092 5.84299 17.0062 6.36786 16.9256 6.9293C16.6267 6.86636 16.3171 6.83274 15.9998 6.83274C15.8214 6.83274 15.6459 6.84436 15.473 6.86468L16.0378 5.12137ZM3.29829 14.9155C3.29829 14.6699 3.35453 14.4348 3.46553 14.2168C3.58915 13.9738 3.6009 13.6892 3.49778 13.4368C3.3946 13.1845 3.18673 12.9896 2.92836 12.9028C2.29844 12.6914 1.8752 12.1027 1.8752 11.4381C1.8752 10.84 2.22606 10.29 2.76905 10.0369C3.07017 9.89654 3.27454 9.60729 3.30622 9.27661C3.33791 8.94592 3.19223 8.62311 2.92323 8.42817C2.51643 8.13324 2.28313 7.67699 2.28313 7.17636C2.28313 6.32436 2.97629 5.63118 3.82827 5.63118C3.88758 5.63118 3.94852 5.63499 4.01445 5.64293C4.33363 5.68099 4.65044 5.55312 4.85337 5.30362C5.0563 5.05412 5.11717 4.71799 5.01468 4.41318C4.96105 4.25368 4.9338 4.08787 4.9338 3.92018C4.9338 3.06818 5.62697 2.375 6.47895 2.375C7.33093 2.375 8.02409 3.06818 8.02409 3.92018C8.02409 4.08787 7.99685 4.25368 7.94322 4.41318C7.84072 4.71799 7.9016 5.05412 8.10453 5.30362C8.30746 5.55312 8.62414 5.68093 8.94344 5.64293C9.00944 5.63499 9.07032 5.63118 9.12969 5.63118C9.98167 5.63118 10.6748 6.32436 10.6748 7.17636C10.6748 7.44211 10.6052 7.7013 10.477 7.93024C8.46214 8.37074 6.94875 10.1681 6.94875 12.3133V16.3989H4.25082C3.71421 16.11 3.29829 15.4772 3.29829 14.9155V14.9155ZM30.1242 30.6251H1.87495V18.2739H30.1242V30.6251Z" fill="#00CD69"/>
<path d="M19.0733 20.5H12.9267C11.3129 20.5 10 21.6216 10 23.0001C10 24.3785 11.3129 25.5 12.9267 25.5H19.0733C20.6871 25.5 22 24.3785 22 23C22 21.6214 20.6871 20.5 19.0733 20.5ZM19.0733 23.8333H12.9267C12.3888 23.8333 11.9511 23.4595 11.9511 23C11.9511 22.5405 12.3888 22.1667 12.9267 22.1667H19.0733C19.6112 22.1667 20.0489 22.5405 20.0489 23.0001C20.0489 23.4595 19.6112 23.8333 19.0733 23.8333Z" fill="#00CD69"/>
</svg>
