<svg width="40" height="34" viewBox="0 0 40 34" fill="none" xmlns="http://www.w3.org/2000/svg">
<path d="M7.52243 18.6992C3.40435 18.6992 0.0625 22.0738 0.0625 26.2245C0.0625 28.2509 0.838725 30.1465 2.25227 31.56C3.65765 32.9736 5.52876 33.7498 7.52243 33.7498C11.6977 33.7498 14.9742 30.4406 14.9742 26.2245C14.9742 24.2145 14.2061 22.327 12.8171 20.9135C11.4117 19.4836 9.53244 18.6992 7.52243 18.6992ZM7.52243 32.1157C4.31131 32.1157 1.69666 29.4765 1.69666 26.2245C1.69666 22.9725 4.31131 20.3334 7.52243 20.3334C10.7254 20.3334 13.34 22.9725 13.3482 26.2245C13.3482 29.5255 10.7907 32.1157 7.52243 32.1157Z" fill="#00CD69"/>
<path d="M38.4813 25.2133C37.5335 24.2573 36.2752 23.7344 34.9352 23.7344C32.1653 23.7344 30 25.9487 30 28.7758C30 31.562 32.1653 33.7518 34.9352 33.7518C37.7377 33.7518 39.9357 31.562 39.9357 28.7839C39.9357 27.4276 39.4209 26.1611 38.4813 25.2133ZM34.9352 32.1176C33.0559 32.1176 31.6342 30.6795 31.6342 28.7758C31.6342 26.8638 33.0886 25.3685 34.9352 25.3685C36.8226 25.3685 38.3015 26.8638 38.3015 28.7758C38.3015 30.6469 36.8226 32.1176 34.9352 32.1176Z" fill="#00CD69"/>
<path d="M37.0508 22.8831L38.4725 24.3211C38.7912 24.6398 39.3059 24.648 39.6246 24.3293C39.9433 24.0025 39.9514 23.4877 39.6328 23.1691L37.9741 21.494C37.8189 21.3388 37.6146 21.2489 37.394 21.2489H36.5524C36.5524 21.2326 36.5524 21.2162 36.5524 21.1917V15.3578C36.5524 14.9084 36.1847 14.5407 35.7353 14.5407H32.4343C32.4343 14.5244 32.4343 14.508 32.4343 14.4835V1.94135C32.4343 1.49196 32.0666 1.12427 31.6172 1.12427H29.1578C28.7084 1.12427 28.3407 1.49196 28.3407 1.94135C28.3407 2.39074 28.7084 2.75843 29.1578 2.75843H30.8002V14.4835C30.8002 14.4998 30.8002 14.5162 30.8002 14.5407H22.2699L18.258 0.838293C18.1599 0.486949 17.8331 0.25 17.4736 0.25H5.06218C4.64547 0.25 4.29412 0.568661 4.25327 0.985371L2.61911 16.6733L0.355803 19.0183C0.0453128 19.3451 0.0534836 19.8599 0.380315 20.1704C0.707147 20.4809 1.22191 20.4727 1.5324 20.1459L3.74668 17.8499H12.8326L17.5962 28.3085C17.7269 28.6026 18.021 28.7906 18.3397 28.7906H27.4338C27.7279 28.7906 27.9976 28.6353 28.1446 28.3738L31.2332 22.8831H37.0508ZM12.5466 1.94135V16.2157H4.31046L5.79755 1.88416H12.5466C12.5466 1.9005 12.5466 1.91684 12.5466 1.94135ZM14.1808 16.853V1.93318C14.1808 1.91684 14.1808 1.89233 14.1808 1.87598H16.869L20.84 15.4722V19.5657H15.4146L14.1808 16.853ZM30.0403 21.6656L26.9517 27.1564H18.8626L16.1581 21.2081H21.657C22.1064 21.2081 22.4741 20.8404 22.4741 20.391V16.1749H34.9182V17.8989H31.6172C31.1678 17.8989 30.8002 18.2666 30.8002 18.716C30.8002 19.1654 31.1678 19.5331 31.6172 19.5331H34.9182V21.1999C34.9182 21.2162 34.9182 21.2408 34.9182 21.2571H30.7511V21.2489C30.457 21.2489 30.1873 21.4042 30.0403 21.6656Z" fill="#00CD69"/>
</svg>
