<svg width="42" height="42" viewBox="0 0 42 42" fill="none" xmlns="http://www.w3.org/2000/svg">
<path d="M41.5416 37.976L34.1812 17.4009V9.51977H34.402C34.7678 9.51977 35.0642 9.22327 35.0642 8.85754C35.0642 8.49181 34.7678 8.19531 34.402 8.19531H24.2041C23.8383 8.19531 23.5419 8.49181 23.5419 8.85754C23.5419 9.22327 23.8383 9.51977 24.2041 9.51977H24.4248V17.401L17.0645 37.976C16.7202 38.9384 16.8125 39.9019 17.3178 40.6194C17.8231 41.3368 18.6992 41.7483 19.7213 41.7483H38.8848C39.9069 41.7483 40.783 41.3368 41.2883 40.6193C41.7935 39.9018 41.8859 38.9384 41.5416 37.976ZM40.2054 39.8567C39.9479 40.2224 39.4788 40.4238 38.8848 40.4238H19.7213C19.1273 40.4238 18.6582 40.2224 18.4007 39.8567C18.1431 39.491 18.1115 38.9815 18.3115 38.4221L25.7106 17.7389C25.7362 17.6673 25.7493 17.5918 25.7493 17.5159V9.51977H32.8567V17.5159C32.8567 17.5919 32.8698 17.6673 32.8954 17.7389L40.2945 38.4221C40.4946 38.9815 40.463 39.491 40.2054 39.8567Z" fill="#00CD69"/>
<path d="M26.2675 22.08C26.3412 22.1064 26.4165 22.1189 26.4905 22.1189C26.7624 22.1189 27.0172 21.9501 27.1141 21.6795L28.3595 18.1979C28.3851 18.1263 28.3982 18.0508 28.3982 17.9749V11.506C28.3982 11.1403 28.1018 10.8438 27.7359 10.8438C27.3701 10.8438 27.0737 11.1403 27.0737 11.506V17.86L25.867 21.2334C25.7439 21.5778 25.9231 21.9568 26.2675 22.08Z" fill="#00CD69"/>
<path d="M36.6964 32.2971C36.5732 31.9527 36.1943 31.7735 35.8498 31.8967C35.5055 32.0199 35.3261 32.3989 35.4494 32.7433L37.25 37.7766H21.3566L26.0095 24.7698H32.597L34.5571 30.2491C34.6803 30.5935 35.0593 30.7729 35.4037 30.6496C35.748 30.5264 35.9274 30.1473 35.8041 29.803L33.6868 23.8845C33.5927 23.6211 33.343 23.4453 33.0633 23.4453H25.543C25.2633 23.4453 25.0136 23.6211 24.9194 23.8845L19.7926 38.2158C19.72 38.4186 19.7507 38.6441 19.8747 38.8202C19.9988 38.9963 20.2007 39.101 20.4162 39.101H38.19C38.4053 39.101 38.6074 38.9962 38.7314 38.8202C38.8555 38.6441 38.8861 38.4186 38.8135 38.2158L36.6964 32.2971Z" fill="#00CD69"/>
<path d="M9.96116 19.5652L8.78477 20.0907C7.0356 20.8719 5.55742 22.1351 4.50977 23.7436C4.31013 24.0501 4.39675 24.4603 4.70314 24.66C4.81475 24.7326 4.94013 24.7673 5.06401 24.7673C5.28043 24.7673 5.49261 24.6613 5.61949 24.4664C6.52772 23.072 7.80909 21.9771 9.32489 21.3L10.8935 20.5993C11.1321 20.4927 11.2856 20.2559 11.2856 19.9946V11.506C11.2856 11.1403 10.9892 10.8438 10.6234 10.8438C10.2576 10.8438 9.96116 11.1403 9.96116 11.506V19.5652Z" fill="#00CD69"/>
<path d="M10.6232 9.52073C10.989 9.52073 11.2854 9.22423 11.2854 8.8585V3.56067C11.2854 3.19494 10.989 2.89844 10.6232 2.89844C10.2574 2.89844 9.96094 3.19494 9.96094 3.56067V8.8585C9.96094 9.22423 10.2574 9.52073 10.6232 9.52073Z" fill="#00CD69"/>
<path d="M15.069 40.2032C14.3378 40.3505 13.5853 40.4253 12.8324 40.4253C6.62471 40.4253 1.57446 35.375 1.57446 29.1674C1.57446 24.7304 4.19318 20.6937 8.24611 18.8833C8.48469 18.7767 8.63824 18.5399 8.63824 18.2786V1.57446H17.0265V18.2787C17.0265 18.54 17.18 18.7768 17.4186 18.8834C18.6446 19.431 19.7545 20.1882 20.7174 21.1342C20.8463 21.2609 21.0139 21.324 21.1815 21.324C21.3529 21.324 21.5243 21.2578 21.654 21.1259C21.9102 20.8649 21.9065 20.4456 21.6456 20.1894C20.6733 19.2343 19.5666 18.4511 18.3509 17.8573V1.57446H18.5717C18.9375 1.57446 19.2339 1.27796 19.2339 0.91223C19.2339 0.546502 18.9375 0.25 18.5717 0.25H7.09304C6.72722 0.25 6.43081 0.546502 6.43081 0.91223C6.43081 1.27796 6.72722 1.57446 7.09304 1.57446H7.31378V17.8574C3.0085 19.9608 0.25 24.3533 0.25 29.1674C0.25 36.1053 5.8944 41.7497 12.8324 41.7497C13.673 41.7497 14.5135 41.6663 15.3306 41.5015C15.6892 41.4293 15.9213 41.0801 15.849 40.7216C15.7768 40.3631 15.4276 40.131 15.069 40.2032Z" fill="#00CD69"/>
<path d="M18.9691 27.4185C19.3348 27.4185 19.6313 27.122 19.6313 26.7562C19.6313 26.3905 19.3349 26.094 18.9691 26.094L3.88092 26.0938C3.58177 26.0938 3.31979 26.2944 3.24165 26.5831C3.01393 27.4254 2.89844 28.2949 2.89844 29.1674C2.89844 34.6447 7.35462 39.1008 12.8319 39.1008C13.6 39.1008 14.3657 39.0123 15.1078 38.8376C15.4638 38.7538 15.6845 38.3973 15.6007 38.0413C15.5168 37.6852 15.1605 37.4646 14.8043 37.5484C14.1616 37.6996 13.4979 37.7764 12.8318 37.7764C8.08475 37.7764 4.22281 33.9144 4.22281 29.1674C4.22281 28.5795 4.28338 27.9931 4.40311 27.4181L18.9691 27.4185Z" fill="#00CD69"/>
</svg>
