<svg width="24" height="42" viewBox="0 0 24 42" fill="none" xmlns="http://www.w3.org/2000/svg">
<path d="M23.3248 21.516H12.6753V10.8518C17.4802 10.4901 21.2835 6.30127 21.2835 1.20366C21.2835 0.815053 20.9811 0.5 20.6082 0.5C16.7174 0.5 13.3785 3.00757 12.0001 6.55318C10.6217 3.00757 7.28279 0.5 3.39186 0.5C3.01894 0.5 2.71661 0.815053 2.71661 1.20366C2.71661 6.30127 6.51993 10.4901 11.3248 10.8518V21.516H0.675257C0.302335 21.516 0 21.8311 0 22.2197V26.8783C0 27.2669 0.302335 27.582 0.675257 27.582H1.88514L2.80106 40.8468C2.82645 41.2149 3.12041 41.5 3.47451 41.5H20.5256C20.8797 41.5 21.1736 41.2149 21.199 40.8468L22.115 27.582H23.3247C23.6977 27.582 24 27.2669 24 26.8783V22.2197C24.0001 21.8311 23.6978 21.516 23.3248 21.516ZM19.9017 1.93978C19.5636 5.91162 16.518 9.08551 12.7065 9.43772C13.0445 5.46588 16.0902 2.29208 19.9017 1.93978ZM4.09836 1.93978C7.90988 2.29208 10.9556 5.46588 11.2936 9.43772C7.48212 9.08551 4.43635 5.91172 4.09836 1.93978ZM11.55 29.96C11.55 29.7013 11.7519 29.4908 12.0001 29.4908C12.2484 29.4908 12.4503 29.7013 12.4503 29.96C12.4503 30.2186 12.2484 30.4291 12.0001 30.4291C11.7519 30.4291 11.55 30.2186 11.55 29.96ZM19.8972 40.0927H15.4331V35.6461L17.1306 33.8771C17.3548 33.9817 17.6024 34.0413 17.8636 34.0413C18.8565 34.0413 19.6643 33.1995 19.6643 32.1649C19.6643 31.1302 18.8565 30.2884 17.8636 30.2884C16.8707 30.2884 16.0629 31.1302 16.0629 32.1649C16.0629 32.4118 16.1101 32.6472 16.1937 32.8634L14.2803 34.8572C14.1537 34.9891 14.0825 35.1681 14.0825 35.3547V40.0927H12.6753V31.6982C13.3344 31.4192 13.8007 30.7457 13.8007 29.96C13.8007 28.9253 12.9929 28.0835 12 28.0835C11.0071 28.0835 10.1994 28.9253 10.1994 29.96C10.1994 30.7457 10.6657 31.4192 11.3248 31.6982V40.0927H9.91755V37.0435C9.91755 36.8569 9.84642 36.6779 9.71975 36.5459L7.80652 34.5522C7.89007 34.3362 7.93716 34.1009 7.93716 33.854C7.93716 32.8194 7.12937 31.9776 6.13647 31.9776C5.14357 31.9776 4.33578 32.8194 4.33578 33.854C4.33578 34.8887 5.14357 35.7304 6.13647 35.7304C6.39766 35.7304 6.64534 35.6709 6.86962 35.5663L8.56704 37.3351V40.0927H4.10286L3.23898 27.582H20.761L19.8972 40.0927ZM17.4134 32.1649C17.4134 31.9062 17.6154 31.6957 17.8636 31.6957C18.1118 31.6957 18.3138 31.9062 18.3138 32.1649C18.3138 32.4235 18.1118 32.634 17.8636 32.634C17.6154 32.634 17.4134 32.4235 17.4134 32.1649ZM6.13656 34.323C5.88833 34.323 5.68639 34.1126 5.68639 33.8539C5.68639 33.5953 5.88833 33.3848 6.13656 33.3848C6.38478 33.3848 6.58673 33.5953 6.58673 33.8539C6.58673 34.1126 6.38478 34.323 6.13656 34.323ZM22.6496 26.1746H1.35051V22.9233H22.6496V26.1746Z" fill="#00CD69"/>
</svg>
