<svg width="18" height="42" viewBox="0 0 18 42" fill="none" xmlns="http://www.w3.org/2000/svg">
<path d="M15.7123 10.7248C14.8228 8.77153 13.9883 6.92832 13.9883 5.19515V4.83751C14.3001 4.77332 14.5385 4.49821 14.5385 4.16808V1.18777C14.5385 0.811787 14.2268 0.5 13.8508 0.5H4.13953C3.76355 0.5 3.45176 0.811787 3.45176 1.18777V4.16808C3.45176 4.49821 3.69019 4.77332 4.00197 4.83751V5.19515C4.00197 6.92832 3.16748 8.77153 2.27797 10.7248C1.27842 12.9348 0.242188 15.2182 0.242188 17.6758V35.9979C0.242188 37.3367 0.608996 38.4371 1.34261 39.2716C1.97536 40.3079 3.21333 41.5 4.68974 41.5H13.3097C14.4743 41.5 15.8682 40.3812 16.6569 39.2716C17.3538 38.3454 17.7573 37.1533 17.7573 36.007V17.685C17.7481 15.2182 16.7119 12.9348 15.7123 10.7248ZM4.82729 1.87553H13.163V3.48032H4.82729V1.87553ZM16.3726 35.9979C16.3726 36.8507 16.07 37.7402 15.5381 38.4371C15.5381 38.4463 15.5289 38.4463 15.5289 38.4555C14.8412 39.4275 13.8049 40.1153 13.3006 40.1153H4.68057C3.94695 40.1153 3.0391 39.455 2.47972 38.5105C2.45221 38.4738 2.4247 38.428 2.39719 38.4005C1.87448 37.8227 1.60855 37.0158 1.60855 35.9979V32.339H16.3726V35.9979ZM16.3726 30.9543H1.60855V20.1976H16.3726V30.9543ZM16.3726 18.8221H1.60855V17.6758C1.60855 15.5116 2.58059 13.3658 3.52512 11.2933C4.47882 9.20253 5.36833 7.22176 5.36833 5.19515V4.85585H12.6128V5.19515C12.6128 7.22176 13.5115 9.20253 14.456 11.2933C15.4005 13.3658 16.3726 15.5208 16.3726 17.6758V18.8221Z" fill="#00CD69"/>
</svg>
