<svg width="46" height="40" viewBox="0 0 46 40" fill="none" xmlns="http://www.w3.org/2000/svg">
<path d="M19.1119 14.5586C17.8267 14.5586 16.7812 15.604 16.7812 16.8892C16.7812 18.1745 17.8267 19.2199 19.1119 19.2199C20.3971 19.2199 21.4425 18.1745 21.4425 16.8892C21.4425 15.604 20.3971 14.5586 19.1119 14.5586ZM19.1119 17.6661C18.6837 17.6661 18.335 17.3175 18.335 16.8891C18.335 16.4609 18.6836 16.1122 19.1119 16.1122C19.5402 16.1122 19.8888 16.4608 19.8888 16.8891C19.8888 17.3175 19.5402 17.6661 19.1119 17.6661Z" fill="#00CD69"/>
<path d="M26.8853 14.5586C25.6001 14.5586 24.5547 15.604 24.5547 16.8892C24.5547 18.1745 25.6001 19.2199 26.8853 19.2199C28.1706 19.2199 29.216 18.1745 29.216 16.8892C29.216 15.604 28.1706 14.5586 26.8853 14.5586ZM26.8853 17.6661C26.4571 17.6661 26.1084 17.3175 26.1084 16.8891C26.1084 16.4609 26.457 16.1122 26.8853 16.1122C27.3136 16.1122 27.6622 16.4608 27.6622 16.8891C27.6622 17.3175 27.3136 17.6661 26.8853 17.6661Z" fill="#00CD69"/>
<path d="M20.3897 27.0524C20.0285 26.1522 19.3446 25.5086 18.5135 25.2859C16.8577 24.839 15.0612 26.1648 14.5067 28.2337C14.2484 29.1968 14.2912 30.1873 14.627 31.0233C14.9881 31.9235 15.672 32.5672 16.5031 32.7898C16.719 32.8478 16.9374 32.8755 17.1553 32.8755C18.6062 32.8755 20.0279 31.6408 20.5101 29.842C20.7683 28.879 20.7254 27.8885 20.3897 27.0524ZM19.0093 29.44C18.6819 30.6603 17.7143 31.5055 16.9051 31.2892C16.42 31.1592 16.173 30.7043 16.0687 30.4445C15.8605 29.9263 15.8381 29.2671 16.0073 28.6358C16.2998 27.5448 17.101 26.7524 17.8486 26.7524C17.9374 26.7524 18.0254 26.7634 18.1115 26.7866C18.5967 26.9167 18.8436 27.3715 18.9479 27.6313C19.1561 28.1495 19.1785 28.8087 19.0093 29.44Z" fill="#00CD69"/>
<path d="M31.3889 28.237C30.8343 26.1681 29.0374 24.8443 27.382 25.2892C26.5509 25.5119 25.867 26.1556 25.5059 27.0558C25.1701 27.8918 25.1273 28.8822 25.3856 29.8453C25.8677 31.6445 27.2895 32.8789 28.7404 32.8789C28.9581 32.8789 29.1766 32.8512 29.3924 32.7932C30.2235 32.5705 30.9075 31.9267 31.2686 31.0266C31.6043 30.1907 31.6472 29.2002 31.3889 28.237ZM29.8267 30.4478C29.7224 30.7077 29.4755 31.1625 28.9903 31.2926C28.1797 31.5088 27.2132 30.6637 26.8861 29.4433C26.717 28.8122 26.7393 28.1528 26.9476 27.6347C27.0518 27.3748 27.2988 26.92 27.784 26.7899C27.87 26.7667 27.958 26.7557 28.0468 26.7557C28.7945 26.7557 29.5956 27.5481 29.8881 28.6391C30.0574 29.2704 30.035 29.9296 29.8267 30.4478Z" fill="#00CD69"/>
<path d="M45.4334 9.8961C41.7982 3.35292 34.3282 4.40766 32.5216 4.77253C29.7222 2.17049 26.2038 0.578125 23.0019 0.578125C19.8001 0.578125 16.2819 2.1704 13.4824 4.77218C11.6764 4.4067 4.20661 3.35169 0.570506 9.8961C0.402064 10.1995 0.454779 10.5778 0.700225 10.8228C0.781806 10.9044 2.2896 12.3587 5.85151 12.3587C6.72426 12.3587 7.72162 12.2704 8.85046 12.0541C8.46042 13.3484 8.24138 14.709 8.24138 16.1157C8.24138 20.2002 9.67093 23.2377 12.4581 25.1863C11.2702 26.6149 10.572 28.2953 10.572 30.0994C10.572 35.2398 16.1482 39.4219 23.002 39.4219C29.8559 39.4219 35.432 35.2397 35.432 30.0994C35.432 28.2951 34.7337 26.6146 33.5455 25.1858C36.3325 23.2375 37.7626 20.1999 37.7626 16.1157C37.7626 14.7089 37.5435 13.3483 37.1535 12.0541C38.2822 12.2704 39.2793 12.3587 40.1524 12.3587C43.714 12.3587 45.2222 10.9044 45.3037 10.8228C45.5491 10.5777 45.6018 10.1995 45.4334 9.8961ZM2.29118 10.0485C5.07337 5.7801 9.87405 5.81478 12.1771 6.11936C11.0918 7.36648 10.1717 8.78222 9.49334 10.3203C5.4378 11.3086 3.20098 10.5395 2.29118 10.0485ZM33.8781 30.0993C33.8781 34.3831 28.9991 37.8681 23.0019 37.8681C17.0047 37.8681 12.1257 34.3831 12.1257 30.0993C12.1257 25.8155 17.0047 22.3306 23.0019 22.3306C28.9991 22.3306 33.8781 25.8155 33.8781 30.0993ZM32.4498 24.0573C30.1681 22.0534 26.7825 20.7768 23.0019 20.7768C19.2219 20.7768 15.8367 22.053 13.555 24.0564C11.037 22.4026 9.7951 19.8074 9.7951 16.1155C9.7951 8.58465 17.057 2.13177 23.0019 2.13177C28.9468 2.13177 36.2088 8.58456 36.2088 16.1155C36.2088 19.808 34.9676 22.403 32.4498 24.0573ZM36.5105 10.3204C35.8322 8.78239 34.9122 7.36692 33.8272 6.11963C36.13 5.81548 40.93 5.78098 43.712 10.0475C42.7973 10.5414 40.5597 11.3068 36.5105 10.3204Z" fill="#00CD69"/>
</svg>
