<svg width="46" height="46" viewBox="0 0 46 46" fill="none" xmlns="http://www.w3.org/2000/svg">
<g clip-path="url(#clip0_2662_9876)">
<path d="M41.4572 15.2415H33.6867C32.8698 14.1193 31.8806 13.1302 30.7585 12.3133V8.07872C30.7585 7.69183 30.4449 7.37841 30.0581 7.37841C29.6712 7.37841 29.3578 7.69191 29.3578 8.07872V11.4163C28.2074 10.7829 26.9748 10.3301 25.6948 10.0649C25.6735 10.0605 25.6523 10.056 25.6309 10.0517C25.5437 10.034 25.4564 10.0171 25.3688 10.0013C25.3326 9.99482 25.2962 9.98858 25.2599 9.98234C25.1795 9.96855 25.0991 9.95457 25.0184 9.94218C24.9672 9.93427 24.9154 9.92759 24.8639 9.92021C24.7529 9.90456 24.6416 9.89006 24.53 9.87723C24.4561 9.86861 24.3821 9.86018 24.3077 9.85279C24.2546 9.84752 24.2013 9.84321 24.148 9.83864C24.0715 9.83205 23.9947 9.82599 23.9177 9.82063C23.8674 9.8172 23.8172 9.81386 23.7668 9.81105C23.6819 9.80621 23.5966 9.80234 23.5112 9.79909C23.4688 9.79751 23.4264 9.79549 23.3841 9.79426C23.2565 9.79066 23.1285 9.78828 23 9.78828C22.8715 9.78828 22.7436 9.79066 22.6159 9.79426C22.5736 9.79549 22.5311 9.79751 22.4888 9.79909C22.4034 9.80234 22.3181 9.80621 22.2332 9.81105C22.1828 9.81395 22.1326 9.8172 22.0823 9.82063C22.0054 9.82599 21.9286 9.83205 21.852 9.83864C21.7987 9.84321 21.7454 9.84761 21.6923 9.85279C21.6179 9.86018 21.5439 9.8687 21.4698 9.87723C21.3583 9.89015 21.2472 9.90447 21.1363 9.92021C21.0846 9.9275 21.0329 9.93418 20.9814 9.94218C20.9007 9.95448 20.8203 9.96846 20.74 9.98234C20.7037 9.98858 20.6673 9.99465 20.6311 10.0013C20.5435 10.0172 20.4561 10.0341 20.369 10.0517C20.3477 10.056 20.3265 10.0605 20.3051 10.0649C19.0251 10.33 17.7926 10.7829 16.6421 11.4163V4.54279C16.6421 3.08592 17.8273 1.90071 19.2842 1.90071H26.7155C28.1724 1.90071 29.3576 3.08592 29.3576 4.54279V5.7868C29.3576 6.17369 29.6711 6.48711 30.0579 6.48711C30.4447 6.48711 30.7582 6.17352 30.7582 5.7868V4.54279C30.7585 2.31362 28.9448 0.5 26.7157 0.5H19.2843C17.0552 0.5 15.2415 2.31362 15.2415 4.54279V12.3133C14.1193 13.1302 13.1302 14.1194 12.3133 15.2415H4.54279C2.31362 15.2415 0.5 17.0552 0.5 19.2843V21.5837C0.5 21.9706 0.813506 22.284 1.20031 22.284C1.58712 22.284 1.90062 21.9705 1.90062 21.5837V19.2843C1.90062 17.8275 3.08583 16.6423 4.54271 16.6423H11.4162C10.7829 17.7927 10.33 19.0253 10.0648 20.3053C10.0604 20.3265 10.0559 20.3478 10.0516 20.3692C10.0339 20.4564 10.0171 20.5437 10.0012 20.6313C9.99474 20.6675 9.98867 20.7039 9.98226 20.7402C9.96846 20.8206 9.95448 20.901 9.94209 20.9817C9.93427 21.0329 9.9275 21.0847 9.92012 21.1361C9.90447 21.2471 9.88997 21.3585 9.87705 21.47C9.86844 21.5439 9.86 21.6179 9.85262 21.6923C9.84734 21.7454 9.84304 21.7987 9.83847 21.852C9.83187 21.9286 9.82572 22.0053 9.82045 22.0823C9.81702 22.1326 9.81377 22.1828 9.81087 22.2331C9.80604 22.3181 9.80217 22.4033 9.79892 22.4887C9.79733 22.5311 9.79531 22.5735 9.79408 22.6158C9.79048 22.7434 9.78811 22.8714 9.78811 22.9999C9.78811 23.1284 9.79048 23.2563 9.79408 23.384C9.79531 23.4264 9.79733 23.4688 9.79892 23.5111C9.80217 23.5965 9.80604 23.6818 9.81087 23.7668C9.81377 23.8171 9.81702 23.8673 9.82045 23.9176C9.82581 23.9945 9.83187 24.0713 9.83847 24.1479C9.84304 24.2012 9.84743 24.2545 9.85262 24.3076C9.86 24.382 9.86853 24.456 9.87705 24.53C9.88997 24.6415 9.9043 24.7526 9.92003 24.8635C9.92732 24.9152 9.934 24.9669 9.942 25.0184C9.95439 25.0991 9.96828 25.1795 9.98217 25.2598C9.98841 25.2961 9.99447 25.3325 10.0012 25.3687C10.0171 25.4564 10.0339 25.5437 10.0515 25.6308C10.0558 25.6521 10.0603 25.6734 10.0647 25.6947C10.3299 26.9747 10.7828 28.2073 11.4161 29.3577H4.54279C3.08592 29.3579 1.90071 28.1727 1.90071 26.7158V23.8859C1.90071 23.499 1.58712 23.1856 1.2004 23.1856C0.813506 23.1856 0.500088 23.4991 0.500088 23.8859V26.7158C0.500088 28.945 2.31371 30.7586 4.54288 30.7586H12.3134C13.1303 31.8809 14.1194 32.8699 15.2416 33.6869V41.4574C15.2416 43.6866 17.0553 45.5002 19.2844 45.5002H26.7158C28.9449 45.5002 30.7585 43.6866 30.7585 41.4574V33.6869C31.8808 32.8699 32.8699 31.8808 33.6868 30.7586H41.4573C43.6865 30.7586 45.5001 28.945 45.5001 26.7158V19.2845C45.5 17.0552 43.6864 15.2415 41.4572 15.2415ZM29.3577 41.4572C29.3577 42.9141 28.1725 44.0993 26.7157 44.0993H19.2843C17.8275 44.0993 16.6423 42.9141 16.6423 41.4572V34.5837C17.7927 35.2171 19.0253 35.6699 20.3053 35.9351C20.3265 35.9395 20.3478 35.944 20.3692 35.9483C20.4564 35.966 20.5437 35.9829 20.6313 35.9987C20.6675 36.0052 20.7039 36.0113 20.7402 36.0177C20.8206 36.0315 20.901 36.0454 20.9816 36.0578C21.0329 36.0657 21.0848 36.0725 21.1365 36.0798C21.2474 36.0954 21.3586 36.1099 21.47 36.1228C21.5439 36.1314 21.618 36.1398 21.6925 36.1472C21.7456 36.1524 21.7989 36.1568 21.8521 36.1614C21.9287 36.168 22.0055 36.174 22.0825 36.1794C22.1328 36.1828 22.183 36.1861 22.2333 36.189C22.3183 36.1938 22.4036 36.1977 22.489 36.2009C22.5314 36.2025 22.5737 36.2045 22.6161 36.2057C22.7437 36.2094 22.8717 36.2117 23.0002 36.2117C23.1287 36.2117 23.2566 36.2094 23.3843 36.2057C23.4266 36.2045 23.4691 36.2025 23.5113 36.2009C23.5968 36.1977 23.682 36.1938 23.767 36.189C23.8174 36.1861 23.8676 36.1828 23.9178 36.1794C23.9947 36.174 24.0716 36.168 24.1482 36.1614C24.2015 36.1568 24.2547 36.1524 24.3079 36.1472C24.3823 36.1398 24.4562 36.1313 24.5302 36.1228C24.6418 36.1099 24.7531 36.0954 24.8641 36.0798C24.9156 36.0725 24.9673 36.0658 25.0186 36.0578C25.0994 36.0454 25.1797 36.0315 25.26 36.0177C25.2963 36.0114 25.3327 36.0054 25.3689 35.9987C25.4565 35.9828 25.5439 35.9659 25.631 35.9483C25.6523 35.944 25.6735 35.9395 25.6949 35.9351C26.9748 35.67 28.2073 35.2171 29.3578 34.5837V41.4572H29.3577ZM34.5516 25.4655C34.4965 25.7233 34.4339 25.9783 34.3623 26.2296C34.3622 26.2298 34.3622 26.2299 34.3621 26.2301C33.2461 30.1506 30.1506 33.246 26.2301 34.3622C26.2299 34.3622 26.2298 34.3622 26.2296 34.3622C25.9783 34.4338 25.7233 34.4964 25.4655 34.5515C25.4189 34.5614 25.3723 34.5712 25.3255 34.5807C25.2583 34.5942 25.1908 34.6073 25.1233 34.6196C25.0378 34.6351 24.9522 34.6496 24.8663 34.6632C24.8014 34.6735 24.7362 34.6831 24.6709 34.6924C24.5847 34.7047 24.4984 34.7162 24.4118 34.7265C24.3657 34.7321 24.3196 34.7374 24.2734 34.7425C24.1505 34.7556 24.0273 34.7677 23.9037 34.777C23.8851 34.7784 23.8663 34.7793 23.8478 34.7805C23.7332 34.7886 23.6185 34.795 23.5034 34.7998C23.4678 34.8013 23.4322 34.8027 23.3964 34.8039C23.2646 34.8083 23.1325 34.8113 23 34.8113C22.8675 34.8113 22.7354 34.8083 22.6036 34.8039C22.5679 34.8027 22.5322 34.8013 22.4966 34.7998C22.3815 34.7949 22.2666 34.7887 22.1522 34.7805C22.1337 34.7792 22.1149 34.7784 22.0963 34.777C21.9726 34.7677 21.8495 34.7556 21.7266 34.7425C21.6804 34.7375 21.6343 34.7321 21.5882 34.7265C21.5016 34.7163 21.4152 34.7047 21.3291 34.6924C21.2638 34.6832 21.1987 34.6735 21.1337 34.6632C21.0479 34.6496 20.9622 34.6351 20.8767 34.6196C20.8091 34.6073 20.7417 34.5942 20.6745 34.5807C20.6277 34.5714 20.5812 34.5614 20.5345 34.5515C20.2767 34.4964 20.0217 34.4338 19.7704 34.3622C19.7702 34.3622 19.7701 34.3622 19.7699 34.3622C15.8493 33.2461 12.754 30.1506 11.6378 26.2301C11.6377 26.2299 11.6377 26.2298 11.6376 26.2296C11.566 25.9784 11.5034 25.7233 11.4484 25.4655C11.4384 25.4189 11.4285 25.3723 11.4191 25.3255C11.4056 25.2583 11.3925 25.1909 11.3802 25.1233C11.3648 25.0378 11.3503 24.9522 11.3366 24.8663C11.3263 24.8014 11.3167 24.7362 11.3074 24.6709C11.2952 24.5847 11.2837 24.4984 11.2733 24.4118C11.2677 24.3657 11.2624 24.3196 11.2574 24.2734C11.2442 24.1505 11.2321 24.0273 11.2228 23.9037C11.2214 23.8851 11.2205 23.8663 11.2193 23.8478C11.2112 23.7332 11.2048 23.6185 11.2001 23.5034C11.1986 23.4678 11.1972 23.4322 11.1959 23.3964C11.1915 23.2646 11.1886 23.1325 11.1886 23C11.1886 22.8675 11.1916 22.7355 11.1959 22.6036C11.1972 22.5679 11.1986 22.5322 11.2001 22.4966C11.2049 22.3815 11.2111 22.2666 11.2193 22.1522C11.2206 22.1337 11.2214 22.1149 11.2228 22.0963C11.2321 21.9726 11.2442 21.8495 11.2574 21.7266C11.2623 21.6804 11.2677 21.6343 11.2733 21.5882C11.2836 21.5016 11.2952 21.4152 11.3074 21.3291C11.3166 21.2638 11.3263 21.1987 11.3366 21.1337C11.3503 21.048 11.3648 20.9622 11.3802 20.8767C11.3925 20.8092 11.4056 20.7417 11.4191 20.6745C11.4284 20.6277 11.4383 20.5812 11.4484 20.5345C11.5034 20.2767 11.566 20.0217 11.6376 19.7704C11.6377 19.7702 11.6377 19.7701 11.6378 19.7699C12.7538 15.8493 15.8493 12.754 19.7699 11.6378C19.7701 11.6378 19.7702 11.6377 19.7704 11.6377C20.0217 11.5661 20.2767 11.5035 20.5345 11.4484C20.5811 11.4385 20.6277 11.4286 20.6745 11.4192C20.7417 11.4057 20.8092 11.3926 20.8767 11.3803C20.9622 11.3649 21.0478 11.3504 21.1337 11.3367C21.1986 11.3264 21.2638 11.3168 21.3291 11.3075C21.4153 11.2953 21.5016 11.2837 21.5882 11.2734C21.6343 11.2678 21.6804 11.2625 21.7266 11.2575C21.8495 11.2443 21.9727 11.2322 22.0963 11.2229C22.1149 11.2215 22.1337 11.2207 22.1522 11.2194C22.2668 11.2113 22.3815 11.2049 22.4966 11.2002C22.5322 11.1987 22.5678 11.1973 22.6036 11.196C22.7354 11.1916 22.8675 11.1886 23 11.1886C23.1325 11.1886 23.2646 11.1916 23.3964 11.196C23.4321 11.1973 23.4678 11.1987 23.5034 11.2002C23.6185 11.205 23.7334 11.2112 23.8478 11.2194C23.8663 11.2207 23.8851 11.2215 23.9037 11.2229C24.0274 11.2322 24.1505 11.2443 24.2734 11.2575C24.3196 11.2624 24.3657 11.2678 24.4118 11.2734C24.4984 11.2837 24.5848 11.2953 24.6709 11.3075C24.7362 11.3167 24.8013 11.3264 24.8663 11.3367C24.9521 11.3504 25.0378 11.3649 25.1233 11.3803C25.1908 11.3926 25.2583 11.4057 25.3255 11.4192C25.3723 11.4285 25.4189 11.4385 25.4655 11.4484C25.7233 11.5035 25.9783 11.5661 26.2296 11.6377C26.2298 11.6377 26.2299 11.6378 26.2301 11.6378C30.1507 12.7538 33.246 15.8493 34.3621 19.7699C34.3622 19.7701 34.3622 19.7702 34.3623 19.7704C34.4339 20.0217 34.4965 20.2767 34.5516 20.5345C34.5615 20.5811 34.5714 20.6277 34.5808 20.6745C34.5943 20.7417 34.6074 20.8092 34.6197 20.8767C34.6351 20.9622 34.6496 21.0478 34.6633 21.1337C34.6736 21.1986 34.6832 21.2638 34.6925 21.3291C34.7047 21.4153 34.7163 21.5016 34.7266 21.5882C34.7322 21.6343 34.7375 21.6804 34.7425 21.7266C34.7557 21.8495 34.7678 21.9727 34.7771 22.0963C34.7785 22.1149 34.7793 22.1337 34.7806 22.1522C34.7887 22.2668 34.7951 22.3815 34.7998 22.4966C34.8013 22.5322 34.8027 22.5678 34.804 22.6036C34.8083 22.7355 34.8114 22.8675 34.8114 23C34.8114 23.1325 34.8083 23.2646 34.804 23.3964C34.8027 23.4321 34.8013 23.4678 34.7998 23.5034C34.795 23.6185 34.7888 23.7334 34.7806 23.8478C34.7793 23.8663 34.7785 23.8851 34.7771 23.9037C34.7678 24.0274 34.7557 24.1505 34.7425 24.2734C34.7376 24.3196 34.7322 24.3657 34.7266 24.4118C34.7163 24.4984 34.7047 24.5848 34.6925 24.6709C34.6833 24.7362 34.6736 24.8013 34.6633 24.8663C34.6496 24.9521 34.6351 25.0378 34.6197 25.1233C34.6074 25.1909 34.5943 25.2583 34.5808 25.3255C34.5714 25.3723 34.5615 25.4189 34.5516 25.4655ZM44.0993 26.7157C44.0993 28.1725 42.9141 29.3577 41.4572 29.3577H34.5837C35.2171 28.2073 35.6699 26.9747 35.9351 25.6947C35.9395 25.6735 35.944 25.6522 35.9483 25.6308C35.966 25.5436 35.9829 25.4563 35.9987 25.3687C36.0052 25.3325 36.0112 25.2961 36.0177 25.2598C36.0315 25.1794 36.0454 25.099 36.0578 25.0184C36.0657 24.967 36.0725 24.9152 36.0798 24.8635C36.0954 24.7526 36.1099 24.6415 36.1228 24.53C36.1314 24.4559 36.1398 24.382 36.1472 24.3076C36.1524 24.2545 36.1568 24.2012 36.1614 24.1479C36.1679 24.0714 36.174 23.9946 36.1794 23.9176C36.1828 23.8673 36.1861 23.8171 36.189 23.7668C36.1938 23.6818 36.1977 23.5965 36.2009 23.5111C36.2025 23.4687 36.2045 23.4264 36.2057 23.384C36.2093 23.2564 36.2117 23.1284 36.2117 22.9999C36.2117 22.8714 36.2093 22.7435 36.2057 22.6158C36.2045 22.5735 36.2025 22.531 36.2009 22.4887C36.1977 22.4033 36.1938 22.3181 36.189 22.2331C36.1861 22.1827 36.1828 22.1325 36.1794 22.0823C36.174 22.0054 36.1679 21.9286 36.1614 21.852C36.1568 21.7987 36.1524 21.7455 36.1472 21.6923C36.1398 21.6179 36.1313 21.544 36.1228 21.47C36.1099 21.3584 36.0954 21.2471 36.0798 21.1361C36.0725 21.0846 36.0658 21.0329 36.0578 20.9817C36.0454 20.9009 36.0315 20.8206 36.0177 20.7402C36.0114 20.7039 36.0054 20.6676 35.9987 20.6313C35.9828 20.5437 35.9659 20.4564 35.9483 20.3693C35.944 20.348 35.9395 20.3267 35.9351 20.3054C35.67 19.0254 35.2171 17.7928 34.5837 16.6423H41.4572C42.9141 16.6423 44.0993 17.8276 44.0993 19.2844V26.7157Z" fill="#00CD69"/>
<path d="M24.1713 22.3777L24.1424 22.3487C23.4364 21.6427 22.3391 21.2695 20.9694 21.2695C18.6133 21.2695 15.9356 22.3555 15.0004 23.6905C14.5097 24.3911 14.5743 24.9989 14.7148 25.3855C15.0527 26.3152 15.7205 27.0824 16.6998 27.6657C17.1385 27.9271 17.5449 28.2445 17.9106 28.6124C18.2752 28.9749 18.5929 29.3813 18.8544 29.8203C19.4377 30.7994 20.2048 31.4672 21.1344 31.8052C21.3179 31.8719 21.5087 31.9056 21.7017 31.9056C21.7017 31.9056 21.7017 31.9056 21.7019 31.9056C22.7585 31.9056 23.7811 30.9001 24.5075 29.1467C25.4151 26.9561 25.697 23.9034 24.1713 22.3777ZM23.2135 28.6106C22.7036 29.8412 22.0542 30.505 21.7017 30.5049C21.672 30.5049 21.6429 30.4995 21.6129 30.4886C20.9947 30.264 20.4714 29.7978 20.0576 29.1031C19.736 28.5635 19.3458 28.0641 18.901 27.6218C18.4555 27.1737 17.9561 26.7835 17.4166 26.4622C16.722 26.0484 16.256 25.5251 16.0312 24.9069C16.0166 24.8667 15.9722 24.7446 16.1477 24.4941C16.7508 23.6331 18.941 22.6702 20.9694 22.6702C21.9456 22.6702 22.7207 22.9077 23.1519 23.339L23.1809 23.368C24.1566 24.3438 23.9637 26.7998 23.2135 28.6106Z" fill="#00CD69"/>
<path d="M25.4481 14.2942C25.0972 14.1612 24.7303 14.0938 24.3576 14.0938C23.0869 14.0938 21.9304 14.8923 21.4798 16.0808C21.1998 16.8192 21.1519 17.8522 21.355 18.7766C21.605 19.9161 22.1768 20.7081 22.9648 21.007C23.1905 21.0926 23.432 21.136 23.6826 21.136C23.6826 21.136 23.6826 21.136 23.6827 21.136C25.134 21.136 26.7195 19.6216 27.2348 18.2626C27.8362 16.6761 27.0347 14.8958 25.4481 14.2942ZM25.925 17.7659C25.5958 18.6341 24.4741 19.7353 23.6825 19.7352C23.6012 19.7352 23.5288 19.7227 23.4613 19.6972C23.1401 19.5754 22.8641 19.119 22.7229 18.4762C22.5796 17.8232 22.6063 17.0601 22.7893 16.5772C23.0349 15.9295 23.6652 15.4943 24.3576 15.4943C24.56 15.4943 24.7598 15.5311 24.9514 15.6038C25.816 15.9316 26.2527 16.9015 25.925 17.7659Z" fill="#00CD69"/>
<path d="M20.3788 17.1712C20.1219 15.8995 18.995 14.9766 17.6992 14.9766C17.5177 14.9766 17.3347 14.9948 17.1554 15.0311C15.6768 15.3297 14.7168 16.7758 15.0154 18.2545C15.2636 19.4831 16.5647 21.2676 18.0387 21.2678C18.0388 21.2678 18.0389 21.2678 18.039 21.2678C18.1589 21.2678 18.2787 21.2559 18.3951 21.2324C19.958 20.9167 20.6649 18.5875 20.3788 17.1712ZM18.1178 19.8595C18.0922 19.8648 18.0665 19.8671 18.0389 19.8671C17.4696 19.8671 16.5596 18.8249 16.3883 17.9772C16.2427 17.2555 16.7111 16.5498 17.4328 16.4041C17.5209 16.3863 17.6105 16.3773 17.6993 16.3773C18.3311 16.3773 18.8805 16.8278 19.0059 17.4487C19.1881 18.3503 18.6735 19.7473 18.1178 19.8595Z" fill="#00CD69"/>
<path d="M32.2299 21.073C31.7792 19.8844 30.6226 19.0859 29.3519 19.0859C28.9793 19.0859 28.6124 19.1534 28.2614 19.2865C26.7427 19.8623 24.8736 21.8589 25.5171 23.5565C26.0027 24.8371 27.6526 25.2915 28.9179 25.2915C29.4844 25.2915 30.0119 25.205 30.4432 25.0414C32.03 24.44 32.8314 22.6597 32.2299 21.073ZM29.9467 23.7318C29.6762 23.8345 29.3108 23.8908 28.9179 23.8908C27.9054 23.8908 27.0064 23.5336 26.8267 23.0599C26.5552 22.3435 27.7462 20.9798 28.758 20.5962C28.9498 20.5235 29.1496 20.4867 29.3519 20.4867C30.0443 20.4867 30.6746 20.9219 30.9202 21.5696C31.2479 22.4342 30.8112 23.404 29.9467 23.7318Z" fill="#00CD69"/>
<path d="M29.3517 26.1443C29.1472 26.103 28.9231 26.082 28.6862 26.082C27.2404 26.082 25.559 26.7992 25.2905 28.128C24.9662 29.7327 26.8683 31.2249 28.2685 31.5077C28.4477 31.5439 28.6306 31.5622 28.8122 31.5622C30.1081 31.5622 31.2349 30.6392 31.4918 29.3675C31.7903 27.8891 30.8303 26.443 29.3517 26.1443ZM30.1188 29.0904C29.9934 29.7111 29.444 30.1618 28.8121 30.1618C28.7235 30.1618 28.6338 30.1528 28.5457 30.135C27.644 29.9529 26.5532 28.9507 26.6634 28.4055C26.7574 27.94 27.7594 27.4828 28.6862 27.4828C28.8302 27.4828 28.9609 27.4945 29.0743 27.5174C29.796 27.6631 30.2645 28.3688 30.1188 29.0904Z" fill="#00CD69"/>
</g>
<defs>
<clipPath id="clip0_2662_9876">
<rect width="45" height="45" fill="white" transform="translate(0.5 0.5)"/>
</clipPath>
</defs>
</svg>
