<svg width="14" height="15" viewBox="0 0 14 15" fill="none" xmlns="http://www.w3.org/2000/svg">
<path d="M14.0004 3C14.0004 3.52008 13.8382 4.0272 13.5364 4.45075C13.2346 4.8743 12.8082 5.19318 12.3166 5.36298C11.8251 5.53278 11.2928 5.54505 10.7939 5.39807C10.295 5.2511 9.8544 4.9522 9.53341 4.543L4.91541 6.852C5.02937 7.27682 5.02937 7.72418 4.91541 8.149L9.53341 10.457C9.91614 9.96982 10.4661 9.6421 11.0768 9.53738C11.6874 9.43266 12.3151 9.5584 12.8383 9.89023C13.3615 10.2221 13.7428 10.7363 13.9084 11.3333C14.074 11.9303 14.012 12.5676 13.7344 13.1214C13.4568 13.6753 12.9835 14.1064 12.4061 14.3311C11.8288 14.5559 11.1886 14.5582 10.6096 14.3377C10.0306 14.1172 9.55413 13.6896 9.27252 13.1378C8.99091 12.586 8.92423 11.9492 9.08541 11.351L4.46741 9.043C4.14649 9.45233 3.70588 9.75136 3.20698 9.89845C2.70808 10.0455 2.17572 10.0334 1.68407 9.8636C1.19242 9.69385 0.765958 9.37497 0.464095 8.95139C0.162232 8.52781 0 8.02063 0 7.5005C0 6.98037 0.162232 6.47318 0.464095 6.04961C0.765958 5.62603 1.19242 5.30715 1.68407 5.1374C2.17572 4.96764 2.70808 4.95546 3.20698 5.10255C3.70588 5.24964 4.14649 5.54867 4.46741 5.958L9.08541 3.648C8.98682 3.27757 8.9746 2.88945 9.04967 2.51355C9.12475 2.13765 9.28513 1.78401 9.51845 1.47987C9.75177 1.17574 10.0518 0.929228 10.3954 0.759342C10.739 0.589456 11.1171 0.50073 11.5004 0.5C12.1634 0.5 12.7993 0.763392 13.2682 1.23223C13.737 1.70107 14.0004 2.33696 14.0004 3Z" fill="#00CD69"/>
</svg>
