<svg width="12" height="12" viewBox="0 0 12 12" fill="none" xmlns="http://www.w3.org/2000/svg">
<path d="M4.74839 0C6.00774 0 7.21551 0.50029 8.106 1.39081C8.9965 2.28133 9.49677 3.48914 9.49677 4.74853C9.49677 5.78921 9.16188 6.75141 8.59458 7.53417L11.7765 10.7162C11.9141 10.8518 11.994 11.0352 11.9997 11.2283C12.0053 11.4214 11.9363 11.6092 11.8069 11.7526C11.6774 11.896 11.4977 11.9839 11.3051 11.998C11.1124 12.0121 10.9218 11.9513 10.7728 11.8283L10.7159 11.7769L7.53394 8.59484C6.7243 9.18281 5.74898 9.4987 4.74839 9.49706C3.48904 9.49706 2.28126 8.99677 1.39077 8.10625C0.500275 7.21573 0 6.00792 0 4.74853C0 3.48914 0.500275 2.28133 1.39077 1.39081C2.28126 0.50029 3.48904 1.87664e-08 4.74839 0ZM4.74839 1.49954C3.88672 1.49954 3.06036 1.84184 2.45107 2.45114C1.84178 3.06045 1.49949 3.88684 1.49949 4.74853C1.49949 5.61022 1.84178 6.43661 2.45107 7.04592C3.06036 7.65522 3.88672 7.99753 4.74839 7.99753C5.61005 7.99753 6.43641 7.65522 7.0457 7.04592C7.65499 6.43661 7.99728 5.61022 7.99728 4.74853C7.99728 3.88684 7.65499 3.06045 7.0457 2.45114C6.43641 1.84184 5.61005 1.49954 4.74839 1.49954Z" fill="white"/>
</svg>
