<svg width="26" height="26" viewBox="0 0 26 26" fill="none" xmlns="http://www.w3.org/2000/svg">
<path d="M17.8754 4.06271C17.8753 3.10953 18.2104 2.18667 18.8219 1.45557C19.4335 0.724478 20.2827 0.231708 21.2209 0.0634779C22.1591 -0.104752 23.1266 0.0622694 23.9541 0.535322C24.7816 1.00837 25.4164 1.75733 25.7475 2.65116C26.0786 3.54499 26.0848 4.52677 25.7651 5.42474C25.4454 6.3227 24.8202 7.07966 23.9988 7.56319C23.1773 8.04671 22.212 8.22601 21.2718 8.06971C20.3315 7.91342 19.4761 7.43147 18.8553 6.70821L7.93856 11.7782C8.18952 12.5735 8.18952 13.4269 7.93856 14.2222L18.8553 19.2922C19.5115 18.529 20.4278 18.0366 21.4264 17.9104C22.425 17.7842 23.4349 18.0332 24.2603 18.6092C25.0858 19.1852 25.6681 20.0471 25.8943 21.0279C26.1205 22.0087 25.9745 23.0386 25.4846 23.9179C24.9948 24.7972 24.196 25.4634 23.2429 25.7873C22.2899 26.1112 21.2506 26.0697 20.3264 25.671C19.4022 25.2723 18.6589 24.5446 18.2406 23.6291C17.8223 22.7136 17.7588 21.6754 18.0623 20.7157L7.14556 15.6457C6.60514 16.2755 5.8848 16.7247 5.08145 16.9328C4.27809 17.141 3.43026 17.0981 2.65201 16.81C1.87375 16.5218 1.2024 16.0023 0.72828 15.3212C0.254157 14.6401 0 13.8301 0 13.0002C0 12.1703 0.254157 11.3603 0.72828 10.6792C1.2024 9.99813 1.87375 9.47856 2.65201 9.19043C3.43026 8.90229 4.27809 8.85942 5.08145 9.06757C5.8848 9.27571 6.60514 9.7249 7.14556 10.3547L18.0623 5.28471C17.938 4.88929 17.875 4.47719 17.8754 4.06271Z" fill="white"/>
</svg>
