<svg width="4" height="8" viewBox="0 0 4 8" fill="none" xmlns="http://www.w3.org/2000/svg">
<path d="M0.62521 7.61346C0.514448 7.61367 0.407107 7.57486 0.32182 7.50375C0.273819 7.4637 0.234141 7.41452 0.205057 7.35903C0.175973 7.30353 0.158056 7.2428 0.152332 7.18033C0.146607 7.11785 0.153188 7.05485 0.171697 6.99494C0.190206 6.93503 0.220279 6.87938 0.260194 6.83118L2.38392 4.27446L0.336042 1.71297C0.296665 1.66417 0.267259 1.60803 0.249515 1.54777C0.23177 1.48751 0.226037 1.42431 0.232645 1.36181C0.239253 1.29931 0.258071 1.23874 0.288018 1.18358C0.317966 1.12842 0.358451 1.07976 0.407149 1.0404C0.456196 0.996971 0.513634 0.964216 0.575859 0.944187C0.638083 0.924159 0.70375 0.917288 0.768738 0.924007C0.833727 0.930725 0.896634 0.950888 0.953511 0.983229C1.01039 1.01557 1.06001 1.05939 1.09926 1.11195L3.3889 3.97395C3.45862 4.0593 3.49673 4.16636 3.49673 4.27684C3.49673 4.38733 3.45862 4.49439 3.3889 4.57974L1.01867 7.44174C0.971112 7.49946 0.910703 7.54509 0.842341 7.57493C0.773979 7.60476 0.69959 7.61796 0.62521 7.61346Z" fill="#20A163"/>
</svg>
