<svg width="15" height="15" viewBox="0 0 15 15" fill="none" xmlns="http://www.w3.org/2000/svg">
<path d="M1.87503 7.0752H7.50003V7.9502H1.87503V7.0752Z" fill="#3E3E3E"/>
<path d="M0.937439 4.8877H5.62494V5.7627H0.937439V4.8877Z" fill="#3E3E3E"/>
<path d="M14.0244 7.34032L12.6182 4.27782C12.5821 4.19911 12.522 4.13202 12.4455 4.08488C12.3689 4.03775 12.2791 4.01265 12.1874 4.0127H10.7812V3.1377C10.7812 3.02166 10.7318 2.91038 10.6439 2.82834C10.556 2.74629 10.4367 2.7002 10.3124 2.7002H2.81241V3.5752H9.84366V9.06845C9.63007 9.18421 9.44314 9.33829 9.29366 9.5218C9.14418 9.70532 9.03511 9.91464 8.97273 10.1377H6.0271C5.91301 9.72528 5.64168 9.36586 5.26397 9.12681C4.88626 8.88775 4.42811 8.78547 3.97538 8.83914C3.52266 8.89281 3.10644 9.09875 2.80476 9.41834C2.50308 9.73794 2.33664 10.1493 2.33664 10.5752C2.33664 11.0011 2.50308 11.4125 2.80476 11.732C3.10644 12.0516 3.52266 12.2576 3.97538 12.3112C4.42811 12.3649 4.88626 12.2626 5.26397 12.0236C5.64168 11.7845 5.91301 11.4251 6.0271 11.0127H8.97273C9.0747 11.3882 9.3079 11.7212 9.63543 11.9591C9.96297 12.197 10.3661 12.3261 10.7812 12.3261C11.1962 12.3261 11.5994 12.197 11.9269 11.9591C12.2544 11.7212 12.4876 11.3882 12.5896 11.0127H13.5937C13.718 11.0127 13.8372 10.9666 13.9251 10.8846C14.013 10.8025 14.0624 10.6912 14.0624 10.5752V7.5127C14.0624 7.45343 14.0495 7.39478 14.0244 7.34032ZM4.21866 11.4502C4.03324 11.4502 3.85199 11.3989 3.69782 11.3027C3.54364 11.2066 3.42348 11.0699 3.35253 10.91C3.28157 10.7502 3.263 10.5742 3.29918 10.4045C3.33535 10.2348 3.42464 10.0788 3.55575 9.95648C3.68686 9.83411 3.85391 9.75077 4.03577 9.71701C4.21762 9.68325 4.40612 9.70057 4.57743 9.7668C4.74873 9.83303 4.89515 9.94518 4.99817 10.0891C5.10118 10.233 5.15616 10.4021 5.15616 10.5752C5.15591 10.8072 5.05706 11.0296 4.8813 11.1937C4.70554 11.3577 4.46723 11.45 4.21866 11.4502ZM10.7812 4.8877H11.878L12.883 7.0752H10.7812V4.8877ZM10.7812 11.4502C10.5957 11.4502 10.4145 11.3989 10.2603 11.3027C10.1061 11.2066 9.98598 11.0699 9.91503 10.91C9.84407 10.7502 9.8255 10.5742 9.86168 10.4045C9.89785 10.2348 9.98714 10.0788 10.1183 9.95648C10.2494 9.83411 10.4164 9.75077 10.5983 9.71701C10.7801 9.68325 10.9686 9.70057 11.1399 9.7668C11.3112 9.83303 11.4577 9.94518 11.5607 10.0891C11.6637 10.233 11.7187 10.4021 11.7187 10.5752C11.7184 10.8072 11.6196 11.0296 11.4438 11.1937C11.268 11.3577 11.0297 11.45 10.7812 11.4502ZM13.1249 10.1377H12.5896C12.4863 9.76295 12.2528 9.43077 11.9255 9.19325C11.5982 8.95572 11.1957 8.82627 10.7812 8.8252V7.9502H13.1249V10.1377Z" fill="#3E3E3E"/>
</svg>
