<svg width="23" height="21" viewBox="0 0 23 21" fill="none" xmlns="http://www.w3.org/2000/svg">
<path d="M1.88867 8.39062V17.8906C1.88867 19.0566 2.83385 20.0017 3.99978 20.0017H18.7776C19.9435 20.0017 20.8887 19.0566 20.8887 17.8906V8.39062" stroke="#00CD69" stroke-width="1.5"/>
<path d="M14.3802 19.9991V13.6658C14.3802 12.4998 13.4351 11.5547 12.2691 11.5547H10.158C8.99205 11.5547 8.04688 12.4998 8.04688 13.6658V19.9991" stroke="#00CD69" stroke-width="1.5" stroke-miterlimit="16"/>
<path d="M21.7513 7.71775L19.9632 1.45935C19.8855 1.18746 19.6371 1 19.3543 1H15.082L15.5837 7.02065C15.6002 7.21768 15.7072 7.39565 15.8771 7.49689C16.288 7.74181 17.0931 8.19571 17.7209 8.38889C18.7932 8.71875 20.3607 8.59979 21.2533 8.49001C21.6246 8.44441 21.8542 8.07739 21.7513 7.71775Z" stroke="#00CD69" stroke-width="1.5"/>
<path d="M13.4991 8.38889C14.0981 8.20457 14.8585 7.78288 15.2839 7.53185C15.4865 7.41235 15.598 7.18664 15.5784 6.95232L15.0824 1H7.69354L7.19751 6.95232C7.17798 7.18664 7.2895 7.41235 7.49199 7.53185C7.91739 7.78288 8.67784 8.20457 9.27687 8.38889C10.8528 8.87381 11.9231 8.87381 13.4991 8.38889Z" stroke="#00CD69" stroke-width="1.5"/>
<path d="M2.81271 1.45935L1.02459 7.71775C0.921828 8.07739 1.1514 8.44441 1.52264 8.49001C2.41528 8.59979 3.98287 8.71875 5.05506 8.38889C5.68287 8.19571 6.48798 7.74181 6.89888 7.49689C7.06871 7.39565 7.1758 7.21768 7.19223 7.02065L7.69395 1H3.42167C3.1389 1 2.89039 1.18746 2.81271 1.45935Z" stroke="#00CD69" stroke-width="1.5"/>
</svg>
