<svg width="109" height="109" viewBox="0 0 109 109" fill="none" xmlns="http://www.w3.org/2000/svg">
<path d="M95.7385 31.7943C94.9538 30.4346 93.83 29.3016 92.4768 28.5056C91.1237 27.7096 89.5873 27.2779 88.0177 27.2527H29.8843L27.2502 16.9885C26.984 15.9977 26.3902 15.1262 25.5656 14.5159C24.7409 13.9056 23.7338 13.5925 22.7085 13.6277H13.6252C12.4206 13.6277 11.2654 14.1062 10.4137 14.9579C9.56199 15.8096 9.0835 16.9648 9.0835 18.1693C9.0835 19.3739 9.56199 20.529 10.4137 21.3808C11.2654 22.2325 12.4206 22.711 13.6252 22.711H19.2568L31.7918 69.3085C32.058 70.2993 32.6517 71.1708 33.4764 71.7811C34.3011 72.3914 35.3082 72.7045 36.3335 72.6693H77.2085C78.0472 72.6668 78.8688 72.4321 79.5823 71.9912C80.2957 71.5503 80.8732 70.9204 81.2506 70.1714L96.1472 40.3781C96.7929 39.0247 97.0935 37.5326 97.0222 36.0348C96.9508 34.537 96.5098 33.0802 95.7385 31.7943ZM74.3927 63.586H39.7852L32.3822 36.336H88.0177L74.3927 63.586Z" fill="#00CD69"/>
<path d="M34.0625 95.375C37.8249 95.375 40.875 92.3249 40.875 88.5625C40.875 84.8001 37.8249 81.75 34.0625 81.75C30.3001 81.75 27.25 84.8001 27.25 88.5625C27.25 92.3249 30.3001 95.375 34.0625 95.375Z" fill="#00CD69"/>
<path d="M79.4795 95.375C83.2419 95.375 86.292 92.3249 86.292 88.5625C86.292 84.8001 83.2419 81.75 79.4795 81.75C75.7171 81.75 72.667 84.8001 72.667 88.5625C72.667 92.3249 75.7171 95.375 79.4795 95.375Z" fill="#00CD69"/>
</svg>
