<svg width="50" height="50" viewBox="0 0 50 50" fill="none" xmlns="http://www.w3.org/2000/svg">
<mask id="path-1-outside-1_670_1483" maskUnits="userSpaceOnUse" x="0" y="0" width="50" height="50" fill="black">
<rect fill="white" width="50" height="50"/>
<path d="M47.9153 3.51651C47.881 3.39029 47.8499 3.27867 47.8252 3.18479C48.0804 2.33566 47.7598 1.80574 47.5357 1.55747C46.8763 0.829349 45.7902 0.999383 45.4697 1.0651C45.4118 1.07866 45.3549 1.09535 45.2992 1.11726C45.1577 1.17359 45.0129 1.23618 44.8703 1.29459C43.7274 1.67326 42.6338 2.24699 41.6474 2.77378L41.5734 2.81342C40.0531 1.67952 38.1607 1.01816 36.1471 1.01816C31.2205 1.01816 27.2117 4.91746 27.2117 9.71178C27.2117 9.71909 27.2127 9.72535 27.2127 9.73265C23.399 10.5599 20.5052 13.7634 20.2511 17.6585C16.0107 18.1415 12.6773 21.5203 12.3889 25.7043C12.1552 25.6866 11.9214 25.6699 11.6834 25.6699C6.7568 25.6699 2.74795 29.5692 2.74795 34.3635C2.74795 35.8365 3.14466 37.2343 3.8287 38.4736C3.74722 38.5841 3.66144 38.6978 3.58425 38.8021C3.49204 38.9273 3.40519 39.0452 3.31728 39.1652C3.19398 39.3321 3.07711 39.4927 2.96775 39.6429C2.89377 39.7441 2.81979 39.8463 2.7501 39.9434C2.58391 40.1739 2.43059 40.3888 2.29764 40.5765C2.2644 40.6235 2.23546 40.6652 2.20436 40.7101C2.06498 40.9093 1.94382 41.0856 1.83982 41.2379C1.82803 41.2546 1.81302 41.2765 1.8023 41.2932C1.80123 41.2942 1.80123 41.2953 1.80123 41.2963C1.64147 41.5342 1.51925 41.7198 1.43347 41.8565L1.3477 41.9326C1.02605 42.2185 0.915613 42.667 1.06679 43.0645C1.17937 43.3597 1.42489 43.6924 1.91595 44.214C4.91588 47.3977 8.69314 49.001 12.6891 49C16.298 49 20.085 47.6919 23.6371 45.0621C35.5639 36.2266 45.7892 21.6475 45.9114 21.4712C50.7694 13.9501 48.6208 6.09726 47.9153 3.51651ZM43.7681 5.19807C43.722 5.12505 43.6759 5.05203 43.6277 4.97901C43.5205 4.81836 43.4057 4.66293 43.2878 4.50959C43.2513 4.46265 43.2202 4.41153 43.1827 4.36459C43.5762 4.16848 43.959 3.98593 44.3364 3.81172C44.1638 4.28009 43.9675 4.73908 43.7681 5.19807ZM36.1471 3.10446C37.9387 3.10446 39.5995 3.7992 40.8325 4.94771C40.9108 5.02073 40.9826 5.09897 41.0577 5.17616C41.2056 5.32846 41.3482 5.48598 41.4812 5.65184C41.5541 5.74259 41.6249 5.83439 41.6924 5.92827C41.8189 6.10352 41.9347 6.28607 42.043 6.47384C42.0945 6.56355 42.1502 6.65013 42.1985 6.74193C42.3443 7.02358 42.4772 7.31462 42.5812 7.62027C42.0291 8.64986 41.4201 9.67006 40.7682 10.6558C40.765 10.66 40.6996 10.7581 40.5977 10.9072C40.5752 10.9406 40.5602 10.9625 40.5323 11.0032C40.4969 11.0543 40.4465 11.1273 40.4047 11.1899C40.3575 11.2598 40.3125 11.3235 40.2557 11.4059C40.1978 11.4904 40.1249 11.5947 40.0573 11.6917C39.9973 11.7783 39.9405 11.8596 39.8729 11.9566C39.8 12.0599 39.7153 12.1799 39.6349 12.2946C39.5556 12.4062 39.4784 12.5158 39.3915 12.6378C39.3015 12.764 39.1996 12.9049 39.102 13.0415C39.0109 13.1688 38.9208 13.294 38.8222 13.4296C38.7128 13.5808 38.5938 13.7436 38.4759 13.9053C38.374 14.045 38.2722 14.1848 38.1639 14.3319C38.0342 14.5072 37.8969 14.6928 37.7586 14.8775C37.6836 14.9776 37.6085 15.0798 37.5313 15.1821C37.5088 15.1226 37.4745 15.0684 37.4498 15.01C37.4262 14.9526 37.3973 14.8983 37.3726 14.841C37.2869 14.6438 37.1968 14.4498 37.096 14.2599C37.0231 14.1212 36.9513 13.9824 36.8708 13.8479C36.8666 13.8406 36.8633 13.8322 36.8591 13.8249C36.8548 13.8187 36.8483 13.8155 36.8451 13.8093C36.8387 13.7989 36.8312 13.7905 36.8258 13.7801C36.8215 13.7728 36.8172 13.7644 36.813 13.7571C36.8054 13.7446 36.8033 13.73 36.7958 13.7175C36.7733 13.681 36.7443 13.6497 36.7207 13.6132C36.6575 13.5151 36.5889 13.4212 36.5213 13.3263C36.3894 13.1385 36.2597 12.9518 36.1139 12.7755C36.1 12.7588 36.0892 12.738 36.0753 12.7213C36.0646 12.7088 36.0485 12.7035 36.0367 12.691C36.0356 12.69 36.0346 12.6879 36.0324 12.6869C36.0238 12.6754 36.0217 12.6618 36.0131 12.6514C36.012 12.6462 36.011 12.6472 36.0088 12.6462C35.9724 12.6034 35.9273 12.5679 35.8898 12.5262C35.8201 12.448 35.7472 12.3718 35.6743 12.2957C35.5156 12.1309 35.3569 11.9681 35.1854 11.8158C35.0975 11.7376 35.0021 11.6677 34.9109 11.5926C34.9077 11.5895 34.9045 11.5874 34.9013 11.5842C34.793 11.4956 34.6879 11.4027 34.5753 11.3193C34.4467 11.2233 34.318 11.1305 34.184 11.0418C34.1604 11.0251 34.14 11.0042 34.1154 10.9886C34.1122 10.9865 34.11 10.9855 34.1068 10.9834C34.0971 10.9771 34.0864 10.9771 34.0768 10.9719C34.0596 10.9594 34.0468 10.9437 34.0285 10.9323C34.0007 10.9145 33.9674 10.902 33.9395 10.8843C33.8291 10.8154 33.7133 10.757 33.5997 10.6934C33.4131 10.5891 33.2276 10.4858 33.0325 10.395C32.9939 10.3773 32.9606 10.3523 32.922 10.3356C32.921 10.3356 32.9199 10.3345 32.9188 10.3335C32.9006 10.3252 32.8813 10.3272 32.8631 10.3199C32.8491 10.3126 32.8395 10.3001 32.8245 10.2928C32.7387 10.2553 32.6583 10.2271 32.5747 10.1927C32.5114 10.1666 32.4481 10.1405 32.3827 10.1155C32.2938 10.0811 32.2037 10.0456 32.1158 10.0153C32.0482 9.99239 31.9796 9.97153 31.911 9.94962C31.807 9.91624 31.7008 9.87764 31.5979 9.84948V9.85157H31.5968C31.5872 9.84948 31.5786 9.85157 31.569 9.84948C31.3159 9.77959 31.0586 9.71909 30.7981 9.6711C30.7209 9.65754 30.6426 9.65024 30.5643 9.63772C30.2191 9.58348 29.8685 9.55009 29.5115 9.53653C29.46 9.53445 29.4107 9.52297 29.3592 9.52193C29.4632 5.96583 32.4674 3.10446 36.1471 3.10446ZM28.4736 11.6395C28.6988 11.6176 28.9271 11.6051 29.1577 11.6051C29.9275 11.6051 30.6641 11.748 31.3578 11.9827C31.4821 12.0255 31.6086 12.0672 31.7362 12.1194C31.9946 12.2237 32.2434 12.3447 32.4846 12.4782C32.565 12.522 32.6497 12.5627 32.7269 12.6086C33.0218 12.788 33.3005 12.9883 33.5632 13.2074C33.5879 13.2282 33.6168 13.2449 33.6415 13.2668C33.9342 13.5182 34.2044 13.7947 34.4499 14.092C34.466 14.1118 34.4799 14.1358 34.496 14.1556C34.7083 14.4195 34.8981 14.7001 35.0675 14.9943C35.1275 15.0997 35.1768 15.2102 35.2315 15.3187C35.3398 15.5326 35.4384 15.7506 35.5231 15.9759C35.5735 16.1115 35.6175 16.2482 35.6593 16.3869C35.7215 16.5955 35.7676 16.8094 35.8083 17.0264C35.8287 17.1348 35.8641 17.2381 35.8791 17.3497C35.8652 17.3675 35.8512 17.3862 35.8373 17.404C35.715 17.5615 35.5842 17.7232 35.4609 17.8817C35.105 18.3345 34.7501 18.7882 34.392 19.2337C34.1979 19.4746 34.0028 19.7093 33.8087 19.9472C33.4999 20.3259 33.1912 20.7066 32.8813 21.079C32.6669 21.3367 32.4514 21.587 32.2369 21.8405C31.9442 22.1868 31.6515 22.5342 31.3578 22.8743C31.1401 23.1267 30.9214 23.3719 30.7037 23.6201C30.4732 23.882 30.2438 24.1438 30.0132 24.4014C29.9125 23.9623 29.7763 23.5367 29.6101 23.1246C29.608 23.1184 29.6058 23.1121 29.6026 23.1058C29.4386 22.7032 29.2456 22.3162 29.0247 21.9448C29.0076 21.9167 28.9893 21.8895 28.9722 21.8614C28.5337 21.1447 27.9944 20.4959 27.3703 19.9305C27.3232 19.8877 27.2771 19.847 27.2288 19.8053C26.9168 19.5341 26.5898 19.2796 26.2403 19.0532C26.2371 19.0511 26.2349 19.0501 26.2317 19.048C25.8908 18.8279 25.5305 18.6359 25.1595 18.4617C25.0963 18.4325 25.0352 18.4012 24.9719 18.3731C24.5988 18.2083 24.2139 18.0664 23.8161 17.9527C23.7604 17.937 23.7035 17.9256 23.6478 17.9099C23.2779 17.8119 22.9005 17.7357 22.5134 17.6846C22.4716 17.6794 22.433 17.6658 22.3912 17.6606C22.6603 14.4946 25.2346 11.9566 28.4736 11.6395ZM14.5054 26.1195C14.5976 22.553 17.6082 19.6801 21.2944 19.6801C21.3008 19.6801 21.3062 19.6812 21.3126 19.6812C21.3126 19.6812 21.3126 19.6812 21.3137 19.6812C21.705 19.6822 22.0867 19.7208 22.4609 19.7845C22.5177 19.7938 22.5756 19.7991 22.6314 19.8095C22.7761 19.8377 22.9166 19.8763 23.0581 19.9128C23.1278 19.9305 23.1996 19.9451 23.2682 19.9649C23.4055 20.0056 23.5373 20.0546 23.6703 20.1037C23.7389 20.1287 23.8097 20.1506 23.8783 20.1777C24.0102 20.2309 24.1388 20.2925 24.2664 20.353C24.3307 20.3832 24.3961 20.4114 24.4583 20.4437C24.5859 20.5094 24.7092 20.5825 24.8325 20.6565C24.8904 20.691 24.9494 20.7233 25.0062 20.7598C25.1295 20.8391 25.2485 20.9246 25.3665 21.0112C25.4169 21.0488 25.4694 21.0832 25.5187 21.1218C25.6377 21.2146 25.7524 21.3127 25.865 21.4128C25.9079 21.4504 25.9519 21.4869 25.9926 21.5255C26.1073 21.6329 26.2167 21.7456 26.3239 21.8603C26.3571 21.8958 26.3915 21.9313 26.4247 21.9678C26.5351 22.0919 26.6391 22.2202 26.7399 22.3517C26.7635 22.3829 26.7882 22.4132 26.8107 22.4445C26.9147 22.5864 27.0133 22.7324 27.1055 22.8826C27.1205 22.9056 27.1355 22.9285 27.1495 22.9525C27.246 23.1132 27.336 23.279 27.4197 23.448C27.4261 23.4616 27.4325 23.4751 27.439 23.4876C27.5258 23.6681 27.6052 23.8527 27.6748 24.0416C27.6759 24.0436 27.677 24.0468 27.6781 24.0489C27.8946 24.6362 28.0287 25.2631 28.0662 25.9161C28.0662 25.9192 28.0683 25.9213 28.0683 25.9244C28.0748 26.0444 28.0876 26.1633 28.0876 26.2854C28.0876 26.3626 28.0855 26.4387 28.0823 26.5149C25.8275 28.9152 23.6006 31.0567 21.4552 32.8885C21.2172 32.901 20.9813 32.8864 20.7443 32.8656C20.6682 32.8583 20.5921 32.8531 20.5149 32.8437C20.5031 32.8426 20.4902 32.8385 20.4784 32.8374C20.4763 32.8249 20.4709 32.8134 20.4688 32.8009C20.3991 32.4275 20.309 32.0623 20.1911 31.7066C20.1814 31.6764 20.1675 31.6482 20.1579 31.618C20.0571 31.3238 19.9391 31.038 19.8073 30.7584C19.7558 30.6489 19.7022 30.5425 19.6464 30.435C19.5414 30.2337 19.4277 30.0386 19.3066 29.8467C19.2369 29.7351 19.1725 29.6214 19.0986 29.5139C18.927 29.2657 18.7404 29.0278 18.5442 28.7983C18.4349 28.6711 18.3169 28.5511 18.2001 28.4301C18.0789 28.3049 17.9556 28.1818 17.828 28.0629C17.7058 27.9502 17.5846 27.8397 17.456 27.7343C17.2598 27.5726 17.055 27.4203 16.8448 27.2753C16.743 27.2054 16.6411 27.1355 16.5361 27.0698C16.2787 26.9071 16.0128 26.759 15.7384 26.6223C15.6601 26.5837 15.5818 26.5482 15.5025 26.5117C15.1873 26.3657 14.8646 26.2363 14.5311 26.1268C14.5225 26.1268 14.514 26.1226 14.5054 26.1195ZM11.6834 27.7562C12.2109 27.7562 12.7224 27.8209 13.2156 27.9325C13.2177 27.9325 13.2198 27.9346 13.222 27.9346C13.9082 28.089 14.545 28.3466 15.1283 28.6794C15.1883 28.7138 15.2484 28.7493 15.3084 28.7858C15.5582 28.9392 15.7984 29.105 16.0236 29.2865C16.0879 29.3387 16.1458 29.3961 16.208 29.4493C16.3752 29.5953 16.535 29.7486 16.6862 29.9103C16.7526 29.9802 16.8213 30.0491 16.8834 30.1221C17.0625 30.3297 17.2265 30.5487 17.3788 30.7761C17.427 30.8481 17.471 30.9222 17.516 30.9962C17.6683 31.2466 17.8119 31.5032 17.9299 31.7734C17.931 31.7765 17.9331 31.7797 17.9342 31.7828C18.0639 32.0822 18.1679 32.3951 18.2515 32.7143C18.2601 32.7467 18.2687 32.779 18.2773 32.8124C18.3577 33.1399 18.4167 33.4758 18.4456 33.8201C18.4456 33.8201 18.4456 33.8211 18.4456 33.8221C18.4606 34.0016 18.4735 34.182 18.4735 34.3656C18.4735 34.6859 18.4488 35.0082 18.4016 35.3253C17.3756 36.0847 16.3334 36.7962 15.2923 37.4314C15.0908 37.5545 14.8881 37.6808 14.6887 37.7976C14.4636 37.929 14.2384 38.0511 14.0132 38.1742C13.7977 38.2931 13.5801 38.4183 13.3667 38.5288C13.3624 38.5309 13.3571 38.5309 13.3528 38.533C13.133 38.6467 12.9132 38.7521 12.6934 38.8574C12.4565 38.9722 12.2195 39.0869 11.9868 39.1912C11.9858 39.1923 11.9836 39.1912 11.9815 39.1923H11.9804V39.1933C11.6866 39.3237 11.3929 39.4499 11.1002 39.5657C11.0959 39.5678 11.0927 39.571 11.0873 39.573C10.9222 39.6388 10.7614 39.694 10.5984 39.7535C10.3228 39.8547 10.0484 39.9548 9.77389 40.0425C9.63021 40.0884 9.48869 40.1249 9.34609 40.1655H9.34395C9.14452 40.224 8.94831 40.2772 8.75425 40.3262C8.57627 40.2438 8.4133 40.1426 8.24497 40.0466C8.14848 39.9913 8.04662 39.9454 7.95334 39.886C7.84183 39.814 7.74212 39.7274 7.63598 39.6502C7.4966 39.549 7.35293 39.4541 7.22212 39.3425C6.75894 38.9461 6.3483 38.4861 6.00199 37.9708C5.98376 37.9447 5.96018 37.9238 5.9398 37.8998C5.26755 36.8661 4.89122 35.6487 4.89122 34.3667C4.89229 30.7209 7.93833 27.7562 11.6834 27.7562ZM5.13782 40.273C5.16141 40.297 5.18821 40.3178 5.2118 40.3418C5.35547 40.49 5.50236 40.636 5.65568 40.7727C5.45411 40.7977 5.10887 40.8332 4.71002 40.8582C4.84619 40.6715 4.97807 40.49 5.13782 40.273ZM44.1177 20.329C44.0179 20.4729 33.9824 34.7756 22.3387 43.4004C15.7748 48.2646 8.64596 48.0872 3.67002 42.9706C3.72041 42.9716 3.77188 42.9748 3.82227 42.9748C4.77864 42.9748 5.67391 42.8746 5.913 42.8454C6.83399 42.8193 7.78715 42.6931 8.79821 42.4636C8.83574 42.4594 8.87433 42.4532 8.91079 42.4448H8.91186C9.39755 42.3343 9.8929 42.1934 10.3936 42.0349C10.4 42.0328 10.4075 42.0338 10.414 42.0317C10.5716 41.9827 10.7303 41.9212 10.8879 41.8659C11.217 41.7532 11.5483 41.6333 11.8839 41.4997C11.8936 41.4966 11.9032 41.4977 11.9129 41.4945C12.1037 41.4184 12.2935 41.3339 12.4843 41.2525C12.7781 41.1273 13.074 40.9928 13.3721 40.853C13.3807 40.8488 13.3903 40.8509 13.4 40.8467C13.564 40.7685 13.7281 40.685 13.891 40.6037C14.0443 40.5275 14.1955 40.4566 14.3499 40.3773C14.3542 40.3752 14.3596 40.3731 14.3638 40.37C14.366 40.369 14.3671 40.3679 14.3681 40.3669C14.515 40.2907 14.6641 40.2052 14.812 40.1249C14.826 40.1176 14.842 40.1155 14.856 40.1082C14.8592 40.1061 14.8635 40.104 14.8667 40.1009C15.0189 40.0195 15.1701 39.9308 15.3213 39.8474C15.4628 39.7681 15.6022 39.694 15.7437 39.6116C15.7791 39.5908 15.8156 39.573 15.8509 39.5522C15.8585 39.548 15.8617 39.5397 15.8692 39.5355C15.9753 39.4729 16.0836 39.4051 16.1898 39.3404C16.2005 39.3342 16.2133 39.3321 16.2241 39.3258C16.2755 39.2945 16.327 39.2632 16.3774 39.2319C16.4428 39.1923 16.505 39.1495 16.5704 39.1088C16.9006 38.9054 17.233 38.6947 17.5675 38.4746C17.8849 38.2691 18.1979 38.0584 18.5099 37.8456C18.5346 37.8289 18.5592 37.8112 18.5839 37.7945C26.1931 32.5787 32.4063 25.2662 37.5442 18.6631C37.6203 18.565 37.6996 18.4628 37.7758 18.3637C37.7994 18.3334 37.8229 18.3042 37.8465 18.274C37.8487 18.2719 37.8487 18.2698 37.8508 18.2677C37.9441 18.1477 38.0384 18.0247 38.1328 17.9037C38.1339 17.9026 38.1349 17.9016 38.136 17.8995C38.1489 17.8828 38.1596 17.8682 38.1714 17.8525C41.1091 14.0669 44.2313 9.87452 46.1162 5.10314C46.8699 8.13245 47.9389 14.4112 44.1177 20.329Z"/>
</mask>
<path d="M47.9153 3.51651C47.881 3.39029 47.8499 3.27867 47.8252 3.18479C48.0804 2.33566 47.7598 1.80574 47.5357 1.55747C46.8763 0.829349 45.7902 0.999383 45.4697 1.0651C45.4118 1.07866 45.3549 1.09535 45.2992 1.11726C45.1577 1.17359 45.0129 1.23618 44.8703 1.29459C43.7274 1.67326 42.6338 2.24699 41.6474 2.77378L41.5734 2.81342C40.0531 1.67952 38.1607 1.01816 36.1471 1.01816C31.2205 1.01816 27.2117 4.91746 27.2117 9.71178C27.2117 9.71909 27.2127 9.72535 27.2127 9.73265C23.399 10.5599 20.5052 13.7634 20.2511 17.6585C16.0107 18.1415 12.6773 21.5203 12.3889 25.7043C12.1552 25.6866 11.9214 25.6699 11.6834 25.6699C6.7568 25.6699 2.74795 29.5692 2.74795 34.3635C2.74795 35.8365 3.14466 37.2343 3.8287 38.4736C3.74722 38.5841 3.66144 38.6978 3.58425 38.8021C3.49204 38.9273 3.40519 39.0452 3.31728 39.1652C3.19398 39.3321 3.07711 39.4927 2.96775 39.6429C2.89377 39.7441 2.81979 39.8463 2.7501 39.9434C2.58391 40.1739 2.43059 40.3888 2.29764 40.5765C2.2644 40.6235 2.23546 40.6652 2.20436 40.7101C2.06498 40.9093 1.94382 41.0856 1.83982 41.2379C1.82803 41.2546 1.81302 41.2765 1.8023 41.2932C1.80123 41.2942 1.80123 41.2953 1.80123 41.2963C1.64147 41.5342 1.51925 41.7198 1.43347 41.8565L1.3477 41.9326C1.02605 42.2185 0.915613 42.667 1.06679 43.0645C1.17937 43.3597 1.42489 43.6924 1.91595 44.214C4.91588 47.3977 8.69314 49.001 12.6891 49C16.298 49 20.085 47.6919 23.6371 45.0621C35.5639 36.2266 45.7892 21.6475 45.9114 21.4712C50.7694 13.9501 48.6208 6.09726 47.9153 3.51651ZM43.7681 5.19807C43.722 5.12505 43.6759 5.05203 43.6277 4.97901C43.5205 4.81836 43.4057 4.66293 43.2878 4.50959C43.2513 4.46265 43.2202 4.41153 43.1827 4.36459C43.5762 4.16848 43.959 3.98593 44.3364 3.81172C44.1638 4.28009 43.9675 4.73908 43.7681 5.19807ZM36.1471 3.10446C37.9387 3.10446 39.5995 3.7992 40.8325 4.94771C40.9108 5.02073 40.9826 5.09897 41.0577 5.17616C41.2056 5.32846 41.3482 5.48598 41.4812 5.65184C41.5541 5.74259 41.6249 5.83439 41.6924 5.92827C41.8189 6.10352 41.9347 6.28607 42.043 6.47384C42.0945 6.56355 42.1502 6.65013 42.1985 6.74193C42.3443 7.02358 42.4772 7.31462 42.5812 7.62027C42.0291 8.64986 41.4201 9.67006 40.7682 10.6558C40.765 10.66 40.6996 10.7581 40.5977 10.9072C40.5752 10.9406 40.5602 10.9625 40.5323 11.0032C40.4969 11.0543 40.4465 11.1273 40.4047 11.1899C40.3575 11.2598 40.3125 11.3235 40.2557 11.4059C40.1978 11.4904 40.1249 11.5947 40.0573 11.6917C39.9973 11.7783 39.9405 11.8596 39.8729 11.9566C39.8 12.0599 39.7153 12.1799 39.6349 12.2946C39.5556 12.4062 39.4784 12.5158 39.3915 12.6378C39.3015 12.764 39.1996 12.9049 39.102 13.0415C39.0109 13.1688 38.9208 13.294 38.8222 13.4296C38.7128 13.5808 38.5938 13.7436 38.4759 13.9053C38.374 14.045 38.2722 14.1848 38.1639 14.3319C38.0342 14.5072 37.8969 14.6928 37.7586 14.8775C37.6836 14.9776 37.6085 15.0798 37.5313 15.1821C37.5088 15.1226 37.4745 15.0684 37.4498 15.01C37.4262 14.9526 37.3973 14.8983 37.3726 14.841C37.2869 14.6438 37.1968 14.4498 37.096 14.2599C37.0231 14.1212 36.9513 13.9824 36.8708 13.8479C36.8666 13.8406 36.8633 13.8322 36.8591 13.8249C36.8548 13.8187 36.8483 13.8155 36.8451 13.8093C36.8387 13.7989 36.8312 13.7905 36.8258 13.7801C36.8215 13.7728 36.8172 13.7644 36.813 13.7571C36.8054 13.7446 36.8033 13.73 36.7958 13.7175C36.7733 13.681 36.7443 13.6497 36.7207 13.6132C36.6575 13.5151 36.5889 13.4212 36.5213 13.3263C36.3894 13.1385 36.2597 12.9518 36.1139 12.7755C36.1 12.7588 36.0892 12.738 36.0753 12.7213C36.0646 12.7088 36.0485 12.7035 36.0367 12.691C36.0356 12.69 36.0346 12.6879 36.0324 12.6869C36.0238 12.6754 36.0217 12.6618 36.0131 12.6514C36.012 12.6462 36.011 12.6472 36.0088 12.6462C35.9724 12.6034 35.9273 12.5679 35.8898 12.5262C35.8201 12.448 35.7472 12.3718 35.6743 12.2957C35.5156 12.1309 35.3569 11.9681 35.1854 11.8158C35.0975 11.7376 35.0021 11.6677 34.9109 11.5926C34.9077 11.5895 34.9045 11.5874 34.9013 11.5842C34.793 11.4956 34.6879 11.4027 34.5753 11.3193C34.4467 11.2233 34.318 11.1305 34.184 11.0418C34.1604 11.0251 34.14 11.0042 34.1154 10.9886C34.1122 10.9865 34.11 10.9855 34.1068 10.9834C34.0971 10.9771 34.0864 10.9771 34.0768 10.9719C34.0596 10.9594 34.0468 10.9437 34.0285 10.9323C34.0007 10.9145 33.9674 10.902 33.9395 10.8843C33.8291 10.8154 33.7133 10.757 33.5997 10.6934C33.4131 10.5891 33.2276 10.4858 33.0325 10.395C32.9939 10.3773 32.9606 10.3523 32.922 10.3356C32.921 10.3356 32.9199 10.3345 32.9188 10.3335C32.9006 10.3252 32.8813 10.3272 32.8631 10.3199C32.8491 10.3126 32.8395 10.3001 32.8245 10.2928C32.7387 10.2553 32.6583 10.2271 32.5747 10.1927C32.5114 10.1666 32.4481 10.1405 32.3827 10.1155C32.2938 10.0811 32.2037 10.0456 32.1158 10.0153C32.0482 9.99239 31.9796 9.97153 31.911 9.94962C31.807 9.91624 31.7008 9.87764 31.5979 9.84948V9.85157H31.5968C31.5872 9.84948 31.5786 9.85157 31.569 9.84948C31.3159 9.77959 31.0586 9.71909 30.7981 9.6711C30.7209 9.65754 30.6426 9.65024 30.5643 9.63772C30.2191 9.58348 29.8685 9.55009 29.5115 9.53653C29.46 9.53445 29.4107 9.52297 29.3592 9.52193C29.4632 5.96583 32.4674 3.10446 36.1471 3.10446ZM28.4736 11.6395C28.6988 11.6176 28.9271 11.6051 29.1577 11.6051C29.9275 11.6051 30.6641 11.748 31.3578 11.9827C31.4821 12.0255 31.6086 12.0672 31.7362 12.1194C31.9946 12.2237 32.2434 12.3447 32.4846 12.4782C32.565 12.522 32.6497 12.5627 32.7269 12.6086C33.0218 12.788 33.3005 12.9883 33.5632 13.2074C33.5879 13.2282 33.6168 13.2449 33.6415 13.2668C33.9342 13.5182 34.2044 13.7947 34.4499 14.092C34.466 14.1118 34.4799 14.1358 34.496 14.1556C34.7083 14.4195 34.8981 14.7001 35.0675 14.9943C35.1275 15.0997 35.1768 15.2102 35.2315 15.3187C35.3398 15.5326 35.4384 15.7506 35.5231 15.9759C35.5735 16.1115 35.6175 16.2482 35.6593 16.3869C35.7215 16.5955 35.7676 16.8094 35.8083 17.0264C35.8287 17.1348 35.8641 17.2381 35.8791 17.3497C35.8652 17.3675 35.8512 17.3862 35.8373 17.404C35.715 17.5615 35.5842 17.7232 35.4609 17.8817C35.105 18.3345 34.7501 18.7882 34.392 19.2337C34.1979 19.4746 34.0028 19.7093 33.8087 19.9472C33.4999 20.3259 33.1912 20.7066 32.8813 21.079C32.6669 21.3367 32.4514 21.587 32.2369 21.8405C31.9442 22.1868 31.6515 22.5342 31.3578 22.8743C31.1401 23.1267 30.9214 23.3719 30.7037 23.6201C30.4732 23.882 30.2438 24.1438 30.0132 24.4014C29.9125 23.9623 29.7763 23.5367 29.6101 23.1246C29.608 23.1184 29.6058 23.1121 29.6026 23.1058C29.4386 22.7032 29.2456 22.3162 29.0247 21.9448C29.0076 21.9167 28.9893 21.8895 28.9722 21.8614C28.5337 21.1447 27.9944 20.4959 27.3703 19.9305C27.3232 19.8877 27.2771 19.847 27.2288 19.8053C26.9168 19.5341 26.5898 19.2796 26.2403 19.0532C26.2371 19.0511 26.2349 19.0501 26.2317 19.048C25.8908 18.8279 25.5305 18.6359 25.1595 18.4617C25.0963 18.4325 25.0352 18.4012 24.9719 18.3731C24.5988 18.2083 24.2139 18.0664 23.8161 17.9527C23.7604 17.937 23.7035 17.9256 23.6478 17.9099C23.2779 17.8119 22.9005 17.7357 22.5134 17.6846C22.4716 17.6794 22.433 17.6658 22.3912 17.6606C22.6603 14.4946 25.2346 11.9566 28.4736 11.6395ZM14.5054 26.1195C14.5976 22.553 17.6082 19.6801 21.2944 19.6801C21.3008 19.6801 21.3062 19.6812 21.3126 19.6812C21.3126 19.6812 21.3126 19.6812 21.3137 19.6812C21.705 19.6822 22.0867 19.7208 22.4609 19.7845C22.5177 19.7938 22.5756 19.7991 22.6314 19.8095C22.7761 19.8377 22.9166 19.8763 23.0581 19.9128C23.1278 19.9305 23.1996 19.9451 23.2682 19.9649C23.4055 20.0056 23.5373 20.0546 23.6703 20.1037C23.7389 20.1287 23.8097 20.1506 23.8783 20.1777C24.0102 20.2309 24.1388 20.2925 24.2664 20.353C24.3307 20.3832 24.3961 20.4114 24.4583 20.4437C24.5859 20.5094 24.7092 20.5825 24.8325 20.6565C24.8904 20.691 24.9494 20.7233 25.0062 20.7598C25.1295 20.8391 25.2485 20.9246 25.3665 21.0112C25.4169 21.0488 25.4694 21.0832 25.5187 21.1218C25.6377 21.2146 25.7524 21.3127 25.865 21.4128C25.9079 21.4504 25.9519 21.4869 25.9926 21.5255C26.1073 21.6329 26.2167 21.7456 26.3239 21.8603C26.3571 21.8958 26.3915 21.9313 26.4247 21.9678C26.5351 22.0919 26.6391 22.2202 26.7399 22.3517C26.7635 22.3829 26.7882 22.4132 26.8107 22.4445C26.9147 22.5864 27.0133 22.7324 27.1055 22.8826C27.1205 22.9056 27.1355 22.9285 27.1495 22.9525C27.246 23.1132 27.336 23.279 27.4197 23.448C27.4261 23.4616 27.4325 23.4751 27.439 23.4876C27.5258 23.6681 27.6052 23.8527 27.6748 24.0416C27.6759 24.0436 27.677 24.0468 27.6781 24.0489C27.8946 24.6362 28.0287 25.2631 28.0662 25.9161C28.0662 25.9192 28.0683 25.9213 28.0683 25.9244C28.0748 26.0444 28.0876 26.1633 28.0876 26.2854C28.0876 26.3626 28.0855 26.4387 28.0823 26.5149C25.8275 28.9152 23.6006 31.0567 21.4552 32.8885C21.2172 32.901 20.9813 32.8864 20.7443 32.8656C20.6682 32.8583 20.5921 32.8531 20.5149 32.8437C20.5031 32.8426 20.4902 32.8385 20.4784 32.8374C20.4763 32.8249 20.4709 32.8134 20.4688 32.8009C20.3991 32.4275 20.309 32.0623 20.1911 31.7066C20.1814 31.6764 20.1675 31.6482 20.1579 31.618C20.0571 31.3238 19.9391 31.038 19.8073 30.7584C19.7558 30.6489 19.7022 30.5425 19.6464 30.435C19.5414 30.2337 19.4277 30.0386 19.3066 29.8467C19.2369 29.7351 19.1725 29.6214 19.0986 29.5139C18.927 29.2657 18.7404 29.0278 18.5442 28.7983C18.4349 28.6711 18.3169 28.5511 18.2001 28.4301C18.0789 28.3049 17.9556 28.1818 17.828 28.0629C17.7058 27.9502 17.5846 27.8397 17.456 27.7343C17.2598 27.5726 17.055 27.4203 16.8448 27.2753C16.743 27.2054 16.6411 27.1355 16.5361 27.0698C16.2787 26.9071 16.0128 26.759 15.7384 26.6223C15.6601 26.5837 15.5818 26.5482 15.5025 26.5117C15.1873 26.3657 14.8646 26.2363 14.5311 26.1268C14.5225 26.1268 14.514 26.1226 14.5054 26.1195ZM11.6834 27.7562C12.2109 27.7562 12.7224 27.8209 13.2156 27.9325C13.2177 27.9325 13.2198 27.9346 13.222 27.9346C13.9082 28.089 14.545 28.3466 15.1283 28.6794C15.1883 28.7138 15.2484 28.7493 15.3084 28.7858C15.5582 28.9392 15.7984 29.105 16.0236 29.2865C16.0879 29.3387 16.1458 29.3961 16.208 29.4493C16.3752 29.5953 16.535 29.7486 16.6862 29.9103C16.7526 29.9802 16.8213 30.0491 16.8834 30.1221C17.0625 30.3297 17.2265 30.5487 17.3788 30.7761C17.427 30.8481 17.471 30.9222 17.516 30.9962C17.6683 31.2466 17.8119 31.5032 17.9299 31.7734C17.931 31.7765 17.9331 31.7797 17.9342 31.7828C18.0639 32.0822 18.1679 32.3951 18.2515 32.7143C18.2601 32.7467 18.2687 32.779 18.2773 32.8124C18.3577 33.1399 18.4167 33.4758 18.4456 33.8201C18.4456 33.8201 18.4456 33.8211 18.4456 33.8221C18.4606 34.0016 18.4735 34.182 18.4735 34.3656C18.4735 34.6859 18.4488 35.0082 18.4016 35.3253C17.3756 36.0847 16.3334 36.7962 15.2923 37.4314C15.0908 37.5545 14.8881 37.6808 14.6887 37.7976C14.4636 37.929 14.2384 38.0511 14.0132 38.1742C13.7977 38.2931 13.5801 38.4183 13.3667 38.5288C13.3624 38.5309 13.3571 38.5309 13.3528 38.533C13.133 38.6467 12.9132 38.7521 12.6934 38.8574C12.4565 38.9722 12.2195 39.0869 11.9868 39.1912C11.9858 39.1923 11.9836 39.1912 11.9815 39.1923H11.9804V39.1933C11.6866 39.3237 11.3929 39.4499 11.1002 39.5657C11.0959 39.5678 11.0927 39.571 11.0873 39.573C10.9222 39.6388 10.7614 39.694 10.5984 39.7535C10.3228 39.8547 10.0484 39.9548 9.77389 40.0425C9.63021 40.0884 9.48869 40.1249 9.34609 40.1655H9.34395C9.14452 40.224 8.94831 40.2772 8.75425 40.3262C8.57627 40.2438 8.4133 40.1426 8.24497 40.0466C8.14848 39.9913 8.04662 39.9454 7.95334 39.886C7.84183 39.814 7.74212 39.7274 7.63598 39.6502C7.4966 39.549 7.35293 39.4541 7.22212 39.3425C6.75894 38.9461 6.3483 38.4861 6.00199 37.9708C5.98376 37.9447 5.96018 37.9238 5.9398 37.8998C5.26755 36.8661 4.89122 35.6487 4.89122 34.3667C4.89229 30.7209 7.93833 27.7562 11.6834 27.7562ZM5.13782 40.273C5.16141 40.297 5.18821 40.3178 5.2118 40.3418C5.35547 40.49 5.50236 40.636 5.65568 40.7727C5.45411 40.7977 5.10887 40.8332 4.71002 40.8582C4.84619 40.6715 4.97807 40.49 5.13782 40.273ZM44.1177 20.329C44.0179 20.4729 33.9824 34.7756 22.3387 43.4004C15.7748 48.2646 8.64596 48.0872 3.67002 42.9706C3.72041 42.9716 3.77188 42.9748 3.82227 42.9748C4.77864 42.9748 5.67391 42.8746 5.913 42.8454C6.83399 42.8193 7.78715 42.6931 8.79821 42.4636C8.83574 42.4594 8.87433 42.4532 8.91079 42.4448H8.91186C9.39755 42.3343 9.8929 42.1934 10.3936 42.0349C10.4 42.0328 10.4075 42.0338 10.414 42.0317C10.5716 41.9827 10.7303 41.9212 10.8879 41.8659C11.217 41.7532 11.5483 41.6333 11.8839 41.4997C11.8936 41.4966 11.9032 41.4977 11.9129 41.4945C12.1037 41.4184 12.2935 41.3339 12.4843 41.2525C12.7781 41.1273 13.074 40.9928 13.3721 40.853C13.3807 40.8488 13.3903 40.8509 13.4 40.8467C13.564 40.7685 13.7281 40.685 13.891 40.6037C14.0443 40.5275 14.1955 40.4566 14.3499 40.3773C14.3542 40.3752 14.3596 40.3731 14.3638 40.37C14.366 40.369 14.3671 40.3679 14.3681 40.3669C14.515 40.2907 14.6641 40.2052 14.812 40.1249C14.826 40.1176 14.842 40.1155 14.856 40.1082C14.8592 40.1061 14.8635 40.104 14.8667 40.1009C15.0189 40.0195 15.1701 39.9308 15.3213 39.8474C15.4628 39.7681 15.6022 39.694 15.7437 39.6116C15.7791 39.5908 15.8156 39.573 15.8509 39.5522C15.8585 39.548 15.8617 39.5397 15.8692 39.5355C15.9753 39.4729 16.0836 39.4051 16.1898 39.3404C16.2005 39.3342 16.2133 39.3321 16.2241 39.3258C16.2755 39.2945 16.327 39.2632 16.3774 39.2319C16.4428 39.1923 16.505 39.1495 16.5704 39.1088C16.9006 38.9054 17.233 38.6947 17.5675 38.4746C17.8849 38.2691 18.1979 38.0584 18.5099 37.8456C18.5346 37.8289 18.5592 37.8112 18.5839 37.7945C26.1931 32.5787 32.4063 25.2662 37.5442 18.6631C37.6203 18.565 37.6996 18.4628 37.7758 18.3637C37.7994 18.3334 37.8229 18.3042 37.8465 18.274C37.8487 18.2719 37.8487 18.2698 37.8508 18.2677C37.9441 18.1477 38.0384 18.0247 38.1328 17.9037C38.1339 17.9026 38.1349 17.9016 38.136 17.8995C38.1489 17.8828 38.1596 17.8682 38.1714 17.8525C41.1091 14.0669 44.2313 9.87452 46.1162 5.10314C46.8699 8.13245 47.9389 14.4112 44.1177 20.329Z" fill="#00CD69"/>
<path d="M47.9153 3.51651C47.881 3.39029 47.8499 3.27867 47.8252 3.18479C48.0804 2.33566 47.7598 1.80574 47.5357 1.55747C46.8763 0.829349 45.7902 0.999383 45.4697 1.0651C45.4118 1.07866 45.3549 1.09535 45.2992 1.11726C45.1577 1.17359 45.0129 1.23618 44.8703 1.29459C43.7274 1.67326 42.6338 2.24699 41.6474 2.77378L41.5734 2.81342C40.0531 1.67952 38.1607 1.01816 36.1471 1.01816C31.2205 1.01816 27.2117 4.91746 27.2117 9.71178C27.2117 9.71909 27.2127 9.72535 27.2127 9.73265C23.399 10.5599 20.5052 13.7634 20.2511 17.6585C16.0107 18.1415 12.6773 21.5203 12.3889 25.7043C12.1552 25.6866 11.9214 25.6699 11.6834 25.6699C6.7568 25.6699 2.74795 29.5692 2.74795 34.3635C2.74795 35.8365 3.14466 37.2343 3.8287 38.4736C3.74722 38.5841 3.66144 38.6978 3.58425 38.8021C3.49204 38.9273 3.40519 39.0452 3.31728 39.1652C3.19398 39.3321 3.07711 39.4927 2.96775 39.6429C2.89377 39.7441 2.81979 39.8463 2.7501 39.9434C2.58391 40.1739 2.43059 40.3888 2.29764 40.5765C2.2644 40.6235 2.23546 40.6652 2.20436 40.7101C2.06498 40.9093 1.94382 41.0856 1.83982 41.2379C1.82803 41.2546 1.81302 41.2765 1.8023 41.2932C1.80123 41.2942 1.80123 41.2953 1.80123 41.2963C1.64147 41.5342 1.51925 41.7198 1.43347 41.8565L1.3477 41.9326C1.02605 42.2185 0.915613 42.667 1.06679 43.0645C1.17937 43.3597 1.42489 43.6924 1.91595 44.214C4.91588 47.3977 8.69314 49.001 12.6891 49C16.298 49 20.085 47.6919 23.6371 45.0621C35.5639 36.2266 45.7892 21.6475 45.9114 21.4712C50.7694 13.9501 48.6208 6.09726 47.9153 3.51651ZM43.7681 5.19807C43.722 5.12505 43.6759 5.05203 43.6277 4.97901C43.5205 4.81836 43.4057 4.66293 43.2878 4.50959C43.2513 4.46265 43.2202 4.41153 43.1827 4.36459C43.5762 4.16848 43.959 3.98593 44.3364 3.81172C44.1638 4.28009 43.9675 4.73908 43.7681 5.19807ZM36.1471 3.10446C37.9387 3.10446 39.5995 3.7992 40.8325 4.94771C40.9108 5.02073 40.9826 5.09897 41.0577 5.17616C41.2056 5.32846 41.3482 5.48598 41.4812 5.65184C41.5541 5.74259 41.6249 5.83439 41.6924 5.92827C41.8189 6.10352 41.9347 6.28607 42.043 6.47384C42.0945 6.56355 42.1502 6.65013 42.1985 6.74193C42.3443 7.02358 42.4772 7.31462 42.5812 7.62027C42.0291 8.64986 41.4201 9.67006 40.7682 10.6558C40.765 10.66 40.6996 10.7581 40.5977 10.9072C40.5752 10.9406 40.5602 10.9625 40.5323 11.0032C40.4969 11.0543 40.4465 11.1273 40.4047 11.1899C40.3575 11.2598 40.3125 11.3235 40.2557 11.4059C40.1978 11.4904 40.1249 11.5947 40.0573 11.6917C39.9973 11.7783 39.9405 11.8596 39.8729 11.9566C39.8 12.0599 39.7153 12.1799 39.6349 12.2946C39.5556 12.4062 39.4784 12.5158 39.3915 12.6378C39.3015 12.764 39.1996 12.9049 39.102 13.0415C39.0109 13.1688 38.9208 13.294 38.8222 13.4296C38.7128 13.5808 38.5938 13.7436 38.4759 13.9053C38.374 14.045 38.2722 14.1848 38.1639 14.3319C38.0342 14.5072 37.8969 14.6928 37.7586 14.8775C37.6836 14.9776 37.6085 15.0798 37.5313 15.1821C37.5088 15.1226 37.4745 15.0684 37.4498 15.01C37.4262 14.9526 37.3973 14.8983 37.3726 14.841C37.2869 14.6438 37.1968 14.4498 37.096 14.2599C37.0231 14.1212 36.9513 13.9824 36.8708 13.8479C36.8666 13.8406 36.8633 13.8322 36.8591 13.8249C36.8548 13.8187 36.8483 13.8155 36.8451 13.8093C36.8387 13.7989 36.8312 13.7905 36.8258 13.7801C36.8215 13.7728 36.8172 13.7644 36.813 13.7571C36.8054 13.7446 36.8033 13.73 36.7958 13.7175C36.7733 13.681 36.7443 13.6497 36.7207 13.6132C36.6575 13.5151 36.5889 13.4212 36.5213 13.3263C36.3894 13.1385 36.2597 12.9518 36.1139 12.7755C36.1 12.7588 36.0892 12.738 36.0753 12.7213C36.0646 12.7088 36.0485 12.7035 36.0367 12.691C36.0356 12.69 36.0346 12.6879 36.0324 12.6869C36.0238 12.6754 36.0217 12.6618 36.0131 12.6514C36.012 12.6462 36.011 12.6472 36.0088 12.6462C35.9724 12.6034 35.9273 12.5679 35.8898 12.5262C35.8201 12.448 35.7472 12.3718 35.6743 12.2957C35.5156 12.1309 35.3569 11.9681 35.1854 11.8158C35.0975 11.7376 35.0021 11.6677 34.9109 11.5926C34.9077 11.5895 34.9045 11.5874 34.9013 11.5842C34.793 11.4956 34.6879 11.4027 34.5753 11.3193C34.4467 11.2233 34.318 11.1305 34.184 11.0418C34.1604 11.0251 34.14 11.0042 34.1154 10.9886C34.1122 10.9865 34.11 10.9855 34.1068 10.9834C34.0971 10.9771 34.0864 10.9771 34.0768 10.9719C34.0596 10.9594 34.0468 10.9437 34.0285 10.9323C34.0007 10.9145 33.9674 10.902 33.9395 10.8843C33.8291 10.8154 33.7133 10.757 33.5997 10.6934C33.4131 10.5891 33.2276 10.4858 33.0325 10.395C32.9939 10.3773 32.9606 10.3523 32.922 10.3356C32.921 10.3356 32.9199 10.3345 32.9188 10.3335C32.9006 10.3252 32.8813 10.3272 32.8631 10.3199C32.8491 10.3126 32.8395 10.3001 32.8245 10.2928C32.7387 10.2553 32.6583 10.2271 32.5747 10.1927C32.5114 10.1666 32.4481 10.1405 32.3827 10.1155C32.2938 10.0811 32.2037 10.0456 32.1158 10.0153C32.0482 9.99239 31.9796 9.97153 31.911 9.94962C31.807 9.91624 31.7008 9.87764 31.5979 9.84948V9.85157H31.5968C31.5872 9.84948 31.5786 9.85157 31.569 9.84948C31.3159 9.77959 31.0586 9.71909 30.7981 9.6711C30.7209 9.65754 30.6426 9.65024 30.5643 9.63772C30.2191 9.58348 29.8685 9.55009 29.5115 9.53653C29.46 9.53445 29.4107 9.52297 29.3592 9.52193C29.4632 5.96583 32.4674 3.10446 36.1471 3.10446ZM28.4736 11.6395C28.6988 11.6176 28.9271 11.6051 29.1577 11.6051C29.9275 11.6051 30.6641 11.748 31.3578 11.9827C31.4821 12.0255 31.6086 12.0672 31.7362 12.1194C31.9946 12.2237 32.2434 12.3447 32.4846 12.4782C32.565 12.522 32.6497 12.5627 32.7269 12.6086C33.0218 12.788 33.3005 12.9883 33.5632 13.2074C33.5879 13.2282 33.6168 13.2449 33.6415 13.2668C33.9342 13.5182 34.2044 13.7947 34.4499 14.092C34.466 14.1118 34.4799 14.1358 34.496 14.1556C34.7083 14.4195 34.8981 14.7001 35.0675 14.9943C35.1275 15.0997 35.1768 15.2102 35.2315 15.3187C35.3398 15.5326 35.4384 15.7506 35.5231 15.9759C35.5735 16.1115 35.6175 16.2482 35.6593 16.3869C35.7215 16.5955 35.7676 16.8094 35.8083 17.0264C35.8287 17.1348 35.8641 17.2381 35.8791 17.3497C35.8652 17.3675 35.8512 17.3862 35.8373 17.404C35.715 17.5615 35.5842 17.7232 35.4609 17.8817C35.105 18.3345 34.7501 18.7882 34.392 19.2337C34.1979 19.4746 34.0028 19.7093 33.8087 19.9472C33.4999 20.3259 33.1912 20.7066 32.8813 21.079C32.6669 21.3367 32.4514 21.587 32.2369 21.8405C31.9442 22.1868 31.6515 22.5342 31.3578 22.8743C31.1401 23.1267 30.9214 23.3719 30.7037 23.6201C30.4732 23.882 30.2438 24.1438 30.0132 24.4014C29.9125 23.9623 29.7763 23.5367 29.6101 23.1246C29.608 23.1184 29.6058 23.1121 29.6026 23.1058C29.4386 22.7032 29.2456 22.3162 29.0247 21.9448C29.0076 21.9167 28.9893 21.8895 28.9722 21.8614C28.5337 21.1447 27.9944 20.4959 27.3703 19.9305C27.3232 19.8877 27.2771 19.847 27.2288 19.8053C26.9168 19.5341 26.5898 19.2796 26.2403 19.0532C26.2371 19.0511 26.2349 19.0501 26.2317 19.048C25.8908 18.8279 25.5305 18.6359 25.1595 18.4617C25.0963 18.4325 25.0352 18.4012 24.9719 18.3731C24.5988 18.2083 24.2139 18.0664 23.8161 17.9527C23.7604 17.937 23.7035 17.9256 23.6478 17.9099C23.2779 17.8119 22.9005 17.7357 22.5134 17.6846C22.4716 17.6794 22.433 17.6658 22.3912 17.6606C22.6603 14.4946 25.2346 11.9566 28.4736 11.6395ZM14.5054 26.1195C14.5976 22.553 17.6082 19.6801 21.2944 19.6801C21.3008 19.6801 21.3062 19.6812 21.3126 19.6812C21.3126 19.6812 21.3126 19.6812 21.3137 19.6812C21.705 19.6822 22.0867 19.7208 22.4609 19.7845C22.5177 19.7938 22.5756 19.7991 22.6314 19.8095C22.7761 19.8377 22.9166 19.8763 23.0581 19.9128C23.1278 19.9305 23.1996 19.9451 23.2682 19.9649C23.4055 20.0056 23.5373 20.0546 23.6703 20.1037C23.7389 20.1287 23.8097 20.1506 23.8783 20.1777C24.0102 20.2309 24.1388 20.2925 24.2664 20.353C24.3307 20.3832 24.3961 20.4114 24.4583 20.4437C24.5859 20.5094 24.7092 20.5825 24.8325 20.6565C24.8904 20.691 24.9494 20.7233 25.0062 20.7598C25.1295 20.8391 25.2485 20.9246 25.3665 21.0112C25.4169 21.0488 25.4694 21.0832 25.5187 21.1218C25.6377 21.2146 25.7524 21.3127 25.865 21.4128C25.9079 21.4504 25.9519 21.4869 25.9926 21.5255C26.1073 21.6329 26.2167 21.7456 26.3239 21.8603C26.3571 21.8958 26.3915 21.9313 26.4247 21.9678C26.5351 22.0919 26.6391 22.2202 26.7399 22.3517C26.7635 22.3829 26.7882 22.4132 26.8107 22.4445C26.9147 22.5864 27.0133 22.7324 27.1055 22.8826C27.1205 22.9056 27.1355 22.9285 27.1495 22.9525C27.246 23.1132 27.336 23.279 27.4197 23.448C27.4261 23.4616 27.4325 23.4751 27.439 23.4876C27.5258 23.6681 27.6052 23.8527 27.6748 24.0416C27.6759 24.0436 27.677 24.0468 27.6781 24.0489C27.8946 24.6362 28.0287 25.2631 28.0662 25.9161C28.0662 25.9192 28.0683 25.9213 28.0683 25.9244C28.0748 26.0444 28.0876 26.1633 28.0876 26.2854C28.0876 26.3626 28.0855 26.4387 28.0823 26.5149C25.8275 28.9152 23.6006 31.0567 21.4552 32.8885C21.2172 32.901 20.9813 32.8864 20.7443 32.8656C20.6682 32.8583 20.5921 32.8531 20.5149 32.8437C20.5031 32.8426 20.4902 32.8385 20.4784 32.8374C20.4763 32.8249 20.4709 32.8134 20.4688 32.8009C20.3991 32.4275 20.309 32.0623 20.1911 31.7066C20.1814 31.6764 20.1675 31.6482 20.1579 31.618C20.0571 31.3238 19.9391 31.038 19.8073 30.7584C19.7558 30.6489 19.7022 30.5425 19.6464 30.435C19.5414 30.2337 19.4277 30.0386 19.3066 29.8467C19.2369 29.7351 19.1725 29.6214 19.0986 29.5139C18.927 29.2657 18.7404 29.0278 18.5442 28.7983C18.4349 28.6711 18.3169 28.5511 18.2001 28.4301C18.0789 28.3049 17.9556 28.1818 17.828 28.0629C17.7058 27.9502 17.5846 27.8397 17.456 27.7343C17.2598 27.5726 17.055 27.4203 16.8448 27.2753C16.743 27.2054 16.6411 27.1355 16.5361 27.0698C16.2787 26.9071 16.0128 26.759 15.7384 26.6223C15.6601 26.5837 15.5818 26.5482 15.5025 26.5117C15.1873 26.3657 14.8646 26.2363 14.5311 26.1268C14.5225 26.1268 14.514 26.1226 14.5054 26.1195ZM11.6834 27.7562C12.2109 27.7562 12.7224 27.8209 13.2156 27.9325C13.2177 27.9325 13.2198 27.9346 13.222 27.9346C13.9082 28.089 14.545 28.3466 15.1283 28.6794C15.1883 28.7138 15.2484 28.7493 15.3084 28.7858C15.5582 28.9392 15.7984 29.105 16.0236 29.2865C16.0879 29.3387 16.1458 29.3961 16.208 29.4493C16.3752 29.5953 16.535 29.7486 16.6862 29.9103C16.7526 29.9802 16.8213 30.0491 16.8834 30.1221C17.0625 30.3297 17.2265 30.5487 17.3788 30.7761C17.427 30.8481 17.471 30.9222 17.516 30.9962C17.6683 31.2466 17.8119 31.5032 17.9299 31.7734C17.931 31.7765 17.9331 31.7797 17.9342 31.7828C18.0639 32.0822 18.1679 32.3951 18.2515 32.7143C18.2601 32.7467 18.2687 32.779 18.2773 32.8124C18.3577 33.1399 18.4167 33.4758 18.4456 33.8201C18.4456 33.8201 18.4456 33.8211 18.4456 33.8221C18.4606 34.0016 18.4735 34.182 18.4735 34.3656C18.4735 34.6859 18.4488 35.0082 18.4016 35.3253C17.3756 36.0847 16.3334 36.7962 15.2923 37.4314C15.0908 37.5545 14.8881 37.6808 14.6887 37.7976C14.4636 37.929 14.2384 38.0511 14.0132 38.1742C13.7977 38.2931 13.5801 38.4183 13.3667 38.5288C13.3624 38.5309 13.3571 38.5309 13.3528 38.533C13.133 38.6467 12.9132 38.7521 12.6934 38.8574C12.4565 38.9722 12.2195 39.0869 11.9868 39.1912C11.9858 39.1923 11.9836 39.1912 11.9815 39.1923H11.9804V39.1933C11.6866 39.3237 11.3929 39.4499 11.1002 39.5657C11.0959 39.5678 11.0927 39.571 11.0873 39.573C10.9222 39.6388 10.7614 39.694 10.5984 39.7535C10.3228 39.8547 10.0484 39.9548 9.77389 40.0425C9.63021 40.0884 9.48869 40.1249 9.34609 40.1655H9.34395C9.14452 40.224 8.94831 40.2772 8.75425 40.3262C8.57627 40.2438 8.4133 40.1426 8.24497 40.0466C8.14848 39.9913 8.04662 39.9454 7.95334 39.886C7.84183 39.814 7.74212 39.7274 7.63598 39.6502C7.4966 39.549 7.35293 39.4541 7.22212 39.3425C6.75894 38.9461 6.3483 38.4861 6.00199 37.9708C5.98376 37.9447 5.96018 37.9238 5.9398 37.8998C5.26755 36.8661 4.89122 35.6487 4.89122 34.3667C4.89229 30.7209 7.93833 27.7562 11.6834 27.7562ZM5.13782 40.273C5.16141 40.297 5.18821 40.3178 5.2118 40.3418C5.35547 40.49 5.50236 40.636 5.65568 40.7727C5.45411 40.7977 5.10887 40.8332 4.71002 40.8582C4.84619 40.6715 4.97807 40.49 5.13782 40.273ZM44.1177 20.329C44.0179 20.4729 33.9824 34.7756 22.3387 43.4004C15.7748 48.2646 8.64596 48.0872 3.67002 42.9706C3.72041 42.9716 3.77188 42.9748 3.82227 42.9748C4.77864 42.9748 5.67391 42.8746 5.913 42.8454C6.83399 42.8193 7.78715 42.6931 8.79821 42.4636C8.83574 42.4594 8.87433 42.4532 8.91079 42.4448H8.91186C9.39755 42.3343 9.8929 42.1934 10.3936 42.0349C10.4 42.0328 10.4075 42.0338 10.414 42.0317C10.5716 41.9827 10.7303 41.9212 10.8879 41.8659C11.217 41.7532 11.5483 41.6333 11.8839 41.4997C11.8936 41.4966 11.9032 41.4977 11.9129 41.4945C12.1037 41.4184 12.2935 41.3339 12.4843 41.2525C12.7781 41.1273 13.074 40.9928 13.3721 40.853C13.3807 40.8488 13.3903 40.8509 13.4 40.8467C13.564 40.7685 13.7281 40.685 13.891 40.6037C14.0443 40.5275 14.1955 40.4566 14.3499 40.3773C14.3542 40.3752 14.3596 40.3731 14.3638 40.37C14.366 40.369 14.3671 40.3679 14.3681 40.3669C14.515 40.2907 14.6641 40.2052 14.812 40.1249C14.826 40.1176 14.842 40.1155 14.856 40.1082C14.8592 40.1061 14.8635 40.104 14.8667 40.1009C15.0189 40.0195 15.1701 39.9308 15.3213 39.8474C15.4628 39.7681 15.6022 39.694 15.7437 39.6116C15.7791 39.5908 15.8156 39.573 15.8509 39.5522C15.8585 39.548 15.8617 39.5397 15.8692 39.5355C15.9753 39.4729 16.0836 39.4051 16.1898 39.3404C16.2005 39.3342 16.2133 39.3321 16.2241 39.3258C16.2755 39.2945 16.327 39.2632 16.3774 39.2319C16.4428 39.1923 16.505 39.1495 16.5704 39.1088C16.9006 38.9054 17.233 38.6947 17.5675 38.4746C17.8849 38.2691 18.1979 38.0584 18.5099 37.8456C18.5346 37.8289 18.5592 37.8112 18.5839 37.7945C26.1931 32.5787 32.4063 25.2662 37.5442 18.6631C37.6203 18.565 37.6996 18.4628 37.7758 18.3637C37.7994 18.3334 37.8229 18.3042 37.8465 18.274C37.8487 18.2719 37.8487 18.2698 37.8508 18.2677C37.9441 18.1477 38.0384 18.0247 38.1328 17.9037C38.1339 17.9026 38.1349 17.9016 38.136 17.8995C38.1489 17.8828 38.1596 17.8682 38.1714 17.8525C41.1091 14.0669 44.2313 9.87452 46.1162 5.10314C46.8699 8.13245 47.9389 14.4112 44.1177 20.329Z" stroke="#00CD69" stroke-width="0.4" mask="url(#path-1-outside-1_670_1483)"/>
</svg>
