<svg width="37" height="34" viewBox="0 0 37 34" fill="none" xmlns="http://www.w3.org/2000/svg">
<path d="M35.1157 11.7745L24.4651 10.249L19.704 0.735923C19.5739 0.475461 19.36 0.264611 19.0957 0.136448C18.433 -0.186029 17.6276 0.0827015 17.2962 0.735923L12.5351 10.249L1.88444 11.7745C1.5908 11.8159 1.32233 11.9523 1.11679 12.159C0.868292 12.4107 0.731361 12.7494 0.73608 13.1006C0.740799 13.4518 0.886783 13.7867 1.14195 14.0319L8.84782 21.4364L7.02727 31.8921C6.98458 32.1353 7.01189 32.3855 7.1061 32.6142C7.20031 32.8429 7.35766 33.041 7.5603 33.186C7.76294 33.3311 8.00276 33.4173 8.25257 33.4348C8.50239 33.4524 8.75219 33.4006 8.97366 33.2853L18.5001 28.349L28.0265 33.2853C28.2866 33.4218 28.5886 33.4673 28.878 33.4176C29.6079 33.2936 30.0987 32.6115 29.9729 31.8921L28.1523 21.4364L35.8582 14.0319C36.0679 13.8293 36.2064 13.5647 36.2483 13.2753C36.3616 12.5518 35.8498 11.882 35.1157 11.7745Z" fill="#E5E5E5"/>
</svg>
