<svg width="15" height="15" viewBox="0 0 15 15" fill="none" xmlns="http://www.w3.org/2000/svg">
<path d="M9.02044 4.56785L9.14205 4.83704L9.4365 4.86043L13.4744 5.18129C13.5151 5.18454 13.554 5.19965 13.5862 5.22474L13.8934 4.83026L13.5862 5.22474C13.6184 5.24983 13.6426 5.2838 13.6557 5.32246L14.1291 5.16171L13.6554 5.3217C13.6823 5.40136 13.6595 5.48856 13.5974 5.54472C13.5974 5.54477 13.5973 5.54482 13.5973 5.54488L10.3848 8.43584L10.1527 8.64469L10.2385 8.9449L11.5336 13.4767C11.5336 13.4769 11.5337 13.4771 11.5337 13.4773C11.5452 13.5182 11.5439 13.5617 11.53 13.6018C11.516 13.6422 11.4901 13.6773 11.4556 13.7025C11.4211 13.7276 11.3797 13.7416 11.337 13.7425C11.2945 13.7435 11.2527 13.7314 11.2172 13.708C11.217 13.7079 11.2169 13.7078 11.2168 13.7077L7.3607 11.137L7.08335 10.9521L6.806 11.137L2.94913 13.7082L2.94858 13.7086C2.91386 13.7318 2.87297 13.7441 2.8312 13.7437C2.78943 13.7434 2.74873 13.7306 2.71437 13.7068C2.68001 13.6831 2.65357 13.6496 2.6385 13.6106C2.62342 13.5717 2.6204 13.5291 2.62983 13.4884L2.6299 13.4881L3.68532 8.91789L3.74863 8.64375L3.54716 8.44735L0.562956 5.53823L0.562922 5.53819C0.534255 5.51025 0.514245 5.47465 0.505286 5.43563C0.496326 5.39662 0.498796 5.35585 0.5124 5.3182C0.526004 5.28055 0.550166 5.24762 0.581996 5.22335C0.613825 5.19907 0.651974 5.18448 0.691882 5.18132L0.691999 5.18131L4.73021 4.86043L5.02468 4.83704L5.14628 4.56782L6.89374 0.698904L6.89436 0.697513C6.91069 0.661065 6.93722 0.630121 6.97075 0.608416C7.00427 0.586711 7.04337 0.575173 7.08331 0.575195C7.12325 0.575217 7.16233 0.586798 7.19583 0.608539C7.22933 0.630281 7.25583 0.661255 7.27212 0.697722L7.27212 0.697724L7.27298 0.699642L9.02044 4.56785Z" stroke="#999999"/>
</svg>
