<svg width="24" height="29" viewBox="0 0 24 29" fill="none" xmlns="http://www.w3.org/2000/svg">
<path d="M24 23.5L22.586 22.086L20 24.672V16.5H18V24.672L15.414 22.086L14 23.5L19 28.5L24 23.5Z" fill="#00CD69"/>
<path d="M12 26.5003H2V2.50034H10V8.50034C10.0016 9.03029 10.2128 9.53808 10.5875 9.91281C10.9623 10.2875 11.4701 10.4988 12 10.5003H18V13.5003H20V8.50034C20.0035 8.36892 19.9785 8.23829 19.9268 8.11745C19.875 7.99661 19.7976 7.88842 19.7 7.80034L12.7 0.80034C12.612 0.702685 12.5038 0.62529 12.3829 0.573497C12.2621 0.521704 12.1314 0.496744 12 0.50034H2C1.47005 0.501923 0.962265 0.713145 0.587535 1.08787C0.212805 1.46261 0.00158273 1.97039 0 2.50034V26.5003C0.00158273 27.0303 0.212805 27.5381 0.587535 27.9128C0.962265 28.2875 1.47005 28.4988 2 28.5003H12V26.5003ZM12 2.90034L17.6 8.50034H12V2.90034Z" fill="#00CD69"/>
</svg>
