<svg width="27" height="29" viewBox="0 0 27 29" fill="none" xmlns="http://www.w3.org/2000/svg">
<path d="M20.5 28.5C19.3133 28.5 18.1533 28.1481 17.1666 27.4888C16.1799 26.8295 15.4108 25.8925 14.9567 24.7961C14.5026 23.6997 14.3838 22.4933 14.6153 21.3295C14.8468 20.1656 15.4182 19.0965 16.2574 18.2574C17.0965 17.4182 18.1656 16.8468 19.3295 16.6153C20.4933 16.3838 21.6997 16.5026 22.7961 16.9567C23.8925 17.4108 24.8295 18.1799 25.4888 19.1666C26.1481 20.1533 26.5 21.3133 26.5 22.5C26.4981 24.0907 25.8654 25.6158 24.7406 26.7406C23.6158 27.8654 22.0907 28.4981 20.5 28.5ZM20.5 18.5C19.7089 18.5 18.9355 18.7346 18.2777 19.1741C17.6199 19.6136 17.1072 20.2384 16.8045 20.9693C16.5017 21.7002 16.4225 22.5044 16.5769 23.2804C16.7312 24.0563 17.1122 24.769 17.6716 25.3284C18.231 25.8878 18.9437 26.2688 19.7196 26.4231C20.4956 26.5775 21.2998 26.4983 22.0307 26.1955C22.7616 25.8928 23.3864 25.3801 23.8259 24.7223C24.2654 24.0645 24.5 23.2911 24.5 22.5C24.4987 21.4395 24.0768 20.4229 23.327 19.673C22.5771 18.9232 21.5605 18.5013 20.5 18.5ZM4.5 20.5H12.5V22.5H4.5V20.5ZM4.5 14.5H14.5V16.5H4.5V14.5Z" fill="#00CD69"/>
<path d="M12.5 26.5003H2.5V2.50034H10.5V8.50034C10.5016 9.03029 10.7128 9.53808 11.0875 9.91281C11.4623 10.2875 11.9701 10.4988 12.5 10.5003H18.5V13.5003H20.5V8.50034C20.5035 8.36892 20.4785 8.23829 20.4268 8.11745C20.375 7.99661 20.2976 7.88842 20.2 7.80034L13.2 0.80034C13.112 0.702685 13.0038 0.62529 12.8829 0.573497C12.7621 0.521704 12.6314 0.496744 12.5 0.50034H2.5C1.97005 0.501923 1.46227 0.713145 1.08753 1.08787C0.712805 1.46261 0.501583 1.97039 0.5 2.50034V26.5003C0.501583 27.0303 0.712805 27.5381 1.08753 27.9128C1.46227 28.2875 1.97005 28.4988 2.5 28.5003H12.5V26.5003ZM12.5 2.90034L18.1 8.50034H12.5V2.90034Z" fill="#00CD69"/>
</svg>
