<svg width="27" height="25" viewBox="0 0 27 25" fill="none" xmlns="http://www.w3.org/2000/svg">
<path d="M13.842 1.42266e-06C13.7206 -0.000236885 13.6008 0.0294666 13.4913 0.0869251C13.3817 0.144384 13.2853 0.228133 13.2091 0.332008L13.0647 0.449816C10.2655 -0.503363 7.072 0.196349 4.84888 2.55252C3.91791 3.52424 3.22535 4.73905 2.83555 6.08407C2.44574 7.42909 2.37135 8.86067 2.61927 10.2458C2.59172 10.2725 2.56467 10.2999 2.53814 10.3279L1.27404 11.6666C1.02951 11.9218 0.834779 12.2291 0.701704 12.5697C0.568629 12.9103 0.5 13.2772 0.5 13.648C0.5 14.0187 0.568629 14.3856 0.701704 14.7262C0.834779 15.0669 1.02951 15.3741 1.27404 15.6293C1.91988 16.3147 2.81562 16.5718 3.64807 16.4004C3.7503 16.9163 3.98884 17.4071 4.36694 17.807C4.86511 18.3353 5.51257 18.6084 6.1649 18.6281C6.18275 19.3189 6.44076 20.0043 6.93894 20.5326C7.43711 21.061 8.0862 21.3359 8.73853 21.3537C8.75476 22.0445 9.01439 22.7317 9.51256 23.2601C9.98949 23.758 10.6142 24.0489 11.2712 24.0791C11.9281 24.1093 12.5728 23.8767 13.0858 23.4243L13.7949 24.174C14.8334 25.2753 16.5178 25.2753 17.5564 24.174C18.0529 23.6492 18.3109 22.9674 18.3336 22.2784C19.0007 22.2594 19.6372 21.9673 20.1186 21.459C20.6152 20.9325 20.8732 20.2506 20.8927 19.5616C21.5522 19.5362 22.1801 19.2445 22.6566 18.7423C23.0509 18.3264 23.2943 17.8105 23.3884 17.2715C23.8061 17.352 24.2351 17.3236 24.641 17.1884C25.0469 17.0532 25.4182 16.8151 25.7251 16.4932C25.9699 16.238 26.1648 15.9307 26.2981 15.5899C26.4313 15.2491 26.5 14.882 26.5 14.511C26.5 14.14 26.4313 13.7729 26.2981 13.4321C26.1648 13.0913 25.9699 12.784 25.7251 12.5288L24.5567 11.2918L24.7953 10.3101C25.2778 8.30297 25.0335 6.16824 24.1137 4.35536C22.7572 1.66717 20.1251 0.00714126 17.2789 0.00714126H15.2829C15.197 0.00245562 15.111 7.50326e-05 15.0249 1.42266e-06H13.842ZM17.8225 6.63299L21.7251 10.7688L21.73 10.7724L24.5551 13.7676C24.6469 13.8633 24.72 13.9786 24.7699 14.1064C24.8199 14.2342 24.8456 14.3719 24.8456 14.511C24.8456 14.6501 24.8199 14.7878 24.7699 14.9156C24.72 15.0434 24.6469 15.1587 24.5551 15.2544C24.3656 15.4519 24.1144 15.562 23.8533 15.562C23.5922 15.562 23.3411 15.4519 23.1515 15.2544L21.0079 12.984C20.8507 12.8181 20.6414 12.7255 20.4237 12.7255C20.206 12.7255 19.9966 12.8181 19.8395 12.984L19.8168 13.0054C19.7403 13.0851 19.6794 13.1811 19.6377 13.2876C19.5961 13.3941 19.5746 13.5088 19.5746 13.6248C19.5746 13.7407 19.5961 13.8554 19.6377 13.9619C19.6794 14.0684 19.7403 14.1644 19.8168 14.2442L21.4882 16.0149C21.8776 16.4254 21.8776 17.093 21.4882 17.5053C21.3158 17.685 21.092 17.793 20.8551 17.8109C20.6183 17.8288 20.3831 17.7555 20.19 17.6035C20.0289 17.4754 19.8321 17.4135 19.6337 17.4285C19.4354 17.4435 19.2481 17.5345 19.1044 17.6856C18.964 17.8333 18.8792 18.0337 18.8669 18.247C18.8546 18.4603 18.9156 18.6708 19.0379 18.8369C19.1836 19.0376 19.2554 19.2912 19.2392 19.5474C19.2229 19.8036 19.1198 20.0437 18.9503 20.2203C18.7755 20.4026 18.5478 20.5112 18.3073 20.5269C18.0668 20.5425 17.829 20.4643 17.6359 20.3059C17.4755 20.1736 17.2779 20.1079 17.0778 20.1203C16.8777 20.1327 16.688 20.2225 16.5422 20.3738C16.3999 20.5213 16.3136 20.7225 16.3007 20.937C16.2878 21.1516 16.3491 21.3636 16.4724 21.5304C16.6215 21.7338 16.6954 21.9916 16.6795 22.2522C16.6635 22.5129 16.5589 22.7574 16.3864 22.937C16.1943 23.1375 15.9396 23.2493 15.6748 23.2493C15.41 23.2493 15.1553 23.1375 14.9633 22.937L14.2606 22.1927L14.517 21.9214C14.7618 21.6662 14.9567 21.3588 15.09 21.018C15.2232 20.6772 15.2919 20.3101 15.2919 19.9391C15.2919 19.5682 15.2232 19.2011 15.09 18.8603C14.9567 18.5195 14.7618 18.2121 14.517 17.9569C14.0321 17.4456 13.3906 17.1527 12.719 17.1358C12.6993 16.413 12.4212 15.728 11.945 15.2295C11.4594 14.7184 10.8173 14.4261 10.1454 14.4102C10.1257 13.6874 9.84757 13.0023 9.37139 12.5038C9.05964 12.1774 8.68171 11.9374 8.26887 11.8036C7.85604 11.6698 7.42017 11.6461 6.99736 11.7345C6.89039 11.1973 6.64008 10.7076 6.27849 10.3279C6.00131 10.0369 5.671 9.81419 5.30952 9.67447C4.94804 9.53475 4.56367 9.48125 4.18195 9.51752C4.05411 8.47155 4.15365 7.40714 4.47241 6.41171C4.79117 5.41628 5.32005 4.51823 6.01561 3.7913C6.71847 3.05266 7.56119 2.49421 8.48335 2.15598C9.40551 1.81775 10.3843 1.70813 11.3495 1.83496L8.98843 3.74489C8.68633 3.98635 8.43186 4.29264 8.24038 4.64529C8.0489 4.99793 7.92437 5.3896 7.87432 5.79666C7.82428 6.20371 7.84974 6.6177 7.94919 7.01362C8.04864 7.40955 8.22 7.7792 8.45293 8.10025C8.92401 8.74998 9.60469 9.1749 10.3533 9.28661C11.102 9.39832 11.861 9.18821 12.4724 8.7L15.0298 6.63478H17.8209L17.8225 6.63299ZM9.94907 5.1818L14.1552 1.78498H15.0249C15.1045 1.78452 15.184 1.7869 15.2635 1.79212H17.2789C19.5572 1.79212 21.6359 3.12193 22.6955 5.22286C23.4127 6.6437 23.601 8.29481 23.2261 9.8531L23.2213 9.87095L18.7426 5.1104C18.5908 4.94291 18.3847 4.84853 18.1697 4.84801H14.762C14.5898 4.84837 14.4222 4.90901 14.2833 5.02115L11.5117 7.25952C11.2395 7.47396 10.9031 7.56586 10.5712 7.51642C10.2394 7.46698 9.93734 7.27993 9.72676 6.99356C9.62863 6.86059 9.55628 6.70693 9.51418 6.54205C9.47207 6.37717 9.46109 6.20455 9.48191 6.03482C9.50274 5.8651 9.55493 5.70186 9.63527 5.55515C9.71562 5.40845 9.82241 5.28139 9.94907 5.1818ZM10.6663 20.5505L10.6825 20.5326L11.945 19.1939L11.9596 19.1796C12.1502 18.989 12.3994 18.8847 12.657 18.8876C12.9146 18.8906 13.1617 19.0007 13.3487 19.1957C13.4404 19.2914 13.5135 19.4067 13.5635 19.5345C13.6134 19.6623 13.6392 19.8 13.6392 19.9391C13.6392 20.0783 13.6134 20.2159 13.5635 20.3437C13.5135 20.4716 13.4404 20.5868 13.3487 20.6826L12.0846 22.0213C11.895 22.2188 11.6438 22.3288 11.3827 22.3288C11.1217 22.3288 10.8705 22.2188 10.6809 22.0213C10.5903 21.927 10.5179 21.8137 10.4679 21.688C10.4179 21.5623 10.3914 21.4269 10.3899 21.2897C10.3884 21.1525 10.4119 21.0164 10.4591 20.8894C10.5063 20.7624 10.5762 20.6472 10.6647 20.5505H10.6663ZM10.7913 17.9408L10.775 17.9569L9.51256 19.2956L9.49634 19.3117C9.3056 19.5016 9.0567 19.6053 8.79944 19.602C8.54219 19.5987 8.29556 19.4886 8.10891 19.2939C8.01817 19.1991 7.9457 19.0853 7.89583 18.9591C7.84596 18.8329 7.81971 18.6969 7.81865 18.5593C7.81759 18.4217 7.84174 18.2853 7.88966 18.1582C7.93758 18.0311 8.00828 17.9159 8.09756 17.8195L8.10891 17.807L9.37139 16.4682L9.38275 16.4557C9.57315 16.2636 9.82273 16.158 10.0811 16.1603C10.3395 16.1626 10.5875 16.2727 10.775 16.4682C10.8659 16.5626 10.9385 16.676 10.9886 16.8019C11.0388 16.9277 11.0654 17.0634 11.0669 17.2008C11.0684 17.3381 11.0448 17.4745 10.9974 17.6016C10.9501 17.7288 10.88 17.8441 10.7913 17.9408ZM8.20303 15.2295L6.93894 16.5682L6.92758 16.5807C6.73717 16.7729 6.4876 16.8784 6.2292 16.8761C5.9708 16.8738 5.72282 16.7638 5.53529 16.5682C5.44352 16.4725 5.37043 16.3572 5.32048 16.2294C5.27054 16.1015 5.24478 15.9639 5.24478 15.8248C5.24478 15.6856 5.27054 15.548 5.32048 15.4201C5.37043 15.2923 5.44352 15.177 5.53529 15.0813L6.79776 13.7426C6.98742 13.5446 7.23892 13.4342 7.5004 13.4342C7.76187 13.4342 8.01338 13.5446 8.20303 13.7426C8.29403 13.8373 8.36671 13.9513 8.41673 14.0776C8.46675 14.204 8.49308 14.3402 8.49414 14.478C8.4952 14.6158 8.47097 14.7525 8.4229 14.8797C8.37484 15.007 8.30392 15.1223 8.21439 15.2188L8.20303 15.2295ZM5.11014 13.0536L3.84767 14.3923C3.6582 14.5907 3.40662 14.7014 3.14503 14.7014C2.88344 14.7014 2.63187 14.5907 2.4424 14.3923C2.35037 14.2965 2.27706 14.1812 2.22697 14.0532C2.17687 13.9252 2.15103 13.7873 2.15103 13.648C2.15103 13.5086 2.17687 13.3707 2.22697 13.2428C2.27706 13.1148 2.35037 12.9994 2.4424 12.9036L3.70649 11.5649C3.89606 11.3674 4.14723 11.2574 4.40831 11.2574C4.6694 11.2574 4.92057 11.3674 5.11014 11.5649C5.20217 11.6606 5.27547 11.776 5.32557 11.904C5.37567 12.032 5.4015 12.1699 5.4015 12.3092C5.4015 12.4486 5.37567 12.5865 5.32557 12.7144C5.27547 12.8424 5.20217 12.9578 5.11014 13.0536Z" fill="#00CD69"/>
</svg>
