<svg width="28" height="27" viewBox="0 0 28 27" fill="none" xmlns="http://www.w3.org/2000/svg">
<g clip-path="url(#clip0)">
<path d="M14.3008 0.421875C6.84312 0.421875 0.800781 6.27539 0.800781 13.5C0.800781 20.7246 6.84312 26.5781 14.3008 26.5781C21.7584 26.5781 27.8008 20.7246 27.8008 13.5C27.8008 6.27539 21.7584 0.421875 14.3008 0.421875ZM20.931 9.38144L18.7155 19.4959C18.5522 20.2131 18.1113 20.3871 17.4961 20.0496L14.1211 17.6396L12.4935 19.1584C12.3139 19.3324 12.1615 19.4801 11.8131 19.4801L12.0526 16.1525L18.3072 10.6787C18.5794 10.4467 18.2474 10.3148 17.8881 10.5469L10.1582 15.2613L6.82679 14.2541C6.1028 14.0326 6.08647 13.5527 6.97921 13.2152L19.9947 8.35312C20.599 8.14219 21.127 8.49551 20.931 9.38144Z" fill="black"/>
</g>
<defs>
<clipPath id="clip0">
<rect width="27" height="27" fill="white" transform="translate(0.800781)"/>
</clipPath>
</defs>
</svg>
