<svg width="13" height="13" viewBox="0 0 13 13" fill="none" xmlns="http://www.w3.org/2000/svg">
<path d="M11.7 4.10526H8.0522L8.78215 1.80153C8.91345 1.38553 8.84715 0.924369 8.6034 0.568579C8.35965 0.21279 7.96445 0 7.5478 0H6.5C6.30695 0 6.1243 0.0903157 6.00015 0.246316L2.94515 4.10526H1.3C0.58305 4.10526 0 4.719 0 5.47368V11.6316C0 12.3863 0.58305 13 1.3 13H9.94955C10.214 12.9991 10.472 12.9137 10.6894 12.7551C10.9068 12.5965 11.0733 12.3722 11.167 12.1119L12.959 7.08226C12.9863 7.00544 13.0001 6.92409 13 6.84211V5.47368C13 4.719 12.4169 4.10526 11.7 4.10526ZM1.3 5.47368H2.6V11.6316H1.3V5.47368ZM11.7 6.71826L9.94955 11.6316H3.9V5.03716L6.8042 1.36842H7.5491L6.5338 4.57258C6.50084 4.67543 6.49165 4.78506 6.50698 4.8924C6.52232 4.99973 6.56174 5.10167 6.62198 5.18977C6.68222 5.27786 6.76154 5.34957 6.85337 5.39894C6.9452 5.44832 7.04688 5.47394 7.15 5.47368H11.7V6.71826Z" fill="#00CD69"/>
</svg>
