<svg width="94" height="108" viewBox="0 0 94 108" fill="none" xmlns="http://www.w3.org/2000/svg">
<path d="M83.797 101.296H10.0556V67.7775H3.35181V101.296C3.35181 103.074 4.05809 104.779 5.31529 106.037C6.57249 107.294 8.27762 108 10.0556 108H83.797C85.5749 108 87.2801 107.294 88.5372 106.037C89.7944 104.779 90.5007 103.074 90.5007 101.296V67.7775H83.797V101.296Z" fill="#00CD69"/>
<path d="M33.5188 74.4812C33.5188 75.3701 33.8719 76.2227 34.5005 76.8513C35.1291 77.4799 35.9817 77.833 36.8707 77.833H56.982C57.8709 77.833 58.7235 77.4799 59.3521 76.8513C59.9807 76.2227 60.3339 75.3701 60.3339 74.4812C60.3339 73.5922 59.9807 72.7396 59.3521 72.111C58.7235 71.4824 57.8709 71.1293 56.982 71.1293H36.8707C35.9817 71.1293 35.1291 71.4824 34.5005 72.111C33.8719 72.7396 33.5188 73.5922 33.5188 74.4812Z" fill="#00CD69"/>
<path d="M36.8707 54.3698H6.70376V40.9623H36.8707V34.2585H5.02782C3.69436 34.2585 2.41551 34.7883 1.47261 35.7312C0.529715 36.6741 0 37.9529 0 39.2864V61.0736H39.4852C37.8166 59.238 36.8855 56.8504 36.8707 54.3698Z" fill="#00CD69"/>
<path d="M88.8255 34.2585H56.9826V40.9623H87.1496V54.3698H56.9826C56.9679 56.8504 56.0367 59.238 54.3682 61.0736H93.8533V39.2864C93.8533 37.9529 93.3236 36.6741 92.3807 35.7312C91.4378 34.7883 90.159 34.2585 88.8255 34.2585Z" fill="#00CD69"/>
<path d="M30.1675 26.0441L43.575 12.8042V54.3675C43.575 55.2565 43.9281 56.1091 44.5567 56.7377C45.1853 57.3663 46.0379 57.7194 46.9269 57.7194C47.8159 57.7194 48.6684 57.3663 49.297 56.7377C49.9256 56.1091 50.2788 55.2565 50.2788 54.3675V12.8042L63.6863 26.0441C63.9988 26.3545 64.3694 26.6002 64.7769 26.7673C65.1844 26.9344 65.6208 27.0196 66.0612 27.018C66.5016 27.0165 66.9374 26.9282 67.3437 26.7582C67.75 26.5882 68.1189 26.3399 68.4292 26.0274C68.7395 25.7148 68.9853 25.3443 69.1524 24.9368C69.3195 24.5293 69.4047 24.0929 69.4031 23.6524C69.4016 23.212 69.3133 22.7762 69.1433 22.3699C68.9733 21.9636 68.725 21.5948 68.4124 21.2845L46.9269 0L25.5083 21.2845C24.9893 21.9233 24.7234 22.7307 24.7614 23.553C24.7994 24.3752 25.1386 25.1547 25.7144 25.7429C26.2902 26.3312 27.0623 26.6869 27.8835 26.7425C28.7048 26.798 29.5177 26.5494 30.1675 26.0441Z" fill="#00CD69"/>
</svg>
