<svg id="svg" version="1.1" xmlns="http://www.w3.org/2000/svg" xmlns:xlink="http://www.w3.org/1999/xlink" width="400" height="346.1538461538462" viewBox="0, 0, 400,346.1538461538462"><g id="svgg"><path id="path0" d="M256.687 1.905 C 256.020 2.465,255.233 2.771,254.452 2.771 C 252.079 2.771,251.082 3.137,251.082 4.008 C 251.082 4.733,250.905 4.823,249.278 4.917 C 247.677 5.010,247.451 5.119,247.273 5.887 C 247.129 6.507,246.805 6.784,246.133 6.863 C 245.400 6.948,245.195 7.157,245.195 7.815 C 245.195 8.476,245.014 8.658,244.357 8.658 C 243.707 8.658,243.467 8.892,243.290 9.697 C 243.113 10.502,242.873 10.736,242.224 10.736 C 241.560 10.736,241.385 10.917,241.385 11.602 C 241.385 12.240,241.201 12.468,240.684 12.468 C 239.899 12.468,239.307 13.658,239.307 15.237 C 239.307 16.002,239.129 16.254,238.528 16.340 C 237.838 16.438,237.737 16.678,237.645 18.442 C 237.550 20.265,237.473 20.433,236.736 20.433 C 235.497 20.433,235.498 20.409,235.498 52.162 L 235.498 81.726 151.365 81.815 L 67.232 81.905 66.256 82.839 C 65.437 83.624,64.923 83.789,63.030 83.878 C 60.997 83.973,60.769 84.058,60.669 84.762 C 60.596 85.276,60.320 85.541,59.859 85.541 C 59.401 85.541,59.026 85.899,58.768 86.580 C 58.491 87.316,58.146 87.619,57.586 87.619 C 56.940 87.619,56.797 87.807,56.797 88.658 C 56.797 89.521,56.657 89.697,55.974 89.697 C 55.124 89.697,54.719 90.674,54.719 92.721 C 54.719 93.193,54.328 94.043,53.851 94.610 L 52.984 95.641 53.072 139.509 L 53.160 183.377 53.918 183.485 C 54.449 183.560,54.709 183.872,54.784 184.524 C 54.867 185.243,55.103 185.479,55.823 185.562 C 56.543 185.645,56.779 185.881,56.862 186.601 L 56.970 187.532 61.250 187.630 C 65.715 187.732,66.494 187.531,66.494 186.278 C 66.494 185.815,66.743 185.628,67.359 185.628 C 68.152 185.628,68.225 185.499,68.225 184.098 C 68.225 182.829,68.387 182.451,69.177 181.875 L 70.130 181.181 70.230 140.114 L 70.330 99.048 154.968 99.048 C 238.562 99.048,239.610 99.056,239.821 99.723 C 239.939 100.094,240.339 100.494,240.710 100.612 C 241.173 100.758,241.385 101.139,241.385 101.819 C 241.385 102.640,241.547 102.830,242.324 102.921 C 242.996 102.999,243.320 103.276,243.464 103.896 C 243.589 104.434,243.946 104.803,244.408 104.870 C 244.866 104.936,245.194 105.269,245.260 105.736 C 245.335 106.263,245.647 106.526,246.285 106.600 C 246.843 106.664,247.271 106.968,247.377 107.375 C 247.603 108.238,248.967 108.745,251.067 108.745 C 252.561 108.745,252.762 108.836,252.956 109.610 C 253.171 110.465,253.220 110.476,256.803 110.476 L 260.433 110.476 260.433 111.491 C 260.433 112.280,260.259 112.531,259.654 112.617 C 259.009 112.708,258.844 112.997,258.701 114.286 C 258.571 115.460,258.341 115.926,257.770 116.177 C 256.942 116.540,256.635 117.313,256.628 119.056 C 256.624 119.945,256.436 120.262,255.758 120.519 C 254.993 120.810,254.892 121.051,254.892 122.589 C 254.892 124.191,254.827 124.329,254.066 124.329 C 253.039 124.329,252.825 125.035,252.819 128.444 C 252.814 130.661,252.710 131.091,252.035 131.678 L 251.255 132.355 251.019 130.731 C 250.695 128.499,250.516 128.139,249.731 128.139 C 249.246 128.139,249.019 127.865,248.941 127.186 C 248.862 126.504,248.610 126.202,248.052 126.123 C 247.587 126.057,247.273 125.771,247.273 125.413 C 247.273 124.637,246.607 123.983,245.818 123.983 C 245.384 123.983,245.195 123.720,245.195 123.117 C 245.195 122.386,245.033 122.251,244.156 122.251 C 243.284 122.251,243.117 122.115,243.117 121.401 C 243.117 120.688,242.908 120.516,241.818 120.335 C 239.857 120.009,239.603 119.883,239.407 119.132 C 239.255 118.550,238.934 118.442,237.362 118.442 C 235.608 118.442,235.498 118.391,235.498 117.582 C 235.498 116.470,235.068 116.380,229.264 116.275 C 224.787 116.194,224.574 116.157,224.247 115.411 C 224.014 114.880,223.607 114.632,222.971 114.632 C 222.210 114.632,222.017 114.456,221.928 113.680 C 221.826 112.791,221.696 112.720,220.000 112.623 C 218.356 112.528,218.182 112.440,218.182 111.710 C 218.182 110.991,217.973 110.876,216.277 110.664 C 214.753 110.474,214.372 110.300,214.372 109.796 C 214.372 108.765,214.000 108.744,195.556 108.749 C 177.044 108.754,176.277 108.795,176.277 109.774 C 176.277 110.269,175.834 110.418,173.792 110.608 C 171.281 110.841,170.390 111.221,170.390 112.059 C 170.390 112.368,169.800 112.552,168.586 112.623 C 166.984 112.715,166.759 112.825,166.580 113.593 C 166.437 114.213,166.113 114.490,165.441 114.568 C 164.707 114.654,164.502 114.862,164.502 115.521 C 164.502 116.222,164.332 116.364,163.486 116.364 C 161.885 116.364,160.693 116.951,160.693 117.740 C 160.693 118.217,160.465 118.442,159.982 118.442 C 159.507 118.442,159.154 118.779,158.916 119.460 C 158.694 120.097,158.279 120.518,157.809 120.585 C 157.279 120.661,157.024 120.975,156.947 121.645 C 156.886 122.170,156.623 122.597,156.360 122.597 C 155.667 122.597,154.805 123.984,154.805 125.099 C 154.805 125.894,154.655 126.061,153.939 126.061 C 153.259 126.061,153.074 126.237,153.074 126.883 C 153.074 128.733,152.655 129.831,151.909 129.938 C 151.276 130.028,151.154 130.308,151.064 131.877 C 150.975 133.423,150.833 133.759,150.161 134.014 C 149.233 134.367,148.927 135.681,148.922 139.344 C 148.918 141.368,148.790 141.870,148.052 142.747 L 147.186 143.776 147.186 162.617 L 147.186 181.459 148.052 181.676 C 148.824 181.870,148.918 182.072,148.918 183.544 C 148.918 186.256,149.240 187.278,150.168 187.511 C 150.762 187.660,150.996 187.961,150.996 188.578 C 150.996 189.266,151.170 189.437,151.870 189.437 C 152.565 189.437,152.787 189.651,152.952 190.476 C 153.111 191.270,153.349 191.515,153.959 191.515 C 154.523 191.515,154.789 191.744,154.868 192.294 C 154.946 192.843,155.249 193.105,155.892 193.179 C 156.758 193.280,156.812 193.403,156.950 195.563 C 157.065 197.363,157.250 197.967,157.835 198.441 C 158.392 198.892,158.602 199.501,158.682 200.905 C 158.781 202.652,158.848 202.778,159.740 202.880 C 160.684 202.989,160.693 203.012,160.693 205.573 C 160.693 207.987,160.747 208.176,161.532 208.475 C 162.018 208.660,162.419 209.130,162.484 209.592 C 162.566 210.169,162.860 210.420,163.550 210.499 C 164.290 210.584,164.502 210.792,164.502 211.429 C 164.502 212.742,165.098 213.949,165.868 214.193 C 166.317 214.336,166.580 214.716,166.580 215.224 C 166.580 215.794,166.833 216.092,167.446 216.246 C 168.014 216.389,168.312 216.705,168.312 217.167 C 168.312 217.635,168.653 217.991,169.330 218.227 C 169.967 218.449,170.389 218.863,170.456 219.334 C 170.530 219.855,170.844 220.119,171.480 220.193 C 172.054 220.259,172.465 220.561,172.580 220.998 C 172.680 221.382,173.086 221.781,173.481 221.884 C 174.135 222.055,174.199 222.329,174.199 224.962 L 174.199 227.852 172.820 228.224 C 172.061 228.428,171.276 228.901,171.076 229.276 C 170.758 229.870,170.340 229.957,167.783 229.957 C 165.241 229.957,164.736 230.060,163.961 230.736 C 163.183 231.416,162.463 231.559,158.331 231.861 C 153.913 232.184,153.570 232.260,153.251 232.987 C 152.931 233.716,152.697 233.767,149.615 233.772 C 146.071 233.777,145.605 233.911,145.404 234.978 C 145.284 235.612,144.958 235.679,141.558 235.769 C 137.933 235.865,137.838 235.888,137.628 236.722 C 137.429 237.517,137.263 237.576,135.229 237.576 C 132.495 237.576,131.948 237.784,131.948 238.825 C 131.948 239.589,131.812 239.654,130.208 239.654 C 128.685 239.654,128.428 239.758,128.149 240.493 C 127.964 240.979,127.494 241.380,127.032 241.445 C 126.454 241.527,126.204 241.821,126.124 242.511 C 126.034 243.298,125.846 243.463,125.039 243.463 C 124.356 243.463,124.009 243.670,123.883 244.154 C 123.783 244.534,123.415 244.952,123.063 245.083 C 121.878 245.526,120.173 247.512,120.173 248.450 C 120.173 249.180,120.009 249.351,119.307 249.351 C 118.615 249.351,118.442 249.524,118.442 250.216 C 118.442 250.819,118.252 251.082,117.818 251.082 C 116.817 251.082,116.364 251.808,116.364 253.411 C 116.364 254.679,116.234 254.958,115.522 255.229 C 114.853 255.483,114.629 255.889,114.433 257.197 C 114.277 258.236,113.916 259.063,113.456 259.435 C 112.823 259.947,112.711 260.470,112.605 263.405 C 112.499 266.336,112.386 266.865,111.757 267.374 C 110.818 268.135,110.526 270.918,110.498 279.394 L 110.476 285.714 90.403 285.714 L 70.330 285.714 70.230 244.647 L 70.130 203.581 69.177 202.887 C 68.414 202.331,68.225 201.920,68.225 200.814 C 68.225 197.759,66.868 197.038,61.223 197.097 C 56.193 197.150,55.352 197.335,55.052 198.458 C 54.922 198.943,54.405 199.784,53.902 200.326 L 52.987 201.313 52.987 243.514 L 52.987 285.714 48.485 285.714 L 43.983 285.714 43.983 189.506 C 43.983 114.468,44.075 93.206,44.404 92.878 C 44.656 92.626,44.880 91.076,44.963 89.010 C 45.085 85.968,45.181 85.537,45.774 85.349 C 46.508 85.116,47.100 83.889,47.100 82.599 C 47.100 82.013,47.322 81.748,47.879 81.669 C 48.370 81.599,48.698 81.280,48.765 80.806 C 48.832 80.335,49.254 79.920,49.891 79.698 C 50.571 79.461,50.909 79.108,50.909 78.633 C 50.909 78.104,51.133 77.922,51.784 77.922 C 52.478 77.922,52.701 77.708,52.866 76.883 C 53.062 75.900,53.164 75.844,54.755 75.844 C 56.260 75.844,56.460 75.753,56.654 74.979 L 56.871 74.114 141.249 74.027 L 225.628 73.939 225.737 72.987 C 225.829 72.189,226.012 72.035,226.863 72.035 C 227.761 72.035,227.879 71.914,227.879 70.996 C 227.879 70.424,228.024 69.957,228.200 69.957 C 230.054 69.957,230.458 63.656,228.655 62.862 C 228.147 62.638,227.879 62.218,227.879 61.647 C 227.879 61.011,227.598 60.651,226.840 60.315 C 226.268 60.062,225.801 59.651,225.801 59.402 C 225.801 58.868,225.043 58.528,223.856 58.528 C 223.388 58.528,222.590 58.255,222.081 57.922 C 220.523 56.901,61.222 56.813,59.843 57.833 C 59.091 58.389,58.327 58.535,56.031 58.562 C 51.005 58.622,49.368 58.927,49.240 59.827 C 49.141 60.526,48.935 60.606,47.249 60.606 C 45.904 60.606,45.368 60.739,45.368 61.072 C 45.368 61.840,44.234 62.623,42.944 62.743 C 42.014 62.831,41.707 63.030,41.626 63.597 C 41.554 64.101,41.196 64.402,40.501 64.541 C 39.695 64.702,39.481 64.928,39.481 65.619 C 39.481 66.319,39.309 66.494,38.621 66.494 C 38.002 66.494,37.704 66.727,37.552 67.329 C 37.427 67.827,37.005 68.250,36.507 68.375 C 35.924 68.521,35.671 68.828,35.671 69.388 C 35.671 69.903,35.369 70.330,34.829 70.575 C 34.187 70.868,33.932 71.328,33.754 72.516 C 33.568 73.755,33.368 74.096,32.777 74.180 C 32.142 74.270,32.020 74.548,31.930 76.104 C 31.846 77.564,31.706 77.922,31.220 77.922 C 30.117 77.922,29.784 78.683,29.784 81.199 C 29.784 83.404,29.707 83.679,29.004 83.987 L 28.225 84.329 28.138 185.022 L 28.051 285.714 18.547 285.714 L 9.043 285.714 8.430 286.753 C 7.900 287.650,7.614 287.792,6.332 287.792 C 4.991 287.792,4.848 287.873,4.848 288.635 C 4.848 289.297,4.644 289.501,3.896 289.587 C 3.148 289.673,2.920 289.901,2.834 290.649 C 2.748 291.397,2.544 291.602,1.882 291.602 C 1.176 291.602,1.039 291.771,1.039 292.641 C 1.039 293.333,0.866 293.680,0.519 293.680 C 0.067 293.680,0.000 295.277,0.000 305.974 C 0.000 316.671,0.067 318.268,0.519 318.268 C 0.918 318.268,1.039 318.710,1.039 320.167 C 1.039 321.902,1.113 322.083,1.905 322.282 C 2.553 322.445,2.772 322.729,2.775 323.414 C 2.784 325.025,3.161 325.823,4.015 326.038 C 4.608 326.187,4.848 326.489,4.848 327.084 C 4.848 328.496,5.471 329.697,6.202 329.697 C 6.685 329.697,6.912 329.972,6.990 330.649 C 7.068 331.331,7.321 331.633,7.879 331.712 C 8.344 331.778,8.658 332.065,8.658 332.422 C 8.658 333.198,9.323 333.853,10.113 333.853 C 10.547 333.853,10.736 334.116,10.736 334.719 C 10.736 335.445,10.899 335.584,11.751 335.584 C 12.540 335.584,12.790 335.758,12.876 336.364 C 12.965 336.991,13.308 337.205,14.632 337.461 C 15.793 337.685,16.277 337.945,16.277 338.344 C 16.277 339.283,17.029 339.740,18.573 339.740 C 19.829 339.740,20.054 339.852,20.149 340.519 C 20.247 341.210,20.487 341.311,22.251 341.403 C 24.077 341.498,24.242 341.574,24.242 342.315 C 24.242 343.326,24.964 343.539,28.422 343.545 C 30.784 343.549,31.119 343.636,31.797 344.416 L 32.550 345.281 200.015 345.281 C 377.421 345.281,369.524 345.346,369.524 343.887 C 369.524 343.702,370.576 343.548,371.861 343.545 C 374.905 343.539,375.655 343.312,375.903 342.323 C 376.081 341.616,376.348 341.494,377.924 341.403 C 379.506 341.312,379.755 341.198,379.851 340.519 C 379.946 339.852,380.171 339.740,381.427 339.740 C 383.000 339.740,383.723 339.282,383.723 338.286 C 383.723 337.797,384.004 337.661,385.022 337.657 C 386.568 337.651,387.012 337.403,387.336 336.364 C 387.501 335.836,387.851 335.584,388.422 335.584 C 389.083 335.584,389.264 335.403,389.264 334.742 C 389.264 334.080,389.468 333.875,390.216 333.789 C 390.958 333.704,391.193 333.474,391.276 332.749 C 391.352 332.097,391.611 331.785,392.142 331.710 C 392.629 331.640,392.941 331.315,393.014 330.803 C 393.076 330.364,393.498 329.835,393.952 329.628 C 394.570 329.346,394.834 328.873,395.004 327.743 C 395.139 326.841,395.414 326.234,395.686 326.234 C 396.547 326.234,397.229 325.155,397.229 323.791 C 397.229 322.636,397.356 322.406,398.095 322.220 C 398.833 322.035,398.961 321.804,398.961 320.655 C 398.961 319.688,399.108 319.307,399.481 319.307 C 399.933 319.307,400.000 317.633,400.000 306.320 C 400.000 295.007,399.933 293.333,399.481 293.333 C 399.157 293.333,398.961 293.006,398.961 292.468 C 398.961 291.781,398.786 291.602,398.118 291.602 C 397.456 291.602,397.252 291.397,397.166 290.649 C 397.080 289.901,396.852 289.673,396.104 289.587 C 395.356 289.501,395.152 289.297,395.152 288.635 C 395.152 287.873,395.009 287.792,393.668 287.792 C 392.386 287.792,392.100 287.650,391.570 286.753 L 390.957 285.714 381.453 285.714 L 371.950 285.714 371.862 204.242 L 371.775 122.771 371.011 122.435 C 370.570 122.242,370.205 121.730,370.146 121.223 C 370.068 120.556,369.816 120.320,369.091 120.237 C 368.339 120.150,368.139 119.947,368.139 119.274 L 368.139 118.421 363.550 118.518 C 359.163 118.610,358.956 118.647,358.856 119.354 C 358.784 119.859,358.425 120.159,357.730 120.298 C 356.720 120.500,356.710 120.525,356.710 122.881 C 356.710 124.821,356.582 125.376,356.017 125.887 C 355.329 126.511,355.325 126.954,355.325 206.114 L 355.325 285.714 351.169 285.714 L 347.013 285.714 347.013 198.095 L 347.013 110.476 363.252 110.476 L 379.492 110.476 379.709 109.610 C 379.904 108.833,380.102 108.745,381.633 108.745 C 383.153 108.745,383.388 108.641,383.793 107.792 C 384.167 107.008,384.507 106.821,385.715 106.733 C 386.930 106.645,387.219 106.485,387.390 105.801 C 387.515 105.304,387.896 104.932,388.344 104.868 C 388.868 104.794,389.124 104.477,389.200 103.810 C 389.287 103.059,389.490 102.857,390.162 102.857 C 390.817 102.857,391.058 102.634,391.207 101.888 C 391.314 101.352,391.736 100.771,392.151 100.589 C 392.697 100.349,392.994 99.775,393.247 98.468 C 393.437 97.483,393.944 96.274,394.372 95.782 C 394.977 95.087,395.152 94.461,395.152 92.984 C 395.152 91.545,395.275 91.082,395.659 91.082 C 397.034 91.082,397.052 90.690,397.166 59.048 C 397.289 24.819,397.231 23.001,395.984 22.433 C 395.215 22.082,395.152 21.860,395.152 19.503 C 395.152 17.130,395.094 16.931,394.321 16.637 C 393.650 16.382,393.445 15.984,393.250 14.566 C 393.048 13.098,392.872 12.776,392.175 12.602 C 391.586 12.454,391.342 12.150,391.342 11.564 C 391.342 10.875,391.168 10.736,390.303 10.736 C 389.380 10.736,389.264 10.620,389.264 9.697 C 389.264 8.828,389.127 8.658,388.422 8.658 C 387.813 8.658,387.550 8.443,387.470 7.879 C 387.391 7.321,387.089 7.068,386.407 6.990 C 385.741 6.913,385.455 6.683,385.455 6.223 C 385.455 5.388,384.454 4.848,382.904 4.848 C 381.913 4.848,381.673 4.707,381.583 4.071 C 381.457 3.189,380.471 2.877,377.599 2.812 C 376.164 2.779,375.763 2.639,375.596 2.115 C 375.254 1.037,375.920 1.049,315.784 1.044 L 257.715 1.039 256.687 1.905 M374.088 19.134 C 374.168 19.692,374.470 19.945,375.152 20.023 C 375.829 20.101,376.104 20.328,376.104 20.811 C 376.104 21.206,376.447 21.619,376.926 21.801 C 377.378 21.973,377.848 22.515,377.971 23.005 C 378.136 23.663,378.420 23.896,379.054 23.896 L 379.913 23.896 379.913 56.547 L 379.913 89.199 378.874 89.591 C 378.177 89.854,377.835 90.221,377.835 90.706 C 377.835 91.246,377.617 91.429,376.970 91.429 C 376.289 91.429,376.104 91.604,376.104 92.253 C 376.104 92.941,375.847 93.143,374.556 93.468 C 373.652 93.695,372.856 94.144,372.640 94.548 C 372.275 95.228,371.887 95.238,345.354 95.238 L 318.437 95.238 317.978 96.277 C 317.572 97.192,317.345 97.316,316.070 97.316 C 314.902 97.316,314.557 97.466,314.281 98.095 C 314.082 98.550,313.579 98.915,313.074 98.971 C 311.011 99.202,310.649 99.396,310.649 100.266 C 310.649 101.035,310.506 101.126,309.289 101.126 C 308.022 101.126,306.840 101.795,306.840 102.513 C 306.840 102.677,306.411 102.860,305.887 102.921 C 305.139 103.007,304.912 103.235,304.825 103.983 C 304.724 104.863,304.599 104.935,303.173 104.935 C 301.880 104.935,301.569 105.070,301.251 105.768 C 300.964 106.397,300.497 106.656,299.335 106.831 C 298.167 107.006,297.707 107.263,297.415 107.903 C 297.169 108.442,296.743 108.745,296.228 108.745 C 295.661 108.745,295.361 108.998,295.209 109.603 C 295.028 110.324,294.725 110.497,293.325 110.683 C 291.946 110.866,291.620 111.048,291.449 111.729 C 291.278 112.412,291.020 112.555,289.950 112.559 C 288.410 112.566,287.966 112.815,287.642 113.853 C 287.478 114.381,287.127 114.632,286.557 114.632 C 285.889 114.632,285.714 114.812,285.714 115.498 C 285.714 116.301,285.595 116.364,284.048 116.364 C 282.606 116.364,282.280 116.501,281.630 117.380 C 281.116 118.075,280.520 118.431,279.746 118.506 C 278.968 118.581,278.508 118.858,278.273 119.394 C 278.061 119.876,277.628 120.173,277.136 120.173 C 276.698 120.173,276.239 120.445,276.112 120.779 C 275.403 122.654,273.662 122.856,273.874 121.039 C 273.958 120.315,274.205 119.827,274.488 119.827 C 275.219 119.827,276.017 117.951,276.017 116.232 C 276.017 114.886,276.121 114.666,276.797 114.570 C 277.388 114.486,277.601 114.196,277.682 113.369 C 277.753 112.637,278.008 112.221,278.457 112.103 C 279.322 111.877,279.827 110.513,279.827 108.400 C 279.827 106.916,279.920 106.702,280.606 106.604 C 281.907 106.419,281.999 99.518,280.705 99.193 C 280.105 99.042,279.827 98.736,279.827 98.226 C 279.827 97.785,279.509 97.341,279.048 97.138 C 278.619 96.950,278.115 96.446,277.927 96.017 C 277.585 95.240,277.567 95.238,269.091 95.238 C 260.615 95.238,260.596 95.236,260.255 94.459 C 259.990 93.855,259.578 93.655,258.425 93.572 C 257.213 93.485,256.877 93.307,256.613 92.614 C 256.435 92.146,255.897 91.613,255.417 91.431 C 254.882 91.227,254.545 90.829,254.545 90.398 C 254.545 89.881,254.318 89.697,253.680 89.697 C 252.903 89.697,252.814 89.557,252.814 88.340 C 252.814 86.536,252.529 85.887,251.738 85.887 C 250.659 85.887,250.717 28.033,251.797 27.315 C 252.257 27.009,252.581 26.316,252.708 25.368 C 252.861 24.224,253.051 23.896,253.561 23.896 C 254.302 23.896,254.892 22.658,254.892 21.103 C 254.892 20.115,254.939 20.087,256.617 20.087 C 258.168 20.087,258.364 19.999,258.559 19.221 L 258.776 18.355 316.377 18.355 L 373.978 18.355 374.088 19.134 M272.759 32.726 C 272.317 33.203,271.732 33.593,271.458 33.593 C 270.283 33.593,270.130 34.356,270.130 40.214 C 270.130 46.607,270.213 47.100,271.297 47.100 C 271.739 47.100,272.183 47.417,272.385 47.878 C 272.924 49.105,272.590 49.096,316.537 49.096 C 360.475 49.096,360.282 49.101,360.454 47.898 C 360.530 47.369,360.843 47.109,361.493 47.034 C 362.153 46.958,362.456 46.700,362.535 46.148 C 362.604 45.659,362.963 45.290,363.497 45.155 L 364.349 44.942 364.252 40.393 C 364.160 36.047,364.123 35.839,363.416 35.739 C 362.912 35.667,362.611 35.308,362.472 34.613 C 362.318 33.841,362.076 33.593,361.476 33.593 C 360.987 33.593,360.553 33.295,360.342 32.814 L 360.000 32.035 316.781 31.947 L 273.563 31.859 272.759 32.726 M275.254 62.920 C 274.930 63.005,274.569 63.376,274.452 63.745 C 274.286 64.266,273.916 64.417,272.791 64.421 C 270.264 64.430,270.303 64.320,270.303 71.415 L 270.303 77.749 271.255 77.859 C 271.988 77.943,272.208 78.153,272.208 78.768 C 272.208 79.986,272.497 80.000,296.797 80.000 C 321.283 80.000,321.186 80.005,321.906 78.612 C 322.176 78.091,322.691 77.587,323.050 77.493 C 323.915 77.267,324.156 75.922,324.156 71.327 C 324.156 66.990,324.028 66.494,322.907 66.494 C 322.217 66.494,322.078 66.320,322.078 65.455 C 322.078 64.498,321.982 64.416,320.866 64.416 C 320.010 64.416,319.654 64.260,319.654 63.888 C 319.654 63.597,319.254 63.207,318.765 63.022 C 317.893 62.690,276.496 62.593,275.254 62.920 M330.043 198.095 L 330.043 285.714 309.784 285.714 L 289.524 285.714 289.504 275.931 C 289.481 264.850,289.350 263.532,288.222 263.035 C 287.556 262.741,287.446 262.427,287.446 260.823 C 287.446 259.274,287.298 258.816,286.580 258.151 C 286.037 257.648,285.714 256.972,285.714 256.337 C 285.714 254.138,285.328 253.160,284.459 253.160 C 283.792 253.160,283.636 252.980,283.636 252.206 C 283.636 251.478,283.389 251.142,282.597 250.791 C 281.734 250.409,281.558 250.131,281.558 249.141 C 281.558 248.217,281.370 247.865,280.719 247.568 C 280.258 247.358,279.787 246.816,279.674 246.363 C 279.528 245.782,279.222 245.541,278.631 245.541 C 277.976 245.541,277.771 245.334,277.685 244.589 C 277.606 243.899,277.355 243.605,276.778 243.523 C 276.323 243.459,275.847 243.059,275.670 242.595 C 275.431 241.966,275.003 241.726,273.803 241.546 C 272.566 241.360,272.225 241.160,272.141 240.570 C 272.061 240.012,271.753 239.800,270.909 239.718 C 270.265 239.656,269.784 239.415,269.784 239.155 C 269.784 238.233,268.612 237.766,265.847 237.586 C 263.362 237.424,262.991 237.312,262.693 236.635 C 262.382 235.926,262.090 235.859,258.888 235.769 C 255.485 235.673,255.410 235.653,254.963 234.719 C 254.522 233.796,254.419 233.766,251.725 233.766 C 249.270 233.766,248.869 233.676,248.321 233.000 C 247.650 232.170,244.940 231.764,239.740 231.713 C 237.777 231.694,237.229 231.578,237.229 231.181 C 237.229 230.299,235.984 229.957,232.774 229.957 C 229.809 229.957,229.653 229.919,229.548 229.180 C 229.456 228.532,229.133 228.354,227.619 228.114 L 225.801 227.826 225.801 225.082 C 225.801 222.642,225.872 222.338,226.442 222.338 C 227.643 222.338,229.235 221.589,229.446 220.924 C 229.562 220.560,230.022 220.170,230.469 220.057 C 230.936 219.940,231.369 219.508,231.486 219.042 C 231.609 218.552,231.993 218.186,232.454 218.119 C 232.937 218.049,233.293 217.690,233.420 217.143 C 233.547 216.596,233.903 216.236,234.386 216.166 C 234.879 216.095,235.233 215.727,235.383 215.128 C 235.511 214.618,236.057 213.760,236.596 213.221 C 237.135 212.682,237.576 211.863,237.576 211.402 C 237.576 210.738,237.756 210.563,238.442 210.563 C 239.259 210.563,239.307 210.457,239.307 208.681 C 239.307 206.886,239.351 206.794,240.260 206.690 C 241.142 206.588,241.220 206.452,241.314 204.837 C 241.397 203.427,241.562 203.031,242.180 202.759 C 242.890 202.448,242.951 202.160,243.042 198.701 C 243.133 195.248,243.190 194.978,243.830 194.978 C 244.247 194.978,244.649 194.636,244.848 194.113 C 245.052 193.578,245.449 193.247,245.887 193.247 C 246.320 193.247,246.722 192.919,246.916 192.407 C 247.101 191.921,247.571 191.521,248.033 191.455 C 248.611 191.373,248.861 191.079,248.941 190.390 C 249.027 189.644,249.232 189.437,249.887 189.437 C 250.732 189.437,250.929 189.061,251.158 187.013 C 251.215 186.508,251.580 186.005,252.035 185.805 C 252.707 185.510,252.814 185.202,252.814 183.550 C 252.814 181.900,252.921 181.589,253.590 181.294 C 254.782 180.769,254.850 179.662,254.872 160.569 C 254.890 144.656,254.945 142.976,255.440 143.166 C 255.741 143.282,256.587 143.377,257.320 143.377 C 258.439 143.377,258.671 143.502,258.764 144.156 C 258.948 145.455,268.000 145.538,269.286 144.252 C 269.767 143.771,270.534 143.377,270.989 143.377 C 272.297 143.377,273.514 142.785,273.753 142.033 C 273.887 141.612,274.338 141.299,274.908 141.234 C 275.574 141.157,275.876 140.900,275.955 140.346 C 276.050 139.678,276.275 139.567,277.531 139.567 C 279.104 139.567,279.827 139.109,279.827 138.113 C 279.827 137.618,280.108 137.489,281.187 137.489 C 282.454 137.489,283.636 136.820,283.636 136.102 C 283.636 135.938,284.065 135.754,284.589 135.694 C 285.337 135.608,285.565 135.380,285.651 134.632 C 285.754 133.737,285.863 133.680,287.462 133.680 C 288.974 133.680,289.188 133.586,289.374 132.842 C 289.549 132.147,289.870 131.965,291.255 131.775 C 292.593 131.591,292.965 131.392,293.119 130.776 C 293.262 130.209,293.700 129.922,294.795 129.679 C 295.809 129.454,296.385 129.105,296.619 128.571 C 296.855 128.034,297.258 127.792,297.918 127.792 C 298.502 127.792,298.874 127.606,298.874 127.312 C 298.874 126.804,300.854 125.714,301.777 125.714 C 302.078 125.714,302.422 125.325,302.542 124.848 C 302.726 124.114,302.960 123.983,304.082 123.983 C 305.312 123.983,306.494 123.303,306.494 122.596 C 306.494 122.431,306.922 122.248,307.446 122.188 C 308.189 122.102,308.422 121.872,308.506 121.144 C 308.604 120.295,308.762 120.200,310.238 120.105 C 311.495 120.024,311.933 119.836,312.180 119.274 C 312.411 118.750,312.988 118.461,314.258 118.235 C 315.703 117.978,316.037 117.783,316.128 117.143 C 316.214 116.537,316.465 116.364,317.254 116.364 C 318.105 116.364,318.268 116.224,318.268 115.498 C 318.268 114.736,318.417 114.632,319.503 114.632 C 321.089 114.632,322.078 114.096,322.078 113.235 C 322.078 112.685,322.316 112.554,323.313 112.554 C 324.899 112.554,325.887 112.018,325.887 111.157 C 325.887 110.556,326.131 110.476,327.965 110.476 L 330.043 110.476 330.043 198.095 M206.753 124.606 C 206.753 125.602,207.477 126.061,209.050 126.061 C 210.305 126.061,210.530 126.172,210.625 126.840 C 210.715 127.472,210.991 127.640,212.083 127.729 C 213.479 127.844,214.075 128.227,214.467 129.264 C 214.616 129.658,215.065 129.870,215.747 129.870 C 216.464 129.870,216.797 130.040,216.797 130.407 C 216.797 131.258,218.976 131.948,221.665 131.948 C 223.783 131.948,224.218 132.055,224.744 132.705 C 225.274 133.359,225.789 133.482,228.548 133.614 C 231.521 133.756,231.760 133.823,232.051 134.589 C 232.233 135.068,232.647 135.411,233.042 135.411 C 233.416 135.411,233.818 135.722,233.940 136.104 C 234.060 136.485,234.440 136.947,234.783 137.131 C 235.126 137.314,235.494 137.899,235.601 138.429 C 235.714 138.988,236.134 139.540,236.600 139.740 C 237.386 140.079,237.405 140.204,237.497 145.656 L 237.592 151.224 236.545 151.071 C 235.715 150.949,235.498 150.746,235.498 150.091 C 235.498 149.407,235.322 149.264,234.482 149.264 C 233.631 149.264,233.448 149.109,233.356 148.312 C 233.256 147.442,233.096 147.344,231.515 147.186 C 230.084 147.043,229.765 146.886,229.679 146.281 C 229.423 144.488,212.641 144.573,212.641 146.367 C 212.641 147.129,212.508 147.186,210.736 147.186 C 208.850 147.186,208.831 147.197,208.831 148.225 C 208.831 149.251,208.808 149.264,206.964 149.264 C 205.261 149.264,205.078 149.340,204.879 150.130 C 204.684 150.907,204.487 150.996,202.956 150.996 C 201.436 150.996,201.200 151.099,200.795 151.948 C 200.384 152.810,200.127 152.917,198.093 153.074 C 196.196 153.220,195.792 153.366,195.509 154.010 C 195.238 154.629,194.841 154.794,193.431 154.876 C 191.817 154.971,191.680 155.049,191.579 155.931 L 191.469 156.883 186.794 156.883 C 182.181 156.883,180.931 157.127,180.329 158.146 C 179.792 159.055,170.249 158.797,169.624 157.856 C 169.209 157.231,168.708 157.070,166.805 156.949 L 164.490 156.802 164.583 148.444 C 164.674 140.203,164.686 140.082,165.439 139.752 C 166.037 139.489,166.224 139.077,166.304 137.850 C 166.391 136.530,166.557 136.211,167.359 135.828 C 168.015 135.515,168.312 135.109,168.312 134.527 C 168.312 133.854,168.490 133.680,169.177 133.680 C 169.858 133.680,170.043 133.504,170.043 132.857 C 170.043 132.220,170.278 131.988,171.082 131.827 C 171.907 131.662,172.121 131.439,172.121 130.745 C 172.121 130.023,172.287 129.869,173.074 129.865 C 174.736 129.857,175.585 129.468,175.799 128.617 C 175.941 128.050,176.253 127.792,176.794 127.792 C 177.253 127.792,177.820 127.430,178.150 126.926 C 178.647 126.168,178.966 126.061,180.718 126.061 C 182.793 126.061,183.550 125.672,183.550 124.606 C 183.550 124.018,184.210 123.983,195.152 123.983 C 206.093 123.983,206.753 124.018,206.753 124.606 M222.338 161.558 C 222.338 162.249,222.511 162.424,223.197 162.424 C 223.816 162.424,224.115 162.657,224.266 163.260 C 224.387 163.742,224.812 164.180,225.270 164.295 C 225.707 164.405,226.149 164.820,226.253 165.217 C 226.357 165.614,226.735 166.015,227.093 166.109 C 227.451 166.203,227.917 166.737,228.128 167.296 C 228.373 167.946,228.757 168.312,229.194 168.312 C 229.570 168.312,230.131 168.700,230.442 169.174 C 230.825 169.758,231.453 170.108,232.387 170.258 C 233.197 170.387,233.766 170.669,233.766 170.941 C 233.766 171.601,234.902 172.121,236.341 172.121 L 237.576 172.121 237.576 175.047 L 237.576 177.972 235.758 178.077 C 234.191 178.167,233.924 178.287,233.832 178.938 C 233.759 179.448,233.401 179.765,232.731 179.913 C 231.135 180.263,229.957 181.688,229.957 183.267 C 229.957 184.316,229.741 184.807,229.004 185.440 C 228.064 186.249,228.051 186.317,227.937 191.024 C 227.828 195.586,227.787 195.816,226.985 196.447 C 226.516 196.816,226.147 197.471,226.147 197.935 C 226.147 198.442,225.845 198.923,225.368 199.174 C 224.292 199.740,224.081 200.145,224.075 201.645 C 224.070 202.801,223.973 202.944,223.195 202.944 C 222.572 202.944,222.222 203.203,221.979 203.843 C 221.791 204.338,221.327 204.823,220.948 204.922 C 220.504 205.039,220.260 205.395,220.260 205.928 C 220.260 206.529,220.067 206.753,219.550 206.753 C 218.314 206.753,216.890 207.720,216.636 208.731 C 216.277 210.161,215.859 210.505,214.171 210.758 C 212.853 210.956,212.641 211.102,212.641 211.814 C 212.641 212.545,212.483 212.641,211.284 212.641 C 209.494 212.641,208.831 212.925,208.831 213.692 C 208.831 214.196,208.452 214.370,206.941 214.559 C 205.484 214.741,204.927 214.984,204.509 215.622 C 203.663 216.914,197.056 216.911,197.056 215.618 C 197.056 214.859,196.875 214.766,194.957 214.543 C 193.452 214.368,192.604 214.064,191.963 213.470 C 191.470 213.014,190.641 212.641,190.120 212.641 C 189.467 212.641,189.116 212.428,188.993 211.956 C 188.872 211.494,188.301 211.134,187.236 210.849 C 186.081 210.540,185.631 210.236,185.556 209.716 C 185.487 209.229,185.153 208.970,184.502 208.895 C 183.756 208.809,183.550 208.604,183.550 207.949 C 183.550 207.345,183.308 207.052,182.681 206.895 C 182.154 206.763,181.730 206.351,181.604 205.849 C 181.460 205.273,181.152 205.022,180.592 205.022 C 179.971 205.022,179.761 204.804,179.677 204.069 C 179.598 203.387,179.346 203.085,178.788 203.006 C 178.320 202.940,178.009 202.654,178.009 202.292 C 178.009 201.960,177.562 201.358,177.016 200.955 C 176.201 200.352,175.992 199.896,175.849 198.401 C 175.724 197.105,175.461 196.409,174.936 195.984 C 174.453 195.593,174.198 194.988,174.194 194.230 C 174.186 192.252,173.850 191.515,172.956 191.515 C 172.144 191.515,172.140 191.496,172.044 186.753 L 171.948 181.991 170.996 181.882 C 170.250 181.796,170.043 181.591,170.043 180.936 C 170.043 180.327,169.802 180.039,169.152 179.876 C 168.662 179.753,168.121 179.283,167.949 178.831 C 167.683 178.133,167.400 178.009,166.069 178.009 L 164.502 178.009 164.502 176.104 L 164.502 174.199 177.056 174.194 C 190.630 174.189,191.077 174.153,191.236 173.038 C 191.333 172.356,191.578 172.286,194.176 172.194 C 196.661 172.106,197.109 171.990,197.812 171.248 C 198.458 170.566,198.986 170.392,200.519 170.355 C 203.489 170.281,204.486 169.977,204.611 169.106 C 204.704 168.452,204.969 168.332,206.515 168.242 C 208.048 168.154,208.327 168.030,208.417 167.397 C 208.506 166.778,208.836 166.616,210.409 166.420 C 212.110 166.207,212.294 166.102,212.294 165.343 C 212.294 164.563,212.422 164.502,214.056 164.502 C 215.695 164.502,215.845 164.430,216.210 163.463 C 216.519 162.644,216.811 162.424,217.588 162.424 C 218.836 162.424,219.913 161.857,219.913 161.200 C 219.913 160.851,220.292 160.693,221.126 160.693 C 222.188 160.693,222.338 160.800,222.338 161.558 M200.202 231.688 L 210.563 231.688 210.563 235.671 L 210.563 239.654 209.697 239.654 C 208.966 239.654,208.831 239.815,208.831 240.693 C 208.831 241.516,208.681 241.732,208.106 241.732 C 207.663 241.732,207.308 242.012,207.193 242.451 C 207.090 242.846,206.621 243.316,206.153 243.494 C 205.684 243.672,205.225 244.108,205.132 244.462 C 205.010 244.929,204.471 245.191,203.175 245.411 C 201.694 245.662,201.366 245.849,201.275 246.494 C 201.108 247.669,199.231 247.605,198.932 246.414 C 198.751 245.694,198.448 245.520,197.048 245.334 C 195.669 245.151,195.343 244.970,195.172 244.288 C 195.026 243.704,194.721 243.463,194.129 243.463 C 193.474 243.463,193.269 243.257,193.183 242.511 C 193.105 241.829,192.852 241.527,192.294 241.448 C 191.693 241.362,191.515 241.110,191.515 240.345 C 191.515 238.767,190.923 237.576,190.138 237.576 C 189.480 237.576,189.439 237.368,189.465 234.199 C 189.480 232.342,189.571 231.017,189.667 231.255 C 189.801 231.588,192.237 231.688,200.202 231.688 M175.931 246.552 C 175.931 248.431,176.218 249.004,177.162 249.004 C 177.896 249.004,177.982 249.177,178.077 250.823 C 178.167 252.376,178.290 252.656,178.922 252.746 C 179.426 252.818,179.726 253.176,179.865 253.872 C 180.026 254.678,180.253 254.892,180.944 254.892 C 181.638 254.892,181.818 255.065,181.818 255.730 C 181.818 256.376,182.052 256.620,182.836 256.792 C 183.530 256.944,183.888 257.256,183.962 257.772 C 184.054 258.423,184.321 258.543,185.887 258.633 C 187.533 258.728,187.706 258.814,187.706 259.548 C 187.706 260.486,188.279 260.779,190.116 260.779 C 191.095 260.779,191.563 260.978,191.948 261.558 C 192.455 262.324,192.607 262.340,200.475 262.442 L 208.485 262.547 208.485 261.663 C 208.485 260.824,208.580 260.779,210.371 260.779 C 212.087 260.779,212.297 260.694,212.711 259.827 C 213.083 259.048,213.450 258.843,214.721 258.701 C 215.993 258.560,216.297 258.390,216.385 257.770 C 216.452 257.298,216.779 256.972,217.251 256.904 C 217.786 256.828,218.041 256.517,218.118 255.844 C 218.210 255.047,218.393 254.892,219.244 254.892 C 220.089 254.892,220.260 254.750,220.260 254.050 C 220.260 253.441,220.475 253.178,221.039 253.098 C 221.622 253.015,221.844 252.723,221.921 251.937 C 221.989 251.248,222.287 250.771,222.787 250.551 C 223.298 250.327,223.656 249.738,223.871 248.767 C 224.113 247.678,224.393 247.266,224.997 247.115 C 225.568 246.972,225.801 246.664,225.801 246.054 C 225.801 244.660,228.598 244.790,229.665 246.234 C 230.431 247.269,230.444 247.273,233.949 247.273 C 237.363 247.273,237.476 247.298,237.859 248.139 C 238.253 249.003,238.259 249.004,243.208 249.004 L 248.162 249.004 248.776 250.043 C 249.380 251.066,249.436 251.082,252.277 251.082 C 254.561 251.082,255.207 251.194,255.369 251.617 C 255.651 252.352,257.711 253.160,259.301 253.160 C 260.331 253.160,260.689 253.328,260.957 253.939 C 261.231 254.564,261.626 254.740,262.944 254.824 C 264.425 254.919,264.589 255.013,264.589 255.770 C 264.589 256.372,264.828 256.670,265.435 256.823 C 265.950 256.952,266.322 257.327,266.387 257.781 C 266.461 258.300,266.778 258.561,267.425 258.636 C 268.145 258.719,268.381 258.955,268.464 259.675 C 268.540 260.335,268.798 260.638,269.351 260.717 C 270.018 260.812,270.130 261.037,270.130 262.292 C 270.130 263.858,270.588 264.589,271.570 264.589 C 272.090 264.589,272.193 264.981,272.280 267.273 C 272.373 269.757,272.439 269.965,273.160 270.067 L 273.939 270.178 273.939 277.946 L 273.939 285.714 200.000 285.714 L 126.061 285.714 126.061 282.853 C 126.061 280.217,126.122 279.964,126.840 279.649 C 127.603 279.314,127.621 279.173,127.713 272.814 L 127.807 266.320 128.629 266.320 C 129.572 266.320,129.870 265.750,129.870 263.950 C 129.870 262.960,130.044 262.599,130.649 262.333 C 131.274 262.059,131.450 261.664,131.534 260.346 C 131.635 258.780,131.689 258.701,132.660 258.701 C 133.517 258.701,133.680 258.563,133.680 257.835 C 133.680 257.143,133.853 256.970,134.545 256.970 C 135.022 256.970,135.411 256.787,135.411 256.564 C 135.411 255.693,136.572 254.892,137.834 254.892 C 138.859 254.892,139.187 254.721,139.504 254.026 C 139.831 253.309,140.153 253.154,141.378 253.126 C 143.543 253.075,144.545 252.715,144.931 251.850 C 145.248 251.138,145.502 251.082,148.452 251.082 C 152.211 251.082,152.727 250.931,152.727 249.833 L 152.727 249.004 157.494 249.004 C 162.104 249.004,162.271 248.979,162.602 248.225 C 162.920 247.499,163.215 247.433,166.926 247.263 C 171.210 247.067,171.775 246.904,171.775 245.867 C 171.775 245.276,172.027 245.195,173.853 245.195 L 175.931 245.195 175.931 246.552 M137.494 302.944 C 137.500 305.652,137.770 306.464,138.743 306.708 C 139.484 306.894,139.567 307.104,139.567 308.782 C 139.567 310.504,139.630 310.649,140.370 310.649 C 141.066 310.649,141.215 310.890,141.495 312.468 C 141.762 313.970,141.953 314.305,142.597 314.396 C 143.102 314.468,143.377 314.746,143.377 315.183 C 143.377 315.562,143.745 316.027,144.216 316.241 C 144.677 316.452,145.148 316.994,145.261 317.446 C 145.406 318.023,145.713 318.268,146.289 318.268 C 146.866 318.268,147.173 318.514,147.318 319.093 C 147.537 319.965,148.381 320.334,150.176 320.342 C 150.965 320.345,151.310 320.534,151.441 321.035 C 151.685 321.968,153.046 322.424,155.585 322.424 C 157.306 322.424,157.860 322.571,158.534 323.203 L 159.363 323.983 198.556 324.086 C 239.715 324.194,240.663 324.172,240.946 323.090 C 241.099 322.504,241.448 322.424,243.867 322.424 C 246.761 322.424,248.658 321.804,248.658 320.857 C 248.658 320.513,249.025 320.345,249.784 320.342 C 251.619 320.334,252.462 319.971,252.682 319.093 C 252.827 318.514,253.134 318.268,253.711 318.268 C 254.290 318.268,254.594 318.022,254.742 317.433 C 254.867 316.935,255.290 316.512,255.788 316.387 C 256.390 316.236,256.623 315.938,256.623 315.318 C 256.623 314.630,256.798 314.459,257.498 314.459 C 258.192 314.459,258.415 314.245,258.580 313.420 C 258.694 312.848,258.997 312.381,259.252 312.381 C 260.016 312.381,260.433 311.166,260.433 308.941 C 260.433 307.149,260.525 306.840,261.056 306.840 C 262.187 306.840,262.511 306.092,262.511 303.481 L 262.511 300.952 323.079 300.952 L 383.648 300.952 383.855 301.777 C 383.969 302.230,384.375 302.683,384.758 302.783 C 385.640 303.014,385.848 310.729,384.986 311.238 C 384.320 311.631,383.723 312.881,383.723 313.880 C 383.723 314.349,383.266 315.222,382.706 315.820 C 382.147 316.419,381.641 317.253,381.581 317.675 C 381.511 318.163,381.189 318.482,380.693 318.552 C 380.129 318.632,379.913 318.895,379.913 319.505 C 379.913 320.174,379.734 320.346,379.039 320.346 C 378.344 320.346,378.122 320.560,377.957 321.385 C 377.796 322.190,377.563 322.424,376.926 322.424 C 376.280 322.424,376.104 322.610,376.104 323.290 C 376.104 323.978,375.930 324.156,375.254 324.156 C 374.037 324.156,372.687 324.848,372.451 325.594 C 372.328 325.981,371.921 326.234,371.422 326.234 C 370.279 326.234,368.831 326.942,368.831 327.501 C 368.831 327.888,340.901 327.965,200.315 327.965 L 31.799 327.965 31.221 327.251 C 30.875 326.824,30.061 326.459,29.201 326.343 C 28.059 326.190,27.717 325.981,27.556 325.337 C 27.387 324.665,27.054 324.485,25.624 324.296 C 24.101 324.094,23.896 323.969,23.896 323.245 C 23.896 322.606,23.709 322.424,23.053 322.424 C 22.391 322.424,22.187 322.220,22.101 321.472 C 22.015 320.724,21.787 320.496,21.039 320.410 C 20.299 320.325,20.087 320.117,20.087 319.482 C 20.087 318.902,19.864 318.631,19.324 318.552 C 18.717 318.464,18.489 318.091,18.198 316.710 C 17.904 315.314,17.682 314.957,17.055 314.868 C 16.458 314.783,16.277 314.529,16.277 313.778 C 16.277 313.186,15.937 312.478,15.417 311.984 C 14.205 310.834,14.057 303.093,15.242 302.783 C 15.625 302.683,16.031 302.230,16.145 301.777 L 16.352 300.952 76.921 300.952 L 137.489 300.952 137.494 302.944 M245.195 301.967 C 245.195 302.756,245.021 303.007,244.416 303.093 C 243.858 303.172,243.605 303.474,243.527 304.156 C 243.435 304.953,243.252 305.108,242.401 305.108 C 241.548 305.108,241.385 305.247,241.385 305.975 L 241.385 306.843 200.260 306.755 L 159.134 306.667 158.792 305.887 C 158.559 305.357,158.153 305.108,157.517 305.108 C 156.755 305.108,156.563 304.932,156.473 304.156 C 156.395 303.474,156.142 303.172,155.584 303.093 C 154.979 303.007,154.805 302.756,154.805 301.967 L 154.805 300.952 200.000 300.952 L 245.195 300.952 245.195 301.967 " stroke="none" fill="#04cc6c" fill-rule="evenodd"></path><path id="path1" d="" stroke="none" fill="#08cc6c" fill-rule="evenodd"></path><path id="path2" d="" stroke="none" fill="#08cc6c" fill-rule="evenodd"></path><path id="path3" d="" stroke="none" fill="#08cc6c" fill-rule="evenodd"></path><path id="path4" d="" stroke="none" fill="#08cc6c" fill-rule="evenodd"></path></g></svg>