<svg width="24" height="25" viewBox="0 0 24 25" fill="none" xmlns="http://www.w3.org/2000/svg">
<path d="M12 0.640625C9.62663 0.640625 7.30655 1.34441 5.33316 2.66299C3.35977 3.98157 1.8217 5.85571 0.913451 8.04842C0.00519943 10.2411 -0.232441 12.6539 0.230582 14.9817C0.693605 17.3095 1.83649 19.4477 3.51472 21.1259C5.19295 22.8041 7.33115 23.947 9.65892 24.41C11.9867 24.8731 14.3995 24.6354 16.5922 23.7272C18.7849 22.8189 20.6591 21.2809 21.9776 19.3075C23.2962 17.3341 24 15.014 24 12.6406C24 9.45803 22.7357 6.40578 20.4853 4.15534C18.2348 1.90491 15.1826 0.640625 12 0.640625ZM10.51 6.64062C10.51 6.2428 10.668 5.86127 10.9493 5.57996C11.2306 5.29866 11.6122 5.14062 12.01 5.14062C12.4078 5.14062 12.7894 5.29866 13.0707 5.57996C13.352 5.86127 13.51 6.2428 13.51 6.64062V13.5306C13.51 13.7276 13.4712 13.9227 13.3958 14.1047C13.3204 14.2866 13.21 14.452 13.0707 14.5913C12.9314 14.7306 12.766 14.8411 12.584 14.9164C12.402 14.9918 12.207 15.0306 12.01 15.0306C11.813 15.0306 11.618 14.9918 11.436 14.9164C11.254 14.8411 11.0886 14.7306 10.9493 14.5913C10.8101 14.452 10.6996 14.2866 10.6242 14.1047C10.5488 13.9227 10.51 13.7276 10.51 13.5306V6.64062ZM12 20.1406C11.6598 20.1406 11.3273 20.0397 11.0444 19.8508C10.7616 19.6618 10.5411 19.3931 10.4109 19.0788C10.2808 18.7646 10.2467 18.4187 10.3131 18.0851C10.3794 17.7514 10.5432 17.4449 10.7838 17.2044C11.0243 16.9639 11.3308 16.8 11.6644 16.7337C11.9981 16.6673 12.3439 16.7014 12.6582 16.8316C12.9725 16.9617 13.2411 17.1822 13.4301 17.465C13.6191 17.7479 13.72 18.0804 13.72 18.4206C13.72 18.8768 13.5388 19.3143 13.2162 19.6368C12.8937 19.9594 12.4562 20.1406 12 20.1406Z" fill="#419FD9"/>
</svg>
