<svg width="38" height="30" viewBox="0 0 38 30" fill="none" xmlns="http://www.w3.org/2000/svg">
<path d="M37.9578 26.9082L37.7272 26.0558L37.4245 24.9369C38.1616 19.7633 38.1616 14.5189 37.4245 9.34531L37.9577 7.37392C38.0725 6.94976 37.9538 6.51113 37.6404 6.20064C37.3269 5.89007 36.8841 5.77264 36.4559 5.88623L34.4891 6.40827C31.1957 5.66104 27.8596 5.66104 24.5663 6.40827L22.5995 5.88623C22.1713 5.7726 21.7285 5.89011 21.4149 6.2006C21.1015 6.51113 20.9829 6.94972 21.0976 7.37384L21.6309 9.34526C20.8938 14.5189 20.8938 19.7632 21.6309 24.9368L21.0976 26.9082C20.9829 27.3324 21.1015 27.771 21.4149 28.0815C21.7284 28.392 22.1712 28.5095 22.5994 28.3959L24.5662 27.8738C27.8596 28.621 31.1957 28.621 34.4891 27.8738L36.4559 28.3959C36.5633 28.4244 36.6718 28.4383 36.7788 28.4383C37.0982 28.4383 37.4055 28.314 37.6403 28.0815C37.9538 27.771 38.0725 27.3324 37.9578 26.9082ZM36.0982 25.1488L36.4363 26.3984L36.6174 27.0683L34.6733 26.5523C34.5665 26.5238 34.4542 26.5222 34.3464 26.5475C31.149 27.2976 27.9064 27.2976 24.7089 26.5475C24.6582 26.5356 24.6065 26.5297 24.5549 26.5297C24.4967 26.5297 24.4385 26.5372 24.3819 26.5523L22.4378 27.0683L22.9571 25.1488C22.9804 25.0623 22.9858 24.972 22.973 24.8834C22.2282 19.746 22.2282 14.5362 22.973 9.39875C22.9858 9.31014 22.9804 9.21981 22.9571 9.13332L22.4379 7.21392L24.382 7.72991C24.4888 7.75828 24.6011 7.75991 24.7089 7.73463C27.9064 6.98458 31.149 6.98458 34.3465 7.73463C34.4542 7.75991 34.5665 7.75828 34.6734 7.72991L36.6175 7.21392L36.0983 9.13336C36.0749 9.21985 36.0694 9.31014 36.0823 9.39879C36.8272 14.5362 36.8272 19.746 36.0823 24.8834C36.0694 24.972 36.0748 25.0623 36.0982 25.1488Z" fill="#00CD69"/>
<path d="M16.9031 26.9082L16.6725 26.0558L16.3698 24.9369C17.1069 19.7633 17.1069 14.5189 16.3698 9.34531L16.903 7.37392C17.0178 6.94976 16.8991 6.51113 16.5857 6.20064C16.2722 5.89007 15.8294 5.77264 15.4012 5.88623L13.4344 6.40827C10.1411 5.66104 6.80493 5.66104 3.51158 6.40827L1.54478 5.88623C1.11663 5.7726 0.673775 5.89011 0.360245 6.2006C0.0468048 6.51113 -0.0718269 6.94972 0.0428845 7.37384L0.57617 9.34526C-0.160923 14.5189 -0.160923 19.7632 0.57617 24.9368L0.042929 26.9082C-0.071827 27.3324 0.0468048 27.771 0.360245 28.0815C0.673731 28.392 1.11649 28.5095 1.54474 28.3959L3.51154 27.8738C6.80489 28.621 10.141 28.621 13.4344 27.8738L15.4012 28.3959C15.5087 28.4244 15.6171 28.4383 15.7241 28.4383C16.0435 28.4383 16.3508 28.314 16.5857 28.0815C16.8991 27.771 17.0178 27.3324 16.9031 26.9082ZM15.0435 25.1488L15.3816 26.3984L15.5627 27.0683L13.6187 26.5523C13.5118 26.5238 13.3995 26.5222 13.2917 26.5475C10.0943 27.2976 6.85167 27.2976 3.65418 26.5475C3.60348 26.5356 3.55181 26.5297 3.50018 26.5297C3.442 26.5297 3.38386 26.5372 3.32724 26.5523L1.38316 27.0683L1.90237 25.1488C1.92571 25.0623 1.93115 24.972 1.91832 24.8834C1.17347 19.746 1.17347 14.5362 1.91832 9.39875C1.93115 9.31014 1.92571 9.21981 1.90237 9.13332L1.3832 7.21392L3.32729 7.72991C3.43407 7.75828 3.54642 7.75991 3.65422 7.73463C6.85167 6.98458 10.0943 6.98458 13.2918 7.73463C13.3995 7.75991 13.5118 7.75828 13.6187 7.72991L15.5628 7.21392L15.0436 9.13336C15.0202 9.21985 15.0148 9.31014 15.0276 9.39879C15.7725 14.5362 15.7725 19.746 15.0276 24.8834C15.0147 24.972 15.0201 25.0623 15.0435 25.1488Z" fill="#00CD69"/>
<path d="M28.2423 1.99219H9.75586V28.1814H28.4991L28.2423 1.99219Z" fill="white"/>
<path d="M30.0068 27.9621L29.7057 26.8384L29.3104 25.3634C30.2729 18.5437 30.2729 11.6307 29.3104 4.81099L30.0067 2.21236C30.1565 1.65324 30.0016 1.07504 29.5924 0.665762C29.183 0.25637 28.6048 0.101582 28.0457 0.251309L25.4776 0.939446C21.1773 -0.0455265 16.8211 -0.0455265 12.5208 0.939446L9.95265 0.251309C9.39359 0.101524 8.81533 0.256428 8.40594 0.665704C7.99666 1.07504 7.84176 1.65318 7.99154 2.21224L8.68788 4.81093C7.72542 11.6306 7.72542 18.5437 8.68788 25.3634L7.9916 27.962C7.84176 28.5211 7.99666 29.0993 8.40594 29.5086C8.81527 29.9179 9.39341 30.0728 9.95259 29.923L12.5207 29.2349C16.8211 30.2198 21.1772 30.2198 25.4775 29.2349L28.0457 29.923C28.186 29.9606 28.3276 29.979 28.4674 29.979C28.8844 29.979 29.2857 29.8152 29.5923 29.5086C30.0016 29.0993 30.1565 28.5211 30.0068 27.9621ZM27.5787 25.6428L28.0201 27.29L28.2566 28.173L25.7181 27.4928C25.5786 27.4554 25.432 27.4532 25.2912 27.4866C21.1162 28.4753 16.8821 28.4753 12.707 27.4866C12.6408 27.4709 12.5733 27.4631 12.5059 27.4631C12.4299 27.4631 12.354 27.473 12.2801 27.4928L9.74161 28.173L10.4196 25.6428C10.45 25.5288 10.4571 25.4098 10.4404 25.2929C9.46781 18.5209 9.46781 11.6534 10.4404 4.88143C10.4571 4.76463 10.45 4.64556 10.4196 4.53155L9.74167 2.00143L12.2802 2.6816C12.4196 2.71901 12.5663 2.72116 12.7071 2.68783C16.8821 1.69913 21.1162 1.69913 25.2913 2.68783C25.432 2.72116 25.5787 2.71901 25.7182 2.6816L28.2567 2.00143L27.5787 4.5316C27.5483 4.64562 27.5411 4.76463 27.5579 4.88149C28.5305 11.6535 28.5305 18.521 27.5579 25.293C27.541 25.4097 27.5481 25.5288 27.5787 25.6428Z" fill="#00CD69"/>
<path d="M24.4821 9.43359H22.3333C20.9765 9.43359 19.7685 10.0798 18.9986 11.0798C18.2288 10.0797 17.0207 9.43359 15.664 9.43359H13.5151C13.0332 9.43359 12.6426 9.82426 12.6426 10.3061V11.8879C12.6426 14.2077 14.5299 16.095 16.8498 16.095H18.1261V19.8697C18.1261 20.3516 18.5168 20.7423 18.9986 20.7423C19.4805 20.7423 19.8712 20.3516 19.8712 19.8697V16.095H21.1475C23.4673 16.095 25.3547 14.2077 25.3547 11.8879V10.3061C25.3547 9.82426 24.964 9.43359 24.4821 9.43359ZM14.3876 11.8879V11.1787H15.6639C17.0215 11.1787 18.126 12.2832 18.126 13.6408V14.35H16.8497C15.4921 14.35 14.3876 13.2455 14.3876 11.8879ZM23.6096 11.8879C23.6096 13.2455 22.5051 14.35 21.1475 14.35H19.8712V13.6408C19.8712 12.2832 20.9757 11.1787 22.3333 11.1787H23.6096V11.8879Z" fill="#00CD69"/>
</svg>
