<svg xmlns="http://www.w3.org/2000/svg" viewBox="0 0 67 59.76"><defs><style>.cls-1{fill:#00cd69;}</style></defs><g id="Слой_2" data-name="Слой 2"><g id="Слой_1-2" data-name="Слой 1"><path class="cls-1" d="M24.3,43.42a8,8,0,1,0-8,8A8,8,0,0,0,24.3,43.42Zm-12,0a4,4,0,1,1,4,4A4,4,0,0,1,12.3,43.42Z"/><path class="cls-1" d="M62,39v-7.7a9.51,9.51,0,0,0-9.49-9.5H48V18.37l3.31-2.21-2.18-3.27L44.1,16.27v5.51H37.9L36.65,13.7h3V7.85A7.86,7.86,0,0,0,31.8,0H11.47A7.86,7.86,0,0,0,3.62,7.85V13.7H6.41V30.46A16.33,16.33,0,1,0,31.83,48.59H44.29A11.36,11.36,0,1,0,62,39ZM55.64,55.83a7.43,7.43,0,1,1,7.43-7.43A7.44,7.44,0,0,1,55.64,55.83ZM3.93,43.42A12.41,12.41,0,1,1,16.34,55.83,12.42,12.42,0,0,1,3.93,43.42ZM7.55,7.85a3.93,3.93,0,0,1,3.92-3.92H31.8a3.93,3.93,0,0,1,3.92,3.92V9.77H7.55ZM34.33,24.41V32.1H28.1a16.36,16.36,0,0,0-6.65-4.19V13.7H32.68ZM17.52,13.7V27.13c-.39,0-.78,0-1.18,0a16.17,16.17,0,0,0-6,1.14V13.7ZM30.9,36h7.35V25.71H44.1v19H32.62c0-.41.05-.83.05-1.25A16.24,16.24,0,0,0,30.9,36ZM58.06,37.3A11.31,11.31,0,0,0,48,40V25.71h4.46a5.57,5.57,0,0,1,5.57,5.57Z"/><path class="cls-1" d="M53.68,46.44h3.93v3.93H53.68Z"/></g></g></svg>